<svg xmlns="http://www.w3.org/2000/svg" width="415.984" height="329.715" viewBox="0 0 415.984 329.715">
  <g id="business_strategy" data-name="business strategy" transform="translate(-1183.475 -5223.076)">
    <path id="Path_21840" data-name="Path 21840" d="M930.444,1545.672c40.527-37.112,125.632,2.091,198.451,11.614s191.263-5.61,190.97,36.157c-.315,44.533-26.578,69.582-170.655,81.544s-210.038-24.914-228.875-64.163C905.671,1580.266,919.614,1555.588,930.444,1545.672Z" transform="translate(279.593 3875.513)" fill="#e7f3fe"/>
    <path id="Path_21841" data-name="Path 21841" d="M945.617,1558.718a13.343,13.343,0,0,1,8.286-1.012,7.033,7.033,0,0,1,4.092,1.81c1.024,1.113,1.205,3.125.042,4.092a3.89,3.89,0,0,1-2.579.663c-2.193,0-4.622-.416-6.369.9-1,.753-1.664,2.013-2.857,2.384a2.942,2.942,0,0,1-1.785-.157,2.835,2.835,0,0,1-1.33-1.214,4.816,4.816,0,0,1-.35-3.564,5.442,5.442,0,0,1,2.85-3.9Z" transform="translate(283.144 3878.927)" fill="#ebebeb"/>
    <path id="Path_21842" data-name="Path 21842" d="M940.307,1551.159c1.537,2.215,4.532,1.484,5.924.135s1.977-3.294,2.507-5.16c1.205-4.227,2.452-8.7,1.548-13.031a7.294,7.294,0,0,0-1.663-3.541,3.818,3.818,0,0,0-1.628-1.079,3.718,3.718,0,0,0-1.952-.124c-1.512.393-2.453,1.878-3.128,3.283a31.127,31.127,0,0,0-3.067,13.334,10.845,10.845,0,0,0,1.458,6.172" transform="translate(282.681 3875.299)" fill="#ebebeb"/>
    <path id="Path_21843" data-name="Path 21843" d="M938.341,1553.555a8,8,0,0,0,1.247-7.375,14.221,14.221,0,0,0-4.362-6.341,23.5,23.5,0,0,0-7.834-4.621,8.352,8.352,0,0,0-3.513-.607,3.8,3.8,0,0,0-1.7.54,3.722,3.722,0,0,0-1.252,1.27c-.82,1.574-.03,3.474.82,5.037a60.884,60.884,0,0,0,5.135,7.848c1.542,1.99,3.3,3.946,5.646,4.823s4.785.8,6.026-.832" transform="translate(280.41 3876.084)" fill="#ebebeb"/>
    <path id="Path_21845" data-name="Path 21845" d="M940.242,1581.356a1.841,1.841,0,0,0,0-.472v-1.327c0-1.158,0-2.822.06-4.879.1-4.126.459-8.567,1.139-14.818.651-5.88,1.519-12.727,2.411-17.179.193-1.012.392-1.922.6-2.721s.332-1.484.477-2.046l.314-1.293a1.624,1.624,0,0,0,.078-.461,2.508,2.508,0,0,0-.156.45c-.1.326-.229.753-.386,1.27s-.35,1.237-.549,2.035-.428,1.7-.645,2.71a152.869,152.869,0,0,0-2.561,15.931c-.687,6.274-.994,11.985-1.017,16.111,0,2.069,0,3.744.072,4.891,0,.551.061.989.079,1.327A2.489,2.489,0,0,0,940.242,1581.356Z" transform="translate(282.825 3876.278)" fill="#e0e0e0"/>
    <path id="Path_21846" data-name="Path 21846" d="M941.864,1569.976a8.742,8.742,0,0,0,0-1.394,36.932,36.932,0,0,0-.423-3.766,49.02,49.02,0,0,0-1.205-5.475,44.448,44.448,0,0,0-2.29-6.487,34.632,34.632,0,0,0-6.719-10.478,17,17,0,0,0-1.578-1.473c-.242-.2-.459-.4-.676-.573l-.6-.427a9.232,9.232,0,0,0-1.169-.742,40.843,40.843,0,0,1,3.785,3.406,36.335,36.335,0,0,1,6.556,10.445,50.52,50.52,0,0,1,2.3,6.453,54.827,54.827,0,0,1,1.3,5.43c.29,1.563.452,2.844.554,3.721A8.24,8.24,0,0,0,941.864,1569.976Z" transform="translate(281.233 3876.651)" fill="#e0e0e0"/>
    <path id="Path_21854" data-name="Path 21854" d="M1033.438,1397.26H905V1446h128.438Z" transform="translate(278.475 3859.015)" fill="#fafafa"/>
    <path id="Path_21855" data-name="Path 21855" d="M1020.377,1407.527c0,.079-21.824.157-48.744.157s-48.745-.079-48.745-.157,21.821-.157,48.745-.157S1020.377,1407.471,1020.377,1407.527Z" transform="translate(280.697 3860.272)" fill="#ebebeb"/>
    <path id="Path_21856" data-name="Path 21856" d="M1020.377,1412.657c0,.09-21.824.157-48.744.157s-48.745-.068-48.745-.157,21.821-.157,48.745-.157S1020.377,1412.568,1020.377,1412.657Z" transform="translate(280.697 3860.909)" fill="#ebebeb"/>
    <path id="Path_21857" data-name="Path 21857" d="M1020.377,1417.787c0,.09-21.824.157-48.744.157s-48.745-.068-48.745-.157,21.821-.157,48.745-.157S1020.377,1417.7,1020.377,1417.787Z" transform="translate(280.697 3861.547)" fill="#ebebeb"/>
    <path id="Path_21858" data-name="Path 21858" d="M1020.377,1422.917c0,.09-21.824.157-48.744.157s-48.745-.068-48.745-.157,21.821-.157,48.745-.157S1020.377,1422.827,1020.377,1422.917Z" transform="translate(280.697 3862.185)" fill="#ebebeb"/>
    <path id="Path_21859" data-name="Path 21859" d="M1020.377,1428.047c0,.09-21.824.157-48.744.157s-48.745-.068-48.745-.157,21.821-.157,48.745-.157S1020.377,1427.957,1020.377,1428.047Z" transform="translate(280.697 3862.822)" fill="#ebebeb"/>
    <path id="Path_21860" data-name="Path 21860" d="M1011.976,1423.31s-.068.09-.214.247a2.417,2.417,0,0,1-.821.517,3.707,3.707,0,0,1-1.855.112,3.811,3.811,0,0,1-1.7-.764,6.5,6.5,0,0,1-1.676-2.114c-.47-.877-.838-1.889-1.277-2.934a9.179,9.179,0,0,0-1.91-3.069,4.188,4.188,0,0,0-1.651-1.012,4.334,4.334,0,0,0-2.043-.124,7.85,7.85,0,0,0-3.887,2.069c-1.162,1.046-2.181,2.35-3.435,3.519a7.921,7.921,0,0,1-4.706,2.316,4.236,4.236,0,0,1-2.694-.7,6.464,6.464,0,0,1-1.881-2.17c-.97-1.675-1.458-3.62-2.717-5.149a4.425,4.425,0,0,0-2.362-1.641,3.379,3.379,0,0,0-1.463.022,3.216,3.216,0,0,0-1.31.652,6.205,6.205,0,0,0-1.808,2.417,15.319,15.319,0,0,0-.861,3.013,18.851,18.851,0,0,1-.857,3.148,7.4,7.4,0,0,1-.782,1.473,6.677,6.677,0,0,1-1.151,1.2,7.455,7.455,0,0,1-2.977,1.5,7.176,7.176,0,0,1-3.278.045,7.559,7.559,0,0,1-2.9-1.428c-.856-.641-1.634-1.36-2.446-1.99a7.331,7.331,0,0,0-2.628-1.405,3.8,3.8,0,0,0-2.821.371,6.713,6.713,0,0,0-2.1,1.968,18.551,18.551,0,0,0-1.422,2.5,19.088,19.088,0,0,1-1.41,2.474,6.645,6.645,0,0,1-2.018,1.922,4.111,4.111,0,0,1-2.64.6,3.832,3.832,0,0,1-2.3-1.27,6.607,6.607,0,0,1-1.266-2.2,16.818,16.818,0,0,1-.6-2.361,10.96,10.96,0,0,0-1.356-4.227,4.83,4.83,0,0,0-1.317-1.506,4.735,4.735,0,0,0-1.817-.832,3.545,3.545,0,0,0-1.808.225,4.7,4.7,0,0,0-1.447.956c-1.645,1.585-2.411,3.485-3.657,4.587a5.278,5.278,0,0,1-3.273,1.653,2.786,2.786,0,0,1-.958-.169l-.3-.135a3.437,3.437,0,0,0,1.259.236,4.953,4.953,0,0,0,3.182-1.664c1.128-1.147,1.958-3.013,3.616-4.632a4.849,4.849,0,0,1,1.5-1,3.7,3.7,0,0,1,1.91-.247,4.951,4.951,0,0,1,1.9.843,5.021,5.021,0,0,1,1.385,1.563,7.489,7.489,0,0,1,.911,2.057c.2.731.35,1.5.494,2.271a15.849,15.849,0,0,0,.6,2.316,6.2,6.2,0,0,0,1.205,2.114,3.549,3.549,0,0,0,2.134,1.2,3.821,3.821,0,0,0,2.464-.607,6.4,6.4,0,0,0,1.935-1.844,19.283,19.283,0,0,0,1.379-2.417,20.062,20.062,0,0,1,1.44-2.541,7.021,7.021,0,0,1,2.182-2.08,4.083,4.083,0,0,1,3.013-.4,7.618,7.618,0,0,1,2.753,1.5c.826.641,1.6,1.349,2.411,1.968a6.981,6.981,0,0,0,2.857,1.372,6.737,6.737,0,0,0,3.14-.045,6.963,6.963,0,0,0,2.843-1.417,6.742,6.742,0,0,0,1.1-1.169,6.836,6.836,0,0,0,.753-1.417,18.533,18.533,0,0,0,.843-3.092,15.417,15.417,0,0,1,.88-3.114,6.633,6.633,0,0,1,1.923-2.552,3.632,3.632,0,0,1,3.013-.72,4.719,4.719,0,0,1,2.525,1.743c1.307,1.608,1.808,3.575,2.742,5.205a6.184,6.184,0,0,0,1.808,2.08,4.078,4.078,0,0,0,2.518.675,7.58,7.58,0,0,0,4.55-2.237c1.236-1.147,2.26-2.417,3.447-3.5a7.891,7.891,0,0,1,4.014-2.1,4.452,4.452,0,0,1,2.14.124,4.567,4.567,0,0,1,1.735,1.068,9.388,9.388,0,0,1,1.929,3.148c.434,1.068.795,2.069,1.247,2.934a6.472,6.472,0,0,0,1.616,2.091,3.769,3.769,0,0,0,1.648.765,3.7,3.7,0,0,0,1.819-.079A2.572,2.572,0,0,0,1011.976,1423.31Z" transform="translate(280.609 3860.847)" fill="#e0e0e0"/>
    <path id="Path_21861" data-name="Path 21861" d="M1018.235,1422.473h-.337a3.6,3.6,0,0,1-.416-.056,3.809,3.809,0,0,1-.54-.191,9.287,9.287,0,0,1-2.912-2.451c-.27-.315-.551-.652-.832-1.023a10.414,10.414,0,0,0-.9-1.1,4.746,4.746,0,0,0-2.864-1.315,4.045,4.045,0,0,0-1.754.225,4.412,4.412,0,0,0-1.56,1.057,35.488,35.488,0,0,0-2.568,3.328,7.851,7.851,0,0,1-1.645,1.6,5.074,5.074,0,0,1-2.247.843,10,10,0,0,1-4.948-.911c-1.616-.663-3.164-1.6-4.905-2.192a8.907,8.907,0,0,0-2.706-.54,5.752,5.752,0,0,0-2.73.607c-1.742.832-3.1,2.35-4.742,3.62a9.849,9.849,0,0,1-2.749,1.507,9.982,9.982,0,0,1-3.145.54,11.655,11.655,0,0,1-6.244-1.731,15.173,15.173,0,0,1-4.742-4.722,43.326,43.326,0,0,1-2.88-6.037,12.062,12.062,0,0,0-1.682-2.743,7.208,7.208,0,0,0-2.47-1.911,4.394,4.394,0,0,0-2.977-.315,4.856,4.856,0,0,0-2.471,1.63,8.258,8.258,0,0,0-1.482,2.563,19.908,19.908,0,0,0-.766,2.844c-.2.956-.386,1.911-.645,2.833a12.587,12.587,0,0,1-1.035,2.574,11.98,11.98,0,0,1-3.617,4.047,10.557,10.557,0,0,1-4.67,1.889,9.773,9.773,0,0,1-4.615-.54,9.053,9.053,0,0,1-5.563-5.464c-.386-1.124-.6-2.2-.861-3.171a7.239,7.239,0,0,0-1.11-2.473,3.966,3.966,0,0,0-3.218-1.653,2.589,2.589,0,0,0-1.205.45,2.088,2.088,0,0,1,1.205-.506,3.985,3.985,0,0,1,1.868.416,3.9,3.9,0,0,1,1.459,1.237,7.282,7.282,0,0,1,1.157,2.507c.289.967.495,2.046.88,3.148a8.943,8.943,0,0,0,5.478,5.318,9.461,9.461,0,0,0,4.507.495,10.2,10.2,0,0,0,4.55-1.855,11.721,11.721,0,0,0,3.483-3.969,18.186,18.186,0,0,0,1.67-5.4,20.5,20.5,0,0,1,.771-2.889,8.614,8.614,0,0,1,1.531-2.665,5.21,5.21,0,0,1,2.621-1.72,4.712,4.712,0,0,1,3.182.326,7.5,7.5,0,0,1,2.58,1.99,12.5,12.5,0,0,1,1.724,2.811,44.2,44.2,0,0,0,2.868,6.037,14.961,14.961,0,0,0,4.634,4.632,11.277,11.277,0,0,0,6.08,1.7,10.093,10.093,0,0,0,3.056-.528,9.342,9.342,0,0,0,2.663-1.462c1.609-1.2,2.983-2.755,4.821-3.62a6.291,6.291,0,0,1,2.862-.607,9.139,9.139,0,0,1,2.79.573c1.772.607,3.326,1.54,4.918,2.215a9.893,9.893,0,0,0,4.821.922,4.863,4.863,0,0,0,2.12-.854,7.233,7.233,0,0,0,1.6-1.54,36.256,36.256,0,0,1,2.621-3.328,4.479,4.479,0,0,1,1.634-1.091,4.292,4.292,0,0,1,1.808-.225,4.962,4.962,0,0,1,2.959,1.372,12.188,12.188,0,0,1,.9,1.147c.281.36.551.7.821,1.023a9.306,9.306,0,0,0,2.833,2.462A2.549,2.549,0,0,0,1018.235,1422.473Z" transform="translate(280.522 3860.358)" fill="#e0e0e0"/>
    <path id="Path_21862" data-name="Path 21862" d="M917.216,1407.79a2.957,2.957,0,0,1-1.29.157,2.9,2.9,0,0,1-1.278-.157,2.657,2.657,0,0,1,1.29-.157A2.612,2.612,0,0,1,917.216,1407.79Z" transform="translate(279.673 3860.302)" fill="#e0e0e0"/>
    <path id="Path_21863" data-name="Path 21863" d="M917.216,1412.659a2.8,2.8,0,0,1-1.29.157,2.752,2.752,0,0,1-1.278-.157,2.8,2.8,0,0,1,1.29-.157A2.9,2.9,0,0,1,917.216,1412.659Z" transform="translate(279.673 3860.908)" fill="#e0e0e0"/>
    <path id="Path_21864" data-name="Path 21864" d="M917.216,1417.54a2.8,2.8,0,0,1-1.29.146,2.746,2.746,0,0,1-1.278-.146,2.658,2.658,0,0,1,1.29-.157A2.612,2.612,0,0,1,917.216,1417.54Z" transform="translate(279.673 3861.514)" fill="#e0e0e0"/>
    <path id="Path_21865" data-name="Path 21865" d="M917.217,1422.409a5.363,5.363,0,0,1-2.58,0,5.371,5.371,0,0,1,2.58,0Z" transform="translate(279.672 3862.119)" fill="#e0e0e0"/>
    <path id="Path_21866" data-name="Path 21866" d="M917.217,1427.279a5.363,5.363,0,0,1-2.58,0,5.367,5.367,0,0,1,2.58,0Z" transform="translate(279.672 3862.725)" fill="#e0e0e0"/>
    <path id="Path_21867" data-name="Path 21867" d="M928.04,1433.549a21.152,21.152,0,0,1-5.152,0,21.152,21.152,0,0,1,5.152,0Z" transform="translate(280.697 3863.504)" fill="#e0e0e0"/>
    <path id="Path_21868" data-name="Path 21868" d="M948.263,1433.549a21.2,21.2,0,0,1-5.158,0,21.2,21.2,0,0,1,5.158,0Z" transform="translate(283.21 3863.504)" fill="#e0e0e0"/>
    <path id="Path_21869" data-name="Path 21869" d="M968.481,1433.549a21.2,21.2,0,0,1-5.158,0,21.2,21.2,0,0,1,5.158,0Z" transform="translate(285.723 3863.504)" fill="#e0e0e0"/>
    <path id="Path_21870" data-name="Path 21870" d="M988.7,1433.549a21.153,21.153,0,0,1-5.153,0,21.153,21.153,0,0,1,5.153,0Z" transform="translate(288.236 3863.504)" fill="#e0e0e0"/>
    <path id="Path_21871" data-name="Path 21871" d="M1008.919,1433.549a21.125,21.125,0,0,1-5.149,0,21.125,21.125,0,0,1,5.149,0Z" transform="translate(290.749 3863.504)" fill="#e0e0e0"/>
    <path id="Path_21872" data-name="Path 21872" d="M1176.048,1508.95H1071.49v64.815h104.558Z" transform="translate(299.166 3872.896)" fill="#fafafa"/>
    <path id="Path_21873" data-name="Path 21873" d="M1149.58,1553.714c-7.229-2.766-15.594,4.823-22.7,1.743-4.137-1.81-6.026-6.487-8.039-10.523s-5.52-8.3-10.006-7.847-8.207,5.745-12.558,4.475c-2.754-.8-4.126-3.856-4.823-6.633s-1.169-5.88-3.271-7.848-6.476-1.428-6.813,1.417v34.358h81.769S1152.087,1554.659,1149.58,1553.714Z" transform="translate(300.394 3875.003)" fill="#ebebeb"/>
    <path id="Path_21874" data-name="Path 21874" d="M1165.836,1558.794c0,.079-19.821.135-44.263.135s-44.263-.056-44.263-.135,19.81-.124,44.263-.124S1165.836,1558.726,1165.836,1558.794Z" transform="translate(299.889 3879.076)" fill="#e0e0e0"/>
    <path id="Path_21875" data-name="Path 21875" d="M1165.836,1545.425c0,.079-19.821.135-44.263.135s-44.263-.056-44.263-.135,19.81-.135,44.263-.135S1165.836,1545.38,1165.836,1545.425Z" transform="translate(299.889 3877.413)" fill="#e0e0e0"/>
    <path id="Path_21876" data-name="Path 21876" d="M1165.836,1532.1c0,.068-19.821.135-44.263.135s-44.263-.067-44.263-.135,19.81-.135,44.263-.135S1165.836,1532.026,1165.836,1532.1Z" transform="translate(299.889 3875.757)" fill="#e0e0e0"/>
    <path id="Path_21877" data-name="Path 21877" d="M1165.836,1519.426c0,.067-19.821.124-44.263.124s-44.263-.056-44.263-.124,19.81-.146,44.263-.146S1165.836,1519.347,1165.836,1519.426Z" transform="translate(299.889 3874.18)" fill="#e0e0e0"/>
    <path id="Path_21878" data-name="Path 21878" d="M1248.313,1371.38H1170.49v69.728h77.823Z" transform="translate(311.47 3855.799)" fill="#fafafa"/>
    <path id="Path_21879" data-name="Path 21879" d="M1248.334,1441.13V1436.1c0-3.283,0-8.061-.056-14.166,0-12.176-.056-29.568-.09-50.536l.18.18h-77.823l.214-.214V1441.1l-.18-.18,56.293.09,15.875.045h.09l-15.841.056-56.405.09h-.27v-70h78.216v.169c-.034,21-.079,38.45-.09,50.66,0,6.082-.045,10.86-.056,14.11v3.71A11.223,11.223,0,0,1,1248.334,1441.13Z" transform="translate(311.448 3855.777)" fill="#e0e0e0"/>
    <path id="Path_21880" data-name="Path 21880" d="M1199.052,1382.422c0,.112-4.1.214-9.152.214s-9.14-.1-9.14-.214,4.081-.2,9.14-.2S1199.052,1382.31,1199.052,1382.422Z" transform="translate(312.746 3857.146)" fill="#e0e0e0"/>
    <path id="Path_21881" data-name="Path 21881" d="M1231.917,1387.082c0,.124-11.254.214-25.139.214s-25.128-.09-25.128-.214,11.254-.2,25.128-.2S1231.917,1386.97,1231.917,1387.082Z" transform="translate(312.856 3857.725)" fill="#e0e0e0"/>
    <path id="Path_21882" data-name="Path 21882" d="M1184.153,1394.94h-3.283v3.283h3.283Z" transform="translate(312.76 3858.727)" fill="#e0e0e0"/>
    <path id="Path_21883" data-name="Path 21883" d="M1191.333,1394.94h-3.283v3.283h3.283Z" transform="translate(313.651 3858.727)" fill="#e0e0e0"/>
    <path id="Path_21884" data-name="Path 21884" d="M1198.643,1394.81h-3.283v3.283h3.283Z" transform="translate(314.561 3858.711)" fill="#e0e0e0"/>
    <path id="Path_21885" data-name="Path 21885" d="M1205.693,1394.94h-3.283v3.283h3.283Z" transform="translate(315.437 3858.727)" fill="#e0e0e0"/>
    <path id="Path_21886" data-name="Path 21886" d="M1212.862,1394.94h-3.272v3.283h3.272Z" transform="translate(316.329 3858.727)" fill="#e0e0e0"/>
    <path id="Path_21887" data-name="Path 21887" d="M1220.043,1394.94h-3.283v3.283h3.283Z" transform="translate(317.22 3858.727)" fill="#e0e0e0"/>
    <path id="Path_21889" data-name="Path 21889" d="M1184.153,1401.15h-3.283v3.283h3.283Z" transform="translate(312.76 3859.499)" fill="#ebebeb"/>
    <path id="Path_21890" data-name="Path 21890" d="M1191.333,1401.15h-3.283v3.283h3.283Z" transform="translate(313.651 3859.499)" fill="#e0e0e0"/>
    <path id="Path_21891" data-name="Path 21891" d="M1198.5,1401.15h-3.272v3.283h3.272Z" transform="translate(314.544 3859.499)" fill="#ebebeb"/>
    <path id="Path_21892" data-name="Path 21892" d="M1205.693,1401.15h-3.283v3.283h3.283Z" transform="translate(315.437 3859.499)" fill="#e0e0e0"/>
    <path id="Path_21893" data-name="Path 21893" d="M1212.862,1401.15h-3.272v3.283h3.272Z" transform="translate(316.329 3859.499)" fill="#e0e0e0"/>
    <path id="Path_21894" data-name="Path 21894" d="M1220.172,1401.02H1216.9v3.283h3.272Z" transform="translate(317.237 3859.483)" fill="#e0e0e0"/>
    <path id="Path_21896" data-name="Path 21896" d="M1184.153,1407.36h-3.283v3.283h3.283Z" transform="translate(312.76 3860.271)" fill="#e0e0e0"/>
    <path id="Path_21897" data-name="Path 21897" d="M1191.463,1407.23h-3.283v3.283h3.283Z" transform="translate(313.668 3860.255)" fill="#e0e0e0"/>
    <path id="Path_21898" data-name="Path 21898" d="M1198.5,1407.36h-3.272v3.283h3.272Z" transform="translate(314.544 3860.271)" fill="#e0e0e0"/>
    <path id="Path_21899" data-name="Path 21899" d="M1205.693,1407.36h-3.283v3.283h3.283Z" transform="translate(315.437 3860.271)" fill="#ebebeb"/>
    <path id="Path_21900" data-name="Path 21900" d="M1212.862,1407.36h-3.272v3.283h3.272Z" transform="translate(316.329 3860.271)" fill="#e0e0e0"/>
    <path id="Path_21901" data-name="Path 21901" d="M1220.043,1407.36h-3.283v3.283h3.283Z" transform="translate(317.22 3860.271)" fill="#e0e0e0"/>
    <path id="Path_21903" data-name="Path 21903" d="M1184.153,1413.57h-3.283v3.283h3.283Z" transform="translate(312.76 3861.042)" fill="#e0e0e0"/>
    <path id="Path_21904" data-name="Path 21904" d="M1191.333,1413.57h-3.283v3.283h3.283Z" transform="translate(313.651 3861.042)" fill="#e0e0e0"/>
    <path id="Path_21905" data-name="Path 21905" d="M1198.5,1413.57h-3.272v3.283h3.272Z" transform="translate(314.544 3861.042)" fill="#e0e0e0"/>
    <path id="Path_21906" data-name="Path 21906" d="M1205.812,1413.44h-3.272v3.283h3.272Z" transform="translate(315.453 3861.026)" fill="#e0e0e0"/>
    <path id="Path_21907" data-name="Path 21907" d="M1212.862,1413.57h-3.272v3.283h3.272Z" transform="translate(316.329 3861.042)" fill="#e0e0e0"/>
    <path id="Path_21908" data-name="Path 21908" d="M1220.043,1413.57h-3.283v3.283h3.283Z" transform="translate(317.22 3861.042)" fill="#ebebeb"/>
    <path id="Path_21910" data-name="Path 21910" d="M1184.153,1419.78h-3.283v3.283h3.283Z" transform="translate(312.76 3861.814)" fill="#e0e0e0"/>
    <path id="Path_21911" data-name="Path 21911" d="M1191.333,1419.78h-3.283v3.283h3.283Z" transform="translate(313.651 3861.814)" fill="#ebebeb"/>
    <path id="Path_21912" data-name="Path 21912" d="M1198.5,1419.78h-3.272v3.283h3.272Z" transform="translate(314.544 3861.814)" fill="#e0e0e0"/>
    <path id="Path_21913" data-name="Path 21913" d="M1205.693,1419.78h-3.283v3.283h3.283Z" transform="translate(315.437 3861.814)" fill="#e0e0e0"/>
    <path id="Path_21914" data-name="Path 21914" d="M1212.862,1419.78h-3.272v3.283h3.272Z" transform="translate(316.329 3861.814)" fill="#e0e0e0"/>
    <path id="Path_21915" data-name="Path 21915" d="M1220.172,1419.65H1216.9v3.283h3.272Z" transform="translate(317.237 3861.798)" fill="#e0e0e0"/>
    <path id="Path_21918" data-name="Path 21918" d="M1144.572,1376.99s9.208.135,5.273,18.4-3.44,21.721-3.44,28.961a12.595,12.595,0,0,0,6.813,11.468h-12.491l-9.2-42.621V1376.99Z" transform="translate(306.627 3856.496)" fill="#e0e0e0"/>
    <path id="Path_21919" data-name="Path 21919" d="M1159.489,1519.273H1033.3l1.136-123.615,118.836-6.229Z" transform="translate(294.419 3858.042)" fill="#e0e0e0"/>
    <path id="Path_21920" data-name="Path 21920" d="M1155.639,1516.009H1029.45l1.124-123.615L1153.1,1390Z" transform="translate(293.94 3858.113)" fill="#ebebeb"/>
    <path id="Path_21921" data-name="Path 21921" d="M1153.281,1512.718H1027.35V1389.092l126.009-.292Z" transform="translate(293.68 3857.964)" fill="#fafafa"/>
    <path id="Path_21922" data-name="Path 21922" d="M1153.3,1512.734c0-1.158,0-49.592-.056-123.918l.135.135-125.807.326h-.2l.157-.157v123.626l-.124-.135,125.942.135-125.942.135h-.191V1388.962h.349l125.807-.292h.146v.146C1153.377,1463.142,1153.3,1511.576,1153.3,1512.734Z" transform="translate(293.662 3857.948)" fill="#263238"/>
    <path id="Path_21923" data-name="Path 21923" d="M1153.394,1389.98c-6.5-7.578,1.057-13.2,3.62-13.312l-119.927-.079a10.15,10.15,0,0,0-4.261.944,10.163,10.163,0,0,0-5.7,10.894,15.545,15.545,0,0,0,.495,1.889" transform="translate(293.634 3856.447)" fill="#f5f5f5"/>
    <path id="Path_21924" data-name="Path 21924" d="M1142.894,1435.852h2.53l7.105-.045-.022.191a7.641,7.641,0,0,1-2.9-1.664,9.373,9.373,0,0,1-2.158-3.08,20.744,20.744,0,0,1-1.316-3.991c-.157-.708-.3-1.439-.438-2.17a9.354,9.354,0,0,1-.169-1.124,10.072,10.072,0,0,1-.1-1.158,43.088,43.088,0,0,1,.169-4.823c.124-1.653.3-3.339.506-5.048.4-3.44.922-7.016,1.529-10.681.259-1.574.573-3.114.832-4.632s.45-3.013.641-4.52.349-2.934.528-4.373c.068-.72.169-1.417.191-2.114a12.986,12.986,0,0,0-1.259-5.846,7.468,7.468,0,0,0-2.3-2.878,4.494,4.494,0,0,0-3.272-.731,6.057,6.057,0,0,0-2.923,1.2,7.3,7.3,0,0,0-1.8,2.26,9.634,9.634,0,0,0-.888,2.462,6.424,6.424,0,0,0,.484,4.092,13.036,13.036,0,0,0,1.327,2.3l.4.562a.981.981,0,0,1,.124.2l-.157-.18c-.1-.124-.236-.3-.427-.551a12.821,12.821,0,0,1-1.383-2.294,6.45,6.45,0,0,1-.54-4.171,9.993,9.993,0,0,1,.877-2.518,7.4,7.4,0,0,1,1.866-2.339,6.283,6.283,0,0,1,3.013-1.282,4.749,4.749,0,0,1,3.452.753,7.8,7.8,0,0,1,2.417,2.979,12.523,12.523,0,0,1,1.169,3.868,13.207,13.207,0,0,1,.135,2.1,19.354,19.354,0,0,1-.2,2.136c-.157,1.439-.326,2.9-.517,4.385s-.394,3.024-.63,4.531-.573,3.058-.821,4.632c-.607,3.654-1.135,7.24-1.552,10.658-.2,1.72-.382,3.4-.506,5.037a44.948,44.948,0,0,0-.18,4.767c.011.382.034.765.079,1.135s.112.742.169,1.113c.135.731.27,1.45.438,2.159a20.742,20.742,0,0,0,1.248,3.9,9.366,9.366,0,0,0,2.091,3.013,7.624,7.624,0,0,0,2.811,1.641l.6.191h-.6l-7.105-.045h-2.372A.375.375,0,0,1,1142.894,1435.852Z" transform="translate(307.316 3856.479)" fill="#263238"/>
    <path id="Path_21925" data-name="Path 21925" d="M1073.349,1380.02c.045.034-.315.506-.675,1.383a8.618,8.618,0,0,0-.45,1.6,9.358,9.358,0,0,0-.09,2.024,9.219,9.219,0,0,0,.393,1.979,8.219,8.219,0,0,0,.7,1.5c.483.821.911,1.214.866,1.281s-.124-.079-.326-.27a5.042,5.042,0,0,1-.731-.888,6.866,6.866,0,0,1-.742-1.529,8.546,8.546,0,0,1-.45-2.046,8.218,8.218,0,0,1,.135-2.1,6.352,6.352,0,0,1,.529-1.619,4.618,4.618,0,0,1,.6-.989C1073.225,1380.1,1073.326,1380.009,1073.349,1380.02Z" transform="translate(299.207 3856.873)" fill="#263238"/>
    <path id="Path_21926" data-name="Path 21926" d="M1070.859,1376.22a12.6,12.6,0,0,0-1.6,1.934,8.021,8.021,0,0,0,2.013,10.782,12.671,12.671,0,0,0,2.181,1.237,2.257,2.257,0,0,1-.652-.18,7.05,7.05,0,0,1-1.653-.877,7.98,7.98,0,0,1-2.069-11.085,6.926,6.926,0,0,1,1.214-1.417A1.958,1.958,0,0,1,1070.859,1376.22Z" transform="translate(298.695 3856.401)" fill="#263238"/>
    <path id="Path_21927" data-name="Path 21927" d="M1141.824,1467.928h-1.552l-4.441.034-16.369.045-54,.045H1042.01v-.146c0-15.448.045-28.737.056-38.169,0-4.711.045-8.454.056-11.029V1415a.912.912,0,0,1,0-.247v3.958c0,2.575,0,6.318.034,11.029,0,9.433.045,22.722.067,38.169l-.157-.146h23.3l54,.045,16.37.045h5.61Z" transform="translate(295.502 3861.189)" fill="#263238"/>
    <path id="Path_21928" data-name="Path 21928" d="M1059.424,1450.37H1049.35v10.085h10.074Z" transform="translate(296.414 3865.616)" fill="#9ec8ff"/>
    <path id="Path_21929" data-name="Path 21929" d="M1072.553,1443.96H1062.48v17.291h10.073Z" transform="translate(298.046 3864.819)" fill="#9ec8ff"/>
    <path id="Path_21930" data-name="Path 21930" d="M1085.734,1436.67H1075.66v25.476h10.073Z" transform="translate(299.684 3863.913)" fill="#9ec8ff"/>
    <path id="Path_21931" data-name="Path 21931" d="M1098.514,1428.57H1088.44v34.594h10.074Z" transform="translate(301.272 3862.907)" fill="#9ec8ff"/>
    <path id="Path_21932" data-name="Path 21932" d="M1111.583,1418.19H1101.51v46.253h10.073Z" transform="translate(302.896 3861.617)" fill="#9ec8ff"/>
    <path id="Path_21933" data-name="Path 21933" d="M1124.563,1410.27H1114.49v54.685h10.073Z" transform="translate(304.51 3860.632)" fill="#9ec8ff"/>
    <path id="Path_21934" data-name="Path 21934" d="M1049.35,1446.174l.135-.1.382-.27,1.54-1.023,5.768-3.811,19.978-13.075.236-.146v4.778l-.236-.124,7.87-5.284,27.781-18.584,8.432-5.6,2.3-1.518.607-.382a1.924,1.924,0,0,1,.2-.124,1.243,1.243,0,0,1-.191.146l-.6.416-2.271,1.563-8.387,5.677-27.725,18.663-7.87,5.284-.247.157v-4.8l.236.135-20.046,12.974-5.812,3.744-1.563.978-.394.247Z" transform="translate(296.414 3859.469)" fill="#263238"/>
    <path id="Path_21935" data-name="Path 21935" d="M1116.629,1405.188a5.075,5.075,0,0,1-.112-1.237c0-.776-.034-1.81-.045-3.024l.157.157h-.382c-1.293,0-2.462,0-3.305-.045a5.108,5.108,0,0,1-1.372-.112,6.216,6.216,0,0,1,1.372-.1c.843,0,2.012-.056,3.305-.056h.54v.157c0,1.2,0,2.271-.045,3.013A5.154,5.154,0,0,1,1116.629,1405.188Z" transform="translate(304.146 3859.452)" fill="#263238"/>
    <path id="Path_21936" data-name="Path 21936" d="M1070.286,1469.3c0,.09-3.1.157-6.948.157s-6.948-.068-6.948-.157,3.114-.157,6.948-.157S1070.286,1469.2,1070.286,1469.3Z" transform="translate(297.289 3867.949)" fill="#263238"/>
    <path id="Path_21937" data-name="Path 21937" d="M1062.417,1473.88a8.829,8.829,0,0,1,0-3.26A8.373,8.373,0,0,1,1062.417,1473.88Z" transform="translate(298.02 3868.133)" fill="#263238"/>
    <path id="Path_21938" data-name="Path 21938" d="M1081.68,1474.987c0,.09-8.354.157-18.674.157s-18.686-.067-18.686-.157,8.342-.157,18.686-.157S1081.68,1474.9,1081.68,1474.987Z" transform="translate(295.789 3868.656)" fill="#263238"/>
    <path id="Path_21939" data-name="Path 21939" d="M1044.6,1479.588a16.814,16.814,0,0,1,0-4.508A15.938,15.938,0,0,1,1044.6,1479.588Z" transform="translate(295.805 3868.687)" fill="#263238"/>
    <path id="Path_21940" data-name="Path 21940" d="M1056.408,1479.08a11.88,11.88,0,0,1,0-3.89A11.894,11.894,0,0,1,1056.408,1479.08Z" transform="translate(297.271 3868.701)" fill="#263238"/>
    <path id="Path_21941" data-name="Path 21941" d="M1068.547,1479.321a15.027,15.027,0,0,1,0-4.261A14.245,14.245,0,0,1,1068.547,1479.321Z" transform="translate(298.781 3868.685)" fill="#263238"/>
    <path id="Path_21942" data-name="Path 21942" d="M1077.787,1479.335a15.9,15.9,0,0,1,0-4.385A15.089,15.089,0,0,1,1077.787,1479.335Z" transform="translate(299.93 3868.671)" fill="#263238"/>
    <path id="Path_21943" data-name="Path 21943" d="M1049.7,1480.229a64.455,64.455,0,0,1-9.005,0,64.5,64.5,0,0,1,9.005,0Z" transform="translate(295.338 3869.305)" fill="#263238"/>
    <path id="Path_21944" data-name="Path 21944" d="M1059.711,1480.228a37.659,37.659,0,0,1-6.881,0A37.038,37.038,0,0,1,1059.711,1480.228Z" transform="translate(296.847 3869.307)" fill="#263238"/>
    <path id="Path_21945" data-name="Path 21945" d="M1072.8,1480.57a45.005,45.005,0,0,1-7.386,0,43.388,43.388,0,0,1,7.386,0Z" transform="translate(298.41 3869.347)" fill="#263238"/>
    <path id="Path_21946" data-name="Path 21946" d="M1083.431,1480.01a48.512,48.512,0,0,1-7.881,0,49.421,49.421,0,0,1,7.881,0Z" transform="translate(299.67 3869.277)" fill="#263238"/>
    <path id="Path_21947" data-name="Path 21947" d="M1044.707,1484.412a5.824,5.824,0,0,1,0-2.642A5.526,5.526,0,0,1,1044.707,1484.412Z" transform="translate(295.818 3869.518)" fill="#263238"/>
    <path id="Path_21948" data-name="Path 21948" d="M1054.12,1484.127c0,.09-3.62.169-8.14.169s-8.14-.079-8.14-.169,3.62-.157,8.14-.157S1054.12,1484.049,1054.12,1484.127Z" transform="translate(294.983 3869.792)" fill="#263238"/>
    <path id="Path_21949" data-name="Path 21949" d="M1052.338,1487.855a11.08,11.08,0,0,1,0-3.755A11.686,11.686,0,0,1,1052.338,1487.855Z" transform="translate(296.766 3869.808)" fill="#263238"/>
    <path id="Path_21950" data-name="Path 21950" d="M1037.858,1488.123a12.579,12.579,0,0,1,0-4A13.269,13.269,0,0,1,1037.858,1488.123Z" transform="translate(294.966 3869.811)" fill="#263238"/>
    <path id="Path_21951" data-name="Path 21951" d="M1068.848,1484.412a5.526,5.526,0,0,1,0-2.642A5.824,5.824,0,0,1,1068.848,1484.412Z" transform="translate(298.817 3869.518)" fill="#263238"/>
    <path id="Path_21952" data-name="Path 21952" d="M1089.47,1484.127c0,.09-6.161.169-13.75.169s-13.75-.079-13.75-.169,6.15-.157,13.75-.157S1089.47,1484.049,1089.47,1484.127Z" transform="translate(297.982 3869.792)" fill="#263238"/>
    <path id="Path_21953" data-name="Path 21953" d="M1076.468,1487.855a11.08,11.08,0,0,1,0-3.755A11.686,11.686,0,0,1,1076.468,1487.855Z" transform="translate(299.765 3869.808)" fill="#263238"/>
    <path id="Path_21954" data-name="Path 21954" d="M1086.948,1487.855a11.074,11.074,0,0,1,0-3.755A11.693,11.693,0,0,1,1086.948,1487.855Z" transform="translate(301.066 3869.808)" fill="#263238"/>
    <path id="Path_21955" data-name="Path 21955" d="M1061.988,1488.123a12.579,12.579,0,0,1,0-4A12.579,12.579,0,0,1,1061.988,1488.123Z" transform="translate(297.965 3869.811)" fill="#263238"/>
    <path id="Path_21956" data-name="Path 21956" d="M1041.4,1489.759a32.817,32.817,0,0,1-6.42,0,32.792,32.792,0,0,1,6.42,0Z" transform="translate(294.628 3870.49)" fill="#263238"/>
    <path id="Path_21957" data-name="Path 21957" d="M1055.637,1489.349a38.277,38.277,0,0,1-6.937,0,38.306,38.306,0,0,1,6.937,0Z" transform="translate(296.333 3870.439)" fill="#263238"/>
    <path id="Path_21958" data-name="Path 21958" d="M1065.795,1489.348a29.142,29.142,0,0,1-6.1,0A29.175,29.175,0,0,1,1065.795,1489.348Z" transform="translate(297.699 3870.44)" fill="#263238"/>
    <path id="Path_21959" data-name="Path 21959" d="M1079.663,1489.348a34.389,34.389,0,0,1-6.633,0A34.429,34.429,0,0,1,1079.663,1489.348Z" transform="translate(299.357 3870.44)" fill="#263238"/>
    <path id="Path_21960" data-name="Path 21960" d="M1090.723,1488.977a35.345,35.345,0,0,1-6.723,0A37.3,37.3,0,0,1,1090.723,1488.977Z" transform="translate(300.721 3870.395)" fill="#263238"/>
    <path id="Path_21961" data-name="Path 21961" d="M1135.409,1494.054H1092.9V1467.69h42.509Zm-42.475,0h42.453v-26.331h-42.453Z" transform="translate(301.826 3867.769)" fill="#263238"/>
    <path id="Path_21962" data-name="Path 21962" d="M1124.643,1485.889c-2.946-1.113-6.33,1.968-9.23.708-1.675-.731-2.44-2.631-3.26-4.272s-2.249-3.373-4.059-3.182-3.328,2.316-5.1,1.81c-1.124-.326-1.675-1.563-1.967-2.7a6.132,6.132,0,0,0-1.327-3.182c-.854-.8-2.631-.607-2.766.607v13.964h33.222A56.159,56.159,0,0,0,1124.643,1485.889Z" transform="translate(302.327 3868.626)" fill="#9ec8ff"/>
    <path id="Path_21963" data-name="Path 21963" d="M1131.246,1487.986c0,.022-8.05.056-17.989.056s-17.977-.056-17.977-.056,8.05-.056,17.989-.056S1131.246,1487.919,1131.246,1487.986Z" transform="translate(302.122 3870.284)" fill="#e0e0e0"/>
    <path id="Path_21964" data-name="Path 21964" d="M1131.246,1482.525s-8.05.056-17.989.056-17.977,0-17.977-.056,8.05-.045,17.977-.045S1131.246,1482.5,1131.246,1482.525Z" transform="translate(302.122 3869.607)" fill="#263238"/>
    <path id="Path_21965" data-name="Path 21965" d="M1131.246,1477.106s-8.05.056-17.989.056-17.977,0-17.977-.056,8.05-.056,17.977-.056S1131.246,1477.084,1131.246,1477.106Z" transform="translate(302.122 3868.932)" fill="#263238"/>
    <path id="Path_21966" data-name="Path 21966" d="M1131.246,1471.956c0,.034-8.05.056-17.989.056s-17.977,0-17.977-.056,8.05-.056,17.977-.056S1131.246,1471.922,1131.246,1471.956Z" transform="translate(302.122 3868.292)" fill="#263238"/>
    <path id="Path_21967" data-name="Path 21967" d="M1042.561,1396.761h.236a4.388,4.388,0,0,1,.663.056,3.885,3.885,0,0,1,1,.337,3.358,3.358,0,0,1,1.068.922,3.849,3.849,0,0,1,.7,1.563,3.67,3.67,0,0,1-.247,1.968,5.975,5.975,0,0,1-.483.967,10.381,10.381,0,0,0-.551.978,8.637,8.637,0,0,0-.742,2.226v.056h-.056l-1.574-.045-1.653-.011h-.056v-.068a4.851,4.851,0,0,0-.675-2.215c-.18-.326-.382-.641-.562-.956a7.075,7.075,0,0,1-.517-.944,3.069,3.069,0,0,1-.18-1.956,4.3,4.3,0,0,1,.7-1.574,3.019,3.019,0,0,1,1.068-.888,4.394,4.394,0,0,1,1-.349,4.138,4.138,0,0,1,.652-.079h0a6.326,6.326,0,0,0-.641.1,3.79,3.79,0,0,0-.978.36,3.034,3.034,0,0,0-1.046.877,4.189,4.189,0,0,0-.663,1.563,3.022,3.022,0,0,0,.18,1.889c.157.326.337.63.517.933a11,11,0,0,1,.573.967,4.74,4.74,0,0,1,.686,2.26l-.045-.056,1.642.045,1.574.034-.056.056a9.043,9.043,0,0,1,.742-2.282c.169-.337.371-.663.562-.978a5.36,5.36,0,0,0,.483-.944,3.594,3.594,0,0,0,.259-1.911,3.867,3.867,0,0,0-.675-1.54,3.409,3.409,0,0,0-1.012-.911,3.838,3.838,0,0,0-.989-.349,6.105,6.105,0,0,0-.652-.09h-.169Z" transform="translate(295.108 3858.952)" fill="#263238"/>
    <path id="Path_21968" data-name="Path 21968" d="M1042.839,1405.33v-.2c0-.135-.034-.326-.068-.6-.045-.495-.124-1.214-.157-2.114v-1.473a1.96,1.96,0,0,1,.214-.787,1.229,1.229,0,0,1,.63-.607.911.911,0,0,1,.461-.022.773.773,0,0,1,.394.225.582.582,0,0,1,.135.2.458.458,0,0,1,.034.247.725.725,0,0,1-.18.438.955.955,0,0,1-.394.3,1.746,1.746,0,0,1-.472.135,6.144,6.144,0,0,1-1.012.079,5.935,5.935,0,0,1-1.012-.09,2.122,2.122,0,0,1-.472-.157,1.474,1.474,0,0,1-.393-.3.893.893,0,0,1-.214-.438.657.657,0,0,1,.079-.461.587.587,0,0,1,.135-.191.469.469,0,0,1,.2-.124.6.6,0,0,1,.461.034.943.943,0,0,1,.326.3,1.033,1.033,0,0,1,.146.4,4.956,4.956,0,0,1,.056.821v4.362a.051.051,0,0,1,0-.056v-.753c0-.506,0-1.2-.045-2.114v-1.473a3.91,3.91,0,0,0-.045-.809,1.281,1.281,0,0,0-.146-.393.947.947,0,0,0-.315-.281.42.42,0,0,0-.2-.056.464.464,0,0,0-.214.022.613.613,0,0,0-.315.292.658.658,0,0,0-.079.438.834.834,0,0,0,.214.4,1.36,1.36,0,0,0,.832.45,5.978,5.978,0,0,0,2,0,1.633,1.633,0,0,0,.472-.135.939.939,0,0,0,.382-.281.749.749,0,0,0,.169-.427.7.7,0,0,0-.034-.214,1.106,1.106,0,0,0-.124-.191.805.805,0,0,0-.382-.214.791.791,0,0,0-.427.022,1.281,1.281,0,0,0-.607.562,2.089,2.089,0,0,0-.2.776,5.638,5.638,0,0,1-.034.765,4.793,4.793,0,0,0,0,.7c.034.9.1,1.619.146,2.114,0,.247.045.438.056.607v.259Z" transform="translate(295.292 3859.277)" fill="#263238"/>
    <path id="Path_21969" data-name="Path 21969" d="M1040.69,1404.67a4.147,4.147,0,0,1,0,.528v1.349l1.023,1.293h1.147l.641-.731c.113-.124.214-.247.326-.36v.034c0-.719,0-1.417.034-2.046l.067.068-2.316-.068H1044v2.125l-.382.337-.607.708h-1.3c-.36-.472-.7-.911-1-1.293,0-.551.034-1.023.045-1.417A1.2,1.2,0,0,0,1040.69,1404.67Z" transform="translate(295.338 3859.937)" fill="#263238"/>
    <path id="Path_21970" data-name="Path 21970" d="M1043.823,1406.442l-.124-.068-.315-.135a3.11,3.11,0,0,0-1.113-.214,3.407,3.407,0,0,0-1.113.191c-.112.045-.214.09-.326.135a.405.405,0,0,1-.112.056l.1-.067a2.152,2.152,0,0,1,.326-.157,2.923,2.923,0,0,1,2.249.023,2.723,2.723,0,0,1,.315.157A.407.407,0,0,1,1043.823,1406.442Z" transform="translate(295.342 3860.098)" fill="#263238"/>
    <path id="Path_21971" data-name="Path 21971" d="M1043.832,1405.991a.514.514,0,0,1-.112-.056l-.315-.135a3.158,3.158,0,0,0-1.113-.214,2.868,2.868,0,0,0-1.113.191l-.326.135-.112.056a.265.265,0,0,1,.1-.068,2.07,2.07,0,0,1,.315-.157,3,3,0,0,1,1.135-.214,2.827,2.827,0,0,1,1.439.393Z" transform="translate(295.344 3860.043)" fill="#263238"/>
    <path id="Path_21972" data-name="Path 21972" d="M1043.822,1405.569l-.112-.045a1.4,1.4,0,0,0-.315-.146,3.191,3.191,0,0,0-2.237,0c-.1.034-.214.079-.315.124l-.112.056.1-.068c.1-.056.214-.112.315-.157a3.313,3.313,0,0,1,1.135-.2,2.727,2.727,0,0,1,1.124.236,1.66,1.66,0,0,1,.315.157A.392.392,0,0,1,1043.822,1405.569Z" transform="translate(295.343 3859.993)" fill="#263238"/>
    <path id="Path_21973" data-name="Path 21973" d="M1053.769,1417.08s-1.2,11.13.349,17.235l14.852-.652s-3.182-10.984-1.2-15.852Z" transform="translate(296.908 3861.479)" fill="#ebebeb"/>
    <path id="Path_21974" data-name="Path 21974" d="M1053.77,1416.76s.1,12.019.72,15.695l15.065-.708s-1.327-11.816-.821-14.975Z" transform="translate(296.963 3861.439)" fill="#9ec8ff"/>
    <path id="Path_21975" data-name="Path 21975" d="M1066.166,1421.252c0,.056-2.249.236-5.037.4s-5.059.259-5.059.2,2.249-.236,5.048-.4S1066.166,1421.2,1066.166,1421.252Z" transform="translate(297.249 3861.995)" fill="#fff"/>
    <path id="Path_21976" data-name="Path 21976" d="M1066.177,1423.522c0,.045-2.26.236-5.048.4s-5.059.259-5.059.2,2.26-.236,5.048-.4S1066.166,1423.466,1066.177,1423.522Z" transform="translate(297.249 3862.277)" fill="#fff"/>
    <path id="Path_21977" data-name="Path 21977" d="M1063.416,1425.743a3.467,3.467,0,0,1-.843.124c-.517.045-1.226.1-2.024.157s-1.518.068-2.035.09a5.423,5.423,0,0,1-.854,0,3,3,0,0,1,.843-.124c.517-.056,1.237-.112,2.035-.157s1.507-.079,2.035-.09A3.516,3.516,0,0,1,1063.416,1425.743Z" transform="translate(297.446 3862.552)" fill="#fff"/>
    <path id="Path_21978" data-name="Path 21978" d="M1088.647,1399.427c0,.079-8.8.157-19.664.157s-19.664-.079-19.664-.157,8.8-.157,19.664-.157S1088.647,1399.337,1088.647,1399.427Z" transform="translate(296.41 3859.265)" fill="#263238"/>
    <path id="Path_21979" data-name="Path 21979" d="M1063.789,1402.617c0,.079-3.294.157-7.364.157s-7.375-.079-7.375-.157,3.294-.157,7.375-.157S1063.789,1402.527,1063.789,1402.617Z" transform="translate(296.377 3859.662)" fill="#263238"/>
    <path id="Path_21980" data-name="Path 21980" d="M1069.769,1402.618a26.726,26.726,0,0,1-5.689,0A25.329,25.329,0,0,1,1069.769,1402.618Z" transform="translate(298.245 3859.661)" fill="#263238"/>
    <path id="Path_21981" data-name="Path 21981" d="M1142.6,1442.17v-.135a1.991,1.991,0,0,0-.034-.4c0-.382-.067-.9-.124-1.552-.09-1.383-.225-3.317-.382-5.723-.3-4.823-.719-11.5-1.18-18.865s-.8-14.009-1.079-18.877c-.124-2.406-.214-4.328-.292-5.711,0-.663-.045-1.214-.056-1.563v-.4l.034.4c.034.382.079.9.124,1.552.1,1.372.225,3.328.393,5.711.3,4.834.72,11.524,1.169,18.877s.8,14.008,1.079,18.865c.124,2.417.225,4.351.292,5.723,0,.663.045,1.214.056,1.563v.4C1142.6,1442.136,1142.609,1442.17,1142.6,1442.17Z" transform="translate(307.611 3857.964)" fill="#263238"/>
    <path id="Path_21982" data-name="Path 21982" d="M1153.371,1376.69h-19.776l-47.827-.056-49.513-.09a11.871,11.871,0,0,0-6.3,3.924,11.539,11.539,0,0,0-2.44,5.059,12.171,12.171,0,0,0-.236,3.553,8.555,8.555,0,0,0,.112.922,2.706,2.706,0,0,1,.034.315,7.61,7.61,0,0,1-.2-1.214,11.9,11.9,0,0,1,2.608-8.713,12.085,12.085,0,0,1,6.375-4.059l49.513.056,47.816.157,14.469.079,3.935.034h1.034C1153.258,1376.679,1153.371,1376.69,1153.371,1376.69Z" transform="translate(293.657 3856.414)" fill="#263238"/>
    <path id="Path_21987" data-name="Path 21987" d="M1233.347,1522.656c-2.844-10.669-7.533-18.045-15.908-24.026a22.2,22.2,0,0,0,15.908,24.026Z" transform="translate(317.284 3871.614)" fill="#9ec8ff"/>
    <path id="Path_21988" data-name="Path 21988" d="M1212.77,1537.987a15.819,15.819,0,0,1,9.579-14.627C1221.888,1528.869,1217.537,1535.244,1212.77,1537.987Z" transform="translate(316.724 3874.688)" fill="#9ec8ff"/>
    <path id="Path_21989" data-name="Path 21989" d="M1212.093,1530.588a23.554,23.554,0,0,0-15.4-20.068c1.934,8.927,7.083,16.347,15.4,20.08" transform="translate(314.726 3873.092)" fill="#9ec8ff"/>
    <path id="Path_21990" data-name="Path 21990" d="M1216.045,1543.283a14.627,14.627,0,0,0-8.533-5.43,45.446,45.446,0,0,0-10.242-1.023,24,24,0,0,0,18.517,7.7" transform="translate(314.798 3876.361)" fill="#9ec8ff"/>
    <path id="Path_21996" data-name="Path 21996" d="M1201.05,1514.75l.135.124.394.416c.348.371.843.922,1.461,1.63a58.512,58.512,0,0,1,4.823,6.465,43.517,43.517,0,0,1,5.048,10.816,104.611,104.611,0,0,1,3.013,14.335c1.664,10.265,3.71,19.427,5.194,26.061.753,3.305,1.349,5.981,1.776,7.847.2.922.36,1.63.472,2.147l.112.551a.54.54,0,0,1,0,.191.851.851,0,0,1-.056-.18c-.034-.146-.079-.326-.146-.551-.124-.506-.3-1.214-.528-2.125-.45-1.878-1.091-4.542-1.878-7.848-1.54-6.633-3.609-15.807-5.3-26.061a104.907,104.907,0,0,0-3.013-14.29,43.992,43.992,0,0,0-4.969-10.8,60.552,60.552,0,0,0-4.733-6.487c-.6-.731-1.079-1.293-1.405-1.675l-.371-.427A.3.3,0,0,1,1201.05,1514.75Z" transform="translate(315.268 3873.617)" fill="#263238"/>
    <path id="Path_22001" data-name="Path 22001" d="M1219.363,1526.09a12.648,12.648,0,0,1-1.012,1.664c-.641,1.012-1.518,2.417-2.406,4.014s-1.664,3.069-2.215,4.137a12.561,12.561,0,0,1-.911,1.72,9.954,9.954,0,0,1,.72-1.81c.495-1.1,1.2-2.6,2.125-4.227a46.14,46.14,0,0,1,2.518-3.98A10.994,10.994,0,0,1,1219.363,1526.09Z" transform="translate(316.73 3875.026)" fill="#263238"/>
    <path id="Path_22002" data-name="Path 22002" d="M1215.789,1543.436c0,.034-.843-.36-2.192-.967s-3.227-1.405-5.352-2.147-4.081-1.293-5.509-1.664a20.617,20.617,0,0,1-2.316-.607,2.073,2.073,0,0,1,.641.067c.4.068,1,.18,1.72.337a46.187,46.187,0,0,1,5.576,1.574,48.119,48.119,0,0,1,5.329,2.249c.663.326,1.214.6,1.563.821A2.7,2.7,0,0,1,1215.789,1543.436Z" transform="translate(315.189 3876.513)" fill="#263238"/>
    <path id="Path_22029" data-name="Path 22029" d="M1151.84,1482.974c-.157,0-1.99,121.389-1.99,121.389l14.649-.506,5.071-59.688,1.2-43.813,9.972,40.53,12.435,63.6,14.627-3.687L1189.2,1482.187l-17.539-3.407Z" transform="translate(308.904 3869.147)" fill="#263238"/>
    <path id="Path_22030" data-name="Path 22030" d="M1182.371,1418.061c1.754-3.474,2.3-9.691.292-13.143s-6.082-5.936-9.894-7.094a3.36,3.36,0,0,0-1.967-.124,1.331,1.331,0,0,0-.933,1.54,8.276,8.276,0,0,0-2.406-1.383,2.8,2.8,0,0,0-2.631.371,1.616,1.616,0,0,0-.427.528,1.648,1.648,0,0,0-.2.641,2.006,2.006,0,0,0,.056.686,1.716,1.716,0,0,0,.326.6,3.015,3.015,0,0,0-3.215.54,3,3,0,0,0-.888,1.45,3.11,3.11,0,0,0,.034,1.7,9.508,9.508,0,0,0,1.967,3.114,2.7,2.7,0,0,1,.675,1.259,2.8,2.8,0,0,1-.067,1.428" transform="translate(310.213 3859.059)" fill="#263238"/>
    <path id="Path_22031" data-name="Path 22031" d="M1167.716,1446.289c.1-1.664.382-16.718.371-16.786s-5.576-.686-5.824-6.251c-.112-2.676.1-8.23.348-13.278a10.337,10.337,0,0,1,9.995-9.815h.54c5.779.157,8.882,5.172,8.556,10.962l-.787,32.211" transform="translate(310.443 3859.376)" fill="#ffbe9d"/>
    <path id="Path_22032" data-name="Path 22032" d="M1167.426,1426.512a13.421,13.421,0,0,0,7.173-2.372s-1.675,3.485-7.229,3.159Z" transform="translate(311.082 3862.356)" fill="#eb996e"/>
    <path id="Path_22033" data-name="Path 22033" d="M1163.36,1412.331a.806.806,0,0,0,.787.787.937.937,0,0,0,.3-.034.67.67,0,0,0,.259-.157.813.813,0,0,0,.191-.247.979.979,0,0,0,.068-.3.848.848,0,0,0-.236-.551.791.791,0,0,0-.562-.225.639.639,0,0,0-.292.045.781.781,0,0,0-.27.146,1.26,1.26,0,0,0-.18.247A.656.656,0,0,0,1163.36,1412.331Z" transform="translate(310.583 3860.797)" fill="#263238"/>
    <path id="Path_22034" data-name="Path 22034" d="M1163.691,1411.4c.1.112.686-.36,1.54-.382s1.484.382,1.585.281-.067-.236-.349-.427a2.111,2.111,0,0,0-1.27-.349,2.048,2.048,0,0,0-1.2.438C1163.725,1411.172,1163.646,1411.364,1163.691,1411.4Z" transform="translate(310.623 3860.663)" fill="#263238"/>
    <path id="Path_22035" data-name="Path 22035" d="M1170.98,1412.452a.76.76,0,0,0,.247.54.774.774,0,0,0,.551.236.839.839,0,0,0,.292-.045.888.888,0,0,0,.259-.157.747.747,0,0,0,.169-.247.657.657,0,0,0,.067-.292.794.794,0,0,0-.236-.551.783.783,0,0,0-.551-.225.638.638,0,0,0-.292.045.773.773,0,0,0-.438.4A1.221,1.221,0,0,0,1170.98,1412.452Z" transform="translate(311.53 3860.811)" fill="#263238"/>
    <path id="Path_22036" data-name="Path 22036" d="M1171.151,1411.317c.1.1.7-.36,1.54-.382s1.5.382,1.585.27-.068-.236-.337-.416a2.168,2.168,0,0,0-1.282-.349,2.074,2.074,0,0,0-1.2.438C1171.185,1411.07,1171.106,1411.272,1171.151,1411.317Z" transform="translate(311.55 3860.653)" fill="#263238"/>
    <path id="Path_22037" data-name="Path 22037" d="M1168.81,1417.728a5.808,5.808,0,0,0-1.394-.214c-.214,0-.427-.056-.461-.191a1.008,1.008,0,0,1,.124-.652l.6-1.686a28.057,28.057,0,0,0,1.315-4.385,30.61,30.61,0,0,0-1.664,4.272c-.191.6-.382,1.147-.562,1.686a1.322,1.322,0,0,0-.09.854.547.547,0,0,0,.157.2.641.641,0,0,0,.214.112,1.038,1.038,0,0,0,.371.034A5.761,5.761,0,0,0,1168.81,1417.728Z" transform="translate(310.991 3860.673)" fill="#263238"/>
    <path id="Path_22038" data-name="Path 22038" d="M1171.113,1417.39c-.135,0-.112.922-.888,1.608s-1.754.607-1.765.742.236.18.652.18a2.322,2.322,0,0,0,1.473-.573,2.044,2.044,0,0,0,.686-1.349C1171.293,1417.6,1171.158,1417.39,1171.113,1417.39Z" transform="translate(311.217 3861.517)" fill="#263238"/>
    <path id="Path_22039" data-name="Path 22039" d="M1170.86,1408.327c.09.225.944.09,1.945.18s1.81.337,1.945.124c.068-.1-.09-.326-.416-.528a3.235,3.235,0,0,0-1.461-.461,3.125,3.125,0,0,0-1.506.225C1171.007,1408.046,1170.827,1408.215,1170.86,1408.327Z" transform="translate(311.515 3860.304)" fill="#263238"/>
    <path id="Path_22040" data-name="Path 22040" d="M1163.892,1409.2c.157.191.742,0,1.45-.056s1.3.079,1.439-.124c.056-.1-.045-.292-.315-.472a2.053,2.053,0,0,0-1.2-.281,1.96,1.96,0,0,0-1.135.427C1163.892,1408.911,1163.836,1409.114,1163.892,1409.2Z" transform="translate(310.646 3860.383)" fill="#263238"/>
    <path id="Path_22041" data-name="Path 22041" d="M1179.265,1413.583c.1-.034,3.789-1.248,3.789,2.563s-3.823,3.013-3.834,2.9S1179.265,1413.583,1179.265,1413.583Z" transform="translate(312.554 3861.018)" fill="#ffbe9d"/>
    <path id="Path_22042" data-name="Path 22042" d="M1180.26,1417.454a1.765,1.765,0,0,0,.18.1.628.628,0,0,0,.494,0,1.715,1.715,0,0,0,.573-.629,1.68,1.68,0,0,0,.18-.843,2.243,2.243,0,0,0-.18-.944.742.742,0,0,0-.191-.315.8.8,0,0,0-.3-.2.346.346,0,0,0-.236.022.357.357,0,0,0-.157.157c-.056.113,0,.191-.056.191s-.079-.067-.045-.214a.426.426,0,0,1,.146-.236.394.394,0,0,1,.18-.09.367.367,0,0,1,.191-.011,1.118,1.118,0,0,1,.438.2.989.989,0,0,1,.27.4,2.265,2.265,0,0,1,.225,1.057,1.631,1.631,0,0,1-.236.967,1.693,1.693,0,0,1-.731.674.732.732,0,0,1-.315.023.745.745,0,0,1-.292-.124C1180.26,1417.578,1180.249,1417.488,1180.26,1417.454Z" transform="translate(312.684 3861.15)" fill="#eb996e"/>
    <path id="Path_22043" data-name="Path 22043" d="M1160.4,1402.912c-.45,4.936,5.621,6.993,8.286,4.227,1.2-1.271,2.294-2.867,3.969-3.44a4.322,4.322,0,0,1,1.776-.169,4.745,4.745,0,0,1,1.7.529h.023a5.764,5.764,0,0,1,2.732,4.373c.349,2.417-.045,4.6.607,6.836a1.5,1.5,0,0,0,.472.866,1.182,1.182,0,0,0,.809.079,1.213,1.213,0,0,0,.686-.461,4.738,4.738,0,0,0,.944-2.451,15.636,15.636,0,0,0-.225-6.172,10.646,10.646,0,0,0-3.1-5.3,9.994,9.994,0,0,0-7.139-2.451,12.259,12.259,0,0,0-7.094,2.788,7.187,7.187,0,0,0-2.249,2.766" transform="translate(310.213 3859.277)" fill="#263238"/>
    <path id="Path_22044" data-name="Path 22044" d="M1164.272,1400.114a1.007,1.007,0,0,0-.517,0,2.61,2.61,0,0,0-1.259.708,3.229,3.229,0,0,0-.944,1.911,3.594,3.594,0,0,0,.731,2.507,4.722,4.722,0,0,0,2.057,1.6,6.523,6.523,0,0,0,2.069.472,8.524,8.524,0,0,0,1.417-.045,1.638,1.638,0,0,0,.517-.112c0-.056-.742.056-1.911-.056a6.733,6.733,0,0,1-1.99-.506,4.639,4.639,0,0,1-1.922-1.518,3.432,3.432,0,0,1-.7-2.316,3.156,3.156,0,0,1,.821-1.81,2.787,2.787,0,0,1,1.136-.731C1164.093,1400.159,1164.284,1400.147,1164.272,1400.114Z" transform="translate(310.356 3859.366)" fill="#455a64"/>
    <path id="Path_22045" data-name="Path 22045" d="M1166.339,1398.561a.51.51,0,0,0-.36.067,1.4,1.4,0,0,0-.394.337,1.186,1.186,0,0,0-.2.472,2.212,2.212,0,0,0,.281,1.461,6.391,6.391,0,0,0,1.057,1.45,6.638,6.638,0,0,0,2.721,1.731,3.28,3.28,0,0,0,1.315.225c0-.056-.495-.124-1.248-.427a7.207,7.207,0,0,1-2.563-1.72,6.779,6.779,0,0,1-1.023-1.383,2.124,2.124,0,0,1-.326-1.293,1.127,1.127,0,0,1,.45-.753C1166.215,1398.606,1166.35,1398.583,1166.339,1398.561Z" transform="translate(310.831 3859.176)" fill="#455a64"/>
    <path id="Path_22046" data-name="Path 22046" d="M1141.468,1443l-26.128-2.451-4.137-1s-9.444-1.686-10.332-1.968c-1.023-.315-1.428.1-1.518.484-.146.607.45,1.248,1.327,1.552.292.1,5.115,1.563,5.115,1.563a10.919,10.919,0,0,0-1.585.528c-1.124.427-2.159,1.934-2.642,3.665s-.45,2.271.214,2.485a.879.879,0,0,0,.382.011.788.788,0,0,0,.36-.146,1.772,1.772,0,0,0,.742-1.012c.81-2.766,2.5-3.013,2.5-3.013l.551.124s-1.72,1.293-1.63,2.788a1.882,1.882,0,0,0,.169.607,2.241,2.241,0,0,0-.045,1.124,2.2,2.2,0,0,0,.506,1.023,2.323,2.323,0,0,0,.989.641,2.416,2.416,0,0,0,1.169.079.978.978,0,0,0,.517-.225.9.9,0,0,0,.292-.483,1.23,1.23,0,0,0-.146-.6,1.608,1.608,0,0,1-.1-.3l1.563.146s3.542.157,5.071.393l24.633,6.386a6.169,6.169,0,0,0,2.485.135,6.282,6.282,0,0,0,4.182-2.518,6.175,6.175,0,0,0,1.034-2.26,6.317,6.317,0,0,0,.068-2.676,6.5,6.5,0,0,0-1.057-2.462,6.276,6.276,0,0,0-4.542-2.62Z" transform="translate(302.626 3864.013)" fill="#ffbe9d"/>
    <path id="Path_22047" data-name="Path 22047" d="M1113.919,1440.928a1.311,1.311,0,0,1-.371.72,1.4,1.4,0,0,1-.708.371c-.528.124-1.09.079-1.63.169-1.608.281-2.811,1.81-4.43,2.012-.225.034-.517,0-.607-.225s.09-.393.247-.54l3.912-3.755" transform="translate(303.473 3864.288)" fill="#ffbe9d"/>
    <path id="Path_22048" data-name="Path 22048" d="M1110.36,1439.67a2.825,2.825,0,0,0-.461.36c-.281.247-.7.607-1.2,1.068l-1.731,1.619-.506.472c-.146.157-.4.3-.438.675a.5.5,0,0,0,.079.259.411.411,0,0,0,.214.157.848.848,0,0,0,.438.056,3.533,3.533,0,0,0,.776-.18,21.073,21.073,0,0,0,2.552-1.428,4.616,4.616,0,0,1,1.135-.427,9.635,9.635,0,0,1,1.09-.112,1.86,1.86,0,0,0,.809-.191,2.039,2.039,0,0,0,.652-.506.838.838,0,0,0,.146-.281,1.056,1.056,0,0,0,.011-.326,2.15,2.15,0,0,1-.259.506,1.838,1.838,0,0,1-.63.427,2.127,2.127,0,0,1-.753.135,6.678,6.678,0,0,0-1.113.068,3.973,3.973,0,0,0-1.2.438,24.908,24.908,0,0,1-2.53,1.383,3.713,3.713,0,0,1-.7.169c-.225.022-.416-.056-.4-.169a1.249,1.249,0,0,1,.349-.472l.495-.472,1.686-1.664c.472-.472.866-.866,1.124-1.147S1110.382,1439.7,1110.36,1439.67Z" transform="translate(303.457 3864.286)" fill="#eb996e"/>
    <path id="Path_22049" data-name="Path 22049" d="M1106.121,1443.043a2.241,2.241,0,0,0-1.023,0,1.686,1.686,0,0,0-.866.652,4.1,4.1,0,0,0-.607,1.214,7.038,7.038,0,0,1-.54,1.315,2.218,2.218,0,0,1-.821.854.864.864,0,0,1-.787.056.674.674,0,0,1-.247-.18s.1.045.27.1a.957.957,0,0,0,.36.034.886.886,0,0,0,.337-.135,2.235,2.235,0,0,0,.731-.821,7.9,7.9,0,0,0,.506-1.293,4.629,4.629,0,0,1,.641-1.293,1.722,1.722,0,0,1,.967-.663,1.6,1.6,0,0,1,.8,0A.586.586,0,0,1,1106.121,1443.043Z" transform="translate(302.861 3864.68)" fill="#eb996e"/>
    <path id="Path_22050" data-name="Path 22050" d="M1100.23,1439.24a5.529,5.529,0,0,1,.956.292l2.294.742,2.3.7a5.511,5.511,0,0,1,.944.326,5.087,5.087,0,0,1-.989-.18c-.6-.146-1.428-.371-2.316-.663s-1.709-.562-2.282-.8A4.143,4.143,0,0,1,1100.23,1439.24Z" transform="translate(302.737 3864.233)" fill="#eb996e"/>
    <path id="Path_22051" data-name="Path 22051" d="M1106.469,1444.29s-.067.09-.191.236a.9.9,0,0,0-.214.337.93.93,0,0,0-.056.394.575.575,0,0,0,.113.236.485.485,0,0,0,.214.146,3,3,0,0,0,.63.146,1.122,1.122,0,0,1,.719.349.864.864,0,0,1,.169.4.957.957,0,0,1-.011.438,1.053,1.053,0,0,1-.214.382,1.009,1.009,0,0,1-.349.27,1.381,1.381,0,0,1-.787.157,4.6,4.6,0,0,1-1.2-.4,2.432,2.432,0,0,1-.708-.495.547.547,0,0,1-.18-.27,2.3,2.3,0,0,0,.225.214,3.084,3.084,0,0,0,.719.416,4.48,4.48,0,0,0,1.2.348,1.048,1.048,0,0,0,.686-.146,1.065,1.065,0,0,0,.45-.517.736.736,0,0,0,.011-.348.564.564,0,0,0-.135-.326.942.942,0,0,0-.6-.292,2.718,2.718,0,0,1-.675-.18.649.649,0,0,1-.259-.2.566.566,0,0,1-.124-.292,1.02,1.02,0,0,1,.068-.45,1.211,1.211,0,0,1,.27-.36C1106.368,1444.335,1106.457,1444.279,1106.469,1444.29Z" transform="translate(303.256 3864.86)" fill="#eb996e"/>
    <path id="Path_22052" data-name="Path 22052" d="M1107.19,1447.3a.47.47,0,0,1,.259.112.957.957,0,0,1,.247.315.79.79,0,0,1,.068.393,1.086,1.086,0,0,1-.191.562,1.167,1.167,0,0,1-.45.394,1.933,1.933,0,0,1-1.417.079,2.348,2.348,0,0,1-1.158-.809,2.311,2.311,0,0,1-.416-1.079,2.015,2.015,0,0,1,.056-.776.586.586,0,0,1,.112-.259,3.053,3.053,0,0,0,0,1.012,2.176,2.176,0,0,0,.416.978,2.257,2.257,0,0,0,1.079.742,1.739,1.739,0,0,0,1.259-.045,1.153,1.153,0,0,0,.4-.326,1.043,1.043,0,0,0,.2-.472.9.9,0,0,0-.045-.349.867.867,0,0,0-.191-.3C1107.28,1447.3,1107.178,1447.3,1107.19,1447.3Z" transform="translate(303.221 3865.102)" fill="#eb996e"/>
    <path id="Path_22053" data-name="Path 22053" d="M1110.757,1445.433a.831.831,0,0,1,.146-.461,1.9,1.9,0,0,1,.922-.809v.18a3.875,3.875,0,0,1-.607-.315,4.174,4.174,0,0,1-1.7-1.608,11.185,11.185,0,0,0,1.81,1.439,3.8,3.8,0,0,0,.607.3l.2.1-.214.079a1.977,1.977,0,0,0-.877.7C1110.835,1445.276,1110.79,1445.444,1110.757,1445.433Z" transform="translate(303.892 3864.628)" fill="#eb996e"/>
    <path id="Path_22054" data-name="Path 22054" d="M1103.321,1442.89c.045-.034.326.247.382.731s-.169.832-.214.8.056-.36,0-.776S1103.276,1442.946,1103.321,1442.89Z" transform="translate(303.121 3864.686)" fill="#eb996e"/>
    <path id="Path_22055" data-name="Path 22055" d="M1139.253,1457.056l17.033-3.935s-.877,31.289-.877,31.581-1.405.787-1.282,3.058l1.2,2.7,37.36.506,1.012-30.389,3.406-23.531-7.836-4.834-2.754-3.744-10.782,11.378-2.676-9.714.079-2.89-2.665,2.9-14.368,4.149-18.989,8.859-12.839-.978-3.328,11.243Z" transform="translate(305.313 3862.741)" fill="#9ec8ff"/>
    <path id="Path_22056" data-name="Path 22056" d="M1168.77,1435.956a1.765,1.765,0,0,0-.776.866,3.5,3.5,0,0,0-.236,1.315,4.744,4.744,0,0,1-.259,1.81l-.124.315-.135-.315a17.047,17.047,0,0,1-.843-2.766c-.45-1.956-.742-3.755-.933-5.048a12.141,12.141,0,0,1-.225-2.114,16.666,16.666,0,0,1,.438,2.08c.247,1.282.573,3.069,1.034,5a18.422,18.422,0,0,0,.787,2.721h-.259a4.99,4.99,0,0,0,.281-1.675,3.455,3.455,0,0,1,.315-1.383,1.6,1.6,0,0,1,.6-.686C1168.647,1435.945,1168.759,1435.945,1168.77,1435.956Z" transform="translate(310.817 3863.087)" fill="#263238"/>
    <path id="Path_22057" data-name="Path 22057" d="M1181.7,1431.08a2.479,2.479,0,0,1-.371.528c-.247.326-.6.787-1.079,1.349-.922,1.135-2.215,2.687-3.665,4.4l-2.3,2.653-.18.214-.068-.27c-.326-1.3-.6-2.417-.765-3.193-.079-.393-.292-.607-.506-.607a.461.461,0,0,0-.292.079s.045-.157.292-.169a.456.456,0,0,1,.214.045.488.488,0,0,1,.18.112,1.109,1.109,0,0,1,.27.506c.225.776.528,1.866.877,3.171l-.247-.056c.7-.821,1.473-1.743,2.282-2.71,1.45-1.709,2.766-3.227,3.733-4.328.484-.551.888-.989,1.158-1.293A2.454,2.454,0,0,1,1181.7,1431.08Z" transform="translate(311.716 3863.219)" fill="#263238"/>
    <path id="Path_22058" data-name="Path 22058" d="M1166.544,1479.888a2.46,2.46,0,0,1-.034-.4v-5.43c.045-3.62.225-8.589.607-14.076s.989-10.445,1.484-14.02c.236-1.81.461-3.227.6-4.227l.2-1.135a1.74,1.74,0,0,1,.09-.4,2.437,2.437,0,0,1,0,.4c-.034.3-.079.686-.146,1.158-.124,1.034-.3,2.474-.528,4.227-.438,3.575-.967,8.522-1.383,14.009s-.607,10.456-.708,14.054c-.045,1.776-.079,3.227-.113,4.272,0,.472,0,.854-.022,1.158A1.749,1.749,0,0,1,1166.544,1479.888Z" transform="translate(310.975 3864.351)" fill="#263238"/>
    <path id="Path_22059" data-name="Path 22059" d="M1163.875,1482.614a6.781,6.781,0,0,1-.281-2.687,9.842,9.842,0,0,1,.337-2.687,15.338,15.338,0,0,1,0,2.687C1163.863,1481.411,1163.931,1482.6,1163.875,1482.614Z" transform="translate(310.608 3868.956)" fill="#263238"/>
    <path id="Path_22060" data-name="Path 22060" d="M1180.282,1474.21a5.752,5.752,0,0,1-.956.36c-.607.214-1.54.506-2.676.843a87.86,87.86,0,0,1-9.005,2.091,86.831,86.831,0,0,1-9.163,1.135c-1.181.079-2.136.135-2.8.146a7.731,7.731,0,0,1-1.023,0,6.172,6.172,0,0,1,1.012-.112l2.788-.236c2.35-.225,5.588-.607,9.129-1.214s6.723-1.417,9.005-2.012l2.687-.742A7.691,7.691,0,0,1,1180.282,1474.21Z" transform="translate(309.502 3868.579)" fill="#263238"/>
    <path id="Path_22061" data-name="Path 22061" d="M1152.234,1458.322c-.09,0-.146-4.441-.124-9.916s.1-9.916.191-9.916.146,4.441.124,9.916S1152.324,1458.322,1152.234,1458.322Z" transform="translate(309.185 3864.14)" fill="#263238"/>
    <path id="Path_22062" data-name="Path 22062" d="M1188.552,1435.56s4.711,4.036,5.026,6.33c.236,1.776,4.868,18.393,6.948,25.836a10.807,10.807,0,0,1-.393,7.016l-6.026,14.919-9.736-5.768,4.868-13.986-4.025-11.861Z" transform="translate(313.194 3863.775)" fill="#9ec8ff"/>
    <path id="Path_22063" data-name="Path 22063" d="M1194.53,1489.534l-.18-.09-.517-.281-1.945-1.135c-1.72-1-4.16-2.417-7.117-4.16l-.09-.056.034-.09c1.36-3.946,3.013-8.736,4.823-13.986v.1c-.573-1.54-1.169-3.137-1.776-4.767-1.428-3.845-2.788-7.521-4.025-10.861a25.463,25.463,0,0,1-2.6-7.51,10.556,10.556,0,0,1,.1-3.362,10.129,10.129,0,0,1,.967-2.709,11.34,11.34,0,0,1,2.518-3.182,7.964,7.964,0,0,1,.843-.675c.1-.068.214-.135.315-.191-.09.079-.18.157-.281.236-.191.157-.472.382-.809.7a11.739,11.739,0,0,0-2.417,3.193,9.8,9.8,0,0,0-.922,2.676,10.116,10.116,0,0,0-.068,3.294,25.27,25.27,0,0,0,2.62,7.4l4.047,10.861c.607,1.641,1.214,3.249,1.776,4.778v.112c-1.844,5.25-3.519,10.028-4.9,13.963l-.056-.146,7.072,4.227,1.945,1.214.495.315C1194.474,1489.489,1194.541,1489.534,1194.53,1489.534Z" transform="translate(312.782 3863.902)" fill="#263238"/>
    <g id="Group_604" data-name="Group 604" transform="translate(1482.195 5299.358)" opacity="0.3">
      <path id="Path_22064" data-name="Path 22064" d="M1170.734,1437.761a1.449,1.449,0,0,1,1.439,1.068c.124.641.034,1.327.2,1.968s.753,1.259,1.394,1.124a1.694,1.694,0,0,0,.922-.731,22.328,22.328,0,0,0,3.013-5.61c0,.056-3.339,3.845-3.339,3.845a10.949,10.949,0,0,0-.742-2.8c-.113-.281-.247-.776-.517-.9-.461-.214-1.057.45-1.36.843a6.658,6.658,0,0,1-1.046,1.135" transform="translate(-1170.7 -1435.58)" opacity="0.3"/>
    </g>
    <g id="Group_605" data-name="Group 605" transform="translate(1476.788 5298.02)" opacity="0.3">
      <path id="Path_22065" data-name="Path 22065" d="M1165.89,1434.435a19.256,19.256,0,0,0,1.2,6.217,1.338,1.338,0,0,0,.326.54.565.565,0,0,0,.281.146.5.5,0,0,0,.315-.067,6.675,6.675,0,0,0,.607-1.282c.3-.866,1.552-.944,1.552-.944a21.279,21.279,0,0,0-.809-2.867.757.757,0,0,0-.3-.371.913.913,0,0,0-.472-.135,1.226,1.226,0,0,0-.562.382,1.14,1.14,0,0,0-.292.607,14.1,14.1,0,0,1-.393,2.788c-.607-1.641-1.068-3.62-1.45-5.059" transform="translate(-1165.89 -1434.39)" opacity="0.3"/>
    </g>
    <g id="Group_606" data-name="Group 606" transform="translate(1466.41 5341.177)" opacity="0.3">
      <path id="Path_22066" data-name="Path 22066" d="M1176.279,1475.377a1.356,1.356,0,0,0,.528-.866,1.145,1.145,0,0,0-.022-.517,1.315,1.315,0,0,0-.225-.472,2.083,2.083,0,0,0-.843-.618,2.02,2.02,0,0,0-1.034-.1,4.228,4.228,0,0,0-1.911.866c-.573.416-1.091.877-1.7,1.248a9.793,9.793,0,0,1-5,1.147,30.857,30.857,0,0,0-5.194.236,5.938,5.938,0,0,0-4.216,2.732C1156.66,1479.043,1171.467,1477.963,1176.279,1475.377Z" transform="translate(-1156.66 -1472.777)" opacity="0.3"/>
    </g>
    <path id="Path_22067" data-name="Path 22067" d="M1183.6,1496.306a12.114,12.114,0,0,1-3.879-4,.084.084,0,0,0,.011-.056.142.142,0,0,0-.011-.067.205.205,0,0,0-.146-.09,20.774,20.774,0,0,1-1.135-2c1.2-.787,2.788-1.979,1.068-2.226-2.114-.292-3.62-1.327-3.845-1.889s.495-1.068,1.046-.708a7.658,7.658,0,0,0,2.035.7,4.931,4.931,0,0,0,1.72.112c.371-.034,1.63-.911,2.979-1.54a.984.984,0,0,1,.6-.079l.517-.034a1.555,1.555,0,0,0,.765-.259,1.527,1.527,0,0,0,.54-.6l1.956-3.778,5.914,3.508-4.677,6.5A77.334,77.334,0,0,1,1183.6,1496.306Z" transform="translate(312.107 3869.272)" fill="#ffbe9d"/>
    <path id="Path_22068" data-name="Path 22068" d="M1184.535,1495.913a5.026,5.026,0,0,1-1.36-.641,12.582,12.582,0,0,1-2.788-2.327,12.105,12.105,0,0,1-2-3.047,5.006,5.006,0,0,1-.495-1.428,15.759,15.759,0,0,0,6.633,7.443Z" transform="translate(312.389 3870.351)" fill="#455a64"/>
    <path id="Path_22069" data-name="Path 22069" d="M1167.718,1500.236a.387.387,0,0,1-.169-.056,1.47,1.47,0,0,1-.416-.27,3.489,3.489,0,0,1-.967-1.529,23.489,23.489,0,0,1-.652-2.586c-.225-.978-.438-2.058-.663-3.182-.45-2.271-.787-4.328-1-5.824-.112-.753-.191-1.36-.236-1.788a3.169,3.169,0,0,1-.034-.652,2.43,2.43,0,0,1,.157.641c.09.483.2,1.068.326,1.754.27,1.5.641,3.542,1.091,5.8.225,1.124.438,2.2.641,3.182a21.1,21.1,0,0,0,.6,2.575,3.675,3.675,0,0,0,.843,1.518C1167.515,1500.112,1167.729,1500.2,1167.718,1500.236Z" transform="translate(310.61 3869.839)" fill="#455a64"/>
    <path id="Path_22070" data-name="Path 22070" d="M1166.965,1486.453a.529.529,0,0,1,.259,0,1.012,1.012,0,0,1,.562.495,1.06,1.06,0,0,1,.124.562,1.043,1.043,0,0,1-.191.54,1.172,1.172,0,0,1-.551.438,1.265,1.265,0,0,1-.708.045,1.246,1.246,0,0,1-.6-.382,1.285,1.285,0,0,1-.292-.641,1.238,1.238,0,0,1,.056-.573,1.118,1.118,0,0,1,.326-.461c.495-.438.944-.315.922-.281a1.866,1.866,0,0,0-.765.438.824.824,0,0,0-.225.382.835.835,0,0,0-.023.438.969.969,0,0,0,.675.776,1.046,1.046,0,0,0,.528-.034,1.086,1.086,0,0,0,.427-.315.788.788,0,0,0,.157-.4.924.924,0,0,0-.068-.427C1167.359,1486.554,1166.943,1486.5,1166.965,1486.453Z" transform="translate(310.856 3870.063)" fill="#455a64"/>
    <path id="Path_22071" data-name="Path 22071" d="M1155.875,1484.27a3.415,3.415,0,0,1,.157,1.383,7.515,7.515,0,0,1-3.114,5.8,3.764,3.764,0,0,1-1.248.641c0-.056.45-.292,1.113-.821a8.335,8.335,0,0,0,2.091-2.507,8.2,8.2,0,0,0,.933-3.125C1155.886,1484.821,1155.819,1484.27,1155.875,1484.27Z" transform="translate(309.131 3869.829)" fill="#455a64"/>
    <path id="Path_22072" data-name="Path 22072" d="M1134.61,1447.262a20.891,20.891,0,0,1,.3-3.013,20.443,20.443,0,0,1,.438-2.979,11.762,11.762,0,0,1-.124,3.013A11.616,11.616,0,0,1,1134.61,1447.262Z" transform="translate(307.01 3864.485)" fill="#263238"/>
    <path id="Path_22073" data-name="Path 22073" d="M1124.319,1440.48a1.464,1.464,0,0,1-.045.214c-.045.157-.09.349-.157.6-.157.562-.371,1.338-.641,2.294l-2.361,8.185-.09-.169c3.4.843,7.5,1.529,11.884,2.338,2.181.4,4.284.854,6.229,1.327h-.079l12.232-2.766,3.564-.776.945-.191a1.173,1.173,0,0,1,.337-.056,1.562,1.562,0,0,1-.326.1l-.933.247-3.542.866-12.221,2.878h-.067c-1.934-.484-4.036-.922-6.217-1.327-4.374-.809-8.488-1.506-11.895-2.406l-.135-.045.034-.135c1.012-3.339,1.866-6.139,2.474-8.14.292-.945.54-1.72.708-2.271l.2-.607A.47.47,0,0,1,1124.319,1440.48Z" transform="translate(305.294 3864.387)" fill="#263238"/>
    <path id="Path_22088" data-name="Path 22088" d="M982.806,1482.07s-8.2,13.716-8.2,21.923l-2.019,99.982,12.956,3.092,9.889-97.677s23.942,97.914,24.706,97.914,12.558-2.114,12.558-2.114l-17.887-122.648Z" transform="translate(286.874 3869.556)" fill="#263238"/>
    <path id="Path_22089" data-name="Path 22089" d="M987.31,1503.98a1.01,1.01,0,0,1,0,.247,5.712,5.712,0,0,1-.108.731c-.1.675-.253,1.619-.446,2.822-.4,2.44-.952,5.992-1.614,10.366-1.314,8.736-2.959,20.867-4.339,34.335s-2.236,25.656-2.719,34.5c-.247,4.418-.416,7.993-.518,10.478-.06,1.2-.1,2.17-.133,2.844,0,.315-.036.562-.042.742a1.167,1.167,0,0,1-.03.248,1.5,1.5,0,0,1,0-.248v-.742c0-.675.036-1.63.066-2.844.06-2.485.192-6.037.4-10.49.416-8.848,1.205-21.08,2.591-34.527s3.061-25.589,4.448-34.347c.693-4.374,1.283-7.9,1.729-10.344.217-1.2.391-2.147.513-2.811.06-.3.1-.54.138-.719A1.286,1.286,0,0,1,987.31,1503.98Z" transform="translate(287.467 3872.279)" fill="#455a64"/>
    <path id="Path_22090" data-name="Path 22090" d="M1004.45,1505.45c.1,0,4.047,21.912,8.826,48.985s8.578,49.052,8.477,49.052-4.047-21.912-8.826-49S1004.36,1505.473,1004.45,1505.45Z" transform="translate(290.834 3872.461)" fill="#455a64"/>
    <path id="Path_22091" data-name="Path 22091" d="M992.762,1509.205a1.022,1.022,0,0,1-.138-.259c-.079-.157-.193-.4-.332-.731a26.206,26.206,0,0,1-.958-2.822,28.7,28.7,0,0,1-.929-9.759c.066-.956.2-1.889.344-2.788.159-.854.36-1.7.6-2.541.452-1.6.928-3.013,1.338-4.227s.759-2.136,1.012-2.788l.3-.753a1.2,1.2,0,0,1,.121-.247.806.806,0,0,1-.066.27l-.242.776c-.235.708-.542,1.664-.915,2.822s-.838,2.62-1.272,4.227c-.217.787-.441,1.641-.6,2.507a24.559,24.559,0,0,0-.332,2.766,30.383,30.383,0,0,0,.825,9.658c.307,1.2.639,2.17.862,2.833A8.087,8.087,0,0,1,992.762,1509.205Z" transform="translate(289.078 3869.583)" fill="#455a64"/>
    <path id="Path_22092" data-name="Path 22092" d="M995.752,1491.284a1.191,1.191,0,0,1,0,.2,3.577,3.577,0,0,0,.03.529c0,.483.048,1.147.084,1.967.061,1.72.139,4.1.242,6.959l-.084-.124,4.989,2.035h-.135l4.047-2.473.281-.135-.079.124c.315-3.305.607-6.4.843-9.05l.135.146-7.454-.067-2.127-.034h-.055l2.091-.034,7.545-.079h.146v.157c-.225,2.676-.506,5.779-.8,9.05v.079l-.068.034-.259.157-4.059,2.462-.068.045h-.067l-4.976-2.069-.079-.045v-.079c-.043-2.889-.079-5.307-.1-7.049v-1.934C995.776,1491.576,995.746,1491.284,995.752,1491.284Z" transform="translate(289.752 3870.697)" fill="#455a64"/>
    <path id="Path_22093" data-name="Path 22093" d="M979.262,1488.94a3.488,3.488,0,0,1-.09.663c-.091.427-.163,1.079-.278,1.81-.259,1.6-.6,3.8-1.037,6.431l-.054-.135,3.748,2.822h-.133l4.58-1.282.235-.056-.109.1c.874-3.013,1.7-5.79,2.41-8.219l.1.169-6.767-1.608-1.928-.484c-.446-.112-.694-.18-.7-.191a4.363,4.363,0,0,1,.656.124l1.91.394,6.888,1.5.138.034-.036.146c-.7,2.417-1.512,5.239-2.375,8.23v.09h-.084l-.235.056-4.58,1.27h-.072l-.06-.056-3.748-2.822-.066-.045v-.079c.488-2.665.892-4.891,1.205-6.5.144-.742.259-1.327.343-1.81A4.281,4.281,0,0,1,979.262,1488.94Z" transform="translate(287.494 3870.409)" fill="#455a64"/>
    <path id="Path_22094" data-name="Path 22094" d="M1003.576,1504.49a51.516,51.516,0,0,1-5.515,1.36,52.081,52.081,0,0,1-5.574,1.057,48.976,48.976,0,0,1,5.508-1.36A49.6,49.6,0,0,1,1003.576,1504.49Z" transform="translate(289.347 3872.342)" fill="#455a64"/>
    <path id="Path_22095" data-name="Path 22095" d="M989.052,1505.116a4.988,4.988,0,0,1-1.417,0,24.359,24.359,0,0,1-3.368-.54,23.482,23.482,0,0,1-3.26-.989,5.291,5.291,0,0,1-1.272-.607,8.068,8.068,0,0,1,1.345.416c.825.27,1.97.6,3.259.9s2.466.495,3.321.607A8.337,8.337,0,0,1,989.052,1505.116Z" transform="translate(287.763 3872.154)" fill="#455a64"/>
    <path id="Path_22096" data-name="Path 22096" d="M988.53,1412.29c.446,1.293-1.084,2.417-2.41,2.7s-2.94.506-3.555,1.731c-.524,1.057,0,2.406-.47,3.485-.916,2.069-4.616,1.63-5.339,3.766-.5,1.473.874,2.979.7,4.519-.151,1.327-1.363,2.226-2.411,3.013s-2.188,1.911-2.019,3.238c.193,1.529,2.061,2.586,1.887,4.126s-2.193,2.2-2.489,3.688c-.343,1.765,1.862,2.9,2.573,4.553.536,1.271.2,2.889,1.121,3.912s2.6.843,3.978.562l13.715-2.923c-.922-2.17-.054-4.711,1.271-6.667s3.079-3.62,4.218-5.678,1.507-4.823,0-6.667" transform="translate(286.85 3860.883)" fill="#263238"/>
    <path id="Path_22097" data-name="Path 22097" d="M1008.513,1422.437a14.442,14.442,0,0,0-.45-2.181,2.044,2.044,0,0,0-.551-.888c-.27-.259-.6-.09-.843.281a6.68,6.68,0,0,0,0,5.565c.225.371.607.528.843.281a2.08,2.08,0,0,0,.551-.9,14.16,14.16,0,0,0,.45-2.159,1.761,1.761,0,0,1,.056.6,6.337,6.337,0,0,1-.259,1.653,2.549,2.549,0,0,1-.607,1.034.821.821,0,0,1-.337.18.669.669,0,0,1-.393-.011,1.245,1.245,0,0,1-.607-.495,6.742,6.742,0,0,1,0-5.925,1.267,1.267,0,0,1,.607-.506.781.781,0,0,1,.393,0,.708.708,0,0,1,.337.18,2.477,2.477,0,0,1,.607,1.034,6.252,6.252,0,0,1,.259,1.641A1.9,1.9,0,0,1,1008.513,1422.437Z" transform="translate(290.986 3861.709)" fill="#263238"/>
    <path id="Path_22098" data-name="Path 22098" d="M988.754,1436.345c-2.484-4.227-3.194-9.793-3.821-14.638-.295-2.271-.813-5.52.784-6.948,1.718-1.518,1.88-3.867,3.851-5.048a6.033,6.033,0,0,1,6.5.068" transform="translate(288.368 3860.449)" fill="#263238"/>
    <path id="Path_22099" data-name="Path 22099" d="M995.03,1450.961a6.739,6.739,0,0,0,4.981-1.686,6.736,6.736,0,0,0,2.246-4.756c.157-3.665.292-7.375.292-7.375s5.554-.506,5.97-6,.27-18.2.27-18.2a19.171,19.171,0,0,0-19.346,1.2l.283,19.36-.007,10.4C989.75,1447.4,991.527,1450.68,995.03,1450.961Z" transform="translate(288.969 3860.708)" fill="#aa6550"/>
    <path id="Path_22100" data-name="Path 22100" d="M1003.4,1424.92a2.788,2.788,0,0,0-3.751-.832,3.2,3.2,0,0,0-1.078,3.991,4.234,4.234,0,0,0,1.129,1.316,4.434,4.434,0,0,0,1.558.742,2.112,2.112,0,0,1,1.647,2.271c-.157,1.383-2.454,1.9-3.5,3.024-1.616,1.765-5.147,2.507-7.533,2.777s-2.055.3-3.411-1.63a7.376,7.376,0,0,1-1.325-4.475q-.11-6.071-.211-12.165a17.057,17.057,0,0,1,.289-4.362,5.862,5.862,0,0,1,2.308-3.62c1.338-.877,3.013-.944,4.556-1.428,1.9-.607,3.526-1.878,5.3-2.788s3.971-1.439,5.759-.528c1.271.641,2.125,1.922,3.373,2.642,1.776,1.012,4.194.8,5.048,3.407a4.418,4.418,0,0,1-.034,2.8c-1.2,3.553-5.621,4.98-8.792,3.429-.068.607.528,1.945-.113,3.845-.2.607-.281,1.54-1.2,1.552" transform="translate(288.652 3860.194)" fill="#263238"/>
    <path id="Path_22101" data-name="Path 22101" d="M1000.922,1426.255a.545.545,0,0,1-.067.236,1.031,1.031,0,0,1-.27.225.825.825,0,0,1-.337.079,1.5,1.5,0,0,1-1.419-1.518,1.58,1.58,0,0,1,1.272-1.653c.563-.124.889.09.867.124a6.784,6.784,0,0,0-.8.135,1.433,1.433,0,0,0-.7.528,1.389,1.389,0,0,0-.243.843,1.284,1.284,0,0,0,.283.821,1.368,1.368,0,0,0,.738.45A.868.868,0,0,0,1000.922,1426.255Z" transform="translate(290.135 3862.287)" fill="#995037"/>
    <path id="Path_22102" data-name="Path 22102" d="M1009.033,1421.81a20.715,20.715,0,0,1-3.688.787,20.113,20.113,0,0,1-3.755.427,20.683,20.683,0,0,1,3.688-.776A19.217,19.217,0,0,1,1009.033,1421.81Z" transform="translate(290.479 3862.067)" fill="#263238"/>
    <path id="Path_22103" data-name="Path 22103" d="M988.837,1439.4a1.6,1.6,0,0,0,1.91.764,4.559,4.559,0,0,0,1.844-1.248,4.825,4.825,0,0,1,1.808-1.282c1.465-.45,3.26.528,4.49-.382,1.121-.821.976-2.7,2.079-3.553.6-.461,1.4-.517,1.993-.956,1.113-.832.933-2.676,0-3.688a7.443,7.443,0,0,0-3.675-1.81l-11.8,5.037Z" transform="translate(288.725 3862.743)" fill="#263238"/>
    <path id="Path_22104" data-name="Path 22104" d="M1004.218,1419.07l-.1.079-.3.169a6.565,6.565,0,0,1-1.3.472,17.186,17.186,0,0,1-2.145.337,21.622,21.622,0,0,0-2.82.382,5.333,5.333,0,0,0-2.911,1.6,16.152,16.152,0,0,0-1.712,3.542,4.486,4.486,0,0,1-1.374,1.731,6.757,6.757,0,0,1-2.054,1.012c-1.453.495-3.05.787-4.255,1.821a2.992,2.992,0,0,0-1.091,1.922,13.252,13.252,0,0,0,0,2.294,4.251,4.251,0,0,1-.44,2.271,4.171,4.171,0,0,1-1.6,1.54c-1.205.731-2.524,1.113-3.561,1.776a4.113,4.113,0,0,0-1.266,1.169,3.042,3.042,0,0,0-.482,1.506,10.474,10.474,0,0,0,.38,2.8,7.409,7.409,0,0,1,.2,2.17,3.06,3.06,0,0,1-.392,1.315,1.511,1.511,0,0,1-.3.382,3.237,3.237,0,0,0,.555-1.709,7.379,7.379,0,0,0-.254-2.125,10.269,10.269,0,0,1-.44-2.844,3.449,3.449,0,0,1,.5-1.653,4.56,4.56,0,0,1,1.344-1.271c1.073-.686,2.369-1.09,3.549-1.81a3.435,3.435,0,0,0,1.856-3.508,13.568,13.568,0,0,1,0-2.361,3.39,3.39,0,0,1,1.205-2.147c1.307-1.1,2.965-1.394,4.376-1.877a6.705,6.705,0,0,0,1.964-.944,4.3,4.3,0,0,0,1.284-1.608,17.2,17.2,0,0,1,1.778-3.62,5.575,5.575,0,0,1,3.085-1.653,22.2,22.2,0,0,1,2.862-.326,15.182,15.182,0,0,0,2.134-.281A10.486,10.486,0,0,0,1004.218,1419.07Z" transform="translate(287.367 3861.726)" fill="#455a64"/>
    <path id="Path_22105" data-name="Path 22105" d="M1000.075,1420.822c0,.045-.428,0-1.151.169a5.169,5.169,0,0,0-2.645,1.585,4.715,4.715,0,0,0-1.055,1.844,8.171,8.171,0,0,0-.217,2.473,6.436,6.436,0,0,1-.409,2.822,2.865,2.865,0,0,1-1.031,1.158,12.589,12.589,0,0,1-1.361.731,3.61,3.61,0,0,0-1.176.832,2.183,2.183,0,0,0-.458,1.27,7.1,7.1,0,0,1-.314,2.822,4.664,4.664,0,0,1-1.837,1.81c-.694.4-1.368.708-1.935,1.057a4.754,4.754,0,0,0-1.362,1.135,3.026,3.026,0,0,0-.6,1.2,2.7,2.7,0,0,0,0,1.147.872.872,0,0,1-.121-.292,2.121,2.121,0,0,1-.036-.888,3.041,3.041,0,0,1,.561-1.27,4.859,4.859,0,0,1,1.392-1.214c.6-.36,1.247-.686,1.91-1.091a4.423,4.423,0,0,0,1.693-1.72,6.831,6.831,0,0,0,.265-2.7,2.47,2.47,0,0,1,.536-1.473,3.83,3.83,0,0,1,1.284-.922,4.18,4.18,0,0,0,2.242-1.72,6.326,6.326,0,0,0,.391-2.676,8.222,8.222,0,0,1,.265-2.552,4.8,4.8,0,0,1,1.151-1.934,5.149,5.149,0,0,1,2.8-1.552,3.788,3.788,0,0,1,.874-.067A1.174,1.174,0,0,1,1000.075,1420.822Z" transform="translate(288.334 3861.941)" fill="#455a64"/>
    <path id="Path_22106" data-name="Path 22106" d="M1004.065,1439.187l-1.428-2.946-12.411-.461-1.946,3.811h15.583" transform="translate(288.824 3863.803)" fill="#9ec8ff"/>
    <path id="Path_22107" data-name="Path 22107" d="M1044.71,1465.1c-.09-.45,3.272-17.989,4.216-22.812a1.013,1.013,0,0,0-.022-.45.881.881,0,0,0-.2-.393,1.039,1.039,0,0,0-.349-.27.833.833,0,0,0-.438-.09h-24.847a.932.932,0,0,0-.63.214,1.04,1.04,0,0,0-.36.562L1017,1463.351l-12.547.933.439.821Z" transform="translate(290.834 3864.462)" fill="#455a64"/>
    <path id="Path_22108" data-name="Path 22108" d="M1042.139,1463.411l4.014-21.271-24.419.157-5.363,21.148Z" transform="translate(292.315 3864.593)" fill="#ebebeb"/>
    <path id="Path_22109" data-name="Path 22109" d="M1016.35,1463.466l5.363-21.17,24.442-.146-4.025,21.283Zm5.4-21.159-5.363,21.114h25.746l4.014-21.238Z" transform="translate(292.313 3864.594)" fill="#263238"/>
    <path id="Path_22110" data-name="Path 22110" d="M1042.788,1461.217c0,.079-7.139.157-15.954.157s-15.965-.079-15.965-.157,7.139-.157,15.965-.157S1042.788,1461.15,1042.788,1461.217Z" transform="translate(291.632 3866.945)" fill="#263238"/>
    <path id="Path_22111" data-name="Path 22111" d="M1039.911,1457.726a1.459,1.459,0,0,1-.315,0l-.911.034-3.373.045c-2.844.034-6.768.045-11.1.045h-3.766l.045-.191c.877-3.35,1.63-6.273,2.181-8.421.27-1.012.495-1.833.663-2.451a5.663,5.663,0,0,1,.27-.877,6.048,6.048,0,0,1-.169.9c-.146.607-.337,1.462-.607,2.485-.517,2.147-1.237,5.082-2.069,8.443l-.135-.191h3.553c4.34,0,8.263,0,11.108.045l3.373.056h.911A.871.871,0,0,1,1039.911,1457.726Z" transform="translate(292.822 3865.062)" fill="#455a64"/>
    <path id="Path_22112" data-name="Path 22112" d="M1022.03,1455.926l.45-2.046h3.148l-.4,2.046Z" transform="translate(293.019 3866.052)" fill="#9ec8ff"/>
    <path id="Path_22113" data-name="Path 22113" d="M1025.83,1456.146l.944-4.036h3.148l-.888,4.036Z" transform="translate(293.491 3865.832)" fill="#9ec8ff"/>
    <path id="Path_22114" data-name="Path 22114" d="M1029.63,1455.926l.461-2.046h3.148l-.4,2.046Z" transform="translate(293.963 3866.052)" fill="#9ec8ff"/>
    <path id="Path_22115" data-name="Path 22115" d="M1033.43,1456.567l1.81-7.847h3.137l-1.743,7.847Z" transform="translate(294.436 3865.411)" fill="#9ec8ff"/>
    <path id="Path_22116" data-name="Path 22116" d="M1024.5,1457.759a5.157,5.157,0,0,1-2.53-.022c0-.09.562-.146,1.259-.146S1024.511,1457.669,1024.5,1457.759Z" transform="translate(293.012 3866.513)" fill="#455a64"/>
    <path id="Path_22117" data-name="Path 22117" d="M1028.191,1457.759a5.4,5.4,0,0,1-2.541-.034c0-.09.562-.146,1.27-.135S1028.191,1457.669,1028.191,1457.759Z" transform="translate(293.469 3866.513)" fill="#455a64"/>
    <path id="Path_22118" data-name="Path 22118" d="M1031.87,1457.749a5.161,5.161,0,0,1-2.53-.022c0-.09.562-.146,1.27-.146S1031.881,1457.659,1031.87,1457.749Z" transform="translate(293.927 3866.512)" fill="#455a64"/>
    <path id="Path_22119" data-name="Path 22119" d="M1035.561,1457.75a5.4,5.4,0,0,1-2.541-.034c0-.09.562-.157,1.271-.146S1035.561,1457.649,1035.561,1457.75Z" transform="translate(294.385 3866.511)" fill="#455a64"/>
    <path id="Path_22120" data-name="Path 22120" d="M1030.638,1445.13a39.428,39.428,0,0,1-7.038,0,39.4,39.4,0,0,1,7.038,0Z" transform="translate(293.214 3864.943)" fill="#455a64"/>
    <path id="Path_22121" data-name="Path 22121" d="M1026.914,1444.347a7.642,7.642,0,0,1-3.114,0A8.067,8.067,0,0,1,1026.914,1444.347Z" transform="translate(293.238 3864.849)" fill="#455a64"/>
    <path id="Path_22122" data-name="Path 22122" d="M1021.144,1475.521l14.38-10.422-.54-.877a6.936,6.936,0,0,0-3.362-2.822l-2.249.4-13.334,2.035Z" transform="translate(292.274 3866.987)" fill="#9ec8ff"/>
    <path id="Path_22123" data-name="Path 22123" d="M975.161,1473.452l11.95-4.756-2.669-9.916L974.7,1462.1Z" transform="translate(287.137 3866.661)" fill="#9ec8ff"/>
    <path id="Path_22124" data-name="Path 22124" d="M1026.674,1478.63c2.979-1.473,3.744-5.037,2.293-8.027l-12.378-26.488a4.909,4.909,0,0,0-1.237-1.709,14.02,14.02,0,0,0-10.242-3.519l-12.913-.337s-10.142,0-13.945,8c-.278.607-6.171,12.3-10.058,20.012a6.674,6.674,0,0,0,1.293,7.78,6.586,6.586,0,0,0,2.359,1.484,6.659,6.659,0,0,0,8.377-3.53l4.218-9.421,2.657,13.5-3.82,11.1,32.007.438-2.462-14.885-.776-10.6,6.487,13.4a5.95,5.95,0,0,0,1.439,1.9,6.014,6.014,0,0,0,2.057,1.2,5.944,5.944,0,0,0,2.35.3,6.018,6.018,0,0,0,2.293-.63Z" transform="translate(286.239 3864.147)" fill="#9ec8ff"/>
    <g id="Group_610" data-name="Group 610" transform="translate(1274.243 5330.532)" opacity="0.2">
      <path id="Path_22125" data-name="Path 22125" d="M985.914,1473.046c2.411,1.81,6.026,1.2,8.98.708a12.951,12.951,0,0,0,7.835-4.227,5.324,5.324,0,0,0,1.45-3.7,2.658,2.658,0,0,0-2.669-2.507c-1.542.191-2.29,1.923-3.013,3.294a12,12,0,0,1-12.535,5.869S985.485,1472.72,985.914,1473.046Z" transform="translate(-985.735 -1463.308)" opacity="0.2"/>
    </g>
    <g id="Group_611" data-name="Group 611" transform="translate(1294.193 5319.404)" opacity="0.2">
      <path id="Path_22126" data-name="Path 22126" d="M1003.48,1453.41c.753,6.1.416,5.633,1.687,11.648.6,2.957,1.372,6.037,3.418,8.275l-1.012-12.727Z" transform="translate(-1003.48 -1453.41)" opacity="0.2"/>
    </g>
    <path id="Path_22127" data-name="Path 22127" d="M981.632,1482.829l-.916-2.676,2.387-1.585,29.356-2.428,2.069,3.89-.888,3.238Z" transform="translate(287.884 3868.819)" fill="#9ec8ff"/>
    <path id="Path_22128" data-name="Path 22128" d="M987.363,1437.6a4.35,4.35,0,0,0-2.592,2.788,4.4,4.4,0,0,0-.152,1.945,4.331,4.331,0,0,0,.707,1.81,2.189,2.189,0,0,1,.554,1.214c-.054,1.079-1.808,1.113-2.357,2.046a1.7,1.7,0,0,0-.094,1.068,1.667,1.667,0,0,0,.564.9,14.26,14.26,0,0,0,1.808,1.214,2.208,2.208,0,0,1,1.109,1.765c.6,0,.977-.764.88-1.36a5.9,5.9,0,0,0-.748-1.675,1.744,1.744,0,0,1-.078-1.754c.4-.562,1.205-.6,1.867-.843a2.6,2.6,0,0,0,1.374-3.35c-.391-.888-1.307-1.776-.861-2.631.247-.484.82-.663,1.289-.933a3.3,3.3,0,0,0,1.2-1.113,3.385,3.385,0,0,0,.25-3.193,3.342,3.342,0,0,0-1.012-1.293" transform="translate(288.216 3863.606)" fill="#263238"/>
    <path id="Path_22129" data-name="Path 22129" d="M983.128,1461.34a7.946,7.946,0,0,1-.651,1.5c-.445.911-1.1,2.147-1.88,3.485s-1.561,2.5-2.145,3.317a8.287,8.287,0,0,1-1,1.3,8.68,8.68,0,0,1,.82-1.417c.531-.866,1.272-2.046,2.055-3.362s1.458-2.541,1.953-3.429A8.407,8.407,0,0,1,983.128,1461.34Z" transform="translate(287.479 3866.979)" fill="#263238"/>
    <path id="Path_22130" data-name="Path 22130" d="M980.14,1465.86a3.87,3.87,0,0,1-.2,2.215A4.042,4.042,0,0,1,978.82,1470c-.079-.045.464-.877.82-2.012S980.049,1465.86,980.14,1465.86Z" transform="translate(287.647 3867.541)" fill="#263238"/>
    <path id="Path_22131" data-name="Path 22131" d="M1022.9,1468.815c-.068.045-2.575-5.205-5.588-11.715s-5.385-11.816-5.307-11.85,2.586,5.205,5.588,11.715S1022.983,1468.781,1022.9,1468.815Z" transform="translate(291.773 3864.98)" fill="#263238"/>
    <path id="Path_22132" data-name="Path 22132" d="M1008.747,1442.14c0,.056-.54.247-1.338.753a8.3,8.3,0,0,0-3.879,5.914c-.135.933-.09,1.529-.146,1.529a3.8,3.8,0,0,1-.079-1.552,8.011,8.011,0,0,1,1.237-3.542,7.816,7.816,0,0,1,2.743-2.541A4.068,4.068,0,0,1,1008.747,1442.14Z" transform="translate(290.686 3864.593)" fill="#263238"/>
    <path id="Path_22133" data-name="Path 22133" d="M985.58,1475.35c-.084,0-1.525-6.116-3.218-13.716s-3.013-13.761-2.911-13.784,1.525,6.127,3.219,13.716S985.666,1475.339,985.58,1475.35Z" transform="translate(287.727 3865.303)" fill="#263238"/>
    <path id="Path_22134" data-name="Path 22134" d="M1033.585,1464.968l5.835-2.518h-7.78l1.7,2.2" transform="translate(294.213 3867.117)" fill="#aa6550"/>
    <path id="Path_22135" data-name="Path 22135" d="M1023.008,1465.56a9.9,9.9,0,0,1-1.417-1.327,10.633,10.633,0,0,1-1.372-1.383A6.882,6.882,0,0,1,1023.008,1465.56Z" transform="translate(292.794 3867.167)" fill="#263238"/>
    <path id="Path_22136" data-name="Path 22136" d="M1014.343,1474.532a5.272,5.272,0,0,1-.495-.8c-.292-.54-.708-1.315-1.2-2.282-1.012-1.934-2.361-4.632-3.834-7.623s-2.822-5.666-3.834-7.611l-1.2-2.294a5.943,5.943,0,0,1-.4-.854,5.385,5.385,0,0,1,.517.8c.315.517.753,1.293,1.282,2.249,1.046,1.911,2.406,4.587,3.9,7.578l3.755,7.656c.461.944.843,1.72,1.135,2.316A5.339,5.339,0,0,1,1014.343,1474.532Z" transform="translate(290.699 3865.952)" fill="#263238"/>
    <path id="Path_22137" data-name="Path 22137" d="M1004.68,1464.9v.2a3.6,3.6,0,0,1-.1.607,8.1,8.1,0,0,1-.787,2.069,11.792,11.792,0,0,1-5.428,4.834,23.907,23.907,0,0,1-7.057,1.765c-.922.1-1.675.157-2.193.2a4.842,4.842,0,0,1-.807,0,3.828,3.828,0,0,1,.8-.146l2.175-.3a25.271,25.271,0,0,0,6.954-1.81,10.579,10.579,0,0,0,6.449-7.42Z" transform="translate(288.827 3867.422)" fill="#263238"/>
    <path id="Path_22138" data-name="Path 22138" d="M999.108,1478.7c0,.09-3.965.438-8.871.787s-8.883.551-8.889.461,3.965-.427,8.871-.776S999.1,1478.623,999.108,1478.7Z" transform="translate(287.963 3869.135)" fill="#263238"/>
    <path id="Path_22139" data-name="Path 22139" d="M1001.7,1476.58a10.308,10.308,0,0,1,.641,3.024,10.038,10.038,0,0,1,0,3.069c-.09,0-.124-1.372-.3-3.047A27.719,27.719,0,0,1,1001.7,1476.58Z" transform="translate(290.492 3868.874)" fill="#263238"/>
    <path id="Path_22140" data-name="Path 22140" d="M1003.6,1474.88a3.966,3.966,0,0,1,.259,1.2,15,15,0,0,1,.09,3.013,14.656,14.656,0,0,1-.506,2.957,3.84,3.84,0,0,1-.427,1.169c-.1,0,.461-1.81.6-4.149S1003.495,1474.891,1003.6,1474.88Z" transform="translate(290.653 3868.662)" fill="#263238"/>
    <path id="Path_22141" data-name="Path 22141" d="M1003.764,1439.081c0,.079-2.875,0-6.406-.214s-6.388-.427-6.388-.506a60.917,60.917,0,0,1,6.406.2A61.762,61.762,0,0,1,1003.764,1439.081Z" transform="translate(289.158 3864.122)" fill="#263238"/>
    <path id="Path_22142" data-name="Path 22142" d="M1256,1449.212l-2.552-4.362-2.417,4.362H1216.66v17.977h53.5v-17.977Z" transform="translate(317.207 3864.93)" fill="#9ec8ff"/>
    <path id="Path_22148" data-name="Path 22148" d="M954.064,1448.811a9.93,9.93,0,0,1,2.41.641l1.808-1.5,3.073,2.338-.964,2.136a9.281,9.281,0,0,1,1.265,2.181l2.326.2.518,3.834-2.187.821a9.533,9.533,0,0,1-.639,2.406l1.5,1.81-2.344,3.081-2.121-.967a9.6,9.6,0,0,1-2.181,1.27l-.2,2.327-3.827.528-.813-2.158a9.421,9.421,0,0,1-2.41-.641l-1.809,1.506-3.079-2.35.965-2.136a9.473,9.473,0,0,1-1.266-2.181l-2.326-.225-.517-3.834,2.187-.821a9.381,9.381,0,0,1,.639-2.417l-1.5-1.81,2.344-3.081,2.122.967a9.663,9.663,0,0,1,2.181-1.27l.2-2.327,3.827-.517.82,2.192Zm-1.573,5.329a4.1,4.1,0,0,0-2.193.989,4.2,4.2,0,0,0-1.269,2.057,4.128,4.128,0,0,0,.084,2.406,4.085,4.085,0,0,0,1.408,1.956,4.154,4.154,0,0,0,4.6.292,4.151,4.151,0,0,0,2.022-4.149,4.137,4.137,0,0,0-4.652-3.553Z" transform="translate(282.979 3865.151)" fill="#9ec8ff"/>
    <path id="Path_22149" data-name="Path 22149" d="M951.657,1453.319a.686.686,0,0,1,.259-.056,2.913,2.913,0,0,1,.766,0,4.1,4.1,0,0,1,2.543,1.169,4.274,4.274,0,0,1,1.205,3.924,4.288,4.288,0,0,1-2.4,3.024,4.435,4.435,0,0,1-1.943.382,4.221,4.221,0,0,1-1.91-.528,4.264,4.264,0,0,1-1.747-1.81,4.279,4.279,0,0,1,.1-4.1,4.142,4.142,0,0,1,2.139-1.81,3.422,3.422,0,0,1,.747-.191,1.048,1.048,0,0,1,.265,0c0,.034-.362.079-.965.326a4.2,4.2,0,0,0-1.977,1.81,4.1,4.1,0,0,0-.5,1.923,4.007,4.007,0,0,0,2.174,3.609,3.988,3.988,0,0,0,4.589-.675,3.92,3.92,0,0,0,1.133-2.013,4.023,4.023,0,0,0-1.055-3.7,4.126,4.126,0,0,0-2.411-1.2A9.163,9.163,0,0,0,951.657,1453.319Z" transform="translate(283.813 3865.972)" fill="#9ec8ff"/>
    <path id="Path_22150" data-name="Path 22150" d="M954.077,1448.81a.374.374,0,0,1-.061-.135l-.169-.4c-.151-.382-.368-.933-.639-1.63l.054.034-3.826.551.078-.079c-.06.708-.126,1.5-.192,2.327v.067h-.054a9.332,9.332,0,0,0-2.146,1.259l-.054.045-.06-.022-2.134-.967.145-.034-2.326,3.1v-.157l1.506,1.81.054.068v.079a9.414,9.414,0,0,0-.6,2.417v.09l-.084.022-2.188.821.1-.157c.169,1.214.344,2.507.524,3.834l-.138-.135,2.326.2h.1l.036.09a9.343,9.343,0,0,0,1.254,2.136l.061.079-.043.09-.97,2.136-.048-.2,3.079,2.338h-.21l1.808-1.5.078-.067.1.034a9.861,9.861,0,0,0,2.411.607l.133.1v.034l.03.068.048.146.1.27.2.551c.138.36.271.731.41,1.091l-.181-.1,3.833-.517-.145.146c.066-.787.138-1.563.2-2.327v-.1l.091-.045a8.857,8.857,0,0,0,2.14-1.248l.078-.056.091.045,2.12.967-.192.045,2.344-3.069v.191l-1.494-1.81-.061-.068.036-.079a9.422,9.422,0,0,0,.639-2.417v-.09l.084-.034,2.188-.8-.09.135c-.175-1.338-.344-2.62-.506-3.823l.114.1-2.326-.214h-.072v-.056a9.587,9.587,0,0,0-1.248-2.159l-.042-.056v-.056l.976-2.125.03.112-3.061-2.361h.048l-1.808,1.484a10.232,10.232,0,0,0-1.808-.607l-.458-.09h.006l.464.067a9.154,9.154,0,0,1,1.808.517h-.054l1.777-1.518.048-.045.048.045,3.085,2.327.066.045-.036.079-.959,2.125v-.112a9.778,9.778,0,0,1,1.3,2.2l-.1-.079,2.326.2h.1v.1c.169,1.214.343,2.485.531,3.834v.112l-.109.034-2.181.821.09-.112a9.792,9.792,0,0,1-.644,2.485v-.157l1.5,1.81.079.09-.072.1-2.339,3.081-.072.1-.121-.045-2.169-.9h.169a9.46,9.46,0,0,1-2.211,1.293l.1-.135c-.066.776-.133,1.552-.2,2.339v.124h-.133l-3.827.528h-.133l-.048-.124c-.138-.36-.271-.731-.409-1.09l-.229-.517-.1-.27-.048-.146v-.1l.138.112a9.915,9.915,0,0,1-2.477-.652h.175c-.6.506-1.205,1.023-1.808,1.5l-.1.09-.109-.079-3.074-2.35-.1-.079.055-.124c.33-.731.662-1.461.97-2.125v.169a10.088,10.088,0,0,1-1.291-2.215l.133.09-2.319-.2h-.127v-.124c-.174-1.338-.35-2.631-.512-3.845v-.112l.114-.045,2.188-.809-.09.112a9.505,9.505,0,0,1,.657-2.473v.146l-1.494-1.81-.073-.079.066-.09,2.351-3.069.06-.079.084.045,2.121.978H947a9.8,9.8,0,0,1,2.206-1.27l-.061.079c.079-.832.157-1.619.224-2.327v-.068h.066l3.833-.495h.042v.045c.253.7.454,1.237.6,1.63l.151.427C954.069,1448.776,954.073,1448.8,954.077,1448.81Z" transform="translate(282.965 3865.152)" fill="#9ec8ff"/>
    <path id="Path_22151" data-name="Path 22151" d="M945.7,1474.566l.163-.034a1.727,1.727,0,0,1,.481,0,2.535,2.535,0,0,1,1.6.731,2.678,2.678,0,0,1,.748,2.473,2.717,2.717,0,0,1-.531,1.124,2.643,2.643,0,0,1-.979.765,2.688,2.688,0,0,1-1.22.247,2.638,2.638,0,0,1-1.2-.326,2.7,2.7,0,0,1-1.4-2.417,2.623,2.623,0,0,1,.362-1.282,2.537,2.537,0,0,1,1.344-1.136,1.343,1.343,0,0,1,.464-.112.426.426,0,0,1,.169,0,2.537,2.537,0,0,0-.6.2,2.517,2.517,0,0,0-1.553,2.338,2.555,2.555,0,0,0,.3,1.2,2.5,2.5,0,0,0,1.025,1.034,2.577,2.577,0,0,0,1.53.281,2.538,2.538,0,0,0,1.4-.686,2.393,2.393,0,0,0,.711-1.259,2.552,2.552,0,0,0-.675-2.35,2.633,2.633,0,0,0-1.5-.753A6.057,6.057,0,0,1,945.7,1474.566Z" transform="translate(283.242 3868.617)" fill="#263238"/>
    <path id="Path_22152" data-name="Path 22152" d="M947.211,1471.75a.334.334,0,0,1-.043-.09l-.1-.247-.4-1.023h.036l-2.41.349.043-.056c-.036.45-.072.944-.12,1.461v.045h-.036a6.182,6.182,0,0,0-1.35.787h-.036l-1.338-.6h.09l-1.464,1.934v-.1l.94,1.124.036.045v.045a5.893,5.893,0,0,0-.4,1.507v.056h-.048l-1.374.506.061-.09c.1.753.217,1.563.332,2.417l-.091-.09,1.458.124h.061v.056a5.992,5.992,0,0,0,.784,1.349l.042.045v.056c-.187.416-.4.877-.6,1.338l-.036-.124,1.935,1.473h-.133l1.1-.9.048-.045h.06a5.814,5.814,0,0,0,1.5.4l.084.056v.135l.066.169.126.349c.084.225.169.461.26.686l-.115-.068,2.411-.326-.09.09c.042-.484.09-.978.133-1.462v-.056h.054a5.747,5.747,0,0,0,1.344-.787l.048-.034h.061l1.331.607-.12.023,1.471-1.922v.112l-.94-1.124-.036-.045v-.056a5.944,5.944,0,0,0,.4-1.507v-.056h.048l1.379-.506-.061.09c-.108-.843-.217-1.642-.319-2.406l.073.067-1.386-.079h-.048v-.045a6.08,6.08,0,0,0-.784-1.349V1474l.6-1.338v.079l-1.923-1.484h.055l-1.133.933a6.677,6.677,0,0,0-1.133-.36l-.289-.056h0l.295.045a5.826,5.826,0,0,1,1.151.326h-.036l1.115-.944h.03l1.939,1.45h.043v.056c-.187.4-.38.843-.6,1.338v-.079a6.248,6.248,0,0,1,.814,1.383l-.066-.045,1.464.124h.061v.068c.1.753.217,1.563.332,2.406v.079H953.8l-1.375.517.061-.079a6.09,6.09,0,0,1-.409,1.563v-.1l.94,1.124.054.056-.048.068-1.47,1.934-.048.067-.072-.034-1.332-.607h.1a6.021,6.021,0,0,1-1.393.809l.066-.09-.126,1.461v.09h-.079l-2.41.326h-.084v-.079c-.084-.236-.169-.461-.259-.686l-.127-.349-.066-.169v-.135l.084.068a5.757,5.757,0,0,1-1.555-.416h.1l-1.121.956-.066.056-.066-.056-1.928-1.473-.066-.056.036-.067c.211-.461.416-.922.6-1.338v.1a6.135,6.135,0,0,1-.807-1.383l.079.056-1.458-.135h-.079v-.079c-.108-.832-.217-1.653-.319-2.417v-.079h.072l1.374-.506-.059.079a6.2,6.2,0,0,1,.416-1.563v.09l-1.036-1.169-.043-.056.043-.045,1.476-1.934.036-.045h.054l1.332.607h-.072a6.5,6.5,0,0,1,1.385-.809l-.036.056.138-1.462v-.045h.043l2.41-.3c.156.438.278.776.362,1.023l.09.259A.5.5,0,0,1,947.211,1471.75Z" transform="translate(282.72 3868.093)" fill="#263238"/>
    <path id="Path_22153" data-name="Path 22153" d="M1011.1,1393.541a13.119,13.119,0,1,0-16.3-8.837A13.122,13.122,0,0,0,1011.1,1393.541Z" transform="translate(289.567 3855.359)" fill="#f5f5f5"/>
    <path id="Path_22154" data-name="Path 22154" d="M994.3,1380.12a1.324,1.324,0,0,1,0,.214v1.068a2.3,2.3,0,0,0,.048.551,10.32,10.32,0,0,0,.193,1.36,12.335,12.335,0,0,0,1.205,3.553,12.96,12.96,0,0,0,15.195,6.543,13.822,13.822,0,0,0,1.743-.6,13.662,13.662,0,0,0,1.686-.933,15.285,15.285,0,0,0,1.552-1.147,16.308,16.308,0,0,0,1.36-1.428,12.61,12.61,0,0,0,2.08-3.44,14.244,14.244,0,0,0,.933-4.036,13.418,13.418,0,0,0-.4-4.126,13.394,13.394,0,0,0-2.777-5.273,13.053,13.053,0,0,0-1.383-1.349,12.647,12.647,0,0,0-1.518-1.124,14.075,14.075,0,0,0-1.63-.854,13.063,13.063,0,0,0-6.768-1.012,12.894,12.894,0,0,0-5.166,1.776,13.089,13.089,0,0,0-3.992,3.733,12.533,12.533,0,0,0-1.681,3.373,8.9,8.9,0,0,0-.368,1.327c-.043.191-.091.371-.12.54s-.043.315-.061.45c-.036.259-.066.461-.09.607a1.088,1.088,0,0,1-.037.214.857.857,0,0,1,0-.214c0-.157.037-.36.061-.607,0-.135.03-.281.043-.45a5.261,5.261,0,0,1,.108-.551,9.5,9.5,0,0,1,.344-1.349,12.408,12.408,0,0,1,1.65-3.418,13.15,13.15,0,0,1,16.19-4.677,13.892,13.892,0,0,1,1.675.866,15.341,15.341,0,0,1,1.552,1.147,14.877,14.877,0,0,1,1.417,1.372,15.057,15.057,0,0,1,1.2,1.619,12.9,12.9,0,0,1,1.664,3.778,14.76,14.76,0,0,1,.4,4.216,14.4,14.4,0,0,1-.956,4.137,12.881,12.881,0,0,1-2.136,3.53,15.424,15.424,0,0,1-1.405,1.439,14.5,14.5,0,0,1-3.272,2.114,16.438,16.438,0,0,1-1.81.641,13.329,13.329,0,0,1-6.971.1,13.275,13.275,0,0,1-8.452-6.847,12.414,12.414,0,0,1-1.205-3.62,9.813,9.813,0,0,1-.163-1.383,2.665,2.665,0,0,0-.036-.551v-.472a3.288,3.288,0,0,1,.029-.6A.973.973,0,0,1,994.3,1380.12Z" transform="translate(289.561 3855.345)" fill="#263238"/>
    <path id="Path_22155" data-name="Path 22155" d="M1011.889,1380.724a1.577,1.577,0,0,1-.461,0h-5.655v-7.2a2.06,2.06,0,0,1,.034-.528,4.045,4.045,0,0,1,.034.528v7.2l-.09-.079c1.7,0,3.2,0,4.283.022h1.282A3.307,3.307,0,0,1,1011.889,1380.724Z" transform="translate(290.995 3856)" fill="#263238"/>
    <path id="Path_22156" data-name="Path 22156" d="M1005.9,1369.76a6.792,6.792,0,1,1-.09,1.1A3.622,3.622,0,0,1,1005.9,1369.76Z" transform="translate(291.002 3855.598)" fill="#263238"/>
    <path id="Path_22157" data-name="Path 22157" d="M1011.367,1371.33a3.269,3.269,0,0,1-.686.832,3.512,3.512,0,0,1-.821.708,3.57,3.57,0,0,1,.708-.832A3.717,3.717,0,0,1,1011.367,1371.33Z" transform="translate(291.506 3855.793)" fill="#263238"/>
    <path id="Path_22158" data-name="Path 22158" d="M1014.505,1374.72a4.506,4.506,0,0,1-.9.607,4.365,4.365,0,0,1-.956.517,3.119,3.119,0,0,1,.866-.663A3.054,3.054,0,0,1,1014.505,1374.72Z" transform="translate(291.854 3856.214)" fill="#263238"/>
    <path id="Path_22159" data-name="Path 22159" d="M1016.453,1379.779a13.5,13.5,0,0,1-3.013,0A13.515,13.515,0,0,1,1016.453,1379.779Z" transform="translate(291.951 3856.833)" fill="#263238"/>
    <path id="Path_22160" data-name="Path 22160" d="M997.926,1379.6a11.989,11.989,0,0,1-2.839,0A11.989,11.989,0,0,1,997.926,1379.6Z" transform="translate(289.67 3856.81)" fill="#263238"/>
    <path id="Path_22161" data-name="Path 22161" d="M999.167,1383.34a5.9,5.9,0,0,1-1.073.978,6.219,6.219,0,0,1-1.175.843,5.858,5.858,0,0,1,1.073-.978A6.341,6.341,0,0,1,999.167,1383.34Z" transform="translate(289.898 3857.285)" fill="#263238"/>
    <path id="Path_22162" data-name="Path 22162" d="M1002.317,1386.25a11.956,11.956,0,0,1-.731,1.27,9.493,9.493,0,0,1-.776,1.237,5.207,5.207,0,0,1,.63-1.338A4.978,4.978,0,0,1,1002.317,1386.25Z" transform="translate(290.382 3857.647)" fill="#263238"/>
    <path id="Path_22163" data-name="Path 22163" d="M1005.9,1390.322a12.565,12.565,0,0,1,0-3,14.345,14.345,0,0,1,0,3Z" transform="translate(291.002 3857.78)" fill="#263238"/>
    <path id="Path_22164" data-name="Path 22164" d="M1011.919,1388.427a4.285,4.285,0,0,1-1.248-.843,4.337,4.337,0,0,1-1-1.124c.034-.023.495.45,1.113.989S1011.919,1388.394,1011.919,1388.427Z" transform="translate(291.482 3857.673)" fill="#263238"/>
    <path id="Path_22165" data-name="Path 22165" d="M1014.557,1385.508a6.218,6.218,0,0,1-1-.877,5.762,5.762,0,0,1-.877-1,10.113,10.113,0,0,1,1.877,1.878Z" transform="translate(291.856 3857.322)" fill="#263238"/>
    <path id="Path_22166" data-name="Path 22166" d="M998.983,1376.181a3.878,3.878,0,0,1-.875-.765,3.8,3.8,0,0,1-.759-.877,4.322,4.322,0,0,1,.88.764A3.974,3.974,0,0,1,998.983,1376.181Z" transform="translate(289.951 3856.192)" fill="#263238"/>
    <path id="Path_22167" data-name="Path 22167" d="M1002.308,1372.656a3.647,3.647,0,0,1-.866-.742,3.384,3.384,0,0,1-.742-.854,3.937,3.937,0,0,1,.877.742A4.082,4.082,0,0,1,1002.308,1372.656Z" transform="translate(290.368 3855.759)" fill="#263238"/>
    <path id="Path_22168" data-name="Path 22168" d="M1057.224,1533.906a2.568,2.568,0,0,1-.506.045l-1.473.022-5.419.056-17.809.045h-1.428v-.169c0-6.633.034-12.626.045-16.977,0-2.125.045-3.856.056-5.093v-1.383a2.283,2.283,0,0,1,.034-.484,3.48,3.48,0,0,1,.034.484v1.383c0,1.237.022,2.968.056,5.093,0,4.351.022,10.321.045,16.977l-.169-.169h1.27l17.8.056,5.43.045,1.462.034A3.265,3.265,0,0,1,1057.224,1533.906Z" transform="translate(294.083 3873.023)" fill="#263238"/>
    <path id="Path_22169" data-name="Path 22169" d="M1054,1515.13a6.206,6.206,0,0,1-.787.753l-2.237,1.968c-1.9,1.641-4.531,3.9-7.443,6.375l-.45.382-.112.1-.1-.113-3.317-3.081h.2l-4.857,4.025-1.417,1.124a3.011,3.011,0,0,1-.529.382,2.971,2.971,0,0,1,.461-.461l1.36-1.2,4.79-4.115.1-.09.1.1,3.328,3.058h-.225l.438-.371c2.923-2.473,5.576-4.7,7.51-6.3.944-.765,1.72-1.405,2.3-1.889A6.336,6.336,0,0,1,1054,1515.13Z" transform="translate(294.376 3873.664)" fill="#263238"/>
    <path id="Path_22170" data-name="Path 22170" d="M1052.361,1520.716a7.392,7.392,0,0,1-.113-1.653c-.034-1.023-.056-2.44-.056-4.025l.169.169h-.281c-1.653,0-3.148,0-4.227-.045a9.04,9.04,0,0,1-1.743-.124,9.021,9.021,0,0,1,1.743-.124c1.079-.023,2.575-.045,4.227-.045h.45v.169c0,1.585,0,3.013-.056,4.025A9.011,9.011,0,0,1,1052.361,1520.716Z" transform="translate(296.012 3873.632)" fill="#263238"/>
  </g>
</svg>
