<svg xmlns="http://www.w3.org/2000/svg" xmlns:xlink="http://www.w3.org/1999/xlink" width="1121.414" height="933.683" viewBox="0 0 1121.414 933.683">
  <defs>
    <filter id="Path_25574" x="0" y="0" width="1121.414" height="933.683" filterUnits="userSpaceOnUse">
      <feOffset dy="3" input="SourceAlpha"/>
      <feGaussianBlur stdDeviation="17" result="blur"/>
      <feFlood flood-opacity="0.161"/>
      <feComposite operator="in" in2="blur"/>
      <feComposite in="SourceGraphic"/>
    </filter>
  </defs>
  <g id="Group_1039" data-name="Group 1039" transform="translate(-5762.375 -2130.841)">
    <g transform="matrix(1, 0, 0, 1, 5762.38, 2130.84)" filter="url(#Path_25574)">
      <path id="Path_25574-2" data-name="Path 25574" d="M443.718-44.754c-50.885,22.645-108.5-.93-202.8,23.7s-175.3,65.849-215.795,98.5c-58.98,47.563-66.747,202.767-66.747,202.767s9.362,98.334,30.348,156.024C11.274,498.209,38.062,585.7,87.272,634.521c49.649,49.258,129.473,92.248,207.934,80.268,86.846-13.259,102.982-72.779,205.71-101.758s137.29,6.833,205.2-14.158c65.019-20.1,106.8-79.157,134.795-132.687,27.11-51.843,129.809-76.772,136.516-185.975S895.911,68.432,867.744,29.374s-188.86-136.051-260.885-143.39C531.424-121.7,513.072-75.618,443.718-44.754Z" transform="translate(92.62 162.87)" fill="#d8e5f6" fill-rule="evenodd" opacity="0.31"/>
    </g>
    <g id="Layer_2" data-name="Layer 2" transform="translate(5856.223 2186.9)">
      <g id="OBJECTS" transform="translate(0 0)">
        <g id="Group_1038" data-name="Group 1038" transform="translate(934.874 849.715)">
          <path id="Path_25307" data-name="Path 25307" d="M2000,2000Z" transform="translate(-2000 -2000)" fill="#fff"/>
        </g>
        <path id="Path_25309" data-name="Path 25309" d="M430.549,1282.546c0,61.6-47.735,111.525-106.617,111.525S217.31,1344.146,217.31,1282.546,265.045,1171,323.927,1171s106.617,49.925,106.617,111.531Z" transform="translate(-163.633 -731.066)" fill="#fff"/>
        <path id="Path_25310" data-name="Path 25310" d="M1566.345,999.533c0,46.88-39.545,84.882-88.347,84.882s-88.348-38-88.348-84.882S1429.195,914.65,1478,914.65,1566.345,952.652,1566.345,999.533Z" transform="translate(-756.476 -601.432)" fill="#fff"/>
        <path id="Path_25311" data-name="Path 25311" d="M1507.194,844.208,1487.388,858.9a3.148,3.148,0,0,1-4.409-.652l-57.439-77.428L1450.4,762.37l57.443,77.423a3.154,3.154,0,0,1-.653,4.409Z" transform="translate(-774.626 -524.425)" fill="#0e2549"/>
        <path id="Path_25312" data-name="Path 25312" d="M1364.78,609.763l78.822-33.988,52.076-69.935,59.2,137.294L1468.273,633l-78.822,33.989-24.671-57.221Z" transform="translate(-743.9 -394.7)" fill="#d2ebfc"/>
        <path id="Path_25313" data-name="Path 25313" d="M1364.757,608.642l24.088,55.857,78.323-33.771h.2l85.352,10.015L1494.538,505.8l-51.408,69.065-78.323,33.771Zm23.312,57.809-25.259-58.58,79.317-34.206,52.728-70.8,60.217,139.652-87.68-10.262Z" transform="translate(-742.904 -393.193)" fill="#0e2549"/>
        <path id="Path_25314" data-name="Path 25314" d="M1653.893,653.165a.735.735,0,0,1-.687-.465l-40.652-99.895a.742.742,0,0,1,1.374-.558l40.652,99.895a.747.747,0,0,1-.41.989.787.787,0,0,1-.277.055Z" transform="translate(-869.17 -417.933)" fill="#0e2549"/>
        <path id="Path_25315" data-name="Path 25315" d="M1695.484,548.81a.747.747,0,0,1-.529-1.266l28.7-28.867a.741.741,0,0,1,1.048,1.048l-28.7,28.867A.747.747,0,0,1,1695.484,548.81Z" transform="translate(-910.76 -401.091)" fill="#0e2549"/>
        <path id="Path_25316" data-name="Path 25316" d="M1755.75,604.106a.742.742,0,0,1-.257-1.434l48.828-18.289a.741.741,0,1,1,.519,1.389l-48.828,18.289a.688.688,0,0,1-.262.05Z" transform="translate(-941.24 -434.396)" fill="#0e2549"/>
        <path id="Path_25317" data-name="Path 25317" d="M1793.737,711.105h-.129l-40.276-7.217a.741.741,0,1,1,.257-1.458l40.276,7.192a.744.744,0,1,1-.129,1.483Z" transform="translate(-940.057 -494.104)" fill="#0e2549"/>
        <path id="Path_25318" data-name="Path 25318" d="M308.215,847.644a56.262,56.262,0,0,1-17.5,40.835,43.939,43.939,0,0,0-11.819,19.49,46.308,46.308,0,0,0-1.814,15.279c.044.959.064,1.918.064,2.892,0,21.621-11.369,26.875-25.343,26.875s-25.353-5.254-25.353-26.875q0-1.735.1-3.46a43.163,43.163,0,0,0-1.73-14.73,44.627,44.627,0,0,0-11.992-19.54,56.415,56.415,0,1,1,95.387-40.766Z" transform="translate(-152.543 -539.004)" fill="#d2ebfc"/>
        <path id="Path_25319" data-name="Path 25319" d="M251.04,791.242h-.8a55.911,55.911,0,0,0-54.868,55.516,55.15,55.15,0,0,0,17.222,40.41,45.478,45.478,0,0,1,12.175,19.861,43.727,43.727,0,0,1,1.755,14.987c-.064,1.117-.1,2.259-.1,3.4,0,18.077,7.593,26.134,24.612,26.134s24.6-8.057,24.6-26.134c0-.954,0-1.913-.064-2.857a46.987,46.987,0,0,1,1.844-15.526,44.828,44.828,0,0,1,12.022-19.817,55.674,55.674,0,0,0-38.4-95.98Zm0,161.8c-17.8,0-26.094-8.774-26.094-27.617,0-1.167.035-2.338.1-3.46a42.25,42.25,0,0,0-1.7-14.478,43.953,43.953,0,0,0-11.794-19.238,56.648,56.648,0,0,1-17.676-41.487,57.158,57.158,0,1,1,96.588,41.537,43.335,43.335,0,0,0-11.621,19.164,45.629,45.629,0,0,0-1.789,15.037c.049.989.069,1.948.069,2.927,0,18.843-8.29,27.617-26.085,27.617Z" transform="translate(-151.783 -538.275)" fill="#0e2549"/>
        <path id="Path_25320" data-name="Path 25320" d="M307.2,1042.709c.044.959.064,1.918.064,2.891,0,21.621-11.369,26.876-25.343,26.876s-25.353-5.254-25.353-26.876q0-1.735.1-3.46a43.165,43.165,0,0,0-1.73-14.731h54.072a46.3,46.3,0,0,0-1.814,15.279Z" transform="translate(-182.662 -658.454)" fill="#0e2549"/>
        <path id="Path_25321" data-name="Path 25321" d="M300.982,1070.969a.743.743,0,0,1-.494-.168l-40.859-33.524a.741.741,0,0,1,.944-1.142l40.855,33.519a.736.736,0,0,1,.1,1.043.716.716,0,0,1-.573.272Z" transform="translate(-184.909 -662.79)" fill="#a1c5e2"/>
        <path id="Path_25322" data-name="Path 25322" d="M317.015,1060.144a.74.74,0,0,1-.47-.168l-33.653-27.612a.743.743,0,0,1,.944-1.147l33.647,27.612a.741.741,0,0,1-.47,1.315Z" transform="translate(-196.661 -660.293)" fill="#a1c5e2"/>
        <path id="Path_25323" data-name="Path 25323" d="M332.4,1050.876a.744.744,0,0,1-.494-.168l-22.017-18.067a.742.742,0,1,1,.939-1.147l22.041,18.082a.741.741,0,0,1-.47,1.315Z" transform="translate(-210.301 -660.427)" fill="#a1c5e2"/>
        <path id="Path_25324" data-name="Path 25324" d="M345.956,1039.992a.742.742,0,0,1-.47-.168l-10.222-8.4a.741.741,0,1,1,.939-1.147l10.227,8.4a.742.742,0,0,1-.494,1.315Z" transform="translate(-223.136 -659.81)" fill="#a1c5e2"/>
        <path id="Path_25325" data-name="Path 25325" d="M291.294,1087.2a.742.742,0,0,1-.494-.178l-31.216-26.495a.742.742,0,0,1,.964-1.127l31.24,26.49a.742.742,0,0,1,.084,1.048.727.727,0,0,1-.563.262Z" transform="translate(-184.88 -674.54)" fill="#a1c5e2"/>
        <path id="Path_25326" data-name="Path 25326" d="M277.234,1101.452a.749.749,0,0,1-.494-.173L264.6,1090.973a.742.742,0,1,1,.959-1.127l12.14,10.3a.74.74,0,0,1-.484,1.3Z" transform="translate(-187.399 -689.922)" fill="#a1c5e2"/>
        <path id="Path_25327" data-name="Path 25327" d="M301.314,902.511c-.465.381-3.875,3.307-7.578,9.718,9.98-1.641,16.683-4.394,16.683-7.415,0-1.621-.445-2.684-1.354-3.252-2.066-1.285-6.223.227-7.751.964Zm-54.275-.86a3.378,3.378,0,0,0-1.785.445c-1.058.653-1.587,2.086-1.582,4.261,0,3.02,5.66,5.4,14.75,6.6-3.851-6.92-7.464-10.05-7.948-10.45a8.9,8.9,0,0,0-3.46-.86ZM282.753,965.6a.747.747,0,0,1-.741-.712c-.989-24.716,4.058-40.647,8.448-49.668l.539-1.078a144.642,144.642,0,0,1-17.879,1.147,120.013,120.013,0,0,1-12.031-.534l.227.465c4.389,9.021,9.422,24.963,8.453,49.668a.766.766,0,0,1-.771.712.746.746,0,0,1-.712-.771c.989-24.681-4.044-40.667-9-50.266-9.55-1.127-17.073-3.653-17.093-8.2,0-2.729.761-4.587,2.294-5.531,2.674-1.646,6.564.306,6.728.391l.119.074c.193.148,4.5,3.535,8.947,11.888a113.491,113.491,0,0,0,12.852.623,134.63,134.63,0,0,0,18.739-1.285c4.315-7.87,8.4-11.083,8.591-11.226l.124-.079c.247-.119,6.036-2.931,9.263-.929,1.359.85,2.051,2.368,2.051,4.513,0,4.691-8.734,7.568-19.085,9.09-.356.667-.707,1.359-1.063,2.091-4.286,8.858-9.2,24.523-8.245,48.847a.746.746,0,0,1-.712.771Z" transform="translate(-176.215 -593.806)" fill="#0e2549"/>
        <path id="Path_25328" data-name="Path 25328" d="M311.962,727.42a.741.741,0,0,1-.741-.742V702.121a.741.741,0,0,1,1.483,0v24.557A.741.741,0,0,1,311.962,727.42Z" transform="translate(-211.123 -493.583)" fill="#0e2549"/>
        <path id="Path_25329" data-name="Path 25329" d="M186.748,768.959a.75.75,0,0,1-.494-.212l-17.637-17.088a.742.742,0,1,1,1.028-1.063L187.262,767.7a.742.742,0,0,1-.494,1.276Z" transform="translate(-138.874 -518.345)" fill="#0e2549"/>
        <path id="Path_25330" data-name="Path 25330" d="M134.044,880.039h-.1L109.6,876.8a.737.737,0,0,1-.638-.83.746.746,0,0,1,.835-.638l24.34,3.238a.743.743,0,1,1-.094,1.483Z" transform="translate(-108.839 -581.547)" fill="#0e2549"/>
        <path id="Path_25331" data-name="Path 25331" d="M123.02,993.481a.741.741,0,0,1-.371-1.384l21.28-12.259a.742.742,0,1,1,.741,1.285l-21.28,12.259a.719.719,0,0,1-.371.1Z" transform="translate(-115.576 -634.347)" fill="#0e2549"/>
        <path id="Path_25332" data-name="Path 25332" d="M264.8,1342.581a102.073,102.073,0,1,1,101.748-102.4A102.085,102.085,0,0,1,264.8,1342.581Zm154.3-80.74-.124-37.315a8.927,8.927,0,0,0-8.952-8.9l-24.424.079a1.107,1.107,0,0,1-1.078-.86,123.147,123.147,0,0,0-14.982-36.633,1.1,1.1,0,0,1,.158-1.354L387,1159.42a8.922,8.922,0,0,0-.04-12.62l-26.47-26.307a8.932,8.932,0,0,0-12.625.039l-17.024,17.138a1.1,1.1,0,0,1-1.369.153,122.991,122.991,0,0,0-38.151-15.724,1.107,1.107,0,0,1-.865-1.073l-.079-24.77a8.927,8.927,0,0,0-8.952-8.9l-37.315.119a8.932,8.932,0,0,0-8.9,8.957l.079,25.081a1.108,1.108,0,0,1-.845,1.078,122.94,122.94,0,0,0-35.476,14.829,1.1,1.1,0,0,1-1.359-.153l-17.573-17.464a8.927,8.927,0,0,0-12.625.044l-26.3,26.471a8.922,8.922,0,0,0,.04,12.62l17.439,17.3a1.107,1.107,0,0,1,.158,1.369A122.983,122.983,0,0,0,143.2,1215.6a1.1,1.1,0,0,1-1.073.865l-24.513.079a8.923,8.923,0,0,0-8.9,8.952l.119,37.32a8.9,8.9,0,0,0,8.952,8.9l24.933-.079a1.112,1.112,0,0,1,1.078.845,123.028,123.028,0,0,0,16.238,37.528,1.1,1.1,0,0,1-.143,1.384l-16.851,16.955a8.932,8.932,0,0,0,.04,12.625l26.475,26.3a8.922,8.922,0,0,0,12.62-.04l17.538-17.652a1.1,1.1,0,0,1,1.344-.168,123.054,123.054,0,0,0,34.181,13.766,1.1,1.1,0,0,1,.85,1.068l.079,24.938a8.922,8.922,0,0,0,8.952,8.9l37.32-.119a8.927,8.927,0,0,0,8.9-8.952l-.079-24.621a1.1,1.1,0,0,1,.855-1.078,123.111,123.111,0,0,0,38.655-16.352,1.092,1.092,0,0,1,1.374.143l17.073,16.96a8.9,8.9,0,0,0,12.62-.039l26.3-26.461a8.9,8.9,0,0,0-.04-12.62l-17.6-17.493a1.1,1.1,0,0,1-.168-1.349,122.958,122.958,0,0,0,13.964-34.38,1.107,1.107,0,0,1,1.068-.85l24.844-.079a8.927,8.927,0,0,0,8.9-8.952Z" transform="translate(-108.72 -688.77)" fill="#a1c5e2"/>
        <path id="Path_25333" data-name="Path 25333" d="M1464.237,1040.864a66.692,66.692,0,1,1,60.009-72.752,66.692,66.692,0,0,1-60.009,72.752Zm116.617-62.723-2.8-29.248a7.024,7.024,0,0,0-7.667-6.322l-19.14,1.834a.87.87,0,0,1-.909-.6,96.886,96.886,0,0,0-14.409-27.627.86.86,0,0,1,0-1.073l12.318-14.933a7.024,7.024,0,0,0-.949-9.886l-22.664-18.7a7.029,7.029,0,0,0-9.886.949l-12.105,14.671a.865.865,0,0,1-1.063.222,96.889,96.889,0,0,0-31.028-9.585.865.865,0,0,1-.756-.776l-1.864-19.411a7.029,7.029,0,0,0-7.667-6.322l-29.248,2.8a7.029,7.029,0,0,0-6.323,7.667l1.888,19.659a.876.876,0,0,1-.588.9,96.816,96.816,0,0,0-26.732,14.261.871.871,0,0,1-1.078,0l-15.072-12.437a7.029,7.029,0,0,0-9.886.949l-18.7,22.664a7.024,7.024,0,0,0,.949,9.886l14.928,12.318a.866.866,0,0,1,.222,1.063,96.9,96.9,0,0,0-9.422,30.909.865.865,0,0,1-.776.756l-19.219,1.843a7.03,7.03,0,0,0-6.323,7.667l2.8,29.248a7.03,7.03,0,0,0,7.667,6.322l19.545-1.874a.87.87,0,0,1,.9.583,96.83,96.83,0,0,0,15.457,28.24.871.871,0,0,1,0,1.092l-12,14.5a7.034,7.034,0,0,0,.949,9.886l22.664,18.7a7.039,7.039,0,0,0,9.886-.949l12.467-15.116a.86.86,0,0,1,1.038-.227,96.987,96.987,0,0,0,27.8,8.31.864.864,0,0,1,.746.776l1.874,19.545a7.029,7.029,0,0,0,7.667,6.322l29.244-2.8a7.029,7.029,0,0,0,6.327-7.667l-1.854-19.278a.88.88,0,0,1,.6-.909,96.816,96.816,0,0,0,29.115-15.625.856.856,0,0,1,1.088,0l14.616,12.061a7.034,7.034,0,0,0,9.886-.949l18.7-22.669a7.033,7.033,0,0,0-.949-9.886l-15.071-12.432a.86.86,0,0,1-.232-1.043,96.814,96.814,0,0,0,8.447-27.968.869.869,0,0,1,.776-.746l19.471-1.864a7.024,7.024,0,0,0,6.322-7.667Z" transform="translate(-728.766 -569.399)" fill="#a1c5e2"/>
        <path id="Path_25334" data-name="Path 25334" d="M1316.969,444.932q-1.068,0-2.135.1a21.829,21.829,0,1,0,2.135-.1Zm-.084,45.348a23.429,23.429,0,1,1,2.278-.109C1318.4,490.245,1317.641,490.28,1316.885,490.28Z" transform="translate(-707.843 -363.134)" fill="#0e2549"/>
        <path id="Path_25335" data-name="Path 25335" d="M1305.7,419.6Zm-22.847,5.64Zm53.825,15.071Zm-5.62.153Zm1.275,14.4ZM1287.977,477.4a1.03,1.03,0,0,1,.435.1,29.723,29.723,0,0,0,8.551,2.556,1.013,1.013,0,0,1,.87.909l.573,6.164a1.483,1.483,0,0,0,1.607,1.33l9.224-.885a1.483,1.483,0,0,0,1.325-1.612l-.583-6.08a1.018,1.018,0,0,1,.692-1.063,29.723,29.723,0,0,0,8.957-4.8.988.988,0,0,1,1.27,0l4.607,3.8a1.462,1.462,0,0,0,2.072-.2l5.927-7.128a1.461,1.461,0,0,0-.2-2.066l-4.745-3.93a.988.988,0,0,1-.267-1.221,29.708,29.708,0,0,0,2.595-8.6,1.018,1.018,0,0,1,.91-.87l6.139-.588a1.483,1.483,0,0,0,1.325-1.607l-.885-9.219a1.442,1.442,0,0,0-.529-.989,1.483,1.483,0,0,0-1.078-.331l-6.035.578a1.014,1.014,0,0,1-1.063-.692,29.649,29.649,0,0,0-4.449-8.5.989.989,0,0,1,.03-1.251l3.88-4.711a1.461,1.461,0,0,0-.2-2.066l-7.143-5.9a1.483,1.483,0,0,0-2.076.2l-3.816,4.627a1.018,1.018,0,0,1-1.241.262,29.715,29.715,0,0,0-9.555-2.941,1.019,1.019,0,0,1-.88-.91l-.583-6.12a1.483,1.483,0,0,0-.529-.988,1.507,1.507,0,0,0-1.082-.331l-9.219.885a1.468,1.468,0,0,0-1.315,1.607l.593,6.2a1.013,1.013,0,0,1-.682,1.058,29.979,29.979,0,0,0-8.225,4.375.989.989,0,0,1-1.256-.025l-4.775-3.945a1.467,1.467,0,0,0-2.071.2l-5.9,7.148a1.484,1.484,0,0,0-.326,1.078,1.435,1.435,0,0,0,.529.989l4.706,3.885a.988.988,0,0,1,.262,1.236,29.848,29.848,0,0,0-2.9,9.51.988.988,0,0,1-.909.88l-6.045.583a1.483,1.483,0,0,0-1.33,1.607l.885,9.224a1.483,1.483,0,0,0,1.606,1.325l6.164-.588a1.013,1.013,0,0,1,1.058.677,29.534,29.534,0,0,0,4.755,8.685,1.019,1.019,0,0,1,0,1.28l-3.777,4.577a1.483,1.483,0,0,0,.2,2.071l7.148,5.9a1.483,1.483,0,0,0,2.071-.2l3.954-4.765a.988.988,0,0,1,.781-.371Zm11.913,12.545a2.911,2.911,0,0,1-1.878-.677,2.966,2.966,0,0,1-1.063-1.977l-.553-5.8a31.079,31.079,0,0,1-8.28-2.471l-3.7,4.488a2.966,2.966,0,0,1-4.162.4l-7.148-5.892a2.966,2.966,0,0,1-.4-4.162l3.534-4.291a31.253,31.253,0,0,1-4.637-8.477l-5.823.534a2.966,2.966,0,0,1-3.223-2.664l-.885-9.219a2.916,2.916,0,0,1,.663-2.165,2.965,2.965,0,0,1,1.977-1.063l5.69-.544a31.209,31.209,0,0,1,2.827-9.278l-4.419-3.648a2.966,2.966,0,0,1-.4-4.162l5.892-7.148a2.966,2.966,0,0,1,4.167-.4l4.448,3.688a31.245,31.245,0,0,1,7.988-4.251l-.558-5.833a2.966,2.966,0,0,1,2.66-3.223l9.224-.885a2.965,2.965,0,0,1,3.223,2.659l.554,5.754a31.1,31.1,0,0,1,9.323,2.867l3.579-4.34a2.966,2.966,0,0,1,4.162-.4l7.207,5.9a2.966,2.966,0,0,1,.4,4.162l-3.653,4.449a31.116,31.116,0,0,1,4.315,8.27l5.665-.544a2.966,2.966,0,0,1,3.228,2.664l.885,9.174a2.966,2.966,0,0,1-2.659,3.228l-5.779.554a31.184,31.184,0,0,1-2.516,8.334l4.449,3.692a2.966,2.966,0,0,1,.4,4.162l-5.892,7.148a2.966,2.966,0,0,1-1.977,1.058,2.91,2.91,0,0,1-2.16-.662l-4.32-3.564a31.214,31.214,0,0,1-8.76,4.721l.549,5.714a2.965,2.965,0,0,1-2.659,3.223l-9.224.885a2.771,2.771,0,0,1-.287,0Z" transform="translate(-691.753 -346.641)" fill="#0e2549"/>
        <path id="Path_25336" data-name="Path 25336" d="M1199.24,508.472a11.7,11.7,0,1,0,8.932,19.238h0a11.7,11.7,0,0,0-8.932-19.238Zm-.035,24.874a13.183,13.183,0,1,1,10.1-4.681h0a13.1,13.1,0,0,1-8.962,4.637C1199.962,533.331,1199.586,533.345,1199.206,533.345Z" transform="translate(-653.515 -395.275)" fill="#0e2549"/>
        <path id="Path_25337" data-name="Path 25337" d="M1193.708,494.51Zm-8.556.119Zm13.267.989ZM1179.966,497.3ZM1207.944,514.08ZM1207.41,514.574Zm-33.489,2.551Zm2.437,4.642Zm6.426,3.831a.877.877,0,0,1,.41.1,16.058,16.058,0,0,0,5.21,1.636.885.885,0,0,1,.771.8l.277,3.272a.5.5,0,0,0,.495.43l5.067-.43a.466.466,0,0,0,.43-.509l-.286-3.371a.894.894,0,0,1,.6-.919,15.882,15.882,0,0,0,4.281-2.234.889.889,0,0,1,1.1.039l2.586,2.18a.467.467,0,0,0,.667-.054l3.277-3.885a.5.5,0,0,0-.054-.667l-2.541-2.145a.889.889,0,0,1-.217-1.092,15.881,15.881,0,0,0,1.6-4.9.89.89,0,0,1,.81-.751l3.332-.282a.474.474,0,0,0,.435-.514l-.43-5.067a.494.494,0,0,0-.494-.43l-3.277.277a.885.885,0,0,1-.925-.613,15.9,15.9,0,0,0-2.471-4.78.89.89,0,0,1,.029-1.112l2.175-2.575a.494.494,0,0,0-.054-.672l-3.885-3.277a.5.5,0,0,0-.668.059l-2.2,2.61a.9.9,0,0,1-1.083.222,15.9,15.9,0,0,0-4.77-1.517.89.89,0,0,1-.756-.806l-.286-3.366a.464.464,0,0,0-.163-.321.494.494,0,0,0-.346-.114l-5.067.43a.5.5,0,0,0-.43.494l.282,3.337a.89.89,0,0,1-.618.924,16.025,16.025,0,0,0-4.74,2.471.885.885,0,0,1-1.112-.025l-2.556-2.155a.445.445,0,0,0-.346-.109.5.5,0,0,0-.322.163l-3.277,3.885a.48.48,0,0,0,.059.672l2.6,2.19a.9.9,0,0,1,.222,1.078,16.012,16.012,0,0,0-1.552,5.091.884.884,0,0,1-.81.776l-3.243.272a.483.483,0,0,0-.435.514l.43,5.067a.494.494,0,0,0,.495.43l3.376-.287a.884.884,0,0,1,.919.6,16.041,16.041,0,0,0,2.229,4.241.884.884,0,0,1-.034,1.1l-2.19,2.6a.441.441,0,0,0-.109.346.5.5,0,0,0,.163.321l3.885,3.277a.48.48,0,0,0,.672-.059l2.16-2.561a.885.885,0,0,1,.682-.316Zm7.138,7.726a1.976,1.976,0,0,1-1.947-1.794l-.238-2.8a17.51,17.51,0,0,1-4.8-1.483l-1.863,2.209a1.978,1.978,0,0,1-2.759.232l-3.885-3.277a1.977,1.977,0,0,1-.232-2.758l1.893-2.244a17.469,17.469,0,0,1-2.012-3.826l-2.926.247a1.977,1.977,0,0,1-2.116-1.784l-.425-5.062a1.948,1.948,0,0,1,1.784-2.116l2.774-.237a17.5,17.5,0,0,1,1.423-4.671l-2.244-1.893a1.977,1.977,0,0,1-.232-2.758l3.277-3.885a1.977,1.977,0,0,1,2.758-.232l2.195,1.854a17.3,17.3,0,0,1,4.355-2.259l-.242-2.877a1.977,1.977,0,0,1,1.785-2.116l5.061-.43a1.977,1.977,0,0,1,2.116,1.789l.247,2.907a17.375,17.375,0,0,1,4.335,1.379l1.908-2.264a1.977,1.977,0,0,1,2.753-.232l3.885,3.277a1.977,1.977,0,0,1,.237,2.758l-1.878,2.224a17.414,17.414,0,0,1,2.264,4.385l2.813-.237a1.977,1.977,0,0,1,2.116,1.785l.43,5.067a1.977,1.977,0,0,1-1.784,2.116l-2.882.242a17.346,17.346,0,0,1-1.483,4.449l2.185,1.844a1.977,1.977,0,0,1,.692,1.334,1.937,1.937,0,0,1-.455,1.424l-3.277,3.885a1.943,1.943,0,0,1-1.33.687,1.918,1.918,0,0,1-1.428-.45l-2.239-1.888a17.634,17.634,0,0,1-3.86,2.017l.247,2.911a1.977,1.977,0,0,1-1.784,2.116l-5.067.43h-.168Z" transform="translate(-644.695 -386.366)" fill="#0e2549"/>
        <path id="Path_25338" data-name="Path 25338" d="M906.633,333.466h20.712V282.483H906.633v50.963Zm22.194,1.483H905.15V281h23.677v53.929Z" transform="translate(-511.469 -281)" fill="#0e2549"/>
        <path id="Path_25339" data-name="Path 25339" d="M972.1,353.289h20.712V321.683H972.1Zm22.194,1.483H970.62V320.2H994.3Z" transform="translate(-544.576 -300.823)" fill="#0e2549"/>
        <path id="Path_25340" data-name="Path 25340" d="M1035.963,370.214h20.712V355.153h-20.712Zm22.194,1.483H1034.48V353.67h23.677Z" transform="translate(-576.87 -317.749)" fill="#0e2549"/>
        <path id="Path_25341" data-name="Path 25341" d="M992.613,388.623H888.151a.741.741,0,0,1,0-1.483H992.613a.741.741,0,0,1,0,1.483Z" transform="translate(-502.497 -334.674)" fill="#0e2549"/>
        <path id="Path_25342" data-name="Path 25342" d="M1842.3,1237.221a22.076,22.076,0,1,1,14.829-38.408.741.741,0,0,1-.989,1.1,20.578,20.578,0,1,0,3.92,4.834.742.742,0,0,1,1.28-.751,22.081,22.081,0,0,1-19.051,33.227Z" transform="translate(-974.201 -742.227)" fill="#0e2549"/>
        <path id="Path_25343" data-name="Path 25343" d="M1869.349,1194.291a.743.743,0,1,0,.351,1.443l3.3-.81-22.778,22.841-10.44-7.874a.746.746,0,0,0-1.038.148.738.738,0,0,0,.148,1.038l11.488,8.621,23.915-23.974-.336,3.337a.742.742,0,0,0,.662.816h.074a.741.741,0,0,0,.736-.662l.667-6.594-6.732,1.646Z" transform="translate(-983.505 -741.999)" fill="#0e2549"/>
        <path id="Path_25344" data-name="Path 25344" d="M472.447,639.17a5.077,5.077,0,0,1-4.849,3.371H450.3a5.077,5.077,0,0,1-4.849-3.371,5.236,5.236,0,0,1-.331-1.715c1.2-.494,8.186-3.208,12.719-1.7,4.943,1.641,12.852,0,14.547-.39a5.21,5.21,0,0,1,.049,3.8Zm-25.521-5.719,12.031-10.42L471,633.451a6.242,6.242,0,0,1,.573.578c-2.3.494-9.105,1.7-13.242.321-4.449-1.483-10.549.494-12.951,1.414a5.064,5.064,0,0,1,1.557-2.313Zm0-22.8a5.175,5.175,0,0,1,3.386-9.09h17.3a5.18,5.18,0,0,1,3.386,9.09l-12.031,10.42Zm25.032,21.68-11.863-10.282,11.863-10.282a6.658,6.658,0,0,0-4.36-11.69H450.3a6.658,6.658,0,0,0-4.36,11.69L457.8,622.052l-11.863,10.282a6.658,6.658,0,0,0,4.375,11.7h17.3a6.658,6.658,0,0,0,4.36-11.69Z" transform="translate(-278.08 -442.356)" fill="#0e2549"/>
        <path id="Path_25345" data-name="Path 25345" d="M473.882,653.345a.742.742,0,0,1-.742-.742V651a.741.741,0,1,1,1.483,0v1.6A.741.741,0,0,1,473.882,653.345Z" transform="translate(-293.004 -467.732)" fill="#0e2549"/>
        <path id="Path_25346" data-name="Path 25346" d="M473.882,662.729a.741.741,0,0,1-.742-.741v-1.607a.741.741,0,0,1,1.483,0v1.607A.741.741,0,0,1,473.882,662.729Z" transform="translate(-293.004 -472.475)" fill="#0e2549"/>
        <path id="Path_25347" data-name="Path 25347" d="M993.276,861.438c0,155.213-125.846,281.078-281.078,281.078S431.12,1016.651,431.12,861.438,556.961,580.35,712.2,580.35,993.276,706.191,993.276,861.438Z" transform="translate(-271.755 -432.379)" fill="#2e6b99"/>
        <path id="Path_25348" data-name="Path 25348" d="M994.263,905.287c0,131.565-106.652,238.217-238.217,238.217S517.83,1036.841,517.83,905.287,624.482,667.06,756.047,667.06,994.263,773.712,994.263,905.287Z" transform="translate(-315.604 -476.228)" fill="#fff"/>
        <path id="Path_25349" data-name="Path 25349" d="M756.343,668.536c-130.947,0-237.475,106.528-237.475,237.475S625.4,1143.487,756.343,1143.487s237.475-106.528,237.475-237.476S887.29,668.536,756.343,668.536Zm0,476.434a238.212,238.212,0,1,1,93.014-18.784A238.212,238.212,0,0,1,756.343,1144.969Z" transform="translate(-315.9 -476.962)" fill="#0e2549"/>
        <path id="Path_25350" data-name="Path 25350" d="M824.937,1192.425c-34.182,23.1-65.555,36.4-70.048,29.752s19.595-30.761,53.791-53.845,65.555-36.4,70.043-29.752S859.133,1169.341,824.937,1192.425Z" transform="translate(-435.21 -713.806)" fill="#2e6b99"/>
        <path id="Path_25351" data-name="Path 25351" d="M996.593,730.165a1.483,1.483,0,0,1-1.483-1.483V689.943a1.483,1.483,0,0,1,2.966,0v38.739A1.483,1.483,0,0,1,996.593,730.165Z" transform="translate(-556.96 -487.049)" fill="#0e2549"/>
        <path id="Path_25352" data-name="Path 25352" d="M996.593,1554.724a1.483,1.483,0,0,1-1.483-1.483v-40.958a1.483,1.483,0,0,1,2.966,0v40.958A1.483,1.483,0,0,1,996.593,1554.724Z" transform="translate(-556.96 -902.901)" fill="#0e2549"/>
        <path id="Path_25353" data-name="Path 25353" d="M586.865,1139.666H544.013a1.483,1.483,0,0,1,0-2.966h42.852a1.483,1.483,0,0,1,0,2.966Z" transform="translate(-328.094 -713.721)" fill="#0e2549"/>
        <path id="Path_25354" data-name="Path 25354" d="M1411.54,1139.666h-36.777a1.483,1.483,0,0,1,0-2.966h36.777a1.483,1.483,0,0,1,0,2.966Z" transform="translate(-748.198 -713.721)" fill="#0e2549"/>
        <path id="Path_25355" data-name="Path 25355" d="M1204.677,1500.109a1.482,1.482,0,0,1-1.285-.741l-19.629-34.018a1.483,1.483,0,1,1,2.566-1.483l19.643,34.014a1.483,1.483,0,0,1-.543,2.021,1.445,1.445,0,0,1-.742.2Z" transform="translate(-652.244 -878.764)" fill="#0e2549"/>
        <path id="Path_25356" data-name="Path 25356" d="M792.349,785.917a1.483,1.483,0,0,1-1.285-.741l-20.2-34.982a1.484,1.484,0,0,1,2.571-1.483l20.193,34.982a1.479,1.479,0,0,1-1.28,2.225Z" transform="translate(-443.462 -517.142)" fill="#0e2549"/>
        <path id="Path_25357" data-name="Path 25357" d="M1360.083,1342.365a1.483,1.483,0,0,1-.707-.183l-33.118-18.062a1.483,1.483,0,1,1,1.418-2.6l33.118,18.062a1.483,1.483,0,0,1-.712,2.788Z" transform="translate(-724.028 -807.089)" fill="#0e2549"/>
        <path id="Path_25358" data-name="Path 25358" d="M636.07,947.316a1.483,1.483,0,0,1-.707-.178L598.5,927.03a1.483,1.483,0,1,1,1.419-2.605l36.866,20.108a1.483,1.483,0,0,1-.712,2.783Z" transform="translate(-356.005 -606.284)" fill="#0e2549"/>
        <path id="Path_25359" data-name="Path 25359" d="M1324.061,935.409a1.483,1.483,0,0,1-.742-2.768l31.734-18.314a1.484,1.484,0,1,1,1.483,2.57L1324.8,935.186a1.481,1.481,0,0,1-.741.2Z" transform="translate(-722.558 -601.168)" fill="#0e2549"/>
        <path id="Path_25360" data-name="Path 25360" d="M604.206,1347.732a1.483,1.483,0,0,1-.747-2.768l37.256-21.517a1.484,1.484,0,1,1,1.483,2.57l-37.256,21.512A1.424,1.424,0,0,1,604.206,1347.732Z" transform="translate(-358.53 -808.057)" fill="#0e2549"/>
        <path id="Path_25361" data-name="Path 25361" d="M779.3,1503.172a1.483,1.483,0,0,1-1.3-2.195l20.267-37.117a1.484,1.484,0,1,1,2.605,1.423L780.609,1502.4A1.483,1.483,0,0,1,779.3,1503.172Z" transform="translate(-447.08 -878.772)" fill="#0e2549"/>
        <path id="Path_25362" data-name="Path 25362" d="M1176.714,779.25a1.483,1.483,0,0,1-1.3-2.195l17.919-32.847a1.483,1.483,0,1,1,2.6,1.419l-17.923,32.847A1.483,1.483,0,0,1,1176.714,779.25Z" transform="translate(-648.047 -514.849)" fill="#0e2549"/>
        <path id="Path_25363" data-name="Path 25363" d="M410.232,766.811a.752.752,0,0,1-.534-.227.742.742,0,0,1,0-1.048l17.617-17.108a.741.741,0,1,1,1.033,1.063L410.731,766.6a.727.727,0,0,1-.494.213Z" transform="translate(-260.813 -517.26)" fill="#0e2549"/>
        <path id="Path_25364" data-name="Path 25364" d="M456.062,877.864a.743.743,0,1,1-.094-1.483l24.34-3.238a.746.746,0,0,1,.835.638.736.736,0,0,1-.638.83l-24.345,3.243Z" transform="translate(-283.969 -580.439)" fill="#0e2549"/>
        <path id="Path_25365" data-name="Path 25365" d="M470.227,991.3a.724.724,0,0,1-.371-.1l-21.28-12.259a.741.741,0,1,1,.741-1.28l21.28,12.254a.741.741,0,0,1-.371,1.384Z" transform="translate(-280.373 -633.232)" fill="#0e2549"/>
        <path id="Path_25366" data-name="Path 25366" d="M1588.337,1569.191H1363.57V1424.26h224.767v144.931Z" transform="translate(-743.288 -859.138)" fill="#fff"/>
        <path id="Path_25367" data-name="Path 25367" d="M1363.553,1567.731V1424.9l111.219,73.435.41.271,111.64-73.706v142.83Zm221.558-143.448L1475.2,1496.847l-109.914-72.565Zm2.472-1.483H1362.07v146.414h226.25V1422.8Z" transform="translate(-742.529 -858.4)" fill="#0e2549"/>
        <path id="Path_25368" data-name="Path 25368" d="M1710.756,1549.546c-.084.336-.173.662-.262.989-3.776,13.717-10.252,18.037-13.638,16.776a3.47,3.47,0,0,1-2.126-2.862c-1.048-6.04,6.683-18.606,6.683-18.606S1715.669,1530.456,1710.756,1549.546Z" transform="translate(-910.704 -917.658)" fill="#e2474b"/>
        <path id="Path_25369" data-name="Path 25369" d="M1737.62,1559.118a3.074,3.074,0,0,1-2.284,2.709c-3.2.761-8.9-3.406-12.19-15.694l-.173-.623c-4.483-17.434,7.508-4.943,7.508-4.943s8.087,13.005,7.128,18.527Z" transform="translate(-924.528 -915.762)" fill="#e2474b"/>
        <path id="Path_25370" data-name="Path 25370" d="M1736.529,1571.327c-3.2.762-8.9-3.406-12.189-15.694l2.274-.6s.148,9.7,9.916,16.313Z" transform="translate(-925.726 -925.267)" fill="#0e2549"/>
        <path id="Path_25371" data-name="Path 25371" d="M1712.768,1559.707c-3.776,13.717-10.252,18.037-13.638,16.777,10.563-5.882,11.834-18.364,11.834-18.364Z" transform="translate(-912.978 -926.829)" fill="#0e2549"/>
        <path id="Path_25372" data-name="Path 25372" d="M1680.043,1440.085l-1.943,5.793-1.339-4.385-10.549-34.542,3.277-1.542,8.235-3.88,8.967,6.04,3.46,2.338-10.118,30.152Zm35.719-42.565a16.994,16.994,0,0,0-6.426-7.444,20.862,20.862,0,0,0-1.977-1.137c-5.482-2.778-57.118-.524-64.527-.188l-.885.039a28.906,28.906,0,0,0-3.984,7.375c-.791,2.358-1.1,4.889-.049,6.955.336.652,1.6,2.808,2.9,5.007l28.843,49.846,2.783,4.8-.989,3-1.4,4.172,10.737,6,35.367-65.372c1.191-2.378,1.928-7.859-.371-13.069Z" transform="translate(-881.682 -840.584)" fill="#2e6b99"/>
        <path id="Path_25373" data-name="Path 25373" d="M1716.489,1397.521c-16.663-2.3-25.892,6.278-29.07,10.049l-8.967-6.04-8.235,3.88c-7.563-5.438-21.4-8.022-31.537-9.244a28.892,28.892,0,0,1,3.984-7.375l.885-.039c7.414-.336,59.045-2.59,64.527.188a20.872,20.872,0,0,1,1.978,1.137,17,17,0,0,1,6.426,7.444Z" transform="translate(-882.409 -840.584)" fill="#1e5272"/>
        <path id="Path_25374" data-name="Path 25374" d="M1692.429,1222.89s.494,13.05-.672,14.538-7.207,4.879-7.207,4.879l20.607,13,12.357-12.739s-6.623-2.9-7.246-4.621c-.87-2.383-.712-15.057-.712-15.057Z" transform="translate(-905.605 -757.307)" fill="#fff"/>
        <path id="Path_25375" data-name="Path 25375" d="M1703.79,1256.22l-22.17-13.984,1.087-.608c2.378-1.334,6.2-3.678,6.985-4.686.608-.865.742-7.968.494-14.058l1.483-.054c.119,3.124.4,13.445-.83,15.022-.939,1.211-4.5,3.376-6.352,4.449l19.055,12.022,11.211-11.547c-2.17-.989-6.1-3.025-6.678-4.612-.889-2.442-.771-14.009-.756-15.323h1.483c-.039,3.46,0,12.941.668,14.79.316.88,3.8,2.867,6.846,4.2l.988.43-13.524,13.929Z" transform="translate(-904.123 -757.276)" fill="#0e2549"/>
        <path id="Path_25376" data-name="Path 25376" d="M1698.866,1169.083s-8.146,1.221-8.146,6.11a130.677,130.677,0,0,0,1.483,16.51,3.036,3.036,0,0,0,3.006,2.59h16.905a3.041,3.041,0,0,0,3.02-2.694c.593-5.165,1.75-16.1,1.132-17.751-2.086-5.615-17.379-4.765-17.379-4.765Z" transform="translate(-908.725 -730.074)" fill="#0e2549"/>
        <path id="Path_25377" data-name="Path 25377" d="M1699.124,1204.271c4.78.553,10.751-.351,12.408-2.007.988-.989,1.364-4.815,1.482-9.2a.366.366,0,0,1,.188-.306c1.181-.677,2.891-2.126,2.842-4.3-.044-1.888-1.483-1.483-2.57-.885a.3.3,0,0,1-.445-.257c-.089-5.289-.39-9.926-.39-9.926H1691.25s.039,4.716.247,10a.3.3,0,0,1-.45.272c-1.132-.652-2.689-1.191-2.738.791-.054,2.471,2.15,4,3.282,4.533a.355.355,0,0,1,.208.3c.247,3.732.6,6.955,1.117,8.1a3.586,3.586,0,0,0,1.537,1.557l4.681,1.33Z" transform="translate(-907.505 -734.298)" fill="#fff"/>
        <path id="Path_25378" data-name="Path 25378" d="M1690.64,1186.23Zm-.658.4Zm11.28,17.746a26.3,26.3,0,0,1-2.966-.158.747.747,0,1,1,.173-1.483c5.052.583,10.489-.494,11.8-1.794.321-.322,1.083-1.809,1.255-8.695a1.089,1.089,0,0,1,.559-.929c.756-.435,2.516-1.661,2.472-3.643,0-.45-.119-.613-.158-.633a2.085,2.085,0,0,0-1.32.386,1.043,1.043,0,0,1-1.537-.9c-.069-4.024-.262-7.706-.346-9.194h-19.941c0,1.537.079,5.24.237,9.234a1.043,1.043,0,0,1-1.567.939,2.675,2.675,0,0,0-1.483-.494c-.114,0-.143.183-.158.638-.054,2.407,2.56,3.7,2.857,3.846a1.092,1.092,0,0,1,.628.919c.356,5.329.771,7.207,1.058,7.84a2.854,2.854,0,0,0,1.236,1.226.742.742,0,0,1-.751,1.28,4.294,4.294,0,0,1-1.834-1.9c-.494-1.077-.87-3.742-1.171-8.126-1.7-.865-3.559-2.679-3.5-5.121a2.013,2.013,0,0,1,.915-1.893,2.437,2.437,0,0,1,2.244.124c-.178-4.943-.218-9.224-.218-9.268v-.751h22.832l.049.692c0,.045.277,4.315.376,9.273a2.378,2.378,0,0,1,2.13-.059,2.137,2.137,0,0,1,.9,1.883,5.759,5.759,0,0,1-3.035,4.854c-.2,7.192-1.053,8.863-1.68,9.5-1.568,1.567-5.986,2.378-10.035,2.378Z" transform="translate(-906.741 -733.504)" fill="#0e2549"/>
        <path id="Path_25379" data-name="Path 25379" d="M1692.539,1165.539c3.381,4.207,18.29,8.344,25.378-5.675s-13.005-2.966-19.589-.989C1695.51,1159.721,1689.642,1161.94,1692.539,1165.539Z" transform="translate(-909.249 -721.898)" fill="#0e2549"/>
        <path id="Path_25380" data-name="Path 25380" d="M1711.4,1317.856s-.7.425-1.8,1.073a118.99,118.99,0,0,1-10.6,5.66,19.718,19.718,0,0,1-1.977.761,55.313,55.313,0,0,1-5.373,1.339c-13.47,2.828-35.556,4.241-46.084,1.354-.658-.178-1.3-.361-1.923-.554a82.484,82.484,0,0,1-11.146-4.226,60.387,60.387,0,0,1-11.784-6.95,9.279,9.279,0,0,1-3.272-10.875l15.442-40.069,14.711-6.48a5.209,5.209,0,0,1,4.449.534c3.91,2.472,11.651-1.221,15.279-.84,8.576.9,11.948,2.175,15.146.247a5.2,5.2,0,0,1,3.989-.574l13.287,7.415,16.02,40.533a9.268,9.268,0,0,1-4.354,11.641Z" transform="translate(-871.356 -775.106)" fill="#fff"/>
        <path id="Path_25381" data-name="Path 25381" d="M1632.7,1265.168l-15.323,39.782a8.546,8.546,0,0,0,3.01,10.015,60.534,60.534,0,0,0,11.666,6.881,82.224,82.224,0,0,0,11.048,4.192c.623.187,1.255.371,1.9.548,10.167,2.788,31.858,1.542,45.738-1.369,1.977-.415,3.786-.865,5.309-1.325a18.1,18.1,0,0,0,1.9-.726c3.277-1.438,8-4.137,10.519-5.62,1.092-.642,1.785-1.062,1.789-1.068h.045a8.513,8.513,0,0,0,4.009-10.712l-15.927-40.311-12.971-7.232a4.448,4.448,0,0,0-3.331.494c-2.6,1.567-5.22,1.206-9.975.554-1.617-.223-3.46-.494-5.626-.7a19.564,19.564,0,0,0-5.141.727c-3.638.8-7.751,1.706-10.455,0a4.448,4.448,0,0,0-3.781-.494l-14.4,6.342Zm28.344,64.453c-6.48,0-12.358-.495-16.436-1.606-.657-.183-1.3-.366-1.943-.559a84.07,84.07,0,0,1-11.245-4.266,61.636,61.636,0,0,1-11.918-7.034,10.009,10.009,0,0,1-3.514-11.74l15.551-40.355,15.057-6.634a5.933,5.933,0,0,1,5.071.613c2.19,1.374,6,.544,9.347-.2a20.268,20.268,0,0,1,5.616-.751c2.209.232,4.048.495,5.669.707,4.568.628,6.861.944,9.011-.356a5.967,5.967,0,0,1,4.562-.658l.173.069,13.52,7.538.1.247,16.021,40.558a9.986,9.986,0,0,1-4.686,12.56c-.124.079-.791.494-1.785,1.068q-5.19,3.112-10.672,5.695a19.617,19.617,0,0,1-2.066.791c-1.562.495-3.391.934-5.437,1.359a157.411,157.411,0,0,1-30,2.966Z" transform="translate(-870.593 -774.35)" fill="#0e2549"/>
        <path id="Path_25382" data-name="Path 25382" d="M1665.848,1313.955a.742.742,0,0,0-.95.45l-6.846,19.075-5.842-3.07a.742.742,0,1,0-.687,1.315l11.938,6.268a.782.782,0,0,0,.346.084.742.742,0,0,0,.341-1.4l-4.77-2.506,6.92-19.278a.742.742,0,0,0-.445-.949Z" transform="translate(-888.702 -803.336)" fill="#0e2549"/>
        <path id="Path_25383" data-name="Path 25383" d="M1770.758,1330.639a.741.741,0,0,0-.989-.311l-5.843,3.07-6.846-19.075a.742.742,0,1,0-1.394.495l6.921,19.278-4.77,2.506a.742.742,0,0,0,.346,1.4.769.769,0,0,0,.341-.084l11.938-6.268a.737.737,0,0,0,.312-.989Z" transform="translate(-941.547 -803.267)" fill="#0e2549"/>
        <path id="Path_25384" data-name="Path 25384" d="M1717.806,1262.866l-4.434-2.926-5.047,2.486,2.9,4.231-4.622,50.7,6.97,13.223,6.149-13.223-5.324-50.439,3.411-4.049Z" transform="translate(-916.756 -776.043)" fill="#e2474b"/>
        <path id="Path_25385" data-name="Path 25385" d="M1657.2,1326.67l6.94,34.206h47.843l5.458-34.206Z" transform="translate(-891.774 -809.787)" fill="#d2ebfc"/>
        <path id="Path_25386" data-name="Path 25386" d="M1663.813,1359.376h46.6l5.22-32.722h-58.481l6.638,32.722Zm47.869,1.483h-49.09l-7.242-35.689h62.011l-5.69,35.689Z" transform="translate(-890.839 -809.029)" fill="#0e2549"/>
        <path id="Path_25387" data-name="Path 25387" d="M1719.087,1399.587H1671.08v-3.717h48.008v3.717Z" transform="translate(-898.793 -844.781)" fill="#a1c5e2"/>
        <path id="Path_25388" data-name="Path 25388" d="M1671.063,1398.088h46.524v-2.235h-46.524Zm48.007,1.482h-49.49v-5.2h49.49Z" transform="translate(-898.035 -844.023)" fill="#0e2549"/>
        <path id="Path_25389" data-name="Path 25389" d="M1693.7,1452.376a.747.747,0,0,1-.707-.494l-14.458-43.544,16.4-6.407a.742.742,0,1,1,.539,1.379l-15.086,5.882L1694.4,1451.4a.737.737,0,0,1-.495.934.664.664,0,0,1-.232.04Z" transform="translate(-902.561 -847.813)" fill="#0e2549"/>
        <path id="Path_25390" data-name="Path 25390" d="M1711.488,1476.265a.693.693,0,0,1-.277-.054.737.737,0,0,1-.415-.959l25.447-63.978-16.06-7.973a.743.743,0,1,1,.662-1.33l17.3,8.581-25.951,65.249a.742.742,0,0,1-.687.465Z" transform="translate(-918.851 -847.827)" fill="#0e2549"/>
        <path id="Path_25391" data-name="Path 25391" d="M1711.258,1501.045l-5.665,16.91-2.783-4.8,7.108-16.49,1.34,4.385Z" transform="translate(-914.839 -895.75)" fill="#1e5272"/>
        <path id="Path_25392" data-name="Path 25392" d="M1703.455,1580.088a.682.682,0,0,1-.306-.07l-5.091-2.338a.742.742,0,1,1,.617-1.349l5.092,2.343a.741.741,0,0,1-.311,1.414Z" transform="translate(-912.216 -936.005)" fill="#0e2549"/>
        <path id="Path_25393" data-name="Path 25393" d="M1706.034,1572.7a.681.681,0,0,1-.306-.069l-5.091-2.338a.742.742,0,1,1,.618-1.349l5.091,2.343a.741.741,0,0,1-.311,1.414Z" transform="translate(-913.521 -932.267)" fill="#0e2549"/>
        <path id="Path_25394" data-name="Path 25394" d="M1708.6,1565.318a.666.666,0,0,1-.306-.069l-5.092-2.338a.742.742,0,0,1,.618-1.349l5.092,2.343a.741.741,0,0,1-.311,1.413Z" transform="translate(-914.821 -928.536)" fill="#0e2549"/>
        <path id="Path_25395" data-name="Path 25395" d="M1738.888,1572.7a.742.742,0,0,1-.307-1.414l5.087-2.343a.743.743,0,1,1,.623,1.349l-5.091,2.338a.7.7,0,0,1-.311.07Z" transform="translate(-932.712 -932.267)" fill="#0e2549"/>
        <path id="Path_25396" data-name="Path 25396" d="M1735.691,1564.995a.741.741,0,0,1-.311-1.418l5.091-2.338a.742.742,0,0,1,.989.361.751.751,0,0,1-.366.989l-5.091,2.338a.757.757,0,0,1-.307.069Z" transform="translate(-931.087 -928.371)" fill="#0e2549"/>
        <path id="Path_25397" data-name="Path 25397" d="M1731.988,1557.623a.741.741,0,0,1-.306-1.414l5.086-2.338a.742.742,0,0,1,.623,1.345l-5.092,2.343A.764.764,0,0,1,1731.988,1557.623Z" transform="translate(-929.222 -924.652)" fill="#0e2549"/>
        <path id="Path_25398" data-name="Path 25398" d="M1717.794,1359.517a4.587,4.587,0,1,1-4.587-4.588A4.587,4.587,0,0,1,1717.794,1359.517Z" transform="translate(-917.777 -824.078)" fill="#fff"/>
        <path id="Path_25399" data-name="Path 25399" d="M1712.449,1354.913a3.846,3.846,0,1,0,3.846,3.846A3.846,3.846,0,0,0,1712.449,1354.913Zm0,9.174a5.331,5.331,0,1,1,0,.005Z" transform="translate(-917.018 -823.32)" fill="#0e2549"/>
        <path id="Path_25400" data-name="Path 25400" d="M1726.742,1200.212h0a.742.742,0,0,1-.732-.752v-.495a.736.736,0,0,1,.741-.736h0a.746.746,0,0,1,.737.751v.494a.746.746,0,0,1-.741.737Z" transform="translate(-926.571 -744.836)" fill="#0e2549"/>
        <path id="Path_25401" data-name="Path 25401" d="M1706.671,1200.212a.747.747,0,0,1-.741-.737v-.494a.741.741,0,0,1,.731-.751h0a.742.742,0,0,1,.742.736v.495a.746.746,0,0,1-.736.752Z" transform="translate(-916.417 -744.836)" fill="#0e2549"/>
        <path id="Path_25402" data-name="Path 25402" d="M1702.359,1195.446a.742.742,0,0,1-.381-1.379,5.68,5.68,0,0,1,4.108-.583.742.742,0,0,1-.4,1.429,4.229,4.229,0,0,0-2.966.429.733.733,0,0,1-.376.1Z" transform="translate(-914.235 -742.358)" fill="#0e2549"/>
        <path id="Path_25403" data-name="Path 25403" d="M1727.4,1195.445a.761.761,0,0,1-.381-.1,4.231,4.231,0,0,0-2.966-.43.742.742,0,0,1-.39-1.429,5.68,5.68,0,0,1,4.107.583.741.741,0,0,1-.38,1.379Z" transform="translate(-925.124 -742.358)" fill="#0e2549"/>
        <path id="Path_25404" data-name="Path 25404" d="M1718.162,1205.373Zm-1.844,1.6a.744.744,0,0,1-.118-1.483,10.319,10.319,0,0,0,1.725-.425,10.341,10.341,0,0,1-1.606-2.966.742.742,0,1,1,1.384-.529,8.526,8.526,0,0,0,1.483,2.669,1.359,1.359,0,0,1,.425,1.186c-.055.312-.193,1.043-3.149,1.532a.537.537,0,0,1-.124,0Z" transform="translate(-921.264 -746.271)" fill="#0e2549"/>
        <path id="Path_25405" data-name="Path 25405" d="M1718.022,1214.811c.326.495-1.334,2.125-3.262,2.042-3.149-.139-4.122-2.294-3.361-2.14a9.47,9.47,0,0,0,3.326.751C1716.757,1215.513,1717.8,1214.475,1718.022,1214.811Z" transform="translate(-919.058 -753.167)" fill="#0e2549"/>
        <path id="Path_25406" data-name="Path 25406" d="M1675.838,1360.337a.741.741,0,0,1-.726-.6l-4.874-24.829a.742.742,0,1,1,1.453-.286l4.878,24.834a.741.741,0,0,1-.588.87.625.625,0,0,1-.143,0Z" transform="translate(-898.357 -813.489)" fill="#fff"/>
        <path id="Path_25407" data-name="Path 25407" d="M1698.692,1256.086l-8.448,4.795-11.364-4.449,7.464-3.282,12.348,2.936Z" transform="translate(-902.738 -772.609)" fill="#fff"/>
        <path id="Path_25408" data-name="Path 25408" d="M1718.96,1256.005l8.878,5.546,9.377-5.655-5.077-2.906-13.178,3.015Z" transform="translate(-923.006 -772.528)" fill="#fff"/>
        <path id="Path_25409" data-name="Path 25409" d="M1709.774,1252.967l3.727,2.135-7.909,4.77-6.965-4.355Zm-21.571,6.2-9.392-3.668,5.6-2.471,10.277,2.442-6.505,3.687Zm28.225-4.1L1710,1251.39l-13.292,3.045-12.422-2.965-9.327,4.107,13.346,5.22,8.4-4.745,8.9,5.551,10.85-6.54Z" transform="translate(-900.755 -771.719)" fill="#0e2549"/>
        <path id="Path_25410" data-name="Path 25410" d="M639.593,779.629c-4.6,16.737-12.506,22-16.638,20.464a4.234,4.234,0,0,1-2.59-3.49c-1.28-7.37,4.132-17.336,8.151-22.689C630.384,771.419,640.784,775.279,639.593,779.629Z" transform="translate(-367.358 -529.865)" fill="#e2474b"/>
        <path id="Path_25411" data-name="Path 25411" d="M642.438,782.437c-4.607,16.732-12.506,22-16.638,20.464,12.882-7.173,14.963-24.221,14.963-24.221a6.022,6.022,0,0,1,1.483,1.72,2.406,2.406,0,0,1,.173,2.041Z" transform="translate(-370.203 -532.673)" fill="#0e2549"/>
        <path id="Path_25412" data-name="Path 25412" d="M631.248,809.146a.676.676,0,0,1-.307-.069l-6.209-2.852a.737.737,0,0,1-.366-.989.746.746,0,0,1,.989-.366l6.208,2.862a.742.742,0,0,1-.312,1.414Z" transform="translate(-369.443 -545.883)" fill="#0e2549"/>
        <path id="Path_25413" data-name="Path 25413" d="M634.327,800.134a.784.784,0,0,1-.311-.064l-6.2-2.857a.741.741,0,1,1,.618-1.344l6.208,2.852a.741.741,0,0,1-.311,1.414Z" transform="translate(-370.98 -541.32)" fill="#0e2549"/>
        <path id="Path_25414" data-name="Path 25414" d="M654.817,658.043s-9.787,57.424-10.751,60.409-4.75,6.787-6.2,7.029c-2.605.425-4.449-1.527-1.938-8.952l-.964-59.979,19.851,1.483Z" transform="translate(-374.723 -470.913)" fill="#fff"/>
        <path id="Path_25415" data-name="Path 25415" d="M634.95,656.552l.949,59.282-.04.124c-1.73,5.156-1.127,6.92-.613,7.548a1.75,1.75,0,0,0,1.73.435c1.1-.178,4.7-3.7,5.61-6.52.741-2.289,7.167-39.451,10.588-59.5Zm1.483,68.921a2.936,2.936,0,0,1-2.333-.989c-1.275-1.483-1.181-4.4.3-8.858l-.989-60.656,21.468,1.611-.138.806c-.376,2.328-9.767,57.493-10.756,60.494-1.018,3.139-4.973,7.227-6.787,7.523a4.813,4.813,0,0,1-.766.069Z" transform="translate(-373.951 -470.114)" fill="#0e2549"/>
        <path id="Path_25416" data-name="Path 25416" d="M602.041,765.823c-10.623,13.722-19.94,15.576-23.173,12.58a4.212,4.212,0,0,1-1.068-4.211c1.626-7.3,10.425-14.454,16.179-17.874C596.658,754.725,604.8,762.249,602.041,765.823Z" transform="translate(-345.852 -521.254)" fill="#e2474b"/>
        <path id="Path_25417" data-name="Path 25417" d="M603.293,771.552c-10.628,13.712-19.94,15.576-23.173,12.58,14.641-1.725,23.059-16.7,23.059-16.7a6.044,6.044,0,0,1,.737,2.17C603.916,771.083,603.293,771.552,603.293,771.552Z" transform="translate(-347.103 -526.984)" fill="#0e2549"/>
        <path id="Path_25418" data-name="Path 25418" d="M592.035,786.4a.741.741,0,0,1-.544-.237l-4.651-5.007a.742.742,0,1,1,1.088-.989l4.651,5a.747.747,0,0,1-.544,1.251Z" transform="translate(-350.368 -533.261)" fill="#0e2549"/>
        <path id="Path_25419" data-name="Path 25419" d="M598.481,779.451a.741.741,0,0,1-.544-.237l-4.651-5a.741.741,0,0,1,1.087-.989l4.637,4.963a.742.742,0,0,1-.039,1.048.731.731,0,0,1-.494.2Z" transform="translate(-353.695 -529.825)" fill="#0e2549"/>
        <path id="Path_25420" data-name="Path 25420" d="M652.715,655.771S613.052,705.1,611.02,707.491s-6.535,4.553-7.963,4.221c-2.566-.6-2.842-2.209,2.289-8.126l29.836-54.646,17.528,6.831Z" transform="translate(-357.796 -467.064)" fill="#fff"/>
        <path id="Path_25421" data-name="Path 25421" d="M634.769,648.914,605.21,703.06l-.054.059c-3.544,4.093-4.058,5.66-3.865,6.253.034.1.133.42,1.186.667s5.23-1.621,7.232-3.979c1.859-2.19,35.936-44.572,41.028-50.914l-15.981-6.233Zm-32.13,62.619a2.041,2.041,0,0,1-.494-.049,2.807,2.807,0,0,1-2.264-1.651c-.495-1.483.712-3.7,4.108-7.622l30.1-55.15,19.08,7.439-.633.786c-1.621,2.017-39.688,49.362-41.7,51.734-1.9,2.244-6.134,4.513-8.215,4.513Z" transform="translate(-357.043 -466.114)" fill="#0e2549"/>
        <path id="Path_25422" data-name="Path 25422" d="M721.349,538.18c-1.7,5.932,8.581,31.745-12.723,43.054-26.352,13.989-39.386,21.255-39.386,21.255l-.569,8-42.97-9.135s2.966-11.181,8.472-16.772c1.557-1.582,21.181-19.836,29.817-23.114,11.033-4.182,22.4-21.255,22.4-21.255l34.958-2.046Z" transform="translate(-370.153 -411.049)" fill="#0e2549"/>
        <path id="Path_25423" data-name="Path 25423" d="M725.2,348.018c1.977-1.8,8.522-2.778,12.664-1.977,4.31.816,18.131,52.006,18.131,52.006l-29.708,4.548-5-31.013s-.717-19.372,3.915-23.544Z" transform="translate(-418.471 -313.747)" fill="#0e2549"/>
        <path id="Path_25424" data-name="Path 25424" d="M739.74,398.322s4.711,12.931,4.113,14.572-3,7.864-3,7.864l15.491,21.962L776.185,435l-5.8-17.325S755.835,407.4,754.831,406c-1.379-1.938-3.178-8.838-3.178-8.838l-11.9,1.162Z" transform="translate(-427.822 -339.741)" fill="#fff"/>
        <path id="Path_25425" data-name="Path 25425" d="M755.322,442.854l-16.055-22.763.144-.371c0-.059,2.412-6.233,3.005-7.85.257-1.023-1.888-7.958-4.113-14.068a.741.741,0,0,1,1.394-.494c1.443,3.954,4.735,13.376,4.108,15.086-.494,1.4-2.343,6.139-2.867,7.508l14.928,21.161,18.636-7.252-5.492-16.426c-2.847-2.012-14.538-10.321-15.531-11.715-1.448-2.022-3.223-8.794-3.3-9.08a.741.741,0,1,1,1.433-.376c.494,1.883,1.977,7.1,3.07,8.6.672.944,9.787,7.558,15.378,11.5l.2.143,6.1,18.225-21.038,8.186Z" transform="translate(-427.082 -338.971)" fill="#0e2549"/>
        <path id="Path_25426" data-name="Path 25426" d="M705.837,489.33l-13.7,41.215,8.527,3.727,14.676-37.464-9.505-7.479Z" transform="translate(-403.751 -386.351)" fill="#fff"/>
        <path id="Path_25427" data-name="Path 25427" d="M692.124,528.876l7.2,3.144,14.2-36.208-8.245-6.51ZM700.141,534l-9.852-4.305,14.241-42.861,10.771,8.487-15.16,38.694Z" transform="translate(-402.815 -385.087)" fill="#0e2549"/>
        <path id="Path_25428" data-name="Path 25428" d="M741.8,415.035c-2.773.549-8.235,12.244-13.717,13.144-1.656.272-1.172-3.03-2.437-4.38-5.7-6.08-8.764,12.244-11.33,16.273-6.219,9.787-9.516,12.748-9.644,16.357-.089,2.615,7.316,2.635,8.947,4.681,10.529,13.233,10.38-.677,10.38-.677-.539,3.786-2.412,12.466,1.29,17.533.494.643,37.073,0,37.167-.781,4.414-48.492-8.013-64.66-20.662-62.149Z" transform="translate(-410.086 -348.655)" fill="#3f9ef7"/>
        <path id="Path_25429" data-name="Path 25429" d="M625.8,539.75l21.893,29.05h37.716l-19.243-29.05Z" transform="translate(-370.203 -411.848)" fill="#d2ebfc"/>
        <path id="Path_25430" data-name="Path 25430" d="M646.547,567.291h35.966l-18.289-27.568H625.771l20.761,27.568Zm38.724,1.483H645.805L622.8,538.25h42.249l20.222,30.523Z" transform="translate(-368.686 -411.089)" fill="#0e2549"/>
        <path id="Path_25431" data-name="Path 25431" d="M756.385,504.822s-20.88,25.21-22.348,27.38c-1.275,1.878-5.1,4.909-9.575,3.065-7.667-3.164-.628-3.376-.094-3.322.855.089,3.608-1.8,3.608-1.8s-3.826-2.022-3.628-3.46,5.867,1.112,5.867,1.112l14.829-26,3.46-31.117,12.056,12.852L756.4,504.787Z" transform="translate(-418.299 -376.92)" fill="#fff"/>
        <path id="Path_25432" data-name="Path 25432" d="M755.648,503.118Zm-34.6,28.176a10.608,10.608,0,0,0,2.966,1.577c4.33,1.785,7.805-1.483,8.68-2.793,1.429-2.106,20.4-25.032,22.244-27.3l4.053-20.706-10.7-11.4L745,500.33l-15.224,26.717-.613-.272a15.585,15.585,0,0,0-4.785-1.483,8.833,8.833,0,0,0,3.193,2.471l1.087.573-1.013.7c-1.112.761-3.124,2.032-4.1,1.923a8.4,8.4,0,0,0-2.516.321Zm5.487,3.569a7.969,7.969,0,0,1-3.085-.623c-3.1-1.275-4.251-2.234-3.954-3.312.415-1.636,4.206-1.433,4.246-1.428a7.789,7.789,0,0,0,2.105-1.023c-1.394-.865-3.129-2.234-2.936-3.584a1.146,1.146,0,0,1,.6-.87c1.117-.618,4,.43,5.685,1.137L743.6,499.875l3.624-32.565,13.415,14.3-4.271,21.829-.124.143c-.208.252-20.875,25.21-22.3,27.325a9.421,9.421,0,0,1-7.385,3.954Z" transform="translate(-417.561 -375.216)" fill="#0e2549"/>
        <path id="Path_25433" data-name="Path 25433" d="M767.088,435.492c-8.186,1.532-1.053,6.92-7,24.547-5.437,16.174-7.3,16.07,15.586,20.647,9.486,1.9,6.92-11.428,8.28-23.845.761-7.049-9.021-22.817-16.861-21.349Z" transform="translate(-436.342 -359.077)" fill="#3f9ef7"/>
        <path id="Path_25434" data-name="Path 25434" d="M776.6,492.409a9.34,9.34,0,0,1-1.849-.2c-12.293-2.471-17.35-3.574-19.06-6.554-1.424-2.472-.277-5.813,1.814-11.863.341-.989.712-2.061,1.1-3.213a48,48,0,0,0,2.58-13.129.742.742,0,1,1,1.483.069,49.219,49.219,0,0,1-2.659,13.534q-.588,1.735-1.107,3.223c-1.883,5.437-3.015,8.715-1.923,10.623,1.379,2.412,6.535,3.534,18.062,5.838a4.741,4.741,0,0,0,4.039-.608c2.471-1.943,2.63-7.415,2.837-13.712.094-2.9.193-5.887.494-8.9a.746.746,0,0,1,1.483.158c-.321,2.936-.415,5.9-.494,8.769-.223,6.683-.41,12.452-3.4,14.829a5.279,5.279,0,0,1-3.4,1.1Z" transform="translate(-435.57 -369.87)" fill="#0e2549"/>
        <path id="Path_25435" data-name="Path 25435" d="M743.976,379.456c1.379-1.735,5.4-9.362,4.74-11.69s-3.2-1.211-3.88-.588c-.455.415-3.861-12.778-3.861-12.778l-18.205,4.409s.87,12.634,3.559,18.784,6.154,6.881,10.875,5.59l6.777-3.732Z" transform="translate(-419.24 -318.118)" fill="#fff"/>
        <path id="Path_25436" data-name="Path 25436" d="M732.985,383.544c-3.658,0-6.119-2.071-8.087-6.564-2.709-6.2-3.579-18.517-3.613-19.036l-.044-.623,19.525-4.731.178.712c1.256,4.849,2.734,10.133,3.391,11.908a3.717,3.717,0,0,1,2.65-.41,2.471,2.471,0,0,1,1.7,1.849c.8,2.818-3.643,10.806-4.879,12.358a.744.744,0,0,1-1.162-.929c1.483-1.839,5.151-9.12,4.612-11.023-.173-.618-.494-.766-.677-.825a2.58,2.58,0,0,0-1.977.583l-.311.282-.435-.114c-.47-.138-.954-.282-4.147-12.6l-16.88,4.083c.213,2.605,1.176,12.728,3.46,17.924,2.571,5.882,5.729,6.342,9.995,5.175a.741.741,0,1,1,.391,1.429,13.972,13.972,0,0,1-3.658.554Z" transform="translate(-418.467 -317.203)" fill="#0e2549"/>
        <path id="Path_25437" data-name="Path 25437" d="M733.318,387.994a.752.752,0,0,1-.732-.608l-.109-.6a.753.753,0,0,1,1.483-.267l.109.6a.741.741,0,0,1-.593.86h-.134Z" transform="translate(-424.143 -334.045)" fill="#0e2549"/>
        <path id="Path_25438" data-name="Path 25438" d="M749.568,383.524a.742.742,0,0,1-.732-.608l-.109-.6a.753.753,0,1,1,1.483-.267l.108.6a.741.741,0,0,1-.593.865h-.133Z" transform="translate(-432.361 -331.785)" fill="#0e2549"/>
        <path id="Path_25439" data-name="Path 25439" d="M746.335,377.429a.741.741,0,0,1-.4-1.369,5.576,5.576,0,0,1,4.019-.618.741.741,0,1,1-.361,1.438,4.113,4.113,0,0,0-2.862.435A.775.775,0,0,1,746.335,377.429Z" transform="translate(-430.779 -328.69)" fill="#0e2549"/>
        <path id="Path_25440" data-name="Path 25440" d="M737.333,398.352c-.213.4,1.666,1.32,2.906.989,3.134-.826,3.51-3.307,2.9-2.768a7.819,7.819,0,0,1-3.2,1.626C737.911,398.579,737.57,397.892,737.333,398.352Z" transform="translate(-426.596 -339.406)" fill="#0e2549"/>
        <path id="Path_25441" data-name="Path 25441" d="M733.6,387.3c-1.379,0-1.607-.42-1.715-.628a1.626,1.626,0,0,1,.1-1.428,9.825,9.825,0,0,0,.662-3.2,4.384,4.384,0,0,0-.114-1.977H732.1a10.054,10.054,0,0,0-3.228.989.742.742,0,0,1-.618-1.349,11.556,11.556,0,0,1,3.925-1.117h.148a1.67,1.67,0,0,1,1.29.494c.494.494.613,1.384.494,3.1a11.151,11.151,0,0,1-.761,3.628v.049a10.39,10.39,0,0,0,1.636-.114.749.749,0,0,1,.213,1.483,11.708,11.708,0,0,1-1.607.133Z" transform="translate(-421.796 -330.347)" fill="#0e2549"/>
        <path id="Path_25442" data-name="Path 25442" d="M751.006,493.083a.737.737,0,0,1-.732-.628c-3.4-21.661-.039-47.528,0-47.79a.748.748,0,0,1,1.483.2c-.035.257-3.371,25.917,0,47.359a.742.742,0,0,1-.618.85h-.114Z" transform="translate(-432.38 -363.436)" fill="#0e2549"/>
        <path id="Path_25443" data-name="Path 25443" d="M741.832,499.234a.742.742,0,0,1-.742-.741V483a.742.742,0,1,1,1.483,0v15.492A.741.741,0,0,1,741.832,499.234Z" transform="translate(-428.505 -382.776)" fill="#0e2549"/>
        <path id="Path_25444" data-name="Path 25444" d="M722,357.375s18.487,2.664,23.163,10.593a4.94,4.94,0,0,1,1.8-.7,2.4,2.4,0,0,1,1.429.213L744.639,354.3Z" transform="translate(-418.851 -318.067)" fill="#0e2549"/>
        <path id="Path_25445" data-name="Path 25445" d="M725.743,346.81s-20.9.771-11.167,35.526c5.966,21.309,11.864,27,11.864,27s-2.664-7.256-5.383-30.326c-.934-7.909-2.966-11.72-2.363-16.4a29.207,29.207,0,0,1,7.059-15.818Z" transform="translate(-413.79 -314.269)" fill="#0e2549"/>
        <path id="Path_25446" data-name="Path 25446" d="M743.38,345.97s31.191-7.909,21.868,58.422l-13.559-43L743.38,345.96Z" transform="translate(-429.663 -313.707)" fill="#0e2549"/>
        <path id="Path_25447" data-name="Path 25447" d="M686.013,567.847a3.332,3.332,0,1,1-3.327-3.327,3.332,3.332,0,0,1,3.327,3.327Z" transform="translate(-397.283 -424.374)" fill="#fff"/>
        <path id="Path_25448" data-name="Path 25448" d="M681.928,564.478a2.59,2.59,0,1,0,2.585,2.585A2.59,2.59,0,0,0,681.928,564.478Zm0,6.658A4.073,4.073,0,1,1,686,567.063,4.073,4.073,0,0,1,681.928,571.136Z" transform="translate(-396.525 -423.6)" fill="#0e2549"/>
        <path id="Path_25449" data-name="Path 25449" d="M659.863,569.8a.731.731,0,0,1-.6-.306l-14.4-19.94a.743.743,0,0,1,1.206-.87l14.395,19.945a.736.736,0,0,1-.6,1.171Z" transform="translate(-379.769 -416.21)" fill="#fff"/>
        <path id="Path_25450" data-name="Path 25450" d="M976.684,1678.25l-.02,8.709H964.6l-1-8.259,13.084-.45Z" transform="translate(-541.026 -987.579)" fill="#fff"/>
        <path id="Path_25451" data-name="Path 25451" d="M964.426,1685.44h10.667v-7.2l-11.508.391.83,6.807Zm12.145,1.483h-13.48l-1.181-9.718,14.661-.495v10.218Z" transform="translate(-540.171 -986.8)" fill="#0e2549"/>
        <path id="Path_25452" data-name="Path 25452" d="M878.441,1678.443l-.326,8.809H866.048l-.568-9,12.961.193Z" transform="translate(-491.408 -987.579)" fill="#fff"/>
        <path id="Path_25453" data-name="Path 25453" d="M865.917,1685.781h10.652l.277-7.335-11.4-.168.494,7.5ZM878,1687.264h-13.45l-.667-10.494,14.523.213-.385,10.281Z" transform="translate(-490.599 -986.83)" fill="#0e2549"/>
        <path id="Path_25454" data-name="Path 25454" d="M878.065,1694s17.7,5.9,18.289,10.761H864.62V1694Z" transform="translate(-490.973 -995.543)" fill="#e2474b"/>
        <path id="Path_25455" data-name="Path 25455" d="M897.183,1711.926v2.62H863.97v-3l33.213.376Z" transform="translate(-490.644 -1004.418)" fill="#0e2549"/>
        <path id="Path_25456" data-name="Path 25456" d="M894,1700.179a.741.741,0,0,1-.212-1.448l6.025-1.8a.741.741,0,1,1,.425,1.418l-6.026,1.8a.805.805,0,0,1-.212.03Z" transform="translate(-505.462 -997.001)" fill="#0e2549"/>
        <path id="Path_25457" data-name="Path 25457" d="M900.076,1703.829a.742.742,0,0,1-.213-1.454l6.026-1.8a.741.741,0,1,1,.425,1.419l-6.026,1.8A.782.782,0,0,1,900.076,1703.829Z" transform="translate(-508.525 -998.847)" fill="#0e2549"/>
        <path id="Path_25458" data-name="Path 25458" d="M908.526,1707.486a.742.742,0,0,1-.213-1.453l6.026-1.8a.743.743,0,0,1,.425,1.424l-6.026,1.8A.772.772,0,0,1,908.526,1707.486Z" transform="translate(-512.798 -1000.7)" fill="#0e2549"/>
        <path id="Path_25459" data-name="Path 25459" d="M878.48,1523.9H859.286L857.65,1370.03l55.338,9.555L926.156,1523.9H907.674l-19.342-95.881,2.21-21.023L878.48,1523.9Z" transform="translate(-487.448 -831.714)" fill="#0e2549"/>
        <path id="Path_25460" data-name="Path 25460" d="M890.865,1199.345s-1.359,14.261-.218,15.818,10.232,4.063,10.232,4.063l-13.564,32.9-23.578-2.279-1.527-24.132s10.771-8.754,11.428-10.568c.9-2.472.9-15.818.9-15.818Z" transform="translate(-489.754 -745.392)" fill="#fff"/>
        <path id="Path_25461" data-name="Path 25461" d="M887.047,1252.156l-24.755-2.392L860.7,1224.6l.3-.242c5.21-4.246,10.821-9.239,11.181-10.242.7-1.942.855-11.863.855-15.551a.741.741,0,0,1,.741-.741h0a.741.741,0,0,1,.736.741c0,1.374-.029,13.515-.944,16.055-.652,1.809-9,8.725-11.369,10.648l1.483,23.124,22.4,2.165,13.02-31.6c-2.536-.727-8.744-2.619-9.827-4.117-1.211-1.676-.247-12.931.079-16.342a.745.745,0,0,1,1.483.138c-.628,6.638-.944,14.394-.351,15.324.618.85,5.482,2.59,9.827,3.776l.806.222Z" transform="translate(-488.99 -744.631)" fill="#0e2549"/>
        <path id="Path_25462" data-name="Path 25462" d="M1067.093,1239.066l-2.244.218-6.92,10.381-5.788-8.373s8.221-5.186,8.5-7.311,2.654-4.672,4.162-4.944c3.386-.628,6.693,2.5,7.093,4.577s-4.785,5.482-4.785,5.482Z" transform="translate(-585.8 -760.373)" fill="#fff"/>
        <path id="Path_25463" data-name="Path 25463" d="M1066.005,1238.3Zm-13.92,2.412,4.731,6.846,6.524-9.743,2.407-.232c2.249-1.542,4.484-3.727,4.31-4.621-.316-1.661-3.233-4.548-6.228-3.989-1.132.208-3.317,2.422-3.564,4.315-.267,2.086-5.694,5.818-8.181,7.415Zm4.75,9.481-6.846-9.886.653-.41c3.811-2.4,8.013-5.68,8.156-6.777.321-2.472,2.966-5.25,4.76-5.586,3.717-.687,7.469,2.63,7.958,5.165.444,2.318-3.791,5.358-5.1,6.238l-.158.1-2.081.2-7.345,10.969Z" transform="translate(-584.713 -759.61)" fill="#0e2549"/>
        <path id="Path_25464" data-name="Path 25464" d="M1107.8,1390.817l-8.319-29.88h47.992l8.329,29.88Zm-17.073-61.24h47.992l8.329,29.876h-47.992Zm-8.744-31.359h47.992l8.329,29.876h-47.992Zm-8.744-31.359h47.992l8.329,29.876h-47.992Zm-8.745-31.363h47.992l8.329,29.881h-47.992Zm-8.744-31.359h47.992l8.329,29.876h-47.992Zm-8.744-31.349H1095l8.329,29.876H1055.34Zm-8.744-31.364h47.992l8.329,29.881H1046.59l-8.334-29.881Zm126.375,249.4h-7.321l-8.334-29.881h6a.741.741,0,1,0,0-1.483h-6.426l-8.334-29.876h5.724a.741.741,0,1,0,0-1.483h-6.135l-8.334-29.876h5.438a.742.742,0,0,0,0-1.483h-5.794l-8.334-29.876h4.874a.741.741,0,0,0,0-1.483h-5.284l-8.334-29.881h6.426a.741.741,0,1,0,0-1.483h-6.816l-8.329-29.876h5.813a.741.741,0,1,0,0-1.483H1104.9l-8.364-29.876h7.607a.742.742,0,0,0,0-1.483h-8.023l-8.329-29.881h8.062a.742.742,0,0,0,0-1.483h-8.478l-7.35-26.361a.742.742,0,1,0-1.429.4l7.242,25.961h-47.992l-7.35-26.361-.717-2.581-83.276,298.69a.741.741,0,0,0,1.428.4l81.847-293.555,6.525,23.4h-4.019a.742.742,0,1,0,0,1.483h4.448l8.329,29.881h-4.449a.742.742,0,0,0,0,1.483h4.884l8.329,29.876h-6.262a.741.741,0,1,0,0,1.482h6.678l8.329,29.876H1056.9a.742.742,0,1,0,0,1.483h6.09l8.329,29.88h-7.212a.742.742,0,0,0,0,1.483h7.622l8.334,29.876h-6.629a.741.741,0,0,0,0,1.483h7.039l8.334,29.876h-6.357a.742.742,0,0,0,0,1.483h6.767l8.334,29.876h-6.085a.742.742,0,0,0,0,1.483h6.5l8.329,29.881h-5.185a.742.742,0,1,0,0,1.483h5.6l4.943,17.795a.741.741,0,0,0,.717.544.693.693,0,0,0,.2-.029.736.736,0,0,0,.494-.91l-4.844-17.39h47.992l4.943,17.8a.736.736,0,0,0,.712.544.719.719,0,0,0,.2-.029.737.737,0,0,0,.494-.91l-4.849-17.39h6.891a.741.741,0,1,0,0-1.483Z" transform="translate(-532.372 -700.725)" fill="#0e2549"/>
        <path id="Path_25465" data-name="Path 25465" d="M976.278,1694s17.978,5.739,18.6,10.469H962.64V1694Z" transform="translate(-540.541 -995.543)" fill="#e2474b"/>
        <path id="Path_25466" data-name="Path 25466" d="M962.64,1711.163v2.793h33.212v-3l-33.212.2Z" transform="translate(-540.541 -1004.12)" fill="#0e2549"/>
        <path id="Path_25467" data-name="Path 25467" d="M991.253,1698.348a.741.741,0,0,1-.213-1.448l6.025-1.8a.742.742,0,1,1,.425,1.419l-6.026,1.8A.767.767,0,0,1,991.253,1698.348Z" transform="translate(-554.641 -996.076)" fill="#0e2549"/>
        <path id="Path_25468" data-name="Path 25468" d="M997.341,1702a.741.741,0,0,1-.207-1.453l6.026-1.8a.742.742,0,1,1,.425,1.419l-6.026,1.8A.834.834,0,0,1,997.341,1702Z" transform="translate(-557.714 -997.922)" fill="#0e2549"/>
        <path id="Path_25469" data-name="Path 25469" d="M1005.786,1705.636a.741.741,0,0,1-.213-1.453l6.03-1.8a.742.742,0,1,1,.42,1.423l-6.016,1.834a.762.762,0,0,1-.212.03Z" transform="translate(-561.982 -999.765)" fill="#0e2549"/>
        <path id="Path_25470" data-name="Path 25470" d="M1070.9,1235.267c-1.517-4.888,2.388-6.134,3.337-6.362a.129.129,0,0,1,.158.153c-.232,1.058-1.344,6.07-1.74,7.162C1072.206,1237.437,1071.167,1236.058,1070.9,1235.267Z" transform="translate(-595.11 -760.346)" fill="#fff"/>
        <path id="Path_25471" data-name="Path 25471" d="M1073.668,1228.856Zm-2.8,5.438a2.369,2.369,0,0,0,.411.727c.291-.935.89-3.461,1.408-5.8a3.784,3.784,0,0,0-1.71,1.483,4.439,4.439,0,0,0-.109,3.578Zm.544,2.4h0c-.989,0-1.754-1.354-1.942-1.977h0a5.873,5.873,0,0,1,.237-4.755,5.714,5.714,0,0,1,3.633-2.545.849.849,0,0,1,.811.222.864.864,0,0,1,.242.811c-.311,1.418-1.359,6.144-1.765,7.256a1.271,1.271,0,0,1-1.2.989Z" transform="translate(-594.372 -759.581)" fill="#0e2549"/>
        <path id="Path_25472" data-name="Path 25472" d="M1081.9,1235.691s-4.834-1.725-6.99-1.058-1.868,5.21,1.705,7.548S1083.439,1236.744,1081.9,1235.691Z" transform="translate(-596.625 -763.167)" fill="#fff"/>
        <path id="Path_25473" data-name="Path 25473" d="M1075.378,1234.512a3.449,3.449,0,0,0-.989.124c-.578.178-.751.841-.805,1.221a5.563,5.563,0,0,0,2.7,5c.885.578,1.809.341,2.758-.7,1.443-1.6,1.977-4.019,1.715-4.533a20.019,20.019,0,0,0-5.359-1.117Zm1.829,8.137a3.174,3.174,0,0,1-1.755-.549,6.992,6.992,0,0,1-3.356-6.426,2.768,2.768,0,0,1,1.839-2.432c2.318-.717,6.92.885,7.454,1.068l.168.084c1.429.959.495,4.024-.726,5.867a4.587,4.587,0,0,1-3.623,2.413Z" transform="translate(-595.869 -762.449)" fill="#0e2549"/>
        <path id="Path_25474" data-name="Path 25474" d="M877.93,1231.263c7.128,2.6,16.075,22.368,22,23.495,7.672,1.453,32-18.058,32-18.058l6.95,10.845s-25.665,28.976-36.732,31.557c-4.449,1.033-13.771-5.611-13.771-5.611,1.162,4.473,1.018,39.6,1.018,39.6l-52.471-.7-6.53-41.749-7.044,11.053-12.417-12.609c-4.345-1.632,10.593-35.833,30.153-38.783,1.878-.282,9.822-2.19,14.478,1.246,2.15,1.586,7.766,1.977,9.085-2.654,0,0,11.72,1.8,13.267,2.363Z" transform="translate(-463.442 -760.346)" fill="#a1c5e2"/>
        <path id="Path_25475" data-name="Path 25475" d="M819.892,1333.62c-.069,2.392,16.07,25.566,17.528,25.748s11.369-1.251,10.657,1.231c-.42,1.443-4.315,1.517-4.943,2.7-.786,1.528,1.725,2.788,1.137,2.862,0,0-5.333,3.708-6.228,4.316-1.231.835-5.556-2.57-6.92-6.258-.87-2.383-31.636-25.131-28.828-37.32s17.731,1.018,17.563,6.717Z" transform="translate(-459.364 -807.375)" fill="#fff"/>
        <path id="Path_25476" data-name="Path 25476" d="M806.62,1321.888c-2.17,0-3.608,1.483-4.281,4.449-2.007,8.739,15.15,24.137,23.4,31.542,3.865,3.46,5.141,4.652,5.4,5.359a11.658,11.658,0,0,0,3.139,4.389c1.483,1.34,2.471,1.567,2.669,1.483.692-.494,4.2-2.906,5.616-3.89a2.589,2.589,0,0,1-.786-3.005c.43-.831,1.552-1.182,2.743-1.552.756-.232,2.017-.628,2.131-1.018-.494-.8-5.769-.495-7.494-.361a19.844,19.844,0,0,1-2.546.074c-1.221-.153-6.031-6.807-9.857-12.358-2.516-3.663-8.369-12.358-8.319-14.147h0c.1-3.416-6.322-10.286-11.147-10.91a5.238,5.238,0,0,0-.667-.045Zm30.257,48.709a2.718,2.718,0,0,1-.84-.148c-2.056-.663-5.146-3.589-6.293-6.723a50.1,50.1,0,0,0-4.992-4.765c-9.11-8.171-26.06-23.386-23.86-32.975,1.236-5.383,4.661-5.769,6.589-5.521,5.625.721,12.55,8.314,12.437,12.412.143,2.071,14.671,23.46,16.974,25.012.376,0,1.251-.035,2.175-.094,4.335-.267,7.731-.371,8.759.915a1.443,1.443,0,0,1,.247,1.344c-.336,1.152-1.745,1.592-3.109,2.021-.648.2-1.725.534-1.868.811-.222.43.114.885.761,1.532.336.331.682.677.494,1.186a.8.8,0,0,1-.46.494c-.747.494-5.309,3.688-6.144,4.251a1.526,1.526,0,0,1-.885.257Z" transform="translate(-458.647 -806.621)" fill="#0e2549"/>
        <path id="Path_25477" data-name="Path 25477" d="M884.855,1403.724a.746.746,0,0,0-1.033-.188l-11.621,8.072a.743.743,0,0,0,.845,1.221l1.636-1.137-2.8,125.965a.742.742,0,0,0,.727.756h0a.741.741,0,0,0,.741-.722l2.827-127.037,8.477-5.872a.747.747,0,0,0,.188-1.033Z" transform="translate(-494.644 -848.592)" fill="#a1c5e2"/>
        <path id="Path_25478" data-name="Path 25478" d="M893.491,1141.888c2.966.346,10.118,1.107,10.054,6.387a136.408,136.408,0,0,1-1.834,17.824,3.287,3.287,0,0,1-3.277,2.763l-18.186-.222a3.282,3.282,0,0,1-3.223-2.966c-.569-5.591-1.676-17.429-.989-19.2,2.323-6.035,12.788-5.156,17.454-4.6Z" transform="translate(-496.636 -716.135)" fill="#0e2549"/>
        <path id="Path_25479" data-name="Path 25479" d="M811.2,1256s-23.074,23.623-23.885,31.858c-1.29,13.2,32.545,41.873,32.545,41.873l10.01-8.309-17.948-27.36Z" transform="translate(-451.861 -774.05)" fill="#a1c5e2"/>
        <path id="Path_25480" data-name="Path 25480" d="M883.057,1177.694c-.989-1.033-1.315-5.076-1.369-9.683a.394.394,0,0,0-.183-.321,5.36,5.36,0,0,1-2.818-4.553c.069-1.977,1.483-1.543,2.61-.895a.3.3,0,0,0,.45-.267c.158-5.551.494-10.415.494-10.415l21.611.262s-.1,4.943-.376,10.5c0,.252-1.082,13.485-1.616,14.676a3.657,3.657,0,0,1-1.572,1.616s-1.4,1.117-9.253,1.023l-8-1.943Z" transform="translate(-498.085 -721.235)" fill="#fff"/>
        <path id="Path_25481" data-name="Path 25481" d="M880.873,1160.8Zm10.331,18.784h-.949a.742.742,0,1,1,0-1.483h0c7.217.089,8.754-.845,8.818-.885l.049-.034a2.964,2.964,0,0,0,1.27-1.28c.45-1.092,1.483-13.465,1.552-14.414.208-4.222.321-8.136.361-9.728l-20.163-.242c-.1,1.538-.351,5.438-.494,9.684a1.064,1.064,0,0,1-.543.9,1.034,1.034,0,0,1-1.023,0c-.83-.494-1.226-.494-1.31-.426s-.168.2-.183.7c-.074,2.11,1.7,3.43,2.472,3.9a1.127,1.127,0,0,1,.539.949c.084,7.251.845,8.833,1.167,9.179a.742.742,0,1,1-1.078.989c-.628-.662-1.483-2.422-1.572-9.985a6.021,6.021,0,0,1-3-5.1,2.175,2.175,0,0,1,.949-1.977,2.218,2.218,0,0,1,2.13.113c.163-5.224.494-9.723.494-9.767l.049-.7,23.055.282V1151c0,.049-.1,5.027-.376,10.524,0,.123-1.068,13.573-1.681,14.938a4.343,4.343,0,0,1-1.844,1.938c-.4.271-2.2,1.146-8.719,1.146Z" transform="translate(-497.291 -720.432)" fill="#0e2549"/>
        <path id="Path_25482" data-name="Path 25482" d="M899.98,1176.257h-.044a.742.742,0,0,1-.7-.786l.03-.445a.743.743,0,0,1,1.483.089l-.03.45a.736.736,0,0,1-.736.692Z" transform="translate(-508.478 -732.749)" fill="#0e2549"/>
        <path id="Path_25483" data-name="Path 25483" d="M920.137,1176.477h0a.742.742,0,0,1-.727-.756v-.524a.742.742,0,1,1,1.483.03v.529a.742.742,0,0,1-.741.722Z" transform="translate(-518.68 -732.821)" fill="#0e2549"/>
        <path id="Path_25484" data-name="Path 25484" d="M899.543,1169.585a.778.778,0,0,1-.312-.064h0a4.449,4.449,0,0,0-3.164-.084.742.742,0,1,1-.534-1.384,5.932,5.932,0,0,1,4.325.124.742.742,0,0,1-.316,1.414Z" transform="translate(-506.366 -729.399)" fill="#0e2549"/>
        <path id="Path_25485" data-name="Path 25485" d="M905.1,1191.874c-.346.495,1.374,2.249,3.4,2.185,3.307-.1,4.36-2.358,3.559-2.209a10,10,0,0,1-3.5.751c-2.135.029-3.223-1.063-3.46-.727Z" transform="translate(-511.423 -741.59)" fill="#0e2549"/>
        <path id="Path_25486" data-name="Path 25486" d="M884.468,1144.5s-10.054-2.625-7.192,10.844c1.636,7.7-1.9-2.244,6.826-7.775C885.011,1146.995,884.468,1144.5,884.468,1144.5Z" transform="translate(-497.113 -717.56)" fill="#0e2549"/>
        <path id="Path_25487" data-name="Path 25487" d="M911.614,1178.237a.746.746,0,0,1-.148-1.483,2.964,2.964,0,0,0,1.236-.495c.059-.311.03-.42-.736-2.471-.183-.495-.405-1.083-.672-1.8v-.054a7.074,7.074,0,0,1-.247-2.817,1.691,1.691,0,0,1,1.117-1.127,6.755,6.755,0,0,1,5.437.286.741.741,0,0,1-.776,1.261,5.1,5.1,0,0,0-4.365-.044,6.054,6.054,0,0,0,.228,2.007c.262.707.494,1.29.662,1.769.86,2.294.949,2.531.8,3.317-.213,1.078-1.74,1.483-2.387,1.631h-.148Z" transform="translate(-514.344 -729.321)" fill="#0e2549"/>
        <path id="Path_25488" data-name="Path 25488" d="M942.929,1539.917,923.251,1428.07a.739.739,0,0,0-.188-.376l1.043-6.154v-12.7a.742.742,0,0,0-1.483,0v12.511l-4.414,26.075a.742.742,0,0,0,.6.855h.128a.742.742,0,0,0,.727-.618l2.709-15.967,19.085,108.466a.741.741,0,0,0,.732.613.611.611,0,0,0,.129,0,.737.737,0,0,0,.6-.86Z" transform="translate(-518.067 -850.966)" fill="#a1c5e2"/>
        <path id="Path_25489" data-name="Path 25489" d="M906.7,1237.064l-4.869-3.114-5.032,2.783,5.106,4.889-2.264,46.405,8.161,13.05,5.724-13.514-8.062-46.584,1.236-3.915Z" transform="translate(-507.246 -762.9)" fill="#e2474b"/>
        <path id="Path_25490" data-name="Path 25490" d="M887.108,1229.448l-8.463,5.24-11.255-7.073,5.6-2.724,14.123,4.558Z" transform="translate(-492.374 -758.318)" fill="#fff"/>
        <path id="Path_25491" data-name="Path 25491" d="M907.13,1230.606l6.614,4.469,7.083-4.281-3.742-3.124-9.955,2.936Z" transform="translate(-512.47 -759.724)" fill="#fff"/>
        <path id="Path_25492" data-name="Path 25492" d="M895.258,1226.265l2.635,2.2-5.788,3.5-4.919-3.322Zm-18.171,6.723-9.738-6.115,4.128-2.012,12.313,3.954-6.7,4.152Zm23.351-4.33-4.839-4.039-10.475,3.09-13.757-4.449-7.069,3.46,12.783,8.033,8.6-5.324,6.382,4.31,8.379-5.067Z" transform="translate(-490.811 -757.494)" fill="#0e2549"/>
        <path id="Path_25493" data-name="Path 25493" d="M934.84,1267.629l.02,4.31,9.328-.029-.02-4.32-9.328.039Z" transform="translate(-526.483 -779.911)" fill="#fff"/>
        <path id="Path_25494" data-name="Path 25494" d="M934.833,1267.608v2.822l7.845-.025v-2.833Zm-1.483,4.31v-5.788l10.81-.049v5.808l-10.81.03Z" transform="translate(-525.729 -779.147)" fill="#0e2549"/>
        <path id="Path_25495" data-name="Path 25495" d="M1054.455,1262.557a.736.736,0,0,1-.643-.376l-5.1-8.9a.742.742,0,1,1,1.285-.736l5.1,8.9a.742.742,0,0,1-.272.989.769.769,0,0,1-.371.1Z" transform="translate(-584.008 -772.1)" fill="#0e2549"/>
        <path id="Path_25496" data-name="Path 25496" d="M846.671,1389.43a.722.722,0,0,1-.578-.281.732.732,0,0,1,.119-1.038l8.7-6.9a.741.741,0,0,1,1.043.119.752.752,0,0,1-.119,1.043l-8.7,6.92a.726.726,0,0,1-.46.158Z" transform="translate(-481.521 -837.288)" fill="#0e2549"/>
        <path id="Path_25497" data-name="Path 25497" d="M852.165,1361.821a.757.757,0,0,1-.544-.232.746.746,0,0,1,.034-1.048l1.839-1.715L835.7,1330.9a.742.742,0,1,1,1.251-.8l18.457,28.967-2.739,2.556a.734.734,0,0,1-.494.2Z" transform="translate(-476.284 -811.34)" fill="#0e2549"/>
        <path id="Path_25498" data-name="Path 25498" d="M851.175,1299.963a.746.746,0,0,1-.583-1.2l9.085-11.6a.741.741,0,1,1,1.166.915l-9.085,11.6A.738.738,0,0,1,851.175,1299.963Z" transform="translate(-483.801 -789.655)" fill="#0e2549"/>
        <path id="Path_25499" data-name="Path 25499" d="M904.5,1136.454c-1.221-1.977-3.9-1.226-4.9-4.2s-2.674-.815-6.129-1.7-1.671-2.007-5.012-2.472-3.678,3.46-7.242,3.005-3.955,5.2-3.955,5.2l-.193.158c-1.364.05-3.589.3-4.419,1.354-2.051,2.62,2.022,3.045.4,7.785-.786,2.3,4.271,4.37,3.826,2.4s.8-3.025,1.577-4.449a9.5,9.5,0,0,0,.781-2.308c.539,0,.885-.292,1.532-.657.781-.445,3.07.86,4.518,1.305s4.118-.3,6.243-.188,2.714.524,3.717,2.966,6.717,2.6,8.052.924-1.27-3.252.4-4.034,2.017-3.129.791-5.136Z" transform="translate(-494.737 -709.343)" fill="#0e2549"/>
        <path id="Path_25500" data-name="Path 25500" d="M1271.492,1324.249c.721,6.866.43,18.235.43,18.235h-4.859v-8.423l-2.427,8.438h-14.7v-5.2l8.5-4.108s12.585-13.386,13.055-8.9Z" transform="translate(-685.826 -808.117)" fill="#e2474b"/>
        <path id="Path_25501" data-name="Path 25501" d="M1269.563,1192.37l.692,65.169s-3.954,9.649-3.643,9.98c2.595,2.966,12.462-9.659,12.462-9.659l8.2-65.491Z" transform="translate(-694.248 -741.873)" fill="#fff"/>
        <path id="Path_25502" data-name="Path 25502" d="M1266.663,1266.435a.788.788,0,0,0,.287.039c2.293-.064,7.706-5.9,10.682-9.669l8.067-64.453h-16.12l.682,64.566-.054.139c-1.567,3.846-3.213,8.131-3.545,9.392Zm.257,1.522a2.054,2.054,0,0,1-1.6-.707c-.351-.405-.588-.677,3.461-10.613l-.7-65.768h19.278l-8.329,66.529-.128.158c-.82,1.053-8.146,10.3-11.932,10.38Z" transform="translate(-693.513 -741.114)" fill="#0e2549"/>
        <path id="Path_25503" data-name="Path 25503" d="M1271.593,1348.316l-.46-13.376a17.437,17.437,0,0,0-8.309,8.161H1248.4v5.214h15.457l.668-2.313,1.735-5.872v8.185Z" transform="translate(-685.048 -813.969)" fill="#0e2549"/>
        <path id="Path_25504" data-name="Path 25504" d="M1217.437,1324.249c.721,6.866.43,18.235.43,18.235h-4.859v-8.423l-2.427,8.438h-14.7v-5.2l8.5-4.108s12.58-13.386,13.055-8.9Z" transform="translate(-658.488 -808.117)" fill="#e2474b"/>
        <path id="Path_25505" data-name="Path 25505" d="M1220.145,1192.37l-3.89,65.169s-3.954,9.649-3.643,9.98c2.595,2.966,12.462-9.659,12.462-9.659l11.611-64.932-16.514-.558Z" transform="translate(-666.941 -741.873)" fill="#fff"/>
        <path id="Path_25506" data-name="Path 25506" d="M1212.605,1266.435a.8.8,0,0,0,.292.039c2.3-.064,7.721-5.932,10.692-9.684l11.428-63.909-14.938-.494-3.88,64.567-.05.114c-1.562,3.846-3.208,8.136-3.544,9.392ZM1212.551,1266.712Zm.311,1.246a2.047,2.047,0,0,1-1.6-.707c-.356-.405-.593-.677,3.46-10.637l3.954-65.743,18.092.613-11.794,65.955-.114.144c-.821,1.052-8.151,10.3-11.933,10.38Z" transform="translate(-666.178 -741.115)" fill="#0e2549"/>
        <path id="Path_25507" data-name="Path 25507" d="M1217.533,1348.316l-.455-13.376a17.408,17.408,0,0,0-8.309,8.161H1194.34v5.214H1209.8l.662-2.313,1.74-5.872v8.185Z" transform="translate(-657.71 -813.969)" fill="#0e2549"/>
        <path id="Path_25508" data-name="Path 25508" d="M1241.642,816.472a17.933,17.933,0,0,0-14.69,2.1c-7.281,4.706-7.3,6.031-7.593,11.117s-.351,8.19-4.557,9.011.054,11.641.054,11.641l36.96,5.1s3.371-5.057,2.877-7.805c-.9-5.017-3.04-5.714-.726-10.079C1255.2,835.221,1258.118,820.446,1241.642,816.472Z" transform="translate(-667.119 -551.419)" fill="#0e2549"/>
        <path id="Path_25509" data-name="Path 25509" d="M1257.415,996.132c0,6.144,9.614,17.607,9.2,30.311s-5.047,89.386-5.047,89.386h-45.847s-1.607-81.106.865-93.676,9.446-24.513,10.267-25.328,30.568-6.841,30.568-.692Z" transform="translate(-668.264 -641.254)" fill="#0e2549"/>
        <path id="Path_25510" data-name="Path 25510" d="M1283.293,1028.059l-9.56-9.125A.741.741,0,0,0,1272.7,1020l4.523,4.315.989,99.168a.746.746,0,0,0,.742.736h0a.741.741,0,0,0,.731-.751l-.988-97.724,3.544,3.386a.729.729,0,0,0,.988-1.073Z" transform="translate(-697.232 -654.071)" fill="#a1c5e2"/>
        <path id="Path_25511" data-name="Path 25511" d="M1225.136,1028.481a.742.742,0,0,1-.495-1.29l4.978-4.562a.742.742,0,0,1,.989,1.092l-4.983,4.563a.716.716,0,0,1-.494.2Z" transform="translate(-672.91 -655.965)" fill="#a1c5e2"/>
        <path id="Path_25512" data-name="Path 25512" d="M1255.367,863.155s3.055,17.563,3.559,18.393c7.321,12.081,1.735,10.38,3.089,10.544s-14.335,2.877-14.335,2.877l-11.7-3.613,3.594-4.449a24.689,24.689,0,0,0,4.533-4.167c1.295-1.839-.317-16.974-.317-16.974l11.6-2.625Z" transform="translate(-678.766 -575.384)" fill="#fff"/>
        <path id="Path_25513" data-name="Path 25513" d="M1235.911,890.044l10.484,3.238c4.508-.786,11.424-2.047,13.48-2.556a.8.8,0,0,1,.663-.307.333.333,0,0,0,.1-.143c.193-.435.494-2.4-3.667-9.273-.495-.816-2.526-12.219-3.515-17.879l-10.2,2.308c.43,4.221,1.394,15.007.119,16.807a24.105,24.105,0,0,1-4.626,4.281l-2.843,3.509Zm10.381,4.76-12.911-3.989,4.345-5.363.08-.059a22.946,22.946,0,0,0,4.36-3.994c.7-.989.316-9.323-.45-16.465l-.069-.658,13.005-2.966.134.771c1.142,6.554,3.09,17.3,3.46,18.176,3.693,6.085,4.79,9.758,3.336,11.181a1.6,1.6,0,0,1-.173.148c-.45.549-2.823,1.058-14.953,3.168l-.173.029Z" transform="translate(-677.452 -574.458)" fill="#0e2549"/>
        <path id="Path_25514" data-name="Path 25514" d="M1254.257,851.64c1.774-1.137,4.889-3.46,5.012-5.739s-2.506-2.071-3.312-1.72c-.539.232.193-11.255.193-11.255l-17.8-1.246s-2.8,9.842-2.264,16.2,3.43,8.082,8.062,8.369a10.843,10.843,0,0,0,5.551-1.038l4.533-3.569Z" transform="translate(-678.789 -559.475)" fill="#fff"/>
        <path id="Path_25515" data-name="Path 25515" d="M1244.229,856.235h-.84c-5.709-.346-8.25-2.966-8.759-9.041-.533-6.426,2.18-16.06,2.294-16.465l.163-.578,19.11,1.334-.044.737c-.262,4.108-.45,8.635-.376,10.3a3.572,3.572,0,0,1,2.516.45,2.383,2.383,0,0,1,.989,2.22c-.134,2.471-2.966,4.8-5.353,6.322a.742.742,0,1,1-.8-1.246c2.9-1.854,4.6-3.732,4.671-5.156.03-.588-.178-.811-.341-.919a2.473,2.473,0,0,0-1.933-.084l-.385.168-.376-.242c-.386-.272-.786-.553-.128-11.171l-16.431-1.152c-.578,2.19-2.526,10.079-2.086,15.358.495,6.055,3.2,7.415,7.375,7.687a10.25,10.25,0,0,0,5.175-.959.742.742,0,1,1,.652,1.33,11.4,11.4,0,0,1-5.081,1.132Z" transform="translate(-678.048 -558.701)" fill="#0e2549"/>
        <path id="Path_25516" data-name="Path 25516" d="M1243.238,854.893h-.109a.741.741,0,0,1-.628-.84l.089-.578a.749.749,0,0,1,1.483.217l-.084.578A.736.736,0,0,1,1243.238,854.893Z" transform="translate(-682.061 -570.172)" fill="#0e2549"/>
        <path id="Path_25517" data-name="Path 25517" d="M1259.238,855.893h-.114a.747.747,0,0,1-.623-.845l.089-.573a.75.75,0,0,1,1.483.217l-.084.574A.737.737,0,0,1,1259.238,855.893Z" transform="translate(-690.152 -570.678)" fill="#0e2549"/>
        <path id="Path_25518" data-name="Path 25518" d="M1259.619,851.379a.731.731,0,0,1-.267-.049l-.163-.064a6.116,6.116,0,0,0-2.665-.618.741.741,0,0,1-.292-1.453,6.9,6.9,0,0,1,3.49.687l.163.064a.742.742,0,0,1-.267,1.434Z" transform="translate(-688.718 -568.304)" fill="#0e2549"/>
        <path id="Path_25519" data-name="Path 25519" d="M1247.5,858.316a.564.564,0,0,1-.128,0c-2.714-.495-2.833-1.167-2.887-1.483a1.583,1.583,0,0,1,.529-1.285,9.306,9.306,0,0,0,1.542-2.684.747.747,0,0,1,.989-.415.736.736,0,0,1,.415.959,10.6,10.6,0,0,1-1.765,3.065,10.389,10.389,0,0,0,1.458.366.744.744,0,1,1-.128,1.483Z" transform="translate(-683.067 -569.947)" fill="#0e2549"/>
        <path id="Path_25520" data-name="Path 25520" d="M1244.76,848.98a.792.792,0,0,1-.277-.054,3.589,3.589,0,0,0-2.6-.312.752.752,0,0,1-.989-.356.727.727,0,0,1,.321-.989c.144-.074,1.483-.692,3.816.267a.741.741,0,0,1-.281,1.429Z" transform="translate(-681.21 -567.225)" fill="#0e2549"/>
        <path id="Path_25521" data-name="Path 25521" d="M1235.21,829.475s17.1.558,20.326,8.368a4.545,4.545,0,0,1,1.73-.41,2.19,2.19,0,0,1,1.27.381L1257.4,824.65l-22.194,4.825Z" transform="translate(-678.377 -555.92)" fill="#0e2549"/>
        <path id="Path_25522" data-name="Path 25522" d="M1134.735,803.857c2.437,2.629,14.073,33.573,14.073,33.573l8.759-7.81s-16.559-25.788-16.065-27.044,3.114-8.7,1.433-7.073a28.288,28.288,0,0,0-2.877,3.371.257.257,0,0,1-.464-.133c-.311-2.383-3.668-11.863-5.373-10.875-3.208,1.839-4.864,10.212.495,16Z" transform="translate(-625.802 -537.282)" fill="#fff"/>
        <path id="Path_25523" data-name="Path 25523" d="M1134.539,802.621c2.293,2.471,11.592,26.856,13.841,32.807l7.479-6.668c-1.073-1.686-4.518-7.084-7.909-12.531-8.349-13.529-8.107-14.132-7.909-14.661a50.737,50.737,0,0,0,1.715-5.3,29.475,29.475,0,0,0-1.874,2.318,1,1,0,0,1-1.8-.474c-.321-2.472-3.1-9.7-4.35-10.292-1.147.717-2.061,2.472-2.393,4.661a12.357,12.357,0,0,0,3.154,10.143Zm13.213,35.353-.381-.989c-4.656-12.387-12.2-31.482-13.92-33.331h0a13.8,13.8,0,0,1-3.529-11.369c.41-2.7,1.606-4.859,3.2-5.774a1.3,1.3,0,0,1,1.27,0c1.938.959,4.246,7.415,4.982,10.381a25.587,25.587,0,0,1,2.314-2.615c.648-.628,1.142-.45,1.379-.291.563.385.672,1.112-.257,4.211-.494,1.572-1.038,3.154-1.295,3.816.494,2.047,9.979,17.252,15.931,26.515l.341.534-10.039,8.952Z" transform="translate(-625.061 -536.55)" fill="#0e2549"/>
        <path id="Path_25524" data-name="Path 25524" d="M1221,878.977c-1.888-1.428-10.519,11.34-16.09,11.211-2.294-.054-2.1-6.841-3.129-10.38-1.221-4.2-18.4-3.747-29.535-15.659-2.041-2.18-2.343-10.336-6.248-7.316,0,0-9.392,5.675-9.609,5.863-5.032,4.389-2.368,4.557,8.057,15.783,5.759,6.2,17.217,7.123,23.529,14.691,3.954,4.741-1.552,24.528,7.849,34.765,0,0,30.554.494,30.756,0,2.264-5.739,2.639-42.743-5.581-48.961Z" transform="translate(-637.271 -571.858)" fill="#3f9ef7"/>
        <path id="Path_25525" data-name="Path 25525" d="M1242.292,865.513c-.371.262.86,1.947,2.115,2.234,3.159.721,4.647-1.305,3.856-1.112a7.711,7.711,0,0,1-3.594-.045C1242.692,865.987,1242.692,865.216,1242.292,865.513Z" transform="translate(-681.925 -576.551)" fill="#0e2549"/>
        <path id="Path_25526" data-name="Path 25526" d="M1061.592,869.4c-21.512,49.208-44.913,86.5-52.268,83.281s4.123-45.714,25.635-94.907,44.913-86.5,52.268-83.286-4.123,45.713-25.635,94.907Z" transform="translate(-563.023 -530.457)" fill="#2e6b99"/>
        <path id="Path_25527" data-name="Path 25527" d="M1004.967,1120.758a14.9,14.9,0,1,1-14.9-14.9,14.9,14.9,0,0,1,14.9,14.9Z" transform="translate(-546.872 -698.125)" fill="#0e2549"/>
        <path id="Path_25528" data-name="Path 25528" d="M1131.412,897.532c3.46.988,29.431,21.423,29.431,21.423l3.46-11.216s-27.528-13.48-27.746-14.829-1.844-9.051-2.437-6.792a28.786,28.786,0,0,0-.716,4.37.257.257,0,0,1-.465.134c-1.483-1.878-9.283-8.25-10.232-6.53-1.789,3.233,1.127,11.255,8.72,13.425Z" transform="translate(-621.228 -585.831)" fill="#fff"/>
        <path id="Path_25529" data-name="Path 25529" d="M1122.546,883.792c-.613,1.211-.494,3.2.371,5.23a12.357,12.357,0,0,0,7.948,7.044h0c3.243.924,23.831,16.96,28.838,20.884l2.966-9.579c-1.794-.88-7.538-3.712-13.238-6.634-14.152-7.242-14.251-7.909-14.335-8.448a49.524,49.524,0,0,0-1.28-5.437c-.217,1.147-.341,2.279-.4,2.966a1,1,0,0,1-1.784.524c-1.537-1.923-7.5-6.55-8.991-6.55Zm37.938,35.659-.85-.667c-10.38-8.181-26.752-20.6-29.164-21.295h0a13.808,13.808,0,0,1-8.9-7.909c-1.048-2.526-1.141-4.993-.252-6.6a1.3,1.3,0,0,1,1.078-.667c2.17-.193,7.489,4.162,9.644,6.3a25.827,25.827,0,0,1,.623-3.46c.227-.87.741-.988,1.028-.988.682.035,1.151.6,1.977,3.737.41,1.587.746,3.238.87,3.954,1.483,1.483,17.479,9.585,27.364,14.424l.569.282-3.955,12.852Z" transform="translate(-620.477 -585.077)" fill="#0e2549"/>
        <path id="Path_25530" data-name="Path 25530" d="M1238.26,911c-3.757-2.239-16.031,9.787-32.293,8.641-2.966-.208-8.754-5.976-9.555-1.1,0,0-3.02,10.548-3.05,10.835-.7,6.638,1.369,4.943,16.644,6.075,8.442.623,17.458-6.505,27.236-5.259C1243.366,930.975,1241.413,912.893,1238.26,911Z" transform="translate(-657.156 -599.448)" fill="#3f9ef7"/>
        <path id="Path_25531" data-name="Path 25531" d="M509.453,1662.93l4.943,16.006-12.284-.069-5.442-14.142,12.783-1.794Z" transform="translate(-304.903 -979.831)" fill="#fff"/>
        <path id="Path_25532" data-name="Path 25532" d="M501.6,1677.285l10.761.065-4.449-14.439-11.236,1.577,4.943,12.8Zm12.778,1.562-13.8-.084-5.932-15.486,14.335-2.007,5.437,17.577Z" transform="translate(-303.882 -978.992)" fill="#0e2549"/>
        <path id="Path_25533" data-name="Path 25533" d="M519.224,1692.594s18.922,6.13,19.55,11.093l-33.993-.2.064-10.973Z" transform="translate(-309.004 -994.79)" fill="#2e6b99"/>
        <path id="Path_25534" data-name="Path 25534" d="M502.635,1710.5l-.015,3.04,36.114.208.02-3.257-36.119.01Z" transform="translate(-307.912 -1003.882)" fill="#0e2549"/>
        <path id="Path_25535" data-name="Path 25535" d="M520.147,1701.747h0a.747.747,0,0,1-.737-.746l.04-6.584a.741.741,0,0,1,.741-.736h0a.737.737,0,0,1,.737.742l-.039,6.589A.742.742,0,0,1,520.147,1701.747Z" transform="translate(-316.403 -995.381)" fill="#0e2549"/>
        <path id="Path_25536" data-name="Path 25536" d="M506.4,1521.12l15.936,11.25-7.553,7.044-9.713-8.092,1.33-10.2Z" transform="translate(-309.151 -908.119)" fill="#fff"/>
        <path id="Path_25537" data-name="Path 25537" d="M505.057,1529.681l8.9,7.415,6.426-5.976L506.194,1521.1l-1.112,8.581Zm8.947,9.392L503.48,1530.3l1.537-11.824,17.686,12.486Z" transform="translate(-308.347 -906.784)" fill="#0e2549"/>
        <path id="Path_25538" data-name="Path 25538" d="M530.429,1536.524s15.5-6.693,18.675-3.88l-21.784,18.922-6.11-7.034Z" transform="translate(-317.313 -913.598)" fill="#2e6b99"/>
        <path id="Path_25539" data-name="Path 25539" d="M553.211,1529.51l1.592,1.829-23.148,20.1-1.814-2.086,23.371-19.846Z" transform="translate(-321.677 -912.362)" fill="#0e2549"/>
        <path id="Path_25540" data-name="Path 25540" d="M532.645,1561.98a.736.736,0,0,1-.564-.257l-3.663-4.222a.746.746,0,0,1,1.117-.988l3.668,4.221a.742.742,0,0,1-.558,1.226Z" transform="translate(-320.864 -925.89)" fill="#0e2549"/>
        <path id="Path_25541" data-name="Path 25541" d="M325.859,1492.7s39.3,12.357,46.218,16.223c12.941,7.242,38.21,56.277,38.21,56.277l-24.221,1.152-29.683-36.9a178.385,178.385,0,0,1-42.486-7.415c-14.829-4.562-29.4-17.632-29.4-17.632l23.495-34.6s42.224-13.005,64.285-13.673c4.123-.128,37.127,38.937,37.127,38.937l-13.935,9.619-23.766-23.9L340.4,1497.716l-14.538-5.032Z" transform="translate(-197.611 -875.253)" fill="#0e2549"/>
        <path id="Path_25542" data-name="Path 25542" d="M269.671,1348.863s-.648,14.108.534,15.729,9.105,7.612,9.105,7.612l-14.043,30.79-24.275-2.3-1.621-24.844s11.063-9.046,11.73-10.9c.919-2.57.895-16.273.895-16.273Z" transform="translate(-174.789 -820.918)" fill="#fff"/>
        <path id="Path_25543" data-name="Path 25543" d="M264.943,1403.027l-25.427-2.412-1.686-25.852.292-.242c5.363-4.385,11.127-9.54,11.5-10.578.717-2.007.86-12.244.85-16.021a.741.741,0,0,1,.741-.741h0a.741.741,0,0,1,.741.741c0,1.414,0,13.91-.939,16.52-.667,1.864-9.258,9.011-11.661,10.984l1.552,23.835,23.124,2.19,13.579-29.772c-1.839-1.4-7.711-5.932-8.789-7.415-1.231-1.7-.825-12.852-.672-16.2a.727.727,0,0,1,.771-.707.742.742,0,0,1,.707.776c-.3,6.624-.237,14.335.4,15.26.914,1.255,6.772,5.808,8.957,7.454l.47.356-14.508,31.819Z" transform="translate(-174.01 -820.159)" fill="#0e2549"/>
        <path id="Path_25544" data-name="Path 25544" d="M278.82,1293.31c2.936.85,10.1,2.818,9.15,8.171a140.129,140.129,0,0,1-4.839,17.8,3.371,3.371,0,0,1-3.786,2.259l-18.438-3.258a3.376,3.376,0,0,1-2.783-3.534c.351-5.774,1.206-17.983,2.195-19.674,3.371-5.744,13.841-3.1,18.5-1.765Z" transform="translate(-184.269 -792.013)" fill="#0e2549"/>
        <path id="Path_25545" data-name="Path 25545" d="M263.094,1326.928c-.815-1.211-.494-5.374.223-10.059a.4.4,0,0,0-.133-.361,5.512,5.512,0,0,1-2.1-5.091c.4-1.977,1.775-1.325,2.8-.495a.316.316,0,0,0,.494-.2c1.083-5.616,2.264-10.494,2.264-10.494l21.913,3.87s-.929,5.012-2.135,10.6c-.054.252-3.346,13.519-4.088,14.641a3.8,3.8,0,0,1-1.864,1.379s-1.611.9-9.575-.495l-7.805-3.312Z" transform="translate(-185.725 -796.417)" fill="#fff"/>
        <path id="Path_25546" data-name="Path 25546" d="M277.345,1330.923a44.041,44.041,0,0,1-7.335-.8.753.753,0,1,1,.257-1.483c7.326,1.3,9.051.6,9.12.568h.054a3.08,3.08,0,0,0,1.518-1.1c.643-1.033,3.767-13.435,3.984-14.389.919-4.276,1.686-8.25,1.977-9.846l-20.474-3.6c-.356,1.532-1.26,5.437-2.1,9.782a1.059,1.059,0,0,1-.687.806,1.019,1.019,0,0,1-1.013-.178c-.741-.613-1.167-.693-1.285-.652s-.217.2-.316.7c-.43,2.145,1.157,3.781,1.859,4.389a1.133,1.133,0,0,1,.381,1.028c-1.122,7.415-.613,9.134-.341,9.54a.742.742,0,1,1-1.231.826c-.519-.776-1.078-2.7.079-10.38a6.178,6.178,0,0,1-2.2-5.675,2.131,2.131,0,0,1,1.275-1.8,2.346,2.346,0,0,1,2.155.495c1.038-5.29,2.13-9.822,2.14-9.886l.163-.677,23.336,4.118-.138.736c0,.049-.944,5.087-2.135,10.628-.03.124-3.342,13.6-4.2,14.889a4.449,4.449,0,0,1-2.185,1.651,6.64,6.64,0,0,1-2.664.351Z" transform="translate(-184.963 -795.587)" fill="#0e2549"/>
        <path id="Path_25547" data-name="Path 25547" d="M282.518,1327.849a.989.989,0,0,1-.168,0,.746.746,0,0,1-.559-.89l.1-.45a.743.743,0,1,1,1.448.331l-.1.45a.742.742,0,0,1-.722.574Z" transform="translate(-196.232 -809.414)" fill="#0e2549"/>
        <path id="Path_25548" data-name="Path 25548" d="M301.589,1331.079a.625.625,0,0,1-.138,0,.747.747,0,0,1-.593-.865l.1-.533a.742.742,0,1,1,1.458.272l-.1.534a.746.746,0,0,1-.727.6Z" transform="translate(-205.877 -811.003)" fill="#0e2549"/>
        <path id="Path_25549" data-name="Path 25549" d="M277,1320.325a.746.746,0,1,1-.173-1.483,15.843,15.843,0,0,1,5.759-.391.751.751,0,1,1-.237,1.483h0a14.731,14.731,0,0,0-5.17.371.689.689,0,0,1-.178,0Z" transform="translate(-193.395 -805.578)" fill="#0e2549"/>
        <path id="Path_25550" data-name="Path 25550" d="M270.732,1293.739s-9.777-4.34-9.115,9.817c.381,8.1-1.557-2.6,8.235-6.757C270.871,1296.363,270.732,1293.739,270.732,1293.739Z" transform="translate(-186.023 -792.817)" fill="#0e2549"/>
        <path id="Path_25551" data-name="Path 25551" d="M292.5,1331.594a.743.743,0,1,1-.1-1.483,5.451,5.451,0,0,0,1.868-.553c0-.495-.173-2.017-.321-3.159-.371-2.966-.494-4.315-.272-4.943a1.364,1.364,0,0,1,1.073-.811,7.669,7.669,0,0,1,5.675,1.948.742.742,0,0,1-1.028,1.068,6.244,6.244,0,0,0-4.355-1.567,34.654,34.654,0,0,0,.381,4.1c.341,2.674.405,3.46.247,3.89-.361.988-2.071,1.339-3.065,1.483Z" transform="translate(-201.252 -806.708)" fill="#0e2549"/>
        <path id="Path_25552" data-name="Path 25552" d="M271.567,1301.656s13.791,7.128,21.428,3.292-2.832-6.129-9.283-6.742-15.571-1.083-12.145,3.46Z" transform="translate(-190.693 -795.199)" fill="#0e2549"/>
        <path id="Path_25553" data-name="Path 25553" d="M273.612,1295.317s-9.3-4.37-8.952,9.244c.2,7.785-1.448-2.526,8.047-6.327.989-.4.9-2.916.9-2.916Z" transform="translate(-187.573 -793.594)" fill="#0e2549"/>
        <path id="Path_25554" data-name="Path 25554" d="M259.878,1381.53,257.53,1392.8l19.916,1.053,10.074-8.151-7.148-7.7-4.666,2.036-15.828,1.483Z" transform="translate(-183.972 -835.75)" fill="#fff"/>
        <path id="Path_25555" data-name="Path 25555" d="M414.015,1454.617c2.966-.693,5.23-3.347,9.515-2.042,2.071.633,11.112,0,8.4-1.582s-11.127-4.483-11.127-4.483l-7.078,2.4-5.5-.727-3.757,10.144a77.587,77.587,0,0,1,9.535-3.712Z" transform="translate(-258.278 -870.39)" fill="#fff"/>
        <path id="Path_25556" data-name="Path 25556" d="M412.68,1453.828Zm-5.284-5.615-2.941,7.909a60.041,60.041,0,0,1,8.057-3.04,12.766,12.766,0,0,0,2.541-.989c1.952-.934,4.157-1.977,7.36-1.018a20.5,20.5,0,0,0,7.617-.351,96.68,96.68,0,0,0-10.549-4.226l-7,2.377-5.082-.667Zm-5.566,10.746,4.582-12.357,5.932.776,7.158-2.427.237.084c.346.119,8.532,2.921,11.265,4.547,1.063.638.89,1.349.771,1.626-.781,1.765-8.156,1.8-9.782,1.305-2.649-.806-4.414.039-6.283.934a13.862,13.862,0,0,1-2.842,1.118h0a75.37,75.37,0,0,0-9.392,3.667l-1.626.741Z" transform="translate(-256.943 -869.6)" fill="#0e2549"/>
        <path id="Path_25557" data-name="Path 25557" d="M451.523,1475.47l-20.642,33.4H395.32l18.141-33.4Z" transform="translate(-253.651 -885.034)" fill="#d2ebfc"/>
        <path id="Path_25558" data-name="Path 25558" d="M395.291,1507.381h33.9l19.728-31.9H412.632l-17.34,31.912Zm34.73,1.483H392.8L411.747,1474h39.831l-21.557,34.878Z" transform="translate(-252.377 -884.291)" fill="#0e2549"/>
        <path id="Path_25559" data-name="Path 25559" d="M413.039,1507.476a.723.723,0,0,1-.346-.089.741.741,0,0,1-.306-.989l12.62-23.48a.743.743,0,1,1,1.31.7L413.7,1507.1a.747.747,0,0,1-.657.39Z" transform="translate(-262.241 -888.603)" fill="#fff"/>
        <path id="Path_25560" data-name="Path 25560" d="M371.25,1530.219l6.634,2.516s1.577,4.291,2.847,4.943c2.62,1.354,10.934-1.048,11.512-2.64s-5.932-8.205-5.932-8.205a39.08,39.08,0,0,0,3.781-2.417,6.969,6.969,0,0,0-2.472-2.131,11.949,11.949,0,0,0-3.668.119l-10.613.949Z" transform="translate(-241.479 -908.647)" fill="#fff"/>
        <path id="Path_25561" data-name="Path 25561" d="M371.224,1528.995l6.307,2.392.114.322c.712,1.933,1.864,4.217,2.471,4.538,1.2.618,4.449.311,7.514-.717,2.175-.727,2.892-1.359,2.966-1.527.064-.756-2.575-4.172-5.783-7.415l-.677-.687.835-.494c.914-.524,2.323-1.369,3.119-1.913a7.454,7.454,0,0,0-1.661-1.291,10.572,10.572,0,0,0-3.307.148h-.054l-10.1.935L371.224,1529Zm10.8,9.041a5.76,5.76,0,0,1-2.565-.495c-1.3-.667-2.575-3.7-3.08-5.027l-6.975-2.645,2.442-8,11.082-.988a11.483,11.483,0,0,1,3.994-.089,7.4,7.4,0,0,1,2.966,2.64l.094.405-.306.326a24.619,24.619,0,0,1-3.1,2.047c2.556,2.655,6.045,6.673,5.437,8.295-.1.267-.391,1.078-2.966,2.091a21.436,21.436,0,0,1-7,1.428Z" transform="translate(-240.544 -907.873)" fill="#0e2549"/>
        <path id="Path_25562" data-name="Path 25562" d="M244.175,1381.387c3.144-.781,14.5,8.69,20.623,6.959,1.854-.524,3.386-4.508,4.043-6.525,2.966-9.081,18.714,28.754,24.053,29.969l30.266-1.314-.356,13.667-25.407,4.375a11.017,11.017,0,0,1,3.2,5.165c.217.885-42.857,34.859-43.465,34.182-36.579-40.845-27.3-82.93-12.956-86.479Z" transform="translate(-170.825 -836.966)" fill="#3f9ef7"/>
        <path id="Path_25563" data-name="Path 25563" d="M258.654,1394.044c9.535.42-.351,38.808,19.817,45.768,21.082,7.281,36.149,14.74,35.986,15.511,0,0-7.281,13.949-7.548,14.231,0,0-17.8-5.017-43.252-12.734-10.6-3.218-17.167-21.977-20.687-35.847-2-7.869,6.555-27.335,15.684-26.93Z" transform="translate(-176.46 -843.855)" fill="#3f9ef7"/>
        <path id="Path_25564" data-name="Path 25564" d="M277.93,1488.778a.659.659,0,0,1-.213-.034c-4.9-1.484-9.847-2.967-14.711-4.419-10.7-3.248-17.429-21.572-21.191-36.371a.742.742,0,0,1,1.438-.366c3.668,14.429,10.143,32.274,20.188,35.319,4.854,1.483,9.8,2.965,14.7,4.419a.741.741,0,0,1-.212,1.453Z" transform="translate(-176.014 -870.652)" fill="#0e2549"/>
        <path id="Path_25565" data-name="Path 25565" d="M335.277,1473.805Zm-6.4,13.727a.721.721,0,0,1-.346-.089.736.736,0,0,1-.311-.988L335,1473.6c-2.224-1.582-15.867-8.211-35.323-14.928-10.633-3.668-13.307-15.6-14.612-27.938a.746.746,0,0,1,1.483-.158c1.167,11.043,3.277,23.129,13.618,26.693,12.358,4.266,21.611,8.235,26.02,10.218,10.726,4.824,10.573,5.556,10.445,6.144v.1l-7.113,13.406a.736.736,0,0,1-.653.4Z" transform="translate(-197.894 -861.996)" fill="#0e2549"/>
        <path id="Path_25566" data-name="Path 25566" d="M338.37,1442.534a.743.743,0,0,1-.6-.307l-23.089-31.68a.737.737,0,0,1,.158-1.033.747.747,0,0,1,1.038.158l23.109,31.68a.742.742,0,0,1-.158,1.038.771.771,0,0,1-.44.143Z" transform="translate(-212.801 -851.609)" fill="#0e2549"/>
        <path id="Path_25567" data-name="Path 25567" d="M274.923,1379.5l-1.478,5.823-19.115-1.829,1.453-5.852,19.14,1.859Z" transform="translate(-182.354 -835.563)" fill="#fff"/>
        <path id="Path_25568" data-name="Path 25568" d="M295.99,1376.985l3.282,3.762,6.268-4.444-5.062-3.633-4.488,4.315Z" transform="translate(-203.421 -833.049)" fill="#fff"/>
        <path id="Path_25569" data-name="Path 25569" d="M278.53,1372.653l3.717,2.669-4.874,3.46L275,1376.058l3.534-3.4Zm-6.6,8.373-17.627-1.685,1.092-4.394,17.642,1.715Zm12.852-5.7-6.426-4.6-4.686,4.5-19.4-1.9-1.819,7.306,20.608,1.978,1.285-5.067,2.793,3.2,7.662-5.437Z" transform="translate(-181.403 -832.068)" fill="#0e2549"/>
        <path id="Path_25570" data-name="Path 25570" d="M285.149,1343.545c-.465.4.751,2.526,2.724,2.966,3.223.747,4.819-1.161,4-1.221a9.852,9.852,0,0,1-3.574-.173c-2.071-.524-2.842-1.854-3.154-1.592Z" transform="translate(-197.889 -818.294)" fill="#0e2549"/>
        <path id="Path_25571" data-name="Path 25571" d="M455.813,1505.847a3.327,3.327,0,1,1-.976-2.354A3.331,3.331,0,0,1,455.813,1505.847Z" transform="translate(-280.873 -898.713)" fill="#fff"/>
        <path id="Path_25572" data-name="Path 25572" d="M451.733,1502.483a2.585,2.585,0,1,0,1.831.755A2.585,2.585,0,0,0,451.733,1502.483Zm0,6.653a4.068,4.068,0,1,1,4.073-4.068A4.068,4.068,0,0,1,451.733,1509.136Z" transform="translate(-280.124 -897.945)" fill="#0e2549"/>
        <path id="Path_25573" data-name="Path 25573" d="M941.144,1717.483H143.58a.743.743,0,0,1,0-1.483H941.144a.743.743,0,0,1,0,1.483Z" transform="translate(-79.06 -1006.668)" fill="#0e2549"/>
      </g>
    </g>
  </g>
</svg>
