<svg xmlns="http://www.w3.org/2000/svg" width="470.117" height="216.634" viewBox="0 0 470.117 216.634">
  <g id="req_analysis" data-name="req analysis" transform="translate(-1235.023 -4004.659)">
    <path id="Path_20633" data-name="Path 20633" d="M1015.573,301.939c67.081-11.321,90.464-7.062,178.011,4.932,90.5,26.421,229.353-16.3,229.353,70.915-.382,56.086-32.537,104.579-205.743,119.65s-228.521-42.085-251.166-91.53c-6.1-13.317-13.148-38.019-13.148-38.019S948.492,313.26,1015.573,301.939Z" transform="translate(282.202 3721.398)" fill="#e7f3fe"/>
    <g id="Group_577" data-name="Group 577" transform="translate(1287.986 4004.659)">
      <path id="Path_21250" data-name="Path 21250" d="M1232.075,388.409c-5.419,10.99-12.221,41.021-14.076,42.665s-12.581,8.022-14.425,11.108-1.034,2.056-.214,2.262,47.411.411,47.411.411-5.352-31.881-5.97-32.088S1232.075,388.409,1232.075,388.409Z" transform="translate(-972.545 -271.024)" fill="#a2dff2"/>
      <path id="Path_21251" data-name="Path 21251" d="M1221.94,444.7c8.556.06,17.584.109,22.553.13l-6.8-40.608c-3.631-7.021-8.038-15.82-8.038-15.82-.675,1.385-1.383,3.074-2.1,4.969-.708,30.5,3.7,39.05.393,44.487C1225.358,442.1,1223.008,444,1221.94,444.7Z" transform="translate(-970.123 -271.024)" fill="#96cfe0"/>
      <path id="Path_21252" data-name="Path 21252" d="M1257.387,376.611c7.735,7.127,24.959,13.885,24.959,13.885s2.62,24.126.832,37.786-.8,16.431-.8,16.431l-37.191.316s-3.092-6.915-11.816-27.438c-5.554-13.066-4.564-27.716-4.564-27.716l21.631-9.7Z" transform="translate(-969.278 -272.49)" fill="#a2dff2"/>
      <path id="Path_21253" data-name="Path 21253" d="M1245.345,443.1h35.516s-1-2.772.787-16.432c1.473-11.248-.045-29.592-.618-35.718l-3.238-1.382c-8.106,2.332-12.783,14.4-14.155,26.193-.911,7.89-14.02,15.659-22.587,19.935A68.76,68.76,0,0,0,1245.345,443.1Z" transform="translate(-967.748 -270.88)" fill="#96cfe0"/>
      <path id="Path_21254" data-name="Path 21254" d="M1248.9,384.639s.326,10.188,2.069,10.079S1262.83,381.8,1262.83,381.8l-1.72-.822Z" transform="translate(-966.772 -271.947)" fill="#96cfe0"/>
      <path id="Path_21255" data-name="Path 21255" d="M1247.217,383.781s-2.2,9.378-3.294,9.16-2.563-9.748-2.563-9.748Z" transform="translate(-967.709 -271.672)" fill="#96cfe0"/>
      <path id="Path_21256" data-name="Path 21256" d="M1246.668,382.677l3.036.327,1.158,3.6s-2.654,3.11-2.709,4.361.584,5.942.618,10.194-1.529,21.18-.821,31.551l.708,10.369-6.082.236s-.326-11.407,0-23.619,3.811-28.731,3.811-28.731l-1.372-4.2Z" transform="translate(-967.576 -271.736)" fill="#f37168"/>
      <path id="Path_21257" data-name="Path 21257" d="M1237.309,354.59c-4.283,9.514.854,18.327.7,17.955s6.487-16.063,6.487-16.063Z" transform="translate(-968.425 -275.227)" fill="#2e5b9a"/>
      <path id="Path_21258" data-name="Path 21258" d="M1252.558,360.843l5.43,19.8a1.947,1.947,0,0,1,.022.844,1.908,1.908,0,0,1-.371.76c-1.271,1.565-3.081,4.785-6.746,5.817a9.018,9.018,0,0,1-2.293.257,1.548,1.548,0,0,1-.99-.351,1.531,1.531,0,0,1-.54-.9l-3.632-18.782Z" transform="translate(-967.451 -274.45)" fill="#f09959"/>
      <path id="Path_21259" data-name="Path 21259" d="M1251.525,362.315l-1.99.812-6.1,4.981,2.35,11.909.933,4.747C1252.267,381.3,1254.3,375.667,1251.525,362.315Z" transform="translate(-967.452 -274.267)" fill="#e38540"/>
      <path id="Path_21260" data-name="Path 21260" d="M1252.315,370.465c0,6.624-3.991,11.841-8.938,11.654s-7.971-3.916-8.949-12.331c-.765-6.6,1.136-14.284,6.082-14.1S1252.315,363.842,1252.315,370.465Z" transform="translate(-968.591 -275.091)" fill="#f09959"/>
      <path id="Path_21261" data-name="Path 21261" d="M1280.5,388.979c7.184,1.619,8.522,16.182,10.86,31.542.27,1.767,1.641,16.729,1.641,16.729a4.546,4.546,0,0,1-.708,2.432,4.6,4.6,0,0,1-1.9,1.682c-2.35,1.173-3.294,2.057-16.909,2.195-13.064.132-29.906-.411-29.906-.411s-.157-4.851,1.192-7.222c2.013-3.565,22.677-8.685,24.6-8.959.27-3.839-1.9-17.732,1.1-27.15,2.057-6.48,4.272-9.873,7.049-10.76A5.569,5.569,0,0,1,1280.5,388.979Z" transform="translate(-967.434 -270.974)" fill="#a2dff2"/>
      <path id="Path_21262" data-name="Path 21262" d="M1250.15,443.065c6.442.1,15.279.189,22.519.116,13.615-.137,14.559-1.022,16.909-2.195a4.849,4.849,0,0,0,2.89-3.707s-1.394-15.92-1.653-17.689c-1.506-10.286-3.148-22.054-6.948-27.735a77.116,77.116,0,0,1,4.216,23.035,22.7,22.7,0,0,1-.708,6.344,3.521,3.521,0,0,1-4.666,2.6c-4.947-1.37-11.13,1.51-11.13,1.51a15.488,15.488,0,0,1,9.062-.137c4.407,1.508,13.469,11.518,3.575,15.222C1281.191,441.571,1263.057,442.5,1250.15,443.065Z" transform="translate(-966.617 -270.596)" fill="#96cfe0"/>
      <path id="Path_21263" data-name="Path 21263" d="M1245.808,431.468a6.814,6.814,0,0,1,5.588-3.109c3.755,0,3.485,6.125,2.934,8.136a3.048,3.048,0,0,1-2.743,2.1l-7.566-.191Z" transform="translate(-967.379 -266.059)" fill="#96cfe0"/>
      <path id="Path_21264" data-name="Path 21264" d="M1179.45,437.9h63.128a3.172,3.172,0,0,0-3.17-3.161H1179.45Z" transform="translate(-975.404 -265.266)" fill="#75a1de"/>
      <path id="Path_21265" data-name="Path 21265" d="M1246.679,431.121c-7.611-3.49-9.77-2.6-11.49-3.272-4.284-1.648-5.464-.649-8.961,6.854-.7,1.494.956,1.733,2.6,1.873s3.924-2.878,4.587-3.187a9.044,9.044,0,0,1,2.429-.345s-.551-.046-1.518,1.527-2.012,2.122-.742,2.231,1.641-1.971,3.98-1.313,1.855,2.875,7.814,2.684c5.644-.182,9.86.381,10.073-3.178.191-3.381.708-5.032-2.44-5.9C1250.58,428.426,1246.679,431.121,1246.679,431.121Z" transform="translate(-969.61 -266.207)" fill="#f09959"/>
      <path id="Path_21266" data-name="Path 21266" d="M1244.493,430.9c5.3-.145,3.193,6.25,2.608,6.749s2.9.436,2.9.436a6.333,6.333,0,0,0,.742-5.6,5.127,5.127,0,0,0-3.834-3.49l-2.44,1.076Z" transform="translate(-967.323 -265.98)" fill="#a86b48"/>
      <path id="Path_21267" data-name="Path 21267" d="M1249.838,429.693c.045.814-1.259,1.541-2.9,1.626s-3-.5-3.047-1.318,1.259-1.543,2.9-1.626S1249.793,428.88,1249.838,429.693Z" transform="translate(-967.395 -266.058)" fill="#2e5b9a"/>
      <path id="Path_21268" data-name="Path 21268" d="M1249.347,429.371c.034.726-1.113,1.377-2.586,1.454s-2.687-.452-2.721-1.178,1.124-1.377,2.586-1.454S1249.313,428.646,1249.347,429.371Z" transform="translate(-967.376 -266.081)" fill="#3e6bab"/>
      <path id="Path_21269" data-name="Path 21269" d="M1248.332,429.147c.034.524-.8.992-1.855,1.046s-1.934-.327-1.956-.847.809-.993,1.855-1.047S1248.309,428.626,1248.332,429.147Z" transform="translate(-967.317 -266.067)" fill="#f0ceb4"/>
      <path id="Path_21270" data-name="Path 21270" d="M1208.248,431.264c3.912-2.169,8.691-1.446,10.433.723s2.024,3.615-1.889,3.615-11.737.289-13.042.145S1208.248,431.264,1208.248,431.264Z" transform="translate(-972.407 -265.861)" fill="#f09959"/>
      <path id="Path_21271" data-name="Path 21271" d="M1212.25,430.474c4.2-1.012,7.072,1.428,10.579,3.76,3.047,2.024,3.654,3.992.292,2.313a25.509,25.509,0,0,0-7.825-2.747Z" transform="translate(-971.327 -265.825)" fill="#f09959"/>
      <path id="Path_21272" data-name="Path 21272" d="M1209.3,432.2c-2.125,0-3.98-.677-5.475-.545s-6.24,4.982-5.5,5.356c.068.027.124.052.18.073a2.56,2.56,0,0,0,3.036-1.06c.663-1.075,1.765-2.326,3.035-1.879a13.5,13.5,0,0,0,4.351.676Z" transform="translate(-973.067 -265.651)" fill="#f09959"/>
      <path id="Path_21273" data-name="Path 21273" d="M1208.447,436.644c-2.17-.872,1.3-8.1,2.462-8.1s5.509,3.47,5.509,3.47-1.023.576-4.486-.578c-.877-.289-1.6,4.626-2.608,5.205S1208.447,436.644,1208.447,436.644Z" transform="translate(-971.887 -266.036)" fill="#f7a96f"/>
      <path id="Path_21274" data-name="Path 21274" d="M1246.234,378.831l1.023,5.419-2.979,6.429-3.238-6.814Z" transform="translate(-967.749 -272.214)" fill="#a2dff2"/>
      <path id="Path_21275" data-name="Path 21275" d="M1235.625,374.186c1.259,7.864,4.171,8.7,6.24,9.414s9.792-2.522,10.625-4.676c2.1-5.511-1.293-9.66-.607-9.716s1.664,1.761,3.89,3.938c.214.2,1.641,1.537,1.608,1.012-.484-7.161,2.777-10.013.6-16.942-1.619-5.11-4.868-4.081-4.868-4.081s-2.946-3.979-9.534-2.251c-4.418,1.157-8.083,3.633-12.468,5.67s7.6,10.61,12.884,5.7,3.868,4.026,4.936,4.5.472,0,1.7,4.219-3.71,8.027-5.217,8.684c-4.789,2.1-5.779,1.429-7.229-.251C1236.918,377.939,1235.625,374.186,1235.625,374.186Z" transform="translate(-969.102 -275.742)" fill="#2e5b9a"/>
      <path id="Path_21276" data-name="Path 21276" d="M1253.566,366.458c-.214,2.079-1.383,3.612-2.608,3.426s-1.563-1.785-1.855-4.1c-.259-2.09,1.383-3.612,2.608-3.425S1253.78,364.38,1253.566,366.458Z" transform="translate(-966.75 -274.264)" fill="#f09959"/>
      <path id="Path_21277" data-name="Path 21277" d="M1256.9,377l5.4,5.017s-10.377,9.759-11.288,9.65-2.417-8.287-2.417-8.287Z" transform="translate(-966.811 -272.442)" fill="#a2dff2"/>
      <path id="Path_21278" data-name="Path 21278" d="M1249.274,382.57c-1,.467-.674,1.885-1.1,2.378s-.675.626-1.012-.061-.281-2.238-.54-2.317-2.271,6.172-2.271,6.172,1.473-4,1.81-3.561.068.841,1.282.914a9.072,9.072,0,0,0,2.777-.436Z" transform="translate(-967.338 -271.75)" fill="#a2dff2"/>
      <path id="Path_21279" data-name="Path 21279" d="M1180.976,441.191h33.717l-14.312-31.433a2.538,2.538,0,0,0-.944-1.1,2.575,2.575,0,0,0-1.394-.409h-30.5a1.015,1.015,0,0,0-.483.123,1.01,1.01,0,0,0-.517.807,1.034,1.034,0,0,0,.079.488Z" transform="translate(-977.008 -268.558)" fill="#a8ceff"/>
      <path id="Path_21280" data-name="Path 21280" d="M1164.621,408.253h31.12a2.575,2.575,0,0,1,1.394.409,2.538,2.538,0,0,1,.944,1.1l14.323,31.433h-34.336L1163.7,409.672a1.032,1.032,0,0,1-.079-.488,1,1,0,0,1,1-.931Z" transform="translate(-977.371 -268.558)" fill="#75a1de"/>
      <path id="Path_21281" data-name="Path 21281" d="M1179.038,425.146c1.181,2.44,3.092,3.957,4.272,3.387s1.192-3.01,0-5.452-3.092-3.957-4.272-3.387S1177.857,422.7,1179.038,425.146Z" transform="translate(-975.565 -267.151)" fill="#6695d6"/>
      <path id="Path_21282" data-name="Path 21282" d="M1072.118,391.727c-.517,0-1.034-.026-1.54-.052-.416-.021-.854-.043-1.27-.048a.272.272,0,0,1-.18-.084.264.264,0,0,1-.067-.181.266.266,0,0,1,.067-.182.272.272,0,0,1,.18-.084c.427,0,.877.028,1.293.049,3.17.161,6.442.327,9.635-5.795a28.277,28.277,0,0,0,2.575-13.637,22.858,22.858,0,0,0-8.14-16.763.263.263,0,0,1-.079-.179.235.235,0,0,1,.056-.19.276.276,0,0,1,.18-.093.269.269,0,0,1,.191.054,23.447,23.447,0,0,1,8.331,17.144,29,29,0,0,1-2.642,13.91C1077.886,391,1074.9,391.727,1072.118,391.727Z" transform="translate(-989.123 -275.24)" fill="#303c60"/>
      <path id="Path_21283" data-name="Path 21283" d="M1070.968,390.1c-.124,0-.247,0-.371-.009a.279.279,0,0,1-.18-.091.286.286,0,0,1-.068-.188.28.28,0,0,1,.09-.18.25.25,0,0,1,.18-.073c.112,0,.236.009.349.009,3.305,0,6.352-2.334,8.41-6.459,3.4-6.783,3.721-17.909-2.35-25.17a.286.286,0,0,1-.056-.092.336.336,0,0,1-.011-.107.322.322,0,0,1,.022-.1.622.622,0,0,1,.068-.084.39.39,0,0,1,.1-.052.258.258,0,0,1,.1-.009.286.286,0,0,1,.112.035.458.458,0,0,1,.079.072c6.206,7.436,5.88,18.816,2.417,25.748C1077.7,387.658,1074.476,390.1,1070.968,390.1Z" transform="translate(-988.963 -274.866)" fill="#303c60"/>
      <path id="Path_21284" data-name="Path 21284" d="M1061.381,356.778c9.556-7.4,18.539-3.477,21.755,6.543,3,9.361-.843,29.473-15.11,25.969-14.75-3.626-15.976-8.133-15.875-14.683A23.222,23.222,0,0,1,1061.381,356.778Z" transform="translate(-991.225 -275.432)" fill="#303c60"/>
      <path id="Path_21285" data-name="Path 21285" d="M1057.547,382.759l-13.671,5.087s3.834,27.7,4.16,38.273-5.026,19.751-5.026,19.751h35.73s4.924-28.8,3.935-38.943-7.758-20.646-8.084-20.9-8.522-2.107-8.522-2.107Z" transform="translate(-992.36 -271.726)" fill="#a2dff2"/>
      <path id="Path_21286" data-name="Path 21286" d="M1078.093,413.082s1.372,12.866,1.945,13.521,21.552,10.9,21.552,10.9l-30.49,2.071Z" transform="translate(-988.869 -267.958)" fill="#d54a41"/>
      <path id="Path_21287" data-name="Path 21287" d="M1071.1,385.667c3.384.073,4.306,5.6,5.1,9.7S1071.1,385.667,1071.1,385.667Z" transform="translate(-988.869 -271.365)" fill="#d54a41"/>
      <path id="Path_21288" data-name="Path 21288" d="M1068.705,407.912c-1.866-6.651-11.839-25.173-11.839-25.173l-13.087,5.11s3,21.707,3.912,34.02l4.969,24h16.043S1070.56,414.563,1068.705,407.912Z" transform="translate(-992.265 -271.729)" fill="#f37168"/>
      <path id="Path_21289" data-name="Path 21289" d="M1049.53,428.873l14.739-3.377-1.2,12.539Z" transform="translate(-991.55 -266.415)" fill="#d54a41"/>
      <path id="Path_21290" data-name="Path 21290" d="M1057.716,437.03c-2.406-3.247-4.756-6.821-2.473-14.284s2.518-10.141,1.72-16.9-4.452-17.555-11.546-17.882c0,0-.236,2.364-.618,6.137,1.158,8.916,3.013,24.143,3.238,31.372.326,10.576-5.026,19.751-5.026,19.751l29.063.639S1060.122,440.278,1057.716,437.03Z" transform="translate(-992.36 -271.079)" fill="#d54a41"/>
      <path id="Path_21291" data-name="Path 21291" d="M1079.829,406.731c-.978-10.14-7.758-20.646-8.084-20.9-.2-.156-3.407-.924-5.835-1.487.708,1.675,8.218,19.527,7.9,26.88-.326,7.719.011,34.449.011,34.449h2.069S1080.818,416.872,1079.829,406.731Z" transform="translate(-989.514 -271.529)" fill="#f37168"/>
      <path id="Path_21292" data-name="Path 21292" d="M1323.219,437H1021.462a1.554,1.554,0,0,0-1.462,1.635v.1a1.554,1.554,0,0,0,1.462,1.635h301.757a1.554,1.554,0,0,0,1.462-1.635v-.1A1.554,1.554,0,0,0,1323.219,437Z" transform="translate(-995.22 -264.985)" fill="#c4f3ff"/>
      <path id="Path_21293" data-name="Path 21293" d="M1201.538,288.949h-37.315a1.743,1.743,0,0,0-1.743,1.735v13.3a1.743,1.743,0,0,0,1.743,1.735h37.315a1.743,1.743,0,0,0,1.743-1.735v-13.3A1.743,1.743,0,0,0,1201.538,288.949Z" transform="translate(-977.513 -283.385)" fill="#9ec8ff"/>
      <path id="Path_21294" data-name="Path 21294" d="M1166.87,301.774v9.254l10.681-10.664S1167.084,301.774,1166.87,301.774Z" transform="translate(-976.967 -281.966)" fill="#9ec8ff"/>
      <path id="Path_21295" data-name="Path 21295" d="M1199.46,290.428h-33.627a1.475,1.475,0,0,0-1.473,1.472v10.5a1.475,1.475,0,0,0,1.473,1.472h33.627a1.475,1.475,0,0,0,1.473-1.472V291.9A1.475,1.475,0,0,0,1199.46,290.428Z" transform="translate(-977.279 -283.201)" fill="#fff"/>
      <path id="Path_21296" data-name="Path 21296" d="M1183.975,293.546h-16.516a.708.708,0,0,1-.506-.211.718.718,0,0,1,0-1.022.709.709,0,0,1,.506-.212h16.516a.716.716,0,0,1,.517.212.718.718,0,0,1,0,1.022A.715.715,0,0,1,1183.975,293.546Z" transform="translate(-976.983 -282.993)" fill="#9ec8ff"/>
      <path id="Path_21297" data-name="Path 21297" d="M1197.781,295.122h-30.637a.4.4,0,0,0-.4.4v.008a.4.4,0,0,0,.4.4h30.637a.4.4,0,0,0,.4-.4v-.008A.4.4,0,0,0,1197.781,295.122Z" transform="translate(-976.983 -282.618)" fill="#9ec8ff"/>
      <path id="Path_21298" data-name="Path 21298" d="M1197.781,296.522h-30.637a.4.4,0,0,0-.4.4v.008a.4.4,0,0,0,.4.4h30.637a.4.4,0,0,0,.4-.4v-.008A.4.4,0,0,0,1197.781,296.522Z" transform="translate(-976.983 -282.444)" fill="#9ec8ff"/>
      <path id="Path_21299" data-name="Path 21299" d="M1188.874,300.459h-1.012a.381.381,0,0,0-.382.383v.825a.381.381,0,0,0,.382.382h1.012a.381.381,0,0,0,.382-.382v-.825A.381.381,0,0,0,1188.874,300.459Z" transform="translate(-974.406 -281.954)" fill="#9ec8ff"/>
      <path id="Path_21300" data-name="Path 21300" d="M1191.733,300.459h-1a.381.381,0,0,0-.382.383v.825a.381.381,0,0,0,.382.382h1a.381.381,0,0,0,.382-.382v-.825A.381.381,0,0,0,1191.733,300.459Z" transform="translate(-974.049 -281.954)" fill="#9ec8ff"/>
      <path id="Path_21301" data-name="Path 21301" d="M1194.6,300.459h-1.012a.381.381,0,0,0-.382.383v.825a.381.381,0,0,0,.382.382h1.012a.388.388,0,0,0,.382-.382v-.825A.389.389,0,0,0,1194.6,300.459Z" transform="translate(-973.693 -281.954)" fill="#9ec8ff"/>
      <path id="Path_21302" data-name="Path 21302" d="M1127.76,438h-63.14a4.055,4.055,0,0,1,4.059-4.042h59.081Z" transform="translate(-989.675 -265.363)" fill="#a8ceff"/>
      <path id="Path_21303" data-name="Path 21303" d="M1124.567,441.191H1090.85l14.312-31.433a2.641,2.641,0,0,1,.956-1.1,2.574,2.574,0,0,1,1.394-.409h30.5a.961.961,0,0,1,.472.123.939.939,0,0,1,.371.337,1,1,0,0,1,.157.47,1.041,1.041,0,0,1-.09.488Z" transform="translate(-986.415 -268.558)" fill="#a8ceff"/>
      <path id="Path_21304" data-name="Path 21304" d="M1137.719,408.253h-27.837a2.593,2.593,0,0,0-2.35,1.505l-14.312,31.433h31.053l14.357-31.519a1.04,1.04,0,0,0,.09-.488,1,1,0,0,0-1-.931Z" transform="translate(-986.12 -268.558)" fill="#75a1de"/>
      <path id="Path_21305" data-name="Path 21305" d="M1119.171,424.434c-1.18,2.44-3.1,3.959-4.283,3.389s-1.181-3.01,0-5.452,3.1-3.959,4.283-3.389S1120.352,421.993,1119.171,424.434Z" transform="translate(-983.537 -267.239)" fill="#6695d6"/>
      <path id="Path_21306" data-name="Path 21306" d="M1062.031,367.888s-2.856,14.592-6.026,17.15,7.286,14.889,10.906,11.726.247-10.074.247-10.074-1.956-1.2,1.36-8.875-5.61-13.389-5.61-13.389Z" transform="translate(-990.819 -274.005)" fill="#f09959"/>
      <path id="Path_21307" data-name="Path 21307" d="M1062.294,364.428l-.877,3.459s-.394,2.03-1.057,4.708a26.065,26.065,0,0,0,5.621,11.892,20,20,0,0,1,1.922-6.671C1071.221,370.144,1062.294,364.428,1062.294,364.428Z" transform="translate(-990.204 -274.004)" fill="#e38540"/>
      <path id="Path_21308" data-name="Path 21308" d="M1079.336,374.154c-1.934,5.3-6.633,9.548-9.624,8.568-4.879-1.6-8.432-5.409-7.589-13.822.978-9.908,8.635-11.045,13.109-9.779S1081.461,368.292,1079.336,374.154Z" transform="translate(-990 -274.716)" fill="#f09959"/>
      <path id="Path_21309" data-name="Path 21309" d="M1055.931,382.739l-4.621,1.8,7.274,9.3-2.08,3.708a29.318,29.318,0,0,1,9.781,16.49,97.313,97.313,0,0,1,2.024,20.144s.562-22.058-.551-26.279C1065.622,399.734,1055.931,382.739,1055.931,382.739Z" transform="translate(-991.329 -271.729)" fill="#d54a41"/>
      <path id="Path_21310" data-name="Path 21310" d="M1065.91,384.344s5.756,14.754,6.678,18.907,1.091,24.443,1.091,24.443,2.653-17.692,1.889-22.925-1.866-9.963-1.866-9.963l-3.5-2.577s-.652-7.017-1.034-7.107S1065.91,384.344,1065.91,384.344Z" transform="translate(-989.514 -271.529)" fill="#d54a41"/>
      <path id="Path_21311" data-name="Path 21311" d="M1063.424,432.9c11.209-3.387,9.849-5.081,13.919-3.161s9.185,3.222,6.791,3.838-5.992-1.355-5.992-1.355.562,3.054-1.473,3.953-11.085,1.232-16.122-.175S1063.424,432.9,1063.424,432.9Z" transform="translate(-990.389 -265.988)" fill="#f09959"/>
      <path id="Path_21312" data-name="Path 21312" d="M1062.968,431.994h2.226l-1.113,6.324s-4.4-.654-4.059-1.091S1062.968,431.994,1062.968,431.994Z" transform="translate(-990.248 -265.607)" fill="#a2dff2"/>
      <path id="Path_21313" data-name="Path 21313" d="M1045.188,387.284c-4.362,7.633-5.756,11.8-9.32,26.08s-4.992,20.783-1.057,22.66c3.26,1.554,26.96,8.647,29.838,7.773,1.3.074,3.317-6.683,3.317-6.683l-21.575-9.6s6.251-14.872,7.33-24.642-3.721-15.593-6.127-15.593Z" transform="translate(-993.672 -271.164)" fill="#f37168"/>
      <path id="Path_21314" data-name="Path 21314" d="M1064.527,368.712c-1.057,3.305-.6,3.98-2.057,4.289s-2.8-1.139-3.227-3.169.393-3.926,1.855-4.241S1065.157,366.73,1064.527,368.712Z" transform="translate(-990.357 -273.865)" fill="#f09959"/>
      <path id="Path_21315" data-name="Path 21315" d="M1081.964,363.94c-5.723,10.14-17.078,8.651-23.981,5.162-5.633-2.843,16.055-13.618,16.055-13.618Z" transform="translate(-990.616 -275.116)" fill="#303c60"/>
      <path id="Path_21316" data-name="Path 21316" d="M1064.411,355.918c-2.114-6.379-10.8-4.872-14.739,3.616s2.091,14.161,5.734,12.083S1064.411,355.918,1064.411,355.918Z" transform="translate(-991.692 -275.551)" fill="#303c60"/>
      <path id="Path_21317" data-name="Path 21317" d="M1101.947,354.357a.6.6,0,0,1-.247-.057.707.707,0,0,1-.191-.161,38.836,38.836,0,0,1-3.182-5.064.441.441,0,0,1-.056-.2.452.452,0,0,1,.022-.211.578.578,0,0,1,.1-.187.508.508,0,0,1,.169-.134.535.535,0,0,1,.2-.06.556.556,0,0,1,.214.023.582.582,0,0,1,.191.1.725.725,0,0,1,.124.166,36.922,36.922,0,0,0,3.092,4.918.513.513,0,0,1,.112.278.531.531,0,0,1-.056.293.522.522,0,0,1-.2.219.541.541,0,0,1-.292.082Z" transform="translate(-985.493 -276.012)" fill="#fff"/>
      <path id="Path_21318" data-name="Path 21318" d="M1125.889,367.728a.341.341,0,0,1-.067,0,37.861,37.861,0,0,1-18.067-7.462.772.772,0,0,1-.146-.16.636.636,0,0,1-.067-.2.464.464,0,0,1,.011-.215.614.614,0,0,1,.1-.192.394.394,0,0,1,.157-.142.6.6,0,0,1,.2-.067.536.536,0,0,1,.214.016.571.571,0,0,1,.191.1,36.806,36.806,0,0,0,17.539,7.246.565.565,0,0,1,.214.055.484.484,0,0,1,.169.129.568.568,0,0,1,.1.184.673.673,0,0,1,.034.211.643.643,0,0,1-.056.206.548.548,0,0,1-.135.17.464.464,0,0,1-.18.107.533.533,0,0,1-.214.028Z" transform="translate(-984.341 -274.644)" fill="#fff"/>
      <path id="Path_21319" data-name="Path 21319" d="M1227.883,311.018H1128.53v55h99.353Z" transform="translate(-981.732 -280.642)" fill="#9ec8ff"/>
      <path id="Path_21320" data-name="Path 21320" d="M1224.918,312.085H1129.5v50.09h95.418Z" transform="translate(-981.611 -280.51)" fill="#fff"/>
      <g id="Group_576" data-name="Group 576" transform="translate(149.193 32.066)" opacity="0.5">
        <path id="Path_21321" data-name="Path 21321" d="M1221.356,358.189h-90.482a.239.239,0,0,1-.157-.064.25.25,0,0,1-.056-.154V312.738a.25.25,0,0,1,.056-.154.237.237,0,0,1,.157-.063h90.482a.237.237,0,0,1,.157.063.207.207,0,0,1,.068.154v45.233a.207.207,0,0,1-.068.154A.238.238,0,0,1,1221.356,358.189Zm-90.268-.436h90.055v-44.8h-90.055Z" transform="translate(-1130.66 -312.521)" fill="#9ec8ff" opacity="0.5"/>
        <path id="Path_21322" data-name="Path 21322" d="M1221.356,346.483h-90.482a.233.233,0,0,1-.157-.064.244.244,0,0,1-.056-.154.249.249,0,0,1,.056-.154.239.239,0,0,1,.157-.064h90.482a.238.238,0,0,1,.157.064.207.207,0,0,1,.068.154.2.2,0,0,1-.068.154A.233.233,0,0,1,1221.356,346.483Z" transform="translate(-1130.66 -308.354)" fill="#9ec8ff" opacity="0.5"/>
        <path id="Path_21323" data-name="Path 21323" d="M1221.356,339.778h-90.482a.239.239,0,0,1-.157-.064.239.239,0,0,1,0-.308.233.233,0,0,1,.157-.064h90.482a.233.233,0,0,1,.157.064.209.209,0,0,1,0,.308A.238.238,0,0,1,1221.356,339.778Z" transform="translate(-1130.66 -309.188)" fill="#9ec8ff" opacity="0.5"/>
        <path id="Path_21324" data-name="Path 21324" d="M1221.356,333.072h-90.482a.233.233,0,0,1-.157-.064.239.239,0,0,1,0-.308.239.239,0,0,1,.157-.064h90.482a.239.239,0,0,1,.157.064.209.209,0,0,1,0,.308A.233.233,0,0,1,1221.356,333.072Z" transform="translate(-1130.66 -310.021)" fill="#9ec8ff" opacity="0.5"/>
        <path id="Path_21325" data-name="Path 21325" d="M1221.356,326.367h-90.482a.239.239,0,0,1-.157-.064.241.241,0,0,1,0-.309.238.238,0,0,1,.157-.063h90.482a.237.237,0,0,1,.157.063.211.211,0,0,1,0,.309A.238.238,0,0,1,1221.356,326.367Z" transform="translate(-1130.66 -310.854)" fill="#9ec8ff" opacity="0.5"/>
        <path id="Path_21326" data-name="Path 21326" d="M1221.356,319.662h-90.482a.234.234,0,0,1-.157-.064.239.239,0,0,1,0-.308.239.239,0,0,1,.157-.064h90.482a.238.238,0,0,1,.157.064.209.209,0,0,1,0,.308A.233.233,0,0,1,1221.356,319.662Z" transform="translate(-1130.66 -311.688)" fill="#9ec8ff" opacity="0.5"/>
        <path id="Path_21327" data-name="Path 21327" d="M1197.945,358.189a.238.238,0,0,1-.157-.064.207.207,0,0,1-.068-.154V312.738a.207.207,0,0,1,.068-.154.228.228,0,0,1,.315,0,.25.25,0,0,1,.056.154v45.233a.25.25,0,0,1-.056.154A.239.239,0,0,1,1197.945,358.189Z" transform="translate(-1122.326 -312.521)" fill="#9ec8ff" opacity="0.5"/>
        <path id="Path_21328" data-name="Path 21328" d="M1184.524,358.189a.193.193,0,0,1-.146-.064.207.207,0,0,1-.067-.154V312.738a.207.207,0,0,1,.067-.154.192.192,0,0,1,.146-.063.2.2,0,0,1,.157.063.207.207,0,0,1,.067.154v45.233a.207.207,0,0,1-.067.154A.2.2,0,0,1,1184.524,358.189Z" transform="translate(-1123.992 -312.521)" fill="#9ec8ff" opacity="0.5"/>
        <path id="Path_21329" data-name="Path 21329" d="M1171.114,358.189a.239.239,0,0,1-.157-.064.25.25,0,0,1-.056-.154V312.738a.25.25,0,0,1,.056-.154.228.228,0,0,1,.315,0,.26.26,0,0,1,.068.154v45.233a.26.26,0,0,1-.068.154A.239.239,0,0,1,1171.114,358.189Z" transform="translate(-1125.659 -312.521)" fill="#9ec8ff" opacity="0.5"/>
        <path id="Path_21330" data-name="Path 21330" d="M1157.7,358.189a.238.238,0,0,1-.157-.064.207.207,0,0,1-.068-.154V312.738a.207.207,0,0,1,.068-.154.237.237,0,0,1,.157-.063.192.192,0,0,1,.146.063.207.207,0,0,1,.067.154v45.233a.207.207,0,0,1-.067.154A.193.193,0,0,1,1157.7,358.189Z" transform="translate(-1127.327 -312.521)" fill="#9ec8ff" opacity="0.5"/>
        <path id="Path_21331" data-name="Path 21331" d="M1144.284,358.189a.193.193,0,0,1-.146-.064.208.208,0,0,1-.068-.154V312.738a.208.208,0,0,1,.068-.154.192.192,0,0,1,.146-.063.237.237,0,0,1,.157.063.207.207,0,0,1,.067.154v45.233a.207.207,0,0,1-.067.154A.238.238,0,0,1,1144.284,358.189Z" transform="translate(-1128.993 -312.521)" fill="#9ec8ff" opacity="0.5"/>
      </g>
      <path id="Path_21332" data-name="Path 21332" d="M1130.9,358.432a.445.445,0,0,1-.427-.336.419.419,0,0,1,.034-.286.4.4,0,0,1,.2-.206l15.02-7.508,7.746-7.438,7.2-15.006a.359.359,0,0,1,.1-.137l8.185-7.271a.388.388,0,0,1,.18-.1.435.435,0,0,1,.2-.007.457.457,0,0,1,.18.085.463.463,0,0,1,.124.159l6.892,14.794,8.2,14.523,6.161-7.072a.487.487,0,0,1,.146-.108.445.445,0,0,1,.169-.043.426.426,0,0,1,.18.028.35.35,0,0,1,.146.1l7.027,7.038,7.33-21.946a.494.494,0,0,1,.112-.17l15.077-15.078a.46.46,0,0,1,.146-.094.452.452,0,0,1,.169-.034.473.473,0,0,1,.169.033.479.479,0,0,1,.146.094.579.579,0,0,1,.09.142.424.424,0,0,1,.034.166.429.429,0,0,1-.034.168.579.579,0,0,1-.09.142l-15.02,15-7.533,22.519a.425.425,0,0,1-.124.184.4.4,0,0,1-.191.1.465.465,0,0,1-.225-.006.383.383,0,0,1-.18-.111l-7.2-7.207-6.262,7.185a.5.5,0,0,1-.169.119.464.464,0,0,1-.214.028.407.407,0,0,1-.191-.07.437.437,0,0,1-.135-.151l-8.511-15.078c0-.009-.011-.019-.011-.029l-6.656-14.277-7.679,6.827-7.184,15a.359.359,0,0,1-.1.126l-7.847,7.538a.378.378,0,0,1-.112.076l-15.077,7.538A.434.434,0,0,1,1130.9,358.432Z" transform="translate(-981.492 -280.48)" fill="#f39892"/>
      <path id="Path_21333" data-name="Path 21333" d="M1130.9,358.43a.466.466,0,0,1-.247-.073.456.456,0,0,1-.157-.195.381.381,0,0,1-.022-.25.425.425,0,0,1,.112-.224l22.115-22.616a.437.437,0,0,1,.3-.132.466.466,0,0,1,.315.118l7.735,7.249,14.784-14.779a.434.434,0,0,1,.3-.128.427.427,0,0,1,.3.121l7.533,7.238,6.925-7.222a.5.5,0,0,1,.146-.1.476.476,0,0,1,.169-.036.471.471,0,0,1,.315.128l14.649,14.644,14.807-29.612a.447.447,0,0,1,.585-.178.417.417,0,0,1,.214.243.46.46,0,0,1-.011.324L1206.7,343.108a.467.467,0,0,1-.135.156.459.459,0,0,1-.191.078.443.443,0,0,1-.2-.017.5.5,0,0,1-.18-.108l-14.762-14.755-6.926,7.217a.442.442,0,0,1-.135.1.48.48,0,0,1-.169.037.494.494,0,0,1-.169-.03.472.472,0,0,1-.146-.092l-7.544-7.241-14.773,14.774a.444.444,0,0,1-.3.128.429.429,0,0,1-.3-.118l-7.735-7.247L1131.2,358.3a.338.338,0,0,1-.135.1A.475.475,0,0,1,1130.9,358.43Z" transform="translate(-981.492 -280.478)" fill="#9ec8ff"/>
      <path id="Path_21334" data-name="Path 21334" d="M1108.559,291.615h31.975a1.065,1.065,0,0,1,.753.316,1.084,1.084,0,0,1,.326.761v41.556a7.13,7.13,0,0,1-7.139,7.12H1107.48V292.692a1.077,1.077,0,0,1,1.079-1.077Z" transform="translate(-984.348 -283.054)" fill="#9ec8ff"/>
      <path id="Path_21335" data-name="Path 21335" d="M1108.843,292.364h30.547a1.018,1.018,0,0,1,.72.3,1.031,1.031,0,0,1,.3.723v39.747a6.758,6.758,0,0,1-6.779,6.76H1107.82V293.386a1.159,1.159,0,0,1,.079-.391,1.007,1.007,0,0,1,.225-.332.909.909,0,0,1,.337-.221A.988.988,0,0,1,1108.843,292.364Z" transform="translate(-984.306 -282.961)" fill="#fff"/>
      <path id="Path_21336" data-name="Path 21336" d="M1128.727,326.2v-.859a1.15,1.15,0,0,0-1.057-1.224h-32.683a1.147,1.147,0,0,0-1.057,1.224v.857c0,6.077,4.261,11,9.523,11h33.391C1131.582,337.2,1128.659,332.828,1128.727,326.2Z" transform="translate(-986.032 -279.015)" fill="#9ec8ff"/>
      <path id="Path_21337" data-name="Path 21337" d="M1127.773,326.912v-.694a1.093,1.093,0,0,0-.079-.379,1.144,1.144,0,0,0-.214-.322.947.947,0,0,0-.326-.215.986.986,0,0,0-.382-.075h-30.6a1.028,1.028,0,0,0-.382.075,1.018,1.018,0,0,0-.315.215.809.809,0,0,0-.214.322.884.884,0,0,0-.079.379v.694a8.9,8.9,0,0,0,8.916,8.9h32.593C1131.764,335.813,1127.773,333.434,1127.773,326.912Z" transform="translate(-985.877 -278.876)" fill="#fff"/>
      <path id="Path_21338" data-name="Path 21338" d="M1136.492,311.693h-23.284a1.34,1.34,0,0,1-1.338-1.332V297.742a1.34,1.34,0,0,1,1.338-1.335h23.284a1.365,1.365,0,0,1,.944.392,1.334,1.334,0,0,1,.382.942V310.36a1.333,1.333,0,0,1-.382.941A1.359,1.359,0,0,1,1136.492,311.693Zm-23.284-14.849a.91.91,0,0,0-.9.9V310.36a.9.9,0,0,0,.27.633.889.889,0,0,0,.63.263h23.284a.891.891,0,0,0,.888-.9V297.742a.893.893,0,0,0-.888-.9Z" transform="translate(-983.802 -282.458)" fill="#9ec8ff"/>
      <path id="Path_21339" data-name="Path 21339" d="M1129.792,315.6H1104.2a.659.659,0,1,1,0-1.319h25.589a.659.659,0,0,1,0,1.319Z" transform="translate(-984.838 -280.237)" fill="#9ec8ff"/>
      <path id="Path_21340" data-name="Path 21340" d="M1129.792,317.738H1104.2a.665.665,0,0,1-.472-.193.665.665,0,0,1,0-.933.665.665,0,0,1,.472-.193h25.589a.66.66,0,0,1,0,1.32Z" transform="translate(-984.838 -279.971)" fill="#9ec8ff"/>
      <path id="Path_21341" data-name="Path 21341" d="M1129.792,319.8H1104.2a.665.665,0,0,1-.472-.193.665.665,0,0,1,0-.933.665.665,0,0,1,.472-.193h25.589a.66.66,0,0,1,0,1.32Z" transform="translate(-984.838 -279.714)" fill="#9ec8ff"/>
      <path id="Path_21342" data-name="Path 21342" d="M1128.252,298.194h-.866a.326.326,0,0,0-.326.326v.7a.325.325,0,0,0,.326.326h.866a.326.326,0,0,0,.326-.326v-.7A.326.326,0,0,0,1128.252,298.194Z" transform="translate(-981.915 -282.236)" fill="#9ec8ff"/>
      <path id="Path_21343" data-name="Path 21343" d="M1130.692,298.194h-.854a.329.329,0,0,0-.337.326v.7a.328.328,0,0,0,.337.326h.854a.326.326,0,0,0,.326-.326v-.7A.326.326,0,0,0,1130.692,298.194Z" transform="translate(-981.611 -282.236)" fill="#9ec8ff"/>
      <path id="Path_21344" data-name="Path 21344" d="M1133.13,298.194h-.854a.326.326,0,0,0-.326.326v.7a.326.326,0,0,0,.326.326h.854a.326.326,0,0,0,.326-.326v-.7A.326.326,0,0,0,1133.13,298.194Z" transform="translate(-981.307 -282.236)" fill="#9ec8ff"/>
      <path id="Path_21345" data-name="Path 21345" d="M1117.58,303.2h-3.44v5.675h3.44Z" transform="translate(-983.52 -281.613)" fill="#9ec8ff"/>
      <path id="Path_21346" data-name="Path 21346" d="M1126.03,303.626h-3.44v5.2h3.44Z" transform="translate(-982.47 -281.561)" fill="#9ec8ff"/>
      <path id="Path_21347" data-name="Path 21347" d="M1130.922,301.56h-3.452v7.526h3.452Z" transform="translate(-981.864 -281.818)" fill="#9ec8ff"/>
      <path id="Path_21348" data-name="Path 21348" d="M1121.72,305.2h-3.44v3.438h3.44Z" transform="translate(-983.006 -281.366)" fill="#9ec8ff"/>
      <path id="Path_21349" data-name="Path 21349" d="M1298.736,343.077H1311a12.266,12.266,0,1,1-12.266-12.238Z" transform="translate(-962.103 -278.179)" fill="#9ec8ff"/>
      <path id="Path_21350" data-name="Path 21350" d="M1311.476,341.553a12.262,12.262,0,0,0-12.266-12.239v12.239Z" transform="translate(-960.52 -278.368)" fill="#f39892"/>
      <path id="Path_21351" data-name="Path 21351" d="M1288.3,340.2a12.243,12.243,0,0,0,12.266,12.239A12.308,12.308,0,0,1,1288.3,340.2Z" transform="translate(-961.875 -277.015)" fill="#f39892"/>
      <path id="Path_21352" data-name="Path 21352" d="M1300.566,329.314a12.243,12.243,0,0,0-12.266,12.239A12.308,12.308,0,0,1,1300.566,329.314Z" transform="translate(-961.875 -278.368)" fill="#f39892"/>
      <path id="Path_21353" data-name="Path 21353" d="M1299.21,352.439a12.262,12.262,0,0,0,12.266-12.239A12.315,12.315,0,0,1,1299.21,352.439Z" transform="translate(-960.52 -277.015)" fill="#f39892"/>
      <path id="Path_21354" data-name="Path 21354" d="M1165.318,320.843a1.084,1.084,0,1,0-1.3-.807A1.087,1.087,0,0,0,1165.318,320.843Z" transform="translate(-977.326 -279.687)" fill="#f39892"/>
      <path id="Path_21355" data-name="Path 21355" d="M1150.939,334.015a1.086,1.086,0,1,0-1.315-.806A1.094,1.094,0,0,0,1150.939,334.015Z" transform="translate(-979.114 -278.05)" fill="#9ec8ff"/>
      <path id="Path_21356" data-name="Path 21356" d="M1171.211,327.33a1.085,1.085,0,1,0-1.091-1.085A1.092,1.092,0,0,0,1171.211,327.33Z" transform="translate(-976.563 -278.885)" fill="#9ec8ff"/>
      <path id="Path_21357" data-name="Path 21357" d="M1184.619,327.33a1.085,1.085,0,1,0-1.079-1.085A1.085,1.085,0,0,0,1184.619,327.33Z" transform="translate(-974.895 -278.885)" fill="#9ec8ff"/>
      <path id="Path_21358" data-name="Path 21358" d="M1198.041,327.33a1.085,1.085,0,1,0-1.091-1.085A1.082,1.082,0,0,0,1198.041,327.33Z" transform="translate(-973.229 -278.885)" fill="#f39892"/>
      <path id="Path_21359" data-name="Path 21359" d="M1105.107,340.541a5.861,5.861,0,1,0-8.3,0A5.842,5.842,0,0,0,1105.107,340.541Z" transform="translate(-985.888 -278.215)" fill="#9cd499"/>
      <path id="Path_21360" data-name="Path 21360" d="M1100,338.013h-.011a.287.287,0,0,1-.124-.031.344.344,0,0,1-.113-.078l-1.6-1.8a.362.362,0,0,1-.056-.11.293.293,0,0,1,.011-.251.388.388,0,0,1,.079-.1.308.308,0,0,1,.112-.064.316.316,0,0,1,.247.015.226.226,0,0,1,.1.078l1.372,1.548,3.159-3.084a.313.313,0,0,1,.225-.093.349.349,0,0,1,.236.1.352.352,0,0,1,.09.233.306.306,0,0,1-.1.23l-3.4,3.325A.348.348,0,0,1,1100,338.013Z" transform="translate(-985.516 -277.782)" fill="#fff"/>
      <path id="Path_21361" data-name="Path 21361" d="M1030.373,294H1027v37.1h3.373Z" transform="translate(-994.35 -282.757)" fill="#9ec8ff"/>
      <path id="Path_21362" data-name="Path 21362" d="M1045.5,304H1041v25.858h4.5Z" transform="translate(-992.61 -281.514)" fill="#9ec8ff"/>
      <path id="Path_21363" data-name="Path 21363" d="M1052.373,294H1049v37.1h3.373Z" transform="translate(-991.616 -282.757)" fill="#9ec8ff"/>
      <path id="Path_21364" data-name="Path 21364" d="M1059.373,316H1056v12.367h3.373Z" transform="translate(-990.746 -280.023)" fill="#9ec8ff"/>
      <path id="Path_21365" data-name="Path 21365" d="M1037.373,284H1034v48.344h3.373Z" transform="translate(-993.48 -284)" fill="#9ec8ff"/>
      <path id="Path_21366" data-name="Path 21366" d="M1067.5,304H1063v25.858h4.5Z" transform="translate(-989.876 -281.514)" fill="#9ec8ff"/>
      <path id="Path_21367" data-name="Path 21367" d="M1244.251,306.105h-3.9v11.278h3.9Z" transform="translate(-967.835 -281.253)" fill="#9ec8ff"/>
      <path id="Path_21368" data-name="Path 21368" d="M1288.792,309.368h-3.912v7.608h3.912Z" transform="translate(-962.301 -280.847)" fill="#9ec8ff"/>
      <path id="Path_21369" data-name="Path 21369" d="M1258.983,292.665h-3.913v26.387h3.913Z" transform="translate(-966.005 -282.923)" fill="#9ec8ff"/>
      <path id="Path_21370" data-name="Path 21370" d="M1266.343,305.586h-3.912v11.861h3.912Z" transform="translate(-965.091 -281.317)" fill="#9ec8ff"/>
      <path id="Path_21371" data-name="Path 21371" d="M1273.7,302.6h-3.9v15.218h3.9Z" transform="translate(-964.175 -281.688)" fill="#9ec8ff"/>
      <path id="Path_21372" data-name="Path 21372" d="M1251.611,299.481h-3.9V318.2h3.9Z" transform="translate(-966.92 -282.076)" fill="#9ec8ff"/>
      <path id="Path_21373" data-name="Path 21373" d="M1281.093,295.623h-3.912v23.061h3.912Z" transform="translate(-963.258 -282.555)" fill="#9ec8ff"/>
      <path id="Path_21374" data-name="Path 21374" d="M1029.8,364.256l-14.053-8.573-2.541,16.235a16.486,16.486,0,0,0,16.594-7.662Z" transform="translate(-996.064 -275.091)" fill="#a2dff2"/>
      <path id="Path_21375" data-name="Path 21375" d="M1029.545,365.094l.079-.144a16.418,16.418,0,0,0,.371-16.174c-4.981,2.6-2.013,1.02-14.514,7.765C1029.545,365.125,1027.364,363.8,1029.545,365.094Z" transform="translate(-995.782 -275.95)" fill="#9cd499"/>
      <path id="Path_21376" data-name="Path 21376" d="M1001.74,351.82l15.436,5.678,14.492-7.816C1024.9,337.178,1006.653,338.677,1001.74,351.82Z" transform="translate(-997.489 -276.905)" fill="#9ec8ff"/>
      <path id="Path_21377" data-name="Path 21377" d="M1014.761,372.545l2.53-16.235-15.436-5.678A16.463,16.463,0,0,0,1014.761,372.545Z" transform="translate(-997.604 -275.719)" fill="#f39892"/>
      <path id="Path_21378" data-name="Path 21378" d="M1032.146,365.945a16.955,16.955,0,0,0,.427-15.978h.011l-.259-.479-.023-.029-.2-.395h-.011a16.827,16.827,0,0,0-6.791-6.569,17.156,17.156,0,0,0-23.689,8.688h-.011l-.2.507-.191.513h.011a16.753,16.753,0,0,0,1.439,13.848,17.048,17.048,0,0,0,11.535,8.177v.01l.54.085.54.085v-.01a17.054,17.054,0,0,0,16.325-7.559l.011.007.1-.175.18-.286.079-.128.011-.019v-.015l.18-.282Zm-1.641-14.824,1.136-.591a15.88,15.88,0,0,1-.416,14.829l-.1-.062c-.585-.338-.832-.486-1.967-1.183l-10.7-6.53,8.882-4.8C1028.638,352.093,1029.178,351.813,1030.5,351.122Zm-27.882.436a15.954,15.954,0,0,1,28.478-2.035l-4.283,2.312c-.888.474-2.114,1.141-4.182,2.256l-5.127,2.767-.135.072-.427-.263-.022.15-6.768-2.487Zm.978,13.947a15.7,15.7,0,0,1-1.36-12.925l10.175,3.748,4.34,1.592-2.395,15.244a15.977,15.977,0,0,1-10.759-7.656Zm11.839,7.82,2.327-14.879,6.071,3.7c2.44,1.491,3.834,2.345,4.722,2.88l2.091,1.277a15.877,15.877,0,0,1-15.212,7.026Z" transform="translate(-997.663 -276.966)" fill="#e7f3fe"/>
      <path id="Path_21379" data-name="Path 21379" d="M1007.764,387.632a4.9,4.9,0,1,1-1.439-3.459A4.875,4.875,0,0,1,1007.764,387.632Z" transform="translate(-997.959 -271.729)" fill="#9ec8ff"/>
      <path id="Path_21380" data-name="Path 21380" d="M1006.074,387.555a2.456,2.456,0,0,1-2.934,2.407,2.459,2.459,0,0,1-1.934-1.928,2.444,2.444,0,0,1,.135-1.418,2.5,2.5,0,0,1,.911-1.1,2.457,2.457,0,0,1,3.823,2.041Z" transform="translate(-997.562 -271.435)" fill="#fff"/>
      <path id="Path_21381" data-name="Path 21381" d="M1302.814,370.481h-12.176a3.235,3.235,0,0,0-3.238,3.231v12.146a3.235,3.235,0,0,0,3.238,3.231h12.176a3.235,3.235,0,0,0,3.238-3.231V373.712A3.235,3.235,0,0,0,1302.814,370.481Z" transform="translate(-961.987 -273.252)" fill="#9ec8ff"/>
      <path id="Path_21382" data-name="Path 21382" d="M1307.925,392.227h-12.176a3.789,3.789,0,0,1-3.789-3.775V376.305a3.791,3.791,0,0,1,3.789-3.775h12.176a3.77,3.77,0,0,1,2.664,1.107,3.73,3.73,0,0,1,1.113,2.668v12.146a3.735,3.735,0,0,1-1.113,2.67A3.774,3.774,0,0,1,1307.925,392.227Zm-12.176-18.6a2.679,2.679,0,0,0-1.9.787,2.733,2.733,0,0,0-.8,1.9v12.143a2.729,2.729,0,0,0,.8,1.9,2.679,2.679,0,0,0,1.9.787h12.176a2.7,2.7,0,0,0,1.9-.787,2.671,2.671,0,0,0,.787-1.9V376.3a2.687,2.687,0,0,0-2.687-2.685Z" transform="translate(-961.421 -272.997)" fill="#fff"/>
      <path id="Path_21383" data-name="Path 21383" d="M1110.809,388.618l-3.114-3.575a1.308,1.308,0,0,1,.135-1.845l3.586-3.1a1.26,1.26,0,0,1,.438-.253,1.337,1.337,0,0,1,.517-.064,1.233,1.233,0,0,1,.484.135,1.27,1.27,0,0,1,.4.313l3.114,3.575a1.336,1.336,0,0,1,.247.444,1.29,1.29,0,0,1,.068.506,1.3,1.3,0,0,1-.45.9l-3.587,3.1a1.261,1.261,0,0,1-.438.253,1.331,1.331,0,0,1-.506.064,1.252,1.252,0,0,1-.495-.135A1.273,1.273,0,0,1,1110.809,388.618Z" transform="translate(-984.361 -272.097)" fill="#9ec8ff"/>
      <path id="Path_21384" data-name="Path 21384" d="M1127.626,390.6a2.741,2.741,0,0,1-1.687,2.53,2.759,2.759,0,0,1-1.585.156,2.738,2.738,0,0,1,.528-5.424,2.761,2.761,0,0,1,1.945.8A2.72,2.72,0,0,1,1127.626,390.6Z" transform="translate(-982.526 -271.091)" fill="#9ec8ff"/>
      <path id="Path_21385" data-name="Path 21385" d="M1336.453,383.06a2.7,2.7,0,0,1-.461,1.514,2.655,2.655,0,0,1-1.225,1,2.73,2.73,0,0,1-1.574.155,2.766,2.766,0,0,1-1.405-.747,2.734,2.734,0,0,1,.416-4.194,2.739,2.739,0,0,1,3.452.338A2.7,2.7,0,0,1,1336.453,383.06Z" transform="translate(-956.569 -272.028)" fill="#9ec8ff"/>
      <path id="Path_21386" data-name="Path 21386" d="M1273.564,333.592a2.734,2.734,0,0,1-3.271,2.674,2.731,2.731,0,0,1-1.394-.747,2.714,2.714,0,0,1,.416-4.194,2.737,2.737,0,0,1,4.25,2.267Z" transform="translate(-964.386 -278.175)" fill="#9ec8ff"/>
      <path id="Path_21387" data-name="Path 21387" d="M1319.769,363.927a2.135,2.135,0,1,0-2.451,1.758A2.139,2.139,0,0,0,1319.769,363.927Z" transform="translate(-958.492 -274.373)" fill="#9ec8ff"/>
      <path id="Path_21388" data-name="Path 21388" d="M1256.7,321.1h-45.308a.887.887,0,0,0-.888.89v19.451a.887.887,0,0,0,.888.892H1256.7a.887.887,0,0,0,.888-.892V321.993A.887.887,0,0,0,1256.7,321.1Z" transform="translate(-971.545 -279.389)" fill="#9ec8ff"/>
      <path id="Path_21389" data-name="Path 21389" d="M1255.431,326.064h-43.071a.723.723,0,0,0-.719.721V340a.722.722,0,0,0,.719.72h43.071a.724.724,0,0,0,.731-.72V326.785A.725.725,0,0,0,1255.431,326.064Z" transform="translate(-971.403 -278.772)" fill="#fff"/>
      <path id="Path_21390" data-name="Path 21390" d="M1213.67,322.492h-1.046a.4.4,0,0,0-.4.4v.859a.4.4,0,0,0,.4.4h1.046a.4.4,0,0,0,.4-.4v-.859A.4.4,0,0,0,1213.67,322.492Z" transform="translate(-971.331 -279.216)" fill="#fff"/>
      <path id="Path_21391" data-name="Path 21391" d="M1216.649,322.492H1215.6a.4.4,0,0,0-.394.4v.859a.4.4,0,0,0,.394.4h1.046a.4.4,0,0,0,.4-.4v-.859A.4.4,0,0,0,1216.649,322.492Z" transform="translate(-970.959 -279.216)" fill="#fff"/>
      <path id="Path_21392" data-name="Path 21392" d="M1219.64,322.492h-1.046a.4.4,0,0,0-.4.4v.859a.4.4,0,0,0,.4.4h1.046a.4.4,0,0,0,.393-.4v-.859A.4.4,0,0,0,1219.64,322.492Z" transform="translate(-970.589 -279.216)" fill="#fff"/>
      <path id="Path_21393" data-name="Path 21393" d="M1252.308,329.077h-23.554a.687.687,0,0,1-.472-.216.688.688,0,0,1,0-.975.687.687,0,0,1,.472-.216h23.554a.737.737,0,0,1,.484.216.717.717,0,0,1,0,.975A.737.737,0,0,1,1252.308,329.077Z" transform="translate(-969.36 -278.573)" fill="#9ec8ff"/>
      <path id="Path_21394" data-name="Path 21394" d="M1236.553,338.722h-23.542a.744.744,0,0,1-.281-.046.665.665,0,0,1-.236-.15.675.675,0,0,1-.157-.232.776.776,0,0,1-.056-.275.766.766,0,0,1,.056-.275.655.655,0,0,1,.157-.232.667.667,0,0,1,.236-.151.722.722,0,0,1,.281-.045h23.542a.691.691,0,0,1,.281.045.668.668,0,0,1,.236.151.651.651,0,0,1,.157.232.7.7,0,0,1,0,.551.688.688,0,0,1-.393.381A.711.711,0,0,1,1236.553,338.722Z" transform="translate(-971.323 -277.374)" fill="#9ec8ff"/>
      <path id="Path_21395" data-name="Path 21395" d="M1238.026,337.317h-2.44a.242.242,0,0,0-.236.24v.925a.243.243,0,0,0,.236.241h2.44a.236.236,0,0,0,.236-.241v-.925A.235.235,0,0,0,1238.026,337.317Z" transform="translate(-968.456 -277.374)" fill="#9ec8ff"/>
      <path id="Path_21396" data-name="Path 21396" d="M1238.856,337.317h2.44a.231.231,0,0,1,.169.07.237.237,0,0,1,.067.17v.924a.237.237,0,0,1-.067.17.232.232,0,0,1-.169.071h-2.44a.251.251,0,0,1-.168-.071.239.239,0,0,1-.068-.171v-.923a.237.237,0,0,1,.068-.17A.23.23,0,0,1,1238.856,337.317Z" transform="translate(-968.05 -277.374)" fill="#9ec8ff"/>
      <path id="Path_21397" data-name="Path 21397" d="M1254.185,331.752h-38.99a.492.492,0,0,1-.191-.029.512.512,0,0,1-.27-.26.541.541,0,0,1,0-.377.483.483,0,0,1,.112-.157.489.489,0,0,1,.157-.1.515.515,0,0,1,.191-.03h38.99a.476.476,0,0,1,.326.148.469.469,0,0,1,0,.659A.47.47,0,0,1,1254.185,331.752Z" transform="translate(-971.023 -278.184)" fill="#9ec8ff"/>
      <path id="Path_21398" data-name="Path 21398" d="M1254.185,333.582h-38.99a.493.493,0,0,1-.191-.029.475.475,0,0,1-.157-.1.46.46,0,0,1-.112-.157.531.531,0,0,1-.034-.188.522.522,0,0,1,.034-.188.475.475,0,0,1,.112-.159.49.49,0,0,1,.157-.1.516.516,0,0,1,.191-.03h38.99a.475.475,0,0,1,.326.148.469.469,0,0,1,0,.659A.469.469,0,0,1,1254.185,333.582Z" transform="translate(-971.023 -277.957)" fill="#9ec8ff"/>
      <path id="Path_21399" data-name="Path 21399" d="M1074.833,334.916h-38.866a.708.708,0,0,1-.495-.22.718.718,0,0,1,0-1,.713.713,0,0,1,.495-.22h38.855a.713.713,0,0,1,.495.22.718.718,0,0,1,0,1,.708.708,0,0,1-.495.22Z" transform="translate(-993.322 -277.851)" fill="#9ec8ff"/>
      <path id="Path_21400" data-name="Path 21400" d="M1074.833,338.116h-38.866a.713.713,0,0,1-.495-.22.72.72,0,0,1,.495-1.22h38.855a.7.7,0,0,1,.495.22.718.718,0,0,1,0,1,.713.713,0,0,1-.495.22Z" transform="translate(-993.322 -277.453)" fill="#9ec8ff"/>
      <path id="Path_21401" data-name="Path 21401" d="M1206.229,386.931a27.227,27.227,0,0,0,.169-3.029c0-.54-.011-1.076-.045-1.609l-5.014-1.619a21.922,21.922,0,0,0-1.776-6l3.328-4.089a27.5,27.5,0,0,0-2.642-3.816l-5.014,1.636a22.3,22.3,0,0,0-4.969-3.809l.292-5.259a26.891,26.891,0,0,0-4.385-1.549l-3.1,4.266a22.385,22.385,0,0,0-6.262-.163l-2.867-4.424a26.706,26.706,0,0,0-4.452,1.309v5.268a22.2,22.2,0,0,0-5.16,3.543l-4.913-1.894a25.985,25.985,0,0,0-2.833,3.676l3.1,4.253a21.582,21.582,0,0,0-2.091,5.895l-5.1,1.351a27.3,27.3,0,0,0-.168,3.029c0,.545.022,1.078.056,1.61l5.014,1.619a21.935,21.935,0,0,0,1.777,6l-3.328,4.083a27.458,27.458,0,0,0,2.631,3.817l5.025-1.636a22.264,22.264,0,0,0,4.958,3.81l-.281,5.258a26.8,26.8,0,0,0,4.385,1.549l3.092-4.266a22.383,22.383,0,0,0,3.721.31,23,23,0,0,0,2.552-.146l2.867,4.423a27.144,27.144,0,0,0,4.452-1.308l-.011-5.268a22.265,22.265,0,0,0,5.172-3.543l4.913,1.9a26.922,26.922,0,0,0,2.833-3.678l-3.1-4.253a21.982,21.982,0,0,0,2.091-5.895Zm-26.87,7.554a10.573,10.573,0,1,1,10.6-10.583,10.433,10.433,0,0,1-.8,4.051,10.628,10.628,0,0,1-2.3,3.434,10.453,10.453,0,0,1-3.44,2.294A10.6,10.6,0,0,1,1179.359,394.485Z" transform="translate(-978.775 -274.869)" fill="#9ec8ff" opacity="0.5"/>
      <path id="Path_21402" data-name="Path 21402" d="M1189.3,393.917a.562.562,0,0,1-.292-.084.54.54,0,0,1-.2-.229.467.467,0,0,1-.045-.3.613.613,0,0,1,.112-.279,17.707,17.707,0,0,0,3.137-17.1.447.447,0,0,1-.022-.211.643.643,0,0,1,.045-.206.558.558,0,0,1,.135-.169.549.549,0,0,1,.18-.108.561.561,0,0,1,.214-.028.544.544,0,0,1,.214.054.881.881,0,0,1,.169.128.568.568,0,0,1,.1.184,18.784,18.784,0,0,1-3.328,18.152.455.455,0,0,1-.191.145A.492.492,0,0,1,1189.3,393.917Z" transform="translate(-974.247 -272.665)" fill="#fff"/>
      <path id="Path_21403" data-name="Path 21403" d="M1188.627,370.182a.545.545,0,0,1-.371-.148,17.775,17.775,0,0,0-6.116-3.76.457.457,0,0,1-.18-.109.573.573,0,0,1-.135-.172.669.669,0,0,1-.022-.419.893.893,0,0,1,.112-.183.65.65,0,0,1,.18-.126.539.539,0,0,1,.416-.016,18.778,18.778,0,0,1,6.5,3.991.542.542,0,0,1,.157.279.521.521,0,0,1-.034.319.489.489,0,0,1-.191.25A.589.589,0,0,1,1188.627,370.182Z" transform="translate(-975.114 -273.907)" fill="#fff"/>
      <path id="Path_21404" data-name="Path 21404" d="M1172.77,365.892a.538.538,0,0,1-.36-.137.514.514,0,0,1-.18-.341.551.551,0,0,1,.09-.375.561.561,0,0,1,.315-.22,19.043,19.043,0,0,1,4.632-.572.533.533,0,0,1,.382.16.526.526,0,0,1,0,.771.533.533,0,0,1-.382.16,17.885,17.885,0,0,0-4.362.539A.557.557,0,0,1,1172.77,365.892Z" transform="translate(-976.301 -274.027)" fill="#fff"/>
    </g>
  </g>
</svg>
