<svg xmlns="http://www.w3.org/2000/svg" width="48.5" height="49.84" viewBox="0 0 48.5 49.84">
  <g id="seo_ICON" data-name="seo ICON" transform="translate(-7.5 0.5)">
    <g id="Group_257" data-name="Group 257" transform="translate(29.288 8)">
      <g id="Group_256" data-name="Group 256" transform="translate(0 0)">
        <rect id="Rectangle_147" data-name="Rectangle 147" width="22" height="1" fill="none" stroke="#000" stroke-width="1"/>
      </g>
    </g>
    <g id="Group_259" data-name="Group 259" transform="translate(29.182 11)">
      <g id="Group_258" data-name="Group 258" transform="translate(0 0)">
        <rect id="Rectangle_148" data-name="Rectangle 148" width="14" height="1" fill="none" stroke="#000" stroke-width="1"/>
      </g>
    </g>
    <g id="Group_261" data-name="Group 261" transform="translate(29.182 14)">
      <g id="Group_260" data-name="Group 260" transform="translate(0 0)">
        <rect id="Rectangle_149" data-name="Rectangle 149" width="14" height="1" fill="none" stroke="#000" stroke-width="1"/>
      </g>
    </g>
    <g id="Group_263" data-name="Group 263" transform="translate(36.288 4)">
      <g id="Group_262" data-name="Group 262" transform="translate(0 0)">
        <rect id="Rectangle_150" data-name="Rectangle 150" width="15" height="2" fill="none" stroke="#000" stroke-width="1"/>
      </g>
    </g>
    <g id="Group_265" data-name="Group 265" transform="translate(33.156 4)">
      <g id="Group_264" data-name="Group 264" transform="translate(0 0)">
        <rect id="Rectangle_151" data-name="Rectangle 151" width="1" height="2" fill="none" stroke="#000" stroke-width="1"/>
      </g>
    </g>
    <g id="Group_267" data-name="Group 267" transform="translate(31.147 33)">
      <g id="Group_266" data-name="Group 266" transform="translate(0 0)">
        <rect id="Rectangle_152" data-name="Rectangle 152" width="2" height="1" fill="none" stroke="#000" stroke-width="1"/>
      </g>
    </g>
    <g id="Group_269" data-name="Group 269" transform="translate(17.832 4.308)">
      <g id="Group_268" data-name="Group 268" transform="translate(0)">
        <path id="Path_20593" data-name="Path 20593" d="M107.019,43.495l-1.151-1.151-1.628,1.628a.814.814,0,0,0,0,1.151l1.628,1.628,1.151-1.151-1.053-1.052Z" transform="translate(-104.002 -42.344)" fill="none" stroke="#000" stroke-width="1"/>
      </g>
    </g>
    <g id="Group_271" data-name="Group 271" transform="translate(24.626 4.308)">
      <g id="Group_270" data-name="Group 270">
        <path id="Path_20594" data-name="Path 20594" d="M173.123,43.972,171.5,42.344l-1.151,1.151,1.053,1.053L170.344,45.6l1.151,1.151,1.628-1.628A.814.814,0,0,0,173.123,43.972Z" transform="translate(-170.344 -42.344)" fill="none" stroke="#000" stroke-width="1"/>
      </g>
    </g>
    <g id="Group_273" data-name="Group 273" transform="translate(21.15 3.812)">
      <g id="Group_272" data-name="Group 272" transform="translate(0)">
        <rect id="Rectangle_153" data-name="Rectangle 153" width="5.149" height="1.627" transform="translate(0 4.884) rotate(-71.549)" fill="none" stroke="#000" stroke-width="1"/>
      </g>
    </g>
    <g id="Group_275" data-name="Group 275" transform="translate(33.522 17.094)">
      <g id="Group_274" data-name="Group 274" transform="translate(0)">
        <path id="Path_20595" data-name="Path 20595" d="M272.28,176.14v-6.512h-1.628v6.512h-1.628V168H267.4v8.14h-1.628v-4.07H264.14v4.07h-1.628v-4.884h-1.628v4.884h-1.628v-3.256h-1.628v3.256H256v1.628h17.908V176.14Z" transform="translate(-256 -168)" fill="none" stroke="#000" stroke-width="1"/>
      </g>
    </g>
    <g id="Group_277" data-name="Group 277" transform="translate(8)">
      <g id="Group_276" data-name="Group 276" transform="translate(0)">
        <path id="Path_20596" data-name="Path 20596" d="M50.586,0H12.914A4.9,4.9,0,0,0,8,4.884V32.56a4.9,4.9,0,0,0,4.914,4.884h10.14l-3.276,6.512H15.371a2.442,2.442,0,1,0,0,4.884H48.129a2.442,2.442,0,1,0,0-4.884H43.722l-3.276-6.512h10.14A4.9,4.9,0,0,0,55.5,32.56V4.884A4.9,4.9,0,0,0,50.586,0ZM9.638,11.453l1.862,2.2a.821.821,0,0,0,.627.291h2.507a.821.821,0,0,0,.627-.291l1.862-2.2,1.838.593.2,2.868a.813.813,0,0,0,.335.6l2.029,1.465a.828.828,0,0,0,.68.131l2.812-.694,1.137,1.554-1.532,2.442a.81.81,0,0,0-.08.683l.776,2.37a.816.816,0,0,0,.471.5l2.685,1.082v1.921l-2.686,1.082a.811.811,0,0,0-.471.5l-.246.746H20.353a7.643,7.643,0,0,0-3.635-10.218,7.752,7.752,0,0,0-7.081.223Zm0,9.792a6.108,6.108,0,0,1,8.538,1.048,6.017,6.017,0,0,1,.307,7.01H9.638ZM48.129,45.584a.814.814,0,1,1,0,1.628H15.371a.814.814,0,1,1,0-1.628ZM41.89,43.956H21.61l3.276-6.512H38.615Zm11.972-11.4a3.266,3.266,0,0,1-3.276,3.256H12.914A3.266,3.266,0,0,1,9.638,32.56V30.932H53.862Zm0-3.256H27.045l2.556-1.03a.814.814,0,0,0,.511-.754V24.5a.814.814,0,0,0-.511-.755L26.754,22.6l-.539-1.648,1.623-2.589a.81.81,0,0,0-.033-.908l-1.785-2.442a.821.821,0,0,0-.86-.312l-2.978.733L20.776,14.42l-.215-3.036A.815.815,0,0,0,20,10.667l-2.887-.933a.829.829,0,0,0-.88.252l-1.971,2.332H12.511L10.539,9.985a.829.829,0,0,0-.881-.252l-.02.007V4.884a3.266,3.266,0,0,1,3.276-3.256H50.586a3.266,3.266,0,0,1,3.276,3.256Z" transform="translate(-8)" fill="none" stroke="#000" stroke-width="1"/>
      </g>
    </g>
  </g>
</svg>
