<svg xmlns="http://www.w3.org/2000/svg" viewBox="0 0 333.64 143.61"><defs><style>.cls-1{fill:#3599f7;}.cls-2,.cls-3,.cls-4,.cls-5,.cls-6{fill:#fff;}.cls-3,.cls-4,.cls-5,.cls-6{stroke:#fff;stroke-miterlimit:10;}.cls-3{stroke-width:0.25px;}.cls-4{stroke-width:2px;}.cls-5{stroke-width:0.5px;}</style></defs><title>bottech logo</title><g id="Layer_2" data-name="Layer 2"><g id="Layer_1-2" data-name="Layer 1"><rect class="cls-1" x="0.5" y="0.49" width="332.63" height="142.59" rx="3.5"/><path class="cls-2" d="M329.64,143.61H4a4,4,0,0,1-4-4V4A4,4,0,0,1,4,0H329.64a4,4,0,0,1,4,4V139.61A4,4,0,0,1,329.64,143.61ZM4,1A3,3,0,0,0,1,4V139.61a3,3,0,0,0,3,3H329.64a3,3,0,0,0,3-3V4a3,3,0,0,0-3-3Z"/><path class="cls-3" d="M59.48,70.86c0,5.59-1.58,10-4.74,13.08s-7.5,4.69-13,4.69H18.25V26.1H39.16q7.68,0,11.48,3.84t3.8,11.26q0,9.55-5.36,13.58Q59.47,58.8,59.48,70.86Zm-30.29-20h8a6.28,6.28,0,0,0,4.92-1.78c1.07-1.19,1.6-3,1.61-5.54s-.54-4.51-1.61-5.67a6.34,6.34,0,0,0-4.92-1.75h-8ZM46,76.61q2.19-2,2.19-6.84t-2.28-7a8.87,8.87,0,0,0-6.2-2.06H29.15v18H39.7A9,9,0,0,0,46,76.61Z"/><path class="cls-4" d="M73.29,86.94c-2.51-1.61-4.11-4.45-4.83-8.54s-1.07-10.91-1.07-20.5.36-16.42,1.07-20.5,2.32-6.92,4.83-8.53,6.67-2.42,12.5-2.42,10,.81,12.51,2.42,4.11,4.45,4.82,8.53,1.08,10.91,1.08,20.5-.36,16.43-1.08,20.5-2.32,6.93-4.82,8.54-6.67,2.41-12.51,2.41S75.79,88.55,73.29,86.94Zm20.45-4.83c1.49-.89,2.48-3,3-6.34a148.09,148.09,0,0,0,.72-17.87A148.09,148.09,0,0,0,96.69,40c-.48-3.33-1.46-5.45-3-6.34s-4.14-1.34-7.95-1.34-6.46.45-8,1.34-2.47,3-3,6.34a150.16,150.16,0,0,0-.71,17.87,150.16,150.16,0,0,0,.71,17.87c.48,3.33,1.46,5.45,3,6.34s4.14,1.34,8,1.34S92.25,83,93.74,82.11Z"/><path class="cls-5" d="M125.55,34.67H110.18V26.1h40v8.57H134.84v54h-9.29Z"/><path class="cls-6" d="M169.65,88.61V29.15h-15.1V26.06H188v3.09h-15.1V88.61Z"/><path class="cls-6" d="M196.48,88.61V26.06h28.38v3.09h-25V55.44h21.92v3.09H199.84v27h25v3.08Z"/><path class="cls-6" d="M240.09,84.77q-4.69-4.59-4.69-12.14V40.88q0-7.55,4.69-12.09t12.32-4.55c5.1,0,9.2,1.52,12.33,4.55s4.68,7,4.68,12v1a.8.8,0,0,1-.67.91H267.6c-.6,0-.91-.27-.91-.82V40.7a13.44,13.44,0,0,0-3.91-10.09,14.16,14.16,0,0,0-10.37-3.82q-6.45,0-10.37,3.82a13.48,13.48,0,0,0-3.91,10.09V72.81A13.77,13.77,0,0,0,242,83a15.83,15.83,0,0,0,20.74,0,13.77,13.77,0,0,0,3.91-10.23v-1a.81.81,0,0,1,.7-.91.74.74,0,0,1,.21,0l.91.09a.8.8,0,0,1,.91.67,1,1,0,0,1,0,.24v.82q0,7.45-4.68,12c-3.13,3.06-7.23,4.59-12.33,4.59S243.21,87.83,240.09,84.77Z"/><path class="cls-6" d="M313.62,88.61V58.51H286.48v30.1H283.2V26.06h3.28V55.44h27.19V26.06H317V88.61Z"/><path class="cls-2" d="M18.17,121.81v-8.87h2.31v8.87Z"/><path class="cls-2" d="M27.11,112.94h4.17a9.79,9.79,0,0,1,2.16.17,4,4,0,0,1,1.71.81,3.83,3.83,0,0,1,1.08,1.44,5.38,5.38,0,0,1,.37,2.1,4.7,4.7,0,0,1-.35,1.89A3.93,3.93,0,0,1,35,120.91a4.31,4.31,0,0,1-1.56.7,8.43,8.43,0,0,1-2,.19h-4.3Zm2.28,1.5v5.87H31.1a7.11,7.11,0,0,0,1.38-.08,2.38,2.38,0,0,0,.92-.37A1.8,1.8,0,0,0,34,119a4.45,4.45,0,0,0,.23-1.62A4,4,0,0,0,34,115.8a2,2,0,0,0-.65-.86,2.47,2.47,0,0,0-1.05-.42,14.7,14.7,0,0,0-1.88-.08Z"/><path class="cls-2" d="M43,121.81v-8.87h8.4v1.5H45.3v2H51v1.5H45.3v2.41h6.32v1.5Z"/><path class="cls-2" d="M68.25,121.81H65.76l-1-2H60.24l-.94,2H56.88l4.41-8.87h2.42ZM64,118.3,62.48,115,61,118.3Z"/><path class="cls-2" d="M82.21,112.94h4.18a10.44,10.44,0,0,1,2.16.17,4,4,0,0,1,1.7.81,3.66,3.66,0,0,1,1.08,1.44,5.21,5.21,0,0,1,.38,2.1,4.7,4.7,0,0,1-.35,1.89,4,4,0,0,1-1.21,1.56,4.48,4.48,0,0,1-1.61.71,8.43,8.43,0,0,1-2,.19H82.23Zm2.29,1.5v5.87h1.71a7.11,7.11,0,0,0,1.38-.08,2.38,2.38,0,0,0,.92-.37,1.8,1.8,0,0,0,.6-.86,4.45,4.45,0,0,0,.23-1.62,4,4,0,0,0-.23-1.58,2,2,0,0,0-.65-.86,2.57,2.57,0,0,0-1.06-.42,14.63,14.63,0,0,0-1.87-.08Z"/><path class="cls-2" d="M98.12,121.81v-8.87h8.36v1.5h-6.11v2h5.68v1.5h-5.68v2.41h6.32v1.5Z"/><path class="cls-2" d="M116,121.81l-4-8.87h2.45l2.86,6.56,2.78-6.56h2.42l-4.06,8.87Z"/><path class="cls-2" d="M128.17,121.81v-8.87h8.4v1.5h-6.09v2h5.68v1.5h-5.68v2.41h6.32v1.5Z"/><path class="cls-2" d="M143.26,121.81V113h2.29v7.3h5.68v1.5Z"/><path class="cls-2" d="M156.87,117.43a4.74,4.74,0,0,1,.52-2.28,4.31,4.31,0,0,1,1-1.21,4.68,4.68,0,0,1,1.47-.8,7.47,7.47,0,0,1,2.44-.35,6.12,6.12,0,0,1,4,1.21,4.54,4.54,0,0,1,.34,6.41c-.11.12-.22.23-.34.34a6.12,6.12,0,0,1-4,1.21,6.23,6.23,0,0,1-4-1.21A4,4,0,0,1,156.87,117.43Zm2.36-.06a2.87,2.87,0,0,0,.89,2.28,3.65,3.65,0,0,0,4.5,0,3,3,0,0,0,.87-2.32,2.83,2.83,0,0,0-.85-2.27,3.8,3.8,0,0,0-4.55,0A2.9,2.9,0,0,0,159.23,117.37Z"/><path class="cls-2" d="M174.12,121.81v-8.87h3.66a16.47,16.47,0,0,1,2.72.13,3.1,3.1,0,0,1,1.63.87,2.33,2.33,0,0,1,.66,1.73,2.47,2.47,0,0,1-.38,1.37,2.63,2.63,0,0,1-1,.87,3.39,3.39,0,0,1-1.19.42,15.7,15.7,0,0,1-2.37.13h-1.49v3.35Zm2.28-7.37V117h1.25a7.85,7.85,0,0,0,1.81-.13,1.64,1.64,0,0,0,.72-.44,1.08,1.08,0,0,0-.11-1.49,1.73,1.73,0,0,0-.92-.39,15,15,0,0,0-1.64-.06Z"/><path class="cls-2" d="M197.15,118.92l2.22-.17a2,2,0,0,0,.82,1.29,2.9,2.9,0,0,0,1.65.41,3.12,3.12,0,0,0,1.67-.36,1.06,1.06,0,0,0,.56-.86.73.73,0,0,0-.24-.54,2.2,2.2,0,0,0-.82-.38q-.4-.11-1.83-.39a7.17,7.17,0,0,1-2.58-.87,2.14,2.14,0,0,1-1-1.79,2,2,0,0,1,.49-1.27,3.11,3.11,0,0,1,1.41-.9,7.32,7.32,0,0,1,2.23-.3,5.72,5.72,0,0,1,3.21.73,2.39,2.39,0,0,1,1.13,2l-2.29.08a1.38,1.38,0,0,0-.63-1,2.75,2.75,0,0,0-1.44-.3,3.11,3.11,0,0,0-1.56.32.6.6,0,0,0-.37.55.65.65,0,0,0,.34.54,6.92,6.92,0,0,0,2.1.59,13.19,13.19,0,0,1,2.47.64,3,3,0,0,1,1.25.9,2.3,2.3,0,0,1-.09,2.84,3.09,3.09,0,0,1-1.53,1,7.9,7.9,0,0,1-2.46.33,5.87,5.87,0,0,1-3.3-.78A3.19,3.19,0,0,1,197.15,118.92Z"/><path class="cls-2" d="M212.74,112.94H215v4.8a7.32,7.32,0,0,0,.09,1.48,1.43,1.43,0,0,0,.7.88,2.93,2.93,0,0,0,1.51.33,2.83,2.83,0,0,0,1.46-.31,1.25,1.25,0,0,0,.6-.77,7.62,7.62,0,0,0,.1-1.51v-4.9h2.29v4.67a9.46,9.46,0,0,1-.19,2.25,2.36,2.36,0,0,1-.68,1.12,3.63,3.63,0,0,1-1.34.72,7.26,7.26,0,0,1-2.17.27,8.17,8.17,0,0,1-2.46-.29,3.63,3.63,0,0,1-1.33-.77,2.27,2.27,0,0,1-.64-1,8.51,8.51,0,0,1-.22-2.25Z"/><path class="cls-2" d="M235.9,118.55l2.21.55a3.85,3.85,0,0,1-1.69,2.15,5.81,5.81,0,0,1-3,.71,5.6,5.6,0,0,1-3.71-1.21,4,4,0,0,1-1.45-3.3,4.26,4.26,0,0,1,1.46-3.44,5.72,5.72,0,0,1,3.84-1.22,5.55,5.55,0,0,1,3.37,1,3.35,3.35,0,0,1,1.16,1.63l-2.26.43a1.84,1.84,0,0,0-.84-1.09,2.83,2.83,0,0,0-1.55-.4,2.88,2.88,0,0,0-2,.71,3,3,0,0,0-.78,2.29,3.11,3.11,0,0,0,.77,2.39,2.82,2.82,0,0,0,2,.72A2.55,2.55,0,0,0,235,120,2.46,2.46,0,0,0,235.9,118.55Z"/><path class="cls-2" d="M244.55,121.81v-8.87H253v1.5h-6.11v2h5.64v1.5H246.8v2.41h6.32v1.5Z"/><path class="cls-2" d="M259,118.92l2.22-.17A2,2,0,0,0,262,120a2.9,2.9,0,0,0,1.65.41,3.12,3.12,0,0,0,1.67-.36,1.06,1.06,0,0,0,.56-.86.73.73,0,0,0-.24-.54,2.2,2.2,0,0,0-.82-.38q-.41-.11-1.83-.39a7.17,7.17,0,0,1-2.58-.87,2.14,2.14,0,0,1-1-1.79,2,2,0,0,1,.49-1.27,3.11,3.11,0,0,1,1.41-.9,7.32,7.32,0,0,1,2.23-.3,5.72,5.72,0,0,1,3.21.73,2.39,2.39,0,0,1,1.13,2l-2.29.08a1.38,1.38,0,0,0-.63-1,2.75,2.75,0,0,0-1.44-.3,3.11,3.11,0,0,0-1.56.32.6.6,0,0,0-.37.55.65.65,0,0,0,.34.54,6.92,6.92,0,0,0,2.1.59,13.19,13.19,0,0,1,2.47.64,3,3,0,0,1,1.25.9,2.3,2.3,0,0,1-.09,2.84,3.09,3.09,0,0,1-1.53,1,7.9,7.9,0,0,1-2.46.33,5.87,5.87,0,0,1-3.3-.78A3.19,3.19,0,0,1,259,118.92Z"/><path class="cls-2" d="M274,118.92l2.23-.17a2,2,0,0,0,.81,1.29,2.93,2.93,0,0,0,1.66.41,3.09,3.09,0,0,0,1.66-.36,1,1,0,0,0,.56-.86.7.7,0,0,0-.23-.54,2.2,2.2,0,0,0-.82-.38q-.4-.11-1.83-.39a7.17,7.17,0,0,1-2.58-.87,2.16,2.16,0,0,1-1.05-1.79,2,2,0,0,1,.49-1.27,3.09,3.09,0,0,1,1.42-.9,7,7,0,0,1,2.22-.3,5.7,5.7,0,0,1,3.21.73,2.4,2.4,0,0,1,1.14,2l-2.29.08a1.46,1.46,0,0,0-.63-1,2.81,2.81,0,0,0-1.45-.3,3.11,3.11,0,0,0-1.56.32.6.6,0,0,0-.36.55.65.65,0,0,0,.34.54,6.92,6.92,0,0,0,2.1.59,14,14,0,0,1,2.47.64,3,3,0,0,1,1.25.9,2.3,2.3,0,0,1-.09,2.84,3.09,3.09,0,0,1-1.53,1,7.9,7.9,0,0,1-2.46.33,5.87,5.87,0,0,1-3.3-.78A3.17,3.17,0,0,1,274,118.92Z"/><path class="cls-2" d="M289.63,121.81v-8.87H298v1.5h-6.1v2h5.68v1.5h-5.68v2.41h6.32v1.5Z"/><path class="cls-2" d="M304.65,112.94h4.18a9.7,9.7,0,0,1,2.15.17,4,4,0,0,1,1.71.81,3.83,3.83,0,0,1,1.08,1.44,5.21,5.21,0,0,1,.37,2.1,4.7,4.7,0,0,1-.35,1.89,3.93,3.93,0,0,1-1.21,1.56,4.16,4.16,0,0,1-1.61.71,8.43,8.43,0,0,1-2,.19h-4.3Zm2.28,1.5v5.87h1.71a7.11,7.11,0,0,0,1.38-.08,2.42,2.42,0,0,0,.93-.37,1.78,1.78,0,0,0,.59-.86,4.46,4.46,0,0,0,.24-1.62,4.25,4.25,0,0,0-.24-1.58,2,2,0,0,0-.64-.86,2.57,2.57,0,0,0-1.06-.42,14.7,14.7,0,0,0-1.88-.08Z"/><polygon class="cls-2" points="314.34 130.89 18.09 130.89 18.09 130.89 314.34 130.89 314.34 130.89"/><rect class="cls-2" x="18.09" y="130.76" width="296.25" height="0.25"/><polygon class="cls-2" points="314.34 101 18.09 101 18.09 101 314.34 101 314.34 101"/><rect class="cls-2" x="18.09" y="100.88" width="296.25" height="0.25"/></g></g></svg>