<svg xmlns="http://www.w3.org/2000/svg" width="58.842" height="58.842" viewBox="0 0 58.842 58.842">
  <g id="colleague" transform="translate(0.5 0.5)">
    <path id="Path_20613" data-name="Path 20613" d="M58.611,6.749A6.757,6.757,0,0,0,51.862,0,6.843,6.843,0,0,0,45,6.749,6.843,6.843,0,0,0,51.862,13.5,6.757,6.757,0,0,0,58.611,6.749Zm-6.749,3.375a3.478,3.478,0,0,1-3.487-3.375,3.478,3.478,0,0,1,3.487-3.375,3.375,3.375,0,0,1,0,6.749Z" transform="translate(-39.938 0)" fill="none" stroke="#000" stroke-width="1"/>
    <path id="Path_20614" data-name="Path 20614" d="M0,128.437V140.36H33.392l4.487-13.611H23.565A8.451,8.451,0,0,0,15.3,120H8.437A8.446,8.446,0,0,0,0,128.437Zm30.951,8.549H21.006l2.262-6.862h9.945ZM15.3,123.375a5.068,5.068,0,0,1,5.056,4.81L18.6,133.519a8.425,8.425,0,0,0-6.672-3.282h-1.8v-3.487H6.749v6.862h5.174a5.07,5.07,0,0,1,4.772,3.375H3.375v-8.549a5.068,5.068,0,0,1,5.062-5.062Z" transform="translate(0 -106.412)" fill="none" stroke="#000" stroke-width="1"/>
    <path id="Path_20615" data-name="Path 20615" d="M359.5,217.749a6.749,6.749,0,1,0-6.749,6.749A6.757,6.757,0,0,0,359.5,217.749Zm-6.749,3.375a3.375,3.375,0,1,1,3.375-3.375A3.378,3.378,0,0,1,352.749,221.124Z" transform="translate(-306.831 -187.132)" fill="none" stroke="#000" stroke-width="1"/>
    <path id="Path_20616" data-name="Path 20616" d="M189.575,337.749H175.261l4.487,13.611H213.14V339.437A8.446,8.446,0,0,0,204.7,331h-6.862A8.451,8.451,0,0,0,189.575,337.749Zm-7.386,10.236-2.262-6.862h9.945l2.262,6.862ZM204.7,334.375a5.068,5.068,0,0,1,5.062,5.062v8.549H196.445a5.07,5.07,0,0,1,4.772-3.375h5.174v-6.862h-3.375v3.487h-1.8a8.426,8.426,0,0,0-6.672,3.282l-1.758-5.333a5.068,5.068,0,0,1,5.056-4.81Z" transform="translate(-155.299 -293.519)" fill="none" stroke="#000" stroke-width="1"/>
  </g>
</svg>
