<svg xmlns="http://www.w3.org/2000/svg" width="422.729" height="364.457" viewBox="0 0 422.729 364.457">
  <g id="deplyment" transform="translate(-200.853 -5508.946)">
    <path id="Path_22171" data-name="Path 22171" d="M48.127,1851.275c42.21-30.535,130.852,1.72,206.7,9.556s199.212-4.609,198.9,29.749c-.329,36.64-27.687,57.248-177.747,67.1s-218.763-20.5-238.383-52.8C22.325,1879.742,36.846,1859.438,48.127,1851.275Z" transform="translate(169.853 3913.838)" fill="#e7f3fe"/>
    <path id="Path_22172" data-name="Path 22172" d="M90.922,1782.892s6.228-2.08,9.217,12.333a173.578,173.578,0,0,1,3.46,22.328s.983,3.1,3.266,1.878,6.117-5.453,9-3.732,3,5.677.92,10.737-6.11,16.392-6.47,17.415-.187,2.687,1.509,2.08,12.394-7.476,15.342-2.2-5.031,18.483-5.882,19.967-.693,2.226-.083,2.822,4.02-2.08,7.148-3.9,7.065-3.418,8.525-.236-.789,14.144-15.819,28.838l-7.411,6.352-9.315-3.1c-19.479-7.848-25.735-17.123-25.6-20.619s4.387-3.542,7.972-3.036,7.73,1.675,8.1.877.194-1.54-1.156-2.575-13.805-10.2-13.072-16.212,13.259-3.71,15.044-3.811,1.315-1.709.6-2.5-8.8-9.714-12.643-13.638-5.225-7.521-3.183-10.3c1.972-2.687,7.127-.236,9.688.034s2.3-2.991,2.3-2.991a174.522,174.522,0,0,1-5.308-21.946c-2.726-14.436,3.986-14.9,3.986-14.9" transform="translate(175.783 3906.929)" fill="#f5f5f5"/>
    <path id="Path_22173" data-name="Path 22173" d="M112.05,1894.088c-2.042-10.591-4.982-25.207-8.3-41.329s-6.269-30.738-8.366-41.306c-1.038-5.284-1.889-9.556-2.47-12.536-.3-1.462-.519-2.608-.692-3.4-.083-.382-.138-.7-.187-.888a2.763,2.763,0,0,0-.076-.3l.041.3c.041.214.09.517.152.9.145.8.353,1.945.616,3.418.54,2.968,1.349,7.252,2.374,12.547,2.034,10.591,4.982,25.2,8.3,41.317s6.284,30.738,8.38,41.317" transform="translate(177.429 3908.364)" fill="#e0e0e0"/>
    <path id="Path_22174" data-name="Path 22174" d="M108.125,1817.51a3.307,3.307,0,0,0-.416.573c-.248.371-.595.933-1.016,1.619-.844,1.394-1.952,3.339-3.136,5.543s-2.2,4.07-3,5.565c-.36.663-.692,1.226-.92,1.686a3.251,3.251,0,0,0-.311.63,2.937,2.937,0,0,0,.422-.562c.249-.382.6-.944,1.011-1.63.83-1.383,1.909-3.362,3.093-5.542l3.045-5.532c.367-.663.693-1.214.928-1.686A2.577,2.577,0,0,0,108.125,1817.51Z" transform="translate(178.344 3911.244)" fill="#e0e0e0"/>
    <path id="Path_22175" data-name="Path 22175" d="M100.467,1832.51c.048-.09-3.868-2.552-8.733-5.543s-8.865-5.307-8.913-5.217,3.861,2.541,8.733,5.532S100.418,1832.588,100.467,1832.51Z" transform="translate(176.293 3911.771)" fill="#e0e0e0"/>
    <path id="Path_22176" data-name="Path 22176" d="M105.949,1853.746a3.02,3.02,0,0,0-.693-.236l-1.889-.506c-1.592-.438-3.792-1.046-6.228-1.8s-4.56-1.507-6.117-2.08l-1.841-.652a3.006,3.006,0,0,0-.692-.213,2.418,2.418,0,0,0,.644.337c.422.18,1.038.45,1.806.753,1.543.618,3.688,1.383,6.1,2.17s4.629,1.327,6.228,1.709c.809.18,1.459.326,1.917.416A4.307,4.307,0,0,0,105.949,1853.746Z" transform="translate(176.998 3915.066)" fill="#e0e0e0"/>
    <path id="Path_22177" data-name="Path 22177" d="M115.912,1842.35a2.616,2.616,0,0,0-.519.416c-.318.292-.768.7-1.322,1.248-1.106,1.057-2.615,2.53-4.269,4.149s-3.142,3.182-4.207,4.283c-.526.562-.956,1-1.246,1.315a2.586,2.586,0,0,0-.423.517,4.56,4.56,0,0,0,.513-.427c.311-.281.775-.686,1.321-1.237,1.107-1.046,2.623-2.519,4.277-4.149s3.134-3.148,4.2-4.239c.533-.562.956-1.012,1.246-1.315A2.755,2.755,0,0,0,115.912,1842.35Z" transform="translate(178.916 3914.332)" fill="#e0e0e0"/>
    <path id="Path_22178" data-name="Path 22178" d="M123.613,1861.02a4.584,4.584,0,0,0-.693.54l-1.7,1.585c-1.426,1.349-3.376,3.215-5.536,5.306s-4.069,3.991-5.446,5.385l-1.626,1.653a4.078,4.078,0,0,0-.568.641,3.7,3.7,0,0,0,.693-.551l1.7-1.574c1.426-1.383,3.376-3.227,5.536-5.318s4.082-3.98,5.466-5.374l1.619-1.653A5.5,5.5,0,0,0,123.613,1861.02Z" transform="translate(179.429 3916.652)" fill="#e0e0e0"/>
    <path id="Path_22179" data-name="Path 22179" d="M110.762,1874.885a4.674,4.674,0,0,0-.858-.315l-2.373-.731c-2-.618-4.768-1.5-7.792-2.541s-5.737-2.069-7.7-2.766l-2.325-.922a5.757,5.757,0,0,0-.865-.281,4.513,4.513,0,0,0,.817.4c.533.248,1.315.585,2.29.978,1.938.81,4.643,1.855,7.681,2.889s5.805,1.889,7.827,2.451c1.016.281,1.834.506,2.407.641A4.863,4.863,0,0,0,110.762,1874.885Z" transform="translate(177.042 3917.436)" fill="#e0e0e0"/>
    <path id="Path_22180" data-name="Path 22180" d="M348.874,1635.34H284.083v93.911h64.791Z" transform="translate(201.306 3888.604)" fill="#e0e0e0"/>
    <path id="Path_22181" data-name="Path 22181" d="M345.987,1635.34H281.2v93.911h64.791Z" transform="translate(200.947 3888.604)" fill="#f5f5f5"/>
    <path id="Path_22182" data-name="Path 22182" d="M337.048,1644.39H288.36v73.573h48.688Z" transform="translate(201.838 3889.729)" fill="#fff"/>
    <path id="Path_22183" data-name="Path 22183" d="M337.088,1718v-5.441c0-3.53,0-8.668-.042-15.155,0-12.974-.048-31.345-.083-52.976l.166.157H288.442l.173-.169c0,27.747,0,53.336-.035,73.562l-.138-.135,35.436.067,9.792.045h-9.7l-35.526.067H288.3v-.135c0-20.226,0-45.826-.034-73.573v-.18H337.29v.157c-.035,21.676-.063,40.081-.076,53.089,0,6.465-.035,11.6-.048,15.11v5.037A1.76,1.76,0,0,1,337.088,1718Z" transform="translate(201.825 3889.696)" fill="#e0e0e0"/>
    <path id="Path_22184" data-name="Path 22184" d="M339.96,1635.34a11.306,11.306,0,0,1-1.156,1.687c-.748,1-1.82,2.372-3.038,3.856s-2.36,2.766-3.2,3.721a10.792,10.792,0,0,1-1.426,1.45,12.44,12.44,0,0,1,1.239-1.619l3.121-3.789c1.176-1.428,2.249-2.721,3.114-3.778A13.506,13.506,0,0,1,339.96,1635.34Z" transform="translate(207.154 3888.604)" fill="#e0e0e0"/>
    <path id="Path_22185" data-name="Path 22185" d="M331.888,1709.62a60.141,60.141,0,0,0,8.491,10.613Z" transform="translate(207.247 3897.836)" fill="#fff"/>
    <path id="Path_22186" data-name="Path 22186" d="M340.379,1720.233a9.336,9.336,0,0,1-1.481-1.349,47.194,47.194,0,0,1-6.027-7.533,9.335,9.335,0,0,1-.983-1.731,12.708,12.708,0,0,1,1.191,1.6c.691,1,1.722,2.372,2.893,3.834s2.29,2.777,3.106,3.665A12.878,12.878,0,0,1,340.379,1720.233Z" transform="translate(207.247 3897.836)" fill="#e0e0e0"/>
    <path id="Path_22187" data-name="Path 22187" d="M281.22,1719.968l8.484-10.478Z" transform="translate(200.95 3897.819)" fill="#fff"/>
    <path id="Path_22188" data-name="Path 22188" d="M289.674,1709.49a63.272,63.272,0,0,1-4.1,5.352,63.694,63.694,0,0,1-4.38,5.127,63.728,63.728,0,0,1,4.1-5.352A65.659,65.659,0,0,1,289.674,1709.49Z" transform="translate(200.946 3897.819)" fill="#e0e0e0"/>
    <path id="Path_22189" data-name="Path 22189" d="M281.22,1635.34a59.221,59.221,0,0,1,4.152,4.936,57.458,57.458,0,0,1,3.841,5.138,107.816,107.816,0,0,1-7.993-10.074Z" transform="translate(200.95 3888.604)" fill="#e0e0e0"/>
    <path id="Path_22190" data-name="Path 22190" d="M319.977,1657.67h-16.3v46.286h16.3Z" transform="translate(203.741 3891.379)" fill="#e0e0e0"/>
    <path id="Path_22191" data-name="Path 22191" d="M169.322,1622v51.751H95L92.33,1622.36Z" transform="translate(177.475 3886.946)" fill="#e0e0e0"/>
    <path id="Path_22192" data-name="Path 22192" d="M92.324,1622.32v51.267h74.32V1622.32Z" transform="translate(177.475 3886.986)" fill="#fff"/>
    <path id="Path_22193" data-name="Path 22193" d="M167.029,1673.987H92.017V1622h75.012Zm-74.32-.686h73.628v-50.6H92.716Z" transform="translate(177.436 3886.946)" fill="#e0e0e0"/>
    <path id="Path_22194" data-name="Path 22194" d="M157.705,1627.99H99.489v38.529h58.217Z" transform="translate(178.364 3887.69)" fill="#fff"/>
    <path id="Path_22195" data-name="Path 22195" d="M157.742,1628.01h-4.312l-12,.079-41.907.112.18-.191v38.529l-.18-.18h58.218l-.146.146c0-11.726.056-21.339.076-28.028v-.068c0,6.712.042,16.358.076,28.118v.146H157.6l-58.217.045H99.2V1627.83h.173l42.017.09,11.958.045h3.972Z" transform="translate(178.328 3887.671)" fill="#e0e0e0"/>
    <path id="Path_22196" data-name="Path 22196" d="M92.324,1622.2a6.053,6.053,0,0,1,1.315.821c.761.551,1.8,1.327,2.913,2.226s2.076,1.743,2.768,2.372a6.108,6.108,0,0,1,1.066,1.09,47.494,47.494,0,0,1-4.09-3.182A41.236,41.236,0,0,1,92.324,1622.2Z" transform="translate(177.475 3886.971)" fill="#e0e0e0"/>
    <path id="Path_22197" data-name="Path 22197" d="M159.32,1622.32a35.361,35.361,0,0,1-3.91,3.328,35.524,35.524,0,0,1-4.152,3.047,35.231,35.231,0,0,1,3.91-3.328A37.1,37.1,0,0,1,159.32,1622.32Z" transform="translate(184.799 3886.986)" fill="#e0e0e0"/>
    <path id="Path_22198" data-name="Path 22198" d="M159.3,1668.672l-8.3-6.712Z" transform="translate(184.766 3891.913)" fill="#fff"/>
    <path id="Path_22199" data-name="Path 22199" d="M151.006,1661.96a39.772,39.772,0,0,1,4.262,3.215,40.918,40.918,0,0,1,4.028,3.5,37.944,37.944,0,0,1-4.263-3.2A38.1,38.1,0,0,1,151.006,1661.96Z" transform="translate(184.768 3891.913)" fill="#e0e0e0"/>
    <path id="Path_22200" data-name="Path 22200" d="M92.324,1668.627a34.629,34.629,0,0,1,3.875-3.294,36.183,36.183,0,0,1,4.1-3.013,34.532,34.532,0,0,1-3.889,3.294A34.388,34.388,0,0,1,92.324,1668.627Z" transform="translate(177.475 3891.957)" fill="#e0e0e0"/>
    <path id="Path_22201" data-name="Path 22201" d="M110,1638.67v12.9h36.635v-12.9Z" transform="translate(179.671 3889.018)" fill="#e0e0e0"/>
    <path id="Path_22202" data-name="Path 22202" d="M320.356,1779.8a26.1,26.1,0,1,1,8.1-18.247A26.144,26.144,0,0,1,320.356,1779.8Z" transform="translate(200.331 3900.963)" fill="#ebebeb"/>
    <path id="Path_22203" data-name="Path 22203" d="M315.4,1774.591a19.874,19.874,0,1,1,6.164-13.907A19.869,19.869,0,0,1,315.4,1774.591Z" transform="translate(201.018 3901.648)" fill="#f5f5f5"/>
    <path id="Path_22204" data-name="Path 22204" d="M315.2,1774.241c-.09-.09.485-.742,1.384-2.035a20.816,20.816,0,0,0,2.851-5.858,20.53,20.53,0,0,0,.809-4.4,19.651,19.651,0,0,0-.3-5.1,18.484,18.484,0,0,0-.693-2.676,19.428,19.428,0,0,0-1.134-2.642,18.427,18.427,0,0,0-1.578-2.53,20.788,20.788,0,0,0-2-2.339,22.879,22.879,0,0,0-2.346-1.979,18.676,18.676,0,0,0-2.547-1.552,18.9,18.9,0,0,0-2.657-1.113,18.365,18.365,0,0,0-2.678-.686,19.944,19.944,0,0,0-5.108-.27,20.367,20.367,0,0,0-10.228,3.766c-1.273.9-1.924,1.473-2.014,1.383s.45-.787,1.647-1.855a18.341,18.341,0,0,1,5.854-3.463,19.834,19.834,0,0,1,10.076-.956,19.626,19.626,0,0,1,2.892.7,20.358,20.358,0,0,1,5.641,2.811,20.413,20.413,0,0,1,7.556,10.287,18.867,18.867,0,0,1,.691,2.878,19.986,19.986,0,0,1-.858,10.1,18.572,18.572,0,0,1-3.4,5.891C315.986,1773.78,315.266,1774.309,315.2,1774.241Z" transform="translate(201.664 3901.571)" fill="#e0e0e0"/>
    <path id="Path_22205" data-name="Path 22205" d="M293.861,1768.895l-2.477,2.428-2.159-2.215,2.408-2.361a14.643,14.643,0,0,1-3.606-7.252l3.889-1.417a12.445,12.445,0,0,0,2.623,5.835l3.694-3.609c-1.8-3.036-3.661-6.588-.491-9.691,2.353-2.294,6.027-2.552,9.841.551l2.463-2.395,2.159,2.215-2.415,2.361a14.04,14.04,0,0,1,3.038,5.824l-3.806,1.552a12.972,12.972,0,0,0-2.152-4.52l-3.772,3.665c1.827,3.013,3.64,6.521.519,9.568C301.314,1771.705,297.674,1771.964,293.861,1768.895Zm7.612-11.76,3.148-3.069c-1.384-.911-2.512-.753-3.245-.034s-.526,1.821.117,3.069Zm-1.619,8.994c.775-.764.567-1.81,0-3.081l-3.059,2.979c1.315.888,2.367.809,3.079.124Z" transform="translate(201.796 3902.701)" fill="#e0e0e0"/>
    <path id="Path_22206" data-name="Path 22206" d="M230.376,1804.373a27.4,27.4,0,1,1-13.934-15.65A27.414,27.414,0,0,1,230.376,1804.373Z" transform="translate(188.007 3907.326)" fill="#ebebeb"/>
    <path id="Path_22207" data-name="Path 22207" d="M223.5,1805.81a20.883,20.883,0,1,1-10.622-11.929A20.884,20.884,0,0,1,223.5,1805.81Z" transform="translate(188.729 3908.048)" fill="#f5f5f5"/>
    <path id="Path_22208" data-name="Path 22208" d="M223.335,1805.267a11.974,11.974,0,0,1-1.342-2.192,22.43,22.43,0,0,0-4.373-5.262,20.715,20.715,0,0,0-8.872-4.6,20.518,20.518,0,0,0-2.865-.472,20.973,20.973,0,0,0-3.031-.079,20.581,20.581,0,0,0-3.1.416,21.151,21.151,0,0,0-3.093.911,20.178,20.178,0,0,0-2.914,1.383,18.908,18.908,0,0,0-2.588,1.765,19.475,19.475,0,0,0-2.214,2.069,21.047,21.047,0,0,0-4.277,7.038,21.623,21.623,0,0,0-1.086,4.576,22.068,22.068,0,0,0,.248,6.824,12.507,12.507,0,0,1,.464,2.53c-.118.045-.561-.764-1.066-2.372a19.373,19.373,0,0,1-.776-7.094,20.85,20.85,0,0,1,3.461-10.051,20.068,20.068,0,0,1,1.91-2.473,20.771,20.771,0,0,1,2.352-2.249,20.346,20.346,0,0,1,2.768-1.923,21.877,21.877,0,0,1,3.136-1.506,24.561,24.561,0,0,1,3.341-.978,22.375,22.375,0,0,1,3.349-.416,21.03,21.03,0,0,1,3.259.112,20.281,20.281,0,0,1,3.066.573,21.134,21.134,0,0,1,5.308,2.181,21.527,21.527,0,0,1,3.972,3,19.5,19.5,0,0,1,4.152,5.8A6.024,6.024,0,0,1,223.335,1805.267Z" transform="translate(188.668 3907.961)" fill="#e0e0e0"/>
    <path id="Path_22209" data-name="Path 22209" d="M208.85,1822.917l1.239,3.418-3.052,1.113-1.211-3.328a15.487,15.487,0,0,1-8.491.315l.333-4.34a13.063,13.063,0,0,0,6.712,0l-1.855-5.1c-3.688.4-7.888.652-9.473-3.721-1.169-3.238.173-6.869,4.8-9.163l-1.232-3.4,3.052-1.1,1.211,3.328a14.663,14.663,0,0,1,6.872-.393l-.16,4.317a13.122,13.122,0,0,0-5.253.112l1.883,5.183c3.681-.438,7.819-.686,9.377,3.654C214.759,1817.015,213.438,1820.6,208.85,1822.917Zm-7.964-12.378-1.579-4.34c-1.481.956-1.8,2.08-1.439,3.081S199.4,1810.584,200.885,1810.539Zm7.923,5.453c-.388-1.068-1.481-1.327-2.961-1.3l1.529,4.216c1.419-.911,1.813-1.945,1.446-2.923Z" transform="translate(189.943 3908.771)" fill="#e0e0e0"/>
    <path id="Path_22210" data-name="Path 22210" d="M136.932,1744.636a22.968,22.968,0,1,1-1.867-8.769A23.026,23.026,0,0,1,136.932,1744.636Z" transform="translate(177.299 3899.37)" fill="#ebebeb"/>
    <path id="Path_22211" data-name="Path 22211" d="M130.854,1744.1a17.482,17.482,0,1,1-1.415-6.689A17.564,17.564,0,0,1,130.854,1744.1Z" transform="translate(177.904 3899.972)" fill="#f5f5f5"/>
    <path id="Path_22212" data-name="Path 22212" d="M130.869,1743.623a9.831,9.831,0,0,1-.491-2.069,17.9,17.9,0,0,0-4.436-8.511,17.826,17.826,0,0,0-3.459-2.844,14.493,14.493,0,0,0-2.16-1.135,16.34,16.34,0,0,0-2.387-.854,16.817,16.817,0,0,0-2.581-.495,18.672,18.672,0,0,0-2.747-.135,21.54,21.54,0,0,0-2.686.337,16.447,16.447,0,0,0-2.525.7,17.416,17.416,0,0,0-4.36,2.372,17.518,17.518,0,0,0-5.293,6.5,18.712,18.712,0,0,0-1.612,5.543,9.277,9.277,0,0,1-.3,2.125c-.111,0-.242-.753-.215-2.17a16.167,16.167,0,0,1,1.259-5.857,17.415,17.415,0,0,1,2.076-3.632,18.122,18.122,0,0,1,3.356-3.463,18.536,18.536,0,0,1,2.173-1.461,18.055,18.055,0,0,1,2.477-1.169,18.941,18.941,0,0,1,2.72-.8,18.029,18.029,0,0,1,5.813-.247,17.819,17.819,0,0,1,2.768.551,17.394,17.394,0,0,1,2.568.944,17.932,17.932,0,0,1,8.3,7.859,16.1,16.1,0,0,1,1.771,5.723A5.233,5.233,0,0,1,130.869,1743.623Z" transform="translate(177.882 3899.9)" fill="#e0e0e0"/>
    <path id="Path_22213" data-name="Path 22213" d="M114.322,1754.166l.082,3.047-2.726.079-.083-2.968a13.085,13.085,0,0,1-6.843-2l1.384-3.373a10.929,10.929,0,0,0,5.336,1.8l-.118-4.553c-3.051-.652-6.457-1.574-6.56-5.475-.076-2.889,1.952-5.419,6.229-6.026l-.083-3.024,2.726-.079.083,2.968a12.284,12.284,0,0,1,5.578,1.518l-1.274,3.384a11.339,11.339,0,0,0-4.214-1.3l.132,4.632c3.045.63,6.394,1.552,6.5,5.4C120.591,1751.018,118.584,1753.536,114.322,1754.166Zm-3.052-11.985-.1-3.868c-1.439.371-1.987,1.169-1.965,2.08S110.087,1741.832,111.27,1742.181Zm4.845,6.453c0-.956-.831-1.45-2.014-1.833l.1,3.766c1.377-.326,1.958-1.068,1.93-1.934Z" transform="translate(179.019 3900.566)" fill="#e0e0e0"/>
    <path id="Path_22214" data-name="Path 22214" d="M231.289,1657.276a20.292,20.292,0,0,0,2.56-9.894,19.949,19.949,0,0,0-25.257-19.473,20.26,20.26,0,0,1,0,38.934,19.746,19.746,0,0,0,15.88-2.338l9.377,3.631Z" transform="translate(191.924 3887.591)" fill="#ebebeb"/>
    <path id="Path_22215" data-name="Path 22215" d="M376.688,1884.91c0,.09-65.8.18-146.951.18s-146.965-.09-146.965-.18,65.788-.18,146.965-.18S376.688,1884.831,376.688,1884.91Z" transform="translate(176.287 3919.599)" fill="#263238"/>
    <path id="Path_22216" data-name="Path 22216" d="M154.585,1865.12l.56,17.213,4.373,13.5a1.746,1.746,0,0,1-.13,1.394,1.757,1.757,0,0,1-.468.551,1.736,1.736,0,0,1-.646.3,1.617,1.617,0,0,1-.834.011,1.835,1.835,0,0,1-.744-.371c-2.768-2.372-12.892-11.153-12.864-12.412,0-1.461-1.806-18.123-1.806-18.123Z" transform="translate(183.651 3917.161)" fill="#9ec8ff"/>
    <path id="Path_22217" data-name="Path 22217" d="M158.108,1895.98l-14.531-13.93.042.719a2.649,2.649,0,0,0,.726,1.7c1.163,1.214,4.45,4.531,12.116,11.153a1.68,1.68,0,0,0,.768.382,1.712,1.712,0,0,0,.859-.022Z" transform="translate(183.844 3919.266)" fill="#e0e0e0"/>
    <path id="Path_22218" data-name="Path 22218" d="M146.632,1876.954a1.057,1.057,0,0,1,.368,1.383,1,1,0,0,1-.615.472,1.02,1.02,0,0,1-.769-.1,1.1,1.1,0,0,1-.477-.652,1.13,1.13,0,0,1,.089-.81,1.1,1.1,0,0,1,.682-.4,1.113,1.113,0,0,1,.778.169" transform="translate(184.033 3918.616)" fill="#fff"/>
    <path id="Path_22219" data-name="Path 22219" d="M152.635,1888.194a5.108,5.108,0,0,1,1.432-1.428,5.369,5.369,0,0,1,1.958-.483c0-.056-.208-.169-.616-.2a2.691,2.691,0,0,0-1.525.36,2.769,2.769,0,0,0-1.1,1.113C152.578,1887.924,152.578,1888.172,152.635,1888.194Z" transform="translate(184.966 3919.766)" fill="#263238"/>
    <path id="Path_22220" data-name="Path 22220" d="M153.814,1890.092a14.53,14.53,0,0,1,1.481-.821,16.709,16.709,0,0,1,1.667-.315,2.06,2.06,0,0,0-.894-.236,1.938,1.938,0,0,0-.905.191A2.132,2.132,0,0,0,153.814,1890.092Z" transform="translate(185.115 3920.094)" fill="#263238"/>
    <path id="Path_22221" data-name="Path 22221" d="M150.452,1885.678a20.874,20.874,0,0,1,2.207-1.428,17.767,17.767,0,0,1,2.52-.731,3.892,3.892,0,0,0-2.678.393A3.95,3.95,0,0,0,150.452,1885.678Z" transform="translate(184.698 3919.438)" fill="#263238"/>
    <path id="Path_22222" data-name="Path 22222" d="M149.91,1880.9c.055.1.983-.349,2.215-.461s2.235.124,2.262,0a3.413,3.413,0,0,0-2.3-.4A3.538,3.538,0,0,0,149.91,1880.9Z" transform="translate(184.631 3919.009)" fill="#263238"/>
    <path id="Path_22223" data-name="Path 22223" d="M149.652,1876.4a8.885,8.885,0,0,1,2.29-.54,8.526,8.526,0,0,1,2.312.45,1.616,1.616,0,0,0-.581-.45,3.854,3.854,0,0,0-3.461.079C149.818,1876.154,149.624,1876.367,149.652,1876.4Z" transform="translate(184.599 3918.45)" fill="#263238"/>
    <path id="Path_22224" data-name="Path 22224" d="M151.9,1875.334a1.483,1.483,0,0,0,0-.652,4.53,4.53,0,0,0-.609-1.675,2.006,2.006,0,0,0-.913-.911.7.7,0,0,0-.427-.034.767.767,0,0,0-.362.236,1.118,1.118,0,0,0-.228.8,2.462,2.462,0,0,0,2.312,2.17,2.887,2.887,0,0,0,1.638-.4,2.961,2.961,0,0,0,1.13-1.259,1.009,1.009,0,0,0,.091-.416.971.971,0,0,0-.091-.416.655.655,0,0,0-.32-.292.692.692,0,0,0-.427-.034,2.38,2.38,0,0,0-1.1.652,4.789,4.789,0,0,0-1.1,1.383,1.452,1.452,0,0,0-.228.607,7.841,7.841,0,0,1,1.5-1.81,2.37,2.37,0,0,1,.976-.551.544.544,0,0,1,.233.022.4.4,0,0,1,.175.157.7.7,0,0,1,.058.281.688.688,0,0,1-.058.27,2.581,2.581,0,0,1-1,1.057,2.5,2.5,0,0,1-1.411.36,2.156,2.156,0,0,1-1.986-1.822.812.812,0,0,1,.138-.562.365.365,0,0,1,.2-.135.548.548,0,0,1,.234.011,1.86,1.86,0,0,1,.788.765A6.607,6.607,0,0,1,151.9,1875.334Z" transform="translate(184.562 3918.022)" fill="#263238"/>
    <path id="Path_22225" data-name="Path 22225" d="M184.48,1867.452l-.893,12.873s12.8,5.228,12.857,7.611l-25.029-.843.567-20.113Z" transform="translate(187.304 3917.393)" fill="#9ec8ff"/>
    <path id="Path_22226" data-name="Path 22226" d="M175.474,1877.653a1.057,1.057,0,0,0-.577.438,1.015,1.015,0,0,0-.157.7.97.97,0,0,0,.417.6,1,1,0,0,0,.712.157,1.126,1.126,0,0,0,.625-.461,1.089,1.089,0,0,0,.156-.765,1.01,1.01,0,0,0-.495-.573.989.989,0,0,0-.758-.067" transform="translate(187.716 3918.716)" fill="#e0e0e0"/>
    <path id="Path_22227" data-name="Path 22227" d="M171.416,1885.114l.138-2.024,23.949,1.552s1.094.529.941,1.315Z" transform="translate(187.304 3919.395)" fill="#e0e0e0"/>
    <path id="Path_22228" data-name="Path 22228" d="M182.869,1878.763c0,.124-.623.157-1.239.528s-.948.877-1.059.821.09-.753.844-1.18S182.9,1878.662,182.869,1878.763Z" transform="translate(188.438 3918.842)" fill="#263238"/>
    <path id="Path_22229" data-name="Path 22229" d="M185.1,1879.8c0,.124-.513.315-.949.821s-.567,1.034-.691,1.034-.173-.7.373-1.327S185.1,1879.684,185.1,1879.8Z" transform="translate(188.791 3918.979)" fill="#263238"/>
    <path id="Path_22230" data-name="Path 22230" d="M186.16,1882.86c-.111,0-.263-.6.075-1.248s.914-.911.962-.81-.311.45-.581.99S186.283,1882.86,186.16,1882.86Z" transform="translate(189.12 3919.108)" fill="#263238"/>
    <path id="Path_22231" data-name="Path 22231" d="M182.789,1876.173c-.055.1-.609-.079-1.3-.056s-1.239.225-1.3.124.47-.529,1.286-.551S182.851,1876.072,182.789,1876.173Z" transform="translate(188.394 3918.475)" fill="#263238"/>
    <path id="Path_22232" data-name="Path 22232" d="M183.031,1874.049a2.466,2.466,0,0,1-1.246-.079,5.893,5.893,0,0,1-1.3-.45,7.636,7.636,0,0,1-.693-.4,1.43,1.43,0,0,1-.367-.315.478.478,0,0,1-.13-.315.511.511,0,0,1,.1-.326.636.636,0,0,1,.243-.2.709.709,0,0,1,.3-.067,1.323,1.323,0,0,1,.464.09,4.712,4.712,0,0,1,.775.281,4.545,4.545,0,0,1,1.128.8c.561.562.748,1.023.693,1.046s-.333-.348-.906-.821A5.263,5.263,0,0,0,181,1872.6a5.123,5.123,0,0,0-.691-.247c-.263-.067-.491-.09-.561,0s0,.067,0,.146a1.015,1.015,0,0,0,.27.225,7.479,7.479,0,0,0,.651.4,7.669,7.669,0,0,0,1.2.506A6.289,6.289,0,0,1,183.031,1874.049Z" transform="translate(188.283 3918.003)" fill="#263238"/>
    <path id="Path_22233" data-name="Path 22233" d="M182.5,1874.385a2,2,0,0,1-.291-1.214,4.139,4.139,0,0,1,.561-2.114,1.074,1.074,0,0,1,.333-.416,1.1,1.1,0,0,1,.49-.191.512.512,0,0,1,.309.1.616.616,0,0,1,.2.259,1.589,1.589,0,0,1,.11.461,2.587,2.587,0,0,1,0,.843,2.862,2.862,0,0,1-.573,1.282c-.513.63-1.024.764-1.039.7a7.23,7.23,0,0,0,.8-.9,2.962,2.962,0,0,0,.436-1.169,2.754,2.754,0,0,0,0-.72c0-.27-.125-.483-.228-.461a.967.967,0,0,0-.45.393,3.6,3.6,0,0,0-.333.7,4.25,4.25,0,0,0-.283,1.237C182.455,1873.913,182.571,1874.374,182.5,1874.385Z" transform="translate(188.645 3917.824)" fill="#263238"/>
    <path id="Path_22234" data-name="Path 22234" d="M137.268,1754.881l3.7,138.433,19.749-.6,4.705-142.547Z" transform="translate(183.06 3902.875)" fill="#263238"/>
    <path id="Path_22235" data-name="Path 22235" d="M176.031,1749.96s14.656,58.688,15.106,68.694S188,1891.192,188,1891.192H168.668l1.619-71.223-14.683-60.25,3.521-9.455Z" transform="translate(185.339 3902.85)" fill="#263238"/>
    <path id="Path_22236" data-name="Path 22236" d="M163.582,1756.37a.775.775,0,0,1,0,.191v.54c0,.517-.042,1.214-.076,2.08-.083,1.855-.208,4.5-.36,7.746-.332,6.566-.8,15.594-1.308,25.566s-1.052,19.012-1.384,25.577c-.2,3.238-.36,5.88-.471,7.735-.062.9-.11,1.608-.145,2.114a1.844,1.844,0,0,1-.048.551.8.8,0,0,1,0,.18.9.9,0,0,1,0-.191v-.54c0-.506.048-1.214.083-2.08.083-1.866.207-4.508.353-7.746.338-6.577.8-15.6,1.308-25.611s1.051-19,1.419-25.6c.193-3.249.353-5.891.47-7.746.063-.888.111-1.6.145-2.08a1.692,1.692,0,0,1,.049-.54A.493.493,0,0,1,163.582,1756.37Z" transform="translate(185.858 3903.646)" fill="#455a64"/>
    <path id="Path_22237" data-name="Path 22237" d="M163.779,1683.231s7.176,35.594,7.28,45.623,3.626,29.625,3.626,29.625H143.615l-.693-54.235-2.215-16.167,4.665-6.667Z" transform="translate(183.487 3894.33)" fill="#f5f5f5"/>
    <path id="Path_22238" data-name="Path 22238" d="M161.568,1683.96s7.411,2.17,9.369,4.913c1.544,2.17,3.634,43.116,3.634,43.116l3.19,36.056-3.106-.292-4.388-13.5Z" transform="translate(186.08 3894.646)" fill="#9ec8ff"/>
    <path id="Path_22239" data-name="Path 22239" d="M169.9,1688.33l20.925,19.2,25.749-8.331,5.128,10.8-27.48,12.457c-3.924,1.675-6.387.753-9.113-1.428L170.7,1709.5Z" transform="translate(187.115 3895.19)" fill="#9ec8ff"/>
    <path id="Path_22240" data-name="Path 22240" d="M207.276,1701.093a.563.563,0,0,1,.039.427.555.555,0,0,1-.275.337.568.568,0,0,1-.429.034.547.547,0,0,1-.332-.27.558.558,0,0,1-.066-.214.513.513,0,0,1,.02-.214.6.6,0,0,1,.1-.2.554.554,0,0,1,.171-.135.578.578,0,0,1,.433-.034A.562.562,0,0,1,207.276,1701.093Z" transform="translate(191.628 3896.739)" fill="#263238"/>
    <path id="Path_22241" data-name="Path 22241" d="M206.81,1701.936a.454.454,0,0,1-.173,0,.632.632,0,0,1-.346-.27.639.639,0,0,1-.04-.45.6.6,0,0,1,.106-.2.85.85,0,0,1,.178-.146.7.7,0,0,1,.217-.067.774.774,0,0,1,.226.034.549.549,0,0,1,.335.259.585.585,0,0,1,.053.427.485.485,0,0,1-.106.2.456.456,0,0,1-.179.146A.561.561,0,0,1,206.81,1701.936Zm0-1.124a.663.663,0,0,0-.256.056.6.6,0,0,0-.263.326.553.553,0,0,0-.02.214.518.518,0,0,0,.062.2.486.486,0,0,0,.135.169.6.6,0,0,0,.191.1.532.532,0,0,0,.415-.034.6.6,0,0,0,.263-.326.591.591,0,0,0,.01-.259.565.565,0,0,0-.1-.225.5.5,0,0,0-.191-.157.6.6,0,0,0-.243-.056Z" transform="translate(191.63 3896.74)" fill="#263238"/>
    <path id="Path_22242" data-name="Path 22242" d="M209.189,1700.633a.555.555,0,0,1,.043.427.585.585,0,0,1-.271.337.566.566,0,0,1-.428.034.515.515,0,0,1-.333-.27.491.491,0,0,1-.067-.2.549.549,0,0,1,.124-.416.544.544,0,0,1,.172-.135.518.518,0,0,1,.427-.045A.562.562,0,0,1,209.189,1700.633Z" transform="translate(191.866 3896.682)" fill="#263238"/>
    <path id="Path_22243" data-name="Path 22243" d="M208.7,1701.486a.449.449,0,0,1-.173,0,.577.577,0,0,1-.387-.731.562.562,0,0,1,.282-.337.5.5,0,0,1,.217-.068.755.755,0,0,1,.226.011.663.663,0,0,1,.346.292.573.573,0,0,1,.042.439.615.615,0,0,1-.283.348A.73.73,0,0,1,208.7,1701.486Zm0-1.135a.519.519,0,0,0-.256.068.6.6,0,0,0-.22.225.566.566,0,0,0-.06.315.6.6,0,0,0,.121.292.611.611,0,0,0,.262.18.594.594,0,0,0,.416-.045.558.558,0,0,0,.263-.326.547.547,0,0,0-.042-.416.484.484,0,0,0-.135-.169.6.6,0,0,0-.191-.1.824.824,0,0,0-.165-.022Z" transform="translate(191.864 3896.683)" fill="#263238"/>
    <path id="Path_22244" data-name="Path 22244" d="M211.017,1700.274a.506.506,0,0,1,.066.2.588.588,0,0,1-.019.225.568.568,0,0,1-.1.191.558.558,0,0,1-.171.135.58.58,0,0,1-.433.045.575.575,0,0,1-.335-.281.55.55,0,0,1-.04-.427.534.534,0,0,1,.275-.326.523.523,0,0,1,.429-.045A.565.565,0,0,1,211.017,1700.274Z" transform="translate(192.094 3896.636)" fill="#263238"/>
    <path id="Path_22245" data-name="Path 22245" d="M210.5,1701.115a.449.449,0,0,1-.173,0,.611.611,0,0,1-.335-.27.573.573,0,0,1-.052-.427.472.472,0,0,1,.1-.2.581.581,0,0,1,.179-.146.718.718,0,0,1,.217-.068.758.758,0,0,1,.226.023.5.5,0,0,1,.2.112.527.527,0,0,1,.145.169.606.606,0,0,1,.04.45.563.563,0,0,1-.283.337A.552.552,0,0,1,210.5,1701.115Zm0-1.135a.519.519,0,0,0-.256.068.566.566,0,0,0-.263.326.534.534,0,0,0-.02.214.583.583,0,0,0,.062.2.654.654,0,0,0,.134.169.576.576,0,0,0,.189.1.678.678,0,0,0,.214.023.648.648,0,0,0,.2-.067.528.528,0,0,0,.264-.326.552.552,0,0,0-.043-.416.564.564,0,0,0-.2-.214A.618.618,0,0,0,210.5,1699.98Z" transform="translate(192.089 3896.638)" fill="#263238"/>
    <path id="Path_22246" data-name="Path 22246" d="M211.645,1698.562l1.992-.742,4.575,9.635-1.945.832Z" transform="translate(192.304 3896.369)" fill="#e0e0e0"/>
    <path id="Path_22247" data-name="Path 22247" d="M170.5,1695.08a6.4,6.4,0,0,1,.117,1.079c.076.764.18,1.743.3,2.934.283,2.541.693,5.925,1.094,9.68s.753,7.218.906,9.691c.083,1.248.118,2.26.125,2.957a5.36,5.36,0,0,1,0,1.091,6.746,6.746,0,0,1-.1-1.079c-.048-.7-.124-1.709-.242-2.946-.221-2.474-.588-5.891-1.011-9.691s-.788-7.2-.989-9.68c-.1-1.248-.159-2.249-.187-2.957A5.485,5.485,0,0,1,170.5,1695.08Z" transform="translate(187.188 3896.029)" fill="#263238"/>
    <path id="Path_22248" data-name="Path 22248" d="M174.9,1699.36a80,80,0,0,1-2.968,10.219,38.9,38.9,0,0,1,1.308-5.16A37.49,37.49,0,0,1,174.9,1699.36Z" transform="translate(187.367 3896.561)" fill="#263238"/>
    <path id="Path_22249" data-name="Path 22249" d="M188.4,1711.922a2.334,2.334,0,0,1-.463-.922,6.607,6.607,0,0,1,.3-4.846c.283-.573.54-.877.575-.854a12.694,12.694,0,0,0-.831,3.272A13.115,13.115,0,0,0,188.4,1711.922Z" transform="translate(189.317 3897.299)" fill="#263238"/>
    <path id="Path_22250" data-name="Path 22250" d="M186.3,1730.97l2.678.2-1.059,11.175-2.588-.292Z" transform="translate(189.032 3900.489)" fill="#e0e0e0"/>
    <path id="Path_22251" data-name="Path 22251" d="M146.918,1682.1l-14.443,9.242a9.364,9.364,0,0,0-3.494,10.636l11.072,34.8L136.06,1768.4l31.652-1.338-.775-13.84-2.685-24.8a49.333,49.333,0,0,0-3.4-13.39Z" transform="translate(181.97 3894.416)" fill="#9ec8ff"/>
    <path id="Path_22252" data-name="Path 22252" d="M131.575,1702.872l14.441,30.221a8.954,8.954,0,0,0,6.007,4.846l40.079,9.5,1.024-11.681-30.593-11.49-15.39-29.546a8.837,8.837,0,0,0-2.254-2.754,8.811,8.811,0,0,0-10.077-.7,8.784,8.784,0,0,0-3.238,11.6Z" transform="translate(182.228 3895.398)" fill="#9ec8ff"/>
    <path id="Path_22253" data-name="Path 22253" d="M192.707,1735.7a.824.824,0,0,1-.165-.045l-.471-.157-1.813-.652-6.712-2.473-22.621-8.455h-.063l-.035-.056c-.851-1.7-1.751-3.463-2.663-5.284-2.5-4.879-5-9.489-7.343-13.626-1.169-2.08-2.3-4.036-3.363-5.869l-1.557-2.665c-.25-.427-.5-.832-.761-1.225a10.516,10.516,0,0,0-.816-1.091,9.629,9.629,0,0,0-3.847-2.766,8.724,8.724,0,0,0-3.55-.641,6.415,6.415,0,0,0-2.976.8l.166-.112a2.484,2.484,0,0,1,.533-.292,6.091,6.091,0,0,1,2.27-.528,8.68,8.68,0,0,1,3.626.585,10.3,10.3,0,0,1,4.845,3.924c.277.394.533.81.775,1.226l1.571,2.631q1.619,2.749,3.4,5.857c2.353,4.149,4.845,8.736,7.376,13.626.921,1.81,1.82,3.587,2.658,5.3l-.1-.09,22.579,8.567,6.671,2.575,1.792.686.463.191Z" transform="translate(182.647 3895.466)" fill="#263238"/>
    <path id="Path_22254" data-name="Path 22254" d="M180.282,1737.242a.558.558,0,0,1-.166.4.562.562,0,0,1-.8,0,.554.554,0,0,1-.166-.4.568.568,0,0,1,1.136,0Z" transform="translate(188.265 3901.199)" fill="#263238"/>
    <path id="Path_22255" data-name="Path 22255" d="M179.729,1737.839a.666.666,0,0,1-.329-.09.594.594,0,0,1-.219-.27.574.574,0,0,1-.035-.337.588.588,0,0,1,.161-.3.616.616,0,0,1,.3-.157.588.588,0,0,1,.341.034.627.627,0,0,1,.264.214.595.595,0,0,1-.076.742A.56.56,0,0,1,179.729,1737.839Zm0-1.135a.6.6,0,0,0-.309.09.593.593,0,0,0-.207.247.548.548,0,0,0,.116.607.557.557,0,0,0,.283.157.525.525,0,0,0,.32-.034.581.581,0,0,0,.25-.2.551.551,0,0,0,.094-.3.628.628,0,0,0-.036-.225.576.576,0,0,0-.117-.18.589.589,0,0,0-.18-.124.473.473,0,0,0-.215-.045Z" transform="translate(188.263 3901.198)" fill="#263238"/>
    <path id="Path_22256" data-name="Path 22256" d="M182.19,1737.772a.554.554,0,0,1-.166.4.562.562,0,0,1-.8,0,.558.558,0,0,1-.166-.4.568.568,0,0,1,1.136,0Z" transform="translate(188.502 3901.265)" fill="#263238"/>
    <path id="Path_22257" data-name="Path 22257" d="M181.623,1738.328a.6.6,0,0,1-.537-.36.583.583,0,0,1-.033-.337.559.559,0,0,1,.159-.292.526.526,0,0,1,.3-.157.68.68,0,0,1,.336.022.58.58,0,0,1,.261.225.546.546,0,0,1,.1.315.573.573,0,0,1-.044.225.657.657,0,0,1-.126.191.611.611,0,0,1-.189.124A.51.51,0,0,1,181.623,1738.328Zm0-1.124a.492.492,0,0,0-.3.09.527.527,0,0,0-.2.247.535.535,0,0,0-.031.315.582.582,0,0,0,.15.281.633.633,0,0,0,.28.146.509.509,0,0,0,.316-.034.568.568,0,0,0,.245-.2.541.541,0,0,0-.067-.686A.55.55,0,0,0,181.623,1737.2Z" transform="translate(188.5 3901.26)" fill="#263238"/>
    <path id="Path_22258" data-name="Path 22258" d="M183.407,1738.845a.562.562,0,0,0,.568-.562.568.568,0,1,0-1.136,0A.562.562,0,0,0,183.407,1738.845Z" transform="translate(188.724 3901.327)" fill="#263238"/>
    <path id="Path_22259" data-name="Path 22259" d="M183.42,1738.869a.654.654,0,0,1-.323-.1.623.623,0,0,1-.214-.259.593.593,0,0,1-.034-.337.586.586,0,0,1,.16-.3.6.6,0,0,1,.3-.157.57.57,0,0,1,.335.034.623.623,0,0,1,.261.214.61.61,0,0,1,.1.326.548.548,0,0,1-.17.4A.578.578,0,0,1,183.42,1738.869Zm0-1.136a.547.547,0,0,0-.386.157.575.575,0,0,0-.161.393.53.53,0,0,0,.161.382.553.553,0,0,0,.772,0,.534.534,0,0,0,.161-.382.58.58,0,0,0-.161-.393A.55.55,0,0,0,183.42,1737.734Z" transform="translate(188.724 3901.326)" fill="#263238"/>
    <path id="Path_22260" data-name="Path 22260" d="M191.681,1745.381l-.193-.034-.561-.124-2.159-.517-7.931-1.956c-6.691-1.63-15.915-3.958-26.171-6.33-1.279-.3-2.546-.551-3.8-.888a8.345,8.345,0,0,1-3.459-1.709,9.907,9.907,0,0,1-2.077-3.047l-1.509-3.159-5.175-10.939-3.461-7.4-.921-2.013-.235-.528a1.175,1.175,0,0,1-.069-.18s.042.056.1.157l.263.528.989,1.979c.851,1.765,2.077,4.261,3.571,7.341l5.253,10.906c.491,1.023,1,2.08,1.516,3.148a9.636,9.636,0,0,0,2.027,2.934,7.9,7.9,0,0,0,3.287,1.63c1.224.337,2.5.573,3.784.888,10.249,2.372,19.473,4.733,26.151,6.442l7.9,2.069,2.138.585.553.157A.993.993,0,0,1,191.681,1745.381Z" transform="translate(182.649 3897.456)" fill="#263238"/>
    <path id="Path_22261" data-name="Path 22261" d="M158.124,1739.41a3.922,3.922,0,0,1-.477.393c-.326.236-.789.585-1.384.978a21.976,21.976,0,0,1-4.983,2.586,11.346,11.346,0,0,1-5.578.562,7.059,7.059,0,0,1-1.647-.472,2.034,2.034,0,0,1-.546-.292,21.612,21.612,0,0,0,2.228.517,12.033,12.033,0,0,0,5.425-.652,26.393,26.393,0,0,0,4.963-2.462A17.352,17.352,0,0,1,158.124,1739.41Z" transform="translate(183.835 3901.538)" fill="#263238"/>
    <path id="Path_22262" data-name="Path 22262" d="M159.921,1742.98a.981.981,0,0,1,.1.259,6.481,6.481,0,0,1,.187.776,8.688,8.688,0,0,1,0,2.934,9,9,0,0,1-1.8,3.957,8.709,8.709,0,0,1-13.362.315,8.526,8.526,0,0,1-1.55-2.507,7.736,7.736,0,0,1-.243-.753c-.042-.18-.062-.27-.048-.27a10.37,10.37,0,0,0,2.028,3.35,8.926,8.926,0,0,0,3.514,2.316,8.68,8.68,0,0,0,9.4-2.62,8.932,8.932,0,0,0,1.806-3.8A10.55,10.55,0,0,0,159.921,1742.98Z" transform="translate(183.797 3901.981)" fill="#263238"/>
    <path id="Path_22263" data-name="Path 22263" d="M146.268,1658.986l.09,25.78a7.582,7.582,0,0,0,.636,3.013,7.656,7.656,0,0,0,14.676-3.08v-3.755s6.56-.641,7.01-7.139c.221-3.148.139-9.646,0-15.526a12.124,12.124,0,0,0-11.438-11.827h-.63C149.852,1646.428,146.067,1652.173,146.268,1658.986Z" transform="translate(184.178 3889.985)" fill="#b78876"/>
    <path id="Path_22264" data-name="Path 22264" d="M160.922,1677.37a15.149,15.149,0,0,1-8.3-2.89s1.737,4.789,8.256,4.576Z" transform="translate(184.968 3893.469)" fill="#aa6550"/>
    <path id="Path_22265" data-name="Path 22265" d="M165,1660.469a.932.932,0,0,1-.3.641.949.949,0,0,1-.659.247.92.92,0,0,1-.347-.067.817.817,0,0,1-.3-.191.83.83,0,0,1-.2-.292.9.9,0,0,1-.067-.349.943.943,0,0,1,.3-.63.885.885,0,0,1,.653-.247.734.734,0,0,1,.346.056.989.989,0,0,1,.3.191,1.08,1.08,0,0,1,.2.292A.9.9,0,0,1,165,1660.469Z" transform="translate(186.275 3891.616)" fill="#263238"/>
    <path id="Path_22266" data-name="Path 22266" d="M165.366,1659.52c-.117.112-.8-.45-1.792-.506s-1.764.4-1.862.27.076-.27.408-.483a2.518,2.518,0,0,1,1.5-.36,2.48,2.48,0,0,1,1.384.54C165.339,1659.239,165.429,1659.464,165.366,1659.52Z" transform="translate(186.095 3891.474)" fill="#263238"/>
    <path id="Path_22267" data-name="Path 22267" d="M156.362,1660.4a.93.93,0,0,1-.293.641.887.887,0,0,1-.654.247,1.2,1.2,0,0,1-.346-.056.828.828,0,0,1-.3-.2.813.813,0,0,1-.2-.292.822.822,0,0,1-.067-.337.929.929,0,0,1,.293-.641.887.887,0,0,1,.654-.247.908.908,0,0,1,.347.056.978.978,0,0,1,.295.191,1.047,1.047,0,0,1,.2.292A.914.914,0,0,1,156.362,1660.4Z" transform="translate(185.202 3891.608)" fill="#263238"/>
    <path id="Path_22268" data-name="Path 22268" d="M156.523,1659.31c-.125.124-.8-.45-1.8-.495s-1.757.4-1.861.27.082-.259.415-.472a2.588,2.588,0,0,1,1.494-.382,2.542,2.542,0,0,1,1.426.551C156.488,1659.017,156.578,1659.265,156.523,1659.31Z" transform="translate(184.994 3891.449)" fill="#263238"/>
    <path id="Path_22269" data-name="Path 22269" d="M158.927,1667.1a6.731,6.731,0,0,1,1.64-.2c.256,0,.5-.045.553-.225a1.3,1.3,0,0,0-.124-.753q-.312-.944-.644-1.99a29.059,29.059,0,0,1-1.384-5.183,33.416,33.416,0,0,1,1.82,5.048c.208.686.415,1.383.609,1.99a1.472,1.472,0,0,1,.075,1.012.6.6,0,0,1-.181.225.74.74,0,0,1-.262.124,1.882,1.882,0,0,1-.435.034A5.928,5.928,0,0,1,158.927,1667.1Z" transform="translate(185.752 3891.514)" fill="#263238"/>
    <path id="Path_22270" data-name="Path 22270" d="M156.978,1657.445c-.117.27-1.107.079-2.283.157s-2.152.337-2.29.079c-.063-.113.117-.36.512-.6a3.973,3.973,0,0,1,1.709-.495,3.9,3.9,0,0,1,1.752.3C156.826,1657.085,157.026,1657.322,156.978,1657.445Z" transform="translate(184.939 3891.244)" fill="#263238"/>
    <path id="Path_22271" data-name="Path 22271" d="M165.266,1657.4c-.187.225-.865-.045-1.688-.112s-1.537.067-1.689-.18c-.063-.112.062-.337.38-.54a2.377,2.377,0,0,1,1.384-.292,2.306,2.306,0,0,1,1.322.54C165.266,1657.058,165.342,1657.294,165.266,1657.4Z" transform="translate(186.118 3891.204)" fill="#263238"/>
    <path id="Path_22272" data-name="Path 22272" d="M146.992,1661.943c-.11-.056-4.394-1.574-4.5,2.878s4.38,3.643,4.395,3.519S146.992,1661.943,146.992,1661.943Z" transform="translate(183.708 3891.874)" fill="#b78876"/>
    <path id="Path_22273" data-name="Path 22273" d="M145.412,1666.461a1.135,1.135,0,0,1-.208.113.746.746,0,0,1-.581,0,1.936,1.936,0,0,1-.844-1.743,2.526,2.526,0,0,1,.242-1.1.865.865,0,0,1,.228-.371.949.949,0,0,1,.374-.214.361.361,0,0,1,.264.034.348.348,0,0,1,.185.191c.055.124,0,.214.048.225s.1-.079.07-.259a.561.561,0,0,0-.372-.394.751.751,0,0,0-.224-.022,1.183,1.183,0,0,0-.506.236,1.1,1.1,0,0,0-.324.461,2.635,2.635,0,0,0-.3,1.237,2,2,0,0,0,1.086,1.945.958.958,0,0,0,.358.034.91.91,0,0,0,.335-.135C145.412,1666.574,145.46,1666.473,145.412,1666.461Z" transform="translate(183.829 3892.032)" fill="#aa6550"/>
    <path id="Path_22274" data-name="Path 22274" d="M144.352,1663.643a2.393,2.393,0,0,1,1.206.326,2.323,2.323,0,0,1,.869.888c.25.652.278,1.383.526,2.035a1.575,1.575,0,0,0,1.557,1.135,1.366,1.366,0,0,0,.627-.349,1.4,1.4,0,0,0,.369-.607,3.855,3.855,0,0,0,.09-1.439c-.138-2.069-.463-4.149-.422-6.262a10.738,10.738,0,0,1,1.654-5.981,5.854,5.854,0,0,1,5.37-2.62c1.384.191,2.6.978,3.959,1.248a5.447,5.447,0,0,0,2.445-.09,5.323,5.323,0,0,0,2.156-1.158,2,2,0,0,1,.221-.157,1.2,1.2,0,0,0,.5-1.383,1.123,1.123,0,0,0-.235-.438c-2.581-2.676-7.453-3.654-11.072-2.957a12.982,12.982,0,0,0-8.905,6.33c-1.737,3.283-1.55,7.994-.886,11.456" transform="translate(183.885 3889.881)" fill="#263238"/>
    <path id="Path_22275" data-name="Path 22275" d="M156.846,1666.88c.166,0,.166,1.079,1.094,1.844s2.075.652,2.075.8-.255.214-.747.225a2.727,2.727,0,0,1-1.744-.607,2.368,2.368,0,0,1-.831-1.506C156.652,1667.139,156.777,1666.88,156.846,1666.88Z" transform="translate(185.473 3892.524)" fill="#263238"/>
    <path id="Path_22276" data-name="Path 22276" d="M212.137,1699.992s4.878-4.283,5.8-4.6,8.3-.461,8.76-.079,7.931,4.441,6.7,5.059-6.387-2.294-6.387-2.294l-.865.112s4.5,2.406,5.293,3.328,0,1.877-.8,1.484-4.7-2.62-5-2.541,4.11,2.676,4.518,3.148c.548.652.194,1.889-.657,1.529-.5-.214-4.568-2.912-4.568-2.912a40.325,40.325,0,0,1,3.294,3.024c.36.686-.332,1.315-1.044.877-.485-.3-2.581-2.361-3.232-2.766,0,0-.691-.056-1.777,1.079s-5.246,2.676-5.246,2.676Z" transform="translate(192.364 3896.029)" fill="#b78876"/>
    <path id="Path_22277" data-name="Path 22277" d="M232.151,1700.1a3.745,3.745,0,0,1-1.578-.1,9.393,9.393,0,0,1-1.654-.495c-.574-.27-1.2-.6-1.869-.933l-1.384-.686h.1a22.31,22.31,0,0,1-3.778-.112,23.506,23.506,0,0,1,3.771-.27h.09l1.384.7,1.842.944a11.046,11.046,0,0,0,1.571.562C231.555,1699.974,232.158,1700.03,232.151,1700.1Z" transform="translate(193.589 3896.329)" fill="#aa6550"/>
    <path id="Path_22278" data-name="Path 22278" d="M213.75,1700.923a1.7,1.7,0,0,0,1.834.641c.691-.146,1.294-.528,1.957-.7,2-.573,4.222.495,6.187-.18.277-.09.581-.292.553-.585s-.332-.393-.588-.483l-6.56-2.069" transform="translate(192.565 3896.336)" fill="#b78876"/>
    <path id="Path_22279" data-name="Path 22279" d="M217.135,1697.52a3.266,3.266,0,0,1,.734.146c.463.124,1.128.315,1.952.562l2.878.866.831.259c.262.1.643.124.893.54a.583.583,0,0,1,.045.337.6.6,0,0,1-.15.3,1.264,1.264,0,0,1-.47.3,4.341,4.341,0,0,1-1,.225,25.471,25.471,0,0,1-3.7-.2,5.1,5.1,0,0,0-1.543.146c-.463.124-.893.326-1.3.472a2.4,2.4,0,0,1-2.077,0c-.443-.259-.512-.573-.5-.573a2.006,2.006,0,0,0,.568.438,2.128,2.128,0,0,0,.956.124,2.413,2.413,0,0,0,.926-.259,14.009,14.009,0,0,1,1.314-.54,5.434,5.434,0,0,1,1.647-.191,30.441,30.441,0,0,0,3.647.169,4.049,4.049,0,0,0,.893-.2c.27-.09.456-.281.373-.4a1.349,1.349,0,0,0-.691-.349l-.831-.27-2.816-.933c-.809-.27-1.467-.506-1.917-.686A3.411,3.411,0,0,1,217.135,1697.52Z" transform="translate(192.563 3896.332)" fill="#aa6550"/>
    <path id="Path_22280" data-name="Path 22280" d="M187.8,1731.3l8.089-.8s10.7,7.319,9.688,8.938-2.768,0-2.768,0,1.909,2.339-1.17,3.081c0,0-.733,1.608-1.9,1.462H199s-.691,2.046-1.654,1.608a33.944,33.944,0,0,1-3.972-3.081l-8.3-.731Z" transform="translate(189.001 3900.431)" fill="#b78876"/>
    <path id="Path_22281" data-name="Path 22281" d="M192.287,1738.644s-2.075.8-2.5,1.63-.691,2.766.651,3.148a11.835,11.835,0,0,0,2.36-.079l-.513-2.17a15.743,15.743,0,0,1,1.232-1.282C193.962,1739.521,193.478,1738.093,192.287,1738.644Z" transform="translate(189.544 3901.428)" fill="#ffbe9d"/>
    <path id="Path_22282" data-name="Path 22282" d="M194.344,1739.636s-2.075.787-2.5,1.619a1.844,1.844,0,0,0-.191.787,1.816,1.816,0,0,0,.66,1.428,1.778,1.778,0,0,0,.722.371,9.714,9.714,0,0,0,2.138-.067l-.221-.427c-.415-.821-.595-1.484.138-2.024a4.309,4.309,0,0,0,.485-.45.883.883,0,0,0,.133-.573.86.86,0,0,0-.255-.528.956.956,0,0,0-.531-.27A.88.88,0,0,0,194.344,1739.636Z" transform="translate(189.819 3901.549)" fill="#ffbe9d"/>
    <path id="Path_22283" data-name="Path 22283" d="M194.527,1743.513a1.218,1.218,0,0,1-.316-.686,1.19,1.19,0,0,1,.15-.731,1.962,1.962,0,0,1,1.218-.888.825.825,0,0,1,.492-.056.842.842,0,0,1,.449.2.813.813,0,0,1,.138.63,3.277,3.277,0,0,1-.816,1.506,1.041,1.041,0,0,1-.741.506c-.311-.011-.54-.3-.691-.551" transform="translate(190.136 3901.753)" fill="#ffbe9d"/>
    <path id="Path_22284" data-name="Path 22284" d="M155.736,1685.3l1.812-.7,1.578,2.822-.879,3-1.855.461-1.847-2.327Z" transform="translate(185.207 3894.727)" fill="#9ec8ff"/>
    <path id="Path_22285" data-name="Path 22285" d="M156.188,1690.243s2.36,12.952,4.318,22.058c0,0,1.612,7.611,2.263,9.331a25.805,25.805,0,0,0,2.968,4.846l2.277.877-1.384-12.794-8.581-24.8Z" transform="translate(185.411 3895.368)" fill="#9ec8ff"/>
    <g id="Group_612" data-name="Group 612" transform="translate(339.752 5579.326)" opacity="0.4">
      <path id="Path_22286" data-name="Path 22286" d="M155.736,1685.3l1.812-.7,1.578,2.822-.879,3-1.855.461-1.847-2.327Z" transform="translate(-154.545 -1684.6)" opacity="0.4"/>
    </g>
    <g id="Group_613" data-name="Group 613" transform="translate(341.6 5585.128)" opacity="0.4">
      <path id="Path_22287" data-name="Path 22287" d="M156.188,1690.243s2.36,12.952,4.318,22.058c0,0,1.847,7.51,2.263,9.331.242,1.068,2.968,4.846,2.968,4.846l2.277.877-1.384-12.794-8.581-24.8Z" transform="translate(-156.188 -1689.76)" opacity="0.4"/>
    </g>
    <path id="Path_22288" data-name="Path 22288" d="M146.043,1678.22l10.919,7.87-2.359,6.487-9.938-10.231Z" transform="translate(183.979 3893.934)" fill="#f5f5f5"/>
    <path id="Path_22289" data-name="Path 22289" d="M157.216,1685.352l3.051-6.8,1.73,5.61-2.4,5.9Z" transform="translate(185.539 3893.975)" fill="#f5f5f5"/>
    <path id="Path_22290" data-name="Path 22290" d="M156.937,1685.692a2.132,2.132,0,0,1-.125.495c-.125.371-.27.821-.443,1.383-.388,1.158-.955,2.766-1.64,4.688l-.09.27-.193-.214-2.54-2.8c-1.979-2.2-3.757-4.193-5.024-5.655l-1.494-1.743a4.121,4.121,0,0,1-.513-.7,3.983,3.983,0,0,1,.616.584l1.578,1.653c1.321,1.394,3.128,3.4,5.1,5.588.893,1,1.744,1.956,2.533,2.822l-.284.056c.693-1.889,1.315-3.508,1.758-4.643l.532-1.327A1.525,1.525,0,0,1,156.937,1685.692Z" transform="translate(184.005 3894.331)" fill="#263238"/>
    <path id="Path_22291" data-name="Path 22291" d="M161.994,1683.55a8.15,8.15,0,0,1-.512,1.6c-.36.967-.872,2.282-1.467,3.744l-.256.63-.18.438-.152-.45a30.7,30.7,0,0,0-2.18-4.475,4.461,4.461,0,0,1,.913,1.136,15.4,15.4,0,0,1,1.605,3.215h-.338c.082-.191.173-.4.255-.63.6-1.45,1.149-2.766,1.564-3.7A7.292,7.292,0,0,1,161.994,1683.55Z" transform="translate(185.543 3894.596)" fill="#263238"/>
    <path id="Path_22292" data-name="Path 22292" d="M286.223,1865.8l4.207,16.707,7.135,12.288a1.706,1.706,0,0,1,.228.675,1.768,1.768,0,0,1-.061.72,1.84,1.84,0,0,1-.342.641,1.9,1.9,0,0,1-.566.438,1.8,1.8,0,0,1-1.612,0c-3.211-1.731-14.975-8.151-15.224-9.388-.278-1.439-5.612-17.336-5.612-17.336Z" transform="translate(200.1 3917.246)" fill="#9ec8ff"/>
    <g id="Group_614" data-name="Group 614" transform="translate(479.79 5803.946)" opacity="0.6">
      <path id="Path_22293" data-name="Path 22293" d="M296.237,1894.924,279.1,1884.39l.193.686a2.678,2.678,0,0,0,1.066,1.5c1.384.944,5.314,3.463,14.206,8.308a1.82,1.82,0,0,0,1.668,0Z" transform="translate(-279.103 -1884.39)" fill="#fff" opacity="0.6"/>
    </g>
    <g id="Group_615" data-name="Group 615" transform="translate(480.423 5797.632)" opacity="0.6">
      <path id="Path_22294" data-name="Path 22294" d="M280.957,1878.781a1.07,1.07,0,0,1,.591.495,1.094,1.094,0,0,1,.1.776,1.026,1.026,0,0,1-1.252.686,1.142,1.142,0,0,1-.606-.54,1.1,1.1,0,0,1-.087-.8,1.065,1.065,0,0,1,1.384-.54" transform="translate(-279.666 -1878.774)" fill="#fff" opacity="0.6"/>
    </g>
    <path id="Path_22295" data-name="Path 22295" d="M289.19,1888.536a5.272,5.272,0,0,1,1.093-1.7,5.029,5.029,0,0,1,1.813-.888c0-.056-.242-.124-.643-.067a2.8,2.8,0,0,0-1.384.686,2.775,2.775,0,0,0-.838,1.327C289.1,1888.277,289.142,1888.524,289.19,1888.536Z" transform="translate(201.935 3919.739)" fill="#263238"/>
    <path id="Path_22296" data-name="Path 22296" d="M290.781,1890.136c.1.045.485-.641,1.274-1.124a15.473,15.473,0,0,1,1.564-.663,2.135,2.135,0,0,0-.923-.045,1.96,1.96,0,0,0-.842.382C290.961,1889.237,290.684,1890.114,290.781,1890.136Z" transform="translate(202.137 3920.039)" fill="#263238"/>
    <path id="Path_22297" data-name="Path 22297" d="M286.526,1886.6a16.208,16.208,0,0,1,1.847-1.866,17.959,17.959,0,0,1,2.3-1.259,4.822,4.822,0,0,0-4.152,3.125Z" transform="translate(201.609 3919.442)" fill="#263238"/>
    <path id="Path_22298" data-name="Path 22298" d="M285.006,1881.99c.075.09.885-.551,2.075-.922s2.208-.349,2.215-.461a3.465,3.465,0,0,0-2.333.1A3.415,3.415,0,0,0,285.006,1881.99Z" transform="translate(201.421 3919.067)" fill="#263238"/>
    <path id="Path_22299" data-name="Path 22299" d="M283.8,1877.655a5.587,5.587,0,0,1,4.478-1.079,1.276,1.276,0,0,0-.693-.315,3.8,3.8,0,0,0-1.777.011,3.845,3.845,0,0,0-1.585.8C283.9,1877.374,283.766,1877.621,283.8,1877.655Z" transform="translate(201.271 3918.534)" fill="#263238"/>
    <path id="Path_22300" data-name="Path 22300" d="M285.764,1876.12a1.436,1.436,0,0,0-.145-.63,4.564,4.564,0,0,0-.954-1.506,1.975,1.975,0,0,0-1.087-.7.688.688,0,0,0-.423.067.678.678,0,0,0-.3.3,1.128,1.128,0,0,0-.055.821,2.476,2.476,0,0,0,1.065,1.3,2.512,2.512,0,0,0,1.655.337,2.9,2.9,0,0,0,2.338-2.215.994.994,0,0,0,0-.427.967.967,0,0,0-.179-.394.69.69,0,0,0-.371-.214.784.784,0,0,0-.425.045,2.58,2.58,0,0,0-.941.877,5,5,0,0,0-.775,1.608,1.517,1.517,0,0,0-.1.641,8.086,8.086,0,0,1,1.086-2.08,2.312,2.312,0,0,1,.838-.731.409.409,0,0,1,.232-.034.354.354,0,0,1,.2.113.8.8,0,0,1,.1.27.679.679,0,0,1-.016.281,2.593,2.593,0,0,1-.758,1.259,2.645,2.645,0,0,1-1.318.641,2.163,2.163,0,0,1-2.332-1.383.837.837,0,0,1,0-.573.336.336,0,0,1,.166-.168.345.345,0,0,1,.235-.045,1.8,1.8,0,0,1,.926.573A6.768,6.768,0,0,1,285.764,1876.12Z" transform="translate(201.14 3918.124)" fill="#263238"/>
    <path id="Path_22301" data-name="Path 22301" d="M239.816,1868.616l.893,12.884s-12.789,5.228-12.857,7.611l25.029-.843-.56-20.069Z" transform="translate(194.317 3917.544)" fill="#9ec8ff"/>
    <path id="Path_22302" data-name="Path 22302" d="M246.267,1878.831a1.073,1.073,0,0,1,.594.427,1.038,1.038,0,0,1,.154.719.967.967,0,0,1-.415.6.945.945,0,0,1-.714.146,1.053,1.053,0,0,1-.624-.45,1.065,1.065,0,0,1-.157-.753,1.012,1.012,0,0,1,1.259-.652" transform="translate(196.46 3918.864)" fill="#e0e0e0"/>
    <path id="Path_22303" data-name="Path 22303" d="M252.881,1886.274l-.132-2.024-23.949,1.563s-1.1.517-.948,1.293Z" transform="translate(194.315 3919.539)" fill="#e0e0e0"/>
    <path id="Path_22304" data-name="Path 22304" d="M238.923,1879.933c0,.124.623.168,1.232.54s.954.866,1.066.821-.1-.753-.844-1.192S238.9,1879.832,238.923,1879.933Z" transform="translate(195.693 3918.987)" fill="#263238"/>
    <path id="Path_22305" data-name="Path 22305" d="M236.621,1880.976c0,.124.513.3.941.809s.575,1.046.693,1.034.18-.686-.373-1.315S236.621,1880.864,236.621,1880.976Z" transform="translate(195.407 3919.125)" fill="#263238"/>
    <path id="Path_22306" data-name="Path 22306" d="M235.5,1884.04c.118,0,.263-.6-.069-1.259s-.921-.9-.969-.8.318.45.588,1S235.382,1884.029,235.5,1884.04Z" transform="translate(195.139 3919.254)" fill="#263238"/>
    <path id="Path_22307" data-name="Path 22307" d="M239.035,1877.353c.055.1.609-.079,1.3-.056s1.239.214,1.294.112-.47-.528-1.287-.54S238.966,1877.252,239.035,1877.353Z" transform="translate(195.707 3918.622)" fill="#263238"/>
    <path id="Path_22308" data-name="Path 22308" d="M238.917,1875.2a2.368,2.368,0,0,0,1.252-.045,5.833,5.833,0,0,0,1.294-.45,7.249,7.249,0,0,0,.693-.4,1.735,1.735,0,0,0,.373-.315.526.526,0,0,0,.128-.315.542.542,0,0,0-.093-.337.726.726,0,0,0-.243-.191.709.709,0,0,0-.3-.067,1.669,1.669,0,0,0-.471.079,5.972,5.972,0,0,0-.768.292,4.593,4.593,0,0,0-1.128.8c-.568.562-.748,1.023-.693,1.046s.325-.349.9-.821a5.251,5.251,0,0,1,1.1-.686,3.815,3.815,0,0,1,.691-.247c.263-.079.485-.09.561,0s0,.056,0,.146a1.43,1.43,0,0,1-.277.214,7.215,7.215,0,0,1-.651.4,7.575,7.575,0,0,1-1.189.506A7.254,7.254,0,0,0,238.917,1875.2Z" transform="translate(195.692 3918.15)" fill="#263238"/>
    <path id="Path_22309" data-name="Path 22309" d="M239.252,1875.567a1.961,1.961,0,0,0,.29-1.214,4.2,4.2,0,0,0-.215-1.394,3.967,3.967,0,0,0-.345-.742,1.155,1.155,0,0,0-.329-.416,1.084,1.084,0,0,0-.488-.191.612.612,0,0,0-.512.36,1.817,1.817,0,0,0-.118.472,2.865,2.865,0,0,0,0,.843,2.931,2.931,0,0,0,.581,1.282c.513.63,1.024.753,1.031.686a6.776,6.776,0,0,1-.788-.888,2.955,2.955,0,0,1-.436-1.169,2.568,2.568,0,0,1,0-.731c0-.259.125-.483.221-.45a.892.892,0,0,1,.456.394,4.713,4.713,0,0,1,.333.686,4.412,4.412,0,0,1,.283,1.237C239.3,1875.084,239.189,1875.556,239.252,1875.567Z" transform="translate(195.518 3917.968)" fill="#263238"/>
    <path id="Path_22310" data-name="Path 22310" d="M232.417,1743.98l4.028,149.844,19.742-.585-1.516-128.618,25.16,132.193,17.833-4.655-23.023-147.9Z" transform="translate(194.885 3902.106)" fill="#263238"/>
    <path id="Path_22311" data-name="Path 22311" d="M242.064,1892.768c-.1,0-.18-31.064-.18-69.368s.075-69.379.18-69.379.18,31.053.18,69.379S242.161,1892.768,242.064,1892.768Z" transform="translate(196.062 3903.354)" fill="#455a64"/>
    <path id="Path_22312" data-name="Path 22312" d="M281.84,1894.6c-.1,0-4.706-29.748-10.3-66.512s-10.027-66.58-9.951-66.591,4.713,29.76,10.3,66.524S281.944,1894.6,281.84,1894.6Z" transform="translate(198.511 3904.283)" fill="#455a64"/>
    <path id="Path_22313" data-name="Path 22313" d="M260.593,1662.676a30.235,30.235,0,0,0,1.667-4.778c.236-1.237.609-3.1.111-4.272a2.991,2.991,0,0,0-3.231-1.956,7.266,7.266,0,0,0-4.187-5.677,18.729,18.729,0,0,0-6.92-1.8,6.194,6.194,0,0,0-2.6.326,3.373,3.373,0,0,0-1.557,1.709,5.7,5.7,0,0,0-5.086-.809c-1.91.517-4.083,1.54-4.92,3.328a5.6,5.6,0,0,0-.146,4.227c.368,1.158,1.6,2.991,2.768,2.563" transform="translate(195.005 3889.701)" fill="#263238"/>
    <path id="Path_22314" data-name="Path 22314" d="M250.676,1694.247a8.462,8.462,0,0,1-3.32-.742,8.7,8.7,0,0,1-2.766-1.979,8.6,8.6,0,0,1-1.774-2.912,8.5,8.5,0,0,1-.5-3.362c.117-2.395.228-4.328.228-4.328s-6.519-.843-6.761-7.319.513-21.418.513-21.418a22.518,22.518,0,0,1,22.732,2.3l.976.686-.6,30.67a8.575,8.575,0,0,1-.709,3.272,8.694,8.694,0,0,1-1.908,2.743,8.569,8.569,0,0,1-6.108,2.384Z" transform="translate(195.298 3890.442)" fill="#ffbe9d"/>
    <path id="Path_22315" data-name="Path 22315" d="M241.789,1677.76a15.137,15.137,0,0,0,8.4-2.62s-2,5.037-8.491,4.609Z" transform="translate(196.038 3893.551)" fill="#eb996e"/>
    <path id="Path_22316" data-name="Path 22316" d="M256.771,1660.666c.11-.045,4.429-1.428,4.394,3.013s-4.477,3.5-4.485,3.362S256.771,1660.666,256.771,1660.666Z" transform="translate(197.9 3891.722)" fill="#ffbe9d"/>
    <path id="Path_22317" data-name="Path 22317" d="M257.893,1665.221a1.043,1.043,0,0,0,.207.1.746.746,0,0,0,.581,0,1.888,1.888,0,0,0,.682-.731,1.943,1.943,0,0,0,.218-.978,2.522,2.522,0,0,0-.215-1.113.851.851,0,0,0-.212-.36.832.832,0,0,0-.362-.236.429.429,0,0,0-.265.022.461.461,0,0,0-.191.191c-.063.124-.035.214-.055.225s-.1-.079-.063-.27a.547.547,0,0,1,.18-.27.589.589,0,0,1,.429-.113,1.151,1.151,0,0,1,.491.248,1.049,1.049,0,0,1,.311.45,2.55,2.55,0,0,1,.255,1.237,1.993,1.993,0,0,1-.281,1.124,1.959,1.959,0,0,1-.86.787.778.778,0,0,1-.36.011.888.888,0,0,1-.333-.135C257.9,1665.322,257.88,1665.221,257.893,1665.221Z" transform="translate(198.051 3891.878)" fill="#eb996e"/>
    <path id="Path_22318" data-name="Path 22318" d="M237.729,1661.085a.933.933,0,0,0,.921.911.884.884,0,0,0,.343-.045,1,1,0,0,0,.3-.191.815.815,0,0,0,.2-.281.869.869,0,0,0,.078-.337.927.927,0,0,0-.92-.911.887.887,0,0,0-.921.854Z" transform="translate(195.545 3891.697)" fill="#263238"/>
    <path id="Path_22319" data-name="Path 22319" d="M237.521,1660.183c.118.124.809-.416,1.807-.438s1.744.461,1.847.337-.07-.27-.395-.506a2.652,2.652,0,0,0-1.481-.416,2.448,2.448,0,0,0-1.432.506C237.57,1659.913,237.473,1660.138,237.521,1660.183Z" transform="translate(195.518 3891.564)" fill="#263238"/>
    <path id="Path_22320" data-name="Path 22320" d="M246.42,1661.086a.938.938,0,0,0,.277.641.976.976,0,0,0,.644.27.912.912,0,0,0,.346-.056.8.8,0,0,0,.3-.18.883.883,0,0,0,.289-.63.95.95,0,0,0-.272-.641.968.968,0,0,0-.642-.27.93.93,0,0,0-.35.056.821.821,0,0,0-.3.18.81.81,0,0,0-.208.281A.908.908,0,0,0,246.42,1661.086Z" transform="translate(196.625 3891.696)" fill="#263238"/>
    <path id="Path_22321" data-name="Path 22321" d="M246.25,1660.133c.125.112.809-.427,1.806-.438s1.744.45,1.848.326-.07-.27-.395-.495a2.646,2.646,0,0,0-1.481-.416,2.445,2.445,0,0,0-1.432.506C246.291,1659.852,246.195,1660.077,246.25,1660.133Z" transform="translate(196.603 3891.559)" fill="#263238"/>
    <path id="Path_22322" data-name="Path 22322" d="M243.48,1667.6a6.643,6.643,0,0,0-1.627-.259c-.255,0-.5-.056-.546-.236a1.409,1.409,0,0,1,.153-.764c.228-.607.463-1.271.691-1.945a32.489,32.489,0,0,0,1.564-5.127,34.491,34.491,0,0,0-1.972,4.992l-.693,1.956a1.508,1.508,0,0,0-.11,1.012.659.659,0,0,0,.173.225.579.579,0,0,0,.256.135,1.89,1.89,0,0,0,.435.045A6.961,6.961,0,0,0,243.48,1667.6Z" transform="translate(195.939 3891.578)" fill="#263238"/>
    <path id="Path_22323" data-name="Path 22323" d="M246.168,1667.23c-.166,0-.138,1.068-1.044,1.866s-2.077.686-2.077.854.263.2.754.2a2.7,2.7,0,0,0,1.724-.652,2.347,2.347,0,0,0,.809-1.574C246.369,1667.477,246.244,1667.219,246.168,1667.23Z" transform="translate(196.206 3892.567)" fill="#263238"/>
    <path id="Path_22324" data-name="Path 22324" d="M245.935,1656.638c.1.27,1.1.112,2.27.225s2.131.4,2.277.157c.069-.112-.1-.36-.491-.618a3.961,3.961,0,0,0-1.7-.551,4.1,4.1,0,0,0-1.764.259C246.1,1656.29,245.893,1656.548,245.935,1656.638Z" transform="translate(196.564 3891.152)" fill="#263238"/>
    <path id="Path_22325" data-name="Path 22325" d="M237.794,1657.62c.18.214.858,0,1.689-.068s1.529.112,1.681-.124c.07-.124-.048-.337-.36-.551a2.422,2.422,0,0,0-2.712.157C237.8,1657.271,237.711,1657.507,237.794,1657.62Z" transform="translate(195.55 3891.239)" fill="#263238"/>
    <path id="Path_22326" data-name="Path 22326" d="M260.526,1655.889c-.042,1.889.436,3.991.146,5.858-.042.27-.748,1.045-.811,1.327-.338,1.653-1,2.372-2.02.7a14.277,14.277,0,0,1-.844-3.182l-1.328-5.925a10.542,10.542,0,0,1-4.906,1.293,5.063,5.063,0,0,1-4.277-2.383,5.256,5.256,0,0,1-8.1,1.27,2.191,2.191,0,0,1-2.873.686,2.6,2.6,0,0,1-1.128-2.833c.408-1.6,2.075-2.5,3.647-3,6.124-1.979,12.989-.7,18.615,2.395a9.522,9.522,0,0,1,2.283,1.63c.65.686,1.549,1.473,1.6,2.406" transform="translate(195.12 3890.271)" fill="#263238"/>
    <path id="Path_22327" data-name="Path 22327" d="M253.48,1654.637a2.567,2.567,0,0,1,1.93.753c.318.281.63.641,1.011.989a3.343,3.343,0,0,0,1.259.821,2.289,2.289,0,0,0,1.231,0c.693-.191.956-.573.928-.585a9.807,9.807,0,0,1-.983.315,2.144,2.144,0,0,1-1.066-.079,3.23,3.23,0,0,1-1.114-.742c-.36-.326-.691-.686-1.038-.978a3.258,3.258,0,0,0-1.066-.585A1.292,1.292,0,0,0,253.48,1654.637Z" transform="translate(197.503 3890.983)" fill="#455a64"/>
    <path id="Path_22328" data-name="Path 22328" d="M254.138,1656.368c0,.056.333,0,.693.315a3.812,3.812,0,0,1,.568.641,2.909,2.909,0,0,0,.844.787,2.986,2.986,0,0,0,2.047.45c.533-.068.811-.27.789-.315a7.648,7.648,0,0,0-.816.056,3.352,3.352,0,0,1-1.792-.483c-.637-.36-.956-1.034-1.46-1.327S254.138,1656.323,254.138,1656.368Z" transform="translate(197.584 3891.209)" fill="#455a64"/>
    <path id="Path_22329" data-name="Path 22329" d="M239.211,1645.142a1,1,0,0,0-.575.056,2.454,2.454,0,0,0-1.245.933,5.942,5.942,0,0,0-.368,5,7.042,7.042,0,0,0,3.184,3.913,6.217,6.217,0,0,0,1.384.607,1.359,1.359,0,0,0,.56.09,18.58,18.58,0,0,1-1.84-.922,7.21,7.21,0,0,1-2.955-3.8,5.958,5.958,0,0,1,.221-4.733,2.6,2.6,0,0,1,1.079-.956A4.554,4.554,0,0,0,239.211,1645.142Z" transform="translate(195.412 3889.82)" fill="#455a64"/>
    <path id="Path_22330" data-name="Path 22330" d="M234.152,1647.54a2.851,2.851,0,0,0,.055,1.248,7.844,7.844,0,0,0,3.287,4.947,2.828,2.828,0,0,0,1.134.528,10.07,10.07,0,0,1-4.477-6.723Z" transform="translate(195.095 3890.121)" fill="#455a64"/>
    <path id="Path_22331" data-name="Path 22331" d="M203.606,1727.97l-9.495.484a2.248,2.248,0,0,0-2.138,2.282c.048,2.17.415,5.138,2.077,4.834l1.079-4.722,7.916,6.97a5.751,5.751,0,0,0,2.838,1.383l1.854-.191Z" transform="translate(189.858 3900.116)" fill="#ffbe9d"/>
    <path id="Path_22332" data-name="Path 22332" d="M243.523,1682.933l-4.961,1.641L236.1,1725.79v36.55l30.468,3.373.353-52.718-1.965-26.241-4.657-5.565Z" transform="translate(195.343 3894.303)" fill="#e0e0e0"/>
    <path id="Path_22333" data-name="Path 22333" d="M241.342,1685.21v-3.991l18.11-2.518-.726,9.2-4.16,7.218-6.8.382-4.913-3.036Z" transform="translate(195.994 3893.993)" fill="#e0e0e0"/>
    <path id="Path_22334" data-name="Path 22334" d="M242.806,1684.483a4.7,4.7,0,0,1-.1-1.833,4.859,4.859,0,0,1,.256-1.81,4.7,4.7,0,0,1,.1,1.833A4.856,4.856,0,0,1,242.806,1684.483Z" transform="translate(196.157 3894.259)" fill="#263238"/>
    <path id="Path_22335" data-name="Path 22335" d="M246.827,1684.228a6.032,6.032,0,0,1-.063-2.035,5.715,5.715,0,0,1,.3-2.012,5.892,5.892,0,0,1,.056,2.069A5.655,5.655,0,0,1,246.827,1684.228Z" transform="translate(196.661 3894.177)" fill="#263238"/>
    <path id="Path_22336" data-name="Path 22336" d="M250.72,1683.855a6.561,6.561,0,0,1,0-2.159,6.307,6.307,0,0,1,.34-2.136,6.814,6.814,0,0,1,0,2.159A6.719,6.719,0,0,1,250.72,1683.855Z" transform="translate(197.148 3894.1)" fill="#263238"/>
    <path id="Path_22337" data-name="Path 22337" d="M254.475,1683.212a8.414,8.414,0,0,1,.188-4.092,7.614,7.614,0,0,1,0,2.035A7.693,7.693,0,0,1,254.475,1683.212Z" transform="translate(197.601 3894.045)" fill="#263238"/>
    <path id="Path_22338" data-name="Path 22338" d="M253.687,1698.26a2.933,2.933,0,0,1-.242.7c-.173.427-.443,1.034-.8,1.776-.693,1.5-1.75,3.519-3.038,5.689s-2.568,4.047-3.543,5.374c-.485.686-.886,1.192-1.177,1.552a2.64,2.64,0,0,1-.485.54c-.042,0,.54-.866,1.454-2.237s2.159-3.272,3.459-5.419,2.36-4.149,3.121-5.61A24.118,24.118,0,0,1,253.687,1698.26Z" transform="translate(196.375 3896.424)" fill="#263238"/>
    <path id="Path_22339" data-name="Path 22339" d="M257.879,1680.63l4.913,2.361,9.495,2.3a7.925,7.925,0,0,1,6.49,8.792l-4.975,38.754,5.937,37.574-23.528-.686-1.384-13.986V1717Z" transform="translate(197.67 3894.233)" fill="#455a64"/>
    <path id="Path_22340" data-name="Path 22340" d="M254.828,1725.875a3.842,3.842,0,0,1,.069-.484l.27-1.383c.256-1.225.609-2.912,1.046-4.992l3.591-16.459,1.142-5.127.048.157-1.634-1.709-.09-.09.07-.113,2.733-4.553v.135l-3.018-7.308-.816-2.069a5.746,5.746,0,0,1-.263-.742,4,4,0,0,1,.346.686c.221.506.526,1.181.9,2.024l3.134,7.319v.079l-.042.056c-.836,1.394-1.744,2.946-2.705,4.576v-.2l1.632,1.7.07.068v.09c-.367,1.653-.748,3.373-1.136,5.138l-3.694,16.426c-.478,2.08-.872,3.755-1.156,4.969q-.207.827-.333,1.349A2.4,2.4,0,0,1,254.828,1725.875Z" transform="translate(197.67 3894.296)" fill="#263238"/>
    <path id="Path_22341" data-name="Path 22341" d="M202.677,1731.922l20.815-11.6,10.054-27.2a14.616,14.616,0,0,1,8.076-8.41l2.678-1.113v71.617l.533,16.965-11.28-3.384,5.757-34.1-1.992-16.774-1.973,8.117a11,11,0,0,1-1.864,3.98,10.882,10.882,0,0,1-3.277,2.934l-21.666,11.265Z" transform="translate(191.188 3894.602)" fill="#455a64"/>
    <path id="Path_22342" data-name="Path 22342" d="M203.091,1727.05l-1.75.517,4.927,11.76,2.3-.9Z" transform="translate(191.022 3900.002)" fill="#e0e0e0"/>
    <path id="Path_22343" data-name="Path 22343" d="M224.966,1721.063a15.5,15.5,0,0,0-1.557-2.631,15.894,15.894,0,0,0-2.3-2.012,5.839,5.839,0,0,1,3.861,4.643Z" transform="translate(193.479 3898.681)" fill="#263238"/>
    <path id="Path_22344" data-name="Path 22344" d="M204.943,1726.722c0,.056-.1.146-.118.349a.316.316,0,0,0,.012.157.282.282,0,0,0,.087.135.32.32,0,0,0,.141.067.363.363,0,0,0,.156,0,.335.335,0,0,0,.134-.09.261.261,0,0,0,.078-.135.305.305,0,0,0-.074-.292c-.118-.169-.27-.169-.277-.225s.193-.157.456.034a.823.823,0,0,1,.178.225.646.646,0,0,1,.057.281.605.605,0,0,1-.228.461.636.636,0,0,1-.236.124.693.693,0,0,1-.263.011.655.655,0,0,1-.243-.112.539.539,0,0,1-.178-.191.606.606,0,0,1-.081-.247.6.6,0,0,1,.033-.259C204.694,1726.711,204.943,1726.689,204.943,1726.722Z" transform="translate(191.421 3899.947)" fill="#263238"/>
    <path id="Path_22345" data-name="Path 22345" d="M206.432,1726.1a.9.9,0,0,0-.11.337c-.007.2.117.438.395.349a.241.241,0,0,0,.138-.079.251.251,0,0,0,.081-.135.287.287,0,0,0,0-.157.409.409,0,0,0-.081-.135c-.118-.169-.27-.18-.284-.225s.195-.157.464.045a.579.579,0,0,1,.2.27.592.592,0,0,1,.028.326.662.662,0,0,1-.148.3.613.613,0,0,1-1.058-.292.588.588,0,0,1,.019-.326C206.19,1726.069,206.432,1726.024,206.432,1726.1Z" transform="translate(191.606 3899.87)" fill="#263238"/>
    <path id="Path_22346" data-name="Path 22346" d="M240.078,1726.686a2.171,2.171,0,0,1-.09-.438c-.049-.337-.118-.765-.195-1.282-.159-1.147-.373-2.777-.636-4.7-.513-4.014-1.2-9.478-1.972-15.526-.1-.866-.206-1.709-.311-2.541v-.09c.526-1.327,1.038-2.631,1.522-3.868v.135l-1.5-3.463v-.1c.928-3.339,1.7-6.139,2.256-8.162.277-.944.5-1.709.657-2.282a5.806,5.806,0,0,1,.271-.8,5.923,5.923,0,0,1-.173.832c-.138.573-.333,1.338-.575,2.3-.526,2.024-1.259,4.834-2.125,8.185v-.1l1.529,3.418v.124c-.477,1.248-.983,2.541-1.5,3.879v-.09c.1.832.207,1.687.318,2.541.726,6.049,1.384,11.524,1.862,15.538.221,1.956.4,3.564.525,4.711l.125,1.293A1.884,1.884,0,0,1,240.078,1726.686Z" transform="translate(195.438 3894.599)" fill="#263238"/>
    <path id="Path_22347" data-name="Path 22347" d="M235.764,1732.942a1.634,1.634,0,0,1-.069-.337c-.035-.259-.083-.584-.138-.978-.111-.9-.256-2.125-.443-3.6-.368-3.047-.886-7.251-1.509-11.884s-1.232-8.837-1.675-11.861c-.214-1.473-.393-2.7-.525-3.6-.049-.394-.09-.686-.125-.978a1.13,1.13,0,0,1,0-.348,2.08,2.08,0,0,1,.09.337c.048.27.117.585.193.978.16.832.381,2.069.636,3.564.513,3.024,1.163,7.218,1.785,11.85s1.1,8.859,1.384,11.906c.153,1.529.263,2.766.333,3.62,0,.394.048.7.062.978A1.131,1.131,0,0,1,235.764,1732.942Z" transform="translate(194.742 3896.561)" fill="#263238"/>
    <path id="Path_22348" data-name="Path 22348" d="M232.714,1753.318a2.653,2.653,0,0,0,.478.585,2.24,2.24,0,0,0,.9.438,2.319,2.319,0,0,0,1-.011,3.208,3.208,0,0,0,2.077-2.024,12.635,12.635,0,0,0,.581-3.733,8.512,8.512,0,0,0-.381-3.71,6.8,6.8,0,0,0-1.889-2.383,9.033,9.033,0,0,1-1.439-1.563,1.85,1.85,0,0,1-.34-.7s.145.236.45.63a11.472,11.472,0,0,0,1.5,1.461,6.7,6.7,0,0,1,2.02,2.44,8.455,8.455,0,0,1,.436,3.856,12.3,12.3,0,0,1-.63,3.834,3.426,3.426,0,0,1-.9,1.349,3.341,3.341,0,0,1-1.415.8,2.186,2.186,0,0,1-1.11-.022,2.311,2.311,0,0,1-.967-.551,1.515,1.515,0,0,1-.338-.483C232.714,1753.4,232.7,1753.318,232.714,1753.318Z" transform="translate(194.921 3901.639)" fill="#263238"/>
    <path id="Path_22349" data-name="Path 22349" d="M225.825,1728.928s.693-7.937,6.976-8.668A9.277,9.277,0,0,1,225.825,1728.928Z" transform="translate(194.065 3899.158)" fill="#263238"/>
    <path id="Path_22350" data-name="Path 22350" d="M255.794,1757.7l18.3,11.962,2.077-1.653.975-26.825-17.431-13.21-2.395.821Z" transform="translate(197.79 3900.116)" fill="#9ec8ff"/>
    <path id="Path_22351" data-name="Path 22351" d="M259.445,1728.31l.721,29.04h-3.848l1.287-28.467Z" transform="translate(197.855 3900.159)" fill="#e0e0e0"/>
    <path id="Path_22352" data-name="Path 22352" d="M264.757,1761.53a2.282,2.282,0,0,0,.83,1,2.24,2.24,0,0,0,1.247.382c.048,0,.1.045.152.124a2,2,0,0,0,.726.765,2.027,2.027,0,0,0,1.011.315,3.686,3.686,0,0,0,1.965-.562c.956-.585,2.658-4.407,2.658-4.407l4.034-8.994-6.782-1.833-8.629,2.687c0,.157-2.014,8.3-2.014,8.3a2.041,2.041,0,0,0,1.454-.18,2.077,2.077,0,0,0,.968-1.1,21.689,21.689,0,0,1,1.522-2.844l.644,3.665-2.457.843a1.612,1.612,0,0,0,.176,1.124,1.631,1.631,0,0,0,.875.742Z" transform="translate(198.308 3902.646)" fill="#ffbe9d"/>
    <path id="Path_22353" data-name="Path 22353" d="M266.935,1705.89l11.3,20.8-9.2,27.309,10.221,5.756,13-30.4a8.611,8.611,0,0,0-.1-7.027L276.2,1688.07Z" transform="translate(199.175 3895.157)" fill="#455a64"/>
    <path id="Path_22354" data-name="Path 22354" d="M268.9,1746.71l-.949,2.1,9.646,5.205,1.011-1.855Z" transform="translate(199.302 3902.445)" fill="#e0e0e0"/>
    <path id="Path_22355" data-name="Path 22355" d="M269.4,1754.079v-.146a2.1,2.1,0,0,1,.117-.4l.491-1.54c.45-1.383,1.087-3.317,1.875-5.745,1.634-4.891,3.91-11.715,6.512-19.529v.146c-1.314-2.237-2.671-4.6-4.034-7.038-2.491-4.441-4.775-8.736-6.733-12.693-.969-1.99-1.869-3.89-2.63-5.7a11.381,11.381,0,0,1-.941-5.4,12.38,12.38,0,0,1,1-4.407,8.651,8.651,0,0,1,2-2.766,6.583,6.583,0,0,1,1.8-1.192,3.075,3.075,0,0,1,.691-.247,7.714,7.714,0,0,0-2.415,1.54,8.461,8.461,0,0,0-1.9,2.766,12.4,12.4,0,0,0-.941,4.34,11.28,11.28,0,0,0,.962,5.262c.775,1.8,1.681,3.688,2.657,5.666,1.965,3.957,4.263,8.23,6.755,12.682,1.384,2.428,2.705,4.789,4.013,7.027l.042.068v.079c-2.657,7.791-4.968,14.6-6.635,19.495-.831,2.406-1.5,4.34-1.972,5.7-.236.641-.416,1.158-.548,1.529l-.152.393A.238.238,0,0,1,269.4,1754.079Z" transform="translate(198.813 3895.077)" fill="#263238"/>
    <path id="Path_22356" data-name="Path 22356" d="M284.632,1722.377a7.789,7.789,0,0,1-1.114-.393,7.976,7.976,0,0,0-2.768-.4,8.1,8.1,0,0,0-2.726.573,7.754,7.754,0,0,1-1.086.461,2.526,2.526,0,0,1,.983-.686,6.663,6.663,0,0,1,2.823-.7,6.739,6.739,0,0,1,2.858.528A2.694,2.694,0,0,1,284.632,1722.377Z" transform="translate(200.418 3899.278)" fill="#263238"/>
    <path id="Path_22357" data-name="Path 22357" d="M264.922,1699.52l8.117,27.174,1.148-8.938Z" transform="translate(198.925 3896.581)" fill="#263238"/>
    <path id="Path_22358" data-name="Path 22358" d="M276.894,1747.013a.9.9,0,0,0-.11.337.292.292,0,0,0,.012.157.282.282,0,0,0,.087.135.319.319,0,0,0,.139.067.372.372,0,0,0,.157,0,.337.337,0,0,0,.134-.09.26.26,0,0,0,.078-.135.323.323,0,0,0,0-.157.408.408,0,0,0-.075-.135c-.118-.169-.27-.169-.278-.225s.188-.157.458.045a.627.627,0,0,1,.235.495.642.642,0,0,1-.15.337.6.6,0,0,1-.307.2.635.635,0,0,1-.671-.2.6.6,0,0,1-.1-.27.635.635,0,0,1,.03-.281C276.652,1746.957,276.894,1746.957,276.894,1747.013Z" transform="translate(200.363 3902.468)" fill="#263238"/>
    <path id="Path_22359" data-name="Path 22359" d="M277.622,1745.262c0,.056-.1.146-.111.349a.283.283,0,0,0,.007.157.272.272,0,0,0,.087.135.328.328,0,0,0,.143.068.255.255,0,0,0,.159-.011.245.245,0,0,0,.139-.079.266.266,0,0,0,.081-.135.3.3,0,0,0,0-.157.25.25,0,0,0-.081-.135c-.118-.157-.277-.169-.283-.225s.193-.157.463.034a.826.826,0,0,1,.178.225.571.571,0,0,1-.085.63.734.734,0,0,1-.643.214.574.574,0,0,1-.29-.157.568.568,0,0,1-.12-.618C277.379,1745.24,277.622,1745.229,277.622,1745.262Z" transform="translate(200.453 3902.252)" fill="#263238"/>
    <path id="Path_22360" data-name="Path 22360" d="M287.63,1714.47c-1.211.641-1.632,2.428-1.494,3.789a32.506,32.506,0,0,1,.608,4.059,17.133,17.133,0,0,1-.518,2.878,4.908,4.908,0,0,0,.083,2.878,2.228,2.228,0,0,0,2.29,1.45l.962-1.934a10.692,10.692,0,0,0-.139-9.736Z" transform="translate(201.551 3898.438)" fill="#263238"/>
    <path id="Path_22361" data-name="Path 22361" d="M340.335,1846.124a7.752,7.752,0,0,1,4.014-5.127c2.055-.9,4.63-.394,6.823.393s4.352,1.866,6.685,2.013,4.955-.967,5.653-3.193c.658-2.08-.6-4.328-2.187-5.846a13.834,13.834,0,0,0-22.627,5.43" transform="translate(208.094 3912.862)" fill="#9ec8ff"/>
    <g id="Group_616" data-name="Group 616" transform="translate(546.789 5743.393)" opacity="0.5">
      <path id="Path_22362" data-name="Path 22362" d="M340.335,1846.124a7.752,7.752,0,0,1,4.014-5.127c2.055-.9,4.63-.394,6.823.393s4.352,1.866,6.685,2.013,4.955-.967,5.653-3.193c.658-2.08-.6-4.328-2.187-5.846a13.834,13.834,0,0,0-22.627,5.43" transform="translate(-338.696 -1830.53)" opacity="0.5"/>
    </g>
    <path id="Path_22363" data-name="Path 22363" d="M324.034,1855.688c-3.419-3.249-3.246-8.9-1.544-13.3s5.426-7.78,9.585-9.995a30.366,30.366,0,0,1,26.461-.832,12.52,12.52,0,0,0-10.158,5.958c-1.869,3.114-2.29,6.914-3.834,10.175a16.012,16.012,0,0,1-20.51,8.016" transform="translate(205.933 3912.663)" fill="#9ec8ff"/>
    <path id="Path_22364" data-name="Path 22364" d="M322.843,1841.593c-3.785-4.463-4.284-11.636-3.73-17.471s1.91-11.692.989-17.471c-.546-3.463-1.875-6.7-2.325-10.141s.188-7.342,2.858-9.556c3.059-2.552,7.889-1.945,11.072.45s5.038,6.161,6.387,9.916c2.962,8.241,4.048,17.381,1.612,25.791s-8.144,15.92-16.531,18.483" transform="translate(205.478 3907.242)" fill="#9ec8ff"/>
    <path id="Path_22365" data-name="Path 22365" d="M320.656,1872.509a3.06,3.06,0,0,1,0-.517v-1.473c.048-1.282.173-3.137.458-5.419a74.12,74.12,0,0,1,1.453-7.926,36.964,36.964,0,0,1,3.619-9.174,38.5,38.5,0,0,1,12.1-13.053c.948-.641,1.862-1.147,2.651-1.6s1.508-.776,2.075-1.057l1.384-.573c.156-.067.316-.124.478-.18a3.541,3.541,0,0,1-.456.236l-1.336.63c-.568.292-1.26.652-2.077,1.091a24.8,24.8,0,0,0-2.608,1.641,38.409,38.409,0,0,0-6.11,5.172,38.867,38.867,0,0,0-5.847,7.847c-3.461,6.083-4.429,12.491-5.121,16.977-.311,2.271-.47,4.115-.56,5.385-.037.618-.065,1.113-.083,1.473A3.8,3.8,0,0,1,320.656,1872.509Z" transform="translate(205.85 3912.988)" fill="#263238"/>
    <path id="Path_22366" data-name="Path 22366" d="M292.323,1819.69c-7,4.227-6.982,8.072-5.813,11.7s5.466,6.15,9.03,4.789c2.014-.764,3.461-2.518,4.72-4.272s2.415-3.643,4.152-4.9,4.277-1.754,6.034-.506" transform="translate(201.535 3911.516)" fill="#9ec8ff"/>
    <g id="Group_617" data-name="Group 617" transform="translate(487.461 5731.205)" opacity="0.5">
      <path id="Path_22367" data-name="Path 22367" d="M292.323,1819.69c-7,4.227-6.982,8.072-5.813,11.7s5.466,6.15,9.03,4.789c2.014-.764,3.461-2.518,4.72-4.272s2.415-3.643,4.152-4.9,4.277-1.754,6.034-.506" transform="translate(-285.926 -1819.69)" opacity="0.5"/>
    </g>
    <path id="Path_22368" data-name="Path 22368" d="M286.951,1824.871c1.834-2.541,6.352-3.272,9.21-2s4.948,3.755,6.823,6.262,3.7,5.138,6.29,6.869,6.227,2.372,8.8.618a7.486,7.486,0,0,0,2.032-2.271,7.632,7.632,0,0,0,.965-2.9,17.4,17.4,0,0,0-.415-6.116c-.616-2.934-1.627-5.992-3.98-7.859-2.615-2.08-6.227-2.181-9.6-2.08a35.979,35.979,0,0,0-11.327,1.743c-3.6,1.327-7.273,4.2-8.8,7.724" transform="translate(201.662 3910.979)" fill="#9ec8ff"/>
    <path id="Path_22369" data-name="Path 22369" d="M317.47,1868.823a.456.456,0,0,1,0-.146v-.461c0-.427-.035-1-.062-1.731-.049-1.54-.111-3.721-.188-6.4s-.193-5.914-.387-9.478-.464-7.476-1-11.558a37.117,37.117,0,0,0-1.163-5.869,30.32,30.32,0,0,0-2.145-5.127,29.4,29.4,0,0,0-2.705-4.25,27.4,27.4,0,0,0-2.962-3.249,21.868,21.868,0,0,0-5.238-3.575c-.34-.157-.644-.315-.906-.416l-.693-.27-.422-.169-.138-.067a.346.346,0,0,1,.152,0l.429.146.691.236c.27.1.575.247.921.393a20.854,20.854,0,0,1,5.341,3.519,26.929,26.929,0,0,1,3.011,3.26,29.218,29.218,0,0,1,2.768,4.261,30.887,30.887,0,0,1,2.187,5.183,37.837,37.837,0,0,1,1.176,5.925c.54,4.092.8,8.016.983,11.58s.263,6.779.318,9.478.076,4.891.083,6.4v2.2A.287.287,0,0,1,317.47,1868.823Z" transform="translate(203.217 3911.063)" fill="#263238"/>
    <path id="Path_22370" data-name="Path 22370" d="M317.855,1874.344a19.453,19.453,0,0,1-.768-3,31.508,31.508,0,0,1-.318-8.455,56.19,56.19,0,0,1,2.665-12.255c1.439-4.508,3.391-9.331,5.058-14.526a62.795,62.795,0,0,0,3-15,105.6,105.6,0,0,0,.221-12.524c-.117-3.564-.311-6.454-.428-8.443-.056-.989-.1-1.754-.132-2.294v-.6a.761.761,0,0,1,0-.2.872.872,0,0,1,0,.2c0,.146.035.337.062.6.048.54.111,1.3.193,2.282.153,2,.381,4.846.526,8.443a103.565,103.565,0,0,1-.152,12.558,69.207,69.207,0,0,1-.983,7.353,65.165,65.165,0,0,1-2.014,7.724c-1.675,5.194-3.634,10.006-5.079,14.537a56.953,56.953,0,0,0-2.72,12.187,32.664,32.664,0,0,0,.215,8.41c.173.978.332,1.743.47,2.249.056.236.1.438.139.573A.965.965,0,0,1,317.855,1874.344Z" transform="translate(205.35 3908.702)" fill="#263238"/>
    <path id="Path_22371" data-name="Path 22371" d="M336.88,1869.32H304l-.754-6.33H336.88Z" transform="translate(203.688 3916.896)" fill="#455a64"/>
    <path id="Path_22372" data-name="Path 22372" d="M307.053,1867.98l4.11,18.989H329.03l3.847-18.989Z" transform="translate(204.161 3917.517)" fill="#455a64"/>
    <path id="Path_22373" data-name="Path 22373" d="M336.732,1868.643c0,.09-7.231.135-16.144.113s-16.151-.113-16.151-.2,7.231-.135,16.151-.113S336.732,1868.553,336.732,1868.643Z" transform="translate(203.836 3917.573)" fill="#455a64"/>
    <path id="Path_22374" data-name="Path 22374" d="M330.55,1877.251a13.181,13.181,0,0,0-2.893-1.664,10.209,10.209,0,0,0-3.522-.7,12.4,12.4,0,0,0-4.332.809c-1.494.506-2.9,1.1-4.262,1.428a10.138,10.138,0,0,1-3.682.112,7.634,7.634,0,0,1-2.367-.753,3.291,3.291,0,0,1-.575-.371,1.029,1.029,0,0,1-.172-.146c.007-.011.277.168.8.4a8.492,8.492,0,0,0,2.345.641,10.116,10.116,0,0,0,3.584-.18c1.315-.315,2.72-.911,4.228-1.428a12.2,12.2,0,0,1,4.435-.787,9.92,9.92,0,0,1,3.6.787,9.747,9.747,0,0,1,2.145,1.248,6.746,6.746,0,0,1,.5.45C330.509,1877.183,330.557,1877.24,330.55,1877.251Z" transform="translate(204.371 3918.342)" fill="#263238"/>
    <path id="Path_22375" data-name="Path 22375" d="M330.244,1878.371a14.53,14.53,0,0,0-2.768-1.641,9.721,9.721,0,0,0-3.391-.686,12.14,12.14,0,0,0-4.194.753c-1.446.483-2.8,1.046-4.1,1.383a10.2,10.2,0,0,1-3.543.394,5.957,5.957,0,0,1-2.318-.618,3.8,3.8,0,0,1-.553-.348c-.118-.09-.18-.135-.173-.146s.277.157.781.394a6.608,6.608,0,0,0,2.277.506,10.919,10.919,0,0,0,3.461-.45c1.266-.36,2.615-.933,4.082-1.428a12.175,12.175,0,0,1,4.3-.742,9.418,9.418,0,0,1,3.459.787,9.811,9.811,0,0,1,2.077,1.237,4.92,4.92,0,0,1,.483.438A1.235,1.235,0,0,0,330.244,1878.371Z" transform="translate(204.428 3918.481)" fill="#fff"/>
    <path id="Path_22376" data-name="Path 22376" d="M330.914,1876.16a15.323,15.323,0,0,0-2.968-1.754,11.131,11.131,0,0,0-3.612-.877,11.909,11.909,0,0,0-4.47.8,40.341,40.341,0,0,1-4.408,1.439,11.38,11.38,0,0,1-3.806,0,8.494,8.494,0,0,1-2.443-.776,5.547,5.547,0,0,1-.595-.371c-.125-.1-.188-.146-.18-.157s.283.169.83.416a9.563,9.563,0,0,0,2.422.7,11.455,11.455,0,0,0,3.717-.079,42.59,42.59,0,0,0,4.366-1.45,11.626,11.626,0,0,1,4.588-.776,10.718,10.718,0,0,1,3.682.944,11.171,11.171,0,0,1,2.193,1.327c.235.191.408.349.526.461S330.928,1876.149,330.914,1876.16Z" transform="translate(204.332 3918.174)" fill="#fff"/>
    <path id="Path_22377" data-name="Path 22377" d="M337.074,1868.656c0,.09-7.4.157-16.518.157s-16.525-.067-16.525-.157,7.4-.146,16.525-.146S337.074,1868.577,337.074,1868.656Z" transform="translate(203.785 3917.583)" fill="#263238"/>
    <path id="Path_22378" data-name="Path 22378" d="M110.031,1864.158c1.183,1.686,3.459,1.135,4.553.1a8.34,8.34,0,0,0,1.924-3.958c.934-3.249,1.882-6.667,1.184-9.984a5.587,5.587,0,0,0-1.274-2.721,2.946,2.946,0,0,0-2.768-.911,4.218,4.218,0,0,0-2.4,2.518,23.881,23.881,0,0,0-2.352,10.22,8.256,8.256,0,0,0,1.113,4.733" transform="translate(179.531 3914.863)" fill="#9ec8ff"/>
    <g id="Group_618" data-name="Group 618" transform="translate(288.408 5761.489)" opacity="0.2">
      <path id="Path_22379" data-name="Path 22379" d="M110.031,1864.158c1.183,1.686,3.459,1.135,4.553.1a8.34,8.34,0,0,0,1.924-3.958c.934-3.249,1.882-6.667,1.184-9.984a5.587,5.587,0,0,0-1.274-2.721,2.946,2.946,0,0,0-2.768-.911,4.218,4.218,0,0,0-2.4,2.518,23.881,23.881,0,0,0-2.352,10.22,8.256,8.256,0,0,0,1.113,4.733" transform="translate(-108.877 -1846.626)" opacity="0.2"/>
    </g>
    <path id="Path_22380" data-name="Path 22380" d="M114.108,1869.938a10.242,10.242,0,0,1,6.36-.776,5.3,5.3,0,0,1,3.141,1.383,2.231,2.231,0,0,1,0,3.137,2.941,2.941,0,0,1-1.979.495c-1.682,0-3.544-.3-4.886.7-.768.573-1.279,1.529-2.193,1.821a2.19,2.19,0,0,1-2.387-1.057,3.718,3.718,0,0,1-.263-2.743,4.091,4.091,0,0,1,.756-1.731A4.161,4.161,0,0,1,114.108,1869.938Z" transform="translate(179.889 3917.64)" fill="#9ec8ff"/>
    <path id="Path_22381" data-name="Path 22381" d="M108.54,1865.984a6.16,6.16,0,0,0,.955-5.667,10.926,10.926,0,0,0-3.349-4.845,18.075,18.075,0,0,0-6-3.53,6.329,6.329,0,0,0-2.7-.461,2.814,2.814,0,0,0-1.3.4,2.858,2.858,0,0,0-.961.978c-.63,1.2,0,2.665.63,3.856a46.3,46.3,0,0,0,3.917,5.948,10.71,10.71,0,0,0,4.339,3.71c1.8.686,3.667.607,4.622-.641" transform="translate(177.797 3915.465)" fill="#9ec8ff"/>
    <path id="Path_22382" data-name="Path 22382" d="M109.838,1886.608a4.174,4.174,0,0,0,.1-.776l.207-2.069a29.291,29.291,0,0,1,.471-3.081,22.927,22.927,0,0,1,1.114-3.62,13.376,13.376,0,0,1,1.875-3.305,7.027,7.027,0,0,1,2.338-1.945,6.735,6.735,0,0,1,1.972-.618,3.528,3.528,0,0,0,.768-.1,3.033,3.033,0,0,0-.781,0,5.8,5.8,0,0,0-2.077.529,6.929,6.929,0,0,0-2.47,1.967,12.8,12.8,0,0,0-1.917,3.35,21.588,21.588,0,0,0-1.107,3.688,25.147,25.147,0,0,0-.408,3.1c-.069.888-.1,1.619-.1,2.114A3.636,3.636,0,0,0,109.838,1886.608Z" transform="translate(179.647 3917.9)" fill="#263238"/>
    <path id="Path_22383" data-name="Path 22383" d="M109.984,1887.276a2.4,2.4,0,0,0,0-.36V1885.9c0-.888,0-2.158.049-3.744.075-3.159.345-7.521.871-12.311s1.232-9.107,1.875-12.2c.145-.776.3-1.484.443-2.08s.256-1.147.367-1.574l.235-.99a1.117,1.117,0,0,0,.063-.348,1.936,1.936,0,0,0-.118.326c-.083.259-.18.585-.3.978s-.27.945-.423,1.563-.325,1.3-.491,2.08a114.422,114.422,0,0,0-1.965,12.21c-.526,4.8-.761,9.174-.789,12.344,0,1.585,0,2.867.056,3.755.027.4.048.742.062,1.012A1.363,1.363,0,0,0,109.984,1887.276Z" transform="translate(179.646 3915.613)" fill="#263238"/>
    <path id="Path_22384" data-name="Path 22384" d="M111.228,1878.562a8.06,8.06,0,0,0,0-1.068c-.042-.7-.138-1.664-.325-2.878a38.384,38.384,0,0,0-.914-4.2,36.48,36.48,0,0,0-1.757-4.969,26.476,26.476,0,0,0-5.163-8.05,12.563,12.563,0,0,0-1.211-1.124c-.187-.157-.353-.315-.519-.438l-.47-.326a6.943,6.943,0,0,0-.9-.573,31.244,31.244,0,0,1,2.941,2.62,27.67,27.67,0,0,1,5,8.027,39.8,39.8,0,0,1,1.771,4.913c.458,1.54.761,2.968,1,4.149s.345,2.181.422,2.867A6.769,6.769,0,0,0,111.228,1878.562Z" transform="translate(178.424 3915.896)" fill="#263238"/>
    <path id="Path_22385" data-name="Path 22385" d="M202.954,1627.194a1.874,1.874,0,0,1,.353,0h1.038a10.481,10.481,0,0,1,1.675.169c.332.056.691.09,1.066.157l1.2.3a19.985,19.985,0,0,1,2.312,37.742,19.455,19.455,0,0,1-6.67,1.462,19.033,19.033,0,0,1-6.975-.866l-.208-.067h.159l-11.66,4.047-.47.157.145-.472c1.047-3.35,2.057-6.588,3.031-9.691l.048.236a19.957,19.957,0,0,1-4.678-17.3,19.554,19.554,0,0,1,3.011-7.173,19.824,19.824,0,0,1,4.615-4.846,20.954,20.954,0,0,1,2.415-1.574,25,25,0,0,1,2.325-1.057,16.7,16.7,0,0,1,2.077-.686,12.321,12.321,0,0,1,1.8-.371c.546-.079,1.031-.157,1.446-.2h1.932a.742.742,0,0,1-.221.034l-.644.056-1.051.079c-.416.045-.893.135-1.432.225a11.975,11.975,0,0,0-1.772.4,15.131,15.131,0,0,0-2.077.7,24,24,0,0,0-2.277,1.068,22.181,22.181,0,0,0-2.367,1.574,20.051,20.051,0,0,0-4.5,4.778,19.276,19.276,0,0,0-2.906,7.072,19.562,19.562,0,0,0,4.635,16.864l.1.1-.042.124c-.96,3.114-1.963,6.352-3.011,9.691l-.325-.315,11.688-3.969h.165l.2.067a18.554,18.554,0,0,0,6.8.843,19.3,19.3,0,0,0,6.505-1.417,19.659,19.659,0,0,0,9.162-28.557,19.636,19.636,0,0,0-11.348-8.545l-1.177-.315c-.373-.09-.691-.124-1.051-.18a10.339,10.339,0,0,0-1.661-.214l-1.031-.079A1.743,1.743,0,0,1,202.954,1627.194Z" transform="translate(188.732 3887.588)" fill="#9ec8ff"/>
    <path id="Path_22386" data-name="Path 22386" d="M190.312,1647.113l3.065-3.069,5.917,5.262,11.612-11.175,2.851,3.058-14.9,14.031Z" transform="translate(189.652 3888.951)" fill="#9ec8ff"/>
  </g>
</svg>
