<svg xmlns="http://www.w3.org/2000/svg" width="48.541" height="49.949" viewBox="0 0 48.541 49.949">
  <g id="DIGITAL_MARKETING_ICON" data-name="DIGITAL MARKETING ICON" transform="translate(-36.999 -32.214)">
    <path id="Path_20584" data-name="Path 20584" d="M136.06,103.728a.643.643,0,0,1-.455-1.1,1.63,1.63,0,1,0-2.3-2.3.643.643,0,0,1-.909-.91,2.916,2.916,0,1,1,4.124,4.124A.643.643,0,0,1,136.06,103.728Z" transform="translate(-69.695 -48.946)" fill="#3f9ef7"/>
    <path id="Path_20585" data-name="Path 20585" d="M130.181,94.124a.643.643,0,0,1-.455-1.1l.484-.484-.983-1.666a.643.643,0,0,1,.394-.95l1.873-.482v-1.37l-1.873-.483a.643.643,0,0,1-.394-.95l.983-1.666-.969-.968-1.666.983a.643.643,0,0,1-.95-.393l-.483-1.873h-1.37l-.482,1.873a.643.643,0,0,1-.95.393l-1.666-.983-.484.484a.643.643,0,0,1-.909-.909l.5-.5a1.263,1.263,0,0,1,1.534-.2l.946.558.274-1.063a1.264,1.264,0,0,1,1.223-.947h1.406a1.263,1.263,0,0,1,1.222.946l.274,1.064.945-.558a1.262,1.262,0,0,1,1.534.195l.994.994a1.263,1.263,0,0,1,.2,1.534l-.558.946,1.063.274a1.264,1.264,0,0,1,.947,1.223v1.406a1.262,1.262,0,0,1-.946,1.222l-1.064.274.558.946a1.263,1.263,0,0,1-.195,1.534l-.5.5A.638.638,0,0,1,130.181,94.124Z" transform="translate(-60.664 -36.228)" fill="#3f9ef7"/>
    <path id="Path_20586" data-name="Path 20586" d="M67.009,156.152a.643.643,0,0,1-.455-1.1l7.483-7.483a.637.637,0,0,1,.181-.127l16.334-7.682a.643.643,0,1,1,.547,1.164L74.867,148.56l-7.4,7.4A.641.641,0,0,1,67.009,156.152Z" transform="translate(-21.033 -79.502)" fill="#ebe7f2"/>
    <g id="Group_179" data-name="Group 179" transform="translate(37.59 32.664)">
      <path id="Path_20587" data-name="Path 20587" d="M61.95,111.979,55.3,107.018l.93-.93L71.2,99.175a1.685,1.685,0,0,0,.485-2.721L54.554,79.322a1.685,1.685,0,0,0-2.721.485L44.919,94.775l-6.666,6.666a1.686,1.686,0,0,0,0,2.383l1.758,1.758-1.879,1.879a1.859,1.859,0,0,0,0,2.626l2.789,2.789a1.859,1.859,0,0,0,2.626,0L45.427,111l1.758,1.758a1.686,1.686,0,0,0,2.383,0l1.472-1.472,7.318,4.621a.643.643,0,0,0,.8-.089l2.865-2.865a.642.642,0,0,0-.071-.97Zm-19.313-.013a.571.571,0,0,1-.807,0l-2.789-2.789a.571.571,0,0,1,0-.807l1.879-1.879,3.6,3.6Zm6.02-.121a.4.4,0,0,1-.564,0l-8.931-8.931a.4.4,0,0,1,0-.564L45.909,95.6a.647.647,0,0,0,.129-.185L53,80.346a.4.4,0,0,1,.292-.225.4.4,0,0,1,.071-.006.39.39,0,0,1,.281.117L70.776,97.363a.4.4,0,0,1-.115.644l-15.072,6.962a.639.639,0,0,0-.185.129Zm9.952,2.7-6.638-4.192,2.412-2.412,6.2,4.628Z" transform="translate(-37.59 -66.953)" fill="none" stroke="#000" stroke-width="0.9"/>
      <path id="Path_20588" data-name="Path 20588" d="M86.116,32.664A19.551,19.551,0,0,0,66.587,52.193a.643.643,0,1,0,1.286,0A18.242,18.242,0,1,1,86.116,70.435a.643.643,0,0,0,0,1.286,19.529,19.529,0,0,0,0-39.057Z" transform="translate(-58.144 -32.664)" fill="none" stroke="#000" stroke-width="0.9"/>
      <path id="Path_20589" data-name="Path 20589" d="M140.645,53.305a13.278,13.278,0,0,1,13.263,13.263.643.643,0,1,0,1.286,0,14.566,14.566,0,0,0-14.549-14.549.643.643,0,1,0,0,1.286Z" transform="translate(-112.674 -47.04)" fill="none" stroke="#000" stroke-width="0.9"/>
      <path id="Path_20590" data-name="Path 20590" d="M140.645,70.013a8.975,8.975,0,0,1,8.965,8.965.643.643,0,0,0,1.286,0,10.263,10.263,0,0,0-10.251-10.251.643.643,0,1,0,0,1.286Z" transform="translate(-112.93 -59.45)" fill="none" stroke="#000" stroke-width="0.9"/>
    </g>
  </g>
</svg>
