<svg xmlns="http://www.w3.org/2000/svg" width="190" height="54.691" viewBox="0 0 190 54.691">
  <g id="nodejs_1_" data-name="nodejs (1)" transform="translate(-0.857 -0.382)">
    <g id="Group_161" data-name="Group 161" transform="translate(162.578 22.916)">
      <path id="Path_20446" data-name="Path 20446" d="M444.25,51.611a2.449,2.449,0,0,0-1.217.3l-11.7,6.759a2.467,2.467,0,0,0-1.218,2.138V74.3a2.468,2.468,0,0,0,1.218,2.137l3.057,1.765a5,5,0,0,0,2.708.72c2.2,0,3.454-1.334,3.454-3.653V61.948a.334.334,0,0,0-.348-.323h-1.466a.332.332,0,0,0-.348.323v13.32c0,1.027-1.071,2.061-2.808,1.193L432.4,74.6a.351.351,0,0,1-.2-.3V60.805a.394.394,0,0,1,.2-.323l11.679-6.734a.345.345,0,0,1,.348,0l11.68,6.734a.4.4,0,0,1,.2.323V74.3a.375.375,0,0,1-.174.323l-11.7,6.734a.36.36,0,0,1-.348,0l-3.007-1.789a.313.313,0,0,0-.3,0,7.742,7.742,0,0,1-1.765.8c-.192.067-.483.171.1.5l3.926,2.311a2.456,2.456,0,0,0,2.435,0l11.7-6.735A2.471,2.471,0,0,0,458.39,74.3V60.806a2.467,2.467,0,0,0-1.217-2.137l-11.7-6.759a2.436,2.436,0,0,0-1.217-.3Z" transform="translate(-430.111 -51.611)" fill="#83cd29"/>
      <path id="Path_20447" data-name="Path 20447" d="M469.283,79.528c-3.333,0-5.318,1.418-5.318,3.777,0,2.559,1.97,3.262,5.169,3.578,3.827.375,4.125.937,4.125,1.69,0,1.307-1.042,1.864-3.5,1.864-3.094,0-3.773-.772-4-2.311a.337.337,0,0,0-.323-.3h-1.516a.355.355,0,0,0-.348.348c0,1.97,1.071,4.3,6.188,4.3,3.7,0,5.84-1.454,5.84-4,0-2.525-1.726-3.2-5.318-3.678-3.63-.48-3.976-.716-3.976-1.566,0-.7.294-1.641,2.982-1.641,2.4,0,3.289.518,3.653,2.138a.34.34,0,0,0,.323.273h1.516a.367.367,0,0,0,.248-.124.325.325,0,0,0,.1-.248c-.235-2.789-2.094-4.1-5.84-4.1Z" transform="translate(-452.013 -69.886)" fill="#83cd29"/>
    </g>
    <path id="Path_20448" data-name="Path 20448" d="M103.5.383a.816.816,0,0,0-.818.818V22.056a.552.552,0,0,1-.272.491.568.568,0,0,1-.572,0l-3.407-1.963a1.632,1.632,0,0,0-1.635,0L83.2,28.436a1.675,1.675,0,0,0-.818,1.445v15.7A1.632,1.632,0,0,0,83.2,47l13.6,7.852a1.629,1.629,0,0,0,1.635,0L112.036,47a1.632,1.632,0,0,0,.818-1.418V6.435a1.662,1.662,0,0,0-.845-1.445l-8.1-4.526A.8.8,0,0,0,103.5.383Zm-87.493,19.6a1.536,1.536,0,0,0-.736.191l-13.6,7.852a1.629,1.629,0,0,0-.818,1.418L.884,50.519a.8.8,0,0,0,.409.709.794.794,0,0,0,.818,0l8.068-4.634a1.666,1.666,0,0,0,.845-1.418V35.334a1.627,1.627,0,0,1,.818-1.418l3.434-1.99a1.641,1.641,0,0,1,1.635,0l3.434,1.99a1.628,1.628,0,0,1,.818,1.418v9.841a1.668,1.668,0,0,0,.845,1.418l8.068,4.635a.794.794,0,0,0,.818,0,.82.82,0,0,0,.409-.709l.027-21.074a1.622,1.622,0,0,0-.818-1.418l-13.6-7.852a1.527,1.527,0,0,0-.736-.191Zm122.218.191a1.631,1.631,0,0,0-.818.218l-13.6,7.852a1.632,1.632,0,0,0-.818,1.418v15.7a1.643,1.643,0,0,0,.845,1.418l13.492,7.688a1.636,1.636,0,0,0,1.608.027l8.177-4.553a.827.827,0,0,0,.436-.709.806.806,0,0,0-.409-.709l-13.683-7.852a.881.881,0,0,1-.436-.736V35.033a.841.841,0,0,1,.436-.709l4.252-2.454a.816.816,0,0,1,.818,0l4.252,2.454a.816.816,0,0,1,.409.709V38.9a.818.818,0,0,0,1.226.709l8.15-4.743a1.639,1.639,0,0,0,.818-1.418V29.663a1.636,1.636,0,0,0-.818-1.418l-13.519-7.852a1.621,1.621,0,0,0-.818-.218ZM97.562,31.9a.456.456,0,0,1,.218.054l4.661,2.7a.423.423,0,0,1,.218.354v5.4a.421.421,0,0,1-.218.355l-4.661,2.7a.412.412,0,0,1-.409,0l-4.661-2.7a.422.422,0,0,1-.218-.355v-5.4a.423.423,0,0,1,.218-.354l4.661-2.7a.359.359,0,0,1,.191-.054h0Z" transform="translate(0 0)" fill="#404137"/>
    <path id="Path_20449" data-name="Path 20449" d="M122.385,52.4a1.487,1.487,0,0,0-.745.2l-12.4,7.132a1.526,1.526,0,0,0-.746,1.317V75.363a1.487,1.487,0,0,0,.746,1.292l12.4,7.157a1.484,1.484,0,0,0,1.491,0l12.4-7.157a1.488,1.488,0,0,0,.745-1.292V61.05a1.526,1.526,0,0,0-.745-1.317l-12.4-7.132A1.484,1.484,0,0,0,122.385,52.4Zm74.152,12.773a.3.3,0,0,0-.149.025L194,66.591a.29.29,0,0,0-.149.249v2.733a.29.29,0,0,0,.149.249l2.386,1.367a.259.259,0,0,0,.273,0l2.386-1.367a.292.292,0,0,0,.149-.248V66.84a.292.292,0,0,0-.149-.248L196.661,65.2a.207.207,0,0,0-.124-.024Z" transform="translate(-64.629 -29.213)" fill="#83cd29"/>
  </g>
</svg>
