<svg xmlns="http://www.w3.org/2000/svg" width="170.305" height="151.522" viewBox="0 0 170.305 151.522">
  <g id="react_1_" data-name="react (1)" transform="translate(-15.242 -14.515)">
    <path id="Path_20451" data-name="Path 20451" d="M155.268,63.625q-2.719-.933-5.482-1.727.458-1.862.847-3.739c4.15-20.145,1.437-36.374-7.829-41.716-8.884-5.124-23.414.219-38.088,12.989q-2.169,1.892-4.24,3.891-1.387-1.329-2.822-2.606C82.273,17.061,66.857,11.307,57.6,16.665c-8.876,5.138-11.5,20.4-7.768,39.487q.558,2.836,1.259,5.641c-2.181.62-4.288,1.28-6.3,1.982-18.03,6.286-29.545,16.138-29.545,26.357,0,10.555,12.361,21.141,31.142,27.56q2.284.777,4.605,1.44-.754,3.021-1.338,6.08c-3.562,18.76-.78,33.655,8.072,38.762,9.143,5.272,24.489-.147,39.431-13.209q1.772-1.549,3.554-3.276,2.243,2.164,4.6,4.2c14.474,12.455,28.769,17.484,37.614,12.365,9.135-5.288,12.1-21.29,8.249-40.759q-.441-2.231-1.021-4.552,1.617-.477,3.167-.989c19.524-6.468,32.226-16.926,32.226-27.622,0-10.256-11.886-20.174-30.279-26.506Z" transform="translate(0 0)" fill="#53c1de"/>
    <path id="Path_20452" data-name="Path 20452" d="M153.41,113.22c-.931.308-1.887.606-2.86.895a170.759,170.759,0,0,0-8.624-21.575,170.677,170.677,0,0,0,8.288-21.26c1.742.5,3.433,1.036,5.063,1.6,15.76,5.424,25.373,13.446,25.373,19.626,0,6.584-10.382,15.131-27.239,20.716Zm-6.994,13.86c1.7,8.609,1.948,16.392.819,22.477-1.014,5.467-3.054,9.112-5.576,10.572-5.367,3.107-16.845-.932-29.223-11.583q-2.129-1.831-4.283-3.9a170.96,170.96,0,0,0,14.275-18.127,169.829,169.829,0,0,0,23.066-3.555q.52,2.1.922,4.12ZM75.68,159.592c-5.244,1.852-9.42,1.9-11.944.449-5.372-3.1-7.6-15.059-4.559-31.1q.543-2.844,1.244-5.654a171.074,171.074,0,0,0,22.95,3.322A177.037,177.037,0,0,0,97.99,144.67q-1.585,1.534-3.245,2.988c-6.608,5.776-13.229,9.874-19.064,11.935ZM51.115,113.179c-8.3-2.838-15.162-6.527-19.863-10.552C27.028,99.01,24.9,95.418,24.9,92.5c0-6.2,9.246-14.111,24.666-19.487q2.9-1.008,5.862-1.844a174.481,174.481,0,0,0,8.3,21.508,177.135,177.135,0,0,0-8.4,21.814Q53.2,113.889,51.115,113.179ZM59.35,57.126c-3.2-16.358-1.076-28.7,4.273-31.793,5.7-3.3,18.3,1.4,31.575,13.2.849.754,1.7,1.543,2.555,2.359A174.339,174.339,0,0,0,83.246,58.841,177.767,177.767,0,0,0,60.52,62.373q-.651-2.608-1.17-5.247Zm73.461,18.139q-2.5-4.314-5.179-8.517c5.434.686,10.64,1.6,15.529,2.714a155.2,155.2,0,0,1-5.451,14.665q-2.361-4.479-4.9-8.862ZM102.854,46.087a155.592,155.592,0,0,1,10.022,12.1q-10.058-.475-20.128,0C96.056,53.817,99.445,49.764,102.854,46.087ZM72.7,75.315Q70.2,79.662,67.9,84.122c-2.119-5.025-3.931-9.965-5.412-14.736,4.859-1.088,10.041-1.976,15.44-2.651q-2.711,4.228-5.221,8.58Zm5.376,43.476a154.918,154.918,0,0,1-15.7-2.523c1.5-4.855,3.356-9.9,5.52-15.035q2.31,4.462,4.828,8.812,2.569,4.436,5.347,8.746Zm24.975,20.643c-3.448-3.721-6.887-7.836-10.247-12.263q4.891.192,9.964.193,5.207,0,10.281-.228A154.706,154.706,0,0,1,103.055,139.434Zm34.725-38.463a154.493,154.493,0,0,1,5.719,14.981,154.4,154.4,0,0,1-15.887,2.708q2.7-4.281,5.228-8.666,2.57-4.456,4.939-9.023Zm-11.241,5.389q-3.87,6.722-8.17,13.182c-5.053.361-10.274.547-15.6.547-5.3,0-10.455-.165-15.419-.487q-4.41-6.441-8.323-13.2-3.892-6.721-7.266-13.722,3.362-7,7.244-13.73v0q3.878-6.728,8.258-13.146c5.065-.383,10.258-.583,15.507-.583,5.273,0,10.473.2,15.536.588q4.333,6.4,8.206,13.1,3.892,6.711,7.342,13.665-3.412,7.021-7.318,13.785Zm15.009-81.243c5.7,3.289,7.921,16.552,4.338,33.945q-.352,1.7-.766,3.386a174.282,174.282,0,0,0-22.771-3.6,170.9,170.9,0,0,0-14.4-17.967q1.913-1.844,3.916-3.592C124.441,26.349,136.192,22.029,141.547,25.117Z" transform="translate(-2.377 -2.372)" fill="#fff"/>
    <path id="Path_20453" data-name="Path 20453" d="M123.251,94.665a15.208,15.208,0,1,1-15.207,15.207,15.207,15.207,0,0,1,15.207-15.207" transform="translate(-22.857 -19.741)" fill="#53c1de"/>
  </g>
</svg>
