<svg xmlns="http://www.w3.org/2000/svg" width="299.36" height="107.27" viewBox="0 0 299.36 107.27">
  <g id="WHITE_LOGO" data-name="WHITE LOGO" transform="translate(-101.27 -201.95)">
    <path id="Path_20014" data-name="Path 20014" d="M259,257.25c0,5.59-1.58,10-4.74,13.08s-7.5,4.69-13,4.69H217.77V212.49h20.91q7.68,0,11.48,3.84t3.8,11.26q0,9.56-5.36,13.58Q259,245.19,259,257.25Zm-30.29-20h8a6.29,6.29,0,0,0,4.92-1.78q1.6-1.78,1.61-5.54,0-3.93-1.61-5.67a6.35,6.35,0,0,0-4.92-1.75h-8ZM245.51,263q2.19-2,2.19-6.84,0-5-2.28-7.05a8.89,8.89,0,0,0-6.2-2.06H228.67v18h10.55a9,9,0,0,0,6.29-2.05Z" transform="translate(-116.34 -8.18)" fill="#fff" stroke="#fff" stroke-miterlimit="10" stroke-width="0.25"/>
    <path id="Path_20015" data-name="Path 20015" d="M272.81,273.33c-2.51-1.61-4.11-4.45-4.83-8.54s-1.07-10.91-1.07-20.5.36-16.42,1.07-20.5,2.32-6.92,4.83-8.53,6.67-2.42,12.5-2.42,10,.81,12.51,2.42,4.11,4.45,4.82,8.53,1.08,10.91,1.08,20.5-.36,16.43-1.08,20.5-2.32,6.93-4.82,8.54-6.67,2.41-12.51,2.41S275.31,274.94,272.81,273.33Zm20.45-4.83q2.24-1.33,2.95-6.34a147,147,0,0,0,.72-17.87,147.261,147.261,0,0,0-.72-17.87c-.48-3.33-1.46-5.45-2.95-6.34s-4.14-1.34-7.95-1.34-6.46.45-7.95,1.34-2.47,3-2.95,6.34a150.054,150.054,0,0,0-.71,17.87,149.822,149.822,0,0,0,.71,17.87q.72,5,2.95,6.34c1.49.9,4.14,1.34,7.95,1.34S291.77,269.4,293.26,268.5Z" transform="translate(-116.34 -8.18)" fill="#fff" stroke="#fff" stroke-miterlimit="10" stroke-width="2"/>
    <path id="Path_20016" data-name="Path 20016" d="M325.07,221.06H309.7v-8.57h40v8.57H334.36v54h-9.29Z" transform="translate(-116.34 -8.18)" fill="#fff" stroke="#fff" stroke-miterlimit="10" stroke-width="0.5"/>
    <path id="Path_20017" data-name="Path 20017" d="M369.17,275V215.54h-15.1v-3.09h33.47v3.09h-15.1V275Z" transform="translate(-116.34 -8.18)" fill="#fff" stroke="#fff" stroke-miterlimit="10" stroke-width="1"/>
    <path id="Path_20018" data-name="Path 20018" d="M396,275V212.45h28.38v3.09h-25v26.29H421.3v3.09H399.36v27h25V275Z" transform="translate(-116.34 -8.18)" fill="#fff" stroke="#fff" stroke-miterlimit="10" stroke-width="1"/>
    <path id="Path_20019" data-name="Path 20019" d="M439.61,271.16q-4.69-4.59-4.69-12.14V227.27q0-7.54,4.69-12.09t12.32-4.55c5.1,0,9.2,1.52,12.33,4.55s4.68,7,4.68,12v1a.8.8,0,0,1-.91.91h-.91c-.6,0-.91-.27-.91-.82v-1.18A13.45,13.45,0,0,0,462.3,217q-3.92-3.83-10.37-3.82A14.278,14.278,0,0,0,441.56,217a13.48,13.48,0,0,0-3.91,10.09V259.2a13.78,13.78,0,0,0,3.91,10.23,15.83,15.83,0,0,0,20.74,0,13.74,13.74,0,0,0,3.91-10.23v-1a.81.81,0,0,1,.91-.91l.91.09a.8.8,0,0,1,.91.91v.82q0,7.45-4.68,12.05c-3.13,3.06-7.23,4.59-12.33,4.59S442.73,274.22,439.61,271.16Z" transform="translate(-116.34 -8.18)" fill="#fff" stroke="#fff" stroke-miterlimit="10" stroke-width="1"/>
    <path id="Path_20020" data-name="Path 20020" d="M513.14,275V244.9H486V275h-3.28V212.45H486v29.38h27.19V212.45h3.28V275Z" transform="translate(-116.34 -8.18)" fill="#fff" stroke="#fff" stroke-miterlimit="10" stroke-width="1"/>
    <path id="Path_20021" data-name="Path 20021" d="M217.69,308.2v-8.87H220v8.87Z" transform="translate(-116.34 -8.18)" fill="#fff"/>
    <path id="Path_20022" data-name="Path 20022" d="M226.63,299.33h4.17a9.9,9.9,0,0,1,2.16.17,4.11,4.11,0,0,1,1.71.81,3.86,3.86,0,0,1,1.08,1.44,5.41,5.41,0,0,1,.37,2.1,4.72,4.72,0,0,1-.35,1.89,3.92,3.92,0,0,1-1.21,1.56,4.3,4.3,0,0,1-1.56.7,8.418,8.418,0,0,1-2,.19h-4.3Zm2.28,1.5v5.87h1.71a7.609,7.609,0,0,0,1.38-.08,2.34,2.34,0,0,0,.92-.37,1.74,1.74,0,0,0,.6-.86,4.45,4.45,0,0,0,.23-1.62,4.12,4.12,0,0,0-.23-1.58,2,2,0,0,0-.65-.86,2.44,2.44,0,0,0-1.05-.42,14.657,14.657,0,0,0-1.88-.08Z" transform="translate(-116.34 -8.18)" fill="#fff"/>
    <path id="Path_20023" data-name="Path 20023" d="M242.53,308.2v-8.87h8.4v1.5h-6.11v2h5.68v1.5h-5.68v2.41h6.32v1.5Z" transform="translate(-116.34 -8.18)" fill="#fff"/>
    <path id="Path_20024" data-name="Path 20024" d="M267.77,308.2h-2.49l-1-2h-4.52l-.94,2H256.4l4.41-8.87h2.42Zm-4.21-3.51L262,301.4l-1.53,3.29Z" transform="translate(-116.34 -8.18)" fill="#fff"/>
    <path id="Path_20025" data-name="Path 20025" d="M281.73,299.33h4.18a10,10,0,0,1,2.16.17,4,4,0,0,1,1.7.81,3.659,3.659,0,0,1,1.08,1.44,5.22,5.22,0,0,1,.38,2.1,4.719,4.719,0,0,1-.35,1.89,4,4,0,0,1-1.21,1.56,4.37,4.37,0,0,1-1.61.71,8.471,8.471,0,0,1-2,.19h-4.31Zm2.29,1.5v5.87h1.71a7.609,7.609,0,0,0,1.38-.08,2.34,2.34,0,0,0,.92-.37,1.74,1.74,0,0,0,.6-.86,4.45,4.45,0,0,0,.23-1.62,4.12,4.12,0,0,0-.23-1.58,2,2,0,0,0-.65-.86,2.48,2.48,0,0,0-1.06-.42,14.475,14.475,0,0,0-1.87-.08Z" transform="translate(-116.34 -8.18)" fill="#fff"/>
    <path id="Path_20026" data-name="Path 20026" d="M297.64,308.2v-8.87H306v1.5h-6.11v2h5.68v1.5h-5.68v2.41h6.32v1.5Z" transform="translate(-116.34 -8.18)" fill="#fff"/>
    <path id="Path_20027" data-name="Path 20027" d="M315.55,308.2l-4-8.87H314l2.86,6.56,2.78-6.56h2.42L318,308.2Z" transform="translate(-116.34 -8.18)" fill="#fff"/>
    <path id="Path_20028" data-name="Path 20028" d="M327.69,308.2v-8.87h8.4v1.5H330v2h5.68v1.5H330v2.41h6.32v1.5Z" transform="translate(-116.34 -8.18)" fill="#fff"/>
    <path id="Path_20029" data-name="Path 20029" d="M342.78,308.2v-8.8h2.29v7.3h5.68v1.5Z" transform="translate(-116.34 -8.18)" fill="#fff"/>
    <path id="Path_20030" data-name="Path 20030" d="M356.39,303.82a4.66,4.66,0,0,1,.52-2.28,4.281,4.281,0,0,1,1-1.21,4.591,4.591,0,0,1,1.47-.8,7.56,7.56,0,0,1,2.44-.35,6.16,6.16,0,0,1,4,1.21,4.54,4.54,0,0,1,0,6.75,6.1,6.1,0,0,1-4,1.21,6.2,6.2,0,0,1-4-1.21A4,4,0,0,1,356.39,303.82Zm2.36-.06a2.85,2.85,0,0,0,.89,2.28,3.28,3.28,0,0,0,2.25.78,3.32,3.32,0,0,0,2.25-.77,3,3,0,0,0,.87-2.32,2.86,2.86,0,0,0-.85-2.27,3.81,3.81,0,0,0-4.55,0A2.9,2.9,0,0,0,358.75,303.76Z" transform="translate(-116.34 -8.18)" fill="#fff"/>
    <path id="Path_20031" data-name="Path 20031" d="M373.64,308.2v-8.87h3.66a16.9,16.9,0,0,1,2.72.13,3.06,3.06,0,0,1,1.63.87,2.34,2.34,0,0,1,.66,1.73,2.4,2.4,0,0,1-.38,1.37,2.67,2.67,0,0,1-1,.87,3.4,3.4,0,0,1-1.19.42,15.645,15.645,0,0,1-2.37.13h-1.49v3.35Zm2.28-7.37v2.51h1.25a7.8,7.8,0,0,0,1.81-.13,1.63,1.63,0,0,0,.72-.44,1.07,1.07,0,0,0-.11-1.49,1.71,1.71,0,0,0-.92-.39,14,14,0,0,0-1.64-.06Z" transform="translate(-116.34 -8.18)" fill="#fff"/>
    <path id="Path_20032" data-name="Path 20032" d="M396.67,305.31l2.22-.17a2,2,0,0,0,.82,1.29,2.88,2.88,0,0,0,1.65.41,3.12,3.12,0,0,0,1.67-.36,1.05,1.05,0,0,0,.56-.86.71.71,0,0,0-.24-.54,2.09,2.09,0,0,0-.82-.38q-.4-.1-1.83-.39a7.08,7.08,0,0,1-2.58-.87,2.14,2.14,0,0,1-1-1.79,2,2,0,0,1,.49-1.27,3.079,3.079,0,0,1,1.41-.9,7.291,7.291,0,0,1,2.23-.3,5.73,5.73,0,0,1,3.21.73,2.4,2.4,0,0,1,1.13,1.95l-2.29.08a1.4,1.4,0,0,0-.63-1,2.76,2.76,0,0,0-1.44-.3,3.08,3.08,0,0,0-1.56.32.61.61,0,0,0-.37.55.66.66,0,0,0,.34.54,7,7,0,0,0,2.1.59,13.407,13.407,0,0,1,2.47.64,3,3,0,0,1,1.25.9,2.29,2.29,0,0,1-.09,2.84,3.1,3.1,0,0,1-1.53,1,7.831,7.831,0,0,1-2.46.33,5.87,5.87,0,0,1-3.3-.78,3.2,3.2,0,0,1-1.41-2.26Z" transform="translate(-116.34 -8.18)" fill="#fff"/>
    <path id="Path_20033" data-name="Path 20033" d="M412.26,299.33h2.28v4.8a7.351,7.351,0,0,0,.09,1.48,1.44,1.44,0,0,0,.7.88,2.94,2.94,0,0,0,1.51.33,2.83,2.83,0,0,0,1.46-.31,1.26,1.26,0,0,0,.6-.77,7.58,7.58,0,0,0,.1-1.51v-4.9h2.29V304a9.533,9.533,0,0,1-.19,2.25,2.36,2.36,0,0,1-.68,1.12,3.7,3.7,0,0,1-1.34.72,7.179,7.179,0,0,1-2.17.27,8.059,8.059,0,0,1-2.46-.29,3.62,3.62,0,0,1-1.33-.77,2.31,2.31,0,0,1-.64-1,8.53,8.53,0,0,1-.22-2.25Z" transform="translate(-116.34 -8.18)" fill="#fff"/>
    <path id="Path_20034" data-name="Path 20034" d="M435.42,304.94l2.21.55a3.88,3.88,0,0,1-1.69,2.15,5.829,5.829,0,0,1-3,.71,5.6,5.6,0,0,1-3.71-1.21,4,4,0,0,1-1.45-3.3,4.25,4.25,0,0,1,1.46-3.44,5.74,5.74,0,0,1,3.84-1.22,5.52,5.52,0,0,1,3.37,1,3.38,3.38,0,0,1,1.16,1.63l-2.26.43a1.82,1.82,0,0,0-.84-1.09,2.82,2.82,0,0,0-1.55-.4,2.88,2.88,0,0,0-2,.71,3,3,0,0,0-.78,2.29,3.11,3.11,0,0,0,.77,2.39,2.81,2.81,0,0,0,2,.72,2.61,2.61,0,0,0,1.56-.46,2.48,2.48,0,0,0,.91-1.46Z" transform="translate(-116.34 -8.18)" fill="#fff"/>
    <path id="Path_20035" data-name="Path 20035" d="M444.07,308.2v-8.87h8.4v1.5h-6.11v2H452v1.5h-5.68v2.41h6.32v1.5Z" transform="translate(-116.34 -8.18)" fill="#fff"/>
    <path id="Path_20036" data-name="Path 20036" d="M458.52,305.31l2.22-.17a2,2,0,0,0,.82,1.29,2.88,2.88,0,0,0,1.65.41,3.14,3.14,0,0,0,1.67-.36,1.05,1.05,0,0,0,.56-.86.71.71,0,0,0-.24-.54,2.16,2.16,0,0,0-.82-.38q-.4-.1-1.83-.39a7.08,7.08,0,0,1-2.58-.87,2.14,2.14,0,0,1-1-1.79,2,2,0,0,1,.49-1.27,3.08,3.08,0,0,1,1.41-.9,7.292,7.292,0,0,1,2.23-.3,5.73,5.73,0,0,1,3.21.73,2.4,2.4,0,0,1,1.13,1.95l-2.29.08a1.4,1.4,0,0,0-.63-1,2.76,2.76,0,0,0-1.44-.3,3.08,3.08,0,0,0-1.56.32.61.61,0,0,0-.37.55.66.66,0,0,0,.34.54,7,7,0,0,0,2.1.59,13.408,13.408,0,0,1,2.47.64,3,3,0,0,1,1.25.9,2.29,2.29,0,0,1-.09,2.84,3.1,3.1,0,0,1-1.53,1,7.831,7.831,0,0,1-2.46.33,5.87,5.87,0,0,1-3.3-.78,3.2,3.2,0,0,1-1.41-2.26Z" transform="translate(-116.34 -8.18)" fill="#fff"/>
    <path id="Path_20037" data-name="Path 20037" d="M473.54,305.31l2.23-.17a2,2,0,0,0,.81,1.29,2.89,2.89,0,0,0,1.66.41,3.08,3.08,0,0,0,1.66-.36,1,1,0,0,0,.56-.86.7.7,0,0,0-.23-.54,2.16,2.16,0,0,0-.82-.38q-.41-.1-1.83-.39a7.08,7.08,0,0,1-2.58-.87,2.15,2.15,0,0,1-1.05-1.79,2,2,0,0,1,.49-1.27,3.11,3.11,0,0,1,1.42-.9,7.181,7.181,0,0,1,2.22-.3,5.69,5.69,0,0,1,3.21.73,2.41,2.41,0,0,1,1.14,1.95l-2.29.08a1.47,1.47,0,0,0-.63-1,2.78,2.78,0,0,0-1.45-.3,3.13,3.13,0,0,0-1.56.32.62.62,0,0,0-.36.55.64.64,0,0,0,.34.54,7,7,0,0,0,2.1.59,13.88,13.88,0,0,1,2.47.64,3,3,0,0,1,1.25.9,2.29,2.29,0,0,1-.09,2.84,3.1,3.1,0,0,1-1.53,1,7.869,7.869,0,0,1-2.46.33,5.87,5.87,0,0,1-3.3-.78A3.18,3.18,0,0,1,473.54,305.31Z" transform="translate(-116.34 -8.18)" fill="#fff"/>
    <path id="Path_20038" data-name="Path 20038" d="M489.15,308.2v-8.87h8.39v1.5h-6.1v2h5.68v1.5h-5.68v2.41h6.32v1.5Z" transform="translate(-116.34 -8.18)" fill="#fff"/>
    <path id="Path_20039" data-name="Path 20039" d="M504.17,299.33h4.18a9.79,9.79,0,0,1,2.15.17,4.05,4.05,0,0,1,1.71.81,3.859,3.859,0,0,1,1.08,1.44,5.23,5.23,0,0,1,.37,2.1,4.72,4.72,0,0,1-.35,1.89,3.92,3.92,0,0,1-1.21,1.56,4.3,4.3,0,0,1-1.61.71,8.42,8.42,0,0,1-2,.19h-4.3Zm2.28,1.5v5.87h1.71a7.609,7.609,0,0,0,1.38-.08,2.45,2.45,0,0,0,.93-.37,1.8,1.8,0,0,0,.59-.86,4.43,4.43,0,0,0,.24-1.62,4.089,4.089,0,0,0-.24-1.58,2,2,0,0,0-.64-.86,2.479,2.479,0,0,0-1.06-.42,14.657,14.657,0,0,0-1.88-.08Z" transform="translate(-116.34 -8.18)" fill="#fff"/>
    <path id="Path_20040" data-name="Path 20040" d="M397.52,309.1h0Z" fill="#fff"/>
    <rect id="Rectangle_13" data-name="Rectangle 13" width="296.25" height="0.25" transform="translate(101.27 308.97)" fill="#fff"/>
    <path id="Path_20041" data-name="Path 20041" d="M397.52,279.21h0Z" fill="#fff"/>
    <rect id="Rectangle_14" data-name="Rectangle 14" width="296.25" height="0.25" transform="translate(101.27 279.09)" fill="#fff"/>
  </g>
</svg>
