<svg xmlns="http://www.w3.org/2000/svg" width="49.068" height="48.7" viewBox="0 0 49.068 48.7">
  <g id="BUSINESS_STARTEGY_ICON" data-name="BUSINESS STARTEGY ICON" transform="translate(-22.016 0.6)">
    <g id="Group_279" data-name="Group 279" transform="translate(29.233 7.86)">
      <g id="Group_278" data-name="Group 278">
        <path id="Path_20597" data-name="Path 20597" d="M126.586,97.512c-.155-8.208-7.748-14.842-17.06-14.842-9.408,0-17.062,6.773-17.062,15.1a14.347,14.347,0,0,0,5.761,11.309V122.31h20.311v-6.754h8.052V107.99h4.423Zm-3.128,7.708v7.566h-8.052v6.754h-14.05V107.774l-.581-.416a11.8,11.8,0,0,1-5.18-9.59c0-6.8,6.25-12.328,13.932-12.328s13.932,5.53,13.932,12.328v.25l3.042,7.2Z" transform="translate(-92.465 -82.67)" fill="none" stroke="#000" stroke-width="1.2"/>
      </g>
    </g>
    <g id="Group_281" data-name="Group 281" transform="translate(45.164)">
      <g id="Group_280" data-name="Group 280">
        <rect id="Rectangle_154" data-name="Rectangle 154" width="2.77" height="4.86" fill="none" stroke="#000" stroke-width="1.2"/>
      </g>
    </g>
    <g id="Group_283" data-name="Group 283" transform="translate(53.002 1.2)">
      <g id="Group_282" data-name="Group 282" transform="translate(0 0)">
        <rect id="Rectangle_155" data-name="Rectangle 155" width="4.86" height="2.77" transform="translate(0 4.49) rotate(-67.5)" fill="none" stroke="#000" stroke-width="1.2"/>
      </g>
    </g>
    <g id="Group_285" data-name="Group 285" transform="translate(35.679 1.201)">
      <g id="Group_284" data-name="Group 284" transform="translate(0)">
        <rect id="Rectangle_156" data-name="Rectangle 156" width="2.77" height="4.86" transform="translate(0 1.06) rotate(-22.5)" fill="none" stroke="#000" stroke-width="1.2"/>
      </g>
    </g>
    <g id="Group_287" data-name="Group 287" transform="translate(60.424 5.679)">
      <g id="Group_286" data-name="Group 286" transform="translate(0 0)">
        <rect id="Rectangle_157" data-name="Rectangle 157" width="4.859" height="2.77" transform="translate(0 3.436) rotate(-45)" fill="none" stroke="#000" stroke-width="1.2"/>
      </g>
    </g>
    <g id="Group_289" data-name="Group 289" transform="translate(64.75 12.821)">
      <g id="Group_288" data-name="Group 288" transform="translate(0 0)">
        <rect id="Rectangle_158" data-name="Rectangle 158" width="4.86" height="2.77" transform="translate(0 1.86) rotate(-22.5)" fill="none" stroke="#000" stroke-width="1.2"/>
      </g>
    </g>
    <g id="Group_291" data-name="Group 291" transform="translate(27.278 5.679)">
      <g id="Group_290" data-name="Group 290" transform="translate(0 0)">
        <rect id="Rectangle_159" data-name="Rectangle 159" width="2.77" height="4.86" transform="translate(0 1.959) rotate(-45)" fill="none" stroke="#000" stroke-width="1.2"/>
      </g>
    </g>
    <g id="Group_293" data-name="Group 293" transform="translate(22.8 12.821)">
      <g id="Group_292" data-name="Group 292" transform="translate(0 0)">
        <rect id="Rectangle_160" data-name="Rectangle 160" width="2.77" height="4.86" transform="translate(0 2.559) rotate(-67.5)" fill="none" stroke="#000" stroke-width="1.2"/>
      </g>
    </g>
    <g id="Group_295" data-name="Group 295" transform="translate(38.072 13.286)">
      <g id="Group_294" data-name="Group 294" transform="translate(0)">
        <path id="Path_20598" data-name="Path 20598" d="M172.662,142.669a8.475,8.475,0,0,0-4.225,15.822v5.055h8.45v-5.055a8.475,8.475,0,0,0-4.225-15.822Zm2.284,13.7-.828.364v4.039h-2.911v-4.039l-.828-.364a5.707,5.707,0,1,1,4.567,0Z" transform="translate(-164.185 -142.669)" fill="none" stroke="#000" stroke-width="1.2"/>
      </g>
    </g>
  </g>
</svg>
