<svg xmlns="http://www.w3.org/2000/svg" width="487.938" height="356.396" viewBox="0 0 487.938 356.396">
  <g id="devlopment" transform="translate(-1167.734 -4463.365)">
    <path id="Path_21415" data-name="Path 21415" d="M910.769,863.74c48.722-46.748,151.031,2.629,238.579,14.624s229.949-7.063,229.589,45.546c-.382,56.086-31.963,87.639-205.17,102.708S921.262,995.242,898.617,945.8C880.987,907.308,897.748,876.234,910.769,863.74Z" transform="translate(276.734 3790.256)" fill="#e7f3fe"/>
    <path id="Path_21416" data-name="Path 21416" d="M1301.154,893.245H956v.173h345.154Z" transform="translate(284.813 3796.376)" fill="#ebebeb"/>
    <path id="Path_21417" data-name="Path 21417" d="M1116.69,887.439H983.4a3.944,3.944,0,0,1-3.935-3.945V695.945A3.944,3.944,0,0,1,983.4,692H1116.69a3.931,3.931,0,0,1,3.935,3.945V883.494a4.074,4.074,0,0,1-.292,1.51,4.133,4.133,0,0,1-.854,1.279,3.952,3.952,0,0,1-2.788,1.156ZM983.4,692.173a3.771,3.771,0,0,0-3.763,3.772V883.494a3.772,3.772,0,0,0,3.763,3.772H1116.69a3.769,3.769,0,0,0,3.766-3.772V695.945a3.769,3.769,0,0,0-3.766-3.772Z" transform="translate(287.729 3771.365)" fill="#ebebeb"/>
    <path id="Path_21418" data-name="Path 21418" d="M1249.5,887.439H1116.206a3.954,3.954,0,0,1-3.946-3.945V695.945a3.954,3.954,0,0,1,3.946-3.945H1249.5a3.957,3.957,0,0,1,3.935,3.945V883.494a3.958,3.958,0,0,1-3.935,3.945ZM1116.206,692.173a3.769,3.769,0,0,0-3.766,3.772V883.494a3.769,3.769,0,0,0,3.766,3.772H1249.5a3.769,3.769,0,0,0,3.766-3.772V695.945a3.769,3.769,0,0,0-3.766-3.772Z" transform="translate(304.232 3771.365)" fill="#ebebeb"/>
    <path id="Path_21419" data-name="Path 21419" d="M1081.053,899.1H1063.11v.173h17.943Z" transform="translate(298.124 3797.103)" fill="#ebebeb"/>
    <path id="Path_21420" data-name="Path 21420" d="M1025.559,897.431H988.21v.172h37.349Z" transform="translate(288.815 3796.896)" fill="#ebebeb"/>
    <path id="Path_21421" data-name="Path 21421" d="M1064.5,904.806H1046.33v.172H1064.5Z" transform="translate(296.039 3797.813)" fill="#ebebeb"/>
    <path id="Path_21422" data-name="Path 21422" d="M1141.353,903.773h-26.8v.173h26.8Z" transform="translate(304.518 3797.685)" fill="#ebebeb"/>
    <path id="Path_21423" data-name="Path 21423" d="M1151.235,903.773h-7.375v.173h7.375Z" transform="translate(308.16 3797.685)" fill="#ebebeb"/>
    <path id="Path_21424" data-name="Path 21424" d="M1236.4,901.174H1198.75v.172H1236.4Z" transform="translate(314.981 3797.362)" fill="#ebebeb"/>
    <path id="Path_21425" data-name="Path 21425" d="M1189.97,897.372h31.514v-86.7H1189.97Z" transform="translate(313.891 3786.114)" fill="#f0f0f0"/>
    <path id="Path_21426" data-name="Path 21426" d="M1067.58,893.922h163.066v-6.128H1067.58Z" transform="translate(298.68 3795.699)" fill="#f0f0f0"/>
    <path id="Path_21427" data-name="Path 21427" d="M1205.849,810.676H1062.2v86.7h143.649Z" transform="translate(298.011 3786.114)" fill="#f5f5f5"/>
    <path id="Path_21428" data-name="Path 21428" d="M1206.4,815.894H1062.2V847.63h144.2Z" transform="translate(298.011 3786.763)" fill="#f0f0f0"/>
    <path id="Path_21429" data-name="Path 21429" d="M1206.4,849.266H1062.2V881h144.2Z" transform="translate(298.011 3790.91)" fill="#f0f0f0"/>
    <path id="Path_21430" data-name="Path 21430" d="M1189.97,847.63h5.453V815.894h-5.453Z" transform="translate(313.891 3786.763)" fill="#e6e6e6"/>
    <path id="Path_21431" data-name="Path 21431" d="M1189.97,881.008h5.453V849.272h-5.453Z" transform="translate(313.891 3790.911)" fill="#e6e6e6"/>
    <path id="Path_21432" data-name="Path 21432" d="M1058.47,811.266h147.843v-5.335H1058.47Z" transform="translate(297.548 3785.525)" fill="#f0f0f0"/>
    <path id="Path_21433" data-name="Path 21433" d="M1225.891,805.932H1189.97v5.334h35.921Z" transform="translate(313.891 3785.525)" fill="#e6e6e6"/>
    <path id="Path_21434" data-name="Path 21434" d="M1157.48,801.741h74.169V708.434H1157.48Z" transform="translate(309.853 3773.408)" fill="#f0f0f0"/>
    <path id="Path_21435" data-name="Path 21435" d="M1142.92,801.741h87.694V708.434H1142.92Z" transform="translate(308.043 3773.408)" fill="#f5f5f5"/>
    <path id="Path_21436" data-name="Path 21436" d="M1149.45,714.973v78.6h73v-78.6Z" transform="translate(308.854 3774.22)" fill="#fff"/>
    <path id="Path_21437" data-name="Path 21437" d="M1189.1,759.379l13.952-6.474v-4.078l-13.952-6.48v4.837l8.477,3.655L1189.1,754.5Z" transform="translate(313.782 3777.622)" fill="#e6e6e6"/>
    <path id="Path_21438" data-name="Path 21438" d="M1181.291,740.675h-2.541l4.508,20.8h2.541Z" transform="translate(312.496 3777.415)" fill="#e6e6e6"/>
    <path id="Path_21439" data-name="Path 21439" d="M1176.275,754.529l-8.443-3.662,8.443-3.635V742.4l-13.975,6.425V752.9l13.952,6.475Z" transform="translate(310.451 3777.628)" fill="#e6e6e6"/>
    <path id="Path_21440" data-name="Path 21440" d="M1027.97,910.75h4.868V752.4h-4.868Z" transform="translate(293.757 3778.871)" fill="#f0f0f0"/>
    <path id="Path_21441" data-name="Path 21441" d="M1027.3,908.8l-.135-.69a3.88,3.88,0,0,0,2.3-2.011c1.259-2.245,2.024-7.013-1.484-17.025-5.419-15.416-2.181-27.86,4.261-52.644,1.113-4.32,2.384-9.211,3.7-14.511,4.958-19.81.382-32.095-3.305-41.968-2.844-7.663-5.1-13.716-2.215-20.73l.641.263c-2.766,6.764-.573,12.707,2.226,20.224,3.71,9.964,8.331,22.36,3.328,42.378-1.316,5.285-2.586,10.185-3.71,14.51-6.408,24.675-9.624,37.071-4.272,52.271,3.609,10.3,2.766,15.264,1.383,17.626a4.5,4.5,0,0,1-2.721,2.308Z" transform="translate(293.418 3779.719)" fill="#f0f0f0"/>
    <path id="Path_21442" data-name="Path 21442" d="M1022.31,893.564h17.6l-4.9-2.887h-7.8Z" transform="translate(293.054 3796.057)" fill="#f0f0f0"/>
    <path id="Path_21443" data-name="Path 21443" d="M999.17,776.8h69.615l-7.656-58.552h-54.292Z" transform="translate(290.178 3774.627)" fill="#f5f5f5"/>
    <path id="Path_21444" data-name="Path 21444" d="M1091.01,778.914h37.158l-4.891,30.375H1095.9Z" transform="translate(301.592 3782.167)" fill="#f0f0f0"/>
    <path id="Path_21445" data-name="Path 21445" d="M1107.765,790.99c10.13-3.676,17.887-9.19,9.208-20.342s-22.137-11.1-31.21-6.171c-11.558,6.295-9.242,24.495-9.242,24.495S1097.624,794.632,1107.765,790.99Z" transform="translate(299.768 3779.979)" fill="#e0e0e0"/>
    <path id="Path_21446" data-name="Path 21446" d="M1114.034,781.018c-7.758-5.285-13.244-11.407-4.25-17.854s20.08-3.145,26.758,2.847c8.488,7.642,3.587,21.053,3.587,21.053S1121.781,786.311,1114.034,781.018Z" transform="translate(303.347 3779.773)" fill="#e6e6e6"/>
    <path id="Path_21447" data-name="Path 21447" d="M1103.632,769.423c9.073-.553,16.684-2.916,12.389-12.755s-15.144-12.562-23.677-10.9c-10.861,2.142-13.424,15.74-13.424,15.74S1094.57,769.976,1103.632,769.423Z" transform="translate(300.089 3777.991)" fill="#f0f0f0"/>
    <path id="Path_21448" data-name="Path 21448" d="M1112.148,763.766c-7.555-2.425-13.469-6.073-7.713-13.453s15.526-7.352,22.362-4.083c8.713,4.146,7.938,16.2,7.938,16.2S1119.692,766.2,1112.148,763.766Z" transform="translate(302.973 3777.844)" fill="#ebebeb"/>
    <path id="Path_21449" data-name="Path 21449" d="M1100.381,752.928c7.533,2.488,14.458,3.027,14.144-6.329s-8.219-15.091-15.661-16.473c-9.5-1.768-15.953,8.423-15.953,8.423S1092.86,750.455,1100.381,752.928Z" transform="translate(300.585 3776.078)" fill="#f5f5f5"/>
    <path id="Path_21450" data-name="Path 21450" d="M1116.408,748.461c-5.4.367-10.051-.45-8.286-6.571s7.982-8.575,13.12-8.23c6.554.436,9.107,8.292,9.107,8.292S1121.793,748.094,1116.408,748.461Z" transform="translate(303.671 3776.539)" fill="#fafafa"/>
    <path id="Path_21451" data-name="Path 21451" d="M1124.3,922.729c73.922,0,133.846-3.5,133.846-7.822s-59.924-7.822-133.846-7.822-133.843,3.5-133.843,7.822S1050.374,922.729,1124.3,922.729Z" transform="translate(289.094 3798.096)" fill="#f5f5f5"/>
    <path id="Path_21452" data-name="Path 21452" d="M1239.356,812.538H1004.82v8.423h234.536Z" transform="translate(290.88 3786.346)" fill="#9ec8ff"/>
    <path id="Path_21453" data-name="Path 21453" d="M1067.589,812.538H1004.82v8.423h62.769Z" transform="translate(290.88 3786.346)" fill="#fff" opacity="0.3"/>
    <path id="Path_21454" data-name="Path 21454" d="M1062.144,820.03h-5.464l2.867,105.565h5.205l2.856-105.565Z" transform="translate(297.325 3787.277)" fill="#9ec8ff"/>
    <path id="Path_21455" data-name="Path 21455" d="M1059.537,925.344h2.6V822.052l-5.374.982Z" transform="translate(297.335 3787.528)" fill="#fff" opacity="0.3"/>
    <path id="Path_21456" data-name="Path 21456" d="M1016.114,820.03h-5.464l2.856,105.565h5.205l2.867-105.565Z" transform="translate(291.604 3787.277)" fill="#9ec8ff"/>
    <path id="Path_21457" data-name="Path 21457" d="M1013.5,925.344h2.608V822.052l-5.374.982Z" transform="translate(291.614 3787.528)" fill="#fff" opacity="0.3"/>
    <path id="Path_21458" data-name="Path 21458" d="M1203.344,820.03h-5.464l2.856,105.565h5.205l2.867-105.565Z" transform="translate(314.873 3787.277)" fill="#9ec8ff"/>
    <path id="Path_21459" data-name="Path 21459" d="M1200.726,925.344h2.608V822.052l-5.374.982Z" transform="translate(314.884 3787.528)" fill="#fff" opacity="0.3"/>
    <path id="Path_21460" data-name="Path 21460" d="M1157.3,820.03h-5.453l2.856,105.565h5.205l2.856-105.565Z" transform="translate(309.152 3787.277)" fill="#9ec8ff"/>
    <path id="Path_21461" data-name="Path 21461" d="M1154.7,925.344h2.6V822.052l-5.363.982Z" transform="translate(309.163 3787.528)" fill="#fff" opacity="0.3"/>
    <path id="Path_21462" data-name="Path 21462" d="M1110.334,772.437H1054.57a2.87,2.87,0,0,0-2.923,2.3,2.838,2.838,0,0,0,.045,1.339l7.432,35.48a4.732,4.732,0,0,0,4.4,3.648h55.809a2.876,2.876,0,0,0,2.923-2.309,2.84,2.84,0,0,0-.045-1.339l-7.432-35.48a4.8,4.8,0,0,0-1.608-2.569A4.739,4.739,0,0,0,1110.334,772.437Z" transform="translate(296.692 3781.362)" fill="#263238"/>
    <path id="Path_21463" data-name="Path 21463" d="M1063.786,813.085a3.3,3.3,0,0,1-1.889-.76,3.268,3.268,0,0,1-1.09-1.728l-7.432-35.481a1.726,1.726,0,0,1-.023-.719,1.593,1.593,0,0,1,.281-.662,1.526,1.526,0,0,1,.54-.388,1.489,1.489,0,0,1,.652-.116h55.809a3.313,3.313,0,0,1,2.979,2.487l7.432,35.474a1.724,1.724,0,0,1,.022.72,1.59,1.59,0,0,1-.281.662,1.414,1.414,0,0,1-.54.39,1.444,1.444,0,0,1-.652.115Z" transform="translate(296.908 3781.46)" fill="#fff"/>
    <path id="Path_21464" data-name="Path 21464" d="M1100.861,810.052l-7.038-33.616a1.363,1.363,0,0,1,.011-.6,1.393,1.393,0,0,1,.27-.539,1.388,1.388,0,0,1,1.057-.512h9.062a1.4,1.4,0,0,1,.854.31,1.381,1.381,0,0,1,.483.781l7.038,33.616a1.462,1.462,0,0,1-.281,1.135,1.473,1.473,0,0,1-.472.372,1.377,1.377,0,0,1-.585.137H1102.2a1.35,1.35,0,0,1-.854-.308A1.367,1.367,0,0,1,1100.861,810.052Z" transform="translate(301.938 3781.654)" fill="#9ec8ff" opacity="0.4"/>
    <path id="Path_21465" data-name="Path 21465" d="M1057.544,777.539l-.3-1.458h11.175l.3,1.458Z" transform="translate(297.395 3781.815)" fill="#9ec8ff"/>
    <path id="Path_21466" data-name="Path 21466" d="M1062.134,780.761l-.3-1.465h19.6l.315,1.465Z" transform="translate(297.965 3782.214)" fill="#ebebeb"/>
    <path id="Path_21467" data-name="Path 21467" d="M1063.055,783.974l-.315-1.458h21.98l.3,1.458Z" transform="translate(298.078 3782.615)" fill="#ebebeb"/>
    <path id="Path_21468" data-name="Path 21468" d="M1063.974,787.188l-.3-1.458h17.685l.3,1.458Z" transform="translate(298.193 3783.014)" fill="#ebebeb"/>
    <path id="Path_21469" data-name="Path 21469" d="M1060.564,792.412l-.3-1.458h7.072l.3,1.458Z" transform="translate(297.77 3783.663)" fill="#9ec8ff"/>
    <path id="Path_21470" data-name="Path 21470" d="M1065.154,795.626l-.3-1.458h8.612l.315,1.458Z" transform="translate(298.341 3784.063)" fill="#ebebeb"/>
    <path id="Path_21471" data-name="Path 21471" d="M1074.654,795.626l-.3-1.458h8.623l.3,1.458Z" transform="translate(299.521 3784.063)" fill="#ebebeb"/>
    <path id="Path_21472" data-name="Path 21472" d="M1066.074,798.848l-.3-1.465h29.13l.3,1.465Z" transform="translate(298.455 3784.462)" fill="#ebebeb"/>
    <path id="Path_21473" data-name="Path 21473" d="M1066.994,802.061l-.3-1.458h22.2l.3,1.458Z" transform="translate(298.569 3784.863)" fill="#ebebeb"/>
    <path id="Path_21474" data-name="Path 21474" d="M1135.453,810.289h-73.416c-2,0-3.305,1.14-2.878,2.529h80.7C1139.444,811.429,1137.454,810.289,1135.453,810.289Z" transform="translate(297.623 3786.066)" fill="#263238"/>
    <path id="Path_21475" data-name="Path 21475" d="M1041.032,768.352l-7.049-33.615a1.4,1.4,0,0,1,.011-.612,1.426,1.426,0,0,1,.281-.545,1.466,1.466,0,0,1,.484-.371,1.4,1.4,0,0,1,.607-.124h57.012a1.394,1.394,0,0,1,.866.31,1.307,1.307,0,0,1,.472.781l7.049,33.615a1.473,1.473,0,0,1-.281,1.141,1.478,1.478,0,0,1-.472.373,1.4,1.4,0,0,1-.585.137H1042.4a1.363,1.363,0,0,1-1.372-1.092Z" transform="translate(294.501 3776.471)" fill="#9ec8ff" opacity="0.1"/>
    <path id="Path_21476" data-name="Path 21476" d="M1059.622,734.218H1047.66l-.27-1.293h11.962Z" transform="translate(296.17 3776.451)" fill="#9ec8ff"/>
    <path id="Path_21477" data-name="Path 21477" d="M1057.1,736.042h-4.8l-.27-1.285h4.8Z" transform="translate(296.747 3776.679)" fill="#9ec8ff" opacity="0.4"/>
    <path id="Path_21478" data-name="Path 21478" d="M1064.5,736.042h-7.4l-.27-1.285h7.4Z" transform="translate(297.344 3776.679)" fill="#9ec8ff" opacity="0.4"/>
    <path id="Path_21479" data-name="Path 21479" d="M1068.274,737.874H1052.68l-.27-1.292h15.605Z" transform="translate(296.794 3776.906)" fill="#9ec8ff" opacity="0.4"/>
    <path id="Path_21480" data-name="Path 21480" d="M1066.248,739.7H1053.06l-.27-1.285h13.188Z" transform="translate(296.842 3777.134)" fill="#9ec8ff" opacity="0.4"/>
    <path id="Path_21481" data-name="Path 21481" d="M1073.468,758.99h-8.4l.27,1.285h8.4Z" transform="translate(298.368 3779.691)" fill="#9ec8ff" opacity="0.4"/>
    <path id="Path_21482" data-name="Path 21482" d="M1064.619,756.618h-12.3l-.27-1.285h12.3Z" transform="translate(296.75 3779.236)" fill="#9ec8ff"/>
    <path id="Path_21483" data-name="Path 21483" d="M1068.894,760.815H1057.46l.27,1.292h11.423Z" transform="translate(297.422 3779.917)" fill="#9ec8ff" opacity="0.4"/>
    <path id="Path_21484" data-name="Path 21484" d="M1065.467,758.99h-8.387l.27,1.285h8.387Z" transform="translate(297.375 3779.691)" fill="#9ec8ff" opacity="0.4"/>
    <path id="Path_21485" data-name="Path 21485" d="M1073.486,757.158H1056.7l.27,1.292h16.786Z" transform="translate(297.327 3779.463)" fill="#9ec8ff" opacity="0.4"/>
    <path id="Path_21487" data-name="Path 21487" d="M1065.5,729.883H1050.56l.27,1.285h14.93Z" transform="translate(296.564 3776.073)" fill="#9ec8ff" opacity="0.4"/>
    <path id="Path_21488" data-name="Path 21488" d="M1062.558,728.052H1050.18l.27,1.292h12.378Z" transform="translate(296.518 3775.846)" fill="#9ec8ff" opacity="0.4"/>
    <path id="Path_21489" data-name="Path 21489" d="M1063.426,726.226H1049.8l.27,1.285H1063.7Z" transform="translate(296.47 3775.619)" fill="#9ec8ff" opacity="0.4"/>
    <path id="Path_21490" data-name="Path 21490" d="M1058.83,742.673h-9.41l-.27-1.285h9.41Z" transform="translate(296.39 3777.503)" fill="#9ec8ff"/>
    <path id="Path_21491" data-name="Path 21491" d="M1072.955,746.87h-18.4l.27,1.292h18.393Z" transform="translate(297.061 3778.185)" fill="#9ec8ff" opacity="0.4"/>
    <path id="Path_21492" data-name="Path 21492" d="M1061.793,745.045h-7.623l.27,1.285h7.622Z" transform="translate(297.013 3777.958)" fill="#9ec8ff" opacity="0.4"/>
    <path id="Path_21493" data-name="Path 21493" d="M1069.153,745.045h-7.623l.27,1.285h7.623Z" transform="translate(297.928 3777.958)" fill="#9ec8ff" opacity="0.4"/>
    <path id="Path_21494" data-name="Path 21494" d="M1070.576,743.213H1053.79l.27,1.293h16.785Z" transform="translate(296.966 3777.73)" fill="#9ec8ff" opacity="0.4"/>
    <path id="Path_21495" data-name="Path 21495" d="M1070.3,752.358h-14.6l.259,1.286h14.616Z" transform="translate(297.203 3778.866)" fill="#9ec8ff" opacity="0.4"/>
    <path id="Path_21496" data-name="Path 21496" d="M1059.571,750.527h-4.261l.27,1.292h4.25Z" transform="translate(297.154 3778.639)" fill="#9ec8ff" opacity="0.4"/>
    <path id="Path_21497" data-name="Path 21497" d="M1065.681,750.527h-6.071l.27,1.292h6.071Z" transform="translate(297.689 3778.639)" fill="#9ec8ff" opacity="0.4"/>
    <path id="Path_21498" data-name="Path 21498" d="M1071.727,748.7h-16.8l.27,1.285H1072Z" transform="translate(297.107 3778.412)" fill="#9ec8ff" opacity="0.4"/>
    <path id="Path_21499" data-name="Path 21499" d="M1082.313,748.537h-6l-.27-1.292h6.015Z" transform="translate(299.731 3778.231)" fill="#9ec8ff" opacity="0.4"/>
    <path id="Path_21500" data-name="Path 21500" d="M1091.584,748.537h-9.264l-.27-1.292h9.264Z" transform="translate(300.479 3778.231)" fill="#9ec8ff" opacity="0.4"/>
    <path id="Path_21501" data-name="Path 21501" d="M1096.219,750.362H1076.69l-.27-1.286h19.529Z" transform="translate(299.778 3778.459)" fill="#9ec8ff" opacity="0.4"/>
    <path id="Path_21502" data-name="Path 21502" d="M1093.574,752.194h-16.5l-.27-1.292h16.5Z" transform="translate(299.825 3778.686)" fill="#9ec8ff" opacity="0.4"/>
    <path id="Path_21503" data-name="Path 21503" d="M1100.357,741.118h-18.7l.27,1.292h18.7Z" transform="translate(300.43 3777.47)" fill="#9ec8ff" opacity="0.4"/>
    <path id="Path_21504" data-name="Path 21504" d="M1096.784,739.292h-15.5l.27,1.285h15.493Z" transform="translate(300.383 3777.243)" fill="#9ec8ff" opacity="0.4"/>
    <path id="Path_21505" data-name="Path 21505" d="M1094.457,737.461H1077.39l.27,1.292h17.067Z" transform="translate(299.898 3777.015)" fill="#9ec8ff"/>
    <path id="Path_21506" data-name="Path 21506" d="M1101.585,759.365H1078.56l.27,1.285h23.025Z" transform="translate(300.044 3779.737)" fill="#9ec8ff" opacity="0.4"/>
    <path id="Path_21507" data-name="Path 21507" d="M1087.725,757.533h-9.545l.27,1.292h9.545Z" transform="translate(299.997 3779.51)" fill="#9ec8ff" opacity="0.4"/>
    <path id="Path_21508" data-name="Path 21508" d="M1096.935,757.533h-9.545l.27,1.292h9.545Z" transform="translate(301.142 3779.51)" fill="#9ec8ff" opacity="0.4"/>
    <path id="Path_21509" data-name="Path 21509" d="M1098.813,755.708H1077.8l.27,1.285h21.013Z" transform="translate(299.95 3779.283)" fill="#9ec8ff" opacity="0.4"/>
    <path id="Path_21510" data-name="Path 21510" d="M1097.992,764.847H1079.7l.27,1.292h18.292Z" transform="translate(300.186 3780.419)" fill="#9ec8ff" opacity="0.4"/>
    <path id="Path_21511" data-name="Path 21511" d="M1084.649,763.021h-5.329l.27,1.286h5.329Z" transform="translate(300.139 3780.192)" fill="#9ec8ff" opacity="0.4"/>
    <path id="Path_21512" data-name="Path 21512" d="M1092.3,763.021h-7.589l.27,1.286h7.589Z" transform="translate(300.809 3780.192)" fill="#9ec8ff" opacity="0.4"/>
    <path id="Path_21513" data-name="Path 21513" d="M1099.964,761.19H1078.94l.27,1.292h21.013Z" transform="translate(300.092 3779.964)" fill="#9ec8ff" opacity="0.4"/>
    <path id="Path_21514" data-name="Path 21514" d="M1049.432,766.266H1035.12l.27,1.285H1049.7Z" transform="translate(294.646 3780.595)" fill="#9ec8ff" opacity="0.4"/>
    <path id="Path_21515" data-name="Path 21515" d="M1045.252,764.435H1034.74l.27,1.292h10.5Z" transform="translate(294.599 3780.367)" fill="#9ec8ff" opacity="0.4"/>
    <path id="Path_21516" data-name="Path 21516" d="M1055.251,764.435h-10.5l.27,1.292h10.512Z" transform="translate(295.843 3780.367)" fill="#9ec8ff" opacity="0.4"/>
    <path id="Path_21517" data-name="Path 21517" d="M1055.384,762.61H1034.36l.27,1.285h21.013Z" transform="translate(294.551 3780.141)" fill="#9ec8ff" opacity="0.4"/>
    <path id="Path_21518" data-name="Path 21518" d="M1197.019,800.6h-8.859l1.034,13.418h6.791Z" transform="translate(313.665 3784.863)" fill="#9ec8ff"/>
    <path id="Path_21519" data-name="Path 21519" d="M1197.019,800.6h-8.859l1.034,13.418h6.791Z" transform="translate(313.665 3784.863)" fill="#fff" opacity="0.4"/>
    <path id="Path_21520" data-name="Path 21520" d="M1024.71,792.312h12.749l-4.351,22.74H1020.37Z" transform="translate(292.813 3783.832)" fill="#263238"/>
    <path id="Path_21521" data-name="Path 21521" d="M1040.66,786.892h-18l5.037,28.833h18Z" transform="translate(293.097 3783.158)" fill="#9ec8ff"/>
    <path id="Path_21522" data-name="Path 21522" d="M1021.72,786.892h1.057l5.037,28.833h-1.057Z" transform="translate(292.98 3783.158)" fill="#9ec8ff"/>
    <path id="Path_21523" data-name="Path 21523" d="M1021.72,786.892h1.057l5.037,28.833h-1.057Z" transform="translate(292.98 3783.158)" opacity="0.3"/>
    <path id="Path_21524" data-name="Path 21524" d="M1029.889,812.3l-3.969-22.67h11.749l3.958,22.67Z" transform="translate(293.502 3783.499)" fill="#fff"/>
    <path id="Path_21525" data-name="Path 21525" d="M1039.826,812.3l-3.946-22.67h.551l3.958,22.67Z" transform="translate(294.74 3783.499)" fill="#9ec8ff" opacity="0.6"/>
    <path id="Path_21526" data-name="Path 21526" d="M1118.122,754.154c.248.553.169,1.14-.2,1.306s-.854-.146-1.113-.691-.169-1.14.191-1.306S1117.863,753.608,1118.122,754.154Z" transform="translate(304.779 3778.998)" fill="#263238"/>
    <path id="Path_21527" data-name="Path 21527" d="M1118.2,755.069a21.718,21.718,0,0,1-.45,5.962,3.567,3.567,0,0,0,2.867-.69Z" transform="translate(304.915 3779.203)" fill="#ff5652"/>
    <path id="Path_21528" data-name="Path 21528" d="M1118.369,750.111a.328.328,0,0,1-.214.076,2.813,2.813,0,0,0-1.282.349,2.913,2.913,0,0,0-.989.895.341.341,0,0,1-.214.163.353.353,0,0,1-.27-.038.4.4,0,0,1-.112-.091.444.444,0,0,1-.056-.124.29.29,0,0,1-.011-.138.489.489,0,0,1,.045-.13,3.561,3.561,0,0,1,1.225-1.147,3.6,3.6,0,0,1,1.63-.45.332.332,0,0,1,.135.019.359.359,0,0,1,.124.071.4.4,0,0,1,.079.112.29.29,0,0,1,.034.136.276.276,0,0,1-.022.164A.506.506,0,0,1,1118.369,750.111Z" transform="translate(304.6 3778.508)" fill="#263238"/>
    <path id="Path_21529" data-name="Path 21529" d="M1137.136,753.335c2.125,7.4,4.509,13.129,7.42,16.411,0,0,.056,5.81-9.837,8.575-10.883,3.04-6.712-3.953-6.712-3.953,5.52-3.082,5-7.725.843-9.493Z" transform="translate(306.092 3778.988)" fill="#ff8b7b"/>
    <path id="Path_21530" data-name="Path 21530" d="M1146.624,767.321c-.191-2.708-.45-5.79-2.113-5.867-1.833-.083-12.468,4.671-14.74,8.022s2.17,6.633,2.17,6.633Z" transform="translate(306.328 3779.997)" fill="#263238"/>
    <path id="Path_21531" data-name="Path 21531" d="M1126.355,803.918l-9.185-.3.169,7.7s8-.829,8.353-2.937Z" transform="translate(304.843 3785.238)" fill="#ff8b7b"/>
    <path id="Path_21532" data-name="Path 21532" d="M1112.957,807.393l-.967,3.938,5.992-.014-.169-7.7Z" transform="translate(304.199 3785.238)" fill="#ff8b7b"/>
    <path id="Path_21533" data-name="Path 21533" d="M1162.587,775.6l-.191,1.97c-.067.635-.146,1.264-.225,1.893q-.253,1.875-.573,3.745c-.416,2.494-.956,4.967-1.574,7.469q-.961,3.813-2.293,7.511c-.484,1.264-.978,2.529-1.574,3.814a30.459,30.459,0,0,1-2.069,3.9,8.215,8.215,0,0,1-.652.995c-.225.3-.438.69-.686,1.009a9.8,9.8,0,0,1-.809,1.015l-.45.512c-.146.166-.3.332-.517.54a15.73,15.73,0,0,1-4.778,3.212,28.273,28.273,0,0,1-8.578,2.177c-1.349.16-2.687.221-3.991.25s-2.608,0-3.89-.063-2.552-.187-3.823-.332-2.485-.352-3.823-.622l.214-7.22a112.089,112.089,0,0,0,13.053-3.116,26.425,26.425,0,0,0,2.8-1.078,12.517,12.517,0,0,0,2.226-1.2,3.159,3.159,0,0,0,1-.982l.2-.318a3.346,3.346,0,0,0,.259-.428,4.273,4.273,0,0,0,.27-.49c.09-.173.18-.338.27-.546a35.225,35.225,0,0,0,2-5.479c.562-2.031,1.1-4.146,1.529-6.336s.843-4.4,1.214-6.633l.528-3.358.472-3.275Z" transform="translate(305.454 3781.573)" fill="#9ec8ff"/>
    <path id="Path_21534" data-name="Path 21534" d="M1162.587,775.6l-.191,1.97c-.067.635-.146,1.264-.225,1.893q-.253,1.875-.573,3.745c-.416,2.494-.956,4.967-1.574,7.469q-.961,3.813-2.293,7.511c-.484,1.264-.978,2.529-1.574,3.814a30.459,30.459,0,0,1-2.069,3.9,8.215,8.215,0,0,1-.652.995c-.225.3-.438.69-.686,1.009a9.8,9.8,0,0,1-.809,1.015l-.45.512c-.146.166-.3.332-.517.54a15.73,15.73,0,0,1-4.778,3.212,28.273,28.273,0,0,1-8.578,2.177c-1.349.16-2.687.221-3.991.25s-2.608,0-3.89-.063-2.552-.187-3.823-.332-2.485-.352-3.823-.622l.214-7.22a112.089,112.089,0,0,0,13.053-3.116,26.425,26.425,0,0,0,2.8-1.078,12.517,12.517,0,0,0,2.226-1.2,3.159,3.159,0,0,0,1-.982l.2-.318a3.346,3.346,0,0,0,.259-.428,4.273,4.273,0,0,0,.27-.49c.09-.173.18-.338.27-.546a35.225,35.225,0,0,0,2-5.479c.562-2.031,1.1-4.146,1.529-6.336s.843-4.4,1.214-6.633l.528-3.358.472-3.275Z" transform="translate(305.454 3781.573)" opacity="0.2"/>
    <path id="Path_21535" data-name="Path 21535" d="M1121.89,785.772a225.742,225.742,0,0,1,5.756,45.016h40.418c.214-5-.618-33.166-4.688-53.522a14.076,14.076,0,0,0-16.842-11.055l-.191.042a149.666,149.666,0,0,0-16.572,4.63l-.169.062a12.68,12.68,0,0,0-7.713,14.828Z" transform="translate(305.384 3780.547)" fill="#9ec8ff"/>
    <path id="Path_21536" data-name="Path 21536" d="M1124.19,795.968q.489,2.912.945,6.156c3.305-3.455,4.351-14.047,4.351-14.047Z" transform="translate(305.715 3783.306)" opacity="0.2"/>
    <path id="Path_21537" data-name="Path 21537" d="M1095.378,804.423l-9.174-.858-.3,7.7a8.617,8.617,0,0,0,8.589-2.425Z" transform="translate(300.957 3785.23)" fill="#ff8b7b"/>
    <path id="Path_21538" data-name="Path 21538" d="M1082.616,805.838l-2.946,5.286,7.027.138.3-7.7Z" transform="translate(300.183 3785.23)" fill="#ff8b7b"/>
    <path id="Path_21539" data-name="Path 21539" d="M1140.746,781.21c-.63,1.215-1.192,2.28-1.833,3.392s-1.237,2.183-1.9,3.255q-1.939,3.223-4.059,6.363a108.37,108.37,0,0,1-9.467,12.189,52.181,52.181,0,0,1-6,5.707c-.27.235-.585.456-.877.691a8.178,8.178,0,0,1-1,.69c-.45.256-.821.512-1.225.726s-.809.42-1.214.607a22.047,22.047,0,0,1-4.756,1.445,29.881,29.881,0,0,1-8.634.193,38.764,38.764,0,0,1-4-.691c-.7-.152-1.315-.325-1.956-.525s-1.248-.407-1.979-.69l1.136-7.131c4.328-.587,9.017-1.347,12.255-2.805a8.381,8.381,0,0,0,2-1.161,4.85,4.85,0,0,0,.7-.573c.045-.062.259-.248.416-.4s.349-.3.517-.477a52.738,52.738,0,0,0,4.149-4.665,136.016,136.016,0,0,0,7.78-11.165c1.237-1.956,2.451-3.946,3.654-5.943l1.776-3.005,1.72-2.943Z" transform="translate(301.694 3781.593)" fill="#9ec8ff"/>
    <path id="Path_21540" data-name="Path 21540" d="M1126.735,910.669h-7.555l-3.8-17.516h7.555Z" transform="translate(304.62 3796.365)" fill="#ff8b7b"/>
    <path id="Path_21541" data-name="Path 21541" d="M1119.487,907.289h8.5a.681.681,0,0,1,.4.152.764.764,0,0,1,.236.367l1.484,6.722a1.1,1.1,0,0,1,.011.507,1.132,1.132,0,0,1-.214.458,1.157,1.157,0,0,1-.4.314,1.118,1.118,0,0,1-.495.1c-2.957-.048-4.407-.228-8.14-.228-2.294,0-5.239.242-8.41.242s-3.6-3.137-2.294-3.455c5.824-1.272,6.217-3.033,8.095-4.705A1.825,1.825,0,0,1,1119.487,907.289Z" transform="translate(303.887 3798.122)" fill="#263238"/>
    <g id="Group_578" data-name="Group 578" transform="translate(1420 4689.524)" opacity="0.2">
      <path id="Path_21542" data-name="Path 21542" d="M1122.946,893.159h-7.566l2.1,9.695,7.42-.67Z" transform="translate(-1115.38 -893.159)" opacity="0.2"/>
    </g>
    <path id="Path_21543" data-name="Path 21543" d="M1136.065,746.2c2.766,6.992,4.677,10.945,2.856,16.023-2.755,7.642-12.547,8.41-17.314,2.377-4.284-5.438-8.027-15.961-2.62-21.745a10.223,10.223,0,0,1,17.078,3.345Z" transform="translate(304.734 3777.277)" fill="#ff8b7b"/>
    <path id="Path_21544" data-name="Path 21544" d="M1122.947,757.174c-1.135,1.52-2,2.675-2,2.675s-2.327-5.783-1.439-8.437c-1.124-2.246-3.418,1.064-4.272-3.31s2.867-9.073,4.272-10.047a5.284,5.284,0,0,1,.2,1.568,19.3,19.3,0,0,1,13.525-4.285,4.757,4.757,0,0,0-.765,2.038s8.2,1.383,10.062,6.026a9.122,9.122,0,0,0-2.069-.733,10.024,10.024,0,0,1,1.653,7.415,76.141,76.141,0,0,0-.922,11.422c.079,1.962-5.307,5.714-8.578,1.7S1122.947,757.174,1122.947,757.174Z" transform="translate(304.586 3776.746)" fill="#263238"/>
    <path id="Path_21545" data-name="Path 21545" d="M1125.64,753.65a7.657,7.657,0,0,1-.348,4.906c-.877,2.032-2.676,1.568-3.564-.235-.809-1.624-1.327-4.643.1-6.088S1125.1,751.695,1125.64,753.65Z" transform="translate(305.311 3778.763)" fill="#ff8b7b"/>
    <path id="Path_21546" data-name="Path 21546" d="M1141.755,823.613s-35.089,12.735-36.123,29.608a117.785,117.785,0,0,0,10.782,55.623l11.625-1.244s-2.069-9.991-3.609-38.121c-1.945-35.336,57.979.83,45.635-45.853Z" transform="translate(303.385 3787.722)" fill="#9ec8ff"/>
    <path id="Path_21547" data-name="Path 21547" d="M1141.755,823.613s-35.089,12.735-36.123,29.608a117.785,117.785,0,0,0,10.782,55.623l11.625-1.244s-2.069-9.991-3.609-38.121c-1.945-35.336,57.979.83,45.635-45.853Z" transform="translate(303.385 3787.722)" fill="#fff" opacity="0.5"/>
    <path id="Path_21548" data-name="Path 21548" d="M1112.34,895.7c-.056,0,1.844,5.162,1.844,5.162l14.5-1.417-.731-4.7Z" transform="translate(304.242 3796.563)" fill="#9ec8ff"/>
    <path id="Path_21549" data-name="Path 21549" d="M1097.52,911.431h-7.555l-2.215-17.516h7.566Z" transform="translate(301.187 3796.459)" fill="#ff8b7b"/>
    <path id="Path_21550" data-name="Path 21550" d="M1091.362,907.289h8.286a.62.62,0,0,1,.4.144.643.643,0,0,1,.236.374l1.506,6.722a1.214,1.214,0,0,1,0,.494,1.121,1.121,0,0,1-.225.445,1.078,1.078,0,0,1-.866.409c-2.968-.048-7.285-.215-11.04-.215-4.385,0-5.217.25-10.355.256-3.114,0-3.969-3.137-2.676-3.42,5.914-1.3,7.8-1.445,12.907-4.6A3.453,3.453,0,0,1,1091.362,907.289Z" transform="translate(299.732 3798.122)" fill="#263238"/>
    <path id="Path_21551" data-name="Path 21551" d="M1087.76,893.921l1.2,9.543,7.488-.512-1.135-9.031Z" transform="translate(301.188 3796.46)" opacity="0.2"/>
    <path id="Path_21552" data-name="Path 21552" d="M1133.259,823.615s-57.507,5.107-56.889,34.016c.652,30.071,11.873,50.351,11.873,50.351h11.22s-2.125-15.6-1.743-45.2c.112-8.872,18.011-11.8,35.494-12.831,15.11-.9,29.242-9.515,35.111-23.493l1.2-2.86Z" transform="translate(299.771 3787.72)" fill="#9ec8ff"/>
    <path id="Path_21553" data-name="Path 21553" d="M1133.259,823.615s-57.507,5.107-56.889,34.016c.652,30.071,11.873,50.351,11.873,50.351h11.22s-2.125-15.6-1.743-45.2c.112-8.872,18.011-11.8,35.494-12.831,15.11-.9,29.242-9.515,35.111-23.493l1.2-2.86Z" transform="translate(299.771 3787.72)" fill="#fff" opacity="0.5"/>
    <path id="Path_21554" data-name="Path 21554" d="M1084.59,896.015c-.045,0,1.923,5.2,1.923,5.2l13.559-.968-.787-4.705Z" transform="translate(300.794 3796.661)" fill="#9ec8ff"/>
    <path id="Path_21555" data-name="Path 21555" d="M1141.517,795.194l-7.3,28.143a88.044,88.044,0,0,0-2.811,22.07v13.087a5.721,5.721,0,0,0,5.442,5.977h37.394a5.72,5.72,0,0,0,5.43-5.977V845.407a88.049,88.049,0,0,1,2.811-22.07l6.442-24.875c1-3.82-1.608-7.6-5.228-7.6h-36.966a5.523,5.523,0,0,0-5.217,4.332Z" transform="translate(306.612 3783.652)" fill="#263238"/>
    <path id="Path_21556" data-name="Path 21556" d="M1099.034,845.05l1.225,6.978c.641,3.676,3.868,6.648,7.207,6.648h41.576c3.328,0,5.52-2.971,4.868-6.648l-1.214-6.978c-.742-4.145-4.407-7.56-8.207-7.56H1104.6C1100.777,837.49,1098.3,840.876,1099.034,845.05Z" transform="translate(302.573 3789.447)" fill="#263238"/>
    <path id="Path_21557" data-name="Path 21557" d="M1149.7,863.347h-21.777l-2.125-7.014h26.027Z" transform="translate(305.915 3791.789)" fill="#9ec8ff"/>
    <path id="Path_21558" data-name="Path 21558" d="M1141.69,862.572h-7.78v52.1h7.78Z" transform="translate(306.923 3792.564)" fill="#9ec8ff"/>
    <path id="Path_21559" data-name="Path 21559" d="M1141.69,914.539h-7.78V863.684l7.78.795Z" transform="translate(306.923 3792.702)" fill="#fff" opacity="0.7"/>
    <path id="Path_21560" data-name="Path 21560" d="M1139.345,914.493h-1.855V864.047l1.855.193Z" transform="translate(307.368 3792.747)" fill="#fff" opacity="0.7"/>
  </g>
</svg>
