<svg xmlns="http://www.w3.org/2000/svg" width="108.299" height="91.022" viewBox="0 0 108.299 91.022">
  <g id="docker" transform="translate(-1 -11.1)">
    <path id="Path_22590" data-name="Path 22590" d="M17.345,84.846V77.884a1.513,1.513,0,0,1,1.547-1.633h.258A1.56,1.56,0,0,1,20.7,77.884V92.5a9.126,9.126,0,0,1-4.813,8.165,9.011,9.011,0,0,1-4.641,1.289h-.688a9.126,9.126,0,0,1-8.165-4.813A9.011,9.011,0,0,1,1.1,92.5v-.688a9.126,9.126,0,0,1,4.813-8.165,9.011,9.011,0,0,1,4.641-1.289h.688A9.463,9.463,0,0,1,17.345,84.846ZM4.366,92.152A6.374,6.374,0,0,0,7.89,97.911a5.949,5.949,0,0,0,2.922.774,6.339,6.339,0,0,0,5.673-3.352,6.386,6.386,0,0,0-1.977-8.509,6.325,6.325,0,0,0-9.541,2.664,6.008,6.008,0,0,0-.6,2.664ZM32.043,82.44h.43A9.21,9.21,0,0,1,40.981,87.6a8.231,8.231,0,0,1,1.117,4.3v.688a9.126,9.126,0,0,1-4.813,8.165,9.011,9.011,0,0,1-4.641,1.289h-.688a9.126,9.126,0,0,1-8.165-4.813A9.011,9.011,0,0,1,22.5,92.582v-.688a9.293,9.293,0,0,1,4.813-8.165A8.538,8.538,0,0,1,32.043,82.44Zm-6.189,9.713A6.615,6.615,0,0,0,32.472,98.6a6.373,6.373,0,0,0,5.587-3.352,6.2,6.2,0,0,0,.86-3.266,6.342,6.342,0,0,0-3.008-5.415A6.407,6.407,0,0,0,26.542,89.4a5.661,5.661,0,0,0-.688,2.75Zm29.911-6.188a5.329,5.329,0,0,0-1.977-.344c-2.75-.086-4.727,1.461-5.931,3.868a5.759,5.759,0,0,0-.6,2.664,6.357,6.357,0,0,0,3.954,6.017,7.57,7.57,0,0,0,3.094.516,7.3,7.3,0,0,0,2.922-.945l.172-.086h.688a1.417,1.417,0,0,1,1.289,1.461v.344c0,1.977-3.7,2.493-5.071,2.579a9.205,9.205,0,0,1-9.97-7.048A7.947,7.947,0,0,1,43.99,92.5v-.688A9.293,9.293,0,0,1,48.8,83.643a9.011,9.011,0,0,1,4.641-1.289h.688a8.793,8.793,0,0,1,4.813,1.461l.086.086.086.086a1.452,1.452,0,0,1,.258.86v.344c0,.86-.6,1.289-1.375,1.461h-.258a9.02,9.02,0,0,1-1.977-.688ZM66.423,88.2c1.289-1.289,2.579-2.579,3.868-3.782.344-.344,1.719-1.8,2.235-1.8h.688A1.417,1.417,0,0,1,74.5,84.073v.344a2.626,2.626,0,0,1-1.031,1.547L71.15,88.284,67.2,92.324c1.719,1.719,3.438,3.438,5.071,5.157l1.375,1.461c.172.172.43.344.516.6a1.386,1.386,0,0,1,.258.774v.43a1.557,1.557,0,0,1-1.461,1.375H72.7c-.516,0-1.117-.6-1.547-.945a27.409,27.409,0,0,1-2.235-2.235L66.423,96.45V100.4a1.513,1.513,0,0,1-1.547,1.633h-.258a1.56,1.56,0,0,1-1.547-1.633V77.97a1.513,1.513,0,0,1,1.547-1.633h.258a1.513,1.513,0,0,1,1.547,1.633V88.2Zm40.913-5.673h.344a1.58,1.58,0,0,1,1.633,1.633c0,1.375-1.289,1.719-2.407,1.719a5.574,5.574,0,0,0-3.868,1.891,6.214,6.214,0,0,0-1.8,4.641v7.908a1.513,1.513,0,0,1-1.547,1.633h-.258a1.56,1.56,0,0,1-1.547-1.633V91.894a9.188,9.188,0,0,1,4.212-7.736,9.451,9.451,0,0,1,5.243-1.633ZM84.043,98.255a8.061,8.061,0,0,0,3.782.172,8.955,8.955,0,0,1,2.836-.86h.172a1.881,1.881,0,0,1,.86.774,1.588,1.588,0,0,1-.6,2.235l-.258.172a9.274,9.274,0,0,1-9.541-.172,8.814,8.814,0,0,1-3.438-3.438l-.172-.344a9.365,9.365,0,0,1,.516-10.4,8.987,8.987,0,0,1,3.008-2.664l.43-.258a9.3,9.3,0,0,1,9.111-.086,9.012,9.012,0,0,1,3.868,3.524l.172.258c.688,1.117-.172,2.149-1.031,2.836-1.031.774-2.063,1.719-3.008,2.579Q87.266,95.418,84.043,98.255Zm-2.836-1.977L88.513,90c.86-.688,1.719-1.461,2.579-2.235a6.687,6.687,0,0,0-2.664-1.8,6.214,6.214,0,0,0-5.5.516,6.314,6.314,0,0,0-3.18,6.017,6.055,6.055,0,0,0,.86,2.922,3.087,3.087,0,0,0,.6.86M63.5,30.525h9.713v9.884h4.9a22.369,22.369,0,0,0,6.7-1.117,18.166,18.166,0,0,0,3.266-1.461,11.813,11.813,0,0,1-2.235-6.274c-.258-3.008.344-6.962,2.407-9.283l1.031-1.2,1.2.945c3.094,2.493,5.587,5.845,6.1,9.8a14.609,14.609,0,0,1,11.26,1.031l1.289.774-.688,1.375c-2.75,5.329-8.509,7.048-14.1,6.7-8.423,20.886-26.645,30.771-48.82,30.771-11.432,0-21.918-4.3-27.934-14.44l-.086-.172-.86-1.8a27.964,27.964,0,0,1-2.235-14.268l.172-1.461h8.251v-9.8h9.713V20.813H51.9V11.1H63.5V30.525Z" transform="translate(-0.014 0)" fill="#3a4d54" fill-rule="evenodd"/>
    <path id="Path_22591" data-name="Path 22591" d="M97.281,36.116c.688-5.071-3.094-9.025-5.5-10.916-2.665,3.094-3.094,11.346,1.117,14.784-2.407,2.063-7.306,4.04-12.463,4.04H18.377a25.941,25.941,0,0,0,2.579,14.44l.688,1.289c.43.774.945,1.461,1.461,2.235a66.9,66.9,0,0,0,7.048.172A36.6,36.6,0,0,0,40.467,60.7a.734.734,0,1,1,.516,1.375c-.344.086-.688.258-1.117.344a31.869,31.869,0,0,1-7.134,1.117h-.516c-1.117.086-2.321.086-3.61.086-1.375,0-2.664,0-4.212-.086,5.157,5.845,13.237,9.283,23.379,9.283,21.488,0,39.71-9.541,47.7-30.857,5.759.6,11.26-.86,13.752-5.759-3.868-2.235-9.025-1.547-11.947-.086Z" transform="translate(-2.422 -1.981)" fill="#00aada"/>
    <path id="Path_22592" data-name="Path 22592" d="M97.891,36.116c.688-5.071-3.094-9.025-5.5-10.916-2.664,3.094-3.094,11.346,1.117,14.784-2.407,2.063-7.306,4.04-12.463,4.04H22.6c-.258,8.165,2.75,14.354,8.165,18.05a36.6,36.6,0,0,0,10.314-1.461.734.734,0,1,1,.516,1.375c-.344.086-.688.258-1.117.344a33.181,33.181,0,0,1-7.306,1.2l-.086-.086c7.306,3.782,17.878,3.7,30.083-.945,13.58-5.243,26.3-15.213,35.154-26.559-.172.086-.258.172-.43.172Z" transform="translate(-3.032 -1.981)" fill="#28b8eb"/>
    <path id="Path_22593" data-name="Path 22593" d="M18.5,54.6a23.443,23.443,0,0,0,2.493,7.993l.688,1.289c.43.774.945,1.461,1.461,2.235a66.9,66.9,0,0,0,7.048.172A36.6,36.6,0,0,0,40.5,64.828a.734.734,0,0,1,.516,1.375c-.344.086-.688.258-1.117.344a33.182,33.182,0,0,1-7.306,1.2h-.344c-1.117.086-2.321.086-3.524.086-1.375,0-2.75,0-4.212-.086,5.157,5.845,13.322,9.283,23.465,9.283,18.394,0,34.381-6.962,43.663-22.347H18.5V54.6Z" transform="translate(-2.458 -6.111)" fill="#028bb8"/>
    <path id="Path_22594" data-name="Path 22594" d="M23.3,54.6a18.566,18.566,0,0,0,7.564,11.6,36.6,36.6,0,0,0,10.314-1.461.734.734,0,1,1,.516,1.375c-.344.086-.688.258-1.117.344a33.155,33.155,0,0,1-7.392,1.2c7.306,3.782,17.878,3.7,30-.945A80.7,80.7,0,0,0,83.982,54.6H23.3Z" transform="translate(-3.133 -6.111)" fill="#019bc6"/>
    <path id="Path_22595" data-name="Path 22595" d="M28.2,33.927h8.423V42.35H28.2Zm.688.774h.688v6.962h-.688Zm1.289,0h.688v6.962h-.688Zm1.289,0h.688v6.962h-.688Zm1.2,0h.688v6.962h-.688Zm1.289,0h.688v6.962h-.688Zm1.289,0h.688v6.962h-.688Zm2.664-10.4h8.423v8.337H37.913Zm.688.688h.688V31.95H38.6V24.988Zm1.289,0h.688V31.95h-.688V24.988Zm1.2,0h.688V31.95h-.688V24.988Zm1.289,0h.688V31.95h-.688V24.988Zm1.289,0h.688V31.95h-.688V24.988Zm1.289,0h.688V31.95h-.688V24.988Z" transform="translate(-3.821 -1.854)" fill="#00acd3" fill-rule="evenodd"/>
    <path id="Path_22596" data-name="Path 22596" d="M39.5,35.5h8.423v8.423H39.5Zm.688.774h.688v6.962h-.688Zm1.289,0h.688v6.962h-.688Zm1.2,0h.688v6.962H42.68Zm1.289,0h.688v6.962h-.688Zm1.289,0h.688v6.962h-.688Zm1.289,0h.688v6.962h-.688Z" transform="translate(-5.409 -3.428)" fill="#23c2ee" fill-rule="evenodd"/>
    <path id="Path_22597" data-name="Path 22597" d="M50.8,35.5h8.423v8.423H50.8Zm.688.774h.688v6.962h-.688Zm1.2,0h.688v6.962h-.688Zm1.289,0h.688v6.962H53.98Zm1.289,0h.688v6.962h-.688Zm1.289,0h.688v6.962h-.688Zm1.2,0h.688v6.962h-.688Z" transform="translate(-6.996 -3.428)" fill="#00acd3" fill-rule="evenodd"/>
    <path id="Path_22598" data-name="Path 22598" d="M50.8,24.3h8.423v8.337H50.8Zm.688.688h.688V31.95h-.688V24.988Zm1.2,0h.688V31.95h-.688V24.988Zm1.289,0h.688V31.95H53.98V24.988Zm1.289,0h.688V31.95h-.688V24.988Zm1.289,0h.688V31.95h-.688V24.988Zm1.2,0h.688V31.95h-.688V24.988Zm2.664,8.939H68.85V42.35H60.427V33.927Zm.774.774h.688v6.962H61.2Zm1.2,0h.688v6.962H62.4Zm1.289,0h.688v6.962h-.688Zm1.289,0h.688v6.962h-.688Zm1.2,0h.688v6.962h-.688Zm1.289,0h.688v6.962h-.688Z" transform="translate(-6.996 -1.854)" fill="#23c2ee" fill-rule="evenodd"/>
    <path id="Path_22599" data-name="Path 22599" d="M62,24.3h8.423v8.337H62Zm.774.688h.688V31.95h-.688V24.988Zm1.2,0h.688V31.95h-.688V24.988Zm1.289,0h.688V31.95h-.688V24.988Zm1.289,0h.688V31.95h-.688V24.988Zm1.2,0h.688V31.95h-.688V24.988Zm1.289,0h.688V31.95h-.688V24.988Z" transform="translate(-8.57 -1.854)" fill="#00acd3" fill-rule="evenodd"/>
    <path id="Path_22600" data-name="Path 22600" d="M62,13h8.423v8.423H62V13Zm.774.688h.688v7.048h-.688Zm1.2,0h.688v7.048h-.688Zm1.289,0h.688v7.048h-.688Zm1.289,0h.688v7.048h-.688Zm1.2,0h.688v7.048h-.688Zm1.289,0h.688v7.048h-.688Z" transform="translate(-8.57 -0.267)" fill="#23c2ee" fill-rule="evenodd"/>
    <path id="Path_22601" data-name="Path 22601" d="M73.3,35.5h8.423v8.423H73.3Zm.688.774h.688v6.962h-.688Zm1.289,0h.688v6.962h-.688Zm1.289,0h.688v6.962h-.688Zm1.2,0h.688v6.962h-.688Zm1.289,0h.688v6.962h-.688Zm1.289,0h.688v6.962h-.688Z" transform="translate(-10.157 -3.428)" fill="#00acd3" fill-rule="evenodd"/>
    <path id="Path_22602" data-name="Path 22602" d="M48.221,61.2A2.321,2.321,0,1,1,45.9,63.521,2.428,2.428,0,0,1,48.221,61.2" transform="translate(-6.308 -7.038)" fill="#d4eef1" fill-rule="evenodd"/>
    <path id="Path_22603" data-name="Path 22603" d="M41.913,60.284a1.463,1.463,0,0,1,.6.086.724.724,0,0,0-.344.6.739.739,0,0,0,.688.688.724.724,0,0,0,.6-.344,1.463,1.463,0,0,1,.086.6,1.633,1.633,0,1,1-3.266,0,1.691,1.691,0,0,1,1.633-1.633M1,54.869H108.7c-2.321-.6-7.392-1.375-6.618-4.469-4.3,4.9-14.526,3.438-17.19,1.031C81.966,55.643,65.12,54.01,64,50.744c-3.61,4.3-14.87,4.3-18.48,0-1.2,3.266-18.05,4.9-20.886.688C22.058,53.838,11.744,55.3,7.446,50.4,8.392,53.408,3.321,54.268,1,54.869" transform="translate(0 -5.521)" fill="#3a4d54" fill-rule="evenodd"/>
    <path id="Path_22604" data-name="Path 22604" d="M51.5,78.886c-5.759-2.75-8.853-6.446-10.658-10.486a36.63,36.63,0,0,1-7.65,1.2c-1.117.086-2.321.086-3.524.086-1.461,0-2.922,0-4.469-.086,5.243,5.243,11.775,9.283,23.723,9.369.86-.086,1.719-.086,2.579-.086Z" transform="translate(-3.4 -8.05)" fill="#bfdbe0"/>
    <path id="Path_22605" data-name="Path 22605" d="M44.3,72.1a25.965,25.965,0,0,1-2.149-3.7,36.63,36.63,0,0,1-7.65,1.2A23.347,23.347,0,0,0,44.3,72.1Z" transform="translate(-4.706 -8.05)" fill="#d4eef1"/>
  </g>
</svg>
