<svg xmlns="http://www.w3.org/2000/svg" width="251.332" height="108.182" viewBox="0 0 251.332 108.182">
  <g id="logo" transform="translate(-42.987 -92.099)">
    <rect id="Rectangle_3" data-name="Rectangle 3" width="250.571" height="107.413" rx="3.5" transform="translate(43.364 92.468)" fill="#3599f7"/>
    <path id="Path_525" data-name="Path 525" d="M447.839,294.572H202.533a3.013,3.013,0,0,1-3.013-3.013V189.4a3.013,3.013,0,0,1,3.013-3.013H447.839a3.013,3.013,0,0,1,3.013,3.013V291.559A3.013,3.013,0,0,1,447.839,294.572ZM202.533,187.143a2.26,2.26,0,0,0-2.26,2.26V291.559a2.26,2.26,0,0,0,2.26,2.26H447.839a2.26,2.26,0,0,0,2.26-2.26V189.4a2.26,2.26,0,0,0-2.26-2.26Z" transform="translate(-156.533 -94.291)" fill="#fff"/>
    <path id="Path_526" data-name="Path 526" d="M248.829,246.208c0,4.211-1.19,7.533-3.571,9.853s-5.65,3.533-9.793,3.533h-17.7v-47.1h15.752q5.785,0,8.648,2.893t2.863,8.482q0,7.2-4.038,10.23Q248.829,237.123,248.829,246.208Zm-22.818-15.066h6.026a4.738,4.738,0,0,0,3.706-1.341,7.955,7.955,0,0,0,0-8.445,4.783,4.783,0,0,0-3.706-1.318h-6.026Zm12.655,19.4q1.65-1.507,1.65-5.153,0-3.766-1.718-5.311a6.7,6.7,0,0,0-4.67-1.552h-7.947v13.559h7.947A6.78,6.78,0,0,0,238.667,250.539Z" transform="translate(-161.035 -100.73)" fill="#fff" stroke="#fff" stroke-miterlimit="10" stroke-width="0.25"/>
    <path id="Path_527" data-name="Path 527" d="M271.354,258.407c-1.891-1.213-3.1-3.352-3.638-6.433a101.2,101.2,0,0,1-.806-15.443,102.129,102.129,0,0,1,.806-15.443q.8-4.61,3.638-6.426t9.416-1.823q6.588,0,9.424,1.823t3.631,6.426a101.855,101.855,0,0,1,.814,15.443,100.786,100.786,0,0,1-.814,15.443c-.542,3.066-1.748,5.22-3.631,6.433s-5.025,1.815-9.424,1.815S273.238,259.62,271.354,258.407Zm15.405-3.638q1.687-1,2.222-4.776a110.756,110.756,0,0,0,.542-13.462,110.942,110.942,0,0,0-.542-13.461c-.362-2.509-1.1-4.105-2.222-4.776s-3.119-1.009-5.989-1.009-4.866.339-5.989,1.009-1.861,2.26-2.222,4.776a113.022,113.022,0,0,0-.535,13.461,112.868,112.868,0,0,0,.535,13.461q.542,3.767,2.222,4.776c1.122.678,3.119,1.009,5.989,1.009S285.637,255.447,286.76,254.769Z" transform="translate(-173.158 -100.816)" fill="#fff" stroke="#fff" stroke-miterlimit="10" stroke-width="2"/>
    <path id="Path_528" data-name="Path 528" d="M321.278,218.946H309.7V212.49h30.132v6.456H328.276v40.678h-7Z" transform="translate(-183.714 -100.73)" fill="#fff" stroke="#fff" stroke-miterlimit="10" stroke-width="0.5"/>
    <path id="Path_529" data-name="Path 529" d="M365.445,259.569V214.778H354.07V212.45h25.213v2.328H367.908v44.791Z" transform="translate(-194.66 -100.72)" fill="#fff" stroke="#fff" stroke-miterlimit="10" stroke-width="1"/>
    <path id="Path_530" data-name="Path 530" d="M396,259.569V212.45h21.379v2.328H398.546v19.8h16.512v2.328H398.531v20.339h18.833v2.32Z" transform="translate(-205.004 -100.72)" fill="#fff" stroke="#fff" stroke-miterlimit="10" stroke-width="1"/>
    <path id="Path_531" data-name="Path 531" d="M438.453,256.227a12.218,12.218,0,0,1-3.533-9.145V223.165a12.108,12.108,0,0,1,3.533-9.107,14.289,14.289,0,0,1,18.569,0,11.966,11.966,0,0,1,3.525,9.04v.753a.6.6,0,0,1-.685.685h-.686c-.452,0-.685-.2-.685-.618v-.889a10.132,10.132,0,0,0-2.945-7.6,12.042,12.042,0,0,0-15.624,0,10.155,10.155,0,0,0-2.945,7.6v24.189a10.381,10.381,0,0,0,2.945,7.706,11.925,11.925,0,0,0,15.623,0,10.351,10.351,0,0,0,2.945-7.706v-.753a.61.61,0,0,1,.685-.686l.686.068a.6.6,0,0,1,.685.686v.618a12.161,12.161,0,0,1-3.525,9.077,14.194,14.194,0,0,1-18.569,0Z" transform="translate(-214.605 -100.271)" fill="#fff" stroke="#fff" stroke-miterlimit="10" stroke-width="1"/>
    <path id="Path_532" data-name="Path 532" d="M505.635,259.569V236.895H485.191v22.674H482.72V212.45h2.471v22.132h20.482V212.45h2.471v47.119Z" transform="translate(-226.397 -100.72)" fill="#fff" stroke="#fff" stroke-miterlimit="10" stroke-width="1"/>
    <path id="Path_533" data-name="Path 533" d="M217.69,306.012V299.33h1.74v6.682Z" transform="translate(-161.015 -122.153)" fill="#fff"/>
    <path id="Path_534" data-name="Path 534" d="M226.63,299.329h3.141a7.46,7.46,0,0,1,1.627.128,3.1,3.1,0,0,1,1.288.61,2.907,2.907,0,0,1,.814,1.085,4.076,4.076,0,0,1,.279,1.582,3.555,3.555,0,0,1-.264,1.424,2.953,2.953,0,0,1-.911,1.175,3.239,3.239,0,0,1-1.175.527,6.347,6.347,0,0,1-1.507.143h-3.239Zm1.717,1.13v4.422h1.288a5.74,5.74,0,0,0,1.04-.06,1.763,1.763,0,0,0,.693-.279,1.311,1.311,0,0,0,.452-.648,3.353,3.353,0,0,0,.173-1.22,3.1,3.1,0,0,0-.173-1.19,1.507,1.507,0,0,0-.49-.648,1.839,1.839,0,0,0-.791-.316,11.041,11.041,0,0,0-1.416-.06Z" transform="translate(-163.221 -122.152)" fill="#fff"/>
    <path id="Path_535" data-name="Path 535" d="M242.53,306.012V299.33h6.328v1.13h-4.6v1.507h4.279v1.13h-4.279v1.815h4.761v1.13Z" transform="translate(-167.143 -122.153)" fill="#fff"/>
    <path id="Path_536" data-name="Path 536" d="M264.965,306.012h-1.876l-.753-1.507h-3.4l-.708,1.507H256.4l3.322-6.682h1.823Zm-3.171-2.644-1.175-2.478-1.153,2.478Z" transform="translate(-170.565 -122.153)" fill="#fff"/>
    <path id="Path_537" data-name="Path 537" d="M281.73,299.329h3.149a7.537,7.537,0,0,1,1.627.128,3.013,3.013,0,0,1,1.281.61,2.757,2.757,0,0,1,.814,1.085,3.931,3.931,0,0,1,.286,1.582,3.554,3.554,0,0,1-.264,1.424,3.012,3.012,0,0,1-.911,1.175,3.29,3.29,0,0,1-1.213.535,6.382,6.382,0,0,1-1.507.143h-3.247Zm1.725,1.13v4.422h1.288a5.735,5.735,0,0,0,1.04-.06,1.762,1.762,0,0,0,.693-.279,1.311,1.311,0,0,0,.452-.648,3.351,3.351,0,0,0,.173-1.22,3.1,3.1,0,0,0-.173-1.19,1.507,1.507,0,0,0-.49-.648,1.868,1.868,0,0,0-.8-.316,10.9,10.9,0,0,0-1.409-.06Z" transform="translate(-176.814 -122.152)" fill="#fff"/>
    <path id="Path_538" data-name="Path 538" d="M297.64,306.012V299.33h6.3v1.13h-4.6v1.507h4.279v1.13h-4.279v1.815H304.1v1.13Z" transform="translate(-180.739 -122.153)" fill="#fff"/>
    <path id="Path_539" data-name="Path 539" d="M314.563,306.012l-3.013-6.682H313.4l2.154,4.942,2.094-4.942h1.823l-3.058,6.682Z" transform="translate(-184.17 -122.153)" fill="#fff"/>
    <path id="Path_540" data-name="Path 540" d="M327.69,306.012V299.33h6.328v1.13H329.43v1.507h4.279v1.13H329.43v1.815h4.761v1.13Z" transform="translate(-188.152 -122.153)" fill="#fff"/>
    <path id="Path_541" data-name="Path 541" d="M342.78,306.029V299.4h1.725v5.5h4.279v1.13Z" transform="translate(-191.875 -122.171)" fill="#fff"/>
    <path id="Path_542" data-name="Path 542" d="M356.388,302.673a3.51,3.51,0,0,1,.392-1.717,3.225,3.225,0,0,1,.753-.911,3.457,3.457,0,0,1,1.107-.6,5.7,5.7,0,0,1,1.838-.264,4.64,4.64,0,0,1,3.013.911,3.42,3.42,0,0,1,0,5.085,4.6,4.6,0,0,1-3.013.911,4.67,4.67,0,0,1-3.013-.911A3.013,3.013,0,0,1,356.388,302.673Zm1.778-.045a2.146,2.146,0,0,0,.67,1.717,2.47,2.47,0,0,0,1.695.588,2.5,2.5,0,0,0,1.695-.58,2.26,2.26,0,0,0,.655-1.748,2.155,2.155,0,0,0-.64-1.71,2.87,2.87,0,0,0-3.427,0A2.185,2.185,0,0,0,358.166,302.628Z" transform="translate(-195.23 -122.114)" fill="#fff"/>
    <path id="Path_543" data-name="Path 543" d="M373.64,306.01v-6.682H376.4a12.731,12.731,0,0,1,2.049.1,2.3,2.3,0,0,1,1.228.655,1.763,1.763,0,0,1,.5,1.3,1.809,1.809,0,0,1-.286,1.032,2.011,2.011,0,0,1-.753.655,2.56,2.56,0,0,1-.9.316,11.78,11.78,0,0,1-1.785.1h-1.122v2.524Zm1.718-5.552v1.891h.942a5.876,5.876,0,0,0,1.363-.1,1.228,1.228,0,0,0,.542-.331.806.806,0,0,0-.083-1.122,1.289,1.289,0,0,0-.693-.294,10.553,10.553,0,0,0-1.235-.045Z" transform="translate(-199.488 -122.151)" fill="#fff"/>
    <path id="Path_544" data-name="Path 544" d="M396.67,303.795l1.672-.128a1.507,1.507,0,0,0,.618.972,2.169,2.169,0,0,0,1.243.309,2.349,2.349,0,0,0,1.258-.271.791.791,0,0,0,.422-.648.535.535,0,0,0-.181-.407,1.574,1.574,0,0,0-.618-.286q-.3-.075-1.379-.294a5.334,5.334,0,0,1-1.944-.655,1.612,1.612,0,0,1-.753-1.348,1.507,1.507,0,0,1,.369-.957,2.32,2.32,0,0,1,1.062-.678,5.492,5.492,0,0,1,1.68-.226,4.316,4.316,0,0,1,2.418.55,1.808,1.808,0,0,1,.851,1.469l-1.725.06a1.055,1.055,0,0,0-.475-.753,2.079,2.079,0,0,0-1.085-.226,2.321,2.321,0,0,0-1.175.241.46.46,0,0,0-.279.414.5.5,0,0,0,.256.407,5.274,5.274,0,0,0,1.582.444,10.106,10.106,0,0,1,1.861.482,2.26,2.26,0,0,1,.942.678,1.725,1.725,0,0,1-.068,2.139,2.335,2.335,0,0,1-1.153.753,5.9,5.9,0,0,1-1.853.249,4.422,4.422,0,0,1-2.486-.588A2.41,2.41,0,0,1,396.67,303.795Z" transform="translate(-205.169 -122.113)" fill="#fff"/>
    <path id="Path_545" data-name="Path 545" d="M412.259,299.33h1.718v3.616a5.543,5.543,0,0,0,.068,1.115,1.085,1.085,0,0,0,.527.663,2.214,2.214,0,0,0,1.137.249,2.132,2.132,0,0,0,1.1-.233.949.949,0,0,0,.452-.58,5.712,5.712,0,0,0,.075-1.137V299.33h1.725v3.518a7.179,7.179,0,0,1-.143,1.695,1.778,1.778,0,0,1-.512.844,2.786,2.786,0,0,1-1.009.542,5.407,5.407,0,0,1-1.635.2,6.072,6.072,0,0,1-1.853-.219,2.726,2.726,0,0,1-1-.58,1.74,1.74,0,0,1-.482-.753,6.426,6.426,0,0,1-.166-1.695Z" transform="translate(-209.014 -122.153)" fill="#fff"/>
    <path id="Path_546" data-name="Path 546" d="M433.534,303.517l1.665.414a2.922,2.922,0,0,1-1.273,1.62,4.391,4.391,0,0,1-2.26.535,4.219,4.219,0,0,1-2.795-.911,3.013,3.013,0,0,1-1.092-2.486,3.2,3.2,0,0,1,1.1-2.591,4.324,4.324,0,0,1,2.893-.919,4.158,4.158,0,0,1,2.539.753,2.546,2.546,0,0,1,.874,1.228l-1.7.324a1.371,1.371,0,0,0-.633-.821,2.124,2.124,0,0,0-1.168-.3,2.17,2.17,0,0,0-1.507.535,2.26,2.26,0,0,0-.588,1.725,2.343,2.343,0,0,0,.58,1.8,2.116,2.116,0,0,0,1.507.542,1.966,1.966,0,0,0,1.175-.346,1.868,1.868,0,0,0,.686-1.1Z" transform="translate(-212.842 -122.115)" fill="#fff"/>
    <path id="Path_547" data-name="Path 547" d="M444.07,306.012V299.33H450.4v1.13h-4.6v1.507h4.249v1.13h-4.279v1.815h4.761v1.13Z" transform="translate(-216.863 -122.153)" fill="#fff"/>
    <path id="Path_548" data-name="Path 548" d="M458.52,303.795l1.672-.128a1.506,1.506,0,0,0,.618.972,2.17,2.17,0,0,0,1.243.309,2.365,2.365,0,0,0,1.258-.271.791.791,0,0,0,.422-.648.535.535,0,0,0-.181-.407,1.626,1.626,0,0,0-.618-.286q-.3-.075-1.379-.294a5.333,5.333,0,0,1-1.944-.655,1.612,1.612,0,0,1-.753-1.348,1.507,1.507,0,0,1,.369-.957,2.32,2.32,0,0,1,1.062-.678,5.493,5.493,0,0,1,1.68-.226,4.316,4.316,0,0,1,2.418.55,1.808,1.808,0,0,1,.851,1.469l-1.725.06a1.054,1.054,0,0,0-.475-.753,2.079,2.079,0,0,0-1.085-.226,2.321,2.321,0,0,0-1.175.241.46.46,0,0,0-.279.414.5.5,0,0,0,.256.407,5.273,5.273,0,0,0,1.582.444,10.1,10.1,0,0,1,1.861.482,2.259,2.259,0,0,1,.942.678,1.725,1.725,0,0,1-.068,2.139,2.335,2.335,0,0,1-1.153.753,5.9,5.9,0,0,1-1.853.249,4.422,4.422,0,0,1-2.486-.588A2.411,2.411,0,0,1,458.52,303.795Z" transform="translate(-220.427 -122.113)" fill="#fff"/>
    <path id="Path_549" data-name="Path 549" d="M473.54,303.794l1.68-.128a1.507,1.507,0,0,0,.61.972,2.177,2.177,0,0,0,1.25.309,2.32,2.32,0,0,0,1.25-.271.754.754,0,0,0,.422-.648.527.527,0,0,0-.173-.407,1.625,1.625,0,0,0-.618-.286q-.309-.075-1.379-.294a5.334,5.334,0,0,1-1.943-.655,1.62,1.62,0,0,1-.791-1.348,1.507,1.507,0,0,1,.369-.957,2.343,2.343,0,0,1,1.07-.678,5.41,5.41,0,0,1,1.672-.226,4.287,4.287,0,0,1,2.418.55,1.816,1.816,0,0,1,.859,1.469l-1.725.06a1.107,1.107,0,0,0-.475-.753,2.1,2.1,0,0,0-1.092-.226,2.358,2.358,0,0,0-1.175.241.467.467,0,0,0-.271.414.482.482,0,0,0,.256.407,5.274,5.274,0,0,0,1.582.445,10.454,10.454,0,0,1,1.861.482,2.26,2.26,0,0,1,.942.678,1.725,1.725,0,0,1-.068,2.139,2.334,2.334,0,0,1-1.153.753,5.928,5.928,0,0,1-1.853.249,4.422,4.422,0,0,1-2.486-.588A2.4,2.4,0,0,1,473.54,303.794Z" transform="translate(-224.133 -122.113)" fill="#fff"/>
    <path id="Path_550" data-name="Path 550" d="M489.15,306.012V299.33h6.32v1.13h-4.6v1.507h4.279v1.13h-4.279v1.815h4.761v1.13Z" transform="translate(-227.984 -122.153)" fill="#fff"/>
    <path id="Path_551" data-name="Path 551" d="M504.17,299.329h3.149a7.377,7.377,0,0,1,1.62.128,3.052,3.052,0,0,1,1.288.61,2.908,2.908,0,0,1,.814,1.085,3.941,3.941,0,0,1,.279,1.582,3.557,3.557,0,0,1-.264,1.424,2.953,2.953,0,0,1-.912,1.175,3.241,3.241,0,0,1-1.213.535,6.344,6.344,0,0,1-1.507.143h-3.239Zm1.718,1.13v4.422h1.288a5.732,5.732,0,0,0,1.04-.06,1.846,1.846,0,0,0,.7-.279,1.356,1.356,0,0,0,.445-.648,3.337,3.337,0,0,0,.181-1.22,3.08,3.08,0,0,0-.181-1.19,1.507,1.507,0,0,0-.482-.648,1.868,1.868,0,0,0-.8-.316,11.047,11.047,0,0,0-1.416-.06Z" transform="translate(-231.689 -122.152)" fill="#fff"/>
    <path id="Path_552" data-name="Path 552" d="M324.436,309.1h0Z" transform="translate(-44.655 -118.402)" fill="#fff"/>
    <rect id="Rectangle_4" data-name="Rectangle 4" width="223.166" height="0.188" transform="translate(56.615 190.601)" fill="#fff"/>
    <path id="Path_553" data-name="Path 553" d="M324.436,279.21h0Z" transform="translate(-44.655 -111.028)" fill="#fff"/>
    <rect id="Rectangle_5" data-name="Rectangle 5" width="223.166" height="0.188" transform="translate(56.615 168.092)" fill="#fff"/>
  </g>
</svg>
