<svg xmlns="http://www.w3.org/2000/svg" width="178.305" height="68.889" viewBox="0 0 178.305 68.889">
  <g id="mongodb-ar21" transform="translate(-7.09 -5.044)">
    <g id="Group_1026" data-name="Group 1026">
      <path id="Path_22583" data-name="Path 22583" d="M16.17,5.154l1.837,3.454A10.363,10.363,0,0,0,19.4,10.334a47.9,47.9,0,0,1,4.314,4.878,42.4,42.4,0,0,1,6.716,13.547,33.34,33.34,0,0,1,1.425,9.193,32.378,32.378,0,0,1-9.493,23.94,27.465,27.465,0,0,1-3.377,2.89c-.64,0-.939-.505-1.2-.939a7.5,7.5,0,0,1-.939-2.7,12.953,12.953,0,0,1-.3-3.415V57.2c-.037-.113-.6-51.783-.376-52.045Z" transform="translate(6.18 0.076)" fill="#599636"/>
      <path id="Path_22584" data-name="Path 22584" d="M22.351,5.118c-.076-.152-.152-.037-.226.037a3.44,3.44,0,0,1-.64,2.064,9.752,9.752,0,0,1-1.651,1.651,35.925,35.925,0,0,0-8.068,10.282A41.682,41.682,0,0,0,7.115,35.963,55.8,55.8,0,0,0,8.467,47.821,35.761,35.761,0,0,0,17.9,62.642a41.021,41.021,0,0,0,3.34,2.851c.337,0,.376-.3.45-.526a10.3,10.3,0,0,0,.337-1.464c.337-1.875.526-3.752.75-5.628L22.366,5.118Z" fill="#6cac48"/>
      <path id="Path_22585" data-name="Path 22585" d="M18.445,46.1a5.336,5.336,0,0,1,.939-2.288,2.382,2.382,0,0,1-1.051-.977,7.983,7.983,0,0,1-.563-1.238,21.242,21.242,0,0,1-.789-4.841v-.977a4.728,4.728,0,0,0-.226,1.614,37.531,37.531,0,0,1-.674,5.065,4.537,4.537,0,0,1-.6,1.951.736.736,0,0,0,.037.263,22.5,22.5,0,0,1,.977,6.079v.75c0,.9-.037.713.713,1.011a3.3,3.3,0,0,1,.939.376c.226,0,.263-.185.263-.337L18.3,51.308V47.854a9.057,9.057,0,0,1,.152-1.764Z" transform="translate(5.748 21.049)" fill="#c2bfbf"/>
      <g id="Group_653" data-name="Group 653" transform="translate(47.535 36.821)">
        <path id="Path_22586" data-name="Path 22586" d="M40.621,37.528V41.1a2.5,2.5,0,0,0,.024.423.9.9,0,0,0,.688.8,8.551,8.551,0,0,0,1.084.212c.212.024.282.117.306.344.024.8-.046.895-.822.847a46.51,46.51,0,0,0-5.432,0H36.3c-.564.024-.611-.024-.611-.588,0-.095.024-.212.024-.306a.249.249,0,0,1,.282-.258c.379-.046.73-.141,1.084-.212a.976.976,0,0,0,.822-.917,13.164,13.164,0,0,0,.069-1.647l.024-6.3a.963.963,0,0,0-.516-.895,6.693,6.693,0,0,0-1.342-.564,1.851,1.851,0,0,1-.4-.141c-.344-.165-.353-.47-.024-.659a1.2,1.2,0,0,1,.4-.141,21.369,21.369,0,0,0,4.184-1.058c.282-.095.353-.069.379.212a2.015,2.015,0,0,1-.024.54,5.92,5.92,0,0,0-.046.895.325.325,0,0,0,.141.306c.117.071.236,0,.344-.069a12.79,12.79,0,0,1,1.528-1.032,7.22,7.22,0,0,1,2.495-.917,3.485,3.485,0,0,1,2.846.847,5.334,5.334,0,0,1,.893,1.034c.236.344.258.353.564.117A13.869,13.869,0,0,1,52.259,30.3a4.366,4.366,0,0,1,3.221-.141A3.865,3.865,0,0,1,57.785,32.4a6.342,6.342,0,0,1,.54,2.632v6.3a.905.905,0,0,0,.588.895,8.77,8.77,0,0,0,1.411.353c.306.069.306.069.306.379-.046.774-.117.822-.871.774a50.625,50.625,0,0,0-5.666,0c-.379.024-.379.024-.4-.353v-.117c-.024-.637-.024-.637.588-.774l.611-.165a.946.946,0,0,0,.73-.917l.069-1.764-.046-4.608a3.665,3.665,0,0,0-.258-1.2,2.883,2.883,0,0,0-3.128-1.81,5.315,5.315,0,0,0-2.54,1.012.506.506,0,0,0-.258.494,36.63,36.63,0,0,1,.095,4.515v3.269a.905.905,0,0,0,.8,1.012l1.084.236c.165.024.258.095.258.282v.172c-.024.659-.069.688-.73.681-1.881-.095-3.763-.069-5.619,0-.637.024-.688-.046-.659-.688.024-.379.069-.4.423-.47l.774-.141a1.024,1.024,0,0,0,.988-1.129l.069-1.576L46.9,34.964a3.784,3.784,0,0,0-.494-1.693,2.476,2.476,0,0,0-2.211-1.364,4.964,4.964,0,0,0-2.753.774,1.385,1.385,0,0,0-.8,1.435v3.433Zm44.3.143v3.316q.006.354.046.705a.723.723,0,0,0,.564.659,5.488,5.488,0,0,0,1.246.212c.236.024.282.117.306.306v.165c-.024.822-.117.917-.917.871a45.312,45.312,0,0,0-5.361,0l-.688.024c-.141,0-.172-.069-.212-.165a2.392,2.392,0,0,1,0-.988c.024-.141.117-.172.258-.212.344-.046.637-.117.964-.172a.887.887,0,0,0,.822-.988l.069-1.975V33.644a.874.874,0,0,0-.54-.871,8.455,8.455,0,0,0-1.342-.564,1.982,1.982,0,0,1-.4-.165.426.426,0,0,1-.046-.752.843.843,0,0,1,.47-.189,19.959,19.959,0,0,0,4.374-1.129c.165-.069.236-.024.306.117a.78.78,0,0,1,.069.47l-.069,1.1c0,.141-.069.344.046.4.141.095.236-.117.353-.172a10.479,10.479,0,0,1,2.281-1.457,4.714,4.714,0,0,1,2.328-.516A3.953,3.953,0,0,1,93.28,32.2a6.176,6.176,0,0,1,.611,2.352l.069,1.721.024,5.2a.787.787,0,0,0,.564.8,7.693,7.693,0,0,0,1.27.306c.379.046.4.117.423.47v.117c-.046.8-.095.822-.895.774a49.19,49.19,0,0,0-5.267,0c-.236.024-.47,0-.688.024-.141,0-.236-.024-.258-.165a2.534,2.534,0,0,1-.024-.941.259.259,0,0,1,.258-.236l1.084-.172a.788.788,0,0,0,.637-.688l.046-.659-.024-4.914a8.272,8.272,0,0,0-.141-1.693,2.743,2.743,0,0,0-2.443-2.185,4.416,4.416,0,0,0-2.963.752,1.3,1.3,0,0,0-.637,1.175v3.551c0-.069,0-.069.024-.069Z" transform="translate(-35.47 -22.897)"/>
        <path id="Path_22587" data-name="Path 22587" d="M114.4,33.867a9.176,9.176,0,0,0-2-4.585,9.067,9.067,0,0,0-3.622-2.681,13.057,13.057,0,0,0-4.656-.847c-.659-.024-9.64.117-10.3,0a.351.351,0,0,0-.379.165,2.685,2.685,0,0,0-.306.54c-.282.637-.282.588.4.681a12.745,12.745,0,0,1,1.647.306,1.293,1.293,0,0,1,.964.988c.046.258.095,8.534.095,12.391l-.095,2.753a2.58,2.58,0,0,1-.117.611.985.985,0,0,1-.54.637,2.787,2.787,0,0,1-.988.258c-.637.069-.73.095-.941.8l-.069.258c-.046.306-.024.353.282.353l7.03.069,2.753-.046,1.9-.236a11.847,11.847,0,0,0,5.736-2.727,9.549,9.549,0,0,0,2.257-2.963,10.44,10.44,0,0,0,1.012-4.208,8.36,8.36,0,0,0-.069-2.515Zm-3.41,3.338a9.415,9.415,0,0,1-1.175,4.279,6.509,6.509,0,0,1-4.35,3.338,7.71,7.71,0,0,1-2.581.141,7.815,7.815,0,0,1-1.834-.353A1.969,1.969,0,0,1,99.6,42.546l-.024-14.177c0-.847.379-1.032.988-1.058a15.911,15.911,0,0,1,2.775.046,10.427,10.427,0,0,1,2.846.688A6.848,6.848,0,0,1,108.04,29.2a8.2,8.2,0,0,1,2.581,4.043A11.675,11.675,0,0,1,111,37.168Zm22.952,2.306a2.221,2.221,0,0,0-.024-.4,4.508,4.508,0,0,0-1.951-3.033,7.347,7.347,0,0,0-2.257-1.058,2.5,2.5,0,0,0-.4-.117.2.2,0,0,1,.165-.165,6,6,0,0,0,1.316-.847,4.419,4.419,0,0,0,1.457-2.281,4.456,4.456,0,0,0-1.622-4.563,6.237,6.237,0,0,0-3.668-1.153c-2.54-.046-5.1,0-7.639,0a14.268,14.268,0,0,1-2.211-.069c-.141-.024-.344-.069-.447.095a3.344,3.344,0,0,0-.447.964c-.024.165.024.258.212.282l1.622.236a1.165,1.165,0,0,1,1.129,1.012,9.943,9.943,0,0,1,.069,1.175l-.046,4.4-.024,8.7a8.236,8.236,0,0,1-.165,1.528.86.86,0,0,1-.611.705,4.85,4.85,0,0,1-1.411.282.585.585,0,0,0-.611.4,3.054,3.054,0,0,0-.212.659c-.046.282.024.379.306.344.212-.024,7.971.165,9.429.024a14.267,14.267,0,0,0,2.586-.47,8.883,8.883,0,0,0,3.926-2.306,5.058,5.058,0,0,0,1.457-3.386,4.228,4.228,0,0,0,.069-.941Zm-11.4-9.635L122.611,28a.521.521,0,0,1,.494-.588,6.889,6.889,0,0,1,1.693-.046,8.18,8.18,0,0,1,1.669.282,3.514,3.514,0,0,1,2.306,1.881,3.372,3.372,0,0,1,.329,1.435,4.521,4.521,0,0,1-.282,1.927,2.589,2.589,0,0,1-1.951,1.6,33.386,33.386,0,0,1-3.926.095c-.353,0-.379-.046-.379-.4V31.966a15.126,15.126,0,0,1-.024-2.07Zm7.639,12.65a3.607,3.607,0,0,1-2.163,2.185,4.112,4.112,0,0,1-1.721.306,13.7,13.7,0,0,1-2.185-.141,2.046,2.046,0,0,1-1.505-1.834c-.117-1.2-.046-2.423-.069-3.316v-3.1c0-.379.046-.494.447-.494l2.211.024,1.505.172a5.09,5.09,0,0,1,2.775,1.457,3.812,3.812,0,0,1,1.012,2.328,5.214,5.214,0,0,1-.282,2.4Z" transform="translate(3.913 -25.749)"/>
        <path id="Path_22588" data-name="Path 22588" d="M98.55,32.6l.611.095a1.516,1.516,0,0,0,1.669-1.129,2.375,2.375,0,0,0,0-1.342c-.141,0-.212.117-.282.165a2.259,2.259,0,0,1-1.175.494,5.409,5.409,0,0,1-2.515-.258l-1.153-.4a6.8,6.8,0,0,0-2.495-.327,8.646,8.646,0,0,0-3.386,1.058,4.6,4.6,0,0,0-2.306,2.775,5.491,5.491,0,0,0-.141,2.233A4.167,4.167,0,0,0,90.1,39.521c.095.024.165.069.258.095.212.117.236.236.046.4l-.588.4-1.411.871a.526.526,0,0,0-.282.752,2.46,2.46,0,0,0,.752,1.129,3.923,3.923,0,0,0,1.082.659c.258.117.258.172.024.379l-1.342.964a8.039,8.039,0,0,0-1.27,1.129,2.323,2.323,0,0,0-.564,2.116,3.974,3.974,0,0,0,1.222,2.116A4.99,4.99,0,0,0,90.193,51.7a9.225,9.225,0,0,0,8.959-2.515,5.126,5.126,0,0,0,1.505-3.441,3.3,3.3,0,0,0-2.54-3.433l-1.27-.236-3.88-.344a2.6,2.6,0,0,1-1.2-.306.805.805,0,0,1-.282-1.175,1.117,1.117,0,0,1,.8-.447l.752-.069a6.813,6.813,0,0,0,3.973-1.81,4.164,4.164,0,0,0,1.2-2,6.269,6.269,0,0,0,.046-3.1c-.069-.258-.046-.282.282-.236ZM92.786,44.316a2.484,2.484,0,0,0,.423,0,13.783,13.783,0,0,1,2.963.379,6.16,6.16,0,0,1,.917.353,2.252,2.252,0,0,1,1.175,2.374,2.971,2.971,0,0,1-1.647,2.306,5.032,5.032,0,0,1-2,.564c-.258.024-.494,0-.752,0a5.583,5.583,0,0,1-2.4-.4,3.709,3.709,0,0,1-1.387-.941A2.426,2.426,0,0,1,90.1,45.4a3.454,3.454,0,0,1,2.681-1.084Zm2.681-7.336a2.3,2.3,0,0,1-2.657,1.457,2.815,2.815,0,0,1-2.185-1.576,5.064,5.064,0,0,1-.423-3.739,2.3,2.3,0,0,1,1.881-1.858,2.88,2.88,0,0,1,3.245,1.552,5.135,5.135,0,0,1,.494,2.515,5.327,5.327,0,0,1-.353,1.647Zm-29.625-1.6a6.5,6.5,0,0,0-1.552-3.386,6.21,6.21,0,0,0-4.8-2.07,8.271,8.271,0,0,0-4.515,1.294,6.125,6.125,0,0,0-2.751,3.6,8.184,8.184,0,0,0-.069,4.138c.822,3.716,3.692,5.313,7.123,5.079a7.82,7.82,0,0,0,2.891-.847A6.344,6.344,0,0,0,65.205,40.2a7.725,7.725,0,0,0,.752-3.622l-.117-1.2ZM62.5,40.6a2.856,2.856,0,0,1-2.423,1.975,3.933,3.933,0,0,1-2.868-.73,4.886,4.886,0,0,1-1.481-1.764,9.015,9.015,0,0,1-.637-6.16,3.527,3.527,0,0,1,.988-1.717,3.207,3.207,0,0,1,3.011-.752,4.281,4.281,0,0,1,2.581,1.717,6.744,6.744,0,0,1,1.175,3.011,12.381,12.381,0,0,1,.117,1.457,7.868,7.868,0,0,1-.447,2.963Zm54.714-5.031a6.367,6.367,0,0,0-1.647-3.644,6.279,6.279,0,0,0-4.749-2,8.377,8.377,0,0,0-4.374,1.2A5.987,5.987,0,0,0,103.51,35a8.207,8.207,0,0,0,.564,5.6,5.707,5.707,0,0,0,3.833,3.174,7.707,7.707,0,0,0,5.549-.588,6.445,6.445,0,0,0,3.291-3.527,8.685,8.685,0,0,0,.54-3.128,5.375,5.375,0,0,0-.069-.964Zm-3.245,4.726a2.929,2.929,0,0,1-2.515,2.281,3.909,3.909,0,0,1-2.775-.659,4.78,4.78,0,0,1-1.622-1.927,7.238,7.238,0,0,1-.752-2.586,9.14,9.14,0,0,1,.117-3.291,3.355,3.355,0,0,1,.212-.635,3.17,3.17,0,0,1,3.833-2.022,4.28,4.28,0,0,1,2.681,1.858,6.925,6.925,0,0,1,1.084,3.1,6.307,6.307,0,0,1,.069,1.316,8,8,0,0,1-.344,2.586Z" transform="translate(-24.198 -22.911)"/>
      </g>
    </g>
  </g>
</svg>
