<svg xmlns="http://www.w3.org/2000/svg" xmlns:xlink="http://www.w3.org/1999/xlink" width="1013.515" height="820.159" viewBox="0 0 1013.515 820.159">
  <defs>
    <filter id="Path_20047" x="31.251" y="0" width="982.264" height="820.159" filterUnits="userSpaceOnUse">
      <feOffset dy="3" input="SourceAlpha"/>
      <feGaussianBlur stdDeviation="17" result="blur"/>
      <feFlood flood-opacity="0.161"/>
      <feComposite operator="in" in2="blur"/>
      <feComposite in="SourceGraphic"/>
    </filter>
    <filter id="Path_20053" x="0" y="225.112" width="70.953" height="59.248" filterUnits="userSpaceOnUse">
      <feOffset dy="3" input="SourceAlpha"/>
      <feGaussianBlur stdDeviation="3" result="blur-2"/>
      <feFlood flood-opacity="0.161"/>
      <feComposite operator="in" in2="blur-2"/>
      <feComposite in="SourceGraphic"/>
    </filter>
  </defs>
  <g id="our_products_svg" data-name="our products svg" transform="translate(-957.923 -1278.841)">
    <g transform="matrix(1, 0, 0, 1, 957.92, 1278.84)" filter="url(#Path_20047)">
      <path id="Path_20047-2" data-name="Path 20047" d="M377.469-54.324c-43.939,19.554-93.693-.8-175.114,20.461S50.98,23,16.016,51.193c-50.929,41.071-57.636,175.09-57.636,175.09s8.084,84.912,26.205,134.727c19.468,53.514,42.6,129.06,85.093,171.219,42.872,42.534,111.8,79.656,179.551,69.312,74.991-11.449,88.925-62.844,177.631-87.868s118.55,5.9,177.194-12.225c56.144-17.353,92.223-68.352,116.4-114.575,23.41-44.767,112.09-66.293,117.882-160.59S767.939,43.411,743.616,9.685,580.536-107.8,518.342-114.133C453.2-120.769,437.357-80.975,377.469-54.324Z" transform="translate(123.87 162.87)" fill="#d8e5f6" fill-rule="evenodd" opacity="0.31"/>
    </g>
    <g id="Group_149" data-name="Group 149" transform="translate(1123.296 1452.99)">
      <path id="Path_20048" data-name="Path 20048" d="M300.192,36.162C468.339-20.857,633.062,16.673,668.121,120s-72.81,233.385-240.97,290.353S94.294,429.845,59.235,326.515,132.058,93.193,300.192,36.162Z" transform="translate(24.649 8.955)" fill="#95b9ff" fill-rule="evenodd"/>
      <path id="Path_20055" data-name="Path 20055" d="M236.39,21.246c142.576,48,286.032-56.239,330.895,111.043,26.188,97.733-172.3,131.476-288.551,146.472s-219.325-37.2-230.247-116.6S93.789-26.7,236.39,21.246Z" transform="translate(19.516 8.95)" fill="#e6e6e6" fill-rule="evenodd"/>
      <path id="Path_20056" data-name="Path 20056" d="M91.97,34.319,81.387,77.372l126.859,32.586-7.224-98.9q4.368.793,8.809,1.787l.743,10.065L278.149,38.76l1.4-8.367c2.881.428,5.764.818,8.632,1.145l-1.459,8.518,67.449,5.36,1.5-11.9,8.809-.327-1.661,13.261L399.749,52.1,402,31.35c2.932-.138,5.85-.252,8.745-.365L395.785,168.826l36.706,4.768L445.6,30.859c2.907.126,5.8.289,8.644.5L441.815,166.725l5.726,1.183,3.776-38.914,64.052,19.715,1.057-98.047a94.119,94.119,0,0,1,8.557,6.655l-.679,63.574,36.82-4.819c1.071,3.183,2.09,6.517,3.071,9.939l-40,5.221-.869,80.835q-4.2,2.631-8.694,5.1l.264-24.8-74.019-15.4-.906,9.927-12.885,47.129,7.21,13.952c-2.957.819-5.914,1.61-8.91,2.392l-7.751-15.01,13.842-50.641.089-.906-36.873-4.781-5.322,49.156-41.7-6.795-5.347,46.349c-2.97.5-5.939,1-8.884,1.461l7-60.617-.755-42.186-68.066-16.557L268.322,264.4l12.231,3.95,28.339,4.616c-11.125,1.61-21.834,3.058-31.913,4.354l-1.259.138-44.773-14.418,1.624,16.808c-2.92,0-5.838-.124-8.733-.264l-1.787-18.495-63.563-2.239-1.925,9.261c-2.819-.869-5.588-1.787-8.329-2.757l1.42-6.818-20.133-.693a198.024,198.024,0,0,1-20.663-10.984l42.9,1.486,7.2-34.575-49.555-2.15-9.048,29.742c-2.58-1.787-5.034-3.65-7.551-5.549l12.194-40.123-8.419-8.442,17.039-44.034L67.9,132.466,54.306,187.584a102.162,102.162,0,0,1-5.26-15.185L80.217,45.567A113.024,113.024,0,0,1,91.97,34.319Zm20.537,167.195,52.1,2.264,51.933.076-3.624-37.342-90.6-21.288-15.1,39.128,8.129,8.013-2.781,9.148Zm105.025,12.581-49.694-.087-7.222,34.661,60.54,2.126-3.56-36.675ZM117.289,133.573l12.81-33.152L78.958,87.274,70.3,122.5l46.988,11.046Zm21.393-30.938L126,135.549l85.885,20.13-1.03-10.518v-.138l-1.8-24.433-70.306-17.966Zm72.571-69.059,8.155,110.716,3.875,40.02,38.634,1.562,1.723-60.027,12.8-76.973L211.315,33.564Zm73.716,16.658-12.722,76.91-.351,12.292,68.394,16.645L352.872,55.619l-67.853-5.4ZM361.456,56.6l-3.613,28.774,37.375,7.75,3.372-30.862-37.109-5.674Zm-4.884,39-8.318,67,.83,46.627-.227,1.987,33.072,5.4L394.2,103.378,356.636,95.54Zm99.413,74.142L514.866,182l.252-22.646-56.376-17.513-2.668,27.792ZM224.354,194.581l5.611,57.459,29.812,9.6,1.888-65.55-37.274-1.51Z" transform="translate(21.285 10.395)" fill="#fff" fill-rule="evenodd"/>
      <path id="Path_20058" data-name="Path 20058" d="M284.844,202.041c-78.423,0-150.492.968-207.384,2.592a178,178,0,0,0,28.553,19.325c51.595,1.182,113,1.861,178.831,1.861,46.762,0,91.258-.34,131.627-.968a513.2,513.2,0,0,0,48.989-20.9c-52.022-1.257-114.035-1.9-180.616-1.9Z" transform="translate(48 189.97)" fill="#69f" fill-rule="evenodd"/>
      <path id="Path_20059" data-name="Path 20059" d="M183.939,159.383c-30.453,10.064-82.072,15.349-119.547,26.735S12.8,218.665,12.8,224.705v36.964c0,9.763,12.433,19.412,31.145,30.2s35.348,8.605,44.874,8.605h4.09a61.12,61.12,0,1,1,115.005,0H531.244a61.131,61.131,0,0,1,106.685-57.018,316.454,316.454,0,0,0,30.681-34.424,59.648,59.648,0,0,1-.592-7.825c0-23.477-45.3-70.2-52.552-77.639S599.2,107.3,600.127,103.81s10.885-1.648,11.628-4.429-22.1-7.435-47.43-11.613S461.779,75.678,410.4,78.472s-80.21,9.99-121.132,29.05-65.336,35.568-105.329,51.835Z" transform="translate(-12.797 73.235)" fill="#fc0" fill-rule="evenodd"/>
      <path id="Path_20060" data-name="Path 20060" d="M253.8,168.1c-64.983,0-117.672,1.473-117.672,3.285s52.69,3.283,117.672,3.283,117.661-1.471,117.661-3.283S318.78,168.1,253.8,168.1Z" transform="translate(103.16 158.058)" fill="#ffb900" fill-rule="evenodd"/>
      <path id="Path_20063" data-name="Path 20063" d="M67.3,132.977c-1.56.44-3.1.894-4.606,1.347-26.98,8.217-41.879,21.49-48.1,30.536,15.176,6.366,51.909-3.359,60.982-5.625,10.822-2.7,8.318-17.889,5.2-21.741C77.369,134.149,72.713,132.89,67.3,132.977Z" transform="translate(-11.102 125.028)" fill="#fff" fill-rule="evenodd"/>
      <path id="Path_20064" data-name="Path 20064" d="M477.686,125.71c-7.967,8.706-110.362,8.366-138.123,8.378-58.049,0-188.847,10.619-188.847,8.809,0-3.271,19.014-4.152,62.758-8.593,22.235-2.264,50.864-4.606,86.626-6.517C406.183,122.15,489.238,113.028,477.686,125.71Z" transform="translate(116.882 112.179)" fill="#ffe45f" fill-rule="evenodd"/>
      <path id="Path_20065" data-name="Path 20065" d="M48.291,136.27c-5.122,0-13.515,5.446-18.763,12.177s-5.348,12.167-.189,12.167,13.5-5.448,18.75-12.167,5.348-12.177.239-12.177Z" transform="translate(-0.825 128.128)" fill="#f1f1f1" fill-rule="evenodd"/>
      <path id="Path_20066" data-name="Path 20066" d="M336.938,152.87a56.388,56.388,0,0,0-46.058,88.887c35.336-19,66.343-41.279,91.863-65.423a56.3,56.3,0,0,0-45.806-23.464Z" transform="translate(238.978 143.737)" fill-rule="evenodd"/>
      <path id="Path_20067" data-name="Path 20067" d="M111.07,152.87a56.394,56.394,0,1,0,39.877,16.512A56.4,56.4,0,0,0,111.07,152.87Z" transform="translate(26.572 143.737)" fill-rule="evenodd"/>
      <path id="Path_20068" data-name="Path 20068" d="M352.672,97.571c7.815,6.442,18.751,36.9,20.7,48.023,0,0-126.732,6.29-145.67,8.593l2.906-69.89S343.273,90.16,352.672,97.571Z" transform="translate(189.268 79.261)" fill="#fff" fill-rule="evenodd"/>
      <path id="Path_20069" data-name="Path 20069" d="M352.483,95.5c4.884,4.026,10.974,17.425,15.34,29.616-9.99,3.776-23.368,3.913-30.2,8.568-4.329,2.971-3.65,7.286-.819,11.7-27.193,1.409-63.625,3.384-87.37,5.033,13.842-12.092,4.921-25.968,14.773-33.178,13.7-10.065,46.3,0,55.621-10.694,3.26-3.774,4.278-10.128,4.241-16.872,14.546,1.774,25.708,3.774,28.388,5.888ZM227.9,142.7l.151-3.622a14.147,14.147,0,0,0,4.239-.945,9.432,9.432,0,0,0,5.122-4.756c1.484-3.069,1.849-7.548.429-13.739-2.656-11.662,3.258-16.858,12.445-18.96,8.166-1.849,18.875-1.069,28.05-.4,7.712.566,14.232,1.044,16.3-.151,3.838-2.2,2.592-6.19.276-10.2-.642-1.12-1.383-2.277-2.152-3.422l4.544.39c.25.4.489.818.73,1.258,3.271,5.687,4.82,11.436-1.6,15.1-3.046,1.749-10.068,1.258-18.347.629-8.91-.654-19.379-1.409-27.006.327-7.16,1.623-11.777,5.649-9.726,14.645,1.624,7.082,1.12,12.342-.693,16.091a12.99,12.99,0,0,1-7.008,6.543,18.188,18.188,0,0,1-5.751,1.259Z" transform="translate(189.456 81.328)" fill="#f1f1f1" fill-rule="evenodd"/>
      <path id="Path_20070" data-name="Path 20070" d="M299.171,84.3l-13.087,72.62s-151.132,14.255-152.894,12.5,10.708-36.308,11.69-38.724S201.924,91.909,299.171,84.3Z" transform="translate(100.243 79.261)" fill="#fff" fill-rule="evenodd"/>
      <path id="Path_20071" data-name="Path 20071" d="M299.166,84.3l-3.448,19.212c-15.351,1.472-30.994,2.051-33.46,8.492-6.217,16.242,20.058,15.676,14.168,37.657a15.267,15.267,0,0,1-5.914,8.718c-38.632,3.586-135.907,12.443-137.316,11.048-.44-.454,0-2.982.982-6.556,31.17-11.222,69.351-8.24,69.351-17.274,0-12.1-26.6-9.839-23.155-23.539,3.372-13.337,57.886-14.821,60.693-29.2A426.357,426.357,0,0,1,299.18,84.3ZM141.175,140.976c.768-2.214,1.484-4.226,2.076-5.875,4.468-2.062,8.946-1.723,12.685-1.447,3.033.227,5.423.415,6.2-1.145s-.741-4.164-2.4-6.983c-.615-1.044-1.257-2.125-1.824-3.232l3.2-1.686c.53,1.044,1.147,2.088,1.737,3.095,2.191,3.686,4.191,7.084,2.518,10.417-1.863,3.776-5.324,3.461-9.7,3.133s-9.513-.718-14.5,3.774Z" transform="translate(100.248 79.261)" fill="#f1f1f1" fill-rule="evenodd"/>
      <path id="Path_20072" data-name="Path 20072" d="M160.543,110.818s-48.964,30.2-51.1,33.807,42.043,0,42.043,0A176.745,176.745,0,0,1,160.543,110.818Z" transform="translate(77.998 104.197)" fill="#fff" fill-rule="evenodd"/>
      <path id="Path_20073" data-name="Path 20073" d="M168.286,126.058c-.516,9.311-7.965,11.7-13.137,11.073s-17.994-5.033-17.994-11.073,7.449-12.581,15.567-12.581S168.752,117.767,168.286,126.058Z" transform="translate(104.131 106.697)" fill="#fc0" fill-rule="evenodd"/>
      <path id="Path_20074" data-name="Path 20074" d="M317.848,126.765c.1,3.776,4.342,5.588-8.809,5.173s-25.545,2.893-24.513-1.147,9.979-6.717,16.989-6.717,17.051-1.863,16.358,2.691Z" transform="translate(242.641 116.306)" fill="#fff" fill-rule="evenodd"/>
      <path id="Path_20075" data-name="Path 20075" d="M230.1,132.2c.1,3.776,4.342,5.586-8.809,5.171s-25.545,2.895-24.513-1.131,9.979-6.731,16.989-6.731,17.051-1.863,16.358,2.691Z" transform="translate(160.137 121.416)" fill="#fff" fill-rule="evenodd"/>
      <path id="Path_20076" data-name="Path 20076" d="M311.708,84.3,304,154.187c-2.643,10.442-8.809,72.482-8.809,122.467m169.367-131.06s10.217,38.889,4.455,49.42-20.625,11.952-40.9,31.19-19.581,44.387-25.646,47.482-107.251,2.932-107.251,2.932S140.039,282.3,135.4,278s-4.631-50.716-4.631-63.737-.617-36.776,4.569-44.991Z" transform="translate(98.099 79.261)" fill="none" stroke="#ea8e00" stroke-miterlimit="22.93" stroke-width="2.83"/>
      <path id="Path_20077" data-name="Path 20077" d="M16.993,164.226c0,1.347,41.061,5.825,49.53,2.7s7.827-9.172-1.258-9.172-19.153,3.774-29.622,4.416-18.675.7-18.675,2.051Z" transform="translate(-8.877 148.333)" fill="#ffe45f" fill-rule="evenodd"/>
      <path id="Path_20078" data-name="Path 20078" d="M28.421,170.88s-1.069,9.511-.289,12.707,2.227,6.215,6.015,6.116,9.69-5.033,9.69-12.583S28.421,170.88,28.421,170.88Z" transform="translate(1.352 160.589)" fill="#fff" fill-rule="evenodd"/>
      <path id="Path_20079" data-name="Path 20079" d="M24.569,169.34c9.8.968,20.562-1.259,24.149,3.572,3.234,4.317,2.6,9.889-3.574,18.169" transform="translate(-1.729 159.222)" fill="none" stroke="#ea8e00" stroke-miterlimit="22.93" stroke-width="2.13"/>
      <path id="Path_20080" data-name="Path 20080" d="M327.04,163.407A35.944,35.944,0,0,0,298.889,221.7a428.846,428.846,0,0,0,58.541-41.52,35.918,35.918,0,0,0-30.39-16.77Z" transform="translate(248.876 153.644)" fill="#333" fill-rule="evenodd"/>
      <path id="Path_20082" data-name="Path 20082" d="M101.167,163.407a35.934,35.934,0,1,0,25.413,10.524A35.948,35.948,0,0,0,101.167,163.407Z" transform="translate(36.475 153.644)" fill="#333" fill-rule="evenodd"/>
      <path id="Path_20083" data-name="Path 20083" d="M74.113,217.165a31.255,31.255,0,0,0,41.854-46.048,35.976,35.976,0,0,1-41.854,46.048Z" transform="translate(44.855 160.894)" fill="#666" fill-rule="evenodd"/>
      <path id="Path_20085" data-name="Path 20085" d="M149.768,122.547c3.31,1.861,5.827,2.515,2.806,10.516s-4.87,9.236-13.615,9.236-8.017-6.215-2.631-11.789S145.941,120.785,149.768,122.547Z" transform="translate(99.582 114.84)" fill="#fa0" fill-rule="evenodd"/>
      <path id="Path_20086" data-name="Path 20086" d="M222.8,46.409c5.1,0,9.212.818,9.212,1.837s-4.115,1.837-9.212,1.837-9.21-.83-9.21-1.837S217.716,46.409,222.8,46.409Z" transform="translate(175.997 43.636)" fill="#ccc" fill-rule="evenodd"/>
      <path id="Path_20087" data-name="Path 20087" d="M231.4,0a26.949,26.949,0,0,1,26.968,26.962c0,14.884-26.968,64.92-26.968,64.92s-26.954-50.036-26.954-64.92A26.952,26.952,0,0,1,231.4,0Z" transform="translate(167.398 0)" fill="#ff4646" fill-rule="evenodd"/>
      <path id="Path_20088" data-name="Path 20088" d="M222.8,9.149a9.209,9.209,0,1,1-6.513,2.7A9.217,9.217,0,0,1,222.8,9.149Z" transform="translate(175.997 8.603)" fill="#95b9ff" fill-rule="evenodd"/>
    </g>
    <g id="Group_150" data-name="Group 150" transform="translate(966.923 1340.364)">
      <path id="Path_20052" data-name="Path 20052" d="M86.409,156.679C72.5,183.34,48.859,198.514,33.637,190.573s-16.252-35.89-2.319-62.657S68.847,86.1,84.069,94.044s16.274,35.977,2.362,62.635Z" transform="translate(4.947 121.896)" fill="#e6e6e6" fill-rule="evenodd"/>
      <g transform="matrix(1, 0, 0, 1, -9, -61.52)" filter="url(#Path_20053)">
        <path id="Path_20053-2" data-name="Path 20053" d="M47.077,81.167C61.161,86.683,69.406,99.241,65.5,109.2s-18.507,13.545-32.591,8.007S10.579,99.133,14.487,89.173,32.993,75.629,47.077,81.167Z" transform="translate(-4.52 152.55)" fill="#e6e6e6" fill-rule="evenodd"/>
      </g>
      <path id="Path_20054" data-name="Path 20054" d="M34.607,77.728c3.8-7.942,11.593-12.106,17.433-9.316S59.49,79.9,55.69,87.731,44.075,99.838,38.257,97.047,30.807,85.563,34.607,77.728Z" transform="translate(30.472 65.573)" fill="#e6e6e6" fill-rule="evenodd"/>
      <path id="Path_20084" data-name="Path 20084" d="M63.851,137.586c-5.8,0-15.287,6.16-21.212,13.738S36.606,165.1,42.381,165.1s15.265-6.16,21.19-13.761,6.055-13.738.279-13.738Z" transform="translate(43.329 227.387)" fill="#ff6" fill-rule="evenodd"/>
      <path id="Path_20089" data-name="Path 20089" d="M84.314,39.291s-.6,20.091-7.6,26.188-9.747-26.488-9.747-26.488Z" transform="translate(109.968 -0.396)" fill-rule="evenodd"/>
      <path id="Path_20091" data-name="Path 20091" d="M177.909,97.17c0-8.2.365-17.387-4.165-24.749S147.98,69.7,132.071,69.115,78.4,58.49,72.708,71.841s0,23.161,0,23.161a119.641,119.641,0,0,0-22.543,25.758c-8.588,14.1-15.522,40.977-20.224,50.186s-9.232,32.091-6.441,47.609,2.147,33.229,8.008,38.982,23.874,11.891,50.024,13.35,83.731,14.3,83.731-21.464S190.812,190.63,177.952,97.17Z" transform="translate(7.57 59.568)" fill="#039" fill-rule="evenodd"/>
      <path id="Path_20092" data-name="Path 20092" d="M165.309,91.113c0-6.59.258-13.824-2.018-20.22-8.008,0-17.605,1.18-25.764.88-15.952-.558-53.674-10.733-59.363,2.748s0,23.161,0,23.161A119.66,119.66,0,0,0,55.621,123.44c-8.588,14.081-15.5,40.977-20.224,50.186s-9.232,32.067-6.441,47.609c2.727,15.2,2.147,32.457,7.643,38.638a152.051,152.051,0,0,0,32.44,4.936c26.15,1.46,83.731,14.3,83.731-21.464s25.549-58.794,12.689-152.252Z" transform="translate(20.171 65.625)" fill="#00258b" fill-rule="evenodd"/>
      <path id="Path_20093" data-name="Path 20093" d="M154.768,221.118s2.4,19.984-16.6,19.319A297.788,297.788,0,0,1,103.82,237.3v3.135H73.7V226.206Z" transform="translate(125.52 420.369)" fill="#630" fill-rule="evenodd"/>
      <path id="Path_20094" data-name="Path 20094" d="M159.346,136.38l27.245,247.364H155.5l-46.4-176.508L70.59,393.509H39.267L39.052,136.38Z" transform="translate(45.477 224.6)" fill="#006" fill-rule="evenodd"/>
      <path id="Path_20095" data-name="Path 20095" d="M70.734,120.624c6.656,19.037,19.967,37.155,41.694,35.331s0-58.578,0-58.578Z" transform="translate(118.673 134.491)" fill="#fc9" fill-rule="evenodd"/>
      <path id="Path_20096" data-name="Path 20096" d="M103.548,117.961A196.6,196.6,0,0,0,97.107,97.4L77.355,108.407c-.3,12.88,3.306,26.231,19.129,26.9l7-17.343Z" transform="translate(133.931 134.535)" fill="#ffba87" fill-rule="evenodd"/>
      <path id="Path_20097" data-name="Path 20097" d="M55.878,59.76l-5,59.759H92.354s-9.382-32.906-9.382-49.756Z" transform="translate(72.791 47.587)" fill="#fc9" fill-rule="evenodd"/>
      <path id="Path_20098" data-name="Path 20098" d="M53.106,59.76,52.075,72.3c9.382,9.616,21.835,18.567,31.367,22.259A134.039,134.039,0,0,1,80.2,69.763Z" transform="translate(75.563 47.587)" fill="#f96" fill-rule="evenodd"/>
      <path id="Path_20099" data-name="Path 20099" d="M124.167,35.716s15.029,99.04-34.072,99.04S46.683,67.141,46.683,50.1V35.716Z" transform="translate(62.644 -7.962)" fill="#fc9" fill-rule="evenodd"/>
      <path id="Path_20100" data-name="Path 20100" d="M56.087,95.119c15.222,1.2,26.364-8.865,26.364-17.172a38.414,38.414,0,0,0-4.68-16.593,59.112,59.112,0,0,0,42.08,17.172c26.171-.472,37.765-14.017,36.241-31.06-.987-11.076-11.121-20.134-20.461-20.134s-25.57,6.955-36.949,6.955-24-4.83-31.99,1.975-7.386,13.63-7.386,13.63-19.451,4.83-19.451,21.637S52.738,96.321,55.615,96.17Z" transform="translate(47.334 -27.332)" fill-rule="evenodd"/>
      <path id="Path_20101" data-name="Path 20101" d="M59.606,49.675a3.134,3.134,0,1,1-2.984,3.091,3.069,3.069,0,0,1,2.984-3.134Z" transform="translate(86.068 24.187)" fill-rule="evenodd"/>
      <path id="Path_20102" data-name="Path 20102" d="M68.692,49.77a3.134,3.134,0,1,1-2.984,3.112,3.07,3.07,0,0,1,2.984-3.112Z" transform="translate(107.06 24.499)" fill-rule="evenodd"/>
      <path id="Path_20103" data-name="Path 20103" d="M68.966,50.3c4.852,8.736,8.116,15.67-6.913,18.353-.708,0-1.353-.3-1.4-.816a1.191,1.191,0,0,1,1.181-1.116c12.581-2.146,9-7.877,4.766-15.5-.3-.472,0-1.073.644-1.331a1.46,1.46,0,0,1,1.718.408Z" transform="translate(95.387 24.505)" fill="#f96" fill-rule="evenodd"/>
      <path id="Path_20104" data-name="Path 20104" d="M51.438,103.872c4.187-6.182,50.174-30.631,50.174-30.631S109,88.567,123.081,88.567s13.333-16.915,13.333-16.915S185.15,84.532,189.723,89.6s24.819,82.577,24.819,82.577-13.354,10.325-39.2,8.779c0,0,6.269,63.839,8.352,77.6s6.441,23.612,5.281,25.244c-8.459,10.5-35.682,14.446-47.684,16.055-28.9,3.906-61.553-.881-87.639-14.337-3.328-1.718,5.131-74.958,7.643-88.007,0,0-31.5-7.557-31.689-9.616S47.487,109.389,51.438,103.872Z" transform="translate(23.645 75.062)" fill="#f63" fill-rule="evenodd"/>
      <path id="Path_20105" data-name="Path 20105" d="M87.908,150.316a76.818,76.818,0,0,1-10.735,1.072L75.391,84.524c13.247,22.345,12.882,56.368,12.452,65.792Z" transform="translate(129.431 104.798)" fill="#ea511e" fill-rule="evenodd"/>
      <path id="Path_20106" data-name="Path 20106" d="M49.9,75.4l1.138-.622a32.5,32.5,0,0,0,10.37,12.085,23.018,23.018,0,0,0,15.8,5.044c10.735-1.309,14.234-6.869,15.029-12.45a23.334,23.334,0,0,0-.258-7.6l1.417.386a23.785,23.785,0,0,1,.172,7.341c-.88,6.032-4.745,12.021-16.188,13.394a24.5,24.5,0,0,1-16.9-5.281A34.134,34.134,0,0,1,49.876,75.4Z" transform="translate(70.485 75.526)" fill="#ea511e" fill-rule="evenodd"/>
      <path id="Path_20107" data-name="Path 20107" d="M81.547,186.213c-3.091,15.025,2.147,28.462,9.855,28.912s15.222-3.155,26.751-24.384,22.393-75.965,24.175-79.078,18.852-.172,23.615-6.225,8.223-33.786,0-33.786-34.522,10.926-40.211,32.691-29.263,39.067-44.292,81.869Z" transform="translate(141.567 75.062)" fill="#fc9" fill-rule="evenodd"/>
      <path id="Path_20108" data-name="Path 20108" d="M103.356,205.659c11.228,4.164,5.045,26.466,7.793,30.63s9.618,7,19.945,4.916,27.739-.172,27.739,12.3-4.423,17.022-27.739,17.022-55.563,0-56.98-4.294-1.482-42.587,1.438-46.731c.9-1.092,8.588,1.139,11.658-1.523,4.509-3.949,5.668-12.88,16.145-12.278Z" transform="translate(124.29 384.655)" fill="#f63" fill-rule="evenodd"/>
      <path id="Path_20109" data-name="Path 20109" d="M101.272,217.782c-5.174.665-8.481,4.787-10.477,8.372a1.419,1.419,0,0,1-1.717.642,1.042,1.042,0,0,1-.424-.175,1.086,1.086,0,0,1-.308-.344,1.047,1.047,0,0,1-.063-.894c2.6-4.638,6.441-9.017,12.882-9.812a1.117,1.117,0,0,1,1.306,1.572,1.119,1.119,0,0,1-1.306.576Z" transform="translate(159.05 407.455)" fill-rule="evenodd"/>
      <path id="Path_20110" data-name="Path 20110" d="M97.4,218.153a15.937,15.937,0,0,0-10.026,6.16,1.5,1.5,0,0,1-1.782.556,1.015,1.015,0,0,1-.406-.215,1.028,1.028,0,0,1-.276-.367,1.05,1.05,0,0,1,.017-.9A18.432,18.432,0,0,1,97.4,215.941a1.125,1.125,0,0,1,.979.182,1.093,1.093,0,0,1,.327.394,1.116,1.116,0,0,1-.327,1.387,1.1,1.1,0,0,1-.979.182Z" transform="translate(151.203 408.309)" fill-rule="evenodd"/>
      <path id="Path_20111" data-name="Path 20111" d="M91.627,217.385c-1.868-.129-5.217,2.638-6.226,3.585a1.529,1.529,0,0,1-1.846.364,1.01,1.01,0,0,1-.625-1.106,1,1,0,0,1,.174-.417c2.147-2.019,5.582-4.982,9.232-4.575a1.109,1.109,0,0,1,.441.156,1.119,1.119,0,0,1,.518.751,1.114,1.114,0,0,1-.014.467,1.443,1.443,0,0,1-1.653.775Z" transform="translate(146.817 406.693)" fill-rule="evenodd"/>
      <path id="Path_20112" data-name="Path 20112" d="M82.476,228.353a37.963,37.963,0,0,1,7.193-8.584c-8.588-.708-15.308-4.058-7.643-6.806,2.9-1.03,8.008.344,13.14,2.469,8.588-5.73,16.532-7.19,12.882-1.073a10.876,10.876,0,0,1-6.033,4.293,71.071,71.071,0,0,1,8.159,4.83.977.977,0,0,1,.246.381.988.988,0,0,1,.049.45.992.992,0,0,1-.488.735,1.542,1.542,0,0,1-.963.235,1.523,1.523,0,0,1-.9-.407,105.652,105.652,0,0,0-9.726-5.366,33.99,33.99,0,0,1-4.487.407,50.109,50.109,0,0,0-8.717,9.037,1.376,1.376,0,0,1-1.61.837,1.141,1.141,0,0,1-.8-.444,1.148,1.148,0,0,1-.214-.887Zm10.069-11.1.387-.278c-5.432-2.254-10.413-3.479-11.186-.99.9.967,5.711,1.5,10.735,1.268Zm5.368-.685h.236c4.144-.708,7.493-2.148,7.772-4.293A20.728,20.728,0,0,0,97.913,216.572Z" transform="translate(137.009 395.616)" fill-rule="evenodd"/>
      <path id="Path_20113" data-name="Path 20113" d="M78.566,72.77c8.845,2.146,13.612,8.586,17.669,23.053s10.735,56.711,8.588,79.076a237.544,237.544,0,0,1-8.953,44.156s-4.294-42.931-5.367-52.442S78.459,100.245,73.328,88.225s-8.352-13.63-7.514-15.455,12.646,0,12.646,0Z" transform="translate(106.999 75.769)" fill="#006" fill-rule="evenodd"/>
      <path id="Path_20114" data-name="Path 20114" d="M40.614,222.959l-5.732.2c.344,9.746-2.147,23.44,28.168,23.847s28.146-9.894,28.275-20.736Z" transform="translate(35.843 424.622)" fill="#630" fill-rule="evenodd"/>
      <path id="Path_20115" data-name="Path 20115" d="M57.842,76.708c8.309-4.293,12.28-3.821,13.268-2.619A51.512,51.512,0,0,1,81.158,99.268c1.717,14.575,4.573,45.828,3.2,65.361s-22.629,63-46.589,65.6v-37.5c1.933.493,3.543.861,4.616,1.033,5.9.986,20.482,1.374,26.45-1.288,0,0,3.113-22.947,3.113-34.56,0-9.423-6.2-52.89-11.894-61.24S51.637,86.6,51.465,85.208s.966-5.3,6.441-8.586Z" transform="translate(42.51 78.764)" fill="#006" fill-rule="evenodd"/>
      <path id="Path_20116" data-name="Path 20116" d="M42.816,57.3c0,6.611,5.389,11.2,12.259,11.2s9.167-9.252,9.167-11.355-3.006-10.5-10.735-10.5A10.175,10.175,0,0,0,42.773,57.386Z" transform="translate(54.037 17.27)" fill="#fc9" fill-rule="evenodd"/>
      <path id="Path_20117" data-name="Path 20117" d="M49.112,48.026c3.994-.472,8.438,1.91,7.987,6.59,0,.794-5.239.816-4.122,2.146a3.221,3.221,0,0,0,4.294.408c-.3,1.739-5.045,3.048-6.119,0-.515-1.5.6-3.391,3.714-3.477a4.551,4.551,0,0,0-5.26-4.293c-4.552.773-5.024,2.919-5.346,4.272-.73-1.739.408-5.087,4.852-5.6Z" transform="translate(57.036 20.341)" fill="#f96" fill-rule="evenodd"/>
      <path id="Path_20118" data-name="Path 20118" d="M34.645,107.745c-2.6,8.415-5.432,21.7-2.147,32.99,5.217,18.117,40.427,109.58,40.427,109.58l14.642-10.348S68.738,144.492,67.686,136.227a90.112,90.112,0,0,0,8.588-21.7,77.238,77.238,0,0,1-18.313-1.354c-4.036-.665-16.3-3.327-23.337-5.429Z" transform="translate(26.913 158.445)" fill="#fc9" fill-rule="evenodd"/>
      <path id="Path_20119" data-name="Path 20119" d="M104.457,60.7l29.82,2.275a3.535,3.535,0,0,1,3.542,3.585l-6.051,54.393a3.889,3.889,0,0,1-4.3,3.005l-29.8-2.146a3.564,3.564,0,0,1-3.628-3.606L100.1,63.723a3.864,3.864,0,0,1,4.294-3.005Z" transform="translate(172.525 49.72)" fill="#ff4646" fill-rule="evenodd"/>
      <path id="Path_20120" data-name="Path 20120" d="M108.075,62.272a2.766,2.766,0,0,1,2.6,1.714,2.728,2.728,0,0,1,.209,1.076l-.9,8.071a3,3,0,0,1-3.35,2.232,2.766,2.766,0,0,1-2.6-1.714,2.73,2.73,0,0,1-.209-1.076l.9-8.071a3,3,0,0,1,3.35-2.232Z" transform="translate(195.122 53.317)" fill-rule="evenodd"/>
      <path id="Path_20121" data-name="Path 20121" d="M106.556,62.684a1.744,1.744,0,0,1,.7.125,1.763,1.763,0,0,1,.983.981,1.792,1.792,0,0,1,.126.7,1.936,1.936,0,0,1-2.148,1.481,1.743,1.743,0,0,1-.7-.125,1.764,1.764,0,0,1-.983-.981,1.794,1.794,0,0,1-.126-.7,1.936,1.936,0,0,1,2.148-1.481Z" transform="translate(196.47 54.3)" fill="#333" fill-rule="evenodd"/>
      <path id="Path_20122" data-name="Path 20122" d="M105.683,65.152a1.034,1.034,0,0,1,.98.646,1,1,0,0,1,.073.406,1.124,1.124,0,0,1-.46.687,1.136,1.136,0,0,1-.8.193,1.03,1.03,0,0,1-.414-.068,1.042,1.042,0,0,1-.586-.573,1.03,1.03,0,0,1-.076-.411,1.139,1.139,0,0,1,1.288-.88Z" transform="translate(196.438 60.011)" fill="#fff" fill-rule="evenodd"/>
      <path id="Path_20123" data-name="Path 20123" d="M106.42,63.925a1.765,1.765,0,0,1,.692.123,1.735,1.735,0,0,1,.586.384,1.733,1.733,0,0,1,.523,1.274,1.93,1.93,0,0,1-2.145,1.481A1.757,1.757,0,0,1,104.4,66.1a1.762,1.762,0,0,1-.132-.69,1.91,1.91,0,0,1,2.148-1.481Z" transform="translate(196.155 57.16)" fill="#333" fill-rule="evenodd"/>
      <path id="Path_20124" data-name="Path 20124" d="M66.951,210.665c21.6.857,14.814,18.912,14.105,26.724S91,247.777,91.34,254.669s-5.926,15.174-27.632,15.174-28.834-7.875-28.834-19.617S46.6,237.346,46.6,230.2,40.414,211.138,66.951,210.665Z" transform="translate(35.826 396.22)" fill="#f63" fill-rule="evenodd"/>
      <path id="Path_20125" data-name="Path 20125" d="M40.544,223.211c4.788-3.092,12.624-2.489,17.412.278a1,1,0,0,1,.285.348.99.99,0,0,1,0,.874,1,1,0,0,1-.285.348,1.55,1.55,0,0,1-1.889,0c-3.435-1.91-10.263-2.446-13.7-.238a1.537,1.537,0,0,1-1.889,0,.962.962,0,0,1-.295-1.222.971.971,0,0,1,.295-.344Z" transform="translate(47.848 420.421)" fill-rule="evenodd"/>
      <path id="Path_20126" data-name="Path 20126" d="M41.088,220.667c4.037-2,10.735-2.383,14.428.387a.985.985,0,0,1,.2,1.238.972.972,0,0,1-.31.328,1.55,1.55,0,0,1-1.889,0c-2.319-1.695-8.18-1.394-10.735-.192a1.585,1.585,0,0,1-1.889-.109.98.98,0,0,1-.258-.367.991.991,0,0,1-.067-.447.98.98,0,0,1,.453-.752Z" transform="translate(48.978 415.646)" fill-rule="evenodd"/>
      <path id="Path_20127" data-name="Path 20127" d="M40.882,219.567c2.855-3.241,11.4-3.542,14.921,0a.988.988,0,0,1-.008,1.255,1.009,1.009,0,0,1-.358.271,1.526,1.526,0,0,1-1.846-.3c-2.147-2.148-8.91-1.609-10.327,0a1.515,1.515,0,0,1-.82.549,1.5,1.5,0,0,1-.984-.076,1.072,1.072,0,0,1-.4-.232,1.052,1.052,0,0,1-.256-.381,1.036,1.036,0,0,1-.066-.453,1.015,1.015,0,0,1,.137-.437Z" transform="translate(49.378 410.907)" fill-rule="evenodd"/>
      <path id="Path_20128" data-name="Path 20128" d="M39.126,230.64a46.728,46.728,0,0,1,10.133-9.057c-7.063-1.933-12.109-5.647-8.459-8.329,3.22-2.36,8.287,1.675,12.882,5.816,11.4-5.624,20.654-3.39,15.5.818a17.463,17.463,0,0,1-11.358,2.983,20.113,20.113,0,0,0,3.865,2.92,46.446,46.446,0,0,0,8.588,3.049,1.074,1.074,0,0,1,.433.165,1.093,1.093,0,0,1,.448,1.228,1.41,1.41,0,0,1-1.675.728l-4.637-1.394a33.9,33.9,0,0,1-11.164-7.041,61.7,61.7,0,0,0-12.088,9.037,1.458,1.458,0,0,1-.79.6,1.48,1.48,0,0,1-.992-.043,1.033,1.033,0,0,1-.68-.586,1.033,1.033,0,0,1,.036-.9Zm11.486-10.9c-2.941-2.767-5.389-4.916-7.987-4.873a.174.174,0,0,0-.171.152C41.9,216.968,45.76,218.726,50.612,219.736Zm6.441.795c4.745.215,9.125-.45,10.413-2.489C66.586,216.237,62.1,217.826,57.053,220.53Z" transform="translate(45.468 400.585)" fill-rule="evenodd"/>
      <path id="Path_20129" data-name="Path 20129" d="M42.93,147.959c2.984-5.389,13.762-23.87,15.308-54.564a166.991,166.991,0,0,1,1.782,17.988c0,11.614-3.113,34.557-3.113,34.557A40.462,40.462,0,0,1,42.93,147.959Z" transform="translate(54.437 125.293)" fill="#ea511e" fill-rule="evenodd"/>
      <path id="Path_20130" data-name="Path 20130" d="M70.674,147.38C62.9,156.566,56.462,163.305,42.4,164.808a1.1,1.1,0,0,1-.979-.182,1.115,1.115,0,0,1,0-1.781,1.125,1.125,0,0,1,.979-.182c12.624-1.331,18.958-8.07,25.935-16.293a1.5,1.5,0,0,1,1.825-.427,1.027,1.027,0,0,1,.384.238,1.015,1.015,0,0,1,.24.387,1,1,0,0,1,.047.45.987.987,0,0,1-.155.424Z" transform="translate(49.923 246.356)" fill-rule="evenodd"/>
      <path id="Path_20131" data-name="Path 20131" d="M123.272,78.4s-13.7-11.7-16.445-8.951S118.764,82.2,118.764,82.2s-16-8.586-16.446-5.023S117.84,90.419,117.84,90.419s-14.621-4.572-15.522-.472,13.7,6.439,13.7,6.439-15.029,0-16,2.3,19.643,7.3,19.643,7.3Z" transform="translate(186.257 69.002)" fill="#fc9" fill-rule="evenodd"/>
      <path id="Path_20132" data-name="Path 20132" d="M57.678,52.136A8.588,8.588,0,0,1,64.7,49.26c2.362,0,2.362-3.585,0-3.67a12.219,12.219,0,0,0-9.618,3.949C53.491,51.278,56.089,53.832,57.678,52.136Z" transform="translate(81.362 14.813)"/>
      <path id="Path_20133" data-name="Path 20133" d="M66.956,51.3a8.591,8.591,0,0,1,7.471,1.267c1.975,1.331,3.8-1.867,1.868-3.177a12.369,12.369,0,0,0-10.327-1.631,1.846,1.846,0,0,0,.987,3.542Z" transform="translate(104.911 18.743)"/>
      <path id="Path_20134" data-name="Path 20134" d="M58.329,59.319a17.35,17.35,0,0,0,19.516,1.674c2.147-1.138.215-4.293-1.846-3.155a13.571,13.571,0,0,1-15.029-1.116c-1.825-1.46-4.444,1.138-2.6,2.6Z" transform="translate(88.656 39.571)"/>
    </g>
  </g>
</svg>
