<svg xmlns="http://www.w3.org/2000/svg" xmlns:xlink="http://www.w3.org/1999/xlink" width="197" height="162" viewBox="0 0 197 162">
  <defs>
    <clipPath id="clip-path">
      <rect width="197" height="162" fill="none"/>
    </clipPath>
  </defs>
  <g id="Repeat_Grid_3" data-name="Repeat Grid 3" clip-path="url(#clip-path)">
    <g transform="translate(-8306 -3966)">
      <circle id="Ellipse_1" data-name="Ellipse 1" cx="5" cy="5" r="5" transform="translate(8306 3966)" fill="#fff"/>
    </g>
    <g transform="translate(-8286 -3966)">
      <circle id="Ellipse_1-2" data-name="Ellipse 1" cx="5" cy="5" r="5" transform="translate(8306 3966)" fill="#fff"/>
    </g>
    <g transform="translate(-8266 -3966)">
      <circle id="Ellipse_1-3" data-name="Ellipse 1" cx="5" cy="5" r="5" transform="translate(8306 3966)" fill="#fff"/>
    </g>
    <g transform="translate(-8246 -3966)">
      <circle id="Ellipse_1-4" data-name="Ellipse 1" cx="5" cy="5" r="5" transform="translate(8306 3966)" fill="#fff"/>
    </g>
    <g transform="translate(-8226 -3966)">
      <circle id="Ellipse_1-5" data-name="Ellipse 1" cx="5" cy="5" r="5" transform="translate(8306 3966)" fill="#fff"/>
    </g>
    <g transform="translate(-8206 -3966)">
      <circle id="Ellipse_1-6" data-name="Ellipse 1" cx="5" cy="5" r="5" transform="translate(8306 3966)" fill="#fff"/>
    </g>
    <g transform="translate(-8186 -3966)">
      <circle id="Ellipse_1-7" data-name="Ellipse 1" cx="5" cy="5" r="5" transform="translate(8306 3966)" fill="#fff"/>
    </g>
    <g transform="translate(-8166 -3966)">
      <circle id="Ellipse_1-8" data-name="Ellipse 1" cx="5" cy="5" r="5" transform="translate(8306 3966)" fill="#fff"/>
    </g>
    <g transform="translate(-8146 -3966)">
      <circle id="Ellipse_1-9" data-name="Ellipse 1" cx="5" cy="5" r="5" transform="translate(8306 3966)" fill="#fff"/>
    </g>
    <g transform="translate(-8306 -3946)">
      <circle id="Ellipse_1-10" data-name="Ellipse 1" cx="5" cy="5" r="5" transform="translate(8306 3966)" fill="#fff"/>
    </g>
    <g transform="translate(-8286 -3946)">
      <circle id="Ellipse_1-11" data-name="Ellipse 1" cx="5" cy="5" r="5" transform="translate(8306 3966)" fill="#fff"/>
    </g>
    <g transform="translate(-8266 -3946)">
      <circle id="Ellipse_1-12" data-name="Ellipse 1" cx="5" cy="5" r="5" transform="translate(8306 3966)" fill="#fff"/>
    </g>
    <g transform="translate(-8246 -3946)">
      <circle id="Ellipse_1-13" data-name="Ellipse 1" cx="5" cy="5" r="5" transform="translate(8306 3966)" fill="#fff"/>
    </g>
    <g transform="translate(-8226 -3946)">
      <circle id="Ellipse_1-14" data-name="Ellipse 1" cx="5" cy="5" r="5" transform="translate(8306 3966)" fill="#fff"/>
    </g>
    <g transform="translate(-8206 -3946)">
      <circle id="Ellipse_1-15" data-name="Ellipse 1" cx="5" cy="5" r="5" transform="translate(8306 3966)" fill="#fff"/>
    </g>
    <g transform="translate(-8186 -3946)">
      <circle id="Ellipse_1-16" data-name="Ellipse 1" cx="5" cy="5" r="5" transform="translate(8306 3966)" fill="#fff"/>
    </g>
    <g transform="translate(-8166 -3946)">
      <circle id="Ellipse_1-17" data-name="Ellipse 1" cx="5" cy="5" r="5" transform="translate(8306 3966)" fill="#fff"/>
    </g>
    <g transform="translate(-8146 -3946)">
      <circle id="Ellipse_1-18" data-name="Ellipse 1" cx="5" cy="5" r="5" transform="translate(8306 3966)" fill="#fff"/>
    </g>
    <g transform="translate(-8306 -3926)">
      <circle id="Ellipse_1-19" data-name="Ellipse 1" cx="5" cy="5" r="5" transform="translate(8306 3966)" fill="#fff"/>
    </g>
    <g transform="translate(-8286 -3926)">
      <circle id="Ellipse_1-20" data-name="Ellipse 1" cx="5" cy="5" r="5" transform="translate(8306 3966)" fill="#fff"/>
    </g>
    <g transform="translate(-8266 -3926)">
      <circle id="Ellipse_1-21" data-name="Ellipse 1" cx="5" cy="5" r="5" transform="translate(8306 3966)" fill="#fff"/>
    </g>
    <g transform="translate(-8246 -3926)">
      <circle id="Ellipse_1-22" data-name="Ellipse 1" cx="5" cy="5" r="5" transform="translate(8306 3966)" fill="#fff"/>
    </g>
    <g transform="translate(-8226 -3926)">
      <circle id="Ellipse_1-23" data-name="Ellipse 1" cx="5" cy="5" r="5" transform="translate(8306 3966)" fill="#fff"/>
    </g>
    <g transform="translate(-8206 -3926)">
      <circle id="Ellipse_1-24" data-name="Ellipse 1" cx="5" cy="5" r="5" transform="translate(8306 3966)" fill="#fff"/>
    </g>
    <g transform="translate(-8186 -3926)">
      <circle id="Ellipse_1-25" data-name="Ellipse 1" cx="5" cy="5" r="5" transform="translate(8306 3966)" fill="#fff"/>
    </g>
    <g transform="translate(-8166 -3926)">
      <circle id="Ellipse_1-26" data-name="Ellipse 1" cx="5" cy="5" r="5" transform="translate(8306 3966)" fill="#fff"/>
    </g>
    <g transform="translate(-8146 -3926)">
      <circle id="Ellipse_1-27" data-name="Ellipse 1" cx="5" cy="5" r="5" transform="translate(8306 3966)" fill="#fff"/>
    </g>
    <g transform="translate(-8306 -3906)">
      <circle id="Ellipse_1-28" data-name="Ellipse 1" cx="5" cy="5" r="5" transform="translate(8306 3966)" fill="#fff"/>
    </g>
    <g transform="translate(-8286 -3906)">
      <circle id="Ellipse_1-29" data-name="Ellipse 1" cx="5" cy="5" r="5" transform="translate(8306 3966)" fill="#fff"/>
    </g>
    <g transform="translate(-8266 -3906)">
      <circle id="Ellipse_1-30" data-name="Ellipse 1" cx="5" cy="5" r="5" transform="translate(8306 3966)" fill="#fff"/>
    </g>
    <g transform="translate(-8246 -3906)">
      <circle id="Ellipse_1-31" data-name="Ellipse 1" cx="5" cy="5" r="5" transform="translate(8306 3966)" fill="#fff"/>
    </g>
    <g transform="translate(-8226 -3906)">
      <circle id="Ellipse_1-32" data-name="Ellipse 1" cx="5" cy="5" r="5" transform="translate(8306 3966)" fill="#fff"/>
    </g>
    <g transform="translate(-8206 -3906)">
      <circle id="Ellipse_1-33" data-name="Ellipse 1" cx="5" cy="5" r="5" transform="translate(8306 3966)" fill="#fff"/>
    </g>
    <g transform="translate(-8186 -3906)">
      <circle id="Ellipse_1-34" data-name="Ellipse 1" cx="5" cy="5" r="5" transform="translate(8306 3966)" fill="#fff"/>
    </g>
    <g transform="translate(-8166 -3906)">
      <circle id="Ellipse_1-35" data-name="Ellipse 1" cx="5" cy="5" r="5" transform="translate(8306 3966)" fill="#fff"/>
    </g>
    <g transform="translate(-8146 -3906)">
      <circle id="Ellipse_1-36" data-name="Ellipse 1" cx="5" cy="5" r="5" transform="translate(8306 3966)" fill="#fff"/>
    </g>
    <g transform="translate(-8306 -3886)">
      <circle id="Ellipse_1-37" data-name="Ellipse 1" cx="5" cy="5" r="5" transform="translate(8306 3966)" fill="#fff"/>
    </g>
    <g transform="translate(-8286 -3886)">
      <circle id="Ellipse_1-38" data-name="Ellipse 1" cx="5" cy="5" r="5" transform="translate(8306 3966)" fill="#fff"/>
    </g>
    <g transform="translate(-8266 -3886)">
      <circle id="Ellipse_1-39" data-name="Ellipse 1" cx="5" cy="5" r="5" transform="translate(8306 3966)" fill="#fff"/>
    </g>
    <g transform="translate(-8246 -3886)">
      <circle id="Ellipse_1-40" data-name="Ellipse 1" cx="5" cy="5" r="5" transform="translate(8306 3966)" fill="#fff"/>
    </g>
    <g transform="translate(-8226 -3886)">
      <circle id="Ellipse_1-41" data-name="Ellipse 1" cx="5" cy="5" r="5" transform="translate(8306 3966)" fill="#fff"/>
    </g>
    <g transform="translate(-8206 -3886)">
      <circle id="Ellipse_1-42" data-name="Ellipse 1" cx="5" cy="5" r="5" transform="translate(8306 3966)" fill="#fff"/>
    </g>
    <g transform="translate(-8186 -3886)">
      <circle id="Ellipse_1-43" data-name="Ellipse 1" cx="5" cy="5" r="5" transform="translate(8306 3966)" fill="#fff"/>
    </g>
    <g transform="translate(-8166 -3886)">
      <circle id="Ellipse_1-44" data-name="Ellipse 1" cx="5" cy="5" r="5" transform="translate(8306 3966)" fill="#fff"/>
    </g>
    <g transform="translate(-8146 -3886)">
      <circle id="Ellipse_1-45" data-name="Ellipse 1" cx="5" cy="5" r="5" transform="translate(8306 3966)" fill="#fff"/>
    </g>
    <g transform="translate(-8306 -3866)">
      <circle id="Ellipse_1-46" data-name="Ellipse 1" cx="5" cy="5" r="5" transform="translate(8306 3966)" fill="#fff"/>
    </g>
    <g transform="translate(-8286 -3866)">
      <circle id="Ellipse_1-47" data-name="Ellipse 1" cx="5" cy="5" r="5" transform="translate(8306 3966)" fill="#fff"/>
    </g>
    <g transform="translate(-8266 -3866)">
      <circle id="Ellipse_1-48" data-name="Ellipse 1" cx="5" cy="5" r="5" transform="translate(8306 3966)" fill="#fff"/>
    </g>
    <g transform="translate(-8246 -3866)">
      <circle id="Ellipse_1-49" data-name="Ellipse 1" cx="5" cy="5" r="5" transform="translate(8306 3966)" fill="#fff"/>
    </g>
    <g transform="translate(-8226 -3866)">
      <circle id="Ellipse_1-50" data-name="Ellipse 1" cx="5" cy="5" r="5" transform="translate(8306 3966)" fill="#fff"/>
    </g>
    <g transform="translate(-8206 -3866)">
      <circle id="Ellipse_1-51" data-name="Ellipse 1" cx="5" cy="5" r="5" transform="translate(8306 3966)" fill="#fff"/>
    </g>
    <g transform="translate(-8186 -3866)">
      <circle id="Ellipse_1-52" data-name="Ellipse 1" cx="5" cy="5" r="5" transform="translate(8306 3966)" fill="#fff"/>
    </g>
    <g transform="translate(-8166 -3866)">
      <circle id="Ellipse_1-53" data-name="Ellipse 1" cx="5" cy="5" r="5" transform="translate(8306 3966)" fill="#fff"/>
    </g>
    <g transform="translate(-8146 -3866)">
      <circle id="Ellipse_1-54" data-name="Ellipse 1" cx="5" cy="5" r="5" transform="translate(8306 3966)" fill="#fff"/>
    </g>
    <g transform="translate(-8306 -3846)">
      <circle id="Ellipse_1-55" data-name="Ellipse 1" cx="5" cy="5" r="5" transform="translate(8306 3966)" fill="#fff"/>
    </g>
    <g transform="translate(-8286 -3846)">
      <circle id="Ellipse_1-56" data-name="Ellipse 1" cx="5" cy="5" r="5" transform="translate(8306 3966)" fill="#fff"/>
    </g>
    <g transform="translate(-8266 -3846)">
      <circle id="Ellipse_1-57" data-name="Ellipse 1" cx="5" cy="5" r="5" transform="translate(8306 3966)" fill="#fff"/>
    </g>
    <g transform="translate(-8246 -3846)">
      <circle id="Ellipse_1-58" data-name="Ellipse 1" cx="5" cy="5" r="5" transform="translate(8306 3966)" fill="#fff"/>
    </g>
    <g transform="translate(-8226 -3846)">
      <circle id="Ellipse_1-59" data-name="Ellipse 1" cx="5" cy="5" r="5" transform="translate(8306 3966)" fill="#fff"/>
    </g>
    <g transform="translate(-8206 -3846)">
      <circle id="Ellipse_1-60" data-name="Ellipse 1" cx="5" cy="5" r="5" transform="translate(8306 3966)" fill="#fff"/>
    </g>
    <g transform="translate(-8186 -3846)">
      <circle id="Ellipse_1-61" data-name="Ellipse 1" cx="5" cy="5" r="5" transform="translate(8306 3966)" fill="#fff"/>
    </g>
    <g transform="translate(-8166 -3846)">
      <circle id="Ellipse_1-62" data-name="Ellipse 1" cx="5" cy="5" r="5" transform="translate(8306 3966)" fill="#fff"/>
    </g>
    <g transform="translate(-8146 -3846)">
      <circle id="Ellipse_1-63" data-name="Ellipse 1" cx="5" cy="5" r="5" transform="translate(8306 3966)" fill="#fff"/>
    </g>
  </g>
</svg>
