<svg xmlns="http://www.w3.org/2000/svg" width="42.375" height="70.57" viewBox="0 0 42.375 70.57">
  <g id="ADV_ICON" data-name="ADV ICON" transform="translate(-17349.352 -2856.35)">
    <g id="Group_305" data-name="Group 305" transform="translate(17357.75 2887.356)">
      <path id="Path_20600" data-name="Path 20600" d="M367.9,178.563h-6.74a1.294,1.294,0,0,0-1.292,1.292v6.74a1.294,1.294,0,0,0,1.292,1.292h6.74a1.294,1.294,0,0,0,1.292-1.292v-6.74A1.294,1.294,0,0,0,367.9,178.563Zm.322,8.033a.322.322,0,0,1-.322.322h-6.74a.322.322,0,0,1-.322-.322v-6.74a.322.322,0,0,1,.322-.322h6.74a.322.322,0,0,1,.322.322Z" transform="translate(-359.867 -178.563)"/>
      <path id="Path_20601" data-name="Path 20601" d="M400.388,228.387a2.182,2.182,0,1,0,2.182,2.182A2.185,2.185,0,0,0,400.388,228.387Zm0,3.394a1.212,1.212,0,1,1,1.212-1.212A1.213,1.213,0,0,1,400.388,231.781Z" transform="translate(-395.726 -225.164)"/>
      <path id="Path_20602" data-name="Path 20602" d="M460.321,205.158a.291.291,0,0,0-.321.246v.214a.332.332,0,0,0,.641,0V205.4A.291.291,0,0,0,460.321,205.158Z" transform="translate(-453.523 -203.437)"/>
    </g>
    <g id="Group_306" data-name="Group 306" transform="translate(17373.441 2886.468)">
      <path id="Path_20603" data-name="Path 20603" d="M1.37,2.906a.111.111,0,0,1-.157,0l-.3-.3a.537.537,0,0,0-.76.76l.3.3a1.187,1.187,0,0,0,1.677,0L3.666,2.129a1.187,1.187,0,0,0,0-1.677l-.3-.3a.537.537,0,0,0-.76.76l.3.3a.111.111,0,0,1,0,.157Z" transform="matrix(-0.087, 0.996, -0.996, -0.087, 7.311, 3.313)"/>
      <path id="Path_20608" data-name="Path 20608" d="M365.348,340.637a5.138,5.138,0,0,0-4.6,7.427l-.52,1.94a.537.537,0,0,0,.658.658l1.813-.486a5.136,5.136,0,0,0,5.819-.361.537.537,0,1,0-.664-.845,4.06,4.06,0,0,1-4.767.18.537.537,0,0,0-.438-.073l-1.142.306.333-1.245a.537.537,0,0,0-.049-.4,4.063,4.063,0,1,1,7.247-.268.537.537,0,0,0,.976.45,5.137,5.137,0,0,0-4.667-7.284Z" transform="translate(-360.211 -340.637)"/>
    </g>
    <g id="Group_304" data-name="Group 304" transform="translate(17362.549 2866.512)">
      <path id="Path_20599" data-name="Path 20599" d="M406.986,66.458a1.145,1.145,0,0,0,1.143,0l3.089-1.783a1.143,1.143,0,0,0,0-1.979l-3.089-1.783a1.143,1.143,0,0,0-1.714.99v3.566A1.146,1.146,0,0,0,406.986,66.458Zm.855-4.065,2.238,1.292-2.238,1.292Z" transform="translate(-401.194 -57.671)"/>
      <path id="Path_20609" data-name="Path 20609" d="M364.69,28.27h-6.6a.713.713,0,1,0,0,1.426h6.6a.692.692,0,0,1,.691.691v7.8a.692.692,0,0,1-.691.691H353.631a.691.691,0,0,1-.691-.691v-7.8a.691.691,0,0,1,.691-.691h1.61a.713.713,0,1,0,0-1.426h-1.61a2.119,2.119,0,0,0-2.117,2.117v7.8a2.119,2.119,0,0,0,2.117,2.117H364.69a2.119,2.119,0,0,0,2.117-2.117v-7.8A2.119,2.119,0,0,0,364.69,28.27Z" transform="translate(-351.514 -28.27)"/>
    </g>
    <g id="advertising" transform="translate(17350.002 2857)">
      <path id="Path_20610" data-name="Path 20610" d="M38.917,12.157c-1.261,0-2.282-1.235-2.282,0V51.394H4.688V6.879c0-1.3,1.455-2.409,3.18-2.409H33.455c1.725,0,3.18,1.1,3.18,2.409v5.278a2.283,2.283,0,0,0,4.564,0V6.879C41.2,3.086,37.724,0,33.455,0H7.868C3.6,0,.124,3.086.124,6.879V61.687A7.674,7.674,0,0,0,7.868,69.27H33.455A7.674,7.674,0,0,0,41.2,61.687V12.157c0-1.235-1.02,0-2.282,0ZM33.455,64.8H7.868a3.15,3.15,0,0,1-3.18-3.113v-5.7c6.317-.114,25.63-.114,31.947,0v5.7A3.15,3.15,0,0,1,33.455,64.8Zm0,0" transform="translate(-0.124 -0.001)" fill="none" stroke="#222" stroke-width="1.3"/>
      <path id="Path_20611" data-name="Path 20611" d="M113.821,357.223a2.235,2.235,0,1,1-2.234-2.234A2.235,2.235,0,0,1,113.821,357.223Zm0,0" transform="translate(-91.048 -296.892)"/>
    </g>
  </g>
</svg>
