<svg xmlns="http://www.w3.org/2000/svg" width="519.147" height="364.043" viewBox="0 0 519.147 364.043">
  <g id="adverstiment" transform="translate(-859 -6224)">
    <path id="Path_22512" data-name="Path 22512" d="M52.034,1854.216c51.838-37.5,160.7,2.113,253.843,11.736s244.65-5.661,244.27,36.534c-.4,45-34,70.306-218.288,82.4S63.2,1959.716,39.1,1920.049C20.346,1889.176,38.18,1864.24,52.034,1854.216Z" transform="translate(828 4600.838)" fill="#e7f3fe"/>
    <g id="Layer_2" data-name="Layer 2" transform="translate(937.174 6224.173)">
      <g id="OBJECTS" transform="translate(-0.173 -0.173)">
        <path id="Path_22387" data-name="Path 22387" d="M165.942,350.6H104.978a9.975,9.975,0,0,1-3.988-2.416,26.265,26.265,0,0,1-5.159-6.781c-.008.016,11.564,3.407,10.114.819-1.384-2.4-11.2-2.334-13.922-5.774a70.669,70.669,0,0,1-5.97-9.434c0,.09,8.5,5.462,8.329,2.842-.172-2.457-9.918-6.707-12.063-10.892-2.129-3.964,8.452,3.186,9.566,1.867,1.056-1.032-10.172-8.3-12.375-11.932-2.3-3.448-2.67-10.139-1.081-8.681S82.58,304,82.58,302.453s-6.765-10.786-6.707-13.922c-.049-2.924,7.15,5.381,7.69,4.275.45-.884-8.247-9.475-9.05-14.5-.9-4.873-.2-9.074.229-9.009s4.357,6.552,5.282,6.249c.819-.156-1.269-30.138,12.9-36.542,11.769,7.616,22.571,27.239,22.62,27.231.819-.262,1.859-6.134,2.277-6.322s2.457,2.35,3.808,5.675c1.2,3.276-1.278,12.743-.213,13.1.9.213,2.309-8.239,3.882-6.552,1.425,1.638,1.638,10.065,2.678,10.786s1.384-1.957,1.736-3.538,3.947,1.638,4.537,4.291c.434,2.645-1.31,13.046.311,12.637,1.384-.549,2.989-10.106,4.455-7.371,1.31,2.58-.893,10.835,1.065,11.539,1.818.606,2.285-6.871,2.359-6.83a59.122,59.122,0,0,1,3.874,6.118c1.286,2.465-2.809,10.319-1.163,11.736,1.5,1.294,3.161-8.321,3.276-8.255a14.52,14.52,0,0,1,3.358,4.422c1.794,3.194-.925,7.248.745,10.327s4.848-1.81,4.848-1.794C167.105,330.151,167.539,342.509,165.942,350.6Z" transform="translate(-13.268 -43.126)" fill="#7aa9ff" fill-rule="evenodd"/>
        <path id="Path_22388" data-name="Path 22388" d="M160.949,336.672,104.064,358.62a10,10,0,0,1-4.586-.819,25.883,25.883,0,0,1-7.248-4.472c0,.016,12.006-.983,9.721-2.866-2.154-1.736-11.277,1.851-15.053-.385a70.86,70.86,0,0,1-8.959-6.642c0,.09,9.9,2.031,8.787-.352-1.032-2.2-11.662-2.686-15.167-5.823-3.423-2.924,9.009-.065,9.59-1.7.622-1.343-12.481-4.095-15.839-6.675-3.382-2.383-6.142-8.493-4.095-7.706s5.233,2.039,4.668.59-10.2-7.625-11.261-10.556c-1.1-2.711,8.616,2.457,8.714,1.212.106-.983-11.105-5.864-13.669-10.262-2.588-4.226-3.456-8.4-3.022-8.484s6.421,4.521,7.174,3.923c.672-.418-12.031-27.656-1.122-38.729,13.726,2.866,30.867,17.28,30.908,17.256.7-.549-.467-6.4-.147-6.716s3.153,1.294,5.594,3.931c2.293,2.6,3.391,12.342,4.512,12.284.909-.123-.819-8.517,1.269-7.494,1.908,1.007,5.135,8.812,6.38,9.1s.581-2.326.344-3.931,4.259.074,5.782,2.375c1.351,2.318,3.472,12.645,4.832,11.678,1.106-1.016-.819-10.507,1.507-8.493,2.146,1.933,3.063,10.425,5.143,10.376,1.916-.082-.344-7.231-.262-7.223a56.188,56.188,0,0,1,5.823,4.316c2.1,1.859,1.089,10.647,3.137,11.367,1.867.672-.049-8.894.074-8.878a14.6,14.6,0,0,1,4.734,2.915c2.809,2.334,1.744,7.1,4.406,9.369s3.874-3.431,3.882-3.423C154.668,317.172,159.524,328.588,160.949,336.672Z" transform="translate(-8.283 -46.723)" fill="#6fa0fd" fill-rule="evenodd"/>
        <path id="Path_22389" data-name="Path 22389" d="M242.193,346.977H311.5a11.311,11.311,0,0,0,4.521-2.744c4.5-4.545,5.856-7.731,5.864-7.715,0,.156-13.1,3.874-11.466.942,1.572-2.719,12.719-2.653,15.8-6.552A79.666,79.666,0,0,0,333,320.189c0,.106-9.656,6.208-9.459,3.227.2-2.76,11.269-7.625,13.7-12.383,2.457-4.5-9.6,3.628-10.868,2.121-1.2-1.171,11.564-9.434,14.062-13.562,2.621-3.915,3.038-11.523,1.228-9.828s-4.717,4.3-4.717,2.531,7.7-12.284,7.625-15.8c.057-3.325-8.124,6.118-8.738,4.856-.508-1.007,9.369-10.769,10.286-16.486,1.016-5.536.229-10.319-.262-10.229s-4.955,7.42-6,7.1c-.884-.172,1.45-34.249-14.659-41.53-13.374,8.656-25.65,30.957-25.707,30.94-.966-.287-2.121-6.969-2.588-7.174s-2.817,2.662-4.324,6.453c-1.368,3.7,1.45,14.479.238,14.856-1.024.238-2.629-9.361-4.414-7.42-1.638,1.851-1.834,11.465-3.047,12.284s-1.564-2.228-1.974-4.021-4.48,1.818-5.151,4.873c-.491,3.014,1.491,14.831-.352,14.365-1.581-.622-3.4-11.466-5.069-8.394-1.482,2.932,1.024,12.284-1.2,13.1-2.064.688-2.6-7.813-2.678-7.772a67.113,67.113,0,0,0-4.406,6.961c-1.466,2.809,3.194,11.719,1.319,13.333-1.7,1.474-3.587-9.451-3.71-9.377s-1.81,1.359-3.816,5.02,1.048,8.239-.819,11.736-5.512-2.056-5.52-2.039C240.875,323.711,240.383,337.756,242.193,346.977Z" transform="translate(-43.559 -39.724)" fill="#7aa9ff" fill-rule="evenodd"/>
        <path id="Path_22390" data-name="Path 22390" d="M352.358,202.859c-6.4,7.272-11.466,15.994-15.855,24.569a156.3,156.3,0,0,0-15.634,49.138l-.819-.295a159.7,159.7,0,0,1,15.233-48.319c4.463-8.935,9.729-18.017,16.379-25.568C352.006,201.958,352.768,202.449,352.358,202.859Z" transform="translate(-57.798 -36.467)" fill="#3f79da" fill-rule="evenodd"/>
        <path id="Path_22391" data-name="Path 22391" d="M317.1,289.743s-1.5-8.132-14.537-13.513C302.56,276.23,306.286,286.287,317.1,289.743Z" transform="translate(-54.632 -49.865)" fill="#3f79da" fill-rule="evenodd"/>
        <path id="Path_22392" data-name="Path 22392" d="M317.753,281.8s-1.908-8.959-17.043-15.167A28.885,28.885,0,0,0,317.753,281.8Z" transform="translate(-54.297 -48.128)" fill="#3f79da" fill-rule="evenodd"/>
        <path id="Path_22393" data-name="Path 22393" d="M319.482,275.314s-.6-9.148-14.692-17.444a28.893,28.893,0,0,0,14.692,17.444Z" transform="translate(-55.036 -46.542)" fill="#3f79da" fill-rule="evenodd"/>
        <path id="Path_22394" data-name="Path 22394" d="M322.262,268.415s.36-9.156-12.792-18.885a28.909,28.909,0,0,0,12.792,18.885Z" transform="translate(-55.883 -45.032)" fill="#3f79da" fill-rule="evenodd"/>
        <path id="Path_22395" data-name="Path 22395" d="M324.02,258.752s.172-10.565-15.56-22.112A35.215,35.215,0,0,0,324.02,258.752Z" transform="translate(-55.7 -42.698)" fill="#3f79da" fill-rule="evenodd"/>
        <path id="Path_22396" data-name="Path 22396" d="M327.115,249.6s.188-10.966-16.125-22.988A36.567,36.567,0,0,0,327.115,249.6Z" transform="translate(-56.158 -40.882)" fill="#3f79da" fill-rule="evenodd"/>
        <path id="Path_22397" data-name="Path 22397" d="M330.114,241.6s1.933-10.794-12.284-25.265A36.542,36.542,0,0,0,330.114,241.6Z" transform="translate(-57.397 -39.021)" fill="#3f79da" fill-rule="evenodd"/>
        <path id="Path_22398" data-name="Path 22398" d="M335.221,232.225s3.014-9.426-7.952-24.045a32.914,32.914,0,0,0,7.952,24.045Z" transform="translate(-59.088 -37.546)" fill="#3f79da" fill-rule="evenodd"/>
        <path id="Path_22399" data-name="Path 22399" d="M340.416,223.452s2.359-8.509-8.059-22.292a32.5,32.5,0,0,0,8.059,22.292Z" transform="translate(-60.024 -36.275)" fill="#3f79da" fill-rule="evenodd"/>
        <path id="Path_22400" data-name="Path 22400" d="M345.293,215.049s1.638-7.2-7.706-19.459C337.546,195.59,337.161,205.655,345.293,215.049Z" transform="translate(-60.971 -35.267)" fill="#3f79da" fill-rule="evenodd"/>
        <path id="Path_22401" data-name="Path 22401" d="M349.594,210.487s2.285-5.962-3.972-18.787C345.622,191.7,344,200.455,349.594,210.487Z" transform="translate(-62.388 -34.563)" fill="#3f79da" fill-rule="evenodd"/>
        <path id="Path_22402" data-name="Path 22402" d="M354.125,204.711s2.514-4.914-2.113-14.561A20.056,20.056,0,0,0,354.125,204.711Z" transform="translate(-63.488 -34.282)" fill="#3f79da" fill-rule="evenodd"/>
        <path id="Path_22403" data-name="Path 22403" d="M357.78,201.471s6.953-1.22,8.141-11.081C365.921,190.39,358.05,193.633,357.78,201.471Z" transform="translate(-64.629 -34.325)" fill="#3f79da" fill-rule="evenodd"/>
        <path id="Path_22404" data-name="Path 22404" d="M369.23,202.657s-5.143-1.965-14.25,3.677A20.024,20.024,0,0,0,369.23,202.657Z" transform="translate(-64.122 -36.486)" fill="#3f79da" fill-rule="evenodd"/>
        <path id="Path_22405" data-name="Path 22405" d="M320.27,291.39s6.331-5.323,19.811-1.179A24.016,24.016,0,0,1,320.27,291.39Z" transform="translate(-57.838 -52.111)" fill="#3f79da" fill-rule="evenodd"/>
        <path id="Path_22406" data-name="Path 22406" d="M322.94,278.214s6.281-6.675,22.44-4.095A28.917,28.917,0,0,1,322.94,278.214Z" transform="translate(-58.322 -49.376)" fill="#3f79da" fill-rule="evenodd"/>
        <path id="Path_22407" data-name="Path 22407" d="M324.65,270.492s5.553-7.289,21.891-6.437A28.918,28.918,0,0,1,324.65,270.492Z" transform="translate(-58.631 -47.649)" fill="#3f79da" fill-rule="evenodd"/>
        <path id="Path_22408" data-name="Path 22408" d="M327.17,261.53s6.552-8.255,26.092-7.19A35.215,35.215,0,0,1,327.17,261.53Z" transform="translate(-59.087 -45.885)" fill="#3f79da" fill-rule="evenodd"/>
        <path id="Path_22409" data-name="Path 22409" d="M330.41,252.234s6.83-8.583,27.026-7.485A36.575,36.575,0,0,1,330.41,252.234Z" transform="translate(-59.674 -44.149)" fill="#3f79da" fill-rule="evenodd"/>
        <path id="Path_22410" data-name="Path 22410" d="M333.21,244.055s5.372-9.557,25.527-11.695a36.542,36.542,0,0,1-25.527,11.695Z" transform="translate(-60.181 -41.923)" fill="#3f79da" fill-rule="evenodd"/>
        <path id="Path_22411" data-name="Path 22411" d="M337.47,234.324s4.693-8.714,22.825-10.974A32.947,32.947,0,0,1,337.47,234.324Z" transform="translate(-60.952 -40.292)" fill="#3f79da" fill-rule="evenodd"/>
        <path id="Path_22412" data-name="Path 22412" d="M342.6,224.6s3.6-8.059,20.4-12.072A32.488,32.488,0,0,1,342.6,224.6Z" transform="translate(-61.881 -38.333)" fill="#3f79da" fill-rule="evenodd"/>
        <path id="Path_22413" data-name="Path 22413" d="M350.64,212.9s3.931-5.037,18.148-6.3C368.788,206.6,362.122,212.513,350.64,212.9Z" transform="translate(-63.336 -37.26)" fill="#3f79da" fill-rule="evenodd"/>
        <path id="Path_22414" data-name="Path 22414" d="M321.29,284.446s7.174-5.733,22.8-.86a28.918,28.918,0,0,1-22.8.86Z" transform="translate(-58.023 -50.842)" fill="#3f79da" fill-rule="evenodd"/>
        <path id="Path_22415" data-name="Path 22415" d="M246.38,327.45,311.021,352.4a11.262,11.262,0,0,0,5.217-.934,29.574,29.574,0,0,0,8.247-5.078c.008.016-13.652-1.114-11.056-3.276,2.457-1.974,12.817,2.1,17.1-.434a80.127,80.127,0,0,0,10.188-7.559c0,.106-11.244,2.309-9.991-.393,1.179-2.506,13.259-3.055,17.247-6.617,3.882-3.325-10.27-.074-10.909-1.933-.7-1.523,14.184-4.644,18.017-7.592,3.849-2.711,6.978-9.656,4.693-8.755s-5.946,2.309-5.315.663c.672-1.507,11.588-8.665,12.8-11.99,1.253-3.087-9.828,2.776-9.9,1.376-.115-1.114,12.62-6.666,15.56-11.662,2.94-4.8,3.923-9.549,3.44-9.639s-7.3,5.127-8.19,4.455c-.762-.475,13.685-31.432,1.278-44.019-15.56,3.276-35.076,19.655-35.125,19.655-.819-.622.541-7.264.172-7.633s-3.587,1.474-6.355,4.463c-2.612,2.965-3.857,14.029-5.127,13.922-1.04-.139.917-9.68-1.45-8.517-2.17,1.147-5.831,10.016-7.248,10.344s-.663-2.645-.393-4.463-4.84.074-6.552,2.694c-1.54,2.629-3.947,14.365-5.5,13.267-1.253-1.147.958-11.932-1.712-9.656-2.457,2.2-3.481,11.859-5.847,11.8-2.17-.1.393-8.19.3-8.19A65.06,65.06,0,0,0,288,281.612c-2.375,2.1-1.237,12.08-3.571,12.915-2.121.753.057-10.114-.082-10.09a16.831,16.831,0,0,0-5.372,3.276c-3.194,2.653-1.982,8.067-5.012,10.647s-4.406-3.9-4.414-3.882C253.513,305.338,248,318.22,246.38,327.45Z" transform="translate(-44.462 -43.127)" fill="#6fa0fd" fill-rule="evenodd"/>
        <path id="Path_22416" data-name="Path 22416" d="M91.5,217.064c6.4,7.272,11.465,15.994,15.847,24.569a156.3,156.3,0,0,1,15.634,49.138l.819-.3a159.7,159.7,0,0,0-15.233-48.319c-4.463-8.935-9.729-18.017-16.379-25.576C91.84,216.139,91.12,216.639,91.5,217.064Z" transform="translate(-16.403 -39.035)" fill="#3f79da" fill-rule="evenodd"/>
        <path id="Path_22417" data-name="Path 22417" d="M130.7,303.931s1.5-8.132,14.537-13.521C145.237,290.41,141.51,300.475,130.7,303.931Z" transform="translate(-23.519 -52.433)" fill="#3f79da" fill-rule="evenodd"/>
        <path id="Path_22418" data-name="Path 22418" d="M129.49,295.987s1.908-8.968,17.051-15.167a28.942,28.942,0,0,1-17.051,15.167Z" transform="translate(-23.3 -50.696)" fill="#3f79da" fill-rule="evenodd"/>
        <path id="Path_22419" data-name="Path 22419" d="M128.28,289.5s.606-9.14,14.7-17.444A28.918,28.918,0,0,1,128.28,289.5Z" transform="translate(-23.081 -49.111)" fill="#3f79da" fill-rule="evenodd"/>
        <path id="Path_22420" data-name="Path 22420" d="M125.92,282.605s-.36-9.156,12.792-18.885A28.909,28.909,0,0,1,125.92,282.605Z" transform="translate(-22.654 -47.601)" fill="#3f79da" fill-rule="evenodd"/>
        <path id="Path_22421" data-name="Path 22421" d="M123.55,272.942s-.172-10.565,15.56-22.112a35.215,35.215,0,0,1-15.56,22.112Z" transform="translate(-22.225 -45.267)" fill="#3f79da" fill-rule="evenodd"/>
        <path id="Path_22422" data-name="Path 22422" d="M120.33,263.786s-.188-10.966,16.125-23a36.575,36.575,0,0,1-16.125,23Z" transform="translate(-21.642 -43.45)" fill="#3f79da" fill-rule="evenodd"/>
        <path id="Path_22423" data-name="Path 22423" d="M118.16,255.785s-1.933-10.8,12.284-25.265A36.542,36.542,0,0,1,118.16,255.785Z" transform="translate(-21.233 -41.59)" fill="#3f79da" fill-rule="evenodd"/>
        <path id="Path_22424" data-name="Path 22424" d="M113.966,246.4s-3.014-9.418,7.96-24.045a32.98,32.98,0,0,1-7.96,24.045Z" transform="translate(-20.421 -40.113)" fill="#3f79da" fill-rule="evenodd"/>
        <path id="Path_22425" data-name="Path 22425" d="M108.76,237.642s-2.35-8.509,8.059-22.292a32.5,32.5,0,0,1-8.059,22.292Z" transform="translate(-19.506 -38.844)" fill="#3f79da" fill-rule="evenodd"/>
        <path id="Path_22426" data-name="Path 22426" d="M104.036,229.23s-1.638-7.191,7.706-19.45A30.648,30.648,0,0,1,104.036,229.23Z" transform="translate(-18.672 -37.836)" fill="#3f79da" fill-rule="evenodd"/>
        <path id="Path_22427" data-name="Path 22427" d="M100.4,224.677s-2.285-5.962,3.972-18.787C104.372,205.89,105.994,214.645,100.4,224.677Z" transform="translate(-17.96 -37.131)" fill="#3f79da" fill-rule="evenodd"/>
        <path id="Path_22428" data-name="Path 22428" d="M96.158,218.9s-2.522-4.914,2.1-14.569A20.048,20.048,0,0,1,96.158,218.9Z" transform="translate(-17.142 -36.849)" fill="#3f79da" fill-rule="evenodd"/>
        <path id="Path_22429" data-name="Path 22429" d="M91.431,215.661s-6.953-1.22-8.141-11.081C83.29,204.58,91.16,207.823,91.431,215.661Z" transform="translate(-14.936 -36.894)" fill="#3f79da" fill-rule="evenodd"/>
        <path id="Path_22430" data-name="Path 22430" d="M78.63,216.847s5.143-1.966,14.25,3.677a20.024,20.024,0,0,1-14.25-3.677Z" transform="translate(-14.093 -39.055)" fill="#3f79da" fill-rule="evenodd"/>
        <path id="Path_22431" data-name="Path 22431" d="M126.361,305.62s-6.331-5.323-19.811-1.187C106.55,304.432,115.821,309.829,126.361,305.62Z" transform="translate(-19.147 -54.686)" fill="#3f79da" fill-rule="evenodd"/>
        <path id="Path_22432" data-name="Path 22432" d="M123.11,292.4s-6.281-6.675-22.44-4.095A28.9,28.9,0,0,0,123.11,292.4Z" transform="translate(-18.083 -51.945)" fill="#3f79da" fill-rule="evenodd"/>
        <path id="Path_22433" data-name="Path 22433" d="M121.521,284.682s-5.553-7.289-21.891-6.437a28.918,28.918,0,0,0,21.891,6.437Z" transform="translate(-17.895 -50.218)" fill="#3f79da" fill-rule="evenodd"/>
        <path id="Path_22434" data-name="Path 22434" d="M118.072,275.72s-6.552-8.255-26.092-7.191A35.215,35.215,0,0,0,118.072,275.72Z" transform="translate(-16.51 -48.454)" fill="#3f79da" fill-rule="evenodd"/>
        <path id="Path_22435" data-name="Path 22435" d="M114.626,266.424s-6.83-8.591-27.026-7.485a36.575,36.575,0,0,0,27.026,7.485Z" transform="translate(-15.717 -46.717)" fill="#3f79da" fill-rule="evenodd"/>
        <path id="Path_22436" data-name="Path 22436" d="M112.157,258.245s-5.372-9.557-25.527-11.695A36.542,36.542,0,0,0,112.157,258.245Z" transform="translate(-15.541 -44.492)" fill="#3f79da" fill-rule="evenodd"/>
        <path id="Path_22437" data-name="Path 22437" d="M108.495,248.514S103.8,239.8,85.67,237.54a32.947,32.947,0,0,0,22.825,10.974Z" transform="translate(-15.367 -42.861)" fill="#3f79da" fill-rule="evenodd"/>
        <path id="Path_22438" data-name="Path 22438" d="M103.9,238.79s-3.612-8.067-20.4-12.08a32.48,32.48,0,0,0,20.4,12.08Z" transform="translate(-14.974 -40.901)" fill="#3f79da" fill-rule="evenodd"/>
        <path id="Path_22439" data-name="Path 22439" d="M96.358,227.088s-3.931-5.037-18.148-6.3C78.21,220.79,84.876,226.695,96.358,227.088Z" transform="translate(-14.017 -39.829)" fill="#3f79da" fill-rule="evenodd"/>
        <path id="Path_22440" data-name="Path 22440" d="M124.68,298.629s-7.174-5.733-22.8-.819a28.909,28.909,0,0,0,22.8.819Z" transform="translate(-18.302 -53.412)" fill="#3f79da" fill-rule="evenodd"/>
        <path id="Path_22441" data-name="Path 22441" d="M197.573,380.716c59.539,0,108.1-3.341,108.1-7.428s-48.565-7.428-108.1-7.428-108.1,3.333-108.1,7.428S138.043,380.716,197.573,380.716Z" transform="translate(-16.055 -66.092)" fill="#bedaf7" fill-rule="evenodd"/>
        <path id="Path_22442" data-name="Path 22442" d="M275.471,75.875V297.5a19.737,19.737,0,0,1-19.737,19.77H158.277a19.737,19.737,0,0,1-19.737-19.745V75.875A19.753,19.753,0,0,1,158.277,56.13h97.457a19.753,19.753,0,0,1,19.737,19.745Z" transform="translate(-24.939 -10.019)" fill="#6fa0fd" fill-rule="evenodd"/>
        <rect id="Rectangle_167" data-name="Rectangle 167" width="126.243" height="250.406" rx="17.57" transform="translate(118.941 51.467)" fill="#edf7fb"/>
        <ellipse id="Ellipse_41" data-name="Ellipse 41" cx="38.344" cy="6.748" rx="38.344" ry="6.748" transform="translate(142.683 252.776)" fill="#aabeeb"/>
        <path id="Path_22443" data-name="Path 22443" d="M306.887,157.741H305.74V105.45h1.147a2.58,2.58,0,0,1,2.588,2.588v47.115a2.58,2.58,0,0,1-2.588,2.588Z" transform="translate(-55.208 -18.948)" fill="#407adb" fill-rule="evenodd"/>
        <path id="Path_22444" data-name="Path 22444" d="M137.752,129.8h-1.065a2.4,2.4,0,0,1-2.408-2.408V106.768a2.408,2.408,0,0,1,2.4-2.408h1.073Z" transform="translate(-24.167 -18.751)" fill="#407adb" fill-rule="evenodd"/>
        <path id="Path_22445" data-name="Path 22445" d="M137.85,165.839h-.934a2.1,2.1,0,0,1-2.1-2.1V152.277a2.1,2.1,0,0,1,2.1-2.1h.934Z" transform="translate(-24.265 -27.046)" fill="#407adb" fill-rule="evenodd"/>
        <path id="Path_22446" data-name="Path 22446" d="M182.658,56.13h64.7v9.3a9.328,9.328,0,0,1-9.3,9.3H191.945a9.328,9.328,0,0,1-9.3-9.3Z" transform="translate(-32.924 -10.019)" fill="#6fa0fd" fill-rule="evenodd"/>
        <path id="Path_22447" data-name="Path 22447" d="M204.314,66.984a2.252,2.252,0,1,1-2.244-2.244A2.252,2.252,0,0,1,204.314,66.984Z" transform="translate(-36.031 -11.578)" fill="#424b96" fill-rule="evenodd"/>
        <rect id="Rectangle_168" data-name="Rectangle 168" width="30.138" height="3.3" rx="1.39" transform="translate(170.274 53.76)" fill="#424b96"/>
        <path id="Path_22448" data-name="Path 22448" d="M130.382,161.656c2.269-1.13,5.5,1.155,7.256,5.1,1.294.278,2.178,2.2,2.006,4.5a5.363,5.363,0,0,1-1.982,4.16,3.022,3.022,0,0,1-.958.778c-2.293,1.138-5.561-1.2-7.313-5.217S128.056,162.794,130.382,161.656Z" transform="translate(-23.087 -29.071)" fill="#fdceae" fill-rule="evenodd"/>
        <path id="Path_22449" data-name="Path 22449" d="M298.1,196.936c-2.269-1.13-5.5,1.155-7.256,5.1-1.294.278-2.178,2.2-2.015,4.5a5.389,5.389,0,0,0,1.982,4.16,3.146,3.146,0,0,0,.966.778c2.293,1.138,5.561-1.2,7.305-5.217S300.381,198.042,298.1,196.936Z" transform="translate(-52.142 -35.458)" fill="#fdceae" fill-rule="evenodd"/>
        <path id="Path_22450" data-name="Path 22450" d="M199.291,205.131l-16.42,2.326c-20.843,2.94-35.543-10.163-42.406-31.456a8.231,8.231,0,0,1-6.945,2.252c3.276,27.067,18.836,42.635,46.157,48.466.68,21.2,1.826,44.126,1.31,64.96a119.668,119.668,0,0,0,46.067,1.138,324.621,324.621,0,0,1,.614-60.227c6.978,7.043,19.925,15.478,24.479,14.659,8.042-1.474,12.35-21.67,14.881-39.908a7.264,7.264,0,0,1-6.314-4.578c-3.128,10.188-6.765,18.672-10.728,28.222-14.52-9.533-20.007-18.181-36.559-26.641Z" transform="translate(-24.03 -31.72)" fill="#9ec8ff" fill-rule="evenodd"/>
        <path id="Path_22451" data-name="Path 22451" d="M213.55,201.66h14.365v7.371c4,3.906,1.9,6.9-3.8,6.609-4.848-.254-10.565-1.941-10.565-7.69Z" transform="translate(-38.518 -36.366)" fill="#fdceae" fill-rule="evenodd"/>
        <path id="Path_22452" data-name="Path 22452" d="M213.549,201.66h14.365v3.669l-12.145,7.608a6.339,6.339,0,0,1-2.219-5.028Z" transform="translate(-38.517 -36.366)" fill="#f3b898" fill-rule="evenodd"/>
        <path id="Path_22453" data-name="Path 22453" d="M230.322,164.508l-20.081,28.074.18,3.1c-5.561-7.764-11.334-9.336-13.832-17.632-3.276-10.933-.524-20.31,9.172-23.807,2.866-1.032,6.273,1.007,9.009-.459,7-3.751,10.04-2.293,10.647.336,1.016,4.357,8.272-1.875,10.417,2.26S235.4,163.779,230.322,164.508Z" transform="translate(-35.209 -27.288)" fill="#424b96" fill-rule="evenodd"/>
        <path id="Path_22454" data-name="Path 22454" d="M218.182,169.2a25,25,0,0,0,13.652-1.818c7.068,11.867,7.322,28.557-5.225,31.751-6.937,1.777-16.265-.884-17.387-9.3-4.914-.5-7.109-8.509-4.472-10.589,2.776-2.187,4.684,1.908,5.127,4.275l1.212-.352-.647-6.388a15.479,15.479,0,0,0,7.739-7.584Z" transform="translate(-36.721 -30.16)" fill="#fdceae" fill-rule="evenodd"/>
        <path id="Path_22455" data-name="Path 22455" d="M218.189,169.2a25,25,0,0,0,13.652-1.818,20.859,20.859,0,0,1-13.161,6.363c-5.856,9.787-2.981,21.416,10.057,24.692a13.292,13.292,0,0,1-2.088.7c-6.937,1.777-16.265-.884-17.387-9.3-4.914-.5-7.109-8.509-4.472-10.589,2.776-2.187,4.684,1.908,5.127,4.275l1.212-.352-.647-6.388A15.478,15.478,0,0,0,218.189,169.2Z" transform="translate(-36.728 -30.16)" fill="#f3b898" fill-rule="evenodd"/>
        <path id="Path_22456" data-name="Path 22456" d="M291.22,198.64l5.348-1.22,1.99,8.714a1.286,1.286,0,0,1-.958,1.54l-2.842.647a1.286,1.286,0,0,1-1.54-.966Z" transform="translate(-52.579 -35.598)" fill="#3b70cc" fill-rule="evenodd"/>
        <path id="Path_22457" data-name="Path 22457" d="M282.967,174c12.186-1.908,22.489-5.2,28.3-12.817L323.243,188.3l-8.034,9.746c-11.408-7.133-19.7-6.683-30.2-5.684a9.074,9.074,0,0,1-10.09-7.911h0a9.23,9.23,0,0,1,.819-5h0a1.017,1.017,0,0,1,.082-.164h0a9.564,9.564,0,0,1,.581-1.016h0l.106-.147h0l.1-.131h0l.106-.139h0l.115-.147h0c.147-.2.311-.385.475-.565h0l.1-.106.049-.049.09-.09.057-.066.09-.082.057-.057.09-.09.065-.057.1-.09h.041l.106-.1.156-.131.1-.074.065-.057.1-.066.074-.057.1-.074.065-.049.1-.074.082-.057.09-.057.106-.066.066-.049.115-.074h.074l.123-.074h.106l.139-.074h.057l.131-.066h.074l.123-.057.074-.041.115-.049.09-.041.115-.049h.082l.131-.057h.065l.147-.057h.057l.188-.066h.082l.131-.041h1.163Z" transform="translate(-49.617 -29.037)" fill="#aabeeb" fill-rule="evenodd"/>
        <path id="Path_22458" data-name="Path 22458" d="M284.039,174c12.186-1.908,22.489-5.2,28.3-12.817a59.3,59.3,0,0,0-2.719,28.344,70.145,70.145,0,0,0-23.168-.655l-5.675-13.734h0l.139-.074h.057l.131-.066h.074l.123-.057.074-.041.115-.049.09-.041.115-.049h.082l.131-.057h.065l.147-.057h.057l.188-.066h.082l.131-.041h1.163Z" transform="translate(-50.689 -29.037)" fill="#b7cdfe" fill-rule="evenodd"/>
        <path id="Path_22459" data-name="Path 22459" d="M282.971,176.759c.663-.1,1.319-.213,1.966-.319a42.725,42.725,0,0,0-.131,11.179,45.66,45.66,0,0,0,1.417,7.371l-1.212.106a9.074,9.074,0,0,1-10.09-7.911h0a9.639,9.639,0,0,1,8.05-10.425Z" transform="translate(-49.62 -31.8)" fill="#407adb" fill-rule="evenodd"/>
        <path id="Path_22460" data-name="Path 22460" d="M330.368,143.419c8.73-.966,17.387,12.456,19.328,30s-3.554,32.529-12.284,33.5-17.387-12.465-19.328-30S321.638,144.386,330.368,143.419Z" transform="translate(-57.372 -25.813)" fill="#b7cdfe" fill-rule="evenodd"/>
        <path id="Path_22461" data-name="Path 22461" d="M331.013,145.812c7.649-.819,15.331,11.8,17.157,28.254s-2.891,30.482-10.54,31.325-15.331-11.8-17.157-28.254S323.364,146.663,331.013,145.812Z" transform="translate(-57.804 -26.248)" fill="#aabeeb" fill-rule="evenodd"/>
        <ellipse id="Ellipse_42" data-name="Ellipse 42" cx="12.628" cy="27.828" rx="12.628" ry="27.828" transform="translate(260.889 123.109) rotate(-6.33)" fill="#6fa0fd"/>
        <path id="Path_22462" data-name="Path 22462" d="M329.206,201.834c-3.456-4.75-6.175-12.358-7.15-21.129a54.772,54.772,0,0,1,.213-14.455c3.956-.09,8.026,7.887,9.156,18.115C332.252,191.842,331.294,198.492,329.206,201.834Z" transform="translate(-58.093 -29.955)" fill="#5e94ea" fill-rule="evenodd"/>
        <path id="Path_22463" data-name="Path 22463" d="M330.635,179.578,321.7,177.35c.041,1.744.156,3.538.36,5.364a59.8,59.8,0,0,0,1.212,7.076l8.19-3.006Z" transform="translate(-58.097 -31.965)" fill="#505bb5" fill-rule="evenodd"/>
        <path id="Path_22464" data-name="Path 22464" d="M322.43,185.887l8.755-1.417.418,3.6-8.19,3.006C323.011,189.417,322.684,187.68,322.43,185.887Z" transform="translate(-58.229 -33.254)" fill="#424b96" fill-rule="evenodd"/>
        <path id="Path_22465" data-name="Path 22465" d="M332.285,180.069c1.016-.115,2.015,1.409,2.236,3.4s-.418,3.7-1.433,3.816-2.006-1.417-2.228-3.407S331.278,180.183,332.285,180.069Z" transform="translate(-59.748 -32.456)" fill="#aabeeb" fill-rule="evenodd"/>
        <path id="Path_22466" data-name="Path 22466" d="M288.005,176.23a42.474,42.474,0,0,0-.147,11.244,46.228,46.228,0,0,0,1.425,7.42l-.934.09a45.653,45.653,0,0,1-1.417-7.371,42.726,42.726,0,0,1,.131-11.179Z" transform="translate(-51.748 -31.762)" fill="#424b96" fill-rule="evenodd"/>
        <path id="Path_22467" data-name="Path 22467" d="M126.5,128.88l8.091,11.2a17.815,17.815,0,0,1-28.868,20.884l-8.1-11.187,6.855-4.963,8.1,11.2a9.377,9.377,0,0,0,13.1,2.1h0a9.385,9.385,0,0,0,2.1-13.1l-8.1-11.187Z" transform="translate(-17.531 -23.19)" fill="#b7cdfe" fill-rule="evenodd"/>
        <rect id="Rectangle_169" data-name="Rectangle 169" width="8.46" height="9.353" transform="matrix(0.81, -0.586, 0.586, 0.81, 74.762, 119.24)" fill="#424b96"/>
        <path id="Path_22468" data-name="Path 22468" d="M96.561,152.011l-.057-.09L91,144.256l.082-.057,6.945-5.028.066.09,5.544,7.666-.09.066ZM91.254,144.3l5.356,7.412,6.683-4.84-5.356-7.371Z" transform="translate(-16.332 -25.053)" fill="#3f79dc"/>
        <rect id="Rectangle_170" data-name="Rectangle 170" width="8.46" height="9.353" transform="matrix(0.81, -0.586, 0.586, 0.81, 96.79, 103.303)" fill="#424b96"/>
        <path id="Path_22469" data-name="Path 22469" d="M363.04,159.364l.794,1.982,19.237-7.068-2.637-5.8Z" transform="translate(-65.581 -26.738)" fill="#b7cdfe" fill-rule="evenodd"/>
        <path id="Path_22470" data-name="Path 22470" d="M365.29,178.263l.27,3.685,28.983,4.218-.393-8.566Z" transform="translate(-65.989 -32.01)" fill="#b7cdfe" fill-rule="evenodd"/>
        <path id="Path_22471" data-name="Path 22471" d="M363.427,195.94l-1.187,2.768,15.02,13.046,2.768-4.611Z" transform="translate(-65.436 -35.33)" fill="#b7cdfe" fill-rule="evenodd"/>
        <rect id="Rectangle_171" data-name="Rectangle 171" width="50.735" height="47.262" rx="14.31" transform="translate(46.569 163.476)" fill="#b7cdfe"/>
        <path id="Path_22472" data-name="Path 22472" d="M70.839,211.93H97.046a3.775,3.775,0,0,1,3.775,3.775v19.262a3.767,3.767,0,0,1-3.767,3.767H70.847a3.767,3.767,0,0,1-3.767-3.767V215.7a3.767,3.767,0,0,1,3.759-3.767Z" transform="translate(-12.002 -38.225)" fill="#fff"/>
        <path id="Path_22473" data-name="Path 22473" d="M84.551,227.683,70.44,215.3l14.111,8.959,14.1-8.959Z" transform="translate(-12.61 -38.835)" fill="#b7cdfe" fill-rule="evenodd"/>
        <circle id="Ellipse_43" data-name="Ellipse 43" cx="21.031" cy="21.031" r="21.031" transform="translate(234.522 54.964) rotate(-16.96)" fill="#b7cdfe"/>
        <path id="Path_22474" data-name="Path 22474" d="M319.593,74.406l-9.369,4.259c-.139-.074-.295-.221-.442-.311a4,4,0,1,0-1.048,7.24,4.274,4.274,0,0,0,1.016-.467,3.4,3.4,0,0,0,.426-.319,4.21,4.21,0,0,1,.418-.369,9.107,9.107,0,0,1,.868.467c2.539,1.425,5.209,2.842,7.756,4.242.581.319.344.131.532.778a4.013,4.013,0,1,0,3.98-5.151,4.1,4.1,0,0,0-2.137.541,3.866,3.866,0,0,0-.745.565,5.734,5.734,0,0,0-.614.737c-.18,0-6.044-3.276-6.462-3.513l-2.17-1.171-.041-1.007c1.5-.68,2.981-1.368,4.5-2.047.278-.123,4.349-2.006,4.537-2.031a4.021,4.021,0,0,0,6.765-1.228A4.136,4.136,0,0,0,327.3,72.6a4.021,4.021,0,0,0-6.83-.9,3.948,3.948,0,0,0-.819,1.834C319.593,73.857,319.626,74.128,319.593,74.406Z" transform="translate(-54.827 -12.563)" fill="#fff" fill-rule="evenodd"/>
        <path id="Path_22475" data-name="Path 22475" d="M76.118,69.557h54.428a11.564,11.564,0,1,0,0-23.119,12.039,12.039,0,0,0-6.486,1.884A11.465,11.465,0,0,0,104.994,37.15a9.385,9.385,0,1,0-17.763,5.733h-.565a8.386,8.386,0,0,0-8.386,8.353,8.545,8.545,0,0,0,.361,2.459,8.19,8.19,0,1,0-2.523,15.861Z" transform="translate(-12.096 -5.232)" fill="#b7cdfe" fill-rule="evenodd"/>
        <rect id="Rectangle_172" data-name="Rectangle 172" width="93.583" height="4.029" rx="2.015" transform="translate(139.587 89.278)" fill="#cfd8fc"/>
        <rect id="Rectangle_173" data-name="Rectangle 173" width="93.583" height="4.029" rx="2.015" transform="translate(139.587 100.572)" fill="#cfd8fc"/>
        <rect id="Rectangle_174" data-name="Rectangle 174" width="93.583" height="4.029" rx="2.015" transform="translate(139.587 111.865)" fill="#cfd8fc"/>
        <rect id="Rectangle_175" data-name="Rectangle 175" width="5.11" height="4.029" rx="2.015" transform="translate(130.939 89.278)" fill="#407adb"/>
        <rect id="Rectangle_176" data-name="Rectangle 176" width="5.11" height="4.029" rx="2.015" transform="translate(130.939 100.572)" fill="#407adb"/>
        <rect id="Rectangle_177" data-name="Rectangle 177" width="5.11" height="4.029" rx="2.015" transform="translate(130.939 111.865)" fill="#407adb"/>
        <rect id="Rectangle_178" data-name="Rectangle 178" width="93.583" height="4.029" rx="2.015" transform="translate(139.587 274.913)" fill="#cfd8fc"/>
        <rect id="Rectangle_179" data-name="Rectangle 179" width="93.583" height="4.029" rx="2.015" transform="translate(139.587 286.206)" fill="#cfd8fc"/>
        <rect id="Rectangle_180" data-name="Rectangle 180" width="5.11" height="4.029" rx="2.015" transform="translate(130.939 274.913)" fill="#407adb"/>
        <rect id="Rectangle_181" data-name="Rectangle 181" width="5.11" height="4.029" rx="2.015" transform="translate(130.939 286.206)" fill="#407adb"/>
        <rect id="Rectangle_182" data-name="Rectangle 182" width="79.669" height="54.723" rx="9.87" transform="translate(226.7 236.004)" fill="#b7cdfe"/>
        <path id="Path_22476" data-name="Path 22476" d="M312.18,309.12l21.465,10.057L312.18,329.242Z" transform="translate(-56.374 -55.82)" fill="#fff" fill-rule="evenodd"/>
        <path id="Path_22477" data-name="Path 22477" d="M89.645,302.313h11.539l2.956-4.914a2.195,2.195,0,0,1,2.219-1.4h11.465a2.195,2.195,0,0,1,2.228,1.441l2.956,4.914h11.539a4.291,4.291,0,0,1,4.275,4.275v29.229a4.291,4.291,0,0,1-4.275,4.275h-44.9a4.283,4.283,0,0,1-4.275-4.275v-29.27A4.283,4.283,0,0,1,89.645,302.313Z" transform="translate(-15.313 -53.443)" fill="#b7cdfe" fill-rule="evenodd"/>
        <path id="Path_22478" data-name="Path 22478" d="M115.647,337.163A10.647,10.647,0,1,0,105,326.517,10.647,10.647,0,0,0,115.647,337.163Z" transform="translate(-18.867 -57.042)" fill="#fff" fill-rule="evenodd"/>
        <path id="Path_22479" data-name="Path 22479" d="M45.606,133.345a11.244,11.244,0,0,1,16.674,14.93l5.119,5.544a1.564,1.564,0,0,1-.09,2.2l-.934.819a1.564,1.564,0,0,1-2.2-.09l-5.094-5.561a11.244,11.244,0,0,1-13.472-17.845Zm2.883,3.145a4.923,4.923,0,1,1,0,.008Z" transform="translate(-7.472 -23.462)" fill="#b7cdfe" fill-rule="evenodd"/>
        <path id="Path_22480" data-name="Path 22480" d="M337.464,36.31a1.384,1.384,0,0,1-1.384-1.384V25.164a1.384,1.384,0,1,1,2.768,0v9.762a1.384,1.384,0,0,1-1.384,1.384Z" transform="translate(-60.7 -4.163)" fill="#aed5fe" fill-rule="evenodd"/>
        <path id="Path_22481" data-name="Path 22481" d="M341.266,32.508H331.5a1.384,1.384,0,1,1,0-2.768h9.762a1.384,1.384,0,1,1,0,2.768Z" transform="translate(-59.621 -5.242)" fill="#aed5fe" fill-rule="evenodd"/>
        <path id="Path_22482" data-name="Path 22482" d="M363.723,126.987a1.237,1.237,0,0,1-1.237-1.237v-8.73a1.245,1.245,0,1,1,2.457,0v8.73a1.245,1.245,0,0,1-1.22,1.237Z" transform="translate(-65.478 -20.781)" fill="#aed5fe" fill-rule="evenodd"/>
        <path id="Path_22483" data-name="Path 22483" d="M367.158,123.637h-8.738a1.245,1.245,0,0,1,0-2.457h8.738a1.245,1.245,0,0,1,0,2.457Z" transform="translate(-64.556 -21.796)" fill="#aed5fe" fill-rule="evenodd"/>
        <path id="Path_22484" data-name="Path 22484" d="M134.945,11.18a1.237,1.237,0,0,1-1.237-1.237V1.205a1.237,1.237,0,1,1,2.457,0V9.944A1.245,1.245,0,0,1,134.945,11.18Z" transform="translate(-24.062 0.173)" fill="#aed5fe" fill-rule="evenodd"/>
        <path id="Path_22485" data-name="Path 22485" d="M138.315,7.805h-8.73a1.237,1.237,0,1,1,0-2.457h8.73a1.237,1.237,0,1,1,0,2.457Z" transform="translate(-23.068 -0.825)" fill="#aed5fe" fill-rule="evenodd"/>
        <path id="Path_22486" data-name="Path 22486" d="M36.635,213.892a1.228,1.228,0,0,1-1.237-1.237v-8.73a1.237,1.237,0,1,1,2.457,0v8.73a1.237,1.237,0,0,1-1.22,1.237Z" transform="translate(-6.265 -36.526)" fill="#aed5fe" fill-rule="evenodd"/>
        <path id="Path_22487" data-name="Path 22487" d="M40.078,210.527H31.339a1.245,1.245,0,0,1,0-2.457h8.738a1.245,1.245,0,0,1,0,2.457Z" transform="translate(-5.343 -37.526)" fill="#aed5fe" fill-rule="evenodd"/>
        <path id="Path_22488" data-name="Path 22488" d="M213.458,31.441A1.474,1.474,0,1,1,211.992,30a1.474,1.474,0,0,1,1.466,1.441Z" transform="translate(-37.968 -5.289)" fill="#aed5fe" fill-rule="evenodd"/>
        <path id="Path_22489" data-name="Path 22489" d="M236.325,15.309A2.342,2.342,0,1,1,233.982,13a2.342,2.342,0,0,1,2.342,2.309Z" transform="translate(-41.793 -2.211)" fill="#aed5fe" fill-rule="evenodd"/>
        <path id="Path_22490" data-name="Path 22490" d="M199.691,15.309A2.35,2.35,0,1,1,197.349,13a2.351,2.351,0,0,1,2.342,2.309Z" transform="translate(-35.158 -2.211)" fill="#aed5fe" fill-rule="evenodd"/>
        <path id="Path_22491" data-name="Path 22491" d="M402.161,220.827a1.474,1.474,0,1,1,1.106-1.761A1.474,1.474,0,0,1,402.161,220.827Z" transform="translate(-72.336 -39.309)" fill="#aed5fe" fill-rule="evenodd"/>
        <path id="Path_22492" data-name="Path 22492" d="M422.7,239.518a2.342,2.342,0,1,1,1.753-2.809,2.342,2.342,0,0,1-1.753,2.809Z" transform="translate(-75.861 -42.382)" fill="#aed5fe" fill-rule="evenodd"/>
        <path id="Path_22493" data-name="Path 22493" d="M414.447,203.817a2.334,2.334,0,1,1,1.466-1.038A2.342,2.342,0,0,1,414.447,203.817Z" transform="translate(-74.369 -35.919)" fill="#aed5fe" fill-rule="evenodd"/>
        <path id="Path_22494" data-name="Path 22494" d="M376,93.9a1.467,1.467,0,1,1,1.1-1.761A1.467,1.467,0,0,1,376,93.9Z" transform="translate(-67.602 -16.333)" fill="#aed5fe" fill-rule="evenodd"/>
        <path id="Path_22495" data-name="Path 22495" d="M396.535,112.588a2.342,2.342,0,1,1,1.753-2.809,2.342,2.342,0,0,1-1.753,2.809Z" transform="translate(-71.125 -19.403)" fill="#aed5fe" fill-rule="evenodd"/>
        <path id="Path_22496" data-name="Path 22496" d="M388.285,76.9a2.345,2.345,0,1,1,1.757-2.813,2.345,2.345,0,0,1-1.757,2.813Z" transform="translate(-69.631 -12.941)" fill="#aed5fe" fill-rule="evenodd"/>
        <path id="Path_22497" data-name="Path 22497" d="M67.117,108.394a1.245,1.245,0,0,1-1.237-1.237V98.419a1.245,1.245,0,0,1,2.457,0v8.738a1.245,1.245,0,0,1-1.22,1.237Z" transform="translate(-11.785 -17.486)" fill="#aed5fe" fill-rule="evenodd"/>
        <path id="Path_22498" data-name="Path 22498" d="M70.568,104.957H61.829a1.245,1.245,0,0,1,0-2.457h8.738a1.245,1.245,0,0,1,0,2.457Z" transform="translate(-10.862 -18.414)" fill="#aed5fe" fill-rule="evenodd"/>
        <path id="Path_22499" data-name="Path 22499" d="M99.348,105.458A1.474,1.474,0,1,1,97.9,104a1.474,1.474,0,0,1,1.45,1.458Z" transform="translate(-17.31 -18.686)" fill="#aed5fe" fill-rule="evenodd"/>
        <path id="Path_22500" data-name="Path 22500" d="M122.234,89.326A2.342,2.342,0,1,1,119.892,87a2.342,2.342,0,0,1,2.342,2.326Z" transform="translate(-21.139 -15.608)" fill="#aed5fe" fill-rule="evenodd"/>
        <path id="Path_22501" data-name="Path 22501" d="M85.6,89.326A2.342,2.342,0,1,1,83.262,87,2.342,2.342,0,0,1,85.6,89.326Z" transform="translate(-14.507 -15.608)" fill="#aed5fe" fill-rule="evenodd"/>
        <path id="Path_22502" data-name="Path 22502" d="M27.831,176.962a2.35,2.35,0,1,1-2.35-2.342,2.35,2.35,0,0,1,2.35,2.342Z" transform="translate(-4.045 -31.47)" fill="#aed5fe" fill-rule="evenodd"/>
        <path id="Path_22503" data-name="Path 22503" d="M27.414,260.327a1.468,1.468,0,1,1-2.052-.315,1.468,1.468,0,0,1,2.052.315Z" transform="translate(-4.341 -46.878)" fill="#aed5fe" fill-rule="evenodd"/>
        <path id="Path_22504" data-name="Path 22504" d="M36.424,233.648a2.342,2.342,0,1,1-3.276-.508,2.342,2.342,0,0,1,3.276.508Z" transform="translate(-5.686 -41.983)" fill="#aed5fe" fill-rule="evenodd"/>
        <path id="Path_22505" data-name="Path 22505" d="M6.864,255.288a2.342,2.342,0,1,1-1.533-.933,2.342,2.342,0,0,1,1.533.933Z" transform="translate(-0.334 -45.9)" fill="#aed5fe" fill-rule="evenodd"/>
        <path id="Path_22506" data-name="Path 22506" d="M88.725,183.481a1.245,1.245,0,0,1-1.237-1.237v-8.779a1.237,1.237,0,1,1,2.457,0V182.2a1.245,1.245,0,0,1-1.22,1.278Z" transform="translate(-15.695 -31.012)" fill="#aed5fe" fill-rule="evenodd"/>
        <path id="Path_22507" data-name="Path 22507" d="M92.064,180.065H83.325a1.237,1.237,0,1,1,0-2.457h8.738a1.237,1.237,0,1,1,0,2.457Z" transform="translate(-14.693 -32.01)" fill="#aed5fe" fill-rule="evenodd"/>
        <path id="Path_22508" data-name="Path 22508" d="M435.625,161.882a1.237,1.237,0,0,1-1.237-1.237v-8.73a1.237,1.237,0,1,1,2.457,0v8.73a1.228,1.228,0,0,1-1.22,1.237Z" transform="translate(-78.496 -27.11)" fill="#aed5fe" fill-rule="evenodd"/>
        <path id="Path_22509" data-name="Path 22509" d="M439,158.515h-8.738a1.237,1.237,0,1,1,0-2.457H439a1.237,1.237,0,0,1,0,2.457Z" transform="translate(-77.502 -28.109)" fill="#aed5fe" fill-rule="evenodd"/>
        <path id="Path_22510" data-name="Path 22510" d="M6.563,142.877a1.237,1.237,0,0,1-1.237-1.237v-8.73a1.245,1.245,0,1,1,2.457,0v8.73a1.237,1.237,0,0,1-1.22,1.237Z" transform="translate(-0.819 -23.658)" fill="#aed5fe" fill-rule="evenodd"/>
        <path id="Path_22511" data-name="Path 22511" d="M9.944,139.525H1.205a1.237,1.237,0,1,1,0-2.457H9.944a1.237,1.237,0,1,1,0,2.457Z" transform="translate(0.173 -24.671)" fill="#aed5fe" fill-rule="evenodd"/>
      </g>
    </g>
  </g>
</svg>
