<svg xmlns="http://www.w3.org/2000/svg" width="133.652" height="55.824" viewBox="0 0 133.652 55.824">
  <g id="git" transform="translate(0 -0.923)">
    <path id="Path_22611" data-name="Path 22611" d="M140.673,19.924c-2.93,0-5.113,1.439-5.113,4.9,0,2.609,1.438,4.421,4.955,4.421,2.981,0,5.005-1.757,5.005-4.529,0-3.141-1.812-4.793-4.847-4.793Zm-5.859,24.452a4.72,4.72,0,0,0-1.385,2.822c0,2.129,2.715,2.77,6.445,2.77,3.089,0,7.3-.217,7.3-3.089,0-1.707-2.025-1.813-4.583-1.973ZM150.58,20.085a8.449,8.449,0,0,1,1.971,5.38c0,5.912-4.634,9.374-11.344,9.374A16.935,16.935,0,0,1,137,34.361l-1.759,2.822,5.22.319c9.216.587,14.647.854,14.647,7.936,0,6.127-5.378,9.587-14.647,9.587-9.641,0-13.316-2.45-13.316-6.658,0-2.4,1.065-3.673,2.93-5.434a3.549,3.549,0,0,1-2.344-3.513,4.776,4.776,0,0,1,1.546-3.25c.958-1.011,2.023-2.024,3.3-3.2A8.508,8.508,0,0,1,128,24.984c0-6.124,4.049-10.331,12.2-10.331a18.251,18.251,0,0,1,4.9.532h10.388v4.526l-4.9.373Zm14.272-9.679c-3.037,0-4.794-1.759-4.794-4.8S161.815.923,164.853.923c3.089,0,4.847,1.653,4.847,4.686S167.942,10.406,164.853,10.406Zm-6.872,32.01V38.21l2.717-.372c.746-.107.852-.267.852-1.067V21.111c0-.584-.159-.959-.694-1.117L157.98,18.98l.585-4.313h11.027v22.1c0,.853.051.96.853,1.068l2.716.372v4.205Zm36.246-2.065a21.3,21.3,0,0,1-8.684,2.13c-6.338,0-8.734-2.554-8.734-8.576V19.95c0-.319,0-.532-.428-.532h-3.728V14.676c4.689-.534,6.552-2.878,7.137-8.684h5.061v7.566c0,.372,0,.532.427.532h7.51v5.326H184.85v12.73c0,3.143.747,4.367,3.622,4.367a12.676,12.676,0,0,0,4.314-.851l1.44,4.688" transform="translate(-60.573 0)" fill="#2f2707"/>
    <path id="Path_22612" data-name="Path 22612" d="M54.729,26.413,30.375,2.059a3.592,3.592,0,0,0-5.08,0L20.237,7.117l6.415,6.415a4.266,4.266,0,0,1,5.4,5.438l6.182,6.183a4.271,4.271,0,1,1-2.56,2.41L29.912,21.8V36.971a4.318,4.318,0,0,1,1.13.808,4.275,4.275,0,1,1-4.646-.932V21.532A4.222,4.222,0,0,1,25,20.6a4.273,4.273,0,0,1-.921-4.673L17.752,9.6,1.053,26.3a3.593,3.593,0,0,0,0,5.082L25.408,55.735a3.593,3.593,0,0,0,5.08,0l24.241-24.24a3.6,3.6,0,0,0,0-5.082" transform="translate(0 -0.04)" fill="#de4c36"/>
  </g>
</svg>
