<svg xmlns="http://www.w3.org/2000/svg" width="69.477" height="133.599" viewBox="0 0 69.477 133.599">
  <g id="layer1" transform="translate(3824.557 782.894)">
    <g id="Ebene_x0020_1" transform="translate(-3824.556 -782.894)">
      <g id="_198302696" transform="translate(0 0)">
        <path id="_227268128" d="M30.415,192.455s-3.52,2.142,2.449,2.755c7.193.918,11.019.765,18.976-.765a28.7,28.7,0,0,0,5.05,2.449c-17.9,7.652-40.554-.459-26.475-4.438Zm-2.3-9.947s-3.826,2.907,2.142,3.52A72.374,72.374,0,0,0,54.747,184.8a9.334,9.334,0,0,0,3.673,2.3c-21.578,6.428-45.757.612-30.3-4.591Zm42.238,17.446s2.6,2.143-2.908,3.826c-10.253,3.061-43,3.979-52.185,0-3.214-1.377,2.908-3.367,4.9-3.673a15.255,15.255,0,0,1,3.061-.459c-3.52-2.448-23.414,5.05-10.1,7.193,36.575,5.968,66.723-2.6,57.235-6.887ZM32.1,172.1s-16.681,3.979-5.968,5.356c4.591.612,13.62.459,22.037-.153,6.886-.612,13.773-1.836,13.773-1.836a36.8,36.8,0,0,0-4.132,2.142c-16.987,4.438-49.583,2.448-40.248-2.142A31.748,31.748,0,0,1,32.1,172.1ZM61.94,188.782c17.14-8.876,9.182-17.446,3.673-16.375a9.559,9.559,0,0,0-1.989.612,2.624,2.624,0,0,1,1.53-1.224c10.866-3.826,19.436,11.478-3.52,17.446a1.9,1.9,0,0,0,.306-.459ZM33.782,212.961c16.528,1.071,41.779-.612,42.391-8.417,0,0-1.224,3.061-13.62,5.356-14.079,2.6-31.525,2.3-41.779.612,0,0,2.142,1.836,13.008,2.448Z" transform="translate(-6.694 -121.6)" fill="#4e7896"/>
        <path id="_230367536" d="M47.007,2.985s9.488,9.641-9.029,24.18c-14.844,11.784-3.367,18.517,0,26.169-8.723-7.8-15-14.691-10.713-21.119,6.275-9.488,23.567-14.079,19.742-29.23Zm-4.9,43.921c4.438,5.05-1.224,9.641-1.224,9.641s11.325-5.815,6.121-13.008c-4.744-6.887-8.417-10.253,11.478-21.731,0,0-31.372,7.8-16.375,25.1Zm-11.325,82.18v-15c0-3.826-2.142-6.427-7.5-6.427a21.018,21.018,0,0,0-7.958,1.683l.765,2.755a18.112,18.112,0,0,1,6.121-1.224c2.908,0,4.285,1.224,4.285,3.673v1.989H24.97c-7.346,0-10.712,2.755-10.712,7.193,0,3.673,2.3,5.815,6.427,5.815a9.862,9.862,0,0,0,6.427-2.754l.306,2.3h3.367Zm-4.285-4.9a7.386,7.386,0,0,1-4.744,2.143,3.02,3.02,0,0,1-3.214-3.367c0-2.142,1.224-3.673,6.121-3.673H26.5v4.9Zm18.67,4.9H39.815L33.387,108.12h4.591l3.979,12.855.918,3.826a73.849,73.849,0,0,0,4.132-16.681H51.6a87.2,87.2,0,0,1-6.428,20.966Zm24.791,0v-15c0-3.826-2.142-6.427-7.5-6.427a21.016,21.016,0,0,0-7.958,1.683l.612,2.755a19.881,19.881,0,0,1,6.275-1.224c2.907,0,4.285,1.224,4.285,3.673v1.989h-1.53c-7.346,0-10.712,2.755-10.712,7.193,0,3.673,2.143,5.815,6.275,5.815a9.929,9.929,0,0,0,6.581-2.754l.306,2.3Zm-4.285-4.9a7.386,7.386,0,0,1-4.744,2.143,3.02,3.02,0,0,1-3.214-3.367c0-2.142,1.224-3.673,6.121-3.673h1.836v4.9ZM9.514,132.606a10.176,10.176,0,0,1-5.356,3.979l-1.99-2.448a10.192,10.192,0,0,0,3.673-3.52c.612-1.071.765-2.6.765-6.121V100.622H11.2v23.567c0,4.744-.459,6.58-1.683,8.417Z" transform="translate(-2.168 -2.985)" fill="#f58219"/>
      </g>
    </g>
  </g>
</svg>
