<svg xmlns="http://www.w3.org/2000/svg" xmlns:xlink="http://www.w3.org/1999/xlink" width="56" height="56" viewBox="0 0 56 56">
  <defs>
    <clipPath id="clip-path">
      <rect id="Rectangle_161" data-name="Rectangle 161" width="56" height="56" transform="translate(0.254)" fill="none" stroke="#000" stroke-width="1"/>
    </clipPath>
  </defs>
  <g id="SUPPORT_ICON_" data-name="SUPPORT ICON&apos;" transform="translate(-0.254)" clip-path="url(#clip-path)">
    <path id="Path_20617" data-name="Path 20617" d="M22.438,12.2,23.7,10.938,21.413,8.65,20.151,9.912a8.04,8.04,0,0,0-2.839-1.181V6.951H14.076v1.78a8.045,8.045,0,0,0-2.839,1.181L9.975,8.65,7.687,10.938,8.949,12.2a8.037,8.037,0,0,0-1.181,2.839H5.989v3.235h1.78A8.044,8.044,0,0,0,8.95,21.113L7.687,22.375l2.288,2.288L11.237,23.4a8.039,8.039,0,0,0,2.839,1.181v1.78h3.235v-1.78A8.043,8.043,0,0,0,20.151,23.4l1.262,1.262L23.7,22.375l-1.262-1.262a8.04,8.04,0,0,0,1.181-2.839H25.4V15.039h-1.78A8.043,8.043,0,0,0,22.438,12.2Zm-6.744,9.309a4.853,4.853,0,1,1,4.852-4.853A4.858,4.858,0,0,1,15.694,21.509Z" transform="translate(2.397 2.905)" fill="none" stroke="#000" stroke-width="1"/>
    <path id="Path_20618" data-name="Path 20618" d="M55.509,35.216A17.97,17.97,0,0,0,37.5,17.423c-.563,0-1.125.028-1.685.08A17.789,17.789,0,1,0,5.1,31.118L.254,36.833H18.09c.568,0,1.13-.028,1.685-.08A17.816,17.816,0,0,0,37.5,53.008H55.552L50.7,47.294A17.749,17.749,0,0,0,55.509,35.216ZM7.242,33.6l2.316-2.73c-.413-.528-6.026-4.16-6.026-11.828A14.558,14.558,0,1,1,18.09,33.6ZM37.5,49.773A14.576,14.576,0,0,1,22.974,36.152,17.837,17.837,0,0,0,35.8,20.757,14.765,14.765,0,0,1,52.274,35.216c0,7.636-5.6,11.284-6.026,11.828l2.316,2.729Z" transform="translate(0 0.521)" fill="none" stroke="#000" stroke-width="1"/>
    <path id="Path_20619" data-name="Path 20619" d="M36.7,24.248l1.262-1.262L35.678,20.7l-1.262,1.262a8.04,8.04,0,0,0-2.839-1.181V19H28.342v1.78A8.044,8.044,0,0,0,25.5,21.961L24.24,20.7l-2.288,2.288,1.262,1.262a8.04,8.04,0,0,0-1.181,2.839h-1.78v3.235h1.78a8.046,8.046,0,0,0,1.181,2.839l-1.262,1.262,2.288,2.288L25.5,35.45a8.042,8.042,0,0,0,2.839,1.181v1.78h3.235V36.63a8.045,8.045,0,0,0,2.839-1.181l1.262,1.262,2.288-2.288L36.7,33.162a8.037,8.037,0,0,0,1.181-2.839h1.78V27.088h-1.78A8.04,8.04,0,0,0,36.7,24.248Zm-6.744,9.309a4.853,4.853,0,1,1,4.852-4.853A4.858,4.858,0,0,1,29.959,33.558Z" transform="translate(8.358 7.94)" fill="none" stroke="#000" stroke-width="1"/>
    <path id="Path_20620" data-name="Path 20620" d="M11.693,12.655h3.235V15.89H11.693Z" transform="translate(4.78 5.289)" fill="none" stroke="#000" stroke-width="1"/>
  </g>
</svg>
