<svg id="Layer_5" enable-background="new 0 0 64 64" height="512" viewBox="0 0 64 64" width="512" xmlns="http://www.w3.org/2000/svg" xmlns:xlink="http://www.w3.org/1999/xlink"><linearGradient id="SVGID_1_" gradientUnits="userSpaceOnUse" x1="32" x2="32" y1="63" y2="1"><stop offset="0" stop-color="#9f2fff"/><stop offset="1" stop-color="#0bb1d3"/></linearGradient><path d="m31 11v2c0 1.103.897 2 2 2s2-.897 2-2h2c0 2.206-1.794 4-4 4s-4-1.794-4-4v-2c0-2.206 1.794-4 4-4s4 1.794 4 4h-2c0-1.103-.897-2-2-2s-2 .897-2 2zm16-1c0 .771-.301 1.468-.78 2 .48.532.78 1.229.78 2v3h-2v-3c0-.551-.449-1-1-1h-3v4h-2v-10h5c1.654 0 3 1.346 3 3zm-3 1c.551 0 1-.449 1-1s-.449-1-1-1h-3v2zm10.279 2h-.559l-2-6h-2.72v10h2v-5.838l1.279 3.838h3.441l1.28-3.838v5.838h2v-10h-2.721zm-43.279 8h-2v2h2zm4 0h-2v2h2zm-8 0h-2v2h2zm48 13v2c0 1.654-1.346 3-3 3v2c1.654 0 3 1.346 3 3v2c0 1.654-1.346 3-3 3v2c1.654 0 3 1.346 3 3v2c0 1.654-1.346 3-3 3h-16c-1.654 0-3-1.346-3-3v-2c0-1.654 1.346-3 3-3v-2c-1.654 0-3-1.346-3-3v-2c0-1.654 1.346-3 3-3v-2c-1.654 0-3-1.346-3-3v-2c0-1.654 1.346-3 3-3h16c1.654 0 3 1.346 3 3zm-3 19h-16c-.551 0-1 .448-1 1v2c0 .552.449 1 1 1h16c.551 0 1-.448 1-1v-2c0-.552-.449-1-1-1zm-2-4h-12v2h12zm2-6h-16c-.551 0-1 .448-1 1v2c0 .552.449 1 1 1h16c.551 0 1-.448 1-1v-2c0-.552-.449-1-1-1zm-2-4h-12v2h12zm3-5c0-.552-.449-1-1-1h-16c-.551 0-1 .448-1 1v2c0 .552.449 1 1 1h16c.551 0 1-.448 1-1zm10-28v12c0 2.414-1.721 4.434-4 4.899v37.101c0 1.654-1.346 3-3 3h-52c-1.654 0-3-1.346-3-3v-40c0-1.654 1.346-3 3-3h21v-11c0-2.757 2.243-5 5-5h28c2.757 0 5 2.243 5 5zm-60 14v5h32.198l-1.667-2h-3.531c-2.414 0-4.434-1.721-4.899-4h-21.101c-.551 0-1 .449-1 1zm54 40v-33h-14.196c-.428 1.163-1.537 2-2.847 2-.906 0-1.758-.399-2.338-1.095l-.754-.905h-33.865v33c0 .552.449 1 1 1h52c.551 0 1-.448 1-1zm0-35v-2h-14v2zm4-19c0-1.654-1.346-3-3-3h-28c-1.654 0-3 1.346-3 3v12c0 1.654 1.346 3 3 3h4.468l4.687 5.625c.199.238.491.375.802.375.575 0 1.043-.468 1.043-1.043v-4.957h17c1.654 0 3-1.346 3-3zm-54 34c0-6.065 4.935-11 11-11s11 4.935 11 11-4.935 11-11 11-11-4.935-11-11zm19.941 1h-8.527l-6.025 6.025c1.54 1.233 3.489 1.975 5.611 1.975 4.624 0 8.442-3.507 8.941-8zm-6.527-2h6.527c-.193-1.733-.88-3.316-1.916-4.611zm-2.414-8c-2.122 0-4.071.742-5.611 1.975l5.611 5.611 5.611-5.611c-1.54-1.233-3.489-1.975-5.611-1.975zm-9 9c0 2.122.742 4.071 1.975 5.611l5.611-5.611-5.611-5.611c-1.233 1.54-1.975 3.489-1.975 5.611zm-2 13h-2v2h2zm2 2h22v-2h-22zm-4 4h6v-2h-6zm8 0h18v-2h-18z" fill="url(#SVGID_1_)"/></svg>