<?xml version="1.0" encoding="utf-8"?>
<!-- Generator: Adobe Illustrator 24.0.0, SVG Export Plug-In . SVG Version: 6.00 Build 0)  -->
<svg version="1.1" id="Layer_1" xmlns="http://www.w3.org/2000/svg" xmlns:xlink="http://www.w3.org/1999/xlink" x="0px" y="0px"
	 viewBox="0 0 114 46" style="enable-background:new 0 0 114 46;" xml:space="preserve">
<style type="text/css">
	.st0{fill-rule:evenodd;clip-rule:evenodd;}
	.st1{fill-rule:evenodd;clip-rule:evenodd;fill:#ED1C24;}
</style>
<g>
	<path class="st0" d="M1.5,40.4h0.7c0.6,0,1,0.3,1,0.9c0,0.6-0.3,0.9-1,0.9H1.5V40.4L1.5,40.4z M1.5,45.9v-2.6H2
		c1.6,0,2.3-0.7,2.3-1.9S3.6,39.5,2,39.5H0.2v6.4H1.5L1.5,45.9z"/>
	<path class="st0" d="M8.1,41.2c0-0.7,0.3-0.9,0.8-0.9c0.5,0,0.8,0.2,0.8,0.9v2.6c0,0.7-0.3,0.9-0.8,0.9c-0.5,0-0.8-0.2-0.8-0.9
		V41.2L8.1,41.2z M6.9,43.7c0,1.6,0.9,2.2,2.1,2.2c1.3,0,2.1-0.6,2.1-2.2v-2.3c0-1.6-0.9-2.1-2.1-2.1c-1.2,0-2.1,0.6-2.1,2.1
		L6.9,43.7L6.9,43.7z"/>
	<polygon class="st0" points="14.8,45.9 16,45.9 17.1,41.5 17.1,41.5 18,45.9 19.2,45.9 20.7,39.5 19.5,39.5 18.6,43.6 18.6,43.6 
		17.7,39.5 16.4,39.5 15.5,43.6 15.5,43.6 14.6,39.5 13.4,39.5 	"/>
	<polygon class="st0" points="26.7,45.9 26.7,44.8 24.4,44.8 24.4,43.1 26.1,43.1 26.1,42 24.4,42 24.4,40.5 26.7,40.5 26.7,39.5 
		23.2,39.5 23.2,45.9 	"/>
	<path class="st0" d="M30.7,40.4h0.7c0.6,0,0.9,0.3,0.9,0.9c0,0.6-0.3,0.9-0.9,0.9h-0.7V40.4L30.7,40.4z M33.8,45.9L32.6,43
		c0.7-0.3,1-0.8,1-1.6c0-1.2-0.7-1.9-2.3-1.9h-1.9v6.4h1.3v-2.6h0.6l1.1,2.6H33.8L33.8,45.9z"/>
	<path class="st0" d="M41.7,41.2c0-0.7,0.3-0.9,0.8-0.9c0.5,0,0.9,0.2,0.9,0.9v2.6c0,0.7-0.3,0.9-0.9,0.9c-0.5,0-0.8-0.2-0.8-0.9
		V41.2L41.7,41.2z M40.4,43.7c0,1.6,0.9,2.2,2.1,2.2c1.3,0,2.1-0.6,2.1-2.2v-2.3c0-1.6-0.9-2.1-2.1-2.1c-1.2,0-2.1,0.6-2.1,2.1V43.7
		L40.4,43.7z"/>
	<polygon class="st0" points="48.6,45.9 48.6,43.1 50.2,43.1 50.2,42 48.6,42 48.6,40.5 50.7,40.5 50.7,39.5 47.3,39.5 47.3,45.9 	
		"/>
	<path class="st0" d="M61.3,40.8c-0.2-0.9-0.9-1.6-2.1-1.6c-1.3,0-2,0.7-2,1.8c0,1.8,2.8,1.8,2.8,3c0,0.5-0.3,0.8-0.8,0.8
		c-0.4,0-0.9-0.3-1-1L57.1,44c0.3,1.3,1.1,1.8,2.2,1.8c1.3,0,2.1-0.7,2.1-1.8c0-2-2.8-2.1-2.8-3c0-0.5,0.2-0.7,0.7-0.7
		c0.4,0,0.7,0.3,0.9,0.9L61.3,40.8L61.3,40.8z"/>
	<polygon class="st0" points="65.2,45.9 65.2,39.5 63.9,39.5 63.9,45.9 	"/>
	<polygon class="st0" points="68.9,45.9 68.9,40.8 68.9,40.8 70.3,45.9 71.3,45.9 72.6,40.8 72.6,40.8 72.6,45.9 73.7,45.9 
		73.7,39.5 72,39.5 70.8,43.6 70.8,43.6 69.6,39.5 67.8,39.5 67.8,45.9 	"/>
	<path class="st0" d="M77.5,40.4h0.7c0.6,0,1,0.3,1,0.9c0,0.6-0.3,0.9-1,0.9h-0.7V40.4L77.5,40.4z M77.5,45.9v-2.6h0.6
		c1.6,0,2.3-0.7,2.3-1.9s-0.8-1.9-2.3-1.9h-1.8v6.4L77.5,45.9L77.5,45.9z"/>
	<polygon class="st0" points="85.8,45.9 85.8,44.8 83.8,44.8 83.8,39.5 82.5,39.5 82.5,45.9 	"/>
	<polygon class="st0" points="89.4,45.9 89.4,39.5 88.1,39.5 88.1,45.9 	"/>
	<path class="st0" d="M93,41.2c0-0.7,0.3-0.9,0.8-0.9c0.5,0,0.9,0.2,0.9,0.9v0.2H96v0c0-1.6-0.9-2.1-2.1-2.1c-1.2,0-2.1,0.6-2.1,2.1
		v2.3c0,1.6,0.9,2.2,2.1,2.2c1.3,0,2.1-0.6,2.1-2.2v-0.3h-1.3v0.4c0,0.7-0.3,0.9-0.9,0.9c-0.5,0-0.8-0.2-0.8-0.9V41.2L93,41.2z"/>
	<polygon class="st0" points="100,45.9 100,39.5 98.8,39.5 98.8,45.9 	"/>
	<polygon class="st0" points="102.4,39.5 102.4,40.5 103.9,40.5 103.9,45.9 105.1,45.9 105.1,40.5 106.6,40.5 106.6,39.5 	"/>
	<polygon class="st0" points="109.8,39.5 108.5,39.5 110.3,43.3 110.3,45.9 111.6,45.9 111.6,43.3 113.4,39.5 112.1,39.5 111,42 	
		"/>
	<path class="st1" d="M46.1,18.6c0.9-0.6,2.8-2.9,2.9-3.1c0.1-0.2,0.5-0.6,0.1-1c-0.4-0.4-0.8-0.2-1.3,0.1c-0.5,0.2-2.6,1.8-3.4,2.5
		c-0.8,0.6-2.8,2.4-2.8,2.4s-1.1,0.9-0.7,1.4c0.4,0.5,0.8,0.3,1.3,0.1C42.8,20.8,45.2,19.2,46.1,18.6L46.1,18.6z M90.5,29.9
		c0.3,0.1,1,0.3,1,1c0,0-0.7,1.4-0.9,1.5c-0.3,0.1-0.8,0.1-1.8-0.3c-1-0.4-5.9-1.6-7.2-1.9c-1.3-0.3-4.2-0.8-4.2-0.8s-0.4-0.2-1,0.7
		c-0.6,1-2.5,3.7-2.5,3.7s-0.1,0.4-0.5,0.4c-0.4,0-1.9-0.1-2.5-0.4c-0.6-0.3-0.8-0.3-0.4-0.9c0.4-0.6,1.7-3.3,2.3-3.8
		c0.5-0.5-0.4-0.4-0.7-0.5c-0.3-0.1-6.1-0.4-7.8-0.3c-1.7,0-7.7,0-9.9,0.2c-2.2,0.1-10,0.9-12.1,1.2c-2.1,0.4-10.5,1.5-11.6,1.8
		s-3.4,0.6-3.4,0.6s-1.1,0.3-2.3-0.2c-1.1-0.5-2.9-1.2-1.4-1.7c1.5-0.5,9-2,11.3-2.3c2.3-0.4,9.6-1.4,12.6-1.5s11.3-0.6,14.4-0.6
		c3.1,0,7.3,0.2,9.2,0.4c1.8,0.1,3,0.2,3.4,0.3c0.4,0.1,0.4-0.2,0.8-0.6c0.4-0.4,1.5-1.9,1.5-1.9s0.4-0.6-0.4-0.1
		c-0.7,0.5-1.9,0.5-2.5,0c-0.6-0.6-0.8-1.1-1.1-0.9c-0.3,0.2-1.4,0.7-2,0.9c-0.6,0.2-3.2,0.8-4.7-0.2c-1.5-1.1-1.6-1.5-1.8-2
		C64.1,21,64,21,63.5,21.3c-0.5,0.3-2.2,1.2-2.9,1.5c-0.6,0.3-1.1,0.5-2.1,0.4c-1-0.1-2.1-0.4-2.6-1.2c-0.4-0.8-0.5-1.4-1-1
		c-0.5,0.4-3.3,2-4.8,2.4c-1.5,0.5-1.9,0.6-2.7,0.5c-0.9-0.1-1.8-0.5-2.1-1c-0.3-0.5-0.4-0.6-0.8-0.4c-0.4,0.3-1.5,1.1-2.3,1.1
		c-0.8-0.1-2.9-0.6-4-2.7c-1.1-2.1-0.3-3,0.7-4.1c1-1,2.8-2.6,2.8-2.6s2.3-1.7,3-2c0.8-0.4,2-1.1,2.8-1.1c0.8-0.1,1.9,0,3,0.9
		c1.1,0.9,1.8,1.8,1.9,2.2c0.1,0.4,0.6,1.6-0.2,2.5c-0.8,0.9-3.1,3-3.1,3s-0.9,0.5-0.5,1.1c0.4,0.6,1.9-0.4,2.4-0.7
		c0.5-0.4,3.1-2.6,3.9-3.3c0.8-0.8,5.8-5.7,6.3-6.2c0.4-0.5,4.6-4.6,5.2-5c0.6-0.4,0.8-0.7,2-0.5c1.1,0.2,1.8,0.6,1.8,0.6
		s1.2,0.5,0.2,1.2c-0.9,0.7-4.1,3.4-4.9,4.2c-0.8,0.8-3.1,3.1-3.8,3.9C61,16,59,18.5,58.7,18.9c-0.3,0.5-0.5,1,0,1.4
		c0.5,0.3,1.4,0,2.3-0.8c0.9-0.8,3.7-3.1,4.6-4.1c1-1,6.2-5.9,6.7-6.4c0.5-0.4,2.9-2.3,2.9-2.3s0.3-0.4,1-0.4c0.7,0,1.4,0.1,1.8,0.3
		c0.4,0.2,1.2,0.6,1.2,0.6s0.5,0.2-0.3,0.8c-0.8,0.6-5.2,4-6.3,5.3c-1.2,1.3-3.5,3.9-4.4,5c-0.9,1.2-1.5,1.7-0.8,2.5
		c0.7,0.8,1.5,0.6,1.9,0.5c0.4-0.2,1.8-1.1,2.7-2.1c1-1,4-4.3,4.4-4.6c0.3-0.4,1.5-1.5,1.5-1.5s0.2-0.5,0.9-0.5s1,0.1,1.7,0.2
		c0.6,0.1,2,0.4,1.3,1.2c-0.8,0.8-2.7,2.8-3.1,3.2c-0.4,0.5-2,2.3-2.3,2.8c-0.3,0.5-0.7,1.1-0.3,1.4c0.4,0.3,1.5-0.1,2.5-0.7
		c1-0.5,2.5-1.5,3.8-2.7c1.3-1.2,3.4-3.1,3.4-3.1s0.4-0.8,1.9-0.5c1.5,0.4,1.9,0.5,1.9,0.5s1.2,0.3,0.4,1c-0.8,0.7-3.4,3.1-4.4,4
		c-1,1-4.1,4.1-4.6,4.7c-0.5,0.6-2,2-1.4,2.1c0.6,0.1,5.2,0.9,6.2,1.2C86.6,28.5,90.2,29.7,90.5,29.9L90.5,29.9z M38.8,5
		c0,0-1.3-0.2-2.7,0c-1.5,0.2-5.9,0.6-6.7,1c-0.8,0.4-1.5-0.5-1.8-0.8C27.2,4.9,26.4,4,26.4,4s-0.4-0.5,0.3-0.7
		c0.8-0.2,5.3-0.9,6.7-1.1c1.4-0.1,8.2-0.5,10.1-0.5c1.8,0,8.1,0.4,9.8,0.8c0,0,0.3-0.1,0.7,0.7c0.3,0.8,0.3,1.6,0.3,1.6
		s0.3,0.6-0.8,0.5C52.2,5.2,50.3,5.1,49,5c-1.3-0.1-4.4-0.3-4.9-0.3c-0.4,0-0.6,0-0.8,0.4c-0.3,0.4-1.5,2-1.8,2.4
		c-0.3,0.4-1.6,2.1-2.7,3.6c-1.1,1.5-2.5,3.4-3.8,5.3c-1.2,2-2.3,3.8-2.8,4.6c-0.5,0.8-0.7,1.3-0.8,1.5c-0.1,0.2-0.2,0.5-0.8,0.5
		c-0.6,0-3.2-0.1-3.2-0.1s-1.1,0.1-0.4-1.1c0.7-1.3,2.2-3.8,2.8-4.7c0.6-1,3.9-5.5,4.6-6.3C35,10.1,38.8,5,38.8,5L38.8,5z"/>
	<path class="st0" d="M45.7,17.6c0.9-0.6,2.8-2.9,2.9-3.1c0.1-0.2,0.5-0.6,0.1-1c-0.4-0.4-0.8-0.2-1.3,0.1c-0.5,0.2-2.6,1.9-3.4,2.5
		c-0.8,0.6-2.8,2.4-2.8,2.4s-1.1,0.9-0.7,1.4c0.4,0.5,0.8,0.3,1.3,0.1C42.4,19.8,44.8,18.2,45.7,17.6L45.7,17.6z M43.1,0.7h-0.5
		c-2.4,0-8.2,0.4-9.5,0.5c-1.4,0.1-5.9,0.9-6.7,1.1C25.6,2.5,26,3,26,3s0.8,0.9,1.2,1.2C27.6,4.5,28.2,5.4,29,5
		c0.9-0.4,5.3-0.8,6.7-1c1.5-0.2,2.7,0,2.7,0s-3.8,5-4.4,5.9c-0.6,0.8-3.9,5.3-4.6,6.3c-0.6,1-2.2,3.5-2.9,4.7
		C25.9,22.1,27,22,27,22s2.6,0.1,3.2,0.1c0.5,0,0.6-0.4,0.7-0.6c0.1-0.2,0.3-0.7,0.8-1.5c0.5-0.8,1.6-2.6,2.8-4.6s2.7-3.9,3.8-5.4
		c1.1-1.5,2.4-3.2,2.7-3.6c0.3-0.4,1.5-2,1.8-2.4c0.3-0.4,0.4-0.4,0.8-0.4c0.5,0,3.6,0.2,4.9,0.3C49.9,4,51.8,4.1,53,4.2
		c1.2,0.1,0.8-0.5,0.8-0.5s0.1-0.8-0.3-1.5c-0.4-0.8-0.7-0.7-0.7-0.7C51.2,1,44.9,0.7,43.1,0.7L43.1,0.7z M90.1,28.9
		c0.3,0.2,1,0.4,0.9,1c0,0-0.6,1.4-0.9,1.5c-0.3,0.1-0.8,0.1-1.8-0.3c-1-0.4-5.9-1.6-7.2-1.9C79.9,29,77,28.5,77,28.5
		s-0.4-0.2-1,0.8c-0.6,0.9-2.5,3.7-2.5,3.7s-0.1,0.4-0.5,0.4c-0.4,0-1.9-0.1-2.5-0.4c-0.6-0.3-0.8-0.3-0.4-0.9
		c0.4-0.6,1.7-3.3,2.3-3.8c0.6-0.5-0.3-0.4-0.6-0.5c-0.3,0-6.1-0.4-7.8-0.3c-1.7,0-7.7,0-9.9,0.2c-2.2,0.2-10.1,0.9-12.1,1.2
		c-2.1,0.3-10.5,1.5-11.6,1.8c-1.1,0.2-3.4,0.6-3.4,0.6s-1.1,0.3-2.3-0.2c-1.1-0.5-2.9-1.2-1.4-1.7c1.5-0.5,9-2,11.3-2.3
		c2.3-0.3,9.6-1.4,12.6-1.5c3-0.2,11.3-0.6,14.4-0.6c3.1,0,7.3,0.2,9.2,0.4c1.8,0.1,3,0.2,3.4,0.3c0.4,0.1,0.4-0.2,0.8-0.6
		c0.4-0.4,1.5-1.9,1.5-1.9s0.4-0.5-0.4-0.1c-0.8,0.5-1.9,0.5-2.5-0.1c-0.6-0.6-0.8-1-1.1-0.9s-1.4,0.7-2,0.9
		c-0.6,0.2-3.1,0.8-4.6-0.3c-1.5-1-1.6-1.5-1.8-1.9c-0.2-0.5-0.3-0.5-0.8-0.2c-0.5,0.4-2.2,1.2-2.9,1.5c-0.6,0.3-1.1,0.5-2.1,0.5
		c-1-0.1-2.1-0.4-2.6-1.2c-0.5-0.8-0.5-1.4-1-1c-0.5,0.4-3.3,2-4.8,2.4C48.2,23,47.8,23.2,47,23c-0.9-0.2-1.8-0.5-2.1-1
		c-0.3-0.5-0.4-0.6-0.8-0.3c-0.4,0.3-1.5,1.1-2.3,1c-0.8-0.1-2.9-0.6-4.1-2.7c-1.1-2.1-0.3-3,0.7-4c1-1.1,2.9-2.6,2.9-2.6
		s2.3-1.6,3-2c0.8-0.4,2-1.1,2.8-1.1c0.8,0,1.9,0,3,0.9c1.1,0.9,1.7,1.8,1.9,2.2c0.1,0.3,0.6,1.6-0.2,2.5c-0.8,0.9-3,3-3,3
		s-0.9,0.5-0.5,1.2c0.4,0.6,1.9-0.4,2.3-0.8c0.5-0.3,3.1-2.6,3.9-3.3c0.8-0.8,5.8-5.7,6.3-6.1c0.4-0.5,4.6-4.6,5.3-5
		c0.6-0.4,0.8-0.7,2-0.5c1.1,0.2,1.8,0.6,1.8,0.6s1.2,0.5,0.2,1.2c-0.9,0.8-4.1,3.4-4.9,4.2c-0.8,0.8-3.1,3.1-3.8,3.9
		c-0.8,0.8-2.8,3.3-3.1,3.8c-0.3,0.5-0.5,1,0,1.4c0.5,0.4,1.4,0,2.3-0.8c0.9-0.8,3.7-3.1,4.6-4.1c0.9-1,6.2-5.9,6.7-6.3
		c0.5-0.4,2.9-2.4,2.9-2.4s0.3-0.4,1-0.4c0.7,0,1.4,0.1,1.8,0.3c0.4,0.2,1.2,0.6,1.2,0.6s0.5,0.2-0.3,0.8c-0.8,0.6-5.2,4-6.4,5.3
		c-1.1,1.3-3.5,3.9-4.4,5c-0.9,1.2-1.5,1.8-0.8,2.5c0.7,0.8,1.5,0.6,1.9,0.5c0.4-0.1,1.8-1.1,2.7-2.1c1-1,4-4.2,4.4-4.6
		c0.3-0.4,1.5-1.5,1.5-1.5s0.2-0.5,0.9-0.5s1,0.1,1.7,0.2c0.6,0.2,2,0.4,1.3,1.2c-0.8,0.8-2.7,2.7-3.1,3.2c-0.4,0.5-2,2.3-2.3,2.8
		c-0.3,0.5-0.7,1.1-0.3,1.4c0.4,0.3,1.5-0.1,2.5-0.7c1-0.5,2.6-1.5,3.9-2.7c1.3-1.2,3.4-3.1,3.4-3.1s0.3-0.8,1.9-0.5
		c1.5,0.3,1.9,0.5,1.9,0.5s1.2,0.3,0.4,1c-0.8,0.7-3.4,3-4.4,4c-1,0.9-4.1,4.1-4.6,4.7c-0.5,0.6-2,2-1.4,2.1c0.6,0.1,5.2,1,6.2,1.3
		C86.3,27.5,89.8,28.8,90.1,28.9L90.1,28.9z"/>
</g>
</svg>
