<svg id="_x33_0" enable-background="new 0 0 64 64" height="512" viewBox="0 0 64 64" width="512" xmlns="http://www.w3.org/2000/svg" xmlns:xlink="http://www.w3.org/1999/xlink"><linearGradient id="SVGID_1_" gradientUnits="userSpaceOnUse" x1="32" x2="32" y1="63" y2="1"><stop offset="0" stop-color="#9f2fff"/><stop offset="1" stop-color="#0bb1d3"/></linearGradient><path d="m48 32v3h-2v-3c0-1.654-1.346-3-3-3h-3v3c0 1.654 1.346 3 3 3 2.757 0 5 2.243 5 5v5h-4v2h-2v-2.101c-2.279-.465-4-2.484-4-4.899v-3h2v3c0 1.654 1.346 3 3 3h3v-3c0-1.654-1.346-3-3-3-2.757 0-5-2.243-5-5v-5h4v-2h2v2.101c2.279.465 4 2.485 4 4.899zm-10 23v2c0 1.103-.897 2-2 2h-8c-1.103 0-2-.897-2-2v-2c0-1.103.897-2 2-2h8c1.103 0 2 .897 2 2zm-1.998 2-.002-2h-8v2zm19.998-49v48c0 3.859-3.141 7-7 7h-34c-3.859 0-7-3.141-7-7v-48c0-3.859 3.141-7 7-7h34c3.859 0 7 3.141 7 7zm-2 0c0-2.757-2.243-5-5-5h-34c-2.757 0-5 2.243-5 5v48c0 2.757 2.243 5 5 5h34c2.757 0 5-2.243 5-5zm-2 0v40c0 1.654-1.346 3-3 3h-34c-1.654 0-3-1.346-3-3v-40c0-1.654 1.346-3 3-3h34c1.654 0 3 1.346 3 3zm-2 0c0-.552-.448-1-1-1h-34c-.552 0-1 .448-1 1v40c0 .552.448 1 1 1h34c.552 0 1-.448 1-1zm-16 22v1h-18v-1c0-3.768 2.33-6.998 5.623-8.337-.64-.59-1.113-1.343-1.377-2.195l-.002.001-1.658-3.119c-.384-.721-.586-1.533-.586-2.348 0-2.758 2.244-5.002 5.002-5.002h3.996c2.758 0 5.002 2.244 5.002 5.002 0 .815-.202 1.627-.584 2.348l-1.659 3.12-.002-.001c-.264.851-.738 1.605-1.377 2.195 3.292 1.338 5.622 4.568 5.622 8.336zm-7.002-19h-.998v2.382l2.342 1.171c.5.25.906.626 1.192 1.076l.116-.218c.229-.432.35-.92.35-1.409 0-1.655-1.347-3.002-3.002-3.002zm-6.998 3.002c0 .489.121.978.352 1.41l.115.216c.286-.45.692-.826 1.192-1.076l2.341-1.17v-2.382h-.998c-1.655 0-3.002 1.347-3.002 3.002zm5 6.998c1.654 0 3-1.346 3-3v-.764c0-.382-.212-.725-.553-.895l-2.447-1.223-2.447 1.224c-.341.17-.553.512-.553.894v.764c0 1.654 1.346 3 3 3zm0 2c-.685 0-1.345.101-1.971.285.14.967.966 1.715 1.971 1.715s1.831-.748 1.971-1.715c-.626-.184-1.286-.285-1.971-.285zm6.929 6c-.292-2.033-1.465-3.782-3.114-4.859-.495 1.647-2.008 2.859-3.815 2.859s-3.32-1.212-3.814-2.859c-1.649 1.078-2.823 2.826-3.114 4.859zm2.071-20h14v6h-14zm8 4v-2h-2v2zm4-2h-2v2h2zm-10 2h2v-2h-2zm4 4h-6v2h6zm2 2h6v-2h-6zm-8 4h14v-2h-14zm-18 24h2v-2h-2zm4 0h2v-2h-2zm4 0h2v-2h-2zm4 0h2v-2h-2zm-12-6h18v-2h-18zm0-4h18v-2h-18zm16 10h2v-2h-2z" fill="url(#SVGID_1_)"/></svg>