<svg xmlns="http://www.w3.org/2000/svg" width="24" height="24" viewBox="0 0 24 24">
  <g id="access" transform="translate(-79.3 -85.3)">
    <path id="Path_158" data-name="Path 158" d="M185.91,85.3H174.2V95.6l11.71-1.316Z" transform="translate(-88.863)" fill="#2f55d4"/>
    <path id="Path_159" data-name="Path 159" d="M352.5,85.3v8.838l5.782-.651h.073V85.3Z" transform="translate(-255.063)" fill="#2f55d4"/>
    <path id="Path_160" data-name="Path 160" d="M89.327,239.8l-9.854,1.1c-.022,0-.051.007-.073.007v6.754h9.934V239.8Z" transform="translate(-0.093 -143.838)" fill="#2f55d4"/>
    <path id="Path_161" data-name="Path 161" d="M233.3,225.134h1.959l2.895-6.162.76,1.623,2.134,4.539h6.827V215.5L233.3,217.13Z" transform="translate(-144.576 -121.276)" fill="#2f55d4"/>
    <path id="Path_162" data-name="Path 162" d="M84.907,85.3H79.3V96.375l5.607-.629Z" fill="#2f55d4"/>
    <path id="Path_163" data-name="Path 163" d="M237.69,284.3l-.168.351L232.8,294.709l4.89-3.333,4.883,3.333-4.722-10.058Z" transform="translate(-143.56 -185.409)" fill="#2f55d4"/>
  </g>
</svg>
