<svg xmlns="http://www.w3.org/2000/svg" width="23.999" height="24" viewBox="0 0 23.999 24">
  <g id="access" transform="translate(-79.3 -85.3)">
    <path id="Path_158" data-name="Path 158" d="M184.424,85.3H174.2v9.362l10.224-1.2Z" transform="translate(-88)" fill="#4a4a4a"/>
    <path id="Path_159" data-name="Path 159" d="M352.5,85.3v8.2l5.782-.6h.073V85.3Z" transform="translate(-255.063)" fill="#4a4a4a"/>
    <path id="Path_160" data-name="Path 160" d="M88.71,239.8l-9.242,1.1c-.021,0-.048.007-.068.007v6.754h9.317V239.8Z" transform="translate(-0.093 -143.838)" fill="#4a4a4a"/>
    <path id="Path_161" data-name="Path 161" d="M233.3,225.134h1.848l2.731-6.162.717,1.623,2.013,4.539h6.44V215.5L233.3,217.13Z" transform="translate(-143.75 -121.276)" fill="#4a4a4a"/>
    <path id="Path_162" data-name="Path 162" d="M84.907,85.3H79.3V95.357l5.607-.571Z" fill="#4a4a4a"/>
    <path id="Path_163" data-name="Path 163" d="M237.69,284.3l-.168.351L232.8,294.709l4.89-3.333,4.883,3.333-4.722-10.058Z" transform="translate(-143.56 -185.409)" fill="#ffc632"/>
  </g>
</svg>
