<svg xmlns="http://www.w3.org/2000/svg" width="24" height="24" viewBox="0 0 24 24">
  <g id="automation" transform="translate(-71.688 -26.002)">
    <g id="Group_23" data-name="Group 23" transform="translate(71.688 26.002)">
      <path id="Path_111" data-name="Path 111" d="M84.566,29.367c-.022.009-.044.02-.066.03l-.022.011-.018.008,0,0-.02.009h0c-.037.019-.072.037-.107.057l-.009,0L84.3,29.5l-.021.012-.013.007-.007.005-.014.009-.006,0-.016.011,0,0-.018.012h0l-.02.013h0l-.019.013h0l-.054.039-.008.005-.01.008-.01.008-.008.007-.012.008-.007.005-.013.011-.005,0-.014.012,0,0L84,29.709h0l-.017.015h0l-.017.013,0,0-.014.012,0,0-.013.012-.005.005-.011.009-.007.007L83.9,29.8l-.008.009-.007.007-.011.009,0,.007,0,0-.013.012-.013.013,0,0-.014.015h0l-.015.016h0l-.014.015,0,0-.011.013,0,0-.011.012-.005.007-.008.011-.007.007-.008.009-.007.009-.006.007L83.719,30l0,.005-.01.013,0,0-.011.015h0l-.012.017h0l-.012.017h0l-.012.016,0,0-.009.015,0,0-.008.013,0,.007-.008.011,0,.008-.006.009-.006.011,0,.007-.008.013,0,.005-.008.013,0,0-.009.016v0l-.01.017h0l-.009.019h0l-.008.016,0,0-.007.015,0,.005-.007.013,0,.007-.005.012,0,.008,0,.009-.005.012,0,.007-.005.013,0,.007-.006.013,0,.005-.007.016v0l-.007.019-.008.02h0l-.007.019v0l-.005.016,0,0-.005.016,0,.005,0,.013,0,.008,0,.012,0,.008,0,.011,0,.011,0,.009,0,.012,0,.008,0,.013,0,.005,0,.016v0l0,.017v0l0,.019h0l0,.019h0l0,.019v0l0,.017v0l0,.016v.005l0,.015v.007l0,.013v.009l0,.021V30.9l0,.044h0v.02h0v.02h0V31.1l0,.012q0,.054.015.108h0l0,.02v0l0,.017v0c.006.028.013.057.021.086l0,.009,0,.012.008.027.005.016,0,0,.005.017v0l.007.019h0l.008.02h0l.007.019v0l.007.017,0,0,.007.015,0,.007.006.013,0,.007.005.013,0,.008.005.011,0,.011,0,.009h0v.005h0a1.753,1.753,0,0,0,.136.228l2.815,3.906a3.266,3.266,0,0,1,.641-.68,4.1,4.1,0,0,1,1.647-.779h0l.029-.007.134-.028.018,0,.016,0,.1-.017.021,0h.013l.033-.005h0l.035-.005h.012l.023,0,.024,0h.011l.034,0h0l.033,0h.035l.027,0h.008l.035,0h0l.031,0h.036l.03,0h.568a4.556,4.556,0,0,1,.507.057l-3.017-4.188a2.255,2.255,0,0,0-1.368-.838,2.811,2.811,0,0,0-.77-.057h-.063l-.038,0h-.011l-.05.007h-.022l-.046.005h-.03l-.031.005h-.007l-.015,0H85.1l-.068.013h-.007l-.007,0-.015,0H85l-.008,0h-.015l-.022.005H84.94l-.007,0h-.014l-.007,0h-.022l-.007,0h-.008l-.006,0h-.008l-.007,0h-.007l-.007,0-.007,0h-.01l-.011,0-.007,0-.021.007-.007,0h-.014l-.042.015h-.007l-.008,0-.007,0-.021.008-.007,0h-.008l-.021.008h0l-.006,0-.02.007h0l-.035.013-.007,0-.007,0h0Zm3.343,6.34a3.181,3.181,0,0,1,3.806,0,1.869,1.869,0,0,1,0,3.05,3.182,3.182,0,0,1-3.794.009l-.012-.009a1.869,1.869,0,0,1,0-3.05Zm1.9-.305a2.594,2.594,0,0,0-1.616.535,1.587,1.587,0,0,0,0,2.589l.01.009a2.7,2.7,0,0,0,3.22-.009,1.587,1.587,0,0,0,0-2.589A2.593,2.593,0,0,0,89.812,35.4Zm-5.36-5.376a1.888,1.888,0,0,1,2.257,0,1.109,1.109,0,0,1,0,1.81,1.888,1.888,0,0,1-2.257,0,1.109,1.109,0,0,1,0-1.81Zm1.129-.048a1.348,1.348,0,0,0-.841.279.827.827,0,0,0,0,1.348,1.408,1.408,0,0,0,1.683,0,.826.826,0,0,0,0-1.348A1.348,1.348,0,0,0,85.58,29.977Zm-7.821-3.239a1.58,1.58,0,0,1,1.885,0,.926.926,0,0,1,0,1.511,1.575,1.575,0,0,1-1.885,0,.927.927,0,0,1,0-1.511Zm.943.013a1.05,1.05,0,0,0-.654.218.642.642,0,0,0,0,1.049,1.092,1.092,0,0,0,1.309,0,.642.642,0,0,0,0-1.049A1.051,1.051,0,0,0,78.7,26.752ZM88.78,47.777V40.168h-.992v7.608h.992Zm2.063-7.608v7.608h.992V40.168Zm-1.656,0v7.608h1.249V40.168Zm-.462-3.807a1.815,1.815,0,0,1,2.173,0,1.066,1.066,0,0,1,0,1.741,1.817,1.817,0,0,1-2.173,0,1.067,1.067,0,0,1,0-1.742Zm1.087-.035a1.284,1.284,0,0,0-.8.264.787.787,0,0,0,0,1.281,1.342,1.342,0,0,0,1.6,0,.787.787,0,0,0,0-1.281A1.288,1.288,0,0,0,89.812,36.327Zm-4.8-5.85a.942.942,0,0,1,1.131,0,.555.555,0,0,1,0,.907.944.944,0,0,1-1.132,0,.555.555,0,0,1,0-.907Zm.566.138a.447.447,0,0,0-.279.092.274.274,0,0,0,0,.446.467.467,0,0,0,.558,0,.275.275,0,0,0,0-.447A.45.45,0,0,0,85.58,30.615Zm-7.287-3.448a.686.686,0,0,1,.818,0,.4.4,0,0,1,0,.656.686.686,0,0,1-.818,0,.4.4,0,0,1,0-.656Zm.409.191a.2.2,0,0,0-.121.04.127.127,0,0,0-.05.1.123.123,0,0,0,.05.1.2.2,0,0,0,.242,0,.123.123,0,0,0,.05-.1.127.127,0,0,0-.05-.1A.2.2,0,0,0,78.7,27.358Zm1.381,8.483v-.694H75.6v.694ZM79.3,34.426H76.381v.394H79.3Zm-.492-.327V29.592l-1.322-.664-.012-.005-.011-.007h0l-.01-.005-.012-.007h0l-.01-.005-.011-.007h0l-.008,0-.011-.007h0l-.008,0-.011-.007,0,0-.008,0-.011-.007h0l-.007,0-.01-.007-.005,0-.007,0-.01-.007-.006,0-.005,0-.011-.007-.006,0,0,0-.011-.007-.007-.005,0,0-.01-.007-.008,0,0,0-.01-.007-.008-.005h0l-.01-.007-.009-.005h0l-.009-.008-.01-.005h0l-.01-.007-.01-.007h0l-.01-.008-.01-.007h0l-.009-.007-.009-.008h0l-.008-.005-.01-.008h0l-.007-.005-.009-.008h0l-.007-.005-.009-.008,0,0-.006-.005-.009-.007,0,0-.006,0-.009-.008,0,0,0,0-.009-.008,0,0L77,28.6,77,28.6l-.005,0,0,0-.008-.008-.007-.005,0,0-.009-.008-.006-.007h0l-.008-.008-.007-.007h0l-.009-.008-.007-.007h0l-.008-.008-.008-.008L76.9,28.5l-.008-.008h0l-.008-.007-.007-.008V34.1h1.939Zm.513,2.5a.167.167,0,1,1,0,.325h-4.65v.422H81.01v-1.18H74.675V36.6h4.65ZM94.854,48.9a.167.167,0,1,1,0,.327h-16a.167.167,0,1,1,0-.327Zm-9.371.781a.167.167,0,1,1,0,.325H74.409a.167.167,0,1,1,0-.325Zm-12.207,0a.167.167,0,1,1,0,.325H71.891a.167.167,0,1,1,0-.325Zm22.209-.024a.167.167,0,1,1,0,.327H90.237a.167.167,0,1,1,0-.327ZM74.471,37.42a.167.167,0,1,1,0,.327h-.2v.224h.2a.167.167,0,1,1,0,.327h-.2v.226h.2a.167.167,0,1,1,0,.327h-.2v.224h.2a.167.167,0,1,1,0,.327h-.2v.226h.2a.167.167,0,1,1,0,.327h-.2v.224h.2a.167.167,0,1,1,0,.327h-.2v.226h.2a.167.167,0,1,1,0,.325h-.2V42.11h-.251l-1.215-1.9v-2.8l.784-1.24h.682V37.42h.2Zm6.947,3.636h-.2a.167.167,0,1,1,0-.325h.2V40.5h-.2a.167.167,0,1,1,0-.327h.2v-.224h-.2a.167.167,0,1,1,0-.327h.2V39.4h-.2a.167.167,0,1,1,0-.327h.2V38.85h-.2a.167.167,0,1,1,0-.327h.2V38.3h-.2a.167.167,0,1,1,0-.327h.2v-.224h-.2a.167.167,0,1,1,0-.327h.2V36.168H82.1l.783,1.24v2.8l-1.214,1.9h-.25V41.055Zm8.394-6.55h-.261l-.027,0h-.031l-.027,0h0l-.032,0h-.007l-.025,0h-.032l-.028,0h0l-.032,0H89.3l-.022,0-.02,0-.041.007h0l-.031,0h-.011l-.02,0-.021,0h-.009L89,34.583H89a3.685,3.685,0,0,0-1.589.722,2.482,2.482,0,0,0-1,1.925V47.776h.971V40a.188.188,0,0,1,.2-.163h4.454a.188.188,0,0,1,.2.163v7.772h.971V37.233a2.372,2.372,0,0,0-.649-1.6V26.165a.188.188,0,0,0-.2-.163l-13.74.007h-.081a2.076,2.076,0,0,0-.405.049,1.815,1.815,0,0,0-1.046.621l-.034.045,0,0a1.136,1.136,0,0,0-.164,1.042,1.357,1.357,0,0,0,.109.242h0l.025.042,0,0,0,0a.7.7,0,0,0,.05.072h0l.033.044,0,0,.007.007,0,0,0,0,.007.008,0,0,.011.013h0l.005.007.007.007.007.008.006.007h0l.007.007.006.007h0l.008.007,0,.005,0,0,.007.008,0,0,0,0,.008.007,0,0,.017.019.008.007,0,0,0,0,.008.008h0l.005.005.016.013.007.008h0l.008.007.007.007h0l.008.007.007.007h0l.008.007.007.005h0l.008.007.007.005h0l.008.007.025.02.008.007,0,0,0,0,.009.007h0l.006,0,.009.007h0l.007.005.008.007h0l.008.005.009.007h0l.008.007.009.005h0l.009.007.008.005h0l.01.007.007,0h0l.009.005.007.005h0l.009.005.007,0,0,0,.009.005,0,0,0,0,.01.005,0,0,.005,0,.009.005h0l.006,0,.01.005h0l.007,0,.01.005h0l.008,0,.01.005h0l.008,0,.01.005h0l.01.005.01.005,1.4.7a.32.32,0,0,1,.037.019L83,31.313l0-.016,0-.017v0l0-.013,0-.013v0l0-.016v-.005l0-.012,0-.013v0l0-.016v-.017l0-.015v0l-.006-.068v-.084c0-.04,0-.08,0-.118v-.017l0-.017v-.016l0-.034v0l.008-.064,0-.013v0c0-.027.009-.054.014-.082l0-.015v0l.012-.049,0-.016,0-.008,0-.009,0-.016h0l.005-.016c.008-.028.016-.056.025-.084l.008-.024,0-.007.006-.016v0l.012-.029.006-.016v0L83.1,30.3l0-.012,0,0,.007-.016,0,0,.015-.033.007-.015,0-.008.008-.016,0-.005.009-.019,0,0,.011-.02h0l.012-.021h0l.011-.02,0,0,.01-.017,0-.005.008-.016.005-.008.007-.012.006-.011.007-.011.008-.012L83.257,30l.009-.015,0-.005.012-.017,0,0,.012-.02h0l.014-.02h0l.013-.02,0,0,.012-.017,0-.005.011-.015.006-.008.01-.012.007-.009.008-.011.009-.011L83.4,29.8l.011-.013.005-.007.013-.016,0,0,.015-.017h0l.017-.019h0l.016-.02h0l.015-.017,0,0,.02-.02.012-.013.008-.008.01-.009.01-.011.008-.008.012-.012.006-.007.015-.013,0,0,.016-.016.066-.057.016-.015.006-.005.015-.011.008-.008.023-.019.01-.008.013-.009.008-.007.016-.012.006,0,.018-.015.047-.033h0l.076-.05.014-.011.011-.007.013-.008.014-.008.009-.007.1-.057h0l.085-.044.017-.009.012-.005.029-.015.012-.005.017-.008.009,0h0l.007,0,.008,0,.008,0,.006,0h0l.024-.012h.008l.026-.012.007,0,.008,0,.015-.007h0l.008,0,.024-.009.009,0,.016-.007h0a2.861,2.861,0,0,1,.341-.109h.008l.023-.007.015,0c-1.7-.852-3.421-1.759-5.141-2.584l12.433-.007v8.932a3.8,3.8,0,0,0-1.913-.733h0l-.083-.008h-.346Zm-11.589,6.98a2.629,2.629,0,0,1,1,.333l.651-.522.51.409-.651.522a1.676,1.676,0,0,1,.416.8h.921v.578h-.921a1.676,1.676,0,0,1-.416.8l.651.522-.51.409-.651-.522a2.631,2.631,0,0,1-1,.333v.737h-.177v1.369a.209.209,0,0,1-.408,0V45.894H77.5v-.737a2.635,2.635,0,0,1-1-.333l-.651.522-.51-.409.651-.522a1.678,1.678,0,0,1-.416-.8h-.92v-.578h.92a1.677,1.677,0,0,1,.416-.8l-.651-.522.51-.409.651.522a2.629,2.629,0,0,1,1-.333v-.737h.722Zm-.585,1.924a.209.209,0,0,1,.408,0v.83a1.021,1.021,0,0,0,.978-.919,1.191,1.191,0,0,0-2.323,0,1.012,1.012,0,0,0,.938.913Z" transform="translate(-71.688 -26.002)" fill="#2f55d4" fill-rule="evenodd"/>
    </g>
  </g>
</svg>
