<svg xmlns="http://www.w3.org/2000/svg" width="24.004" height="23.997" viewBox="0 0 24.004 23.997">
  <g id="connectivity" transform="translate(-22.603 -22.233)">
    <path id="Path_105" data-name="Path 105" d="M239.768,286.987h2.363a.267.267,0,0,0,0-.534h-2.363a.267.267,0,1,0,0,.534Z" transform="translate(-204.873 -250.635)" fill="#ffc632"/>
    <path id="Path_106" data-name="Path 106" d="M239.768,320.567h2.363a.267.267,0,0,0,0-.534h-2.363a.267.267,0,1,0,0,.534Z" transform="translate(-204.873 -282.488)" fill="#ffc632"/>
    <path id="Path_107" data-name="Path 107" d="M239.5,353.88a.267.267,0,0,0,.267.267h3.8a.267.267,0,0,0,0-.534h-3.795a.267.267,0,0,0-.267.267Z" transform="translate(-204.561 -314.341)" fill="#ffc632"/>
    <path id="Path_108" data-name="Path 108" d="M296.682,252.766h-.576v7.345a1.256,1.256,0,0,1-1.224,1.224H289.85v.513a.732.732,0,0,0,.731.731h6.1a.732.732,0,0,0,.731-.731V253.5A.732.732,0,0,0,296.682,252.766Z" transform="translate(-250.805 -216.349)" fill="#ffc632"/>
    <path id="Path_109" data-name="Path 109" d="M57.155,132.391a2.755,2.755,0,0,0-2.755,2.776.267.267,0,0,0,.267.265h0a.267.267,0,0,0,.265-.269,2.22,2.22,0,0,1,2.22-2.237h.015a.267.267,0,0,0,0-.534Z" transform="translate(-30.487 -104.321)" fill="#ffc632"/>
    <path id="Path_110" data-name="Path 110" d="M44.334,43.385v-10.5a.935.935,0,0,0-.948-.919H40.562l-1.84-1.784a.344.344,0,0,0-.035-.029l-.009-.006a.348.348,0,0,0-.038-.023h0L38.6,30.1h-.01a.356.356,0,0,0-.088-.017H33.2a.938.938,0,0,0-.952.923V41.283a.938.938,0,0,0,.952.922h1.326v1.426H31.787a1.294,1.294,0,0,0-2.459,0H27.476a.55.55,0,0,1-.558-.541V40.617a1.233,1.233,0,0,0,0-2.393V36.41a5.512,5.512,0,0,0,1,.091h2.415a.336.336,0,0,0,0-.672H27.916A4.532,4.532,0,0,1,23.3,31.448,4.346,4.346,0,0,1,24.622,28.3,4.627,4.627,0,0,1,27.854,27h.019a2.239,2.239,0,0,0,2.02-1.247,5.15,5.15,0,0,1,9.217,0A2.238,2.238,0,0,0,41.128,27h.02a4.627,4.627,0,0,1,3.232,1.3,4.346,4.346,0,0,1,1.32,3.148.341.341,0,0,0,.344.338h0a.342.342,0,0,0,.347-.333,5.007,5.007,0,0,0-1.523-3.622,5.332,5.332,0,0,0-3.724-1.5h-.019a1.542,1.542,0,0,1-1.391-.859,5.853,5.853,0,0,0-10.474,0,1.542,1.542,0,0,1-1.392.859H27.85a5.332,5.332,0,0,0-3.724,1.5A5.007,5.007,0,0,0,22.6,31.453a5.13,5.13,0,0,0,3.618,4.782v1.989a1.233,1.233,0,0,0,0,2.393v2.475A1.233,1.233,0,0,0,27.476,44.3h1.843a1.293,1.293,0,0,0,2.477,0h11.59a.935.935,0,0,0,.948-.915ZM26.572,39.992a.571.571,0,1,1,.589-.571A.58.58,0,0,1,26.572,39.992Zm3.986,4.562a.571.571,0,1,1,.589-.571.58.58,0,0,1-.589.571Zm8.266-13.327,2.05,1.987h-2.05Zm2.54,10.056a.255.255,0,0,1-.258.25H33.2a.255.255,0,0,1-.258-.25V31a.255.255,0,0,1,.258-.251h4.93v2.8a.341.341,0,0,0,.347.336h2.886Z" fill="#4a4a4a"/>
  </g>
</svg>
