<svg xmlns="http://www.w3.org/2000/svg" width="24" height="24" viewBox="0 0 24 24">
  <g id="printer" transform="translate(-49.87 -48)">
    <path id="Path_165" data-name="Path 165" d="M145.544,55.916H132.895a.884.884,0,0,1-.895-.873v-6.17a.884.884,0,0,1,.895-.873h12.649a.884.884,0,0,1,.895.873v6.17a.884.884,0,0,1-.895.873ZM133.79,54.17h10.859V49.746H133.79Z" transform="translate(-77.349)" fill="#2f55d4"/>
    <path id="Path_166" data-name="Path 166" d="M145.544,268.319H132.895a.884.884,0,0,1-.895-.873v-9.483a.884.884,0,0,1,.895-.873h12.649a.884.884,0,0,1,.895.873v9.483a.884.884,0,0,1-.895.873Zm-11.754-1.746h10.859v-7.737H133.79Z" transform="translate(-77.349 -196.319)" fill="#2f55d4"/>
    <path id="Path_167" data-name="Path 167" d="M70.982,167.1h-2.85a.873.873,0,1,1,0-1.746h2.85a1.108,1.108,0,0,0,1.115-1.1v-7.406a1.108,1.108,0,0,0-1.115-1.1H52.758a1.108,1.108,0,0,0-1.115,1.1v7.406a1.108,1.108,0,0,0,1.115,1.1h2.85a.873.873,0,1,1,0,1.746h-2.85a2.87,2.87,0,0,1-2.888-2.845v-7.406A2.87,2.87,0,0,1,52.758,154H70.982a2.87,2.87,0,0,1,2.888,2.846v7.406A2.87,2.87,0,0,1,70.982,167.1Z" transform="translate(0 -99.471)" fill="#2f55d4"/>
    <path id="Path_168" data-name="Path 168" d="M116.862,207.692a.85.85,0,0,1-.086,0c-.028,0-.058-.008-.084-.013a.791.791,0,0,1-.083-.021c-.025-.008-.054-.018-.08-.029s-.052-.023-.077-.037a.726.726,0,0,1-.074-.044c-.023-.016-.047-.033-.069-.051a.857.857,0,0,1-.064-.058c-.02-.02-.04-.042-.058-.064a.84.84,0,0,1-.051-.069q-.024-.036-.044-.073c-.013-.025-.026-.051-.037-.077s-.02-.054-.029-.08-.015-.058-.021-.083a.8.8,0,0,1-.013-.084.912.912,0,0,1,0-.175c0-.028.008-.058.013-.084a.789.789,0,0,1,.021-.083c.008-.025.018-.054.029-.08s.023-.052.037-.077.028-.049.044-.073a.834.834,0,0,1,.051-.069.862.862,0,0,1,.058-.064c.02-.02.042-.04.064-.058a.8.8,0,0,1,.069-.051.727.727,0,0,1,.074-.044q.038-.02.077-.037c.026-.011.054-.02.08-.029s.058-.015.083-.021a.8.8,0,0,1,.084-.013.938.938,0,0,1,.172,0c.029,0,.058.008.085.013a.717.717,0,0,1,.083.021c.024.008.055.018.081.029s.052.023.077.037a.792.792,0,0,1,.074.044c.023.016.047.033.069.051a.864.864,0,0,1,.064.058c.02.02.039.042.058.064a.7.7,0,0,1,.051.069.845.845,0,0,1,.044.073c.013.025.026.051.037.077s.02.054.029.08.015.058.021.083a.8.8,0,0,1,.013.084.912.912,0,0,1,0,.175c0,.028-.008.058-.013.084a.794.794,0,0,1-.021.083c-.008.025-.018.054-.029.08s-.023.052-.037.077-.028.049-.044.073-.033.047-.051.069a.752.752,0,0,1-.058.064c-.02.02-.042.04-.064.058a.839.839,0,0,1-.143.094q-.038.02-.077.037c-.026.011-.054.02-.081.029a.817.817,0,0,1-.083.021c-.028.006-.058.01-.085.013a.843.843,0,0,1-.086,0Z" transform="translate(-62.208 -148.494)" fill="#2f55d4"/>
    <path id="Path_169" data-name="Path 169" d="M160.862,207.69a.608.608,0,0,1-.086,0c-.028,0-.058-.008-.084-.013a.794.794,0,0,1-.083-.021c-.025-.008-.054-.018-.08-.029s-.052-.023-.077-.037-.049-.028-.073-.044a.84.84,0,0,1-.069-.051.865.865,0,0,1-.064-.058c-.02-.02-.04-.042-.058-.064a.8.8,0,0,1-.051-.069.853.853,0,0,1-.044-.074c-.013-.025-.025-.051-.036-.077s-.02-.054-.029-.08-.015-.058-.021-.083a.8.8,0,0,1-.013-.084.915.915,0,0,1,0-.175c0-.028.008-.058.013-.084a.8.8,0,0,1,.021-.083c.008-.025.018-.054.029-.08s.023-.052.036-.077a.855.855,0,0,1,.044-.074c.016-.023.033-.047.051-.069a.865.865,0,0,1,.058-.064c.02-.02.042-.04.064-.058a.84.84,0,0,1,.069-.051q.036-.024.073-.044c.025-.013.051-.026.077-.037s.054-.02.08-.029.058-.015.083-.021a.8.8,0,0,1,.084-.013.948.948,0,0,1,.175,0c.028,0,.058.008.084.013a.79.79,0,0,1,.083.021c.025.008.054.018.08.029s.052.023.077.037.05.028.074.044a.83.83,0,0,1,.069.051.862.862,0,0,1,.064.058c.02.02.039.042.058.064a.692.692,0,0,1,.051.069.848.848,0,0,1,.044.074q.02.038.037.077c.011.026.02.054.029.08s.015.058.021.083a.8.8,0,0,1,.013.084.912.912,0,0,1,0,.175c0,.028-.008.058-.013.084a.788.788,0,0,1-.021.083c-.008.025-.018.054-.029.08s-.023.052-.037.077a.846.846,0,0,1-.044.074c-.016.023-.033.047-.051.069a.749.749,0,0,1-.058.064c-.02.02-.042.04-.064.058a.8.8,0,0,1-.069.051.851.851,0,0,1-.074.044q-.038.02-.077.037c-.026.011-.054.02-.08.029s-.058.015-.083.021a.8.8,0,0,1-.084.013A.871.871,0,0,1,160.862,207.69Z" transform="translate(-103.605 -148.492)" fill="#2f55d4"/>
    <path id="Path_170" data-name="Path 170" d="M186.742,315.746h-6.869a.873.873,0,1,1,0-1.746h6.869a.873.873,0,1,1,0,1.746Z" transform="translate(-121.437 -250.087)" fill="#2f55d4"/>
    <path id="Path_171" data-name="Path 171" d="M186.742,368.746h-6.869a.873.873,0,1,1,0-1.746h6.869a.873.873,0,1,1,0,1.746Z" transform="translate(-121.437 -299.831)" fill="#2f55d4"/>
  </g>
</svg>
