<svg xmlns="http://www.w3.org/2000/svg" width="24" height="24" viewBox="0 0 24 24">
  <g id="printer" transform="translate(-49.87 -48)">
    <path id="Path_165" data-name="Path 165" d="M145.544,55.916H132.9a.884.884,0,0,1-.895-.873v-6.17a.884.884,0,0,1,.9-.873h12.649a.884.884,0,0,1,.9.873v6.17a.884.884,0,0,1-.9.873ZM133.79,54.17h10.859V49.746H133.79Z" transform="translate(-77.349)" fill="#4a4a4a"/>
    <path id="Path_166" data-name="Path 166" d="M145.544,268.319H132.9a.884.884,0,0,1-.895-.873v-9.483a.884.884,0,0,1,.9-.873h12.649a.884.884,0,0,1,.9.873v9.483a.884.884,0,0,1-.9.873Zm-11.754-1.746h10.859v-7.737H133.79Z" transform="translate(-77.349 -196.319)" fill="#4a4a4a"/>
    <path id="Path_167" data-name="Path 167" d="M70.982,167.1h-2.85a.873.873,0,1,1,0-1.746h2.85a1.108,1.108,0,0,0,1.115-1.1v-7.406a1.108,1.108,0,0,0-1.115-1.1H52.758a1.108,1.108,0,0,0-1.115,1.1v7.406a1.108,1.108,0,0,0,1.115,1.1h2.85a.873.873,0,0,1,0,1.746h-2.85a2.87,2.87,0,0,1-2.888-2.845v-7.406A2.87,2.87,0,0,1,52.758,154H70.982a2.87,2.87,0,0,1,2.888,2.846v7.406A2.87,2.87,0,0,1,70.982,167.1Z" transform="translate(0 -99.471)" fill="#4a4a4a"/>
    <path id="Path_168" data-name="Path 168" d="M116.862,207.692a.851.851,0,0,1-.086,0,.459.459,0,0,1-.084-.013.789.789,0,0,1-.083-.021c-.025-.008-.054-.018-.08-.029a.775.775,0,0,1-.077-.037.732.732,0,0,1-.074-.044c-.023-.016-.047-.033-.069-.051a.856.856,0,0,1-.064-.058c-.02-.02-.04-.042-.058-.064a.842.842,0,0,1-.051-.069q-.024-.036-.044-.073c-.013-.025-.026-.051-.037-.077s-.02-.054-.029-.08-.015-.058-.021-.083a.8.8,0,0,1-.013-.084.912.912,0,0,1,0-.175.46.46,0,0,1,.013-.084.8.8,0,0,1,.021-.083c.008-.025.018-.054.029-.08a.776.776,0,0,1,.037-.077c.014-.025.028-.049.044-.073a.832.832,0,0,1,.051-.069q.027-.033.058-.064c.02-.02.042-.04.064-.058a.8.8,0,0,1,.069-.051.735.735,0,0,1,.074-.044q.038-.02.077-.037c.026-.011.054-.02.08-.029s.058-.015.083-.021a.8.8,0,0,1,.084-.013.94.94,0,0,1,.172,0,.469.469,0,0,1,.085.013.72.72,0,0,1,.083.021c.024.008.055.018.081.029a.775.775,0,0,1,.077.037.8.8,0,0,1,.074.044c.023.016.047.033.069.051s.044.038.064.058.039.042.058.064a.7.7,0,0,1,.051.069.842.842,0,0,1,.044.073c.013.025.026.051.037.077s.02.054.029.08.015.058.021.083a.8.8,0,0,1,.013.084.913.913,0,0,1,0,.175.458.458,0,0,1-.013.084.8.8,0,0,1-.021.083c-.008.025-.018.054-.029.08a.776.776,0,0,1-.037.077c-.014.025-.028.049-.044.073s-.033.047-.051.069a.754.754,0,0,1-.058.064c-.02.02-.042.04-.064.058a.838.838,0,0,1-.143.094q-.038.02-.077.037c-.026.011-.054.02-.081.029a.818.818,0,0,1-.083.021c-.028.006-.058.01-.085.013a.847.847,0,0,1-.086,0Z" transform="translate(-62.208 -148.494)" fill="#ffc632"/>
    <path id="Path_169" data-name="Path 169" d="M160.862,207.69a.611.611,0,0,1-.086,0,.458.458,0,0,1-.084-.013.793.793,0,0,1-.083-.021c-.025-.008-.054-.018-.08-.029a.774.774,0,0,1-.077-.037c-.025-.014-.049-.028-.073-.044a.84.84,0,0,1-.069-.051q-.033-.027-.064-.058c-.02-.02-.04-.042-.058-.064a.8.8,0,0,1-.051-.069.846.846,0,0,1-.044-.074c-.013-.025-.025-.051-.036-.077s-.02-.054-.029-.08-.015-.058-.021-.083a.8.8,0,0,1-.013-.084.916.916,0,0,1,0-.175.46.46,0,0,1,.013-.084.8.8,0,0,1,.021-.083c.008-.025.018-.054.029-.08s.023-.052.036-.077a.854.854,0,0,1,.044-.074c.016-.023.033-.047.051-.069a.862.862,0,0,1,.058-.064c.02-.02.042-.04.064-.058a.834.834,0,0,1,.069-.051q.036-.024.073-.044c.025-.013.051-.026.077-.037s.054-.02.08-.029.058-.015.083-.021a.8.8,0,0,1,.084-.013.945.945,0,0,1,.175,0,.461.461,0,0,1,.084.013.792.792,0,0,1,.083.021c.025.008.054.018.08.029a.774.774,0,0,1,.077.037c.025.014.05.028.074.044a.831.831,0,0,1,.069.051.862.862,0,0,1,.064.058c.02.02.039.042.058.064a.691.691,0,0,1,.051.069.847.847,0,0,1,.044.074q.02.038.037.077c.011.026.02.054.029.08s.015.058.021.083a.8.8,0,0,1,.013.084.912.912,0,0,1,0,.175.46.46,0,0,1-.013.084.784.784,0,0,1-.021.083c-.008.025-.018.054-.029.08a.774.774,0,0,1-.037.077.844.844,0,0,1-.044.074c-.016.023-.033.047-.051.069a.748.748,0,0,1-.058.064c-.02.02-.042.04-.064.058a.8.8,0,0,1-.069.051.85.85,0,0,1-.074.044q-.038.02-.077.037c-.026.011-.054.02-.08.029s-.058.015-.083.021a.8.8,0,0,1-.084.013A.87.87,0,0,1,160.862,207.69Z" transform="translate(-103.605 -148.492)" fill="#ffc632"/>
    <path id="Path_170" data-name="Path 170" d="M186.742,315.746h-6.869a.873.873,0,1,1,0-1.746h6.869a.873.873,0,1,1,0,1.746Z" transform="translate(-121.437 -250.087)" fill="#ffc632"/>
    <path id="Path_171" data-name="Path 171" d="M186.742,368.746h-6.869a.873.873,0,1,1,0-1.746h6.869a.873.873,0,1,1,0,1.746Z" transform="translate(-121.437 -299.831)" fill="#ffc632"/>
  </g>
</svg>
