<svg id="security" xmlns="http://www.w3.org/2000/svg" width="24.001" height="24.023" viewBox="0 0 24.001 24.023">
  <g id="background" transform="translate(0.339 0.339)">
    <rect id="Rectangle_9" data-name="Rectangle 9" width="23.322" height="23.322" fill="none"/>
  </g>
  <g id="browser_x5F_security">
    <path id="Path_132" data-name="Path 132" d="M21,7.5H13.5V9H21Zm-10.5,0H3V15h7.5ZM24,0H0V21H11.639a6.74,6.74,0,0,0,12.31-4.552L24,16.5ZM7.5,1.5h9V3h-9Zm-3,0H6V3H4.5Zm-3,0H3V3H1.5ZM17.25,22.412a5.163,5.163,0,1,1,5.162-5.162,5.163,5.163,0,0,1-5.162,5.162Zm5.249-9.4A6.78,6.78,0,0,0,21,11.639V10.5H13.5v1.137A6.725,6.725,0,0,0,10.892,19.5H1.5V4.5h21ZM22.5,3h-3V1.5h3Z" fill="#4a4a4a"/>
    <path id="Path_133" data-name="Path 133" d="M24.509,21.084c.006-.1.011-.206.011-.315a3.3,3.3,0,0,0-.429-1.742A2.255,2.255,0,0,0,22.085,18a2.259,2.259,0,0,0-2.009,1.028,3.276,3.276,0,0,0-.429,1.742,2.93,2.93,0,0,0,.011.315H19V24.94h6.17V21.084Zm-3.322-.315a1.833,1.833,0,0,1,.2-.924c.133-.175.208-.282.7-.3.491.021.563.127.7.3a1.816,1.816,0,0,1,.2.924c0,.112-.006.216-.015.315H21.2c-.005-.1-.012-.206-.012-.315Z" transform="translate(-4.884 -4.649)" fill="#ffc632"/>
  </g>
</svg>
