<svg xmlns="http://www.w3.org/2000/svg" width="24" height="24" viewBox="0 0 24 24">
  <g id="storage" transform="translate(-1)">
    <path id="Path_164" data-name="Path 164" d="M1,6.72H2.5v.96H1V14.4H2.5v.96H1v6.72H2.5V24h21V22.08H25V15.36H23.5V14.4H25V7.68H23.5V6.72H25V0H1ZM22.5,23.04H3.5v-.96h19ZM24,16.32v4.8H2v-4.8Zm-1.5-.96H3.5V14.4h19ZM24,8.64v4.8H2V8.64Zm-1.5-.96H3.5V6.72h19ZM2,.96H24v4.8H2Z" fill="#4a4a4a"/>
    <rect id="Rectangle_10" data-name="Rectangle 10" width="1" height="2" transform="translate(3.22 2.687)" fill="#ffc632"/>
    <rect id="Rectangle_11" data-name="Rectangle 11" width="1" height="2" transform="translate(5.527 2.687)" fill="#ffc632"/>
    <rect id="Rectangle_12" data-name="Rectangle 12" width="1" height="2" transform="translate(8.745 2.687)" fill="#ffc632"/>
    <rect id="Rectangle_13" data-name="Rectangle 13" width="1" height="2" transform="translate(10.891 2.687)" fill="#ffc632"/>
    <rect id="Rectangle_14" data-name="Rectangle 14" width="1" height="1" transform="translate(21.78 2.687)" fill="#ffc632"/>
    <rect id="Rectangle_15" data-name="Rectangle 15" width="7" height="1" transform="translate(13.354 2.687)" fill="#ffc632"/>
    <rect id="Rectangle_16" data-name="Rectangle 16" width="1" height="2" transform="translate(3.22 9.971)" fill="#4a4a4a"/>
    <rect id="Rectangle_17" data-name="Rectangle 17" width="1" height="2" transform="translate(5.527 9.971)" fill="#4a4a4a"/>
    <rect id="Rectangle_18" data-name="Rectangle 18" width="1" height="2" transform="translate(8.745 9.971)" fill="#4a4a4a"/>
    <rect id="Rectangle_19" data-name="Rectangle 19" width="1" height="2" transform="translate(10.891 9.971)" fill="#4a4a4a"/>
    <rect id="Rectangle_20" data-name="Rectangle 20" width="1" height="1" transform="translate(21.78 10.986)" fill="#4a4a4a"/>
    <rect id="Rectangle_21" data-name="Rectangle 21" width="7" height="1" transform="translate(13.354 10.986)" fill="#4a4a4a"/>
    <rect id="Rectangle_22" data-name="Rectangle 22" width="1" height="1" transform="translate(3.22 18.182)" fill="#ffc632"/>
    <rect id="Rectangle_23" data-name="Rectangle 23" width="1" height="1" transform="translate(5.527 18.182)" fill="#ffc632"/>
    <rect id="Rectangle_24" data-name="Rectangle 24" width="1" height="1" transform="translate(8.745 18.182)" fill="#ffc632"/>
    <rect id="Rectangle_25" data-name="Rectangle 25" width="1" height="1" transform="translate(10.891 18.182)" fill="#ffc632"/>
    <rect id="Rectangle_26" data-name="Rectangle 26" width="1" height="1" transform="translate(21.78 18.182)" fill="#ffc632"/>
    <rect id="Rectangle_27" data-name="Rectangle 27" width="7" height="1" transform="translate(13.354 18.182)" fill="#ffc632"/>
  </g>
</svg>
