<svg xmlns="http://www.w3.org/2000/svg" width="47.496" height="47.501" viewBox="0 0 47.496 47.501">
  <g id="brand_ICON" data-name="brand ICON" transform="translate(-0.014 0.002)">
    <g id="Group_181" data-name="Group 181" transform="translate(8.377 8.395)">
      <g id="Group_180" data-name="Group 180">
        <path id="Path_20591" data-name="Path 20591" d="M117.617,102.244a8.386,8.386,0,0,1-1.409-4.21,3.059,3.059,0,0,0-2.308-2.96V93.44a.769.769,0,0,0-.769-.769h-1.616a3.853,3.853,0,0,0-3.769-3.077c-2.352,0-4.108-.7-4.7-1.883a.8.8,0,0,0-1.376,0c-.589,1.179-2.345,1.883-4.7,1.883a3.853,3.853,0,0,0-3.769,3.077H91.59a.769.769,0,0,0-.769.769v1.631a3.062,3.062,0,0,0-2.308,2.963,8.387,8.387,0,0,1-1.409,4.21.769.769,0,0,0,0,.853,8.386,8.386,0,0,1,1.409,4.21,3.059,3.059,0,0,0,2.308,2.96V111.9a.769.769,0,0,0,.769.769h1.616a3.853,3.853,0,0,0,3.769,3.077c2.669,0,4.088.079,4.655,1.782a.769.769,0,0,0,1.46,0c.568-1.7,1.986-1.782,4.655-1.782a3.853,3.853,0,0,0,3.769-3.077h1.616a.769.769,0,0,0,.769-.769v-1.631a3.062,3.062,0,0,0,2.308-2.963,8.387,8.387,0,0,1,1.409-4.21A.769.769,0,0,0,117.617,102.244Zm-2.948,5.064a1.524,1.524,0,0,1-1.539,1.517.769.769,0,0,0-.769.769v1.539h-1.539a.769.769,0,0,0-.769.769,2.31,2.31,0,0,1-2.308,2.308c-2.047,0-4.15,0-5.385,1.48-1.235-1.48-3.338-1.48-5.385-1.48a2.31,2.31,0,0,1-2.308-2.308.769.769,0,0,0-.769-.769H92.359v-1.539a.788.788,0,0,0-.791-.769,1.519,1.519,0,0,1-1.517-1.517,9.769,9.769,0,0,0-1.4-4.637,9.769,9.769,0,0,0,1.4-4.637,1.524,1.524,0,0,1,1.539-1.517.769.769,0,0,0,.769-.769V94.209H93.9a.769.769,0,0,0,.769-.769,2.31,2.31,0,0,1,2.308-2.308,7.43,7.43,0,0,0,5.385-1.771,7.43,7.43,0,0,0,5.385,1.771,2.31,2.31,0,0,1,2.308,2.308.769.769,0,0,0,.769.769h1.539v1.539a.788.788,0,0,0,.791.769,1.519,1.519,0,0,1,1.517,1.517,9.769,9.769,0,0,0,1.4,4.637A9.769,9.769,0,0,0,114.669,107.308Z" transform="translate(-86.974 -87.319)" fill="none" stroke="#000" stroke-width="1"/>
      </g>
    </g>
    <g id="Group_183" data-name="Group 183" transform="translate(22.993 4.514)">
      <g id="Group_182" data-name="Group 182">
        <rect id="Rectangle_111" data-name="Rectangle 111" width="1.539" height="2.308"/>
      </g>
    </g>
    <g id="Group_185" data-name="Group 185" transform="translate(42.45 0.891)">
      <g id="Group_184" data-name="Group 184" transform="translate(0 0)">
        <rect id="Rectangle_112" data-name="Rectangle 112" width="4.352" height="1.539" transform="translate(0 3.077) rotate(-45)"/>
      </g>
    </g>
    <g id="Group_187" data-name="Group 187" transform="translate(43.764 22.977)">
      <g id="Group_186" data-name="Group 186">
        <rect id="Rectangle_113" data-name="Rectangle 113" width="3.077" height="1.539"/>
      </g>
    </g>
    <g id="Group_189" data-name="Group 189" transform="translate(22.993 0.668)">
      <g id="Group_188" data-name="Group 188">
        <rect id="Rectangle_114" data-name="Rectangle 114" width="1.539" height="2.308"/>
      </g>
    </g>
    <g id="Group_191" data-name="Group 191" transform="translate(40.687 22.977)">
      <g id="Group_190" data-name="Group 190">
        <rect id="Rectangle_115" data-name="Rectangle 115" width="1.539" height="1.539"/>
      </g>
    </g>
    <g id="Group_193" data-name="Group 193" transform="translate(39.105 15.97)">
      <g id="Group_192" data-name="Group 192" transform="translate(0 0)">
        <rect id="Rectangle_116" data-name="Rectangle 116" width="1.539" height="1.539" transform="translate(0 0.589) rotate(-22.508)"/>
      </g>
    </g>
    <g id="Group_195" data-name="Group 195" transform="translate(37.362 6.883)">
      <g id="Group_194" data-name="Group 194" transform="translate(0 0)">
        <rect id="Rectangle_117" data-name="Rectangle 117" width="3.077" height="1.539" transform="translate(0 2.176) rotate(-45)"/>
      </g>
    </g>
    <g id="Group_197" data-name="Group 197" transform="translate(35.185 10.15)">
      <g id="Group_196" data-name="Group 196" transform="translate(0 0)">
        <rect id="Rectangle_118" data-name="Rectangle 118" width="1.539" height="1.539" transform="translate(0 1.088) rotate(-45)"/>
      </g>
    </g>
    <g id="Group_199" data-name="Group 199" transform="translate(29.529 6.396)">
      <g id="Group_198" data-name="Group 198">
        <rect id="Rectangle_119" data-name="Rectangle 119" width="1.539" height="1.539" transform="translate(0 1.421) rotate(-67.492)"/>
      </g>
    </g>
    <g id="Group_201" data-name="Group 201" transform="translate(41.946 13.32)">
      <g id="Group_200" data-name="Group 200" transform="translate(0 0)">
        <rect id="Rectangle_120" data-name="Rectangle 120" width="5.385" height="1.539" transform="translate(0 2.061) rotate(-22.508)"/>
      </g>
    </g>
    <g id="Group_203" data-name="Group 203" transform="translate(30.705 0)">
      <g id="Group_202" data-name="Group 202">
        <rect id="Rectangle_121" data-name="Rectangle 121" width="5.385" height="1.539" transform="translate(0 4.975) rotate(-67.492)"/>
      </g>
    </g>
    <g id="Group_205" data-name="Group 205" transform="translate(0.909 0.894)">
      <g id="Group_204" data-name="Group 204" transform="translate(0)">
        <rect id="Rectangle_122" data-name="Rectangle 122" width="1.539" height="4.352" transform="translate(0 1.088) rotate(-45)"/>
      </g>
    </g>
    <g id="Group_207" data-name="Group 207" transform="translate(0.684 22.977)">
      <g id="Group_206" data-name="Group 206">
        <rect id="Rectangle_123" data-name="Rectangle 123" width="3.077" height="1.539"/>
      </g>
    </g>
    <g id="Group_209" data-name="Group 209" transform="translate(5.3 22.977)">
      <g id="Group_208" data-name="Group 208">
        <rect id="Rectangle_124" data-name="Rectangle 124" width="1.539" height="1.539"/>
      </g>
    </g>
    <g id="Group_211" data-name="Group 211" transform="translate(6.412 15.969)">
      <g id="Group_210" data-name="Group 210" transform="translate(0 0)">
        <rect id="Rectangle_125" data-name="Rectangle 125" width="1.539" height="1.539" transform="translate(0 1.422) rotate(-67.5)"/>
      </g>
    </g>
    <g id="Group_213" data-name="Group 213" transform="translate(6.902 6.884)">
      <g id="Group_212" data-name="Group 212" transform="translate(0 0)">
        <rect id="Rectangle_126" data-name="Rectangle 126" width="1.539" height="3.077" transform="translate(0 1.088) rotate(-45)"/>
      </g>
    </g>
    <g id="Group_215" data-name="Group 215" transform="translate(10.163 10.147)">
      <g id="Group_214" data-name="Group 214" transform="translate(0 0)">
        <rect id="Rectangle_127" data-name="Rectangle 127" width="1.539" height="1.539" transform="translate(0 1.088) rotate(-45)"/>
      </g>
    </g>
    <g id="Group_217" data-name="Group 217" transform="translate(15.987 6.394)">
      <g id="Group_216" data-name="Group 216" transform="translate(0 0)">
        <rect id="Rectangle_128" data-name="Rectangle 128" width="1.539" height="1.539" transform="translate(0 0.589) rotate(-22.508)"/>
      </g>
    </g>
    <g id="Group_219" data-name="Group 219" transform="translate(0.014 13.321)">
      <g id="Group_218" data-name="Group 218" transform="translate(0 0)">
        <rect id="Rectangle_129" data-name="Rectangle 129" width="1.539" height="5.385" transform="translate(0 1.422) rotate(-67.5)"/>
      </g>
    </g>
    <g id="Group_221" data-name="Group 221" transform="translate(13.337 -0.002)">
      <g id="Group_220" data-name="Group 220" transform="translate(0 0)">
        <rect id="Rectangle_130" data-name="Rectangle 130" width="1.539" height="5.385" transform="translate(0 0.589) rotate(-22.5)"/>
      </g>
    </g>
    <g id="Group_223" data-name="Group 223" transform="translate(22.993 40.671)">
      <g id="Group_222" data-name="Group 222">
        <rect id="Rectangle_131" data-name="Rectangle 131" width="1.539" height="2.308"/>
      </g>
    </g>
    <g id="Group_225" data-name="Group 225" transform="translate(42.45 42.434)">
      <g id="Group_224" data-name="Group 224" transform="translate(0 0)">
        <rect id="Rectangle_132" data-name="Rectangle 132" width="1.539" height="4.352" transform="translate(0 1.088) rotate(-45)"/>
      </g>
    </g>
    <g id="Group_227" data-name="Group 227" transform="translate(22.993 44.518)">
      <g id="Group_226" data-name="Group 226">
        <rect id="Rectangle_133" data-name="Rectangle 133" width="1.539" height="2.308"/>
      </g>
    </g>
    <g id="Group_229" data-name="Group 229" transform="translate(39.105 29.509)">
      <g id="Group_228" data-name="Group 228" transform="translate(0 0)">
        <rect id="Rectangle_134" data-name="Rectangle 134" width="1.539" height="1.539" transform="translate(0 1.422) rotate(-67.5)"/>
      </g>
    </g>
    <g id="Group_231" data-name="Group 231" transform="translate(37.362 37.346)">
      <g id="Group_230" data-name="Group 230" transform="translate(0 0)">
        <rect id="Rectangle_135" data-name="Rectangle 135" width="1.539" height="3.077" transform="translate(0 1.088) rotate(-45)"/>
      </g>
    </g>
    <g id="Group_233" data-name="Group 233" transform="translate(35.182 35.167)">
      <g id="Group_232" data-name="Group 232" transform="translate(0 0)">
        <rect id="Rectangle_136" data-name="Rectangle 136" width="1.539" height="1.539" transform="translate(0 1.088) rotate(-45)"/>
      </g>
    </g>
    <g id="Group_235" data-name="Group 235" transform="translate(29.528 39.089)">
      <g id="Group_234" data-name="Group 234" transform="translate(0 0)">
        <rect id="Rectangle_137" data-name="Rectangle 137" width="1.539" height="1.539" transform="translate(0 0.589) rotate(-22.508)"/>
      </g>
    </g>
    <g id="Group_237" data-name="Group 237" transform="translate(41.947 30.695)">
      <g id="Group_236" data-name="Group 236" transform="translate(0 0)">
        <rect id="Rectangle_138" data-name="Rectangle 138" width="1.539" height="5.385" transform="translate(0 1.422) rotate(-67.5)"/>
      </g>
    </g>
    <g id="Group_239" data-name="Group 239" transform="translate(30.708 41.935)">
      <g id="Group_238" data-name="Group 238" transform="translate(0 0)">
        <rect id="Rectangle_139" data-name="Rectangle 139" width="1.539" height="5.385" transform="translate(0 0.589) rotate(-22.5)"/>
      </g>
    </g>
    <g id="Group_241" data-name="Group 241" transform="translate(0.913 42.435)">
      <g id="Group_240" data-name="Group 240" transform="translate(0 0)">
        <rect id="Rectangle_140" data-name="Rectangle 140" width="4.352" height="1.539" transform="translate(0 3.077) rotate(-45)"/>
      </g>
    </g>
    <g id="Group_243" data-name="Group 243" transform="translate(6.411 29.513)">
      <g id="Group_242" data-name="Group 242" transform="translate(0 0)">
        <rect id="Rectangle_141" data-name="Rectangle 141" width="1.539" height="1.539" transform="translate(0 0.589) rotate(-22.508)"/>
      </g>
    </g>
    <g id="Group_245" data-name="Group 245" transform="translate(6.902 37.346)">
      <g id="Group_244" data-name="Group 244" transform="translate(0 0)">
        <rect id="Rectangle_142" data-name="Rectangle 142" width="3.077" height="1.539" transform="translate(0 2.176) rotate(-45)"/>
      </g>
    </g>
    <g id="Group_247" data-name="Group 247" transform="translate(10.161 35.166)">
      <g id="Group_246" data-name="Group 246" transform="translate(0 0)">
        <rect id="Rectangle_143" data-name="Rectangle 143" width="1.539" height="1.539" transform="translate(0 1.088) rotate(-45)"/>
      </g>
    </g>
    <g id="Group_249" data-name="Group 249" transform="translate(15.987 39.091)">
      <g id="Group_248" data-name="Group 248" transform="translate(0 0)">
        <rect id="Rectangle_144" data-name="Rectangle 144" width="1.539" height="1.539" transform="translate(0 1.421) rotate(-67.492)"/>
      </g>
    </g>
    <g id="Group_251" data-name="Group 251" transform="translate(0.014 30.69)">
      <g id="Group_250" data-name="Group 250" transform="translate(0 0)">
        <rect id="Rectangle_145" data-name="Rectangle 145" width="5.385" height="1.539" transform="translate(0 2.061) rotate(-22.508)"/>
      </g>
    </g>
    <g id="Group_253" data-name="Group 253" transform="translate(13.333 41.93)">
      <g id="Group_252" data-name="Group 252" transform="translate(0 0)">
        <rect id="Rectangle_146" data-name="Rectangle 146" width="5.385" height="1.539" transform="translate(0 4.975) rotate(-67.492)"/>
      </g>
    </g>
    <g id="Group_255" data-name="Group 255" transform="translate(16.134 15.057)">
      <g id="Group_254" data-name="Group 254">
        <path id="Path_20592" data-name="Path 20592" d="M180.186,165.289l2.567-3.506a.769.769,0,0,0-.7-1.219l-4.32.47-1.753-3.975a.769.769,0,0,0-1.408,0l-1.753,3.975-4.32-.47a.769.769,0,0,0-.7,1.219l2.567,3.506-2.567,3.506a.769.769,0,0,0,.7,1.219l4.32-.47,1.753,3.975a.769.769,0,0,0,1.408,0l1.753-3.975,4.32.47a.769.769,0,0,0,.7-1.219Zm-2.851,2.665a.771.771,0,0,0-.787.455l-1.276,2.894L174,168.409a.769.769,0,0,0-.7-.459.783.783,0,0,0-.083,0l-3.145.342,1.869-2.552a.77.77,0,0,0,0-.909l-1.869-2.552,3.145.342a.777.777,0,0,0,.787-.455l1.276-2.894,1.276,2.894a.774.774,0,0,0,.787.455l3.145-.342-1.869,2.552a.77.77,0,0,0,0,.909l1.869,2.552Z" transform="translate(-167.644 -156.6)"/>
      </g>
    </g>
  </g>
</svg>
