<svg xmlns="http://www.w3.org/2000/svg" xmlns:xlink="http://www.w3.org/1999/xlink" width="1351" height="1366" viewBox="0 0 1351 1366">
  <defs>
    <filter id="Ellipse_4" x="0" y="0" width="1351" height="1366" filterUnits="userSpaceOnUse">
      <feOffset dy="6" input="SourceAlpha"/>
      <feGaussianBlur stdDeviation="23.5" result="blur"/>
      <feFlood flood-opacity="0.278"/>
      <feComposite operator="in" in2="blur"/>
      <feComposite in="SourceGraphic"/>
    </filter>
    <filter id="Ellipse_3" x="162.5" y="160.5" width="1028" height="1039" filterUnits="userSpaceOnUse">
      <feOffset dx="1" dy="3" input="SourceAlpha"/>
      <feGaussianBlur stdDeviation="3" result="blur-2"/>
      <feFlood flood-color="#dcdcdc" flood-opacity="0.612"/>
      <feComposite operator="in" in2="blur-2"/>
      <feComposite in="SourceGraphic"/>
    </filter>
    <filter id="Ellipse_1" x="295.5" y="292.5" width="762" height="775" filterUnits="userSpaceOnUse">
      <feOffset dx="1" dy="3" input="SourceAlpha"/>
      <feGaussianBlur stdDeviation="3" result="blur-3"/>
      <feFlood flood-color="#efefef" flood-opacity="0.612"/>
      <feComposite operator="in" in2="blur-3"/>
      <feComposite in="SourceGraphic"/>
    </filter>
    <filter id="Ellipse_2" x="459.5" y="463.5" width="433" height="434" filterUnits="userSpaceOnUse">
      <feOffset dx="1" dy="3" input="SourceAlpha"/>
      <feGaussianBlur stdDeviation="3" result="blur-4"/>
      <feFlood flood-color="#e6e6e6" flood-opacity="0.612"/>
      <feComposite operator="in" in2="blur-4"/>
      <feComposite in="SourceGraphic"/>
    </filter>
    <filter id="Ellipse_5" x="561.5" y="566.5" width="229" height="228" filterUnits="userSpaceOnUse">
      <feOffset dx="1" dy="3" input="SourceAlpha"/>
      <feGaussianBlur stdDeviation="3" result="blur-5"/>
      <feFlood flood-color="#fcfbfb" flood-opacity="0.612"/>
      <feComposite operator="in" in2="blur-5"/>
      <feComposite in="SourceGraphic"/>
    </filter>
  </defs>
  <g id="Group_1" data-name="Group 1" transform="translate(-1491.139 -908.684)">
    <g transform="matrix(1, 0, 0, 1, 1491.14, 908.68)" filter="url(#Ellipse_4)">
      <g id="Ellipse_4-2" data-name="Ellipse 4" transform="translate(70.5 64.5)" fill="#a5d4f8" stroke="#f1f1f1" stroke-width="1">
        <ellipse cx="605" cy="612.5" rx="605" ry="612.5" stroke="none"/>
        <ellipse cx="605" cy="612.5" rx="604.5" ry="612" fill="none"/>
      </g>
    </g>
    <g transform="matrix(1, 0, 0, 1, 1491.14, 908.68)" filter="url(#Ellipse_3)">
      <g id="Ellipse_3-2" data-name="Ellipse 3" transform="translate(170.5 166.5)" fill="#b5daf5" stroke="#f1f1f1" stroke-width="1">
        <ellipse cx="505" cy="510.5" rx="505" ry="510.5" stroke="none"/>
        <ellipse cx="505" cy="510.5" rx="504.5" ry="510" fill="none"/>
      </g>
    </g>
    <g transform="matrix(1, 0, 0, 1, 1491.14, 908.68)" filter="url(#Ellipse_1)">
      <g id="Ellipse_1-2" data-name="Ellipse 1" transform="translate(303.5 298.5)" fill="#c9e4f8" stroke="#f1f1f1" stroke-width="1">
        <ellipse cx="372" cy="378.5" rx="372" ry="378.5" stroke="none"/>
        <ellipse cx="372" cy="378.5" rx="371.5" ry="378" fill="none"/>
      </g>
    </g>
    <g transform="matrix(1, 0, 0, 1, 1491.14, 908.68)" filter="url(#Ellipse_2)">
      <g id="Ellipse_2-2" data-name="Ellipse 2" transform="translate(467.5 469.5)" fill="#deedf8" stroke="#f1f1f1" stroke-width="1">
        <ellipse cx="207.5" cy="208" rx="207.5" ry="208" stroke="none"/>
        <ellipse cx="207.5" cy="208" rx="207" ry="207.5" fill="none"/>
      </g>
    </g>
    <g transform="matrix(1, 0, 0, 1, 1491.14, 908.68)" filter="url(#Ellipse_5)">
      <g id="Ellipse_5-2" data-name="Ellipse 5" transform="translate(569.5 572.5)" fill="#eef4f8" stroke="#f1f1f1" stroke-width="1">
        <ellipse cx="105.5" cy="105" rx="105.5" ry="105" stroke="none"/>
        <ellipse cx="105.5" cy="105" rx="105" ry="104.5" fill="none"/>
      </g>
    </g>
  </g>
</svg>
