<svg xmlns="http://www.w3.org/2000/svg" width="487.937" height="344.429" viewBox="0 0 487.937 344.429">
  <g id="Group_1025" data-name="Group 1025" transform="translate(-123 -3780.675)">
    <g id="req_gathering" data-name="req gathering" transform="translate(-43 35)">
      <g id="Group_627" data-name="Group 627">
        <g id="Group_626" data-name="Group 626">
          <path id="Path_20632" data-name="Path 20632" d="M19.769,214.74c48.721-46.748,151.036,2.629,238.581,14.624s229.942-7.063,229.586,45.546c-.38,56.086-31.958,87.639-205.165,102.71S30.263,346.242,7.617,296.8C-10.013,258.308,6.748,227.234,19.769,214.74Z" transform="translate(166 3709.598)" fill="#e7f3fe"/>
          <path id="Path_20634" data-name="Path 20634" d="M223.252,322.782a127.26,127.26,0,1,1,49.588-10.01A127.408,127.408,0,0,1,223.252,322.782Zm0-227.687A100.317,100.317,0,1,0,323.57,195.413,100.432,100.432,0,0,0,223.252,95.095Z" transform="translate(177.92 3693.814)" fill="#c4f3ff"/>
        </g>
      </g>
    </g>
    <path id="Path_20635" data-name="Path 20635" d="M177.45,141.912h-31.2v3.194h31.2Z" transform="translate(141.176 3738)" fill="#e0e0e0"/>
    <path id="Path_20636" data-name="Path 20636" d="M204.294,163.308H181.768V166.5h22.526Z" transform="translate(145.59 3740.659)" fill="#e0e0e0"/>
    <path id="Path_20637" data-name="Path 20637" d="M219.873,163.308H204.925V166.5h14.948Z" transform="translate(148.468 3740.659)" fill="#1487e3"/>
    <path id="Path_20638" data-name="Path 20638" d="M247.036,249.207H232.088V252.4h14.948Z" transform="translate(151.844 3751.334)" fill="#1487e3"/>
    <path id="Path_20639" data-name="Path 20639" d="M161.513,217.112H146.565v3.194h14.948Z" transform="translate(141.215 3747.346)" fill="#1487e3"/>
    <path id="Path_20640" data-name="Path 20640" d="M256.939,163.308H220.847V166.5h36.092Z" transform="translate(150.447 3740.659)" fill="#e0e0e0"/>
    <path id="Path_20641" data-name="Path 20641" d="M169.756,206.337H146.565v3.193h23.191Z" transform="translate(141.215 3746.007)" fill="#e0e0e0"/>
    <path id="Path_20642" data-name="Path 20642" d="M225.182,227.811H201.991v3.194h23.191Z" transform="translate(148.104 3748.676)" fill="#e0e0e0"/>
    <path id="Path_20643" data-name="Path 20643" d="M189.475,227.811H175.318v3.194h14.157Z" transform="translate(144.789 3748.676)" fill="#e0e0e0"/>
    <path id="Path_20644" data-name="Path 20644" d="M174.615,227.811h-28.05v3.194h28.05Z" transform="translate(141.215 3748.676)" fill="#1487e3"/>
    <path id="Path_20645" data-name="Path 20645" d="M162.037,238.508H146.565V241.7h15.472Z" transform="translate(141.215 3750.005)" fill="#e0e0e0"/>
    <path id="Path_20646" data-name="Path 20646" d="M201.548,141.912H179.4v3.194h22.148Z" transform="translate(145.296 3738)" fill="#78c2ff"/>
    <path id="Path_20647" data-name="Path 20647" d="M201.548,174.006H179.4V177.2h22.148Z" transform="translate(145.296 3741.989)" fill="#1487e3"/>
    <path id="Path_20648" data-name="Path 20648" d="M179.012,184.7H169.55V187.9h9.462Z" transform="translate(144.072 3743.318)" fill="#e0e0e0"/>
    <path id="Path_20649" data-name="Path 20649" d="M182.388,195.56H161.132v3.194h21.256Z" transform="translate(143.025 3744.667)" fill="#78c2ff"/>
    <path id="Path_20650" data-name="Path 20650" d="M212.24,195.56H182.9v3.194H212.24Z" transform="translate(145.73 3744.667)" fill="#1487e3"/>
    <path id="Path_20651" data-name="Path 20651" d="M168.713,184.782H146.565v3.194h22.148Z" transform="translate(141.215 3743.328)" fill="#1487e3"/>
    <path id="Path_20652" data-name="Path 20652" d="M159.708,195.56H146.565v3.194h13.143Z" transform="translate(141.215 3744.667)" fill="#1487e3"/>
    <path id="Path_20653" data-name="Path 20653" d="M194.333,184.782h-12.4v3.194h12.4Z" transform="translate(145.611 3743.328)" fill="#ff8761"/>
    <path id="Path_20654" data-name="Path 20654" d="M159.295,249.207H146.9V252.4h12.4Z" transform="translate(141.256 3751.334)" fill="#ff8761"/>
    <path id="Path_20655" data-name="Path 20655" d="M168.635,163.308H146.487V166.5h22.148Z" transform="translate(141.205 3740.659)" fill="#78c2ff"/>
    <path id="Path_20656" data-name="Path 20656" d="M186.055,217.112H163.907v3.194h22.148Z" transform="translate(143.37 3747.346)" fill="#78c2ff"/>
    <path id="Path_20657" data-name="Path 20657" d="M186.3,238.508H164.151V241.7H186.3Z" transform="translate(143.4 3750.005)" fill="#78c2ff"/>
    <path id="Path_20658" data-name="Path 20658" d="M221.3,238.508H199.147V241.7H221.3Z" transform="translate(147.75 3750.005)" fill="#78c2ff"/>
    <path id="Path_20659" data-name="Path 20659" d="M178.06,174.006H146.487V177.2H178.06Z" transform="translate(141.205 3741.989)" fill="#78c2ff"/>
    <path id="Path_20660" data-name="Path 20660" d="M230.05,249.207H207.9V252.4H230.05Z" transform="translate(148.838 3751.334)" fill="#78c2ff"/>
    <path id="Path_20661" data-name="Path 20661" d="M232.62,141.912H204.4v3.194H232.62Z" transform="translate(148.403 3738)" fill="#1487e3"/>
    <path id="Path_20662" data-name="Path 20662" d="M190.3,249.207H162.086V252.4H190.3Z" transform="translate(143.145 3751.334)" fill="#1487e3"/>
    <path id="Path_20663" data-name="Path 20663" d="M277.822,249.207H249.6V252.4h28.218Z" transform="translate(154.021 3751.334)" fill="#1487e3"/>
    <path id="Path_20664" data-name="Path 20664" d="M273.958,227.811H245.74v3.194h28.218Z" transform="translate(153.541 3748.676)" fill="#1487e3"/>
    <path id="Path_20665" data-name="Path 20665" d="M266.953,174.006H238.736V177.2h28.217Z" transform="translate(152.67 3741.989)" fill="#1487e3"/>
    <path id="Path_20666" data-name="Path 20666" d="M197.936,227.811h-6.082v3.194h6.082Z" transform="translate(146.844 3748.676)" fill="#ff8761"/>
    <path id="Path_20667" data-name="Path 20667" d="M276.282,141.912H248.065v3.194h28.217Z" transform="translate(153.83 3738)" fill="#ff8761"/>
    <path id="Path_20668" data-name="Path 20668" d="M235.971,174.006H219.426V177.2h16.545Z" transform="translate(150.271 3741.989)" fill="#ff8761"/>
    <path id="Path_20669" data-name="Path 20669" d="M224.447,217.271H207.9v3.193h16.545Z" transform="translate(148.838 3747.365)" fill="#ff8761"/>
    <path id="Path_20670" data-name="Path 20670" d="M244.471,141.912H234.142v3.194h10.329Z" transform="translate(152.1 3738)" fill="#e0e0e0"/>
    <path id="Path_20671" data-name="Path 20671" d="M214.731,174.006H204.4V177.2h10.329Z" transform="translate(148.403 3741.989)" fill="#e0e0e0"/>
    <path id="Path_20672" data-name="Path 20672" d="M162.409,152.611H146.25v3.194h16.159Z" transform="translate(141.176 3739.33)" fill="#1487e3"/>
    <path id="Path_20673" data-name="Path 20673" d="M197.355,206.415H184.6v3.194h12.757Z" transform="translate(145.942 3746.016)" fill="#1487e3"/>
    <path id="Path_20674" data-name="Path 20674" d="M169.369,152.611h-5.218v3.194h5.218Z" transform="translate(143.4 3739.33)" fill="#1487e3"/>
    <path id="Path_20675" data-name="Path 20675" d="M265.744,238.508H222.619V241.7h43.125Z" transform="translate(150.667 3750.005)" fill="#e0e0e0"/>
    <path id="Path_20676" data-name="Path 20676" d="M177.527,152.611H172.2v3.194h5.325Z" transform="translate(144.401 3739.33)" fill="#ff8761"/>
    <path id="Path_20677" data-name="Path 20677" d="M257.439,152.611h-14.11v3.194h14.11Z" transform="translate(153.241 3739.33)" fill="#1487e3"/>
    <path id="Path_20678" data-name="Path 20678" d="M269.989,163.308h-14.11V166.5h14.11Z" transform="translate(154.801 3740.659)" fill="#ff8761"/>
    <path id="Path_20679" data-name="Path 20679" d="M241.977,227.811h-14.11v3.194h14.11Z" transform="translate(151.319 3748.676)" fill="#ff8761"/>
    <path id="Path_20680" data-name="Path 20680" d="M205.459,249.207h-14.11V252.4h14.11Z" transform="translate(146.781 3751.334)" fill="#ff8761"/>
    <path id="Path_20681" data-name="Path 20681" d="M243.327,152.611H213.306v3.194h30.021Z" transform="translate(149.51 3739.33)" fill="#1487e3"/>
    <path id="Path_20682" data-name="Path 20682" d="M205.99,217.271H188.452v3.193H205.99Z" transform="translate(146.421 3747.365)" fill="#1487e3"/>
    <path id="Path_20683" data-name="Path 20683" d="M196.218,238.508h-8.769V241.7h8.769Z" transform="translate(146.296 3750.005)" fill="#1487e3"/>
    <path id="Path_20684" data-name="Path 20684" d="M210.66,152.611H200.331v3.194H210.66Z" transform="translate(147.897 3739.33)" fill="#78c2ff"/>
    <path id="Path_20685" data-name="Path 20685" d="M179.736,163.308H169.407V166.5h10.329Z" transform="translate(144.054 3740.659)" fill="#ff8761"/>
    <path id="Path_20686" data-name="Path 20686" d="M181.567,206.415H171.239v3.194h10.328Z" transform="translate(144.281 3746.016)" fill="#ff8761"/>
    <path id="Path_20687" data-name="Path 20687" d="M198.815,152.611h-18v3.194h18Z" transform="translate(145.473 3739.33)" fill="#1487e3"/>
    <path id="Path_20688" data-name="Path 20688" d="M142.734,260.291a.023.023,0,0,0-.012,0C142.778,260.314,142.786,260.317,142.734,260.291Z" transform="translate(140.737 3752.712)" fill="#323657"/>
    <path id="Path_20689" data-name="Path 20689" d="M256.748,119.143h5.127l-1.568-3.255H255.18Z" transform="translate(154.714 3734.766)" fill="#fff"/>
    <path id="Path_20690" data-name="Path 20690" d="M254.614,119.143h1.222l-1.569-3.255h-1.221Z" transform="translate(154.449 3734.766)" fill="#fff"/>
    <path id="Path_20691" data-name="Path 20691" d="M238.761,115.516h20.762l-.689-1.628H238.073Z" transform="translate(152.588 3734.517)" fill="#fff"/>
    <path id="Path_20692" data-name="Path 20692" d="M144.157,104.409h12.862v-2.328H144.157Z" transform="translate(140.916 3733.05)" fill="#fff"/>
    <path id="Path_20693" data-name="Path 20693" d="M144.157,101.551h12.862v-.438H144.157Z" transform="translate(140.916 3732.929)" fill="#fff"/>
    <path id="Path_20694" data-name="Path 20694" d="M257.663,144.855l16.7-16.7h68.626V127.3h-68.98l-16.952,16.954Z" transform="translate(154.948 3736.184)" fill="#ff8761"/>
    <path id="Path_20695" data-name="Path 20695" d="M173.312,180.466l.6-.6-31.921-31.923H81.579v.853h60.062Z" transform="translate(133.139 3738.749)" fill="#78c2ff"/>
    <path id="Path_20696" data-name="Path 20696" d="M226.847,145.763l.6-.6-26.942-26.941H162.616v.852h37.539Z" transform="translate(143.21 3735.055)" fill="#1487e3"/>
    <path id="Path_20697" data-name="Path 20697" d="M306.439,107.707H300.38v18.4h6.059Z" transform="translate(160.331 3733.749)" fill="#609ae8"/>
    <path id="Path_20698" data-name="Path 20698" d="M329.463,82.766H282.47a2.66,2.66,0,0,0-2.66,2.66v31.585a2.66,2.66,0,0,0,2.66,2.66h46.993a2.661,2.661,0,0,0,2.661-2.66V85.427A2.661,2.661,0,0,0,329.463,82.766Z" transform="translate(157.775 3730.649)" fill="#9cc7ff"/>
    <path id="Path_20699" data-name="Path 20699" d="M329.848,84.639H281.632v29.015h48.216Z" transform="translate(158.001 3730.882)" fill="#fff"/>
    <path id="Path_20700" data-name="Path 20700" d="M290.954,124.845h27.255v-1.388H290.954Z" transform="translate(159.16 3735.706)" fill="#9cc7ff"/>
    <path id="Path_20701" data-name="Path 20701" d="M308.458,110.386h15.5V92.471h-15.5Z" transform="translate(161.335 3731.855)" fill="#d7d7e6"/>
    <path id="Path_20702" data-name="Path 20702" d="M292.128,94.706h15.966V92.473H292.128Z" transform="translate(159.306 3731.855)" fill="#d7d7e6"/>
    <path id="Path_20703" data-name="Path 20703" d="M292.128,98.784h15.966V96.551H292.128Z" transform="translate(159.306 3732.362)" fill="#d7d7e6"/>
    <path id="Path_20704" data-name="Path 20704" d="M292.128,109.426h15.966v-9.213H292.128Z" transform="translate(159.306 3732.817)" fill="#d7d7e6"/>
    <path id="Path_20705" data-name="Path 20705" d="M284.094,110.443h6.775V92.019h-6.775Z" transform="translate(158.308 3731.799)" fill="#d7d7e6"/>
    <path id="Path_20706" data-name="Path 20706" d="M284.233,91.227h42.891v-4.6H284.233Z" transform="translate(158.324 3731.129)" fill="#d7d7e6"/>
    <path id="Path_20707" data-name="Path 20707" d="M169.988,118.809h21.467A2.546,2.546,0,0,0,194,116.262V83.807a2.546,2.546,0,0,0-2.546-2.546H169.988a2.546,2.546,0,0,0-2.546,2.546v32.455A2.546,2.546,0,0,0,169.988,118.809Z" transform="translate(143.81 3730.462)" fill="#9cc7ff"/>
    <path id="Path_20708" data-name="Path 20708" d="M168.747,113.62h23.625V82.806H168.747Z" transform="translate(143.972 3730.654)" fill="#fff"/>
    <path id="Path_20710" data-name="Path 20710" d="M180.92,109.947h8.462V89.839H180.92Z" transform="translate(145.485 3731.528)" fill="#d7d7e6"/>
    <path id="Path_20711" data-name="Path 20711" d="M170.158,92.169h10.526V89.839H170.158Z" transform="translate(144.147 3731.528)" fill="#d7d7e6"/>
    <path id="Path_20712" data-name="Path 20712" d="M170.158,95.748h10.526V93.419H170.158Z" transform="translate(144.147 3731.973)" fill="#d7d7e6"/>
    <path id="Path_20713" data-name="Path 20713" d="M170.158,99.329h10.526V97H170.158Z" transform="translate(144.147 3732.418)" fill="#d7d7e6"/>
    <path id="Path_20714" data-name="Path 20714" d="M170.158,108.611h10.526V100.58H170.158Z" transform="translate(144.147 3732.863)" fill="#d7d7e6"/>
    <path id="Path_20715" data-name="Path 20715" d="M131.5,146.482H90.09v-26.25a1.863,1.863,0,0,1,.547-1.319,1.87,1.87,0,0,1,1.32-.548h37.68a1.866,1.866,0,0,1,1.861,1.866Z" transform="translate(134.196 3735.073)" fill="#609ae8"/>
    <path id="Path_20716" data-name="Path 20716" d="M91.117,144.82H130.21V119.7H91.117Z" transform="translate(134.324 3735.239)" fill="#fff"/>
    <path id="Path_20717" data-name="Path 20717" d="M132.083,145.441H89.943a1.631,1.631,0,0,1-1.631-1.631v-.436h45.4v.436a1.631,1.631,0,0,1-1.629,1.631Z" transform="translate(133.976 3738.181)" fill="#9cc7ff"/>
    <path id="Path_20718" data-name="Path 20718" d="M92.573,124.815h35.783v-3.492H92.573Z" transform="translate(134.505 3735.441)" fill="#d7d7e6"/>
    <path id="Path_20719" data-name="Path 20719" d="M113.488,142.187h12.268v-16H113.488Z" transform="translate(137.104 3736.045)" fill="#d7d7e6"/>
    <path id="Path_20720" data-name="Path 20720" d="M101.176,142.187h12.268v-16H101.176Z" transform="translate(135.574 3736.045)" fill="#d7d7e6"/>
    <path id="Path_20721" data-name="Path 20721" d="M92.573,128.471h7.481v-2.288H92.573Z" transform="translate(134.505 3736.045)" fill="#d7d7e6"/>
    <path id="Path_20722" data-name="Path 20722" d="M92.573,131.615h7.481v-2.287H92.573Z" transform="translate(134.505 3736.436)" fill="#d7d7e6"/>
    <path id="Path_20723" data-name="Path 20723" d="M92.573,141.407h7.481v-8.934H92.573Z" transform="translate(134.505 3736.827)" fill="#d7d7e6"/>
    <path id="Path_20724" data-name="Path 20724" d="M106.572,179.783l-9.215-5.319v3.509h-13.7V181.6h13.7V185.1Z" transform="translate(133.397 3742.045)" fill="#2a6993"/>
    <path id="Path_20725" data-name="Path 20725" d="M83.658,169.405l9.215,5.319v-3.507h13.7v-3.625h-13.7v-3.509Z" transform="translate(133.397 3740.755)" fill="#2a6993"/>
    <path id="Path_20726" data-name="Path 20726" d="M225.7,112.2l-6.905-3.986v2.629H208.524v2.716h10.267v2.63Z" transform="translate(148.916 3733.812)" fill="#2a6993"/>
    <path id="Path_20727" data-name="Path 20727" d="M208.524,104.426l6.905,3.987v-2.63H225.7v-2.715H215.429v-2.629Z" transform="translate(148.916 3732.845)" fill="#2a6993"/>
    <path id="Path_20728" data-name="Path 20728" d="M307.646,170.631a4.2,4.2,0,0,1-2.426-.978,3.153,3.153,0,0,1-1.154-2.4,19.024,19.024,0,0,0-1.141-4.9,8.434,8.434,0,1,1,10.113.3,18.131,18.131,0,0,0-1.123,4.657,3.693,3.693,0,0,1-3.945,3.339C307.857,170.642,307.752,170.638,307.646,170.631Zm1.116-22.6a7.744,7.744,0,0,0-5.335,13.837l.076.06.034.093a19.512,19.512,0,0,1,1.219,5.2v.022a2.466,2.466,0,0,0,.914,1.889,3.558,3.558,0,0,0,2.3.815,3,3,0,0,0,3.249-2.668v-.026a19.019,19.019,0,0,1,1.2-4.955l.037-.1.091-.062a7.743,7.743,0,0,0-3.789-14.11Z" transform="translate(160.253 3738.672)" fill="#fff"/>
    <path id="Path_20729" data-name="Path 20729" d="M305.505,166.512l-1.105-9.19,1.916,1.583,1.188-1.318,1.028,1.237,1.79-1.517-1.088,9.206-.685-.081.883-7.466-.985.835-.962-1.16-1.1,1.219-1.094-.905.9,7.475Z" transform="translate(160.831 3739.913)" fill="#fff"/>
    <path id="Path_20730" data-name="Path 20730" d="M310.391,167.316l-5.981-.039-.016,2.41,5.981.039Z" transform="translate(160.83 3741.152)" fill="#fff"/>
    <path id="Path_20731" data-name="Path 20731" d="M311.474,165.133l-7.906-.053-.026,3.881,7.906.053Z" transform="translate(160.725 3740.879)" fill="#fff"/>
    <path id="Path_20732" data-name="Path 20732" d="M330.469,292.461c-.175,1.224-7.539,6.381-8.99,7.411a15.559,15.559,0,0,1-3.935,1.869c-4,1.052-29.084,8.536-29.084,8.536a3.176,3.176,0,0,0-.248-.761c-.937.373-1.9.615-2.512.8-.935.292-8.349.525-9.866.816s-4.552.76-5.78-.408.761-3.679,2.448-4.319,7.88-.815,8.99-.934,2.569-.525,3.262-.292a8.407,8.407,0,0,0,2.435-.64c-.03-.454-.038-.742-.038-.742l6.586-1.9-1.22-11.661s2.866-10.8,14.315-2.561c0,0,2.554.751,3.426.979a1.053,1.053,0,0,0,.291,0c1.747-.133,9.253-2.4,11.965-2.4,2.919,0,3.853-.175,4.9.351S330.644,291.234,330.469,292.461Z" transform="translate(156.516 3755.731)" fill="#5b83c2"/>
    <path id="Path_20733" data-name="Path 20733" d="M320,310.7c-1.225,1.168-4.261.7-5.778.408s-8.93-.525-9.866-.815a15.282,15.282,0,0,1-3.915-1.518,3.916,3.916,0,0,0-.652-.287l-1.855,1.338-25.773-8.205a9.22,9.22,0,0,1-3.588-1.776c-1.344-1.168-8.809-6.187-8.99-7.412s1.985-5.312,3.036-5.838,1.983-.351,4.9-.351,11.381,2.629,12.257,2.395a12.872,12.872,0,0,0,2-.952c.935-.513,1.81-1.032,1.81-1.032,12.536-5.6,13.932,3.561,13.932,3.561l-.742,11.3s1.043.519,2.4,1.164l6.215,1.756-.816.588a1.628,1.628,0,0,0,.7.13c.7-.234,2.16.177,3.263.292s7.3.291,8.987.934S321.222,309.53,320,310.7Z" transform="translate(155.26 3755.763)" fill="#5b83c2"/>
    <path id="Path_20734" data-name="Path 20734" d="M279.549,287.368c.863.06,6.705,3.443,8.091,4.252-2.109-1.1-10.1-3.3-10.1-3.3A12.943,12.943,0,0,0,279.549,287.368Z" transform="translate(157.493 3756.077)" fill="#5478b3"/>
    <path id="Path_20735" data-name="Path 20735" d="M307.363,288.337s-10.065,2.448-11.907,3.463c.084-.06,5.3-4.025,8.044-4.556,0,0,2.692.85,3.568,1.085a1.053,1.053,0,0,0,.291,0Z" transform="translate(159.72 3756.062)" fill="#5478b3"/>
    <path id="Path_20736" data-name="Path 20736" d="M315.55,308.466c-1.225,1.168-4.261.7-5.778.408s-8.93-.525-9.866-.815c-.268-.083-.6-.177-.978-.288a11.3,11.3,0,0,1-2.937-1.23,3.917,3.917,0,0,0-.652-.287L300,302.888l.134-.1a1.628,1.628,0,0,0,.7.13c.7-.234,2.16.177,3.263.292s7.3.291,8.987.934S316.777,307.3,315.55,308.466Z" transform="translate(159.705 3757.994)" fill="#eea886"/>
    <path id="Path_20737" data-name="Path 20737" d="M315.153,308.466c-1.225,1.168-4.261.7-5.778.408s-8.93-.525-9.866-.815c-.268-.083-.6-.177-.978-.288a4.931,4.931,0,0,0,1.076-4.884l.134-.1a1.628,1.628,0,0,0,.7.13c.7-.234,2.16.177,3.263.292s7.3.291,8.987.934S316.38,307.3,315.153,308.466Z" transform="translate(160.102 3757.994)" fill="#c5cddb"/>
    <path id="Path_20738" data-name="Path 20738" d="M281.611,289.658c.013.031.01.055-.01.069C281.487,289.814,281.507,289.777,281.611,289.658Z" transform="translate(157.988 3756.362)" fill="#e55353"/>
    <path id="Path_20739" data-name="Path 20739" d="M316.956,279.807c-.1-.2-5.413-8.56-6.85-12.374a10.758,10.758,0,0,0-6.538-6.11c-.582-.195-1.621-.532-2.717-.886-1.974-.64-4.131-1.331-4.131-1.331h-6.812s-2.36.789-4.866,1.667c-2.309.815-4.74,1.694-5.562,2.106-1.711.854-4.592,6.965-5.174,7.666s-5.074,9.02-5.721,12.22c-.5,2.484,14.238,9.759,14.64,10.691.467-.517,2.609-2.576,2.609-2.576s-.686-.434-1.655-1.07c3.949.181,13.6-.163,14.982-.09a6.954,6.954,0,0,0,.893-.019c.428.311,3.192,2.751,3.192,2.751s6.809-2.826,9.941-5.992C317.639,281.967,317.448,280.8,316.956,279.807Zm-38.719,5.535c-1.468-1.752-3.467-2.811-2.962-3.589s4.786-8.172,4.786-8.172a60.354,60.354,0,0,1,2.842,7.394c.623,2.53.572,3.686.309,4.475a11.821,11.821,0,0,0-.635,3.286A27.779,27.779,0,0,1,278.237,285.342Zm30.108-.836a29.667,29.667,0,0,1-4.872,3.274c-.163-1.411-.389-3.634-.415-4.431a19.711,19.711,0,0,1,1.089-5.994,24.4,24.4,0,0,0,1.051-4.942s5.156,7,5.973,7.745-.894,2.152-2.832,4.348Z" transform="translate(156.379 3752.565)" fill="#dce6fa"/>
    <path id="Path_20740" data-name="Path 20740" d="M292,242.463s5.326.839,4.514,9.173-5.51,7.648-5.825,7.639-4.72.152-5.057-10.022C285.631,249.253,285.48,241.732,292,242.463Z" transform="translate(158.499 3750.49)" fill="#eea886"/>
    <path id="Path_20741" data-name="Path 20741" d="M295.419,248.553s.582-.623.8,0-.8,3.441-.832,3.574c0,0-.107.244-.246.109A30.7,30.7,0,0,1,295.419,248.553Z" transform="translate(159.677 3751.219)" fill="#eea886"/>
    <path id="Path_20742" data-name="Path 20742" d="M285.85,248.459s-.57-.633-.8,0,.721,3.458.763,3.589c0,0,.1.247.243.116A30.825,30.825,0,0,0,285.85,248.459Z" transform="translate(158.422 3751.207)" fill="#eea886"/>
    <path id="Path_20743" data-name="Path 20743" d="M296.665,250.691l-.762,1.02a20.33,20.33,0,0,0-.1-2.586c-.121-.351-.309-1.42-.41-1.672s-4.568-1.505-8.523.365c0,0,.173,1.607-.206,1.75s-.192,2.609-.192,2.609l-.626-.707s-.959-6.411-.723-7.078.992-4.685,9.094-2.3c0,0,2.525-.535,3.032,1.211S296.665,250.691,296.665,250.691Z" transform="translate(158.431 3750.357)" fill="#434343"/>
    <path id="Path_20744" data-name="Path 20744" d="M286.131,297.9s-8.156-4.894-11.713-5.654c-3.364-.727-4.593-1.985-4.593-1.985s5.353,0,8.911,2.531C281.156,294.5,286.131,297.9,286.131,297.9Z" transform="translate(156.534 3756.436)" fill="#49699c"/>
    <path id="Path_20745" data-name="Path 20745" d="M290.771,301.3s14.179-7.445,19.969-9.059a13.366,13.366,0,0,0,4.592-1.985s-8.766.857-14.1,4.066C298.694,295.853,290.771,301.3,290.771,301.3Z" transform="translate(159.138 3756.436)" fill="#49699c"/>
    <path id="Path_20746" data-name="Path 20746" d="M288.212,307.308c-.937.374-1.9.615-2.512.806-.935.292-8.349.525-9.866.816s-4.552.76-5.78-.408.761-3.679,2.448-4.319,7.88-.815,8.99-.934,2.569-.526,3.262-.292a8.407,8.407,0,0,0,2.435-.64C287.236,303.078,288.212,307.308,288.212,307.308Z" transform="translate(156.516 3757.938)" fill="#eea886"/>
    <path id="Path_20747" data-name="Path 20747" d="M290.771,306.679l13.94-4.125-2.757-.842S290.814,305.752,290.771,306.679Z" transform="translate(159.138 3757.86)" fill="#5b83c2"/>
    <path id="Path_20748" data-name="Path 20748" d="M290.771,306.35l6.523-1.99-4.523,2.627Z" transform="translate(159.138 3758.189)" fill="#49699c"/>
    <path id="Path_20749" data-name="Path 20749" d="M286.819,291.32l-.295-.163A2.885,2.885,0,0,1,286.819,291.32Z" transform="translate(158.609 3756.548)" fill="#525252"/>
    <path id="Path_20750" data-name="Path 20750" d="M285.694,308.051c-.934.292-8.349.525-9.866.816s-4.552.76-5.779-.408.76-3.679,2.446-4.32,7.88-.815,8.99-.934,2.569-.526,3.262-.292A3.884,3.884,0,0,0,285.694,308.051Z" transform="translate(156.515 3758)" fill="#c5cddb"/>
    <path id="Path_20751" data-name="Path 20751" d="M299.028,260.437s-2.234,9.812-7.553,9.812-8.256-9.474-8.256-9.474c2.506-.877,4.866-1.666,4.866-1.666H294.9S297.06,259.8,299.028,260.437Z" transform="translate(158.198 3752.565)" fill="#dce6fa"/>
    <path id="Path_20752" data-name="Path 20752" d="M280.067,291.678l-2.148-12.219,27.773-.641L303.9,290.841s-8.864,3.245-11.874,5.138C292.029,295.979,284.426,292.854,280.067,291.678Z" transform="translate(157.54 3755.015)" fill="#525252"/>
    <path id="Path_20753" data-name="Path 20753" d="M292.268,286.145a1.577,1.577,0,1,1-1.557-1.83A1.709,1.709,0,0,1,292.268,286.145Z" transform="translate(158.937 3755.698)" fill="#6e6e6e"/>
    <path id="Path_20754" data-name="Path 20754" d="M294.863,259.71a.075.075,0,0,0,0-.022c-.326-.742-.163-4.36-.163-4.36s-6.784-1.726-6.591-.406a22.709,22.709,0,0,1-.583,4.924l-3.48,1.191s3.708,9.95,7.969,8.672,5.872-9.03,5.872-9.03Z" transform="translate(158.302 3751.983)" fill="#eea886"/>
    <path id="Path_20755" data-name="Path 20755" d="M287.639,256.071a4.3,4.3,0,0,0,3.1,1.537,4.658,4.658,0,0,0,3.475-1.647,3.791,3.791,0,0,1-3.466,2.609A3.318,3.318,0,0,1,287.639,256.071Z" transform="translate(158.748 3752.174)" fill="#a77860"/>
    <path id="Path_20756" data-name="Path 20756" d="M275.053,191.451H247.175v24.461l4.257-4.255h23.621Z" transform="translate(153.719 3744.156)" fill="#78c2ff"/>
    <path id="Path_20757" data-name="Path 20757" d="M235.681,295.971a21.909,21.909,0,0,0,.676,3.413c.385,1.046,2.475,3.457,1.592,5.774-.958,2.513-5.137.09-6.839-.677s-1.319-2.156-1.5-3.861-1.013-1.748-.706-2.948a14.507,14.507,0,0,1,2.171-3.491Z" transform="translate(151.44 3756.924)" fill="#35527a"/>
    <path id="Path_20758" data-name="Path 20758" d="M231.662,293.08s-1.069,1.5-1.04,1.538,4.583,2.812,4.894,1.914a9.183,9.183,0,0,0,.358-1.749Z" transform="translate(151.662 3756.787)" fill="#eea886"/>
    <path id="Path_20759" data-name="Path 20759" d="M218.627,297.271a17.159,17.159,0,0,0-2.636,3.088c-1.248,1.871-4.567,1.971-4.7,4.525s4.5,2.632,6.94,1.794,2.806-3.327,4.28-3.95,2.24-1.129,2.12-2.348a15.157,15.157,0,0,0-.93-3.194,9.909,9.909,0,0,1-1.453.353A11.8,11.8,0,0,1,218.627,297.271Z" transform="translate(149.259 3757.298)" fill="#35527a"/>
    <path id="Path_20760" data-name="Path 20760" d="M234.584,236.541s-.934,5.557-1.688,9.226a22.145,22.145,0,0,1-.752,3.038,43.325,43.325,0,0,1-4.116,4.567c-3.766,3.878-8.741,8.759-8.741,8.759l-1.944-3.692s4.418-5.181,7.415-8.646c1.387-1.6,2.469-2.83,2.668-3.006.626-.561,1.351-6.082,2.374-10.632a18.338,18.338,0,0,1,3.07-7.063Z" transform="translate(150.012 3748.835)" fill="#ffd670"/>
    <path id="Path_20761" data-name="Path 20761" d="M228.028,251.078c-3.766,3.878-8.741,8.76-8.741,8.76l-1.944-3.693s4.418-5.181,7.415-8.646A6.327,6.327,0,0,1,228.028,251.078Z" transform="translate(150.012 3751.122)" fill="#eea886"/>
    <path id="Path_20762" data-name="Path 20762" d="M218.034,295.749l-.218,1.7a8.4,8.4,0,0,0,5.08-.078l.055-1.512Z" transform="translate(150.07 3757.119)" fill="#eea886"/>
    <path id="Path_20763" data-name="Path 20763" d="M251.363,261.725c.138.489-25.61,0-25.61,0s7.122-5.184,7.584-6.569-1.815-9.692-2.111-12.4c-.236-2.163-.832-11.841.594-13.318,1.491-1.547,6.851-3.167,6.851-3.167l7.829.291a12.3,12.3,0,0,1,2.215.7c.923.427,6.2,2.308,7.06,4.946s-5.27,11.117-5.27,11.117-.011.381-.029,1.006c-.025.833-.058,2.1-.091,3.471-.04,1.779-.076,3.736-.076,5.166A51.21,51.21,0,0,0,251.363,261.725Z" transform="translate(151.057 3748.484)" fill="#ffd670"/>
    <path id="Path_20764" data-name="Path 20764" d="M253.366,257.955s3.5,5.141,3.549,8.646-6.213,15.269-7.161,16.951c-2.85,5.057-10.664,15.966-10.664,15.966s-1.347-.034-5.545-1.665c0,0,5.2-14.41,5.858-15.906,2.794-6.343,4.354-10.844,3.416-11.932s-3.5-2.178-4.242-2.822-13.663,2.448-15.018,2.795c-3.506.908-1.908,7.013-1.132,9.743,1.305,4.567,2.433,21.1,2.433,21.1a11.915,11.915,0,0,1-6.688.163s-8.214-29.835-8.482-32.8-.4-7.86,19.846-11.581Z" transform="translate(149.054 3752.254)" fill="#293f5e"/>
    <path id="Path_20765" data-name="Path 20765" d="M239.767,211.169s-6.792-1.534-5.24,7.013,3.185,9.22,7.283,7.449,3.73-7.245,3.936-9.93S241.933,211.261,239.767,211.169Z" transform="translate(152.118 3746.594)" fill="#eea886"/>
    <path id="Path_20766" data-name="Path 20766" d="M237.563,229.417s3.009,3.19,7.763.292c0,0-1.064-6.911-.5-10.276s-6.2,5.219-6.2,5.219c.089.046.148.368.163.816a9.313,9.313,0,0,1-.071,1.37C238.57,227.961,238.223,229.144,237.563,229.417Z" transform="translate(152.524 3747.537)" fill="#eea886"/>
    <path id="Path_20767" data-name="Path 20767" d="M245.461,220.311s-.177-2.693-1.16-2.772-1.141,1-1.141,1l-.994.187s.315-2.36-.667-2.772-6.362,1.305-7.154.607-.417-5.481,1.008-6.136,5.364-2.122,8.249-.172c0,0,2.25-.256,2.582,1.559S246.07,218.962,245.461,220.311Z" transform="translate(152.074 3746.372)" fill="#3a3f47"/>
    <path id="Path_20768" data-name="Path 20768" d="M238.583,226.435c4.905-1.512,5.274-4.465,5.279-4.512-1.614,2.774-5.208,3.142-5.208,3.142A9.29,9.29,0,0,1,238.583,226.435Z" transform="translate(152.651 3747.944)" fill="#a77860"/>
    <path id="Path_20769" data-name="Path 20769" d="M247.607,227.354s-3.589,7.149-9.395,6.687-.988-7.648-.724-7.715C237.777,226.255,243.439,224.845,247.607,227.354Z" transform="translate(152.251 3748.434)" fill="#eea886"/>
    <path id="Path_20770" data-name="Path 20770" d="M223.139,257.728s17.779,2.191,28.545.362L231.1,255.518S230.985,256.043,223.139,257.728Z" transform="translate(150.731 3752.119)" fill="#ffd670"/>
    <path id="Path_20771" data-name="Path 20771" d="M235.111,254.8l-1.323.67s.3,2.1,1.026,2.74l1.486-.378S236,255.523,235.111,254.8Z" transform="translate(152.056 3752.03)" fill="#eea886"/>
    <path id="Path_20772" data-name="Path 20772" d="M255.537,253.454a66.274,66.274,0,0,1-7.709,3.232c-5.392,2.079-11.478,4.044-11.478,4.044l-1.385-2.968s6.371-3.464,10.677-5.89a42.731,42.731,0,0,0,3.828-2.285c.694-.652.871-1.716.362-3.558s-1.68-10.321-1.811-11.309.326-3.627,2.8-3.752a7.487,7.487,0,0,1,3.73.566s.622.257,1.084,6.259S256.163,252.728,255.537,253.454Z" transform="translate(152.201 3749.066)" fill="#ffd670"/>
    <path id="Path_20773" data-name="Path 20773" d="M247.915,243.14c-.024.833-.058,2.1-.091,3.471a17.356,17.356,0,0,1-.995-10.716C246.568,237.5,247.9,243.061,247.915,243.14Z" transform="translate(153.624 3749.68)" fill="#a88d4a"/>
    <path id="Path_20774" data-name="Path 20774" d="M231.3,244.594a22.145,22.145,0,0,1-.752,3.038,31.706,31.706,0,0,1-.082-9.1A50.3,50.3,0,0,0,231.3,244.594Z" transform="translate(151.605 3750.008)" fill="#a88d4a"/>
    <path id="Path_20775" data-name="Path 20775" d="M247.828,254.375c-5.392,2.078-11.673,4.107-11.673,4.107l-1.189-3.032s6.371-3.464,10.677-5.89C245.639,249.56,247.208,250.323,247.828,254.375Z" transform="translate(152.201 3751.378)" fill="#eea886"/>
    <path id="Path_20776" data-name="Path 20776" d="M237.417,257.694l-25.267-.372,12.757,6.477Z" transform="translate(149.366 3752.343)" fill="#444c94"/>
    <path id="Path_20777" data-name="Path 20777" d="M223.606,263.758l12.51-4.845v-1.261l-13.5,4.869Z" transform="translate(150.667 3752.384)" fill="#303669"/>
    <path id="Path_20778" data-name="Path 20778" d="M235.016,255.5s-1.578-.244-2.67-.5a5.471,5.471,0,0,0-3.477.617c-.542.542-2.235,4.316-2.557,4.546s.164.763.73.49c0,0,.518,1.652,1.794,1.034s2.15-1.97,2.82-2.208,4.568-1.437,4.568-1.437S236.021,255.1,235.016,255.5Z" transform="translate(151.113 3752.046)" fill="#eea886"/>
    <path id="Path_20779" data-name="Path 20779" d="M229.24,255.319a11.029,11.029,0,0,0-1.277.708c-.264.218-1.338,1.021-1.6,1.211s.393.725,2.312-.1S229.24,255.319,229.24,255.319Z" transform="translate(151.126 3752.094)" fill="#eea886"/>
    <path id="Path_20780" data-name="Path 20780" d="M227.006,265.351l-7.516-20.52-24.23.395,7.163,18.913Z" transform="translate(147.267 3750.791)" fill="#303669"/>
    <path id="Path_20781" data-name="Path 20781" d="M210.37,253.115c.739,1.478.515,3.088-.5,3.6s-2.437-.28-3.176-1.758-.516-3.087.5-3.589S209.631,251.638,210.37,253.115Z" transform="translate(148.634 3751.584)" fill="#518afa"/>
    <path id="Path_20782" data-name="Path 20782" d="M242.171,216.569a.866.866,0,0,1,1.7.1c.119,1.132-.677,3.113-1.243,2.918S242.047,217.609,242.171,216.569Z" transform="translate(153.09 3747.196)" fill="#eea886"/>
    <path id="Path_20783" data-name="Path 20783" d="M147.105,222.121s-.883,12.378,1.537,13.866c1.513.928,7.554,4.056,7.375,4.643s-3.41,5.22-3.41,5.22-11.6-7.641-11.977-10.05c-.365-2.352.571-18.12,2.165-18.847,1.2-.543,1.825-.093,3.33,1.024C148.247,219.541,147.105,222.121,147.105,222.121Z" transform="translate(140.468 3747.297)" fill="#323657"/>
    <path id="Path_20784" data-name="Path 20784" d="M165.443,225.033l1.023-.378s-1.276-2.993-1.834-2.92a13.676,13.676,0,0,0-1.44.295Z" transform="translate(143.281 3747.92)" fill="#ead8cf"/>
    <path id="Path_20785" data-name="Path 20785" d="M166.125,225.571c-.13-.1-2.174-4.018-2.174-4.018l-4.367.595,2.359,4.642Z" transform="translate(142.833 3747.898)" fill="#da9b5b"/>
    <path id="Path_20786" data-name="Path 20786" d="M145.709,301.674s-.36,2.5-.406,2.88-4.013-.221-4.013-.221l-.326-2.982S145.214,301.32,145.709,301.674Z" transform="translate(140.52 3757.815)" fill="#424773"/>
    <path id="Path_20787" data-name="Path 20787" d="M145.414,303.935a10.716,10.716,0,0,0,2.475,2.168c1.216.66,3.127.919,3.846,1.6.518.49,1.89,2.611-3.161,2.565s-7.485.3-8.027-.512.784-5.989.784-5.989A10.7,10.7,0,0,0,145.414,303.935Z" transform="translate(140.451 3758.115)" fill="#292c47"/>
    <path id="Path_20788" data-name="Path 20788" d="M163.376,301.674s-.361,2.5-.406,2.88-4.013-.221-4.013-.221l-.327-2.982S162.88,301.32,163.376,301.674Z" transform="translate(142.715 3757.815)" fill="#424773"/>
    <path id="Path_20789" data-name="Path 20789" d="M163.08,303.935a10.737,10.737,0,0,0,2.472,2.168c1.215.66,5.693,1.2,6.411,1.88.521.489,1.383,2.469-5.724,2.283-5.049-.13-7.485.3-8.027-.512s.784-5.989.784-5.989A9.653,9.653,0,0,0,163.08,303.935Z" transform="translate(142.646 3758.115)" fill="#292c47"/>
    <path id="Path_20790" data-name="Path 20790" d="M147.2,244.4s-3.729,5.925-3.45,11.28a111.878,111.878,0,0,1-.892,16.671c-.625,6.235-2.326,19.215-2.419,22.551s.123,15.889.123,15.889l6.468-.049s2.295-25.358,3.408-27.992,5.681-21.685,5.872-23.792S147.2,244.4,147.2,244.4Z" transform="translate(140.451 3750.737)" fill="#292c47"/>
    <path id="Path_20791" data-name="Path 20791" d="M166.289,245.318s1.467,14.559,1.843,17.837.118,17.479.3,19.529-1.24,23.716-1.592,27.841l-7.109-.044s-.489-17.528-.489-26.044S157.06,266,154.556,260.387s-8.234-5.752-9.773-16.176C144.785,244.211,164.2,242.012,166.289,245.318Z" transform="translate(140.994 3750.625)" fill="#292c47"/>
    <path id="Path_20792" data-name="Path 20792" d="M150.2,200.112s4.443-2.967,7.562.21,4.653,10.655,2.414,12.146-6.035,1.884-7.845-.139a18.982,18.982,0,0,1-4.2-7.366A5.017,5.017,0,0,1,150.2,200.112Z" transform="translate(141.397 3745.077)" fill="#eea886"/>
    <path id="Path_20793" data-name="Path 20793" d="M158.358,211.763a16.175,16.175,0,0,0,.286,3.789c.344.666-6.485.682-6.485.682a45.3,45.3,0,0,0-1.6-6.688C149.5,206.478,158.358,211.763,158.358,211.763Z" transform="translate(141.7 3746.286)" fill="#eea886"/>
    <path id="Path_20794" data-name="Path 20794" d="M151.094,210.788s.637.653,2.446-.084,3.5-3.765,4.218-4.223.616-.919.616-.919l.653.6.841-.144s-1.282-2.051-.353-3.228-2.886-6.935-8.4-3.426c0,0-4.313,2.359-3.527,4.942S149.755,209.727,151.094,210.788Z" transform="translate(141.331 3745.001)" fill="#754836"/>
    <path id="Path_20795" data-name="Path 20795" d="M158.948,214.918s-.021-1.273-.6-1.394-6.362-.679-7.072-.4v1.482S152.643,215.443,158.948,214.918Z" transform="translate(141.801 3746.841)" fill="#e2d2ca"/>
    <path id="Path_20796" data-name="Path 20796" d="M157.048,204.011c-.209-.416-1.631-1.409-1.734.038s1.391,3,1.957,2.708S157.579,205.063,157.048,204.011Z" transform="translate(142.302 3745.628)" fill="#eea886"/>
    <path id="Path_20797" data-name="Path 20797" d="M178.529,228.076h-.01C178.559,228.093,178.565,228.094,178.529,228.076Z" transform="translate(145.187 3748.708)" fill="#323657"/>
    <path id="Path_20798" data-name="Path 20798" d="M168.593,216.507c-4.117-.724-8.453-1.763-8.453-1.763l-7.666-.311s-7.038,1.549-9.812,2.8c-.262.119-.264,6.28-.978,7.895l2.3,4.849s1.328,9.6,1.6,13.875c.126,1.957-2.739,18.389-2.739,18.389a52.872,52.872,0,0,0,8.305,1.48c5.235.576,18.311-.207,18.394-.825s-2.533-23.021-2.649-24.181c-.178-1.781.514-10.007.514-10.007.987,1.324,5.674,7.084,8.3,9.93,1.541,1.675,7.21,4.581,8.524,5.171,2.842,1.269,7.394,4.182,7.561,3.879.134-.183,3.191-5.354,2.832-5.473-.314-.1-9.836-5.927-12.56-7.37-.995-.528-4.867-7.168-4.867-7.168S170.865,217.528,168.593,216.507Z" transform="translate(140.608 3747.013)" fill="#323657"/>
    <path id="Path_20799" data-name="Path 20799" d="M149.074,200.654s-6.361,1.7,1.858,9.591Z" transform="translate(141.235 3745.3)" fill="#754836"/>
    <path id="Path_20800" data-name="Path 20800" d="M192.6,245.751a2.644,2.644,0,0,1-.815-.1s-.434-.242-.754-.392a2.056,2.056,0,0,0-.251-.108,4.692,4.692,0,0,1-1.383-.552c-.552-.365-2.368-1.856-2.368-1.856l1-1.773.4-1.718a30.172,30.172,0,0,1,4.567.419,1.608,1.608,0,0,1,.154.089,6.338,6.338,0,0,1,.874.858c.079.065.816.765.8,1.068a1,1,0,0,1-.467.85,2.393,2.393,0,0,1-.489,1.216,1.482,1.482,0,0,1-.69,1.11C193.188,244.862,193.038,245.63,192.6,245.751Z" transform="translate(146.243 3750.097)" fill="#efaa88"/>
    <path id="Path_20801" data-name="Path 20801" d="M109.459,208.192c.623,2.041-.173,4.091-1.777,4.58s-3.41-.767-4.033-2.807.173-4.09,1.779-4.58S108.837,206.151,109.459,208.192Z" transform="translate(135.855 3745.875)" fill="#e8734d"/>
    <path id="Path_20802" data-name="Path 20802" d="M115.785,217.625a7.825,7.825,0,0,1,3.564,2.491,10.567,10.567,0,0,1,1.556,5.546c.057,1.276.406,6.2.406,6.2l-3.847,1.078Z" transform="translate(137.39 3747.409)" fill="#323657"/>
    <path id="Path_20803" data-name="Path 20803" d="M130.908,306.2s2.887,3.885,2.491,4.5-3.426.7-5.279,0-1.891-5.257-2.726-7.212c-.351-.816.4-3.237,1.45-3.413a4.445,4.445,0,0,1,2.2.34S127.958,303.174,130.908,306.2Z" transform="translate(138.573 3757.652)" fill="#292c47"/>
    <path id="Path_20804" data-name="Path 20804" d="M128.966,300.393a18.209,18.209,0,0,1,.829,3.235c.184,1.3,2.055,4.09,1.967,4.443s-2.463.67-3.426-.237-1.59-3.546-1.794-5.123a12.619,12.619,0,0,0-.45-2.2S128.041,299.425,128.966,300.393Z" transform="translate(138.671 3757.646)" fill="#eea886"/>
    <path id="Path_20805" data-name="Path 20805" d="M108.58,306.267s2.772,3.82,2.385,4.436-3.426.7-5.277,0-1.892-5.257-2.726-7.213c-.351-.815.4-3.236,1.451-3.412a4.706,4.706,0,0,1,2.283.377S105.625,303.238,108.58,306.267Z" transform="translate(135.785 3757.653)" fill="#292c47"/>
    <path id="Path_20806" data-name="Path 20806" d="M106.554,300.465a26.267,26.267,0,0,0,.571,3.079c.352,1.275,2.243,4.178,2.156,4.53s-2.463.67-3.426-.236-1.715-3.534-1.794-5.124a8.464,8.464,0,0,1,.22-2.626A2.138,2.138,0,0,1,106.554,300.465Z" transform="translate(135.93 3757.636)" fill="#eea886"/>
    <path id="Path_20807" data-name="Path 20807" d="M120.921,245.081S123.4,256.6,123.966,259.5s2.161,16.949,2.332,19.337,2.584,11.389,2.47,12.233,3.579,17.991,3.579,17.991a2.221,2.221,0,0,1-2.59.091c-.684-.474-8.1-16.042-8.1-20.308,0-5.9-4.359-13.593-4.921-14.912-5.22-12.254-4.2-16-4.881-16.8s-.742.489-1.142,2.254-1.249,17-1.762,18.94-.114,8.483-.4,11.772-1.532,18.219-1.532,18.219a1.357,1.357,0,0,1-2.325.039c-.292-.317-2.341-16.62-2.4-20.553s-.117-9.336-.228-11.034c-1.053-16.262-3.642-18.584.436-30.092C110.143,225.15,120.921,245.081,120.921,245.081Z" transform="translate(135.464 3749.777)" fill="#eea886"/>
    <path id="Path_20808" data-name="Path 20808" d="M104.377,241.289s-7.055,9.875-4.018,30.877c0,0,16.733,2.283,25.7-2.633,0,0-3.708-21.655-5.056-25.025S104.377,241.289,104.377,241.289Z" transform="translate(135.378 3750.35)" fill="#323657"/>
    <path id="Path_20809" data-name="Path 20809" d="M125.316,302.8v4.068h.528v-3.145Z" transform="translate(138.574 3757.996)" fill="#292c47"/>
    <path id="Path_20810" data-name="Path 20810" d="M102.881,302.8v4.068h.528v-3.145Z" transform="translate(135.786 3757.996)" fill="#292c47"/>
    <path id="Path_20811" data-name="Path 20811" d="M113.7,216.348a40.289,40.289,0,0,0,3.953,1.451c.9.18,3.954,4.685,4.567,6.348s0,4.15-1.264,7.074-.072,3.9-.652,6.823,1.286,9.16,1.394,10.782-16.964,1.888-20.328-1.071c0,0,3.375-5.057,3.808-5.775s.073-4.658-.327-5.669-3.04-9.613-3.04-9.613-2.163-6.6-.21-8.118c1.7-1.317,6.321-1.794,7.152-2.075A14.456,14.456,0,0,1,113.7,216.348Z" transform="translate(135.525 3747.234)" fill="#323657"/>
    <path id="Path_20812" data-name="Path 20812" d="M114.059,214.059s-.072.653-.163,1.552c-.038.4-.078.849-.115,1.305a29.68,29.68,0,0,0-.142,3.456s-2.7,2.708-5.773-3.158a8.058,8.058,0,0,0,.326-5.709C107.225,208.215,114.059,214.059,114.059,214.059Z" transform="translate(136.405 3746.524)" fill="#eea886"/>
    <path id="Path_20813" data-name="Path 20813" d="M119.472,233.034l.452,1.1-.969-.694Z" transform="translate(137.784 3749.324)" fill="#eea886"/>
    <path id="Path_20814" data-name="Path 20814" d="M115.075,200.362s6.057,1.9,2.772,12.352-11.558-1.211-10.693-7.579S115.075,200.362,115.075,200.362Z" transform="translate(136.31 3745.242)" fill="#eea987"/>
    <path id="Path_20815" data-name="Path 20815" d="M118.553,206.511a13.673,13.673,0,0,1-8.044,3.323s-1.935,2.269-2.083,3.159c0,0-5.271-8.809,1.029-12.25C116.121,197.1,120.582,204.619,118.553,206.511Z" transform="translate(136.219 3745.189)" fill="#e8734d"/>
    <path id="Path_20816" data-name="Path 20816" d="M110.246,208.9c-.039-.76-.507-2.491-1.631-2.007s.069,4.01.815,3.793C109.427,210.685,110.338,210.7,110.246,208.9Z" transform="translate(136.441 3746.065)" fill="#eea987"/>
    <path id="Path_20817" data-name="Path 20817" d="M113.7,215.377c-.038.4-.076.849-.115,1.305-3.5-1.729-4.037-4.222-4.052-4.3C112.2,215.38,113.7,215.377,113.7,215.377Z" transform="translate(136.612 3746.758)" fill="#a77860"/>
    <path id="Path_20818" data-name="Path 20818" d="M120.283,224.708a18.274,18.274,0,0,1-.652,5.789l-.757-.393A23.248,23.248,0,0,0,120.283,224.708Z" transform="translate(137.773 3748.29)" fill="#1d3b54"/>
    <path id="Path_20819" data-name="Path 20819" d="M108.5,235.474s1.4-.926,1.616-1.06a3.009,3.009,0,0,1,1.769.164,14.771,14.771,0,0,1,1.862.706c.124.07.247.092.193.453a1.37,1.37,0,0,1-.3.636.843.843,0,0,1-.183.793.73.73,0,0,1-.316.753.619.619,0,0,1-.23.639,4.508,4.508,0,0,1-.978.04c-.382-.082-2.382-.542-3.784-.911C108.147,237.682,107.568,237.332,108.5,235.474Z" transform="translate(136.419 3749.487)" fill="#eea886"/>
    <path id="Path_20820" data-name="Path 20820" d="M112.875,235.073s3.621.8,3.577,1.076c-.063.408-.962.558-3.712-.2C110.066,235.212,112.875,235.073,112.875,235.073Z" transform="translate(136.868 3749.578)" fill="#eea886"/>
    <path id="Path_20821" data-name="Path 20821" d="M105.9,217.811a3.63,3.63,0,0,0-4.637,2.132c-1.071,2.575-1.947,5.506-2.7,6.851s-3.3,7.489-2.546,8.226a10.28,10.28,0,0,0,4.661,2.165c2.423.57,9.444,3.186,9.444,3.186l.895-3.8s-3.087-1.468-4.869-2.188a43.048,43.048,0,0,0-4-1.729,46.145,46.145,0,0,1,2.177-4.846C105,226.786,109.594,220.047,105.9,217.811Z" transform="translate(134.916 3747.403)" fill="#323657"/>
    <path id="Path_20822" data-name="Path 20822" d="M113.461,243.249l9.4-.759a1.334,1.334,0,0,0,1.028-.63l9.739-15.8a1.332,1.332,0,0,0-1.119-2.03l-10.071-.106a1.324,1.324,0,0,0-1.184.695l-9.072,16.661a1.334,1.334,0,0,0,1.284,1.964Z" transform="translate(136.922 3748.193)" fill="#857b77"/>
    <path id="Path_20823" data-name="Path 20823" d="M125.109,236.538a8.731,8.731,0,0,0,1.118-1.315c.527-.769,2.247-3.7,2.091-3.885a5.859,5.859,0,0,0-3.179.171c-.463.417.456.58.456.58s-1.4.144-1.3.539.941.286.941.286-1.125.216-.955.563.712.342.712.342-1,.126-.874.5,1.7.735,1.49,1.05A7.486,7.486,0,0,0,125.109,236.538Z" transform="translate(138.424 3749.096)" fill="#eea886"/>
    <path id="Path_20824" data-name="Path 20824" d="M107.477,216.632s3.392,5.522,6.083,5.46.854-5.109.854-5.109S112.35,215.33,107.477,216.632Z" transform="translate(136.357 3747.224)" fill="#eea886"/>
    <path id="Path_20825" data-name="Path 20825" d="M123.533,233.4c-.908.908-2.135,1.152-2.742.548s-.359-1.834.55-2.742,2.137-1.155,2.742-.548S124.444,232.5,123.533,233.4Z" transform="translate(137.971 3748.989)" fill="#918682"/>
    <path id="Path_20826" data-name="Path 20826" d="M117.729,204.474a8.778,8.778,0,0,1-.26,3.987s.1-2.388-.4-3.039S117.729,204.474,117.729,204.474Z" transform="translate(137.534 3745.775)" fill="#e8734d"/>
    <path id="Path_20709" data-name="Path 20709" d="M170.158,88.878h20.561v-4.1H170.158Z" transform="translate(187.147 3695.899)" fill="#d7d7e6"/>
  </g>
</svg>
