<svg xmlns="http://www.w3.org/2000/svg" width="487.937" height="328.29" viewBox="0 0 487.937 328.29">
  <g id="req_gathering" data-name="req gathering" transform="translate(-166 -3761.814)">
    <g id="Group_627" data-name="Group 627">
      <g id="Group_626" data-name="Group 626">
        <path id="Path_20632" data-name="Path 20632" d="M19.769,214.74c48.721-46.748,151.036,2.629,238.581,14.624s229.942-7.063,229.586,45.546c-.38,56.086-31.958,87.639-205.165,102.71S30.263,346.242,7.617,296.8C-10.013,258.308,6.748,227.234,19.769,214.74Z" transform="translate(166 3709.598)" fill="#e7f3fe"/>
        <path id="Path_20634" data-name="Path 20634" d="M223.252,322.782a127.26,127.26,0,1,1,49.588-10.01A127.408,127.408,0,0,1,223.252,322.782Zm0-227.687A100.317,100.317,0,1,0,323.57,195.413,100.432,100.432,0,0,0,223.252,95.095Z" transform="translate(177.92 3693.814)" fill="#c4f3ff"/>
      </g>
    </g>
  </g>
</svg>
