<svg xmlns="http://www.w3.org/2000/svg" xmlns:xlink="http://www.w3.org/1999/xlink" width="1127.355" height="938.53" viewBox="0 0 1127.355 938.53">
  <defs>
    <filter id="Path_25306" x="0" y="0" width="1127.355" height="938.53" filterUnits="userSpaceOnUse">
      <feOffset dy="3" input="SourceAlpha"/>
      <feGaussianBlur stdDeviation="17" result="blur"/>
      <feFlood flood-opacity="0.161"/>
      <feComposite operator="in" in2="blur"/>
      <feComposite in="SourceGraphic"/>
    </filter>
  </defs>
  <g id="ecommerce" transform="translate(-8327.436 -3285.842)">
    <g transform="matrix(1, 0, 0, 1, 8327.44, 3285.84)" filter="url(#Path_25306)">
      <path id="Path_25306-2" data-name="Path 25306" d="M446.546-44.345c-51.181,22.777-109.137-.936-203.978,23.833S66.243,45.722,25.516,78.564C-33.807,126.4-41.619,282.514-41.619,282.514s9.417,98.907,30.525,156.934C11.582,501.782,38.526,589.78,88.024,638.888c49.939,49.545,130.228,92.786,209.146,80.736,87.352-13.336,103.582-73.2,206.909-102.351s138.09,6.873,206.4-14.24c65.4-20.214,107.424-79.618,135.581-133.46,27.268-52.145,130.566-77.219,137.312-187.059s-82-213.014-110.327-252.3S683.083-106.63,610.638-114.012C534.764-121.742,516.3-75.389,446.546-44.345Z" transform="translate(92.62 162.87)" fill="#d8e5f6" fill-rule="evenodd" opacity="0.31"/>
    </g>
    <g id="shop" transform="translate(8378 3334.026)">
      <g id="Layer_2" data-name="Layer 2" transform="translate(0 0)">
        <g id="OBJECTS">
          <path id="Path_25152" data-name="Path 25152" d="M322.363,343.551c83.33,1.146,178.025,3.414,178.025,3.414s22.485,0,22.485-12.657c0-4.877-1.78-26.338-57.529-8.8,3.926-2.439,25-10.365,16.827-22.558-5.146-7.706-15.364-1.219-18.924,1.707,6.243-8.462,8.511-44.75-13.779-62.455-33.313-26.484-65.43-3.682-71.454,8.779-3.073-12.193-17.071-21.485-26.338-23.777-21.07-5.243-34.8-3.682-54.48,5.511-6.975,3.243-16.29,14.339-20.924,20.485-7.316,9.608-8.365,22.387-8.779,34.41-.293,9.023-.341,18.071-.122,27.094" transform="translate(384.468 322.578)" fill="#d6f2ff"/>
          <path id="Path_25153" data-name="Path 25153" d="M308.52,325.458,490.544,327.9c2.049,0,8.462-1.951-2.609-9.1-9.365-6.024-39.019-.61-39.019-.61s6.9-2.756,6.853-6.316a9.755,9.755,0,0,0-5.975-8.194,22.12,22.12,0,0,0-10.486-1.366,67.213,67.213,0,0,0-21.168,4.731,6.145,6.145,0,1,0-7.1-9.974c4.536-6.146,11.559-33.434-10.048-45.457-27.069-15.1-47.628-2.683-52.017,6.389-2.244-8.9-12.462-15.656-19.192-17.315-15.339-3.8-25.338-2.683-39.677,4-5.072,2.439-11.852,10.462-15.217,14.925-5.292,7-6.1,16.29-6.389,25.07q-.342,9.755,0,19.729" transform="translate(386.044 343.158)" fill="#b8dff2"/>
          <path id="Path_25154" data-name="Path 25154" d="M322.219,343.551c-83.306,1.146-178.025,3.414-178.025,3.414s-22.485,0-22.485-12.657c0-4.877,1.756-26.338,57.529-8.8-3.926-2.439-25-10.365-16.851-22.558,5.17-7.706,15.388-1.219,18.949,1.707-6.243-8.462-8.511-44.75,13.754-62.455,33.337-26.484,65.454-3.682,71.478,8.779,3.048-12.193,17.071-21.485,26.338-23.777,21.07-5.243,34.8-3.682,54.48,5.511,6.95,3.243,16.29,14.339,20.924,20.485,7.316,9.608,8.365,22.387,8.755,34.41.317,9.023.341,18.071.122,27.094" transform="translate(175.103 322.578)" fill="#d6f2ff"/>
          <path id="Path_25155" data-name="Path 25155" d="M318.576,325.429l-182.024,2.439c-2.048,0-8.462-1.951,2.585-9.1,9.389-6.024,39.019-.61,39.019-.61s-6.9-2.756-6.877-6.316a9.755,9.755,0,0,1,5.975-8.194,22.263,22.263,0,0,1,10.511-1.366,67.066,67.066,0,0,1,21.143,4.731,6.146,6.146,0,1,1,7.121-9.974c-4.755-6.17-11.681-33.386,9.877-45.408,27.094-15.1,47.652-2.683,52.042,6.389,2.219-8.9,12.437-15.656,19.168-17.315,15.364-3.8,25.362-2.683,39.678,4,5.073,2.439,11.876,10.462,15.242,14.925,5.268,7,6.1,16.29,6.389,25.07q.317,9.755,0,19.729" transform="translate(191.11 343.187)" fill="#b8dff2"/>
          <path id="Path_25156" data-name="Path 25156" d="M255.4,378.568c-.146.146,1.707-14.632-18.266-31.215-20.241-17.534-67.649-20.217-72.063-35.727-4.585-16.583,24.631-9.9,38.653-20.363s19.071-15.8,1.658-21.168-27.923-7.657-26.362-22.338-28.338-10.633-41.848-22.826c-13.949-12.389-4.219-26.118,24.216-22.387,27.85,4.341,29.264-.171,21.7-5.316s-31.288-15-20.144-21.558,26.362,1.8,19.046-8.56-26.094-19.363-15.51-28.85,35.068-6.121,46.335,22.753,14.632,36.849,27.874,41.214c12.828,4.438,26.826-8.535,42.409-1s10.828,22.8.2,32.069-29.484,27.85-20.436,37.97c8.633,10.145,21.68-2.195,35.946-3.219,15.852-1.122,32.191,14,15.388,33.825-17.339,19.51-42.433,33.654-47.9,82.184Q260.938,381.2,255.4,378.568Z" transform="translate(188.293 192.087)" fill="#d6f2ff"/>
          <g id="Group_1025" data-name="Group 1025" transform="translate(367.13 331.381)" opacity="0.7">
            <path id="Path_25157" data-name="Path 25157" d="M233.231,379.011a.853.853,0,0,1-.853-.756C211.6,206.3,151.388,137.97,150.778,137.312a.878.878,0,0,1,0-1.195.854.854,0,0,1,1.171,0c.61.658,61.187,69.405,82.013,241.869a.829.829,0,0,1-.732.927Z" transform="translate(-150.544 -135.885)" fill="#f0fbff"/>
          </g>
          <g id="Group_1026" data-name="Group 1026" transform="translate(355.755 370.58)" opacity="0.7">
            <path id="Path_25158" data-name="Path 25158" d="M192.07,171.862a.878.878,0,0,1-.537-.171,92.67,92.67,0,0,0-44.872-18.046.853.853,0,0,1-.78-.9.829.829,0,0,1,.9-.78c.244,0,25.509,2.219,45.8,18.412a.829.829,0,0,1,.122,1.171A.732.732,0,0,1,192.07,171.862Z" transform="translate(-145.879 -151.959)" fill="#f0fbff"/>
          </g>
          <g id="Group_1027" data-name="Group 1027" transform="translate(420.737 400.38)" opacity="0.7">
            <path id="Path_25159" data-name="Path 25159" d="M173.39,205.348a.854.854,0,0,1-.61-.244.829.829,0,0,1,0-1.195,331.976,331.976,0,0,1,49.676-39.6.839.839,0,0,1,.9,1.414A329.741,329.741,0,0,0,173.951,205.2a.829.829,0,0,1-.561.146Z" transform="translate(-172.526 -164.178)" fill="#f0fbff"/>
          </g>
          <g id="Group_1028" data-name="Group 1028" transform="translate(334.794 407.357)" opacity="0.7">
            <path id="Path_25160" data-name="Path 25160" d="M220.287,189.941h-.366c-37.97-17.9-81.428-21.192-81.867-21.241a.831.831,0,0,1,.122-1.658c.439,0,44.214,3.365,82.452,21.387a.853.853,0,0,1,.415,1.122.829.829,0,0,1-.756.39Z" transform="translate(-137.284 -167.039)" fill="#f0fbff"/>
          </g>
          <g id="Group_1029" data-name="Group 1029" transform="translate(369.114 499.709)" opacity="0.7">
            <path id="Path_25161" data-name="Path 25161" d="M223.647,225.348a.83.83,0,0,1-.415,0c-25.9-14.071-70.722-18.729-71.137-18.778a.8.8,0,0,1-.732-.9.829.829,0,0,1,.9-.756c.463,0,45.579,4.731,71.771,18.973a.766.766,0,0,1-.39,1.463Z" transform="translate(-151.357 -204.909)" fill="#f0fbff"/>
          </g>
          <g id="Group_1030" data-name="Group 1030" transform="translate(442.739 474.159)" opacity="0.7">
            <path id="Path_25162" data-name="Path 25162" d="M182.407,252.42a.782.782,0,0,1-.341,0,.829.829,0,0,1-.439-1.122c14.461-32.459,48.384-56.48,48.774-56.724a.854.854,0,0,1,1.171.219.8.8,0,0,1-.219,1.146c-.317.244-33.873,24-48.14,56.09a.878.878,0,0,1-.8.39Z" transform="translate(-181.548 -194.431)" fill="#f0fbff"/>
          </g>
          <path id="Path_25163" data-name="Path 25163" d="M363.495,321.173c.171.122-2.853-14.437,15.754-32.581,18.778-19.095,65.845-25.533,68.991-41.458,3.243-16.924-25.338-7.926-40.165-17.217s-20.266-14.242-3.341-21,27.216-9.755,24.509-24.387,27.387-12.852,39.873-26.24c12.925-13.462,2.146-26.362-25.9-20.412-27.435,6.56-29.264,2.17-22.07-3.56s30-17.437,18.339-23.07-26.094,3.878-19.631-7.048S444.24,82.84,433,74.231s-35.458-3.317-44.287,26.362-11.584,38.068-24.509,43.482c-12.437,5.438-27.387-6.389-42.36,2.439s-8.974,23.607,2.439,31.971,31.532,25.533,23.314,36.337c-7.8,10.779-21.778-.488-36.093-.366-15.876.146-30.971,16.51-12.632,34.946,18.827,18.022,44.994,30.167,54.285,78.038C356.52,325.344,360.056,323.2,363.495,321.173Z" transform="translate(417.886 101.428)" fill="#d6f2ff"/>
          <g id="Group_1031" data-name="Group 1031" transform="translate(774.626 177.889)" opacity="0.7">
            <path id="Path_25164" data-name="Path 25164" d="M318.518,321.827a.854.854,0,0,0,.8-.8c7-173.147,61.577-245.967,62.138-246.7a.829.829,0,1,0-1.317-1c-.561.707-55.48,74.039-62.5,247.625a.854.854,0,0,0,.8.878Z" transform="translate(-317.64 -72.944)" fill="#f0fbff"/>
          </g>
          <g id="Group_1032" data-name="Group 1032" transform="translate(807.792 216.175)" opacity="0.7">
            <path id="Path_25165" data-name="Path 25165" d="M332.118,112.095a.707.707,0,0,0,.512-.219,92.671,92.671,0,0,1,43.311-21.558.854.854,0,0,0,.707-.975.829.829,0,0,0-.976-.683c-.244,0-25.24,4.243-44.189,21.948a.854.854,0,0,0,0,1.195A.829.829,0,0,0,332.118,112.095Z" transform="translate(-331.24 -88.644)" fill="#f0fbff"/>
          </g>
          <g id="Group_1033" data-name="Group 1033" transform="translate(739.84 254.991)" opacity="0.7">
            <path id="Path_25166" data-name="Path 25166" d="M356.7,141.676a.951.951,0,0,0,.585-.293.878.878,0,0,0,0-1.195,331.924,331.924,0,0,0-52.676-35.532.84.84,0,1,0-.78,1.488,329.543,329.543,0,0,1,52.286,35.312A.927.927,0,0,0,356.7,141.676Z" transform="translate(-303.376 -104.561)" fill="#f0fbff"/>
          </g>
          <g id="Group_1034" data-name="Group 1034" transform="translate(795.144 251.069)" opacity="0.7">
            <path id="Path_25167" data-name="Path 25167" d="M326.948,132.333a1.025,1.025,0,0,0,.366,0c36.41-20.875,79.477-27.63,79.916-27.7a.878.878,0,0,0,.707-.951.8.8,0,0,0-.975-.707c-.415,0-43.9,6.877-80.477,27.9a.829.829,0,0,0-.317,1.146A.854.854,0,0,0,326.948,132.333Z" transform="translate(-326.053 -102.952)" fill="#f0fbff"/>
          </g>
          <g id="Group_1035" data-name="Group 1035" transform="translate(778.76 345.842)" opacity="0.7">
            <path id="Path_25168" data-name="Path 25168" d="M320.225,167.995a.756.756,0,0,0,.39-.146c24.7-16.1,68.966-24.387,69.405-24.387a.83.83,0,0,0-.293-1.634c-.439,0-45.043,8.34-70.015,24.631a.829.829,0,0,0-.244,1.146A.878.878,0,0,0,320.225,167.995Z" transform="translate(-319.335 -141.815)" fill="#f0fbff"/>
          </g>
          <g id="Group_1036" data-name="Group 1036" transform="translate(724.766 330.225)" opacity="0.7">
            <path id="Path_25169" data-name="Path 25169" d="M350.859,189.328a.561.561,0,0,0,.341,0,.829.829,0,0,0,.341-1.122c-17.071-31.24-52.724-52.481-53.09-52.676a.829.829,0,0,0-1.146.293.854.854,0,0,0,.293,1.146c.366.219,35.7,21.217,52.481,52.017A.8.8,0,0,0,350.859,189.328Z" transform="translate(-297.194 -135.411)" fill="#f0fbff"/>
          </g>
          <rect id="Rectangle_264" data-name="Rectangle 264" width="364.048" height="620.038" rx="17.22" transform="translate(431.453 49.481)" fill="#fff" stroke="#2a4282" stroke-miterlimit="10" stroke-width="1.19"/>
          <rect id="Rectangle_265" data-name="Rectangle 265" width="335.881" height="620.038" rx="17.22" transform="translate(431.453 49.481)" fill="#2a4282"/>
          <path id="Path_25170" data-name="Path 25170" d="M487.8,53.682V576a28.338,28.338,0,0,1-28.338,28.338H211.718A28.338,28.338,0,0,1,183.38,576V53.682A17.437,17.437,0,0,1,200.817,36.27H470.365A17.437,17.437,0,0,1,487.8,53.682Z" transform="translate(263.827 52.181)" fill="#c7e9ff"/>
          <path id="Path_25171" data-name="Path 25171" d="M277.769,33.41a6.584,6.584,0,1,1-6.56-6.56A6.584,6.584,0,0,1,277.769,33.41Z" transform="translate(380.678 38.629)" fill="none" stroke="#fff" stroke-miterlimit="10" stroke-width="0.99"/>
          <path id="Path_25172" data-name="Path 25172" d="M298.821,35.057H234.659a3.439,3.439,0,0,1-3.439-3.439h0a3.463,3.463,0,0,1,3.439-3.439h64.162a3.463,3.463,0,0,1,3.463,3.439h0A3.463,3.463,0,0,1,298.821,35.057Z" transform="translate(332.654 40.542)" fill="none" stroke="#fff" stroke-miterlimit="10" stroke-width="0.99"/>
          <path id="Path_25173" data-name="Path 25173" d="M506.491,40.708V71.68l-35.532,15.8L170.39,74.631,206.019,36.27H502.052a4.415,4.415,0,0,1,3.147,1.318,4.341,4.341,0,0,1,1.292,3.121Z" transform="translate(245.139 52.181)" fill="#4f78d3"/>
          <rect id="Rectangle_266" data-name="Rectangle 266" width="253.99" height="17.754" transform="translate(437.355 114.058)" fill="#f8798a"/>
          <path id="Path_25174" data-name="Path 25174" d="M226.249,87.181h0A21.729,21.729,0,0,1,204.52,65.452V50.82h43.458V65.452A21.729,21.729,0,0,1,226.249,87.181Z" transform="translate(294.241 73.114)" fill="#4f78d3"/>
          <path id="Path_25175" data-name="Path 25175" d="M261.9,87.181h0A21.729,21.729,0,0,1,240.17,65.452V50.82h43.482V65.452A21.729,21.729,0,0,1,261.9,87.181Z" transform="translate(345.531 73.114)" fill="#4f78d3"/>
          <path id="Path_25176" data-name="Path 25176" d="M504.167,36.271h-296.5a8.243,8.243,0,0,0-5.731,2.439L171.554,69.047a8.926,8.926,0,0,0-2.634,6.316V86.386a21.729,21.729,0,0,0,22.412,21.729A22.363,22.363,0,0,0,212.4,85.484v-13.8H429.738v13.8a22.339,22.339,0,0,0,21.07,22.631A21.729,21.729,0,0,0,473.2,86.386V75.534a9.316,9.316,0,0,1,2.756-6.584l13.364-13.315,18.119-18.046a4.414,4.414,0,0,0-3.268-1.317Z" transform="translate(243.024 52.18)" fill="#4f78d3"/>
          <path id="Path_25177" data-name="Path 25177" d="M222.209,36.27,188.726,69.753a7.023,7.023,0,0,0-2.024,4.877V85.556a22.338,22.338,0,0,0,21.046,22.631,21.729,21.729,0,0,0,22.412-21.729V74.631a6.95,6.95,0,0,1,2.049-4.877l33.483-33.361Z" transform="translate(268.602 52.181)" fill="#fff5f4"/>
          <path id="Path_25178" data-name="Path 25178" d="M258.134,36.27,223.993,70.021a5.584,5.584,0,0,0-1.683,4V86.385a21.729,21.729,0,0,0,21.753,21.729h0a21.729,21.729,0,0,0,21.729-21.729V74.021a5.56,5.56,0,0,1,1.658-4L301.4,36.27Z" transform="translate(319.836 52.181)" fill="#fff5f4"/>
          <path id="Path_25179" data-name="Path 25179" d="M293.68,36.27,260.733,68.924A9.389,9.389,0,0,0,258,75.557v9.925a22.338,22.338,0,0,0,21.07,22.631,21.729,21.729,0,0,0,22.412-21.729V75.557a9.292,9.292,0,0,1,2.853-6.633L337.283,36.27Z" transform="translate(371.181 52.181)" fill="#fff5f4"/>
          <line id="Line_11" data-name="Line 11" x2="907.315" transform="translate(0 669.543)" fill="none" stroke="#2a4282" stroke-miterlimit="10" stroke-width="1.19"/>
          <path id="Path_25180" data-name="Path 25180" d="M56.693,332.936A37.312,37.312,0,0,0,41.6,307.6c-14.242-10.755-26.387-9.755-24.582-22.094S5.407,279.992,1.432,260.97s-.171-40.6,18.071-31.264,8.072,31.825,20.339,35.776,19.851,1.219,19.973,17.534-4.146,21.509,1.439,28.9,5.828,23.338,5.828,23.338" transform="translate(0.007 327.242)" fill="#618cd1"/>
          <path id="Path_25181" data-name="Path 25181" d="M15.713,255.524c-2.292-6.511-3.951-11.95-2.244-18.754,0-.244-.293-.415-.415-.171-3.195,5.9,0,13.51,2.292,19.071a.2.2,0,1,0,.366-.146Z" transform="translate(16.844 340.224)" fill="#fff"/>
          <path id="Path_25182" data-name="Path 25182" d="M18.334,261.973a19,19,0,0,1,5.292-16.656.244.244,0,0,0-.293-.366c-5.463,3.561-6.633,11.169-5.414,17.071,0,.219.415.171.39,0Z" transform="translate(25.148 352.382)" fill="#fff"/>
          <path id="Path_25183" data-name="Path 25183" d="M21.081,267.453A19.022,19.022,0,0,1,26.4,250.8a.244.244,0,0,0-.293-.366c-5.487,3.561-6.633,11.169-5.414,17.071,0,.219.415.171.39,0Z" transform="translate(29.132 360.266)" fill="#fff"/>
          <path id="Path_25184" data-name="Path 25184" d="M24.718,271.646a29.263,29.263,0,0,1-.219-5.268,36.744,36.744,0,0,1,.78-4.585c0-.219-.341-.293-.439,0a14.974,14.974,0,0,0-.512,10c0,.219.415.171.39,0Z" transform="translate(34.103 376.363)" fill="#fff"/>
          <path id="Path_25185" data-name="Path 25185" d="M34.158,253.686c-8.511-5.731-20.192-11.974-30.41-7.072a.229.229,0,0,0,.2.415c10.9-3.634,20.8,1.341,30.02,7C34.158,254.027,34.353,253.808,34.158,253.686Z" transform="translate(5.202 352.256)" fill="#fff"/>
          <path id="Path_25186" data-name="Path 25186" d="M34.173,257.407c-5.707-6.389-18.485-5.1-25.119-1.439-.219.122,0,.537.171.439,7.048-2.731,18.534-4.877,24.655,1.268a.2.2,0,1,0,.293-.268Z" transform="translate(12.894 363.874)" fill="#fff"/>
          <path id="Path_25187" data-name="Path 25187" d="M30.365,264.841a12.851,12.851,0,0,0-5.95-4.365,11.315,11.315,0,0,0-7.316-1.268.244.244,0,0,0,0,.463c4.512.2,10,1.658,12.925,5.414a.2.2,0,0,0,.317-.244Z" transform="translate(24.359 372.706)" fill="#fff"/>
          <path id="Path_25188" data-name="Path 25188" d="M55.759,322.616C52.564,309.35,46.321,296.425,40.3,284.28,31.567,266.6,21.032,247.187,5.79,234.238c-.463-.366-1.073.219-.658.658a211.483,211.483,0,0,1,34.02,50.14c6.024,12.023,12.193,24.826,15.827,37.9.122.488.878.268.756-.219Z" transform="translate(7.184 336.831)" fill="#fff"/>
          <path id="Path_25189" data-name="Path 25189" d="M27.55,249.745c-7.779-6.438-15.266-14.266-26.192-13.462a.244.244,0,0,0,0,.463c11.169.658,17.461,6.877,25.948,13.291C27.477,250.184,27.721,249.867,27.55,249.745Z" transform="translate(1.714 339.857)" fill="#fff"/>
          <path id="Path_25190" data-name="Path 25190" d="M34.194,341.193s-8.511-17.559-2.756-26,14.413-10.438,11.925-21.948S30.829,271.91,34.682,260.3s22.558-9.828,27.265-19.583,4.877-20.68,16.071-17.656,21.022,16.656,9.121,30.142-11.072,16.144-10.389,25.85-18.7,15.242-21.143,23,6.584,16.534.78,20.534-13.876,11.218-13.462,21" transform="translate(42.356 320.181)" fill="#4978c4"/>
          <path id="Path_25191" data-name="Path 25191" d="M43.074,251.354c1.293-5.95,2.878-13.949-1.366-19.168-.171-.2-.463,0-.341.293,2.951,6.341,2.439,11.95,1.317,18.778,0,.244.317.366.39,0Z" transform="translate(59.473 333.932)" fill="#fff"/>
          <path id="Path_25192" data-name="Path 25192" d="M43.629,263.022a54.554,54.554,0,0,0-2.292-15.973c-.927-3.17-2.219-7.853-5.414-9.462-.219-.122-.488.2-.293.366,6.267,5.146,7.316,17.583,7.609,25.07a.2.2,0,0,0,.39,0Z" transform="translate(51.163 341.774)" fill="#fff"/>
          <path id="Path_25193" data-name="Path 25193" d="M41.338,267.258c0-6.1-.61-18.876-7.17-21.948-.219,0-.512.171-.293.366,5.853,4.877,6.8,14.632,7.072,21.582a.2.2,0,1,0,.39,0Z" transform="translate(48.625 352.926)" fill="#fff"/>
          <path id="Path_25194" data-name="Path 25194" d="M35.672,270.475a14.632,14.632,0,0,0-2.439-9.755c-.146-.171-.439,0-.39.244.439,1.366,1.146,2.634,1.561,4.048a29.262,29.262,0,0,1,.829,5.438.2.2,0,0,0,.39,0Z" transform="translate(47.243 374.998)" fill="#fff"/>
          <path id="Path_25195" data-name="Path 25195" d="M40.277,255.527c6.267-9.755,14.413-13.584,24.8-18,.244,0,0-.488-.171-.415a40.336,40.336,0,0,0-24.972,18.217.2.2,0,0,0,.341.2Z" transform="translate(57.417 341.124)" fill="#fff"/>
          <path id="Path_25196" data-name="Path 25196" d="M37.8,258.527c4.414-7.121,13.754-10.682,21.68-10.974.293,0,.268-.415,0-.439a24.387,24.387,0,0,0-21.948,11.218.2.2,0,1,0,.341.2Z" transform="translate(53.964 355.463)" fill="#fff"/>
          <path id="Path_25197" data-name="Path 25197" d="M35.216,265.674c2.146-4.268,7.316-6.706,11.681-7.755a.219.219,0,1,0,0-.439,11.047,11.047,0,0,0-6.975,2.609,12.706,12.706,0,0,0-5.072,5.438c0,.2.268.341.366.146Z" transform="translate(50.138 370.435)" fill="#fff"/>
          <path id="Path_25198" data-name="Path 25198" d="M33.86,330.022c1.073-14.315,6.024-29.264,10.243-42.8a239.945,239.945,0,0,1,25.826-58.114c.268-.439-.39-.975-.732-.561-12.974,16.217-20.119,37.97-26.143,57.577-4.268,13.974-9.243,29.264-9.974,43.9A.39.39,0,0,0,33.86,330.022Z" transform="translate(47.592 328.596)" fill="#fff"/>
          <path id="Path_25199" data-name="Path 25199" d="M43.05,248.148c3.1-3.414,5.853-7.316,9.1-10.462a28.021,28.021,0,0,1,13.9-7.462c.244,0,.2-.488,0-.463C55.17,230.882,49.22,240.174,42.83,247.88c-.171.2,0,.463.268.268Z" transform="translate(61.521 330.554)" fill="#fff"/>
          <path id="Path_25200" data-name="Path 25200" d="M46.89,357.462s5.194-20.168,1.512-26-14.974-16.8-16.8-29.654,5.8-23.533,4.268-33.947-24.387-25.07-24.387-37.6S23.893,201,40.305,209.165s10.925,25.679,18.583,37.6,33.02,37.922,19.266,58.114S59.5,340.367,61.937,353.8" transform="translate(16.516 297.814)" fill="#6d97e4"/>
          <path id="Path_25201" data-name="Path 25201" d="M29.737,250.845a37.922,37.922,0,0,1,8.413-21.119.244.244,0,0,0-.341-.317c-5.975,4.877-8.1,14.242-8.389,21.436,0,.244.366.244.39,0Z" transform="translate(42.326 330.003)" fill="#fff"/>
          <path id="Path_25202" data-name="Path 25202" d="M30.65,254.53a23.167,23.167,0,0,1,4.365-8.926,16.29,16.29,0,0,1,6.17-3.975c.2,0,0-.463-.122-.439-6.267.707-9.755,7.9-10.8,13.267a.2.2,0,1,0,.39,0Z" transform="translate(43.535 346.998)" fill="#fff"/>
          <path id="Path_25203" data-name="Path 25203" d="M26.95,239.437c0-7.877-.219-15.437,1.829-23.094a.224.224,0,1,0-.415-.171c-3.219,6.877-2.17,15.9-1.8,23.265a.2.2,0,0,0,.39,0Z" transform="translate(37.553 310.805)" fill="#fff"/>
          <path id="Path_25204" data-name="Path 25204" d="M30.675,260.689a22.728,22.728,0,0,1,4.487-8.974,17.582,17.582,0,0,1,6.341-3.975c.2,0,0-.463,0-.439-6.316.707-9.755,7.828-11.023,13.291a.2.2,0,0,0,.366,0Z" transform="translate(43.851 355.788)" fill="#fff"/>
          <path id="Path_25205" data-name="Path 25205" d="M30.48,267.621c.488-1.61.9-3.292,1.488-4.877a29.71,29.71,0,0,1,2.268-4.268.224.224,0,0,0-.317-.317c-2.585,1.9-3.317,6.438-3.829,9.365a.2.2,0,0,0,.39,0Z" transform="translate(43.29 371.317)" fill="#fff"/>
          <path id="Path_25206" data-name="Path 25206" d="M41.381,254.33c-3.048-8.511-8-19.119-18.8-18.315a.244.244,0,0,0,0,.463,17.071,17.071,0,0,1,13.462,7.487,56.97,56.97,0,0,1,5.072,10.486c0,.219.463,0,.366-.122Z" transform="translate(32.243 339.492)" fill="#fff"/>
          <path id="Path_25207" data-name="Path 25207" d="M43.22,256.855c-2.244-8.145-13.437-13.388-21.241-12.632a.244.244,0,0,0,0,.463c7.706.512,18.119,3.951,20.851,12.193a.2.2,0,0,0,.39,0Z" transform="translate(31.38 351.257)" fill="#fff"/>
          <path id="Path_25208" data-name="Path 25208" d="M36.659,263.478a12.632,12.632,0,0,0-4.146-6.609,11.657,11.657,0,0,0-6.292-4,.244.244,0,0,0,0,.439c4.024,2,9.072,5.585,10.145,10.291,0,.244.415.122.39,0Z" transform="translate(37.526 363.802)" fill="#fff"/>
          <path id="Path_25209" data-name="Path 25209" d="M43.925,344.511a203.825,203.825,0,0,0,2.439-53.09c-1.9-27.24-8.535-56.8-26.094-78.453-.317-.415-1,.122-.707.561,16.193,24.119,23.8,51.31,25.558,80.209A215.874,215.874,0,0,1,43.1,344.365c0,.488.658.707.756.2Z" transform="translate(28.041 306.181)" fill="#fff"/>
          <path id="Path_25210" data-name="Path 25210" d="M39.325,244.358c-4.121-8.389-8.438-15.8-17.876-18.827a.244.244,0,0,0-.171.439,33.726,33.726,0,0,1,10.95,7.462,66.946,66.946,0,0,1,6.755,11.12.2.2,0,1,0,.341-.2Z" transform="translate(30.47 324.468)" fill="#fff"/>
          <path id="Path_25211" data-name="Path 25211" d="M38.611,225.726c-7.438-5.877-14.315-10.438-24.216-9.316a.232.232,0,0,0,0,.463,31.9,31.9,0,0,1,14,2.439,78.356,78.356,0,0,1,9.974,6.706c.171.122.415-.171.244-.317Z" transform="translate(20.381 311.103)" fill="#fff"/>
          <path id="Path_25212" data-name="Path 25212" d="M79.847,269.99l-.341,1.78-7.048,34.215H24.049L17.026,271.77l-.366-1.78Z" transform="translate(23.969 388.433)" fill="#dae2f2"/>
          <path id="Path_25213" data-name="Path 25213" d="M79.847,269.99l-.341,1.78H17.026l-.366-1.78Z" transform="translate(23.969 388.433)" fill="#9abeea" opacity="0.3"/>
          <rect id="Rectangle_267" data-name="Rectangle 267" width="76.331" height="10.194" rx="1.2" transform="translate(34.069 648.253)" fill="#dae2f2"/>
          <path id="Path_25214" data-name="Path 25214" d="M350.444,467.552c-6.389,50.408-155.125,63.674-234.553,33.9C20.1,465.6,21.22,254.9,56.02,204.515c24.192-35.068,67.747-46.677,107.5,0a189.072,189.072,0,0,1,22.8,34.41c23.094,43.677,35.824,115.57,68.869,134.128l33.386,11.364s1.1.537,3.048,1.61C304.767,393.026,356.053,423.582,350.444,467.552Z" transform="translate(49.502 249.911)" fill="#c7e9ff"/>
          <path id="Path_25215" data-name="Path 25215" d="M266.76,366.927l-33.386-11.364c-33.044-18.534-45.774-90.427-68.869-134.128a189.073,189.073,0,0,0-22.8-34.41c-25.46,1.414-23.728-1.195-23.728-1.195S76.713,193.756,69.86,227.7a23.777,23.777,0,0,0-1.024,7.145c-4.877-2.951-18.461-3.9-19.046-3.17s12.193,4.585,19.046,10.8c0,0-12.462-1.658-19.266.829a149.553,149.553,0,0,1,19.51,5.365s-21.631,8.291-19.241,8.633c3.56.512,19.778-1.244,19.778-1.244.927,12.632,2.707,25.119,4.682,46.555,2.024,22.143,11.9,63.65,25.021,83.623a194.582,194.582,0,0,0-17.071,13.535c-9.755,8.682-5.755,11.316,1.146,8.438s28.728-9.8,28.728-9.8-15.437,12.754-14.266,14.12,15.437-8.292,22.485-10.828h0a105.375,105.375,0,0,0,36.215,3.1c2.292,7.316,6.219,17.29,16.827,17.242,8.633,0,9.462-9.926,18.022-14.437,23.216-12.193,56.626-28.581,68.527-29.264,7.194-.317,9.511-4.877,9.755-9.755C267.857,367.464,266.76,366.927,266.76,366.927Z" transform="translate(71.316 267.352)" fill="#abd7ef" opacity="0.44"/>
          <path id="Path_25216" data-name="Path 25216" d="M106.69,179.445c-18.144-6.316-40.629.512-50.042,17.876-7.609,13.974-9.34,31.313-10.291,46.92a395.384,395.384,0,0,0,4.463,80.135c2.439,17.071,5.658,33.9,9.487,50.627,3.073,13.34,5.633,27.435,11.12,40.043,14.632,33.654,51.408,49.115,85.208,56.09a320.319,320.319,0,0,0,87.793,4.877,158.107,158.107,0,0,0,21.095-3.048c21.265-4.438,46.725-11.779,60.382-30,.488-.658-.659-1.561-1.2-.9-13,16.486-35.678,23.582-55.358,28.094a148.146,148.146,0,0,1-20.631,3.487,349.875,349.875,0,0,1-72.161-1.536c-33.508-4.292-71.5-14.34-93.426-42.019a73.794,73.794,0,0,1-12.657-23.631C65.6,391,62.233,374.931,58.965,359.079a523.416,523.416,0,0,1-11.023-85.988c-.8-21.509-.61-44.409,6-65.138a41.287,41.287,0,0,1,11.413-19.168,43.433,43.433,0,0,1,41.092-8.706.328.328,0,1,0,.171-.634Z" transform="translate(66.091 254.837)" fill="#72b1cc"/>
          <path id="Path_25217" data-name="Path 25217" d="M136.046,265.209c-16.461,10.657-37.824,12.194-53.968,23.485A93.621,93.621,0,0,0,50.2,331.127c-.171.463.61.8.8.342,6.95-15.925,19.51-33.971,34.873-42.775,16.12-9.243,34.678-12.852,50.408-23.07.268-.171,0-.61-.244-.415Z" transform="translate(72.194 381.484)" fill="#72b1cc"/>
          <path id="Path_25218" data-name="Path 25218" d="M94.411,199.39c-11.925-11.755-32.922-16.876-49.213-13.51a.488.488,0,0,0,.146.951,81.382,81.382,0,0,1,25.582,1.878,96.839,96.839,0,0,1,23.29,10.828s.2,0,.122-.146Z" transform="translate(64.543 265.962)" fill="#72b1cc"/>
          <path id="Path_25219" data-name="Path 25219" d="M162.889,248.768c-5.365-.707-35.263-41.994-45.847-54.578a29.264,29.264,0,0,0-17.559-9.34c-8.048,6.877-9.755,21.046-4.877,30.167,20.119,38.239,51.969,60.6,64.43,65.967C149.355,268.131,162.889,248.768,162.889,248.768Z" transform="translate(132.192 265.942)" fill="#f2cfaa"/>
          <path id="Path_25220" data-name="Path 25220" d="M137.951,224.065c0,4.414-3.341,13.559-5.585,18.412a36.1,36.1,0,0,1-6.048,9.413,47.506,47.506,0,0,1-8.682,7.657c-.634.488-8.633-17.559-10.1-19.51l-.171-.146a8.268,8.268,0,0,1-3-1.658c-1.878-1.366-3.731-2.853-5.56-4.317a15.047,15.047,0,0,1-3.975-4.365,15.608,15.608,0,0,1-.975-8.023L93.42,183.9A30.435,30.435,0,0,1,116.49,195a61.24,61.24,0,0,1,4.024,5.585C125.9,208.8,132.488,215.847,137.951,224.065Z" transform="translate(134.403 264.576)" fill="#3f9ef7"/>
          <line id="Line_12" data-name="Line 12" x1="2.049" y2="27.484" transform="translate(298.545 402.726)" fill="#bfbfbf"/>
          <line id="Line_13" data-name="Line 13" y1="7.072" x2="0.219" transform="translate(230.993 423.528)" fill="#ccc"/>
          <rect id="Rectangle_268" data-name="Rectangle 268" width="27.85" height="52.505" rx="1.6" transform="translate(278.399 410.406) rotate(-6.41)" fill="#2a4282"/>
          <path id="Path_25221" data-name="Path 25221" d="M146.843,188.617a52.114,52.114,0,0,1-.463,16.412h0a2.753,2.753,0,0,1,0,.293,15.388,15.388,0,0,0-.829,5c.732,29.411-.829,62.6-2.439,71.381s-8.828,15.169-18.022,10.169c-7.316-4-9.56-13.169-9.56-13.169,3.609-19.973,18.119-74.087,18.119-74.551-8.023-10.34-2.9-20.339,2.609-25.655a4.048,4.048,0,0,1,4.073-1.146,15.9,15.9,0,0,1,6.511,11.267Z" transform="translate(166.212 254.933)" fill="#f2cfaa"/>
          <path id="Path_25222" data-name="Path 25222" d="M92.64,265.184S213.6,226.165,249.082,243.992s22.168,43.9-6.292,55.31c-26.679,10.584-89.963,14.047-89.963,14.047Z" transform="translate(133.28 344.319)" fill="#4a4251"/>
          <path id="Path_25223" data-name="Path 25223" d="M140.369,268.109S162.9,247.527,187.7,245.088c0,0-27.216-1.219-54.09,19.51S140.369,268.109,140.369,268.109Z" transform="translate(177.247 352.587)" fill="#38323f"/>
          <path id="Path_25224" data-name="Path 25224" d="M137.225,194.159l-34.946-43.7c-32.361-4.048-37.9,27.7-36.58,51.042s-6.828,28.825-6.828,28.825a59.7,59.7,0,0,0,13.705,5.682l.658-.8a25.46,25.46,0,0,0,2.122-3.609,31.072,31.072,0,0,0,1.512-3.975,30.606,30.606,0,0,1-1.024,4.17,27.243,27.243,0,0,1-1.731,3.975c0,.2-.244.366-.366.561a84.913,84.913,0,0,0,11.047,2.292,4.2,4.2,0,0,0,.171-.512,23.168,23.168,0,0,0,.756-4.121,27.311,27.311,0,0,0,0-4.243,27.849,27.849,0,0,1,.463,4.268,21.389,21.389,0,0,1-.244,4.317v.439a97.261,97.261,0,0,0,20.387.415,85.16,85.16,0,0,0,34.8-9.926c-.317-.488-.634-.975-.9-1.488a20.973,20.973,0,0,1-1.439-3.438,22.491,22.491,0,0,1-.829-3.585,24.068,24.068,0,0,0,1.244,3.439,24.563,24.563,0,0,0,1.78,3.122c.366.488.732.951,1.146,1.414a42.993,42.993,0,0,0,7.755-5.707C137.786,216.2,137.225,194.159,137.225,194.159Z" transform="translate(84.696 215.956)" fill="#1b3266"/>
          <path id="Path_25225" data-name="Path 25225" d="M80.177,171.22s4.877,22.168,2.585,30.947S70.13,215.238,70.13,215.238s20.68,18.9,39.239,13.023,9.755-25.7,9.755-25.7-8.243-1.756-10.072-4.487-2.658-14-2.658-14Z" transform="translate(100.896 246.333)" fill="#f2cfaa"/>
          <path id="Path_25226" data-name="Path 25226" d="M95.945,153.428c10.828,2.878,17.071,12.193,19.778,29.045s3.219,34.361-8.706,37.556-26.24-10.072-30.947-20.851S71.217,146.722,95.945,153.428Z" transform="translate(105.905 219.692)" fill="#f2cfaa"/>
          <path id="Path_25227" data-name="Path 25227" d="M81.64,170.1c-.634-3.682.146-5.243,1.731-5.536s3.39.854,4.024,4.536-.2,5.1-1.78,5.365S82.25,173.784,81.64,170.1Z" transform="translate(117.138 236.697)" fill="#381c0e"/>
          <path id="Path_25228" data-name="Path 25228" d="M89.3,167.991c-.512-3.219,0-4.536,1-4.877s2.219.829,2.707,4.048,0,4.39-1.024,4.585S89.787,171.21,89.3,167.991Z" transform="translate(128.184 234.588)" fill="#381c0e"/>
          <path id="Path_25229" data-name="Path 25229" d="M87.236,162.133a5.39,5.39,0,0,0-7.316,2.658h0a4.731,4.731,0,0,1,7.316-2.634" transform="translate(114.98 232.032)" fill="#381c0e" stroke="#381c0e" stroke-linecap="round" stroke-linejoin="round" stroke-width="0.48"/>
          <path id="Path_25230" data-name="Path 25230" d="M87.44,161.728c1.561-1.927,3.8-3.341,5.731-1.366h0a4.536,4.536,0,0,0-5.609,1.268" transform="translate(125.799 229.341)" fill="#381c0e" stroke="#381c0e" stroke-linecap="round" stroke-linejoin="round" stroke-width="0.48"/>
          <path id="Path_25231" data-name="Path 25231" d="M95.778,172.435c-.732,2.78-1.171,5.39-5.048,5.365-2.561,0-4.877-1.853-4.585-2.78h.146c4.39,2.122,6.536,2.244,9.17-2.439,0,0,.268-.561.317-.488S95.778,172.435,95.778,172.435Z" transform="translate(123.9 247.581)" fill="#381c0e"/>
          <path id="Path_25232" data-name="Path 25232" d="M86.663,168l-12.8,1.024" transform="translate(106.262 241.7)" fill="none" stroke="#858585" stroke-linecap="round" stroke-linejoin="round" stroke-width="0.21"/>
          <path id="Path_25233" data-name="Path 25233" d="M78.783,168.072s-5.9-4.195-7.755,2.439S77.368,185.143,82.66,182" transform="translate(101.802 239.922)" fill="#f2cfaa"/>
          <path id="Path_25234" data-name="Path 25234" d="M85.943,170.805a24.094,24.094,0,0,1-4.536,14.437c-5.1,7.316-3.512,16.51-1.536,18.754a16.632,16.632,0,0,1-7.316-13.071s-4.146-21.363,7.706-28.24l.951-10.364s3.512-6.292,16.266-3.926,19.7,19.168,19.51,26.631a18.217,18.217,0,0,0-12.389-3.292C96.6,172.147,91.942,174.22,85.943,170.805Z" transform="translate(103.373 212.728)" fill="#1b3266"/>
          <path id="Path_25235" data-name="Path 25235" d="M87.173,164.335c1.049,2.8,2.146,5.585,3.463,8.267a15.639,15.639,0,0,0,1.073,1.878,17.22,17.22,0,0,1,1.366,1.927,1.853,1.853,0,0,1-.219,1.536,3.317,3.317,0,0,1-.951.9,5.976,5.976,0,0,1-2.195.8h0a12.579,12.579,0,0,0,1.731-1.366c.512-.488.8-1.049.585-1.39a15.87,15.87,0,0,1-1.244-1.707,18.218,18.218,0,0,1-.951-2.122,63.016,63.016,0,0,1-2.731-8.609h0S87.149,164.286,87.173,164.335Z" transform="translate(125.31 236.415)" fill="#bd633f"/>
          <path id="Path_25236" data-name="Path 25236" d="M85.66,168.117a5.95,5.95,0,0,1,7.853-2.439" transform="translate(123.238 237.462)" fill="none" stroke="#858585" stroke-linecap="round" stroke-linejoin="round" stroke-width="0.21"/>
          <path id="Path_25237" data-name="Path 25237" d="M89.751,171.942c.171,1.512-2.268,3.024-5.414,3.365s-5.877-.61-6.024-2.122,2.244-3,5.414-3.341S89.751,170.333,89.751,171.942Z" transform="translate(112.66 244.245)" fill="#d9592a" opacity="0.25"/>
          <path id="Path_25238" data-name="Path 25238" d="M90.065,170.661a3.024,3.024,0,0,0,3.414,2.122c-.146-1.78-.317-3.609-.537-5.463h0A3.122,3.122,0,0,0,90.065,170.661Z" transform="translate(129.564 240.722)" fill="#d9592a" opacity="0.25"/>
          <path id="Path_25239" data-name="Path 25239" d="M79.091,173.559c-.439-4.024,3.195-7.755,8.121-8.292s9.267,2.439,9.755,6.365-3.195,7.731-8.121,8.267S79.53,177.607,79.091,173.559Z" transform="translate(113.736 237.678)" fill="none" stroke="#858585" stroke-linecap="round" stroke-linejoin="round" stroke-width="0.21"/>
          <path id="Path_25240" data-name="Path 25240" d="M88.91,169.053a4.682,4.682,0,1,1,5.1,4.731A5.024,5.024,0,0,1,88.91,169.053Z" transform="translate(127.914 236.575)" fill="none" stroke="#858585" stroke-linecap="round" stroke-linejoin="round" stroke-width="0.21"/>
          <path id="Path_25241" data-name="Path 25241" d="M117.988,234.238a47.5,47.5,0,0,1-8.682,7.658c-.634.488-8.633-17.559-10.1-19.51,0-13.437.219-26.216.219-26.216a362.97,362.97,0,0,0,18.559,38.068Z" transform="translate(142.733 282.228)" fill="#3f9ef7"/>
          <path id="Path_25242" data-name="Path 25242" d="M87.764,378.943c11.706,6.536,10.779-22.363,12.9-21.948,22.875,3.78,80.135-12.413,87.232-21.948-5.048-9.9-30.484-122.52-32.313-125.5-7.316-11.876-6.8-21.07-10.584-24.558-10.877-.854-12.559-1.439-16.047-1.634,1.39,5.828,5.024,18.412-4.17,24.777-19.095,1.439-30.752-18.119-30.752-18.119s-13.242,5.536-20.07,11.072a26.387,26.387,0,0,0-7.975,8.852C50.842,243.035,68.742,313.1,79.058,348.679,81.74,358.068,79.3,372.7,87.764,378.943Z" transform="translate(86.529 263.799)" fill="#3f9ef7"/>
          <path id="Path_25243" data-name="Path 25243" d="M62.92,203.62l8.17,46.6s15.339-.317,20.973-2.439c0,0,33.849,32.264,45.165,30.7s-26.362-55.407-26.362-55.407Z" transform="translate(90.523 292.947)" fill="#3f9ef7"/>
          <path id="Path_25244" data-name="Path 25244" d="M134.166,260.989c-3.756-6.341-21.948-24-42.945-55.822C85.295,196.168,74,194.9,74,194.9c-8.633,6.1-6.633,25.362-2.122,34.605,17.071,34.9,49.505,59.675,54.212,60.089C117.656,275.84,134.166,260.989,134.166,260.989Z" transform="translate(97.851 280.401)" fill="#f2cfaa"/>
          <path id="Path_25245" data-name="Path 25245" d="M135.4,213.633h0a25.117,25.117,0,0,0-5.633,9.511c-7.462,26.24-11.364,57.017-14.778,63.845,0,0-5.9,24.655-26.826,5.219-.537-4.365,20.631-55.944,27.118-71.771a21.143,21.143,0,0,0,1.366-8.535A29.533,29.533,0,0,1,128.161,189C131.111,187.124,143.622,200.927,135.4,213.633Z" transform="translate(126.829 271.667)" fill="#f2cfaa"/>
          <path id="Path_25246" data-name="Path 25246" d="M69.156,192.174s-11.755,8.34-5.219,28.24c1.975,6.048,11.73,42.165,11.73,42.165s19.51-.293,27.508-5.877c16.339-11.413,17.242-20.339,17.242-20.339s-7.121-8.56-12.193-15.852c-3.048-4.341,4.39-2.829,4.39-2.829L100.834,191.15Z" transform="translate(89.14 275.006)" fill="#3f9ef7"/>
          <path id="Path_25247" data-name="Path 25247" d="M208.494,313.709l-54.066,7.316s-32.776,11.194-53.651,6.682c-40.848-8.852-30.045-52.139-24.046-59.894,24.606-31.7,74.624-31.7,74.624-31.7Z" transform="translate(101.878 339.69)" fill="#564b5e"/>
          <path id="Path_25248" data-name="Path 25248" d="M156.115,323.084s-14.632-15.754-7.316-25.167,15.778-5.024,22.168.61,33.751,27.338,16.047,41.58Z" transform="translate(211.128 420.717)"/>
          <path id="Path_25249" data-name="Path 25249" d="M152.218,286a70.157,70.157,0,0,0,8.9,8.731c1.171.878,8.048,4.292,11.779,6.9s4.877,4.877,9.048,8.023c5.024,3.878,9.169,7.511,10.1,9.535,2.609,5.78-11.584,15.413-15.608,15.339-2.975,0-12.486-15.217-14.632-17.071a68.938,68.938,0,0,1-8.511-9.608A62.258,62.258,0,0,0,136.22,294.17" transform="translate(195.979 411.466)" fill="#f2cfaa"/>
          <path id="Path_25250" data-name="Path 25250" d="M157.6,313.674s11.8-5.048,11.047-15.534c0,0,11.755,9.974,15.632,18.339s-1.073,19.778-14.169,19.753c-11.169,0-19.729-21.948-19.729-21.948a8.194,8.194,0,0,0,7.218-.61Z" transform="translate(216.351 428.932)"/>
          <path id="Path_25251" data-name="Path 25251" d="M182.3,275.2,159.5,261.71a76.892,76.892,0,0,1-12.73,4.585c-2.049.439-5.17.8-8.487,1.317a25.19,25.19,0,0,0-11.316,0c-7.316,1.756-5.633,3-11.047,9.023S99.482,281.927,95.629,287s3.317,21.656,12.193,21.656c4.877,0,5.9-5.731,8.56-8.218S140.257,286.9,140.257,286.9h0c2.439-1.049,4.877-2.439,8.267-4C158.718,277.805,182.3,275.2,182.3,275.2Z" transform="translate(136.047 376.52)" fill="#f2cfaa"/>
          <path id="Path_25252" data-name="Path 25252" d="M96.125,263.657c36.02,65.967,111.57,93.963,111.57,93.963S137.8,276.728,107.879,253.731C97.417,245.684,91.15,254.512,96.125,263.657Z" transform="translate(135.795 360.502)" fill="#89a5af" opacity="0.48"/>
          <path id="Path_25253" data-name="Path 25253" d="M212.978,381.9c3.512,1.853,16.022-13.413,17.071-17.071,0,0-19.778-25.655-26.094-33.142-18.68-22.119-37.117-51.53-54.066-74.99-8.292-11.437-20.314-24.387-36.434-19.51-13.218,3.975-21.387,18.973-20.485,31.02s8.438,21.656,16.144,30.362C109.041,298.639,167.155,357.752,212.978,381.9Z" transform="translate(133.658 339.714)" fill="#564b5e"/>
          <path id="Path_25254" data-name="Path 25254" d="M140.759,190.363l-4.877-9.072s-5.78-10.974-7.828-10.145c-1.195.512-.975,1.61,0,4.219,0,0,1.219,3.024,2.219,5.39-2.195-2.585-7.1-8.072-8.511-7.121s-.658,1.756.878,4.121c0,0,1.292,2,2.439,3.9-2.439-2.634-5.511-5.658-6.584-4.877s-.658,1.756.878,4.121c0,0,3.731,5.78,4.877,7.1a11.875,11.875,0,0,1,1.293,3.292,36,36,0,0,0-4.146-5.268c-1.195-.975-2.683-.854-2.683.585s3.9,6.267,4.56,8.292,3.487,12.657,3.487,12.657l.585-10.486,2.439-5.17c.341,1.463.585,2.439.585,2.439l1.975-4.365v3.146Z" transform="translate(169.614 246.163)" fill="#f2cfaa"/>
          <path id="Path_25255" data-name="Path 25255" d="M101.92,202.985s5.853-9.1,7.755-12.193,6.341-6.9,7.487-6.9.951,2.439-.585,4.731-5.268,11.1-5.268,11.1Z" transform="translate(146.632 264.561)" fill="#f2cfaa"/>
          <path id="Path_25256" data-name="Path 25256" d="M195.95,302.119s-18.168-5.731-23.338-4.146a9.218,9.218,0,0,0-3.292,15.169c5.438,5.877,25.265,9.608,33.361,10.169,12.657.854,22.241-9.17,17.778-14.169s-23.655-6.877-23.655-6.877" transform="translate(239.698 428.294)"/>
          <path id="Path_25257" data-name="Path 25257" d="M178.692,297.322c-3.219,2.853-5.487,14.12-4.195,21.948a74.574,74.574,0,0,0,19.8,3.317c16.315-.8,19.948-16.681,9.755-20.7a100.451,100.451,0,0,0-19.51-5.438,7.1,7.1,0,0,0-5.853.878Z" transform="translate(250.517 426.091)"/>
          <path id="Path_25258" data-name="Path 25258" d="M348.684,153.662a4.268,4.268,0,1,1-1.25-3.042,4.292,4.292,0,0,1,1.25,3.042Z" transform="translate(489.299 214.898)" fill="#e56e82"/>
          <path id="Path_25259" data-name="Path 25259" d="M355.5,153.662a4.268,4.268,0,1,1-1.241-3.033,4.292,4.292,0,0,1,1.241,3.033Z" transform="translate(499.111 214.898)" fill="#e56e82"/>
          <path id="Path_25260" data-name="Path 25260" d="M362.334,153.662a4.268,4.268,0,1,1-1.25-3.042,4.292,4.292,0,0,1,1.25,3.042Z" transform="translate(508.937 214.898)" fill="#e56e82"/>
          <rect id="Rectangle_269" data-name="Rectangle 269" width="93.768" height="92.622" rx="4.14" transform="translate(777.504 382.363)" fill="#4f78d3"/>
          <rect id="Rectangle_270" data-name="Rectangle 270" width="228.701" height="199.875" rx="9.19" transform="translate(485.056 206.655)" fill="#4f78d3"/>
          <path id="Path_25261" data-name="Path 25261" d="M217.515,95.347a4.877,4.877,0,1,1-4.877-4.877A4.877,4.877,0,0,1,217.515,95.347Z" transform="translate(298.903 130.159)" fill="none" stroke="#fefef4" stroke-miterlimit="10" stroke-width="0.77"/>
          <circle id="Ellipse_47" data-name="Ellipse 47" cx="4.853" cy="4.853" r="4.853" transform="translate(525.587 220.653)" fill="none" stroke="#fefef4" stroke-miterlimit="10" stroke-width="0.77"/>
          <circle id="Ellipse_48" data-name="Ellipse 48" cx="4.853" cy="4.853" r="4.853" transform="translate(544.463 220.653)" fill="none" stroke="#fefef4" stroke-miterlimit="10" stroke-width="0.77"/>
          <line id="Line_14" data-name="Line 14" x2="228.554" transform="translate(485.056 245.771)" fill="none" stroke="#fefef4" stroke-miterlimit="10" stroke-width="0.77"/>
          <path id="Path_25262" data-name="Path 25262" d="M261.272,112.37l1.878,3.8,4.195.61-3.048,2.951.732,4.195-3.756-1.975-3.756,1.975.707-4.195-3.024-2.951,4.195-.61Z" transform="translate(367.154 161.666)" fill="#ffb53e"/>
          <path id="Path_25263" data-name="Path 25263" d="M268.312,112.37l1.878,3.8,4.219.61-3.048,2.951.707,4.195-3.756-1.975-3.756,1.975.732-4.195-3.048-2.951,4.195-.61Z" transform="translate(377.283 161.666)" fill="#ffb53e"/>
          <path id="Path_25264" data-name="Path 25264" d="M275.362,112.37l1.878,3.8,4.195.61-3.048,2.951.732,4.195-3.756-1.975-3.756,1.975.707-4.195-3.024-2.951,4.194-.61Z" transform="translate(387.425 161.666)" fill="#ffb53e"/>
          <path id="Path_25265" data-name="Path 25265" d="M282.4,112.37l1.9,3.8,4.195.61-3.048,2.951.732,4.195-3.78-1.975-3.731,1.975.707-4.195-3.048-2.951,4.219-.61Z" transform="translate(397.554 161.666)" fill="#ffb53e"/>
          <path id="Path_25266" data-name="Path 25266" d="M289.452,112.37l1.878,3.8,4.194.61-3.024,2.951.707,4.195-3.756-1.975-3.756,1.975.732-4.195-3.048-2.951,4.195-.61Z" transform="translate(407.697 161.666)" fill="#ffb53e"/>
          <g id="Group_1037" data-name="Group 1037" transform="translate(625.134 299.496)" opacity="0.55">
            <line id="Line_15" data-name="Line 15" x1="19.607" transform="translate(0 23.07)" fill="none" stroke="#fff" stroke-linecap="round" stroke-linejoin="round" stroke-width="1.57"/>
            <line id="Line_16" data-name="Line 16" x1="49.213" transform="translate(28.094 23.07)" fill="none" stroke="#fff" stroke-linecap="round" stroke-linejoin="round" stroke-width="1.57"/>
            <line id="Line_17" data-name="Line 17" x1="77.307" transform="translate(0 11.535)" fill="none" stroke="#fff" stroke-linecap="round" stroke-linejoin="round" stroke-width="1.57"/>
            <line id="Line_18" data-name="Line 18" x1="32.8" fill="none" stroke="#fff" stroke-linecap="round" stroke-linejoin="round" stroke-width="1.57"/>
            <line id="Line_19" data-name="Line 19" x1="36.337" transform="translate(40.97)" fill="none" stroke="#fff" stroke-linecap="round" stroke-linejoin="round" stroke-width="1.57"/>
            <line id="Line_20" data-name="Line 20" x1="63.601" transform="translate(0 34.605)" fill="none" stroke="#fff" stroke-linecap="round" stroke-linejoin="round" stroke-width="1.57"/>
            <line id="Line_21" data-name="Line 21" x1="63.601" transform="translate(0 45.506)" fill="none" stroke="#fff" stroke-linecap="round" stroke-linejoin="round" stroke-width="1.57"/>
          </g>
          <path id="Path_25267" data-name="Path 25267" d="M322.6,170.81H267.414a12.34,12.34,0,0,1-12.364-12.34h0a12.34,12.34,0,0,1,12.364-12.34H322.6a12.34,12.34,0,0,1,12.34,12.34h0a12.34,12.34,0,0,1-12.34,12.34Z" transform="translate(366.938 210.236)" fill="#fff"/>
          <rect id="Rectangle_271" data-name="Rectangle 271" width="106.351" height="106.961" rx="5.58" transform="translate(501.444 274.036)" fill="none" stroke="#fff" stroke-miterlimit="10" stroke-width="0.59"/>
          <path id="Path_25271" data-name="Path 25271" d="M142.014,167.707l-11.584,6.17,5.8-15.047" transform="translate(187.649 228.508)" fill="#4f78d3"/>
          <circle id="Ellipse_49" data-name="Ellipse 49" cx="24.46" cy="24.46" r="24.46" transform="translate(311.515 394.898) rotate(-76.27)" fill="#4f78d3"/>
          <path id="Path_25272" data-name="Path 25272" d="M138.2,175.939c5.341,0,10.73.146,15.632-.171,1.561,0,2.9-2.585,1.024-3.365a3.536,3.536,0,0,0,1.927-1.683,1.658,1.658,0,0,0-.927-2.219c1.853.463,2.561-2.439,1.122-3.414a4.2,4.2,0,0,0,1.561-2.439,2.439,2.439,0,0,0-1.122-2.609,4.292,4.292,0,0,0-1.927-.317h-6.633a15.388,15.388,0,0,0-1-10.316c-.537-.9-1.951-2-3.1-1.292s-.756,2.292-.707,3.341A11.657,11.657,0,0,1,138,162.136S138.268,171.232,138.2,175.939Z" transform="translate(198.54 212.764)" fill="#fdfdfd"/>
          <rect id="Rectangle_273" data-name="Rectangle 273" width="8.048" height="13.876" transform="translate(326.736 374.803)" fill="#fdfdfd"/>
          <path id="Path_25273" data-name="Path 25273" d="M419.914,198.382H206.431a7.511,7.511,0,0,1-7.511-7.511h0a7.511,7.511,0,0,1,7.511-7.511H419.963a7.511,7.511,0,0,1,7.511,7.511h0a7.511,7.511,0,0,1-7.56,7.511Z" transform="translate(286.185 263.799)" fill="#fff"/>
          <path id="Path_25274" data-name="Path 25274" d="M414.936,186.44l-18.68,101.815H220.865L202.16,186.44" transform="translate(290.846 268.23)" fill="none" stroke="#fff" stroke-linecap="round" stroke-linejoin="round" stroke-width="2.25"/>
          <line id="Line_22" data-name="Line 22" y2="101.815" transform="translate(599.333 454.67)" fill="none" stroke="#fff" stroke-linecap="round" stroke-linejoin="round" stroke-width="2.25"/>
          <line id="Line_23" data-name="Line 23" x2="2.731" y2="101.815" transform="translate(573.629 454.67)" fill="none" stroke="#fff" stroke-linecap="round" stroke-linejoin="round" stroke-width="2.25"/>
          <line id="Line_24" data-name="Line 24" x2="5.511" y2="101.815" transform="translate(547.901 454.67)" fill="none" stroke="#fff" stroke-linecap="round" stroke-linejoin="round" stroke-width="2.25"/>
          <line id="Line_25" data-name="Line 25" x2="8.243" y2="101.815" transform="translate(522.197 454.67)" fill="none" stroke="#fff" stroke-linecap="round" stroke-linejoin="round" stroke-width="2.25"/>
          <line id="Line_26" data-name="Line 26" x1="2.756" y2="101.815" transform="translate(623.062 454.67)" fill="none" stroke="#fff" stroke-linecap="round" stroke-linejoin="round" stroke-width="2.25"/>
          <line id="Line_27" data-name="Line 27" x1="5.487" y2="101.815" transform="translate(646.034 454.67)" fill="none" stroke="#fff" stroke-linecap="round" stroke-linejoin="round" stroke-width="2.25"/>
          <line id="Line_28" data-name="Line 28" x1="8.243" y2="101.815" transform="translate(668.982 454.67)" fill="none" stroke="#fff" stroke-linecap="round" stroke-linejoin="round" stroke-width="2.25"/>
          <line id="Line_29" data-name="Line 29" x2="201.095" transform="translate(498.883 485.032)" fill="none" stroke="#fff" stroke-linecap="round" stroke-linejoin="round" stroke-width="2.25"/>
          <line id="Line_30" data-name="Line 30" x2="193.12" transform="translate(502.834 508.175)" fill="none" stroke="#fff" stroke-linecap="round" stroke-linejoin="round" stroke-width="2.25"/>
          <line id="Line_31" data-name="Line 31" x2="184.633" transform="translate(507.077 531.294)" fill="none" stroke="#fff" stroke-linecap="round" stroke-linejoin="round" stroke-width="2.25"/>
          <path id="Path_25275" data-name="Path 25275" d="M202.16,186.44v27.216a18.656,18.656,0,0,0,18.656,18.656H396.28a18.632,18.632,0,0,0,18.656-18.656V186.44" transform="translate(290.846 268.23)" fill="none" stroke="#3f9ef7" stroke-linecap="round" stroke-miterlimit="10" stroke-width="2.25"/>
          <path id="Path_25276" data-name="Path 25276" d="M211,189.72a5.56,5.56,0,1,1-5.56-5.56,5.56,5.56,0,0,1,5.56,5.56Z" transform="translate(287.566 264.95)" fill="#3f9ef7"/>
          <path id="Path_25277" data-name="Path 25277" d="M298.25,189.72a5.56,5.56,0,1,1-5.56-5.56,5.56,5.56,0,0,1,5.56,5.56Z" transform="translate(413.092 264.95)" fill="#3f9ef7"/>
          <rect id="Rectangle_274" data-name="Rectangle 274" width="145.956" height="145.956" transform="translate(531.611 573.483)" fill="#e89c03"/>
          <rect id="Rectangle_275" data-name="Rectangle 275" width="60.967" height="145.956" transform="translate(676.298 573.483)" fill="#f5a905"/>
          <rect id="Rectangle_276" data-name="Rectangle 276" width="27.972" height="11.998" transform="translate(543.95 694.296)" fill="#fec00d"/>
          <rect id="Rectangle_277" data-name="Rectangle 277" width="9.365" height="11.998" transform="translate(574.702 694.296)" fill="#fec00d"/>
          <rect id="Rectangle_278" data-name="Rectangle 278" width="9.365" height="11.998" transform="translate(597.163 694.296)" fill="#fec00d"/>
          <rect id="Rectangle_279" data-name="Rectangle 279" width="3.804" height="11.998" transform="translate(587.944 694.296)" fill="#fec00d"/>
          <rect id="Rectangle_280" data-name="Rectangle 280" width="148.346" height="24.728" transform="translate(527.928 570.849)" fill="#fec00d"/>
          <rect id="Rectangle_281" data-name="Rectangle 281" width="65.65" height="24.728" transform="translate(676.298 570.849)" fill="#fecd40"/>
          <path id="Path_25278" data-name="Path 25278" d="M454.321,390.716H295.66L307.536,224.4l13.681-.049,122.154-.268,9.438,143.59Z" transform="translate(425.364 322.382)" fill="#6569ce"/>
          <path id="Path_25279" data-name="Path 25279" d="M313.43,232.977h0a5.121,5.121,0,0,1,5.438-4.634h0a4.682,4.682,0,1,1,0,9.218h0A5.1,5.1,0,0,1,313.43,232.977Zm5.438-2.878a2.951,2.951,0,1,0,0,5.706h0a2.951,2.951,0,1,0,0-5.707ZM314.308,232.977Z" transform="translate(450.929 328.41)" fill="#543ace"/>
          <path id="Path_25280" data-name="Path 25280" d="M335.61,232.892h0a4.291,4.291,0,0,1,1.292-3,5.877,5.877,0,0,1,4.146-1.634h0a5.073,5.073,0,0,1,5.438,4.585,4.219,4.219,0,0,1-1.658,3.317,5.8,5.8,0,0,1-3.78,1.317h0a5.121,5.121,0,0,1-5.439-4.585Zm5.438-2.878a4.194,4.194,0,0,0-2.9,1.122,2.439,2.439,0,0,0-.78,1.731h0a3.39,3.39,0,0,0,3.707,2.853h0a4.2,4.2,0,0,0,2.683-.9,2.561,2.561,0,0,0,1-1.951,3.365,3.365,0,0,0-3.682-2.853Z" transform="translate(482.84 328.373)" fill="#543ace"/>
          <path id="Path_25281" data-name="Path 25281" d="M342.253,264.8h1.561c9.925-.341,17.51-3.536,22.509-9.511,8.292-9.9,6.414-23.7,6.341-24.387a1.761,1.761,0,0,0-3.487.488s1.732,12.876-5.56,21.558c-4.341,5.17-11.047,7.95-19.924,8.243s-15.022-1.975-19.29-6.731c-7.755-8.633-5.853-22.8-5.828-22.948a1.732,1.732,0,0,0-1.488-1.975,1.78,1.78,0,0,0-2,1.488c0,.634-2.146,15.9,6.682,25.777C326.5,262.145,333.376,264.8,342.253,264.8Z" transform="translate(452.981 330.019)" fill="#543ace"/>
          <path id="Path_25282" data-name="Path 25282" d="M454.321,390.529H295.66L307.536,224.21h13.681c.854,6.828,18.68,132.2,131.689,143.322Z" transform="translate(425.364 322.569)" fill="#6569ce" opacity="0.3"/>
          <path id="Path_25283" data-name="Path 25283" d="M450.379,379.523H278.11l19-123.69,8-.024,127.836-.268L448.5,366.135Z" transform="translate(400.115 367.643)" fill="#ffc359"/>
          <path id="Path_25284" data-name="Path 25284" d="M299.2,264.057a4.634,4.634,0,1,0,4.536-3.829,4.219,4.219,0,0,0-4.536,3.829Z" transform="translate(430.358 374.369)" fill="none" stroke="#fff" stroke-linecap="round" stroke-linejoin="round" stroke-width="0.73"/>
          <path id="Path_25285" data-name="Path 25285" d="M321.382,264.007a4.634,4.634,0,1,0,4.536-3.829A4.219,4.219,0,0,0,321.382,264.007Z" transform="translate(462.268 374.297)" fill="none" stroke="#fff" stroke-linecap="round" stroke-linejoin="round" stroke-width="0.73"/>
          <path id="Path_25286" data-name="Path 25286" d="M355.231,261.73s4.438,31.41-27.191,32.483-26.826-32.361-26.826-32.361" transform="translate(432.979 376.549)" fill="none" stroke="#fff" stroke-linecap="round" stroke-linejoin="round" stroke-width="1.46"/>
          <path id="Path_25287" data-name="Path 25287" d="M450.379,379.336H278.11l19-123.666h8s-7.462,121.325,143.371,110.278Z" transform="translate(400.115 367.831)" fill="#eebe6a" opacity="0.3"/>
          <path id="Path_25288" data-name="Path 25288" d="M148.613,378.766H24.02l13.73-89.427,5.8-.024,92.451-.2,11.242,79.989Z" transform="translate(34.557 415.955)" fill="#ffc359"/>
          <path id="Path_25289" data-name="Path 25289" d="M39.24,295.249a3.365,3.365,0,1,0,3.3-2.728,3.365,3.365,0,0,0-3.3,2.728Z" transform="translate(56.454 420.849)" fill="none" stroke="#fff" stroke-linecap="round" stroke-linejoin="round" stroke-width="0.53"/>
          <path id="Path_25290" data-name="Path 25290" d="M55.313,295.231a3.365,3.365,0,1,0,3.292-2.756A3.073,3.073,0,0,0,55.313,295.231Z" transform="translate(79.498 420.769)" fill="none" stroke="#fff" stroke-linecap="round" stroke-linejoin="round" stroke-width="0.53"/>
          <path id="Path_25291" data-name="Path 25291" d="M79.846,293.6s3.195,22.7-19.656,23.485-19.51-23.411-19.51-23.411" transform="translate(58.281 422.4)" fill="none" stroke="#fff" stroke-linecap="round" stroke-linejoin="round" stroke-width="1.05"/>
          <path id="Path_25292" data-name="Path 25292" d="M148.642,378.661H24L37.73,289.21h5.78S38.1,377,147.178,368.98Z" transform="translate(34.529 416.084)" fill="#eebe6a" opacity="0.3"/>
          <rect id="Rectangle_282" data-name="Rectangle 282" width="168.319" height="53.285" rx="5.05" transform="translate(204.753 247.162)" fill="#c7e9ff"/>
          <path id="Path_25293" data-name="Path 25293" d="M93.634,119.87S89,153.548,89,151.475s23.728-28.85,23.728-28.85Z" transform="translate(128.044 172.456)" fill="#c7e9ff"/>
          <path id="Path_25294" data-name="Path 25294" d="M104.054,115.423l9.023,1.463-6.633,6.267,1.39,9.023-8-4.365-8.145,4.121,1.658-8.974L86.91,116.5l9.048-1.171,4.17-8.145Z" transform="translate(125.037 154.199)" fill="#ffb53e"/>
          <path id="Path_25295" data-name="Path 25295" d="M117.154,115.423l9.023,1.463-6.633,6.267,1.414,9.023-8.023-4.365-8.145,4.121,1.683-8.974L100.01,116.5l9.072-1.171,4.146-8.145Z" transform="translate(143.884 154.199)" fill="#ffb53e"/>
          <path id="Path_25296" data-name="Path 25296" d="M130.24,115.423l9.023,1.463-6.633,6.267,1.414,9.023-8.023-4.365-8.145,4.121,1.683-8.974L113.12,116.5l9.048-1.171,4.17-8.145Z" transform="translate(162.745 154.199)" fill="#ffb53e"/>
          <path id="Path_25297" data-name="Path 25297" d="M145.73,123.153l1.439,9-7.731-4.17-.293-.171L131,131.933l1.658-8.974L126.22,116.5l9.048-1.171,4.17-8.145,3.926,8.243,9.023,1.463Z" transform="translate(181.592 154.199)" fill="#fff"/>
          <path id="Path_25298" data-name="Path 25298" d="M156.464,115.423l9.023,1.463-6.633,6.267,1.414,9.023-8.023-4.365-8.145,4.121,1.683-8.974L139.32,116.5l9.072-1.171,4.17-8.145Z" transform="translate(200.439 154.199)" fill="#fff"/>
          <path id="Path_25299" data-name="Path 25299" d="M139.438,107.18v20.8l-.293-.171L131,131.933l1.658-8.974L126.22,116.5l9.048-1.171Z" transform="translate(181.592 154.199)" fill="#ffb53e"/>
          <circle id="Ellipse_50" data-name="Ellipse 50" cx="8.34" cy="8.34" r="8.34" transform="translate(871.345 337.832)" fill="#c7e9ff"/>
          <circle id="Ellipse_51" data-name="Ellipse 51" cx="8.34" cy="8.34" r="8.34" transform="translate(890.635 496.445)" fill="#c7e9ff"/>
          <path id="Path_25300" data-name="Path 25300" d="M124.455,82.362a5.072,5.072,0,1,1-5.072-5.072A5.073,5.073,0,0,1,124.455,82.362Z" transform="translate(164.457 111.197)" fill="#c7e9ff"/>
          <circle id="Ellipse_52" data-name="Ellipse 52" cx="5.072" cy="5.072" r="5.072" transform="translate(97.206 126.739)" fill="#c7e9ff"/>
          <path id="Path_25301" data-name="Path 25301" d="M106.8,17.258a5.072,5.072,0,1,1-5.072-5.048,5.072,5.072,0,0,1,5.072,5.048Z" transform="translate(139.05 17.566)" fill="#c7e9ff"/>
          <circle id="Ellipse_53" data-name="Ellipse 53" cx="7.609" cy="7.609" r="7.609" transform="translate(407.92 318.957)" fill="#c7e9ff"/>
          <circle id="Ellipse_54" data-name="Ellipse 54" cx="7.609" cy="7.609" r="7.609" transform="translate(83.184 409.115)" fill="#c7e9ff"/>
          <circle id="Ellipse_55" data-name="Ellipse 55" cx="7.609" cy="7.609" r="7.609" transform="translate(373.291 180.878)" fill="#c7e9ff"/>
          <circle id="Ellipse_56" data-name="Ellipse 56" cx="7.609" cy="7.609" r="7.609" transform="translate(872.076 142.078)" fill="#c7e9ff"/>
          <path id="Path_25302" data-name="Path 25302" d="M215.985,5.073A5.072,5.072,0,1,1,210.937,0a5.072,5.072,0,0,1,5.048,5.072Z" transform="translate(296.14 0)" fill="#c7e9ff"/>
          <path id="Path_25303" data-name="Path 25303" d="M338.325,79.253a5.048,5.048,0,1,1-1.47-3.585,5.073,5.073,0,0,1,1.47,3.585Z" transform="translate(472.15 106.722)" fill="#c7e9ff"/>
          <path id="Path_25304" data-name="Path 25304" d="M349.925,23.268a5.073,5.073,0,1,1-5.072-5.048,5.073,5.073,0,0,1,5.072,5.048Z" transform="translate(488.839 26.213)" fill="#c7e9ff"/>
          <path id="Path_25305" data-name="Path 25305" d="M152.425,217.323a5.072,5.072,0,1,1-5.072-5.073A5.073,5.073,0,0,1,152.425,217.323Z" transform="translate(204.697 305.363)" fill="#c7e9ff"/>
        </g>
      </g>
    </g>
  </g>
</svg>
