<svg xmlns="http://www.w3.org/2000/svg" width="2461" height="611.21" viewBox="0 0 2461 611.21">
  <g id="Group_7" data-name="Group 7" transform="translate(-5289 -2530)">
    <rect id="Rectangle_2" data-name="Rectangle 2" width="2461" height="591" transform="translate(5289 2530)" fill="#fff"/>
    <text id="White_A_r" data-name="White A r" transform="translate(5368 3016.21)" fill="#4589f5" font-size="500" font-family="JosefinSans-Bold, Josefin Sans" font-weight="700"><tspan x="0" y="0">White A r</tspan></text>
    <g id="Component_4_1" data-name="Component 4 – 1" transform="translate(7124.031 2598)">
      <path id="Path_45" data-name="Path 45" d="M141,489.262a24.407,24.407,0,0,1,16,0v-8.4H141Z" transform="translate(-65.031 -272.337)" fill="#4394f2"/>
      <path id="Path_46" data-name="Path 46" d="M156.958,488.518a17.6,17.6,0,0,1-16.029-.066" transform="translate(-65.031 -279.933)" fill="none" stroke="#4589f5" stroke-width="2"/>
      <path id="Path_47" data-name="Path 47" d="M66,372.7c0,47.411,37.377,123.079,83.485,123.079S232.97,420.111,232.97,372.7s-37.377-85.845-83.485-85.845S66,325.291,66,372.7Z" transform="translate(-66 -286.857)" fill="none" stroke="#4394f2" stroke-linecap="round" stroke-width="5"/>
      <path id="Path_48" data-name="Path 48" d="M145.926,491.809c10.43,3.591,12.928,17.815,9.34,28.247s-11.186,19.085-15.01,29.432a88.2,88.2,0,0,0-3.741,16.041c-2.184,12.981-4.374,26.19-2.691,39.246,1.6,12.385,6.614,24.061,12.212,35.223a329.515,329.515,0,0,0,39.323,60.691" transform="translate(-67.031 -278.933)" fill="none" stroke="#4394f2" stroke-linecap="round" stroke-width="4"/>
      <path id="mouth" d="M64.8,29.023S30.136,45.967,15.213,36.111-.032-8.407-.032-8.407s2.89,30.215,17.813,40.071S64.8,29.023,64.8,29.023Z" transform="translate(48.848 147.733) rotate(-30)" fill="#a33131"/>
      <path id="Eye_left" data-name="Eye left" d="M8.506,0C13.2,0,17.945,4.737,18,9s-4.8,9-9.493,9A8.764,8.764,0,0,1,0,9,8.764,8.764,0,0,1,8.506,0Z" transform="translate(29.969 57.21)"/>
      <path id="Eye_right" data-name="Eye right" d="M9.028,0c4.942,0,8.479,4.137,8.479,9.239S13.97,18,9.028,18s-9.52-3.658-9.52-8.761A9.591,9.591,0,0,1,9.028,0Z" transform="translate(126.969 57.21)"/>
      <path id="Path_69" data-name="Path 69" d="M79.982,98.475c6.528,4.465,0,9.714,0,9.714" transform="translate(-81.141 99.941) rotate(-74.991)" fill="none" stroke="#a33131" stroke-linecap="round" stroke-width="2"/>
      <path id="Path_70" data-name="Path 70" d="M79.982,98.475c2.187,1.5,2.909,3.08,2.889,4.828,0,2.564-2.889,4.885-2.889,4.885" transform="translate(15.859 102.941) rotate(-74.991)" fill="none" stroke="#a33131" stroke-linecap="round" stroke-width="2"/>
    </g>
  </g>
</svg>
