<svg xmlns="http://www.w3.org/2000/svg" xmlns:xlink="http://www.w3.org/1999/xlink" width="933.474" height="533.378" viewBox="0 0 933.474 533.378">
  <defs>
    <filter id="Rectangle_103" x="437.211" y="290.1" width="91.624" height="97.366" filterUnits="userSpaceOnUse">
      <feOffset dy="3" input="SourceAlpha"/>
      <feGaussianBlur stdDeviation="3" result="blur"/>
      <feFlood flood-opacity="0.161"/>
      <feComposite operator="in" in2="blur"/>
      <feComposite in="SourceGraphic"/>
    </filter>
    <filter id="Ellipse_40" x="436" y="279.052" width="59" height="59" filterUnits="userSpaceOnUse">
      <feOffset dy="3" input="SourceAlpha"/>
      <feGaussianBlur stdDeviation="1" result="blur-2"/>
      <feFlood flood-opacity="0.161"/>
      <feComposite operator="in" in2="blur-2"/>
      <feComposite in="SourceGraphic"/>
    </filter>
    <linearGradient id="linear-gradient" x1="-7.075" y1="0.283" x2="-7.075" y2="0.281" gradientUnits="objectBoundingBox">
      <stop offset="0.2" stop-opacity="0.149"/>
      <stop offset="0.85" stop-color="#616161" stop-opacity="0.012"/>
    </linearGradient>
    <linearGradient id="linear-gradient-2" x1="-5.425" y1="0.364" x2="-5.424" y2="0.364" gradientUnits="objectBoundingBox">
      <stop offset="0.2" stop-opacity="0.549"/>
      <stop offset="0.85" stop-color="#616161" stop-opacity="0.012"/>
    </linearGradient>
    <filter id="Ellipse_40-2" x="479" y="351.052" width="50" height="50" filterUnits="userSpaceOnUse">
      <feOffset dy="3" input="SourceAlpha"/>
      <feGaussianBlur stdDeviation="1" result="blur-3"/>
      <feFlood flood-opacity="0.161"/>
      <feComposite operator="in" in2="blur-3"/>
      <feComposite in="SourceGraphic"/>
    </filter>
  </defs>
  <g id="why_choose_us" data-name="why choose us" transform="translate(-451 -2541.948)">
    <g id="Group_326" data-name="Group 326" transform="translate(4)">
      <g id="Group_178" data-name="Group 178" transform="translate(22 90)">
        <g id="choose_us_2" data-name="choose us 2" transform="translate(425 2451.948)">
          <g id="Layer_2" data-name="Layer 2" transform="translate(0 0)">
            <g id="OBJECT" transform="translate(0 0)">
              <g id="Group_175" data-name="Group 175">
                <path id="Path_20454" data-name="Path 20454" d="M1075.361,456.982c-15.838-22.431-38.11-41.812-44.9-68.46s3.385-54.027,11.086-80.319,12.413-56.8-3.167-79.329c-21.124-30.508-66.46-29.36-102.333-19.8s-74.577,23.757-108.609,9.028c-40.05-17.422-54.978-67.312-89.98-93.464C698.2,95.361,635.361,105.854,607.783,146.3c-13.225,19.382-18.828,43.555-34.388,61.155-21.084,23.757-55.789,29.954-87.505,28.706s-63.352-8.434-94.909-5.484-65,19.322-75.231,49.335c-7.919,22.906-.614,48.227,9.483,70.242s23.163,43.178,27.6,66.995-2.475,52.048-23.757,63.708c-24.707,13.561-56.067-.495-83.308,6.711-30.726,8.117-48.86,44.129-42.644,75.231s32.27,55.849,62.085,66.876,62.818,10.057,94.117,4.454l529.227,5.642c36.17-1.683,64.065,2.673,98.116,1.109s69.113-13.68,91.069-39.714C1111.254,561.731,1105.295,499.23,1075.361,456.982Z" transform="translate(-166.971 -107.948)" fill="#f8fcff"/>
                <g id="Group_167" data-name="Group 167" transform="translate(18.434 52.903)" opacity="0.29">
                  <path id="Path_20455" data-name="Path 20455" d="M349.48,134.67l86.931,4.613c34.012,1.782,68.579,3.7,100.71,15.007s62.085,33.537,74.557,65.233,2.851,72.954-26.747,89.8" transform="translate(-40.819 -134.67)" fill="none" stroke="#4e01d4" stroke-linecap="round" stroke-miterlimit="10" stroke-width="0.95" stroke-dasharray="4.51"/>
                  <path id="Path_20456" data-name="Path 20456" d="M206.811,282.79c-16.446,21.282-17.013,59.947-4.792,86.119s34.734,40.565,57.049,43.555,44.7-3.96,66.193-12.868c41.071-16.986,80.48-41,117.331-71.489" transform="translate(-94.851 10.451)" fill="none" stroke="#4e01d4" stroke-linecap="round" stroke-miterlimit="10" stroke-width="0.95" stroke-dasharray="4.51"/>
                  <path id="Path_20457" data-name="Path 20457" d="M656.79,351.177a386.245,386.245,0,0,1-106.352-36.328c-17.264-8.889-34.27-19.243-53.453-22.747-31.221-5.721-65.213,9.523-81.685,36.645" transform="translate(23.668 18.403)" fill="none" stroke="#4e01d4" stroke-linecap="round" stroke-miterlimit="10" stroke-width="0.95" stroke-dasharray="4.51"/>
                  <path id="Path_20458" data-name="Path 20458" d="M558.125,152.377A106.095,106.095,0,0,1,665.7,335.128c-39.714,25.262-90.573,21.5-137.414,16.828" transform="translate(134.371 -129.946)" fill="none" stroke="#4e01d4" stroke-linecap="round" stroke-miterlimit="10" stroke-width="0.95" stroke-dasharray="4.51"/>
                </g>
                <path id="Path_20460" data-name="Path 20460" d="M276.722,328.135a18.744,18.744,0,0,0,.851,1.98l-2.811,2.831,6.652,6.652,2.831-2.831a14.593,14.593,0,0,0,1.98.871v3.96h9.424v-3.96a15.633,15.633,0,0,0,1.98-.871l3.069,2.91,6.672-6.652-2.831-2.831a15.655,15.655,0,0,0,.871-1.98h3.959v-9.523h-3.959a14.6,14.6,0,0,0-.871-1.98l2.831-2.831L300.7,307.17,297.886,310a15.624,15.624,0,0,0-1.98-.871v-3.96h-9.424v3.96a14.588,14.588,0,0,0-1.98.871l-2.831-2.831-6.652,6.652,2.811,2.831a17.286,17.286,0,0,0-.851,1.98H273.02v9.424Zm4.811-4.712a9.463,9.463,0,1,1,2.772,6.711,9.483,9.483,0,0,1-2.772-6.711Z" transform="translate(-97.297 85.281)" fill="#fff" opacity="0.63"/>
                <path id="Path_20461" data-name="Path 20461" d="M476.291,157.6a5.046,5.046,0,0,0,.4.95l-1.307,1.307,3.069,3.069,1.287-1.307a6.465,6.465,0,0,0,.95.4v1.841h4.336v-1.841a5.051,5.051,0,0,0,.95-.4l1.307,1.307,3.049-3.069-1.287-1.307c.139-.3.277-.614.4-.95h1.821v-4.316h-1.841c-.119-.337-.257-.653-.4-.95l1.287-1.307-3.049-3.049-1.307,1.287a6.833,6.833,0,0,0-.95-.4V147.05h-4.336v1.881a9.667,9.667,0,0,0-.95.4l-1.287-1.287-3.069,3.049,1.307,1.307a5.047,5.047,0,0,0-.4.95H474.43v4.316Zm2.2-2.158a4.356,4.356,0,1,1,1.283,3.087,4.375,4.375,0,0,1-1.283-3.087Z" transform="translate(100.035 -69.638)" fill="#fff" opacity="0.63"/>
                <path id="Path_20462" data-name="Path 20462" d="M269.793,208.472a12.062,12.062,0,0,0-.356,1.841l-3.266.673,1.584,7.721,3.267-.673a14.094,14.094,0,0,0,1.049,1.544l-1.821,2.792,6.573,4.336,1.841-2.791a12.075,12.075,0,0,0,1.841.356l.673,3.267,7.721-1.584-.673-3.286a13.09,13.09,0,0,0,1.544-1.03l2.791,1.821,4.336-6.573-2.791-1.841a12.08,12.08,0,0,0,.356-1.841l3.267-.673-1.584-7.721-3.286.673a10.1,10.1,0,0,0-1.049-1.544l1.841-2.791-6.593-4.336-1.821,2.791a12.079,12.079,0,0,0-1.841-.356l-.673-3.267L275,197.564l.673,3.286a11.362,11.362,0,0,0-1.564,1.049l-2.772-1.841L267,206.631Zm5.524-1.069a3.1,3.1,0,1,1-.079,0Zm33.656,11.265a7.924,7.924,0,0,0-.218,1.148l-1.98.436.99,4.85,1.98-.436a7.915,7.915,0,0,0,.673.99l-1.168,1.742,4.158,2.732,1.148-1.762a7.926,7.926,0,0,0,1.148.218l.436,1.98,4.85-.99-.416-1.98a7.738,7.738,0,0,0,.97-.673l1.742,1.168,2.732-4.138-1.762-1.168a5.939,5.939,0,0,0,.218-1.148l1.98-.436-.99-4.85-1.98.436a8.553,8.553,0,0,0-.653-.99l1.148-1.742-4.138-2.732-1.168,1.762a5.6,5.6,0,0,0-1.148-.218l-.416-1.98-4.87.99.436,1.98a7.928,7.928,0,0,0-.99.673l-1.742-1.168L307.21,217.5Zm3.465-.693a3.619,3.619,0,1,1-.04,0Z" transform="translate(-104.008 -21.698)" fill="#fff" opacity="0.63"/>
                <path id="Path_20463" data-name="Path 20463" d="M670.747,360.747a17.821,17.821,0,0,0,1.386-1.98l4.355.911,2.178-10.255-4.355-.911a17.277,17.277,0,0,0-.456-2.455l3.722-2.415-5.722-8.79-3.722,2.415a15.613,15.613,0,0,0-1.98-1.386l.93-4.356-10.275-2.178L655.9,333.7a17.3,17.3,0,0,0-2.455.455l-2.415-3.722-8.869,5.622,2.415,3.722a17.824,17.824,0,0,0-1.386,1.98l-4.356-.93-2.178,10.275,4.356.911a17.279,17.279,0,0,0,.455,2.455l-3.722,2.415,5.721,8.79,3.722-2.415a17.821,17.821,0,0,0,1.98,1.386L648.257,369l10.255,2.178.911-4.355a17.29,17.29,0,0,0,2.455-.455l2.415,3.722,8.79-5.722Zm-7.325-1.623A10.552,10.552,0,1,1,668,352.459a10.552,10.552,0,0,1-4.573,6.665Zm-35.081-31.676a9.523,9.523,0,0,0,.891-1.307l2.732.594,1.366-6.454-2.732-.574a9.674,9.674,0,0,0-.3-1.544l2.356-1.524-3.6-5.524-2.336,1.524a9.527,9.527,0,0,0-1.307-.891l.574-2.732-6.434-1.366-.594,2.673a9.892,9.892,0,0,0-1.524.3l-1.525-2.336-5.523,3.583,1.525,2.336a9.531,9.531,0,0,0-.891,1.307l-2.732-.574-1.366,6.434,2.732.594a9.908,9.908,0,0,0,.3,1.524l-2.356,1.524,3.6,5.524,2.336-1.524a9.507,9.507,0,0,0,1.307.891l-.574,2.732L620.7,334l.594-2.732a9.9,9.9,0,0,0,1.524-.3l1.524,2.356,5.523-3.6Zm-4.593-1.029a4.507,4.507,0,1,1,0,.02Z" transform="translate(229.842 87.711)" fill="#fff" opacity="0.63"/>
                <path id="Path_20464" data-name="Path 20464" d="M441.45,134.427a14.987,14.987,0,1,0,4.389-10.617,15.007,15.007,0,0,0-4.389,10.617Z" transform="translate(67.722 -96.708)" fill="#fff"/>
                <path id="Path_20465" data-name="Path 20465" d="M453.9,121.21a33.646,33.646,0,0,0-.95,5.7c-.158,1.98-.238,3.8-.218,5.7l1.168-1.168a47.266,47.266,0,0,0-5.029.277,31.893,31.893,0,0,0-4.87.95,31.834,31.834,0,0,0,5.029.871c1.663.178,3.346.257,5.029.277h1.128v-1.148a54.883,54.883,0,0,0-.218-5.7,33.666,33.666,0,0,0-1.069-5.761Z" transform="translate(70.221 -94.954)" fill="#00ebd5"/>
                <circle id="Ellipse_25" data-name="Ellipse 25" cx="19.679" cy="19.679" r="19.679" transform="translate(799.227 167.804) rotate(-82.98)" fill="#fff"/>
                <path id="Path_20466" data-name="Path 20466" d="M605.829,195.091l5.523,9.5a1.425,1.425,0,1,0,2.455-1.425l-5.523-9.5a9.7,9.7,0,1,0-2.455,1.425Zm-9.5-5.523a3.3,3.3,0,1,0,0-.079Z" transform="translate(215.749 -40.904)" fill="#ff7171"/>
                <path id="Path_20467" data-name="Path 20467" d="M230.74,329.9a21.777,21.777,0,1,0,21.777-21.777A21.777,21.777,0,0,0,230.74,329.9Z" transform="translate(-138.721 88.171)" fill="#fff"/>
                <path id="Path_20468" data-name="Path 20468" d="M241.683,334.861v1.168h-.238v4.87h10.493v-4.87h-.257v-1.168a11.661,11.661,0,0,1,2.831-7.266,9.9,9.9,0,0,0,2.118-8.117,10.1,10.1,0,1,0-17.818,8.137,11.443,11.443,0,0,1,2.871,7.246Zm7.919,0v.436h-1.01c1.029-3.544,2.178-8.394,1.128-9.285a1.366,1.366,0,0,0-1.425-.2l-.178.1a1.425,1.425,0,0,0-1.307-.752h0a1.742,1.742,0,0,0-1.386.732,1.445,1.445,0,0,0-1.089-.178,1.247,1.247,0,0,0-.713.594c-.851,1.564.475,6.494,1.227,8.988H243.8v-.436a13.56,13.56,0,0,0-3.286-8.572,7.761,7.761,0,0,1-1.8-5.029,7.983,7.983,0,1,1,14.195,5.009,13.58,13.58,0,0,0-3.326,8.592Zm-3.643.436c-.97-3.108-1.98-7.444-1.386-8.533v-.1a.911.911,0,0,1,.356.139,1.7,1.7,0,0,0,.277,1.485.812.812,0,0,0,.851.218.871.871,0,0,0,.594-1.208,1.979,1.979,0,0,0-.495-.772.752.752,0,0,1,.614-.376c.139,0,.257.139.317.218a1.483,1.483,0,0,1,.139.238,1.98,1.98,0,0,0-.436,1.029.792.792,0,0,0,.455.752.871.871,0,0,0,.93-.119,1.485,1.485,0,0,0,.238-1.406.535.535,0,0,1,.2-.119c.2-.1.257,0,.317,0,.436.574-.4,4.692-1.524,8.533Z" transform="translate(-132.975 91.205)" fill="#f7c90b"/>
                <path id="Path_20469" data-name="Path 20469" d="M524.15,169.374c.831-1.049,32.507-29.874,32.507-29.874l5.563,3.564Z" transform="translate(148.748 -77.035)" fill="#b6b9ff"/>
                <path id="Path_20470" data-name="Path 20470" d="M562.221,141.3l7.028,17.145-45.1,9.166Z" transform="translate(148.748 -75.271)" fill="#7474e2"/>
                <path id="Path_20471" data-name="Path 20471" d="M569.249,156.564l-45.1,9.166,44.861-22.51Z" transform="translate(148.748 -73.39)" fill="#9a9ae5"/>
                <path id="Path_20472" data-name="Path 20472" d="M569.011,143.22,524.15,165.73l54.067-15.937Z" transform="translate(148.748 -73.39)" fill="#b6b9ff"/>
                <path id="Path_20477" data-name="Path 20477" d="M367.961,123.55c-.4.792-3.5,12.631-3.5,12.631l-26.727,15.2Z" transform="translate(-33.897 -92.662)" fill="#b6b9ff"/>
                <path id="Path_20478" data-name="Path 20478" d="M373.069,139.6l-8.612-9.661L337.73,145.125Z" transform="translate(-33.897 -86.401)" fill="#7474e2"/>
                <path id="Path_20479" data-name="Path 20479" d="M373.069,135.143l-11.641-.653-23.7,6.177Z" transform="translate(-33.897 -81.943)" fill="#9a9ae5"/>
                <path id="Path_20480" data-name="Path 20480" d="M361.428,134.49l-4.256,14.531-19.441-8.355Z" transform="translate(-33.897 -81.943)" fill="#b6b9ff"/>
                <g id="Group_302" data-name="Group 302" transform="translate(92 2)">
                  <path id="Path_20481" data-name="Path 20481" d="M197.79,270c.99.772,12,13.858,12,13.858l42.881,3.286Z" transform="translate(-171.004 50.823)" fill="#b6b9ff"/>
                  <path id="Path_20482" data-name="Path 20482" d="M201.25,294.392l5.128-17.382,42.9,3.306Z" transform="translate(-167.614 57.691)" fill="#7474e2"/>
                  <path id="Path_20483" data-name="Path 20483" d="M201.25,292.756,215.6,285l33.676-6.315Z" transform="translate(-167.614 59.327)" fill="#9a9ae5"/>
                  <path id="Path_20484" data-name="Path 20484" d="M208.5,285l14.036,15.858,19.639-22.173Z" transform="translate(-160.511 59.327)" fill="#b6b9ff"/>
                </g>
                <rect id="Rectangle_76" data-name="Rectangle 76" width="532.573" height="289.44" rx="5.66" transform="translate(785.704 480.352) rotate(180)" fill="#cbc2ff" opacity="0.5"/>
                <rect id="Rectangle_77" data-name="Rectangle 77" width="532.573" height="289.44" rx="5.66" transform="translate(776.3 467.166) rotate(180)" fill="#d2d5f7"/>
                <path id="Path_20485" data-name="Path 20485" d="M11.126,0h510.3a11.126,11.126,0,0,1,11.126,11.126V270.018H0V11.126A11.126,11.126,0,0,1,11.126,0Z" transform="translate(776.281 467.879) rotate(180)" fill="#fff"/>
                <path id="Path_20486" data-name="Path 20486" d="M324.735,204.411a3.168,3.168,0,1,0,1.5-2.951A3.168,3.168,0,0,0,324.735,204.411Z" transform="translate(-46.639 -16.786)" fill="#ff005c"/>
                <path id="Path_20487" data-name="Path 20487" d="M322.7,201.12a3.168,3.168,0,1,1-3.168,3.168A3.168,3.168,0,0,1,322.7,201.12Z" transform="translate(-51.729 -16.662)" fill="#ffc136"/>
                <path id="Path_20488" data-name="Path 20488" d="M317.5,201.12a3.168,3.168,0,1,1-3.168,3.168A3.168,3.168,0,0,1,317.5,201.12Z" transform="translate(-56.824 -16.662)" fill="#00ead9"/>
                <path id="Path_20493" data-name="Path 20493" d="M405.538,230.5H552.194a5.441,5.441,0,0,1,5.458,5.441h0a5.441,5.441,0,0,1-5.458,5.458H405.538a5.441,5.441,0,0,1-5.458-5.458h0a5.441,5.441,0,0,1,5.458-5.441Zm0,29.562H552.194a5.458,5.458,0,0,0,5.458-5.458h0a5.458,5.458,0,0,0-5.458-5.458H405.538a5.458,5.458,0,0,0-5.458,5.458h0A5.458,5.458,0,0,0,405.538,260.062Zm0,18.646H552.194a5.458,5.458,0,0,0,5.458-5.458h0a5.458,5.458,0,0,0-5.458-5.458H405.538a5.458,5.458,0,0,0-5.458,5.458h0A5.458,5.458,0,0,0,405.538,278.708Zm0,18.664H552.194a5.458,5.458,0,0,0,5.458-5.458h0a5.458,5.458,0,0,0-5.458-5.458H405.538a5.458,5.458,0,0,0-5.458,5.458h0A5.458,5.458,0,0,0,405.538,297.372Z" transform="translate(40.19 -11.877)" fill="#e4e5fb" opacity="0.22"/>
                <path id="Path_20494" data-name="Path 20494" d="M324.2,292.325v-.178a6.157,6.157,0,0,1,6.157-6.177h117.7a6.157,6.157,0,0,1,6.177,6.177v.178a6.2,6.2,0,0,1-6.2,6.2H330.377a6.2,6.2,0,0,1-6.177-6.2Zm123.834,15.086H330.377a6.177,6.177,0,0,0-6.177,6.177v.2a6.177,6.177,0,0,0,6.177,6.177H448.034a6.2,6.2,0,0,0,6.2-6.177v-.2A6.2,6.2,0,0,0,448.034,307.411ZM324.2,335.127v.178a6.177,6.177,0,0,0,6.177,6.177H448.034a6.177,6.177,0,0,0,6.2-6.177v-.178a6.2,6.2,0,0,0-6.2-6.2H330.377a6.2,6.2,0,0,0-6.177,6.117Zm6.276,27.816H447.954a6.276,6.276,0,0,0,6.276-6.276h0a6.276,6.276,0,0,0-6.276-6.276H330.476a6.276,6.276,0,0,0-6.276,6.276h0a6.276,6.276,0,0,0,6.276,6.2Z" transform="translate(-47.153 66.47)" fill="#e4e5fb"/>
                <rect id="Rectangle_78" data-name="Rectangle 78" width="115.717" height="85.723" rx="8.11" transform="translate(743.456 434.481) rotate(180)" fill="#e4e5fb"/>
                <path id="Path_20497" data-name="Path 20497" d="M466.129,309.208h7.842a4.119,4.119,0,0,1,4.119,4.119v25.035a4.12,4.12,0,0,1-4.12,4.12h-7.842a4.119,4.119,0,0,1-4.12-4.119V313.327A4.119,4.119,0,0,1,466.129,309.208Zm24.346-10.173h8.252a3.974,3.974,0,0,1,3.908,3.974v35.619a3.974,3.974,0,0,1-3.908,3.908h-8.252a3.974,3.974,0,0,1-3.908-3.908V302.956A3.974,3.974,0,0,1,490.476,299.035ZM436.723,301.9v36.665a3.974,3.974,0,0,0,3.974,3.974h8.239a3.974,3.974,0,0,0,3.908-3.974V301.9a3.974,3.974,0,0,0-3.908-3.974H440.7a3.974,3.974,0,0,0-3.974,3.974Zm-13.14-21.366h-8.239a3.974,3.974,0,0,0-3.974,3.974v54.124a3.974,3.974,0,0,0,3.974,3.974h8.239a3.974,3.974,0,0,0,3.974-3.974v-54.19A3.974,3.974,0,0,0,423.583,280.53Z" transform="translate(88.252 123.14)" fill="#e4e5fb"/>
                <path id="Path_20498" data-name="Path 20498" d="M524.15,338.824V297.368a4.177,4.177,0,0,1,6.454-3.5l31.181,20.471a4.177,4.177,0,0,1,0,6.949l-31.122,21.025a4.177,4.177,0,0,1-6.513-3.484Z" transform="translate(148.748 73.542)" fill="#fff"/>
                <path id="Path_20499" data-name="Path 20499" d="M915.581,381.01h-639.8a4.415,4.415,0,0,1-4.415-4.415h0a4.415,4.415,0,0,1,4.415-4.435h639.8A4.435,4.435,0,0,1,920,376.595h0a4.415,4.415,0,0,1-4.415,4.415Z" transform="translate(-98.914 150.915)" fill="#4e01d4"/>
                <rect id="Rectangle_81" data-name="Rectangle 81" width="122.151" height="85.169" rx="9.45" transform="translate(385.834 102.456)" fill="#cbc2ff" opacity="0.5"/>
                <rect id="Rectangle_82" data-name="Rectangle 82" width="122.151" height="85.169" rx="9.45" transform="translate(378.073 97.527)" fill="#fff"/>
                <path id="Path_20500" data-name="Path 20500" d="M393.662,157.21h85.288a18.431,18.431,0,0,1,18.431,18.431v.653H375.23v-.653a18.431,18.431,0,0,1,18.432-18.432Z" transform="translate(2.843 -59.683)" fill="#d2d5f7"/>
                <path id="Path_20501" data-name="Path 20501" d="M384.09,163.36a1.98,1.98,0,1,1-1.98-1.98A1.98,1.98,0,0,1,384.09,163.36Z" transform="translate(7.644 -55.598)" fill="#ff005c"/>
                <path id="Path_20502" data-name="Path 20502" d="M388.52,163.36a1.98,1.98,0,1,1-1.98-1.98A1.98,1.98,0,0,1,388.52,163.36Z" transform="translate(11.984 -55.598)" fill="#ffc136"/>
                <path id="Path_20503" data-name="Path 20503" d="M392.96,163.36a1.98,1.98,0,1,1-1.98-1.98A1.98,1.98,0,0,1,392.96,163.36Z" transform="translate(16.334 -55.598)" fill="#00ead9"/>
                <rect id="Rectangle_83" data-name="Rectangle 83" width="104.175" height="3.564" rx="0.87" transform="translate(491.236 171.965) rotate(180)" fill="#e4e5fb"/>
                <rect id="Rectangle_84" data-name="Rectangle 84" width="104.175" height="3.564" rx="0.87" transform="translate(491.236 162.205) rotate(180)" fill="#9594f9"/>
                <rect id="Rectangle_85" data-name="Rectangle 85" width="104.175" height="3.564" rx="0.87" transform="translate(491.236 152.425) rotate(180)" fill="#9594f9"/>
                <path id="Path_20504" data-name="Path 20504" d="M429.071,181.146a11.186,11.186,0,1,1-11.186-11.186A11.186,11.186,0,0,1,429.071,181.146ZM445.78,169.96a55.654,55.654,0,1,1,.059.079Z" transform="translate(33.676 -47.191)" fill="#9594f9"/>
                <path id="Path_20612" data-name="Path 20612" d="M0,9.45Z" transform="translate(420.836 437.906)" fill="#fff"/>
                <rect id="Rectangle_88" data-name="Rectangle 88" width="104.175" height="3.564" rx="0.87" transform="translate(533.999 512.344) rotate(180)" fill="#e4e5fb"/>
                <rect id="Rectangle_89" data-name="Rectangle 89" width="104.175" height="3.564" rx="0.87" transform="translate(533.999 502.584) rotate(180)" fill="#e4e5fb"/>
                <circle id="Ellipse_29" data-name="Ellipse 29" cx="9.404" cy="9.404" r="9.404" transform="translate(218.552 270.802)" fill="#9594f9"/>
                <circle id="Ellipse_30" data-name="Ellipse 30" cx="9.404" cy="9.404" r="9.404" transform="translate(192.716 270.802)" fill="#9594f9"/>
                <circle id="Ellipse_31" data-name="Ellipse 31" cx="9.404" cy="9.404" r="9.404" transform="translate(166.9 270.802)" fill="#ffc136"/>
                <path id="Path_20514" data-name="Path 20514" d="M380.6,366.087c-19.4-18.867-5.761-39.892-19.52-52.76-4.91-4.573-12.057-5.147-18.233-3.207-28.093,8.711-47.791,38.407-47.791,68.519,0,17.105,4.415,43.02,15.026,55.433H427.971c7.107-9.028,14.234-24.786,17.382-38.922S411.756,396.278,380.6,366.087Z" transform="translate(-75.713 89.102)" fill="#7474e2"/>
                <path id="Path_20515" data-name="Path 20515" d="M332.685,369.877c-11.542-17.046-10.829-48.246,8.216-59.947-27.063,9.523-45.851,38.387-45.851,67.866,0,17.105,4.415,43.02,15.026,55.433H427.971c7.246-7.206,14.63-25.123,17.382-38.922C432.821,398.643,361.352,412.343,332.685,369.877Z" transform="translate(-75.713 89.945)" fill="#b6b9ff"/>
                <path id="Path_20516" data-name="Path 20516" d="M371.863,347.953c7.919-.792,13.007.277,12.69,3.682-.495,5.187-18.431,6.3-21.164,1.227C362.4,351.022,363.508,348.784,371.863,347.953Z" transform="translate(-9.053 126.954)" fill="#11025f"/>
                <path id="Path_20517" data-name="Path 20517" d="M338.014,343.287c-4.593,13.225-3.306,17.937,7.325,21.5,6.236,2.1,23.143,2.494,34.982,1.762,30.567-1.98,24.885-21.282,9.364-20.391-3.168.178-6.375,2.494-13.74.515s-18.194-5.642-18.194-5.642Z" transform="translate(-36.082 120.415)" fill="#3700bf"/>
                <path id="Path_20518" data-name="Path 20518" d="M346.174,319.5a7.187,7.187,0,0,0-5.088,5.286c-1.465,9.8.337,34.289,2.158,37.615,2.514,4.534,30.666,6.474,33.26,6.672a14.848,14.848,0,0,0,5.385-1.247,4.375,4.375,0,0,1,2.969,0,6.652,6.652,0,0,0,4.494.178c1.069-.574-4.454-4.514-7.107-5.048a23.44,23.44,0,0,0-7.582,1.168c-1.168.455-20.886-5.009-22.906-8.256-1.782-2.851.891-26.311-.455-32.448S346.174,319.5,346.174,319.5Z" transform="translate(-31.136 98.941)" fill="#c6c9fa"/>
                <path id="Path_20519" data-name="Path 20519" d="M350.47,316.2c-9.146-.356-10.79,18.491-10.79,18.491,3.465,2.613,8.454,3.583,14.234,3.722C353.637,333.624,358.725,316.519,350.47,316.2Z" transform="translate(-31.987 96.085)" fill="#ff7171"/>
                <path id="Path_20520" data-name="Path 20520" d="M355.441,345s25.262,3.069,29.32,6.771c1.445,1.326,2.435,6.909-1.8,7.662a220.353,220.353,0,0,1-28.409,3.583Z" transform="translate(-17.418 124.304)" fill="#430cbc"/>
                <path id="Path_20521" data-name="Path 20521" d="M388.183,357.346c0,12.255-15.838,11.879-24.806,11.879s-34.27,1.722-33.2-21.936c.812-17.917,23.163,2.277,32.052,2.277S388.183,347.585,388.183,357.346Z" transform="translate(-41.33 119.284)" fill="#4e01d4"/>
                <path id="Path_20522" data-name="Path 20522" d="M362.883,318.553c-7.048-5.939-27.024-6.276-31.082,12.175-6.711,30.488-1.98,39.734-1.98,39.734,12.136,2.851,39.773,5.939,47.969,1.247a45.813,45.813,0,0,1-8.355-19.8C367.773,342.112,368.6,323.4,362.883,318.553Z" transform="translate(-43.233 94.843)" fill="#ff7171"/>
                <path id="Path_20523" data-name="Path 20523" d="M335.53,319.5a7.206,7.206,0,0,0-5.088,5.286c-1.445,9.8.337,34.289,2.178,37.615,2.514,4.534,30.647,6.474,33.24,6.672a14.771,14.771,0,0,0,5.385-1.247,4.376,4.376,0,0,1,2.97,0,6.632,6.632,0,0,0,4.494.178c1.089-.574-4.435-4.514-7.088-5.048a23.559,23.559,0,0,0-7.6,1.168c-1.148.455-20.867-5.009-22.906-8.256-1.782-2.851.891-26.311-.436-32.448S335.53,319.5,335.53,319.5Z" transform="translate(-41.556 98.941)" fill="#c6c9fa"/>
                <path id="Path_20524" data-name="Path 20524" d="M339.84,316.2c-9.166-.356-10.79,18.491-10.79,18.491,3.445,2.613,8.453,3.583,14.215,3.722C342.987,333.624,348.075,316.519,339.84,316.2Z" transform="translate(-42.402 96.085)" fill="#ff7171"/>
                <path id="Path_20525" data-name="Path 20525" d="M338.39,311.77a24.214,24.214,0,0,0,0,7.642c.158,1.485,8.374,4.672,7.385,1.049a35.335,35.335,0,0,1-1.109-6.652Z" transform="translate(-33.548 91.747)" fill="#c6c9fa"/>
                <path id="Path_20526" data-name="Path 20526" d="M337.966,314.238a3.842,3.842,0,0,1,.139.653,10.532,10.532,0,0,0,1.643,4.534,5.939,5.939,0,0,0,4.276,2.613,5.8,5.8,0,0,0,4.276-1.643,9.9,9.9,0,0,0,2.455-3.959c.851-2.316,1.821-5.187.475-7.246a22.688,22.688,0,0,0-6.434-3.722,3.7,3.7,0,0,0-4.257.911l-2.356,2.653a3.682,3.682,0,0,0-.752,3.6Z" transform="translate(-34.371 85.26)" fill="#c6c9fa"/>
                <path id="Path_20527" data-name="Path 20527" d="M341.983,317.93c-1.663-5.464-3.643-1.029-1.544,1.8a4.534,4.534,0,0,0,.455,2.475,9.9,9.9,0,0,1-3.445-3.168c-1.762-2.2-4.1-11.879,2.554-14.353,7.147-9.344,17.362,4.93,18.966,4.2a6.771,6.771,0,0,1-5.6,6.3,17.183,17.183,0,0,1-6.751-.1C343.528,313.753,342.221,318.663,341.983,317.93Z" transform="translate(-36.013 81.687)" fill="#3f00c3"/>
                <path id="Path_20528" data-name="Path 20528" d="M385.664,360.477H354.879a1.089,1.089,0,0,1,0-2.178l5.484-29.043s29.934-.119,30.528,0a1.089,1.089,0,0,1,.851,1.287Z" transform="translate(-18.163 108.828)" fill="#b6b9ff"/>
                <path id="Path_20529" data-name="Path 20529" d="M370.244,360.462H339.459a1.089,1.089,0,1,1,0-2.178h29l5.722-28.192a1.091,1.091,0,1,1,2.138.436Z" transform="translate(-33.27 108.843)" fill="#9594f9"/>
                <path id="Path_20530" data-name="Path 20530" d="M355,351.344c8.038.337,13.977,1.425,13.126,4.4-1.109,3.96-21.52,5.246-21.441.634C346.72,353.72,346.6,351.008,355,351.344Z" transform="translate(-25.129 130.492)" fill="#11025f"/>
                <rect id="Rectangle_96" data-name="Rectangle 96" width="89.465" height="103.858" rx="1.93" transform="translate(729.954 419.217)" fill="#9594f9"/>
                <rect id="Rectangle_97" data-name="Rectangle 97" width="77.824" height="27.736" rx="1.93" transform="translate(735.775 425.572)" fill="#b6b9ff"/>
                <rect id="Rectangle_98" data-name="Rectangle 98" width="77.824" height="27.736" rx="1.93" transform="translate(735.775 457.268)" fill="#b6b9ff"/>
                <rect id="Rectangle_99" data-name="Rectangle 99" width="77.824" height="27.736" rx="1.93" transform="translate(735.775 488.983)" fill="#b6b9ff"/>
                <path id="Path_20531" data-name="Path 20531" d="M587.6,390.871c3.524-8.553,7.068-17.224,8.513-26.37s.634-18.966-4.118-26.925a9.9,9.9,0,0,0-2.415-2.91,4.3,4.3,0,0,0-3.583-.871,5.821,5.821,0,0,0-3.287,3.346c-3.841,7.78-2.811,17.085-.673,25.5s5.326,16.709,5.563,25.38" transform="translate(203.591 113.238)" fill="#16d6cc"/>
                <g id="Group_169" data-name="Group 169" transform="translate(789.516 454.567)" opacity="0.35">
                  <path id="Path_20532" data-name="Path 20532" d="M585.9,385.672a.891.891,0,0,0,.871-.812,225.023,225.023,0,0,0-1.98-46.584.891.891,0,0,0-.99-.713.851.851,0,0,0-.733.97,221.608,221.608,0,0,1,1.98,46.227.832.832,0,0,0,.812.911Z" transform="translate(-583.055 -337.556)" fill="#60c6bc"/>
                </g>
                <path id="Path_20533" data-name="Path 20533" d="M595.225,382.068c-2.079-5.939-1.6-12.492-1.841-18.808s-1.425-13.106-5.939-17.541a10.056,10.056,0,0,0-4.553-2.712,6.176,6.176,0,0,0-5.127.871,8.534,8.534,0,0,0-2.752,6.533,31,31,0,0,0,6.375,19.263,90.538,90.538,0,0,0,14.353,14.789" transform="translate(198.576 122.139)" fill="#00ebd5"/>
                <g id="Group_170" data-name="Group 170" transform="translate(778.533 470.787)" opacity="0.35">
                  <path id="Path_20534" data-name="Path 20534" d="M592.439,380.852a.812.812,0,0,0,.733-.178.851.851,0,0,0,.1-1.227,60.146,60.146,0,0,1-14.036-32.9.891.891,0,0,0-.95-.792.871.871,0,0,0-.772.95,61.927,61.927,0,0,0,14.452,33.873A.891.891,0,0,0,592.439,380.852Z" transform="translate(-577.508 -345.749)" fill="#60c6bc"/>
                </g>
                <path id="Path_20535" data-name="Path 20535" d="M584.9,381.718a20.828,20.828,0,0,0,8.671-5.939,50.841,50.841,0,0,0,10.908-17.362,18.888,18.888,0,0,0,1.465-6.474,8.572,8.572,0,0,0-2.217-6.118A8.2,8.2,0,0,0,594.4,344.7a13.463,13.463,0,0,0-6.2,7.483,39.59,39.59,0,0,0-1.782,9.9l-1.663,17.382" transform="translate(208.131 123.064)" fill="#51f4e0"/>
                <g id="Group_171" data-name="Group 171" transform="translate(791.51 475.168)" opacity="0.35">
                  <path id="Path_20536" data-name="Path 20536" d="M584.85,375.754a.911.911,0,0,0,.594-.238,49.5,49.5,0,0,0,14.412-26.529.858.858,0,1,0-1.682-.337,47.93,47.93,0,0,1-13.858,25.618.871.871,0,0,0,.614,1.485Z" transform="translate(-584.062 -347.962)" fill="#60c6bc"/>
                </g>
                <path id="Path_20537" data-name="Path 20537" d="M584.031,383.056h15.977l5.741-21.936H578.29Z" transform="translate(201.792 140.098)" fill="#4e01d4"/>
                <rect id="Rectangle_100" data-name="Rectangle 100" width="29.795" height="7.206" transform="translate(808.709 506.128) rotate(180)" fill="#9594f9"/>
                <path id="Path_20538" data-name="Path 20538" d="M302.935,331A25.954,25.954,0,0,0,277,356.935a33.319,33.319,0,0,0,3.128,12.354c3.959,8.889,14.531,30.191,20.055,41.219a3.663,3.663,0,0,0,6.612-.119c5.029-10.968,14.67-31.973,19.025-41.1a28.608,28.608,0,0,0,3.128-12.354A25.954,25.954,0,0,0,302.935,331Zm0,38.288a12.294,12.294,0,1,0,0-.04Z" transform="translate(-93.398 110.588)" fill="#ff7171"/>
                <path id="Path_20540" data-name="Path 20540" d="M386.967,258.42l8.077,8.2L374,258.42" transform="translate(1.638 39.478)" fill="#fff"/>
                <g id="Group_317" data-name="Group 317" transform="translate(4 8)">
                  <g id="Group_316" data-name="Group 316">
                    <path id="Path_20539" data-name="Path 20539" d="M367.693,241.66h39.456a5.622,5.622,0,0,1,5.622,5.622v26.727a5.623,5.623,0,0,1-5.622,5.6H404.3l6.2,6.315-16.155-6.315H367.693a5.6,5.6,0,0,1-5.6-5.6V247.283a5.622,5.622,0,0,1,5.6-5.622Z" transform="translate(-10.03 23.057)" fill="#cbc2ff" opacity="0.5"/>
                    <rect id="Rectangle_101" data-name="Rectangle 101" width="50.701" height="38.031" rx="3.79" transform="translate(398.979 299.798) rotate(180)" fill="#fff"/>
                  </g>
                  <path id="Path_20541" data-name="Path 20541" d="M403.33,248.075h-39.6a1.485,1.485,0,0,1,0-2.95h39.6a1.485,1.485,0,1,1,0,2.95Zm1.485,6.256a1.5,1.5,0,0,0-1.485-1.524H363.735a1.485,1.485,0,1,0,0,2.97h39.6A1.5,1.5,0,0,0,404.815,254.331Zm0,7.741a1.485,1.485,0,0,0-1.485-1.485h-39.6a1.485,1.485,0,0,0,0,2.95H403.33a1.485,1.485,0,0,0,1.485-1.465Z" transform="translate(-9.874 26.442)" fill="#e4e5fb"/>
                </g>
                <path id="Path_20542" data-name="Path 20542" d="M552.909,312.52H513.453a5.623,5.623,0,0,0-5.623,5.622v26.806a5.622,5.622,0,0,0,5.622,5.622h2.871l-6.177,6.3,16.175-6.3h26.588a5.623,5.623,0,0,0,5.623-5.623V318.143a5.623,5.623,0,0,0-5.623-5.622Z" transform="translate(132.758 92.482)" fill="#cbc2ff" opacity="0.5"/>
                <rect id="Rectangle_102" data-name="Rectangle 102" width="50.701" height="38.031" rx="3.79" transform="translate(637.302 401.914)" fill="#fff"/>
                <path id="Path_20543" data-name="Path 20543" d="M515.4,329.21l-8.077,8.216,21.025-8.216" transform="translate(132.259 108.834)" fill="#fff"/>
                <path id="Path_20544" data-name="Path 20544" d="M508.236,317.395a1.485,1.485,0,0,1,1.485-1.485h39.595a1.485,1.485,0,1,1,0,2.97h-39.5a1.485,1.485,0,0,1-1.584-1.485Zm1.485,9.206h39.595a1.485,1.485,0,1,0,0-2.95h-39.5a1.485,1.485,0,1,0,0,2.95Zm0,7.741h39.595a1.485,1.485,0,1,0,0-2.97h-39.5a1.485,1.485,0,0,0,0,2.97Z" transform="translate(133.085 95.803)" fill="#e4e5fb"/>
                <path id="Path_20545" data-name="Path 20545" d="M385.141,478.177a1.8,1.8,0,0,1-.455,0,1.98,1.98,0,0,1-1.386-2.3l52.107-209.854a1.98,1.98,0,1,1,3.682.911L386.982,476.792A1.98,1.98,0,0,1,385.141,478.177Z" transform="translate(10.71 44.897)" fill="#7474e2"/>
                <path id="Path_20546" data-name="Path 20546" d="M406.121,478.177a1.8,1.8,0,0,1-.455,0,1.98,1.98,0,0,1-1.386-2.3l52.107-209.854a1.98,1.98,0,1,1,3.682.911L407.962,476.792A1.98,1.98,0,0,1,406.121,478.177Z" transform="translate(31.266 44.897)" fill="#7474e2"/>
                <path id="Path_20547" data-name="Path 20547" d="M429.788,435.32l-41.258-.158v-3.8l41.258.139Zm6.612-26.747-41.258-.139v-3.781l41.278.139Zm6.612-26.727-41.258-.139v-3.8l41.258.139Zm6.612-26.727-41.258-.139V351.2l41.258.139Zm6.632-26.727-41.278-.139v-3.8l41.258.139Zm6.612-26.727-41.258-.139v-3.781l41.278.139Zm6.612-26.727-41.258-.139V271l41.258.158Z" transform="translate(15.874 51.803)" fill="#7474e2"/>
                <path id="Path_20548" data-name="Path 20548" d="M415.5,281.475c2.534-1.029,3.96-3.742,6.533-3.346,1.445.218.851,4.435-1.346,6.731a25.734,25.734,0,0,1-4.652,1.821Z" transform="translate(42.298 58.749)" fill="#c6c9fa"/>
                <path id="Path_20549" data-name="Path 20549" d="M406.879,323.444l7.6-.614-.475,2.613,9.6,4.692-18.827-1.346Z" transform="translate(31.795 102.583)" fill="#11025f"/>
                <path id="Path_20550" data-name="Path 20550" d="M394.568,336.674l7.6-.614-.495,2.613,9.6,4.672-18.827-1.326Z" transform="translate(19.715 115.545)" fill="#11025f"/>
                <path id="Path_20551" data-name="Path 20551" d="M432.811,286.734s-10.552,4.692-16.293,4.692c-3.959,0-7.6-20.926-15.838-20.926-.812,5.088.436,9.641-.99,14.611,3.069,7.919,7.919,16.59,12.1,17.818,4.791,1.307,21.084-8.533,21.084-8.533Z" transform="translate(26.808 51.313)" fill="#f7c90b"/>
                <path id="Path_20552" data-name="Path 20552" d="M419.845,291.59c-7.919,2.376-18.57,6.791-26.865,6.909v5.068c0,8.79,10.552,43.555,10.552,43.555l-10.374,33.5,8.751.634,14.571-32.626s-.713-17.818-3.346-36.408c3.425,2.97,16.155,11.977,17.917,13.6-1.821,4.989-13.482,28.865-13.482,28.865l9.582.495s18.61-29.7,18.412-32.983C439.742,311.665,424.122,295.629,419.845,291.59Z" transform="translate(20.234 71.976)" fill="#4e01d4"/>
                <path id="Path_20553" data-name="Path 20553" d="M419.341,298.3a2.138,2.138,0,0,1-2.89-2.554c2.495-7.919.772-20.035-3.465-23.46-4.573-3.682-11.126-2.851-16.313-1.5-13.977,9.483-6.652,52.424-2.1,65.866,18.55-3.96,26.845-6.375,37.318-16.531C429.715,313.172,418.589,304.441,419.341,298.3Z" transform="translate(15.888 50.473)" fill="#f7c90b"/>
                <path id="Path_20554" data-name="Path 20554" d="M414.812,298.111c-18.233.634-18.808-13.858-26.172-17.541.3,2.435-.1,15.62,6.1,25.222,2.851,4.435,32.527,3.8,36.724,2.752a45.537,45.537,0,0,0-6.335-9.4C421.722,299.021,418.317,297.992,414.812,298.111Z" transform="translate(15.982 61.179)" fill="#f7c90b" opacity="0.47"/>
                <path id="Path_20555" data-name="Path 20555" d="M397.153,267.5a10.352,10.352,0,0,1-.673,4.375c1.6,2.237,4.474,4.316,5.523,4.1s-.2-1.98-.2-2.1a18.984,18.984,0,0,1,.99-5.543" transform="translate(23.663 48.374)" fill="#c6c9fa"/>
                <g transform="matrix(1, 0, 0, 1, 0, 0)" filter="url(#Rectangle_103)">
                  <rect id="Rectangle_103-2" data-name="Rectangle 103" width="61.155" height="68.301" rx="2.7" transform="translate(506.95 374.88) rotate(-169.62)" fill="#fff" stroke="#d8e5f6" stroke-width="1"/>
                </g>
                <path id="Path_20556" data-name="Path 20556" d="M410.515,266.052c0,5.939-3.643,15.185-9.641,10.968a16.115,16.115,0,0,1-6.533-11.027S404.852,251.62,410.515,266.052Z" transform="translate(21.566 40.655)" fill="#c6c9fa"/>
                <path id="Path_20557" data-name="Path 20557" d="M412.067,290.559c2.732.178,5.009-1.425,6.593-.535s5.464,5.642-2.1,5.464-6.236,0-6.236,0Z" transform="translate(37.139 70.176)" fill="#c6c9fa"/>
                <path id="Path_20558" data-name="Path 20558" d="M400.644,270.995c-1.821-2.356-7.5-.158-9.424,2.554-7.285,10.275,1.623,33.319,3.128,36.7,3.227,7.365,39.08,5.741,39.08,5.741l1.98-6.533s-27.717-3.564-31.023-5.939C403.119,302.513,407.038,279.33,400.644,270.995Z" transform="translate(15.738 50.818)" fill="#f7c90b"/>
                <path id="Path_20559" data-name="Path 20559" d="M418.748,263.044a2.633,2.633,0,0,0-3.8-.218,2.1,2.1,0,0,0-3.128-2.791,1.719,1.719,0,0,0-1.683-1.98,4.95,4.95,0,0,0-2.772.931,2.376,2.376,0,0,0-4.157-.95,1.287,1.287,0,0,0-1.049-1.247,2.95,2.95,0,0,0-1.742.257,5.226,5.226,0,0,0-2.554,1.98,2.712,2.712,0,0,0,0,3.049,1.247,1.247,0,0,0-1.643-.218,1.98,1.98,0,0,0-.812,1.564,6.294,6.294,0,0,0,.257,1.8,1.584,1.584,0,0,0-2.2-.376,2.475,2.475,0,0,0-.93,2.2,5.543,5.543,0,0,0,.891,2.316,20.809,20.809,0,0,1,1.287,2.118c-1.762,4.336,5.108,6.632,6.355,7.226.931-.475.594-3.564.475-3.722-2.237-3.346,1.623-6.395,1.544-1.109,0,0,.356,1.544,1.128-1.208,0,0,.614-3.069,6.414-2.336h.3a1.624,1.624,0,0,0,.653.3,1.841,1.841,0,0,0,1.623-.515,3.737,3.737,0,0,0,.713-.218,4.1,4.1,0,0,0,2.1.495,2.693,2.693,0,0,0,2.2-1.227,1.98,1.98,0,0,0-.356-2.4,2.593,2.593,0,0,0,.891-3.722Z" transform="translate(19.787 37.843)" fill="#3f00c3"/>
                <path id="Path_20560" data-name="Path 20560" d="M548.97,351.173l4.039-8.79,15.125-1.683-10.592,8.077-3.524,4.217Z" transform="translate(173.065 120.092)" fill="#11025f"/>
                <path id="Path_20561" data-name="Path 20561" d="M556.42,351.02l4.059-8.77,15.125,4.494-10.592,1.881-3.524,4.237Z" transform="translate(180.365 121.61)" fill="#11025f"/>
                <path id="Path_20562" data-name="Path 20562" d="M567.075,378.464c4.158-14.1,5.583-21.342,15.284-32.389,1.287-1.485,8.473-.376,9.6,1.227-10.73,15.026-12.849,47.138-17.818,49.494s-41.694-.317-60.4-.139c2.237,0,13.858-14.888,13.858-16.392C528.113,365.319,558.582,374.8,567.075,378.464Z" transform="translate(138.549 124.674)" fill="#3700bf"/>
                <path id="Path_20563" data-name="Path 20563" d="M569.788,385.21c4.157-14.1,10.374-27.479,20.055-38.526,1.307-1.485,8.929-1.168,10.037.435-10.73,15.026-13.066,47.989-18.016,50.365s-42.03.713-60.739.891c2.237,0-.633-16.947-.356-18.431C523.521,365.333,561.295,381.547,569.788,385.21Z" transform="translate(145.417 125.016)" fill="#4e01d4"/>
                <path id="Path_20564" data-name="Path 20564" d="M521.239,357.8a4.692,4.692,0,0,1,3.385,5.207c-1.168,10.671-.475,18.1-7.919,21.777-4.653,2.257-34.566.871-37.16,1.049a14,14,0,0,1-5.385-1.247,4.375,4.375,0,0,0-2.97-.1,6.632,6.632,0,0,1-4.494.178c-1.069-.574,4.455-4.514,7.107-5.029a22.41,22.41,0,0,1,7.582,1.168c1.168.436,24.767-.614,28.251-2.237,4.553-2.138,4.158-7.919,7.919-15.007C520.23,358.2,521.239,357.8,521.239,357.8Z" transform="translate(92.325 136.845)" fill="#c6c9fa"/>
                <path id="Path_20565" data-name="Path 20565" d="M500.474,357.283c6.929,2.4-.772,16.452-.772,16.452-3.366.931-6.216-.891-10.572-2.475C490.714,367.816,494.2,355.106,500.474,357.283Z" transform="translate(114.437 136.095)" fill="#ff7171"/>
                <path id="Path_20566" data-name="Path 20566" d="M498.62,383.671c-6.494-3.663-12.472-25.856,5.82-28.766,12.789-1.98,18.372,5.326,27.717,8.79,13.225,4.89,19.9,1.307,19.9,1.307,2.97,12.116,4.969,19.3-2.138,24.866,0,0-5.4-.891-20.589-.2C519.368,390.125,510.459,390.383,498.62,383.671Z" transform="translate(117.479 133.682)" fill="#ff7171"/>
                <path id="Path_20567" data-name="Path 20567" d="M529.539,357.6a4.534,4.534,0,0,1,3.385,5.207c-2.217,11.562-2.91,17.184-11.681,22.767-4.375,2.791-30.884-.178-33.478,0a14.847,14.847,0,0,1-5.385-1.247,4.316,4.316,0,0,0-2.95,0,6.691,6.691,0,0,1-4.514.178c-1.069-.574,4.454-4.514,7.107-5.048a23.441,23.441,0,0,1,7.582,1.168c1.168.455,22.094.831,25.578-.792,4.553-2.138,4.91-10.532,8.572-17.521C526.688,356.808,529.539,357.6,529.539,357.6Z" transform="translate(100.379 136.61)" fill="#c6c9fa"/>
                <path id="Path_20568" data-name="Path 20568" d="M508.749,356.737c8.651,3.009,1.01,20.807,1.01,20.807-4.177,1.168-7.464-.554-12.888-2.554C498.85,370.714,500.948,354.024,508.749,356.737Z" transform="translate(122.02 135.513)" fill="#ff7171"/>
                <path id="Path_20569" data-name="Path 20569" d="M498.286,352.52a36.5,36.5,0,0,1,2.435,6.137c1.069,3.187-5.365,9.7-5.781,3.742-.317-4.791-1.227-4.91-1.049-4.969Z" transform="translate(119.08 131.672)" fill="#c6c9fa"/>
                <path id="Path_20570" data-name="Path 20570" d="M503.849,354.152a3.655,3.655,0,0,0,0,.653,10.393,10.393,0,0,1-.158,4.811,5.939,5.939,0,0,1-3.286,3.8,5.781,5.781,0,0,1-4.553-.238,10.077,10.077,0,0,1-3.564-3.009c-1.524-1.98-3.306-4.375-2.673-6.751A22.447,22.447,0,0,1,494.6,347.9a3.7,3.7,0,0,1,4.336-.436l3.049,1.8a3.722,3.722,0,0,1,1.821,3.207Z" transform="translate(114.784 126.219)" fill="#c6c9fa"/>
                <path id="Path_20571" data-name="Path 20571" d="M505,358.262c0-5.7,3.168-2.1,1.98,1.227a4.871,4.871,0,0,1,.317,2.514,10.353,10.353,0,0,0,2.316-4.078c.99-2.633.238-12.552-6.83-12.868-9.681-6.711-15.026,10-16.788,9.9a6.81,6.81,0,0,0,7.285,4.276,17.6,17.6,0,0,0,6.395-2.158C502.264,354.758,505.016,359.014,505,358.262Z" transform="translate(111.361 122.802)" fill="#3f00c3"/>
                <path id="Path_20572" data-name="Path 20572" d="M459.779,387.637h30.785a1.089,1.089,0,0,0,1.089-1.089,1.069,1.069,0,0,0-1.089-1.089l-5.484-29.043s-29.934-.119-30.528,0a1.089,1.089,0,0,0-.851,1.287Z" transform="translate(79.704 135.438)" fill="#b6b9ff"/>
                <path id="Path_20573" data-name="Path 20573" d="M475.2,387.622h30.785a1.089,1.089,0,1,0,0-2.178h-29l-5.722-28.192a1.091,1.091,0,1,0-2.138.436Z" transform="translate(94.812 135.453)" fill="#9594f9"/>
                <path id="Path_20574" data-name="Path 20574" d="M494.28,350.813a15.679,15.679,0,0,1,4.969-9.344,12.532,12.532,0,0,1,10.037-3.029,10.335,10.335,0,0,1,7.919,6.513c1.5,4.276-.218,9.285,1.663,13.4a22.115,22.115,0,0,0,5.4,6.137,9.543,9.543,0,0,1,3.544,7.147,6.85,6.85,0,0,1-6.87,5.623,12.057,12.057,0,0,1-8.454-4.237,10.671,10.671,0,0,1-3.247-8.652c.594-3.366,3.484-5.939,3.96-9.364a8.176,8.176,0,0,0-5.939-8.651c-3.722-1.01-9.186,2.1-11.74,4.969" transform="translate(119.483 117.759)" fill="#3f00c3"/>
                <path id="Path_20575" data-name="Path 20575" d="M575.549,344.291v-4.514a32.409,32.409,0,0,0-7.919-20.372,27.9,27.9,0,0,1-5.939-22.728,28.271,28.271,0,1,1,49.732,22.807,32.052,32.052,0,0,0-7.919,20.292v4.514Z" transform="translate(185.092 54.079)" fill="#ffffd6"/>
                <path id="Path_20576" data-name="Path 20576" d="M584.707,324.127v-1.98c0-.653,6.434-22.114,3.96-26.469a3.386,3.386,0,0,0-1.98-1.663,4.137,4.137,0,0,0-3.049.455,4.949,4.949,0,0,0-3.959-1.98h0a4.1,4.1,0,0,0-3.643,2.1l-.495-.218a3.821,3.821,0,0,0-3.959.535c-2.93,2.475,3.662,26.43,3.662,27.024v2.277ZM573.74,296.905c.139-.119.337-.3.891,0a1.818,1.818,0,0,1,.535.317,4.158,4.158,0,0,0,.713,3.96,2.316,2.316,0,0,0,2.574.3,2.138,2.138,0,0,0,1.267-2.079,5.265,5.265,0,0,0-1.208-2.89,4.1,4.1,0,0,1,.376-.634c.178-.257.535-.673.891-.653a2.178,2.178,0,0,1,1.722,1.069,6.318,6.318,0,0,0-1.386,2.158,2.494,2.494,0,0,0,1.663,3.385,2.375,2.375,0,0,0,2.4-.574,4.652,4.652,0,0,0,.752-4.157,2.158,2.158,0,0,1,1.01-.416.693.693,0,0,1,.257.277c1.683,3.069-1.208,15.185-3.96,23.9h-4.276c-3.069-10.81-5.464-22.312-4.217-23.955Z" transform="translate(194.484 72.857)" fill="#fff"/>
                <path id="Path_20577" data-name="Path 20577" d="M567,312.192h0a3.722,3.722,0,0,0,3.722,3.722h26.43a3.722,3.722,0,0,0,3.722-3.722h0a3.722,3.722,0,0,0-3.722-3.722h-26.41A3.722,3.722,0,0,0,567,312.192Z" transform="translate(190.73 88.514)" fill="#4e01d4"/>
                <path id="Path_20578" data-name="Path 20578" d="M567,315.952h0a3.722,3.722,0,0,0,3.722,3.7h26.43a3.722,3.722,0,0,0,3.722-3.7h0a3.722,3.722,0,0,0-3.722-3.722h-26.41A3.722,3.722,0,0,0,567,315.952Z" transform="translate(190.73 92.198)" fill="#4e01d4"/>
                <path id="Path_20579" data-name="Path 20579" d="M567,319.7h0a3.722,3.722,0,0,0,3.722,3.722h26.43a3.722,3.722,0,0,0,3.722-3.722h0a3.722,3.722,0,0,0-3.722-3.722h-26.41A3.722,3.722,0,0,0,567,319.7Z" transform="translate(190.73 95.872)" fill="#4e01d4"/>
                <path id="Path_20580" data-name="Path 20580" d="M271,227.984a6.474,6.474,0,1,0,1.889-4.59,6.494,6.494,0,0,0-1.889,4.59Z" transform="translate(-99.276 3.295)" fill="#7474e2"/>
                <circle id="Ellipse_33" data-name="Ellipse 33" cx="6.771" cy="6.771" r="6.771" transform="translate(630.294 53.319)" fill="#7474e2"/>
                <path id="Path_20581" data-name="Path 20581" d="M617.5,351.121a4.771,4.771,0,1,0,4.771-4.771,4.771,4.771,0,0,0-4.771,4.771Z" transform="translate(240.208 125.627)" fill="#7474e2"/>
                <path id="Path_20582" data-name="Path 20582" d="M184.26,334.731a4.771,4.771,0,1,0,4.771-4.771,4.771,4.771,0,0,0-4.771,4.771Z" transform="translate(-184.26 109.569)" fill="#7474e2"/>
                <circle id="Ellipse_34" data-name="Ellipse 34" cx="5.642" cy="5.642" r="5.642" transform="translate(312.544 103.783)" fill="#7474e2"/>
                <circle id="Ellipse_35" data-name="Ellipse 35" cx="4.831" cy="4.831" r="4.831" transform="translate(168.932 87.767)" fill="#7474e2"/>
                <circle id="Ellipse_36" data-name="Ellipse 36" cx="4.831" cy="4.831" r="4.831" transform="translate(542.373 139.755)" fill="#7474e2"/>
                <circle id="Ellipse_37" data-name="Ellipse 37" cx="4.831" cy="4.831" r="4.831" transform="translate(82.358 490.864)" fill="#7474e2"/>
                <circle id="Ellipse_38" data-name="Ellipse 38" cx="4.831" cy="4.831" r="4.831" transform="translate(834.743 323.793)" fill="#7474e2"/>
                <circle id="Ellipse_39" data-name="Ellipse 39" cx="4.831" cy="4.831" r="4.831" transform="translate(754.602 144.585)" fill="#7474e2"/>
              </g>
            </g>
          </g>
        </g>
      </g>
      <g id="Group_319" data-name="Group 319" transform="translate(55 44)">
        <g transform="matrix(1, 0, 0, 1, 392, 2497.95)" filter="url(#Ellipse_40)">
          <circle id="Ellipse_40-3" data-name="Ellipse 40" cx="26.5" cy="26.5" r="26.5" transform="translate(439 279.05)" fill="#fff"/>
        </g>
      </g>
      <g id="Group_314" data-name="Group 314" transform="translate(419 340)">
        <g id="flutter" transform="translate(292 2419)">
          <path id="Path_20441" data-name="Path 20441" d="M13.371,56.782,0,43.412,43.415,0H70.153m0,40.06H43.415L33.4,50.076,46.77,63.447" fill="rgba(66,165,245,0.8)"/>
          <path id="Path_20442" data-name="Path 20442" d="M951.7,1821.267l10.016,10.016h26.738L965.071,1807.9" transform="translate(-918.301 -1744.453)" fill="#0d47a1"/>
          <path id="Path_20443" data-name="Path 20443" d="M571.6,1440.953l13.35-13.353,13.35,13.349L584.95,1454.3Z" transform="translate(-551.54 -1377.499)" fill="#42a5f5"/>
          <path id="Path_20444" data-name="Path 20444" d="M952,1821.45l13.35-13.35,1.863,1.864-13.35,13.35Z" transform="translate(-918.59 -1744.646)" fill="url(#linear-gradient)"/>
          <path id="Path_20445" data-name="Path 20445" d="M951.7,1821.17l19.839-6.854-6.468-6.517" transform="translate(-918.301 -1744.357)" fill="url(#linear-gradient-2)"/>
        </g>
      </g>
      <g id="react_1_" data-name="react (1)" transform="translate(876.757 2814.215)">
        <path id="Path_20451" data-name="Path 20451" d="M49.417,26.5q-.664-.228-1.338-.422.112-.454.207-.913c1.013-4.917.351-8.877-1.911-10.181-2.168-1.25-5.714.053-9.3,3.17q-.529.462-1.035.95-.338-.324-.689-.636c-3.753-3.333-7.516-4.737-9.775-3.429-2.166,1.254-2.808,4.978-1.9,9.637q.136.692.307,1.377c-.532.151-1.046.312-1.538.484-4.4,1.534-7.211,3.939-7.211,6.433,0,2.576,3.017,5.16,7.6,6.726q.558.19,1.124.351-.184.737-.327,1.484c-.869,4.579-.19,8.214,1.97,9.46,2.231,1.287,5.977-.036,9.624-3.224q.432-.378.867-.8.547.528,1.124,1.025c3.533,3.04,7.021,4.267,9.18,3.018,2.229-1.291,2.954-5.2,2.013-9.948q-.108-.544-.249-1.111.395-.116.773-.241c4.765-1.579,7.865-4.131,7.865-6.741,0-2.5-2.9-4.924-7.39-6.469Z" transform="translate(0 0)" fill="#53c1de"/>
        <path id="Path_20452" data-name="Path 20452" d="M56.26,45.884c-.227.075-.46.148-.7.218a41.675,41.675,0,0,0-2.1-5.266,41.657,41.657,0,0,0,2.023-5.189c.425.123.838.253,1.236.39,3.846,1.324,6.192,3.282,6.192,4.79,0,1.607-2.534,3.693-6.648,5.056Zm-1.707,3.383a15.035,15.035,0,0,1,.2,5.486,3.669,3.669,0,0,1-1.361,2.58c-1.31.758-4.111-.227-7.132-2.827q-.52-.447-1.045-.953A41.726,41.726,0,0,0,48.7,49.129a41.449,41.449,0,0,0,5.629-.868q.127.513.225,1.005ZM37.29,57.2a3.669,3.669,0,0,1-2.915.11c-1.311-.756-1.856-3.675-1.113-7.591q.133-.694.3-1.38a41.753,41.753,0,0,0,5.6.811,43.208,43.208,0,0,0,3.568,4.408q-.387.374-.792.729A15.038,15.038,0,0,1,37.29,57.2Zm-6-11.328A15.042,15.042,0,0,1,26.446,43.3,3.67,3.67,0,0,1,24.9,40.828c0-1.513,2.257-3.444,6.02-4.756q.709-.246,1.431-.45a42.584,42.584,0,0,0,2.026,5.249A43.232,43.232,0,0,0,32.32,46.2Q31.8,46.048,31.294,45.874Zm2.01-13.68c-.781-3.992-.262-7,1.043-7.759,1.391-.8,4.465.343,7.706,3.22.207.184.415.377.624.576a42.55,42.55,0,0,0-3.541,4.382,43.386,43.386,0,0,0-5.546.862q-.159-.637-.286-1.281Zm17.929,4.427q-.609-1.053-1.264-2.079c1.326.167,2.6.39,3.79.662a37.877,37.877,0,0,1-1.33,3.579q-.576-1.093-1.2-2.163ZM43.922,29.5a37.975,37.975,0,0,1,2.446,2.953q-2.455-.116-4.913,0C42.263,31.387,43.09,30.4,43.922,29.5Zm-7.358,7.134q-.612,1.061-1.173,2.149c-.517-1.226-.959-2.432-1.321-3.6,1.186-.265,2.451-.482,3.768-.647q-.662,1.032-1.274,2.094Zm1.312,10.611a37.81,37.81,0,0,1-3.831-.616c.367-1.185.819-2.417,1.347-3.669q.564,1.089,1.178,2.151.627,1.083,1.3,2.135Zm6.1,5.038c-.842-.908-1.681-1.913-2.5-2.993q1.194.047,2.432.047,1.271,0,2.509-.056A37.76,37.76,0,0,1,43.971,52.282ZM52.446,42.9a37.707,37.707,0,0,1,1.4,3.656,37.682,37.682,0,0,1-3.877.661q.659-1.045,1.276-2.115.627-1.088,1.205-2.2ZM49.7,44.21q-.944,1.641-1.994,3.217c-1.233.088-2.508.134-3.806.134s-2.552-.04-3.763-.119q-1.076-1.572-2.031-3.222t-1.773-3.349q.821-1.708,1.768-3.351h0q.946-1.642,2.015-3.208c1.236-.093,2.5-.142,3.785-.142s2.556.049,3.792.143q1.057,1.563,2,3.2t1.792,3.335q-.833,1.713-1.786,3.364Zm3.663-19.828c1.392.8,1.933,4.04,1.059,8.285q-.086.415-.187.826a42.536,42.536,0,0,0-5.557-.878,41.711,41.711,0,0,0-3.513-4.385q.467-.45.956-.877c3.069-2.671,5.937-3.725,7.243-2.971Z" transform="translate(-7.877 -7.859)" fill="#fff"/>
        <path id="Path_20453" data-name="Path 20453" d="M111.756,94.665a3.712,3.712,0,1,1-3.712,3.712,3.712,3.712,0,0,1,3.712-3.712" transform="translate(-75.73 -65.407)" fill="#53c1de"/>
      </g>
      <g id="nodejs_1_" data-name="nodejs (1)" transform="translate(1112.143 2744.618)">
        <g id="Group_161" data-name="Group 161" transform="translate(84.766 10.397)">
          <path id="Path_20446" data-name="Path 20446" d="M438.114,51.611a1.386,1.386,0,0,0-.689.169L430.8,55.605a1.4,1.4,0,0,0-.689,1.21v7.637a1.4,1.4,0,0,0,.689,1.209l1.73,1a2.829,2.829,0,0,0,1.533.408A1.832,1.832,0,0,0,436.018,65V57.462a.189.189,0,0,0-.2-.183h-.83a.188.188,0,0,0-.2.183V65c0,.582-.606,1.167-1.589.675l-1.8-1.055a.2.2,0,0,1-.113-.169V56.815a.223.223,0,0,1,.113-.183l6.61-3.811a.2.2,0,0,1,.2,0l6.61,3.811a.225.225,0,0,1,.113.183v7.637a.212.212,0,0,1-.1.183l-6.624,3.811a.2.2,0,0,1-.2,0l-1.7-1.013a.177.177,0,0,0-.169,0,4.383,4.383,0,0,1-1,.45c-.108.038-.273.1.056.281l2.222,1.308a1.39,1.39,0,0,0,1.378,0l6.625-3.812a1.4,1.4,0,0,0,.689-1.209V56.815a1.4,1.4,0,0,0-.689-1.209L438.8,51.78a1.379,1.379,0,0,0-.689-.169Z" transform="translate(-430.111 -51.611)" fill="#83cd29"/>
          <path id="Path_20447" data-name="Path 20447" d="M466.8,79.528c-1.886,0-3.01.8-3.01,2.138,0,1.448,1.115,1.846,2.925,2.025,2.166.212,2.335.53,2.335.956,0,.739-.59,1.055-1.983,1.055-1.751,0-2.136-.437-2.264-1.308a.191.191,0,0,0-.183-.169h-.858a.2.2,0,0,0-.2.2c0,1.115.606,2.433,3.5,2.433,2.1,0,3.305-.823,3.305-2.264s-.977-1.813-3.01-2.081c-2.055-.272-2.25-.405-2.25-.886,0-.4.166-.929,1.688-.929,1.359,0,1.862.293,2.068,1.21a.192.192,0,0,0,.183.155h.858a.208.208,0,0,0,.141-.07.184.184,0,0,0,.056-.141c-.133-1.578-1.185-2.321-3.305-2.321Z" transform="translate(-457.028 -74.071)" fill="#83cd29"/>
        </g>
        <path id="Path_20448" data-name="Path 20448" d="M53.824.383A.421.421,0,0,0,53.4.8V11.564a.285.285,0,0,1-.141.253.293.293,0,0,1-.3,0L51.208,10.8a.843.843,0,0,0-.844,0l-7.018,4.05a.864.864,0,0,0-.422.746v8.1a.842.842,0,0,0,.422.731l7.018,4.051a.841.841,0,0,0,.844,0l7.018-4.051a.842.842,0,0,0,.422-.731V3.5a.857.857,0,0,0-.436-.746L54.035.425a.411.411,0,0,0-.211-.042ZM8.677,10.5a.793.793,0,0,0-.38.1L1.279,14.644a.841.841,0,0,0-.422.731L.871,26.248a.415.415,0,0,0,.211.366.41.41,0,0,0,.422,0l4.163-2.391a.859.859,0,0,0,.436-.731V18.413a.84.84,0,0,1,.422-.731L8.3,16.655a.847.847,0,0,1,.844,0l1.772,1.027a.84.84,0,0,1,.422.731v5.077a.861.861,0,0,0,.436.731l4.163,2.391a.41.41,0,0,0,.422,0,.423.423,0,0,0,.211-.366l.014-10.872a.837.837,0,0,0-.422-.731L9.141,10.593a.788.788,0,0,0-.38-.1Zm63.066.1a.842.842,0,0,0-.422.113L64.3,14.757a.842.842,0,0,0-.422.731v8.1a.847.847,0,0,0,.436.731l6.962,3.966a.844.844,0,0,0,.83.014l4.219-2.349a.426.426,0,0,0,.225-.366.416.416,0,0,0-.211-.366l-7.06-4.051a.454.454,0,0,1-.225-.38V18.259a.434.434,0,0,1,.225-.366l2.194-1.266a.421.421,0,0,1,.422,0l2.194,1.266a.421.421,0,0,1,.211.366v2a.422.422,0,0,0,.633.366l4.205-2.447a.845.845,0,0,0,.422-.731V15.488a.844.844,0,0,0-.422-.731l-6.976-4.051a.837.837,0,0,0-.422-.112ZM50.758,16.641a.236.236,0,0,1,.113.028l2.405,1.392a.218.218,0,0,1,.113.183v2.785a.217.217,0,0,1-.113.183L50.871,22.6a.213.213,0,0,1-.211,0l-2.4-1.392a.218.218,0,0,1-.113-.183V18.244a.218.218,0,0,1,.113-.183l2.4-1.392a.185.185,0,0,1,.1-.028h0Z" transform="translate(0 0)" fill="#404137"/>
        <path id="Path_20449" data-name="Path 20449" d="M116.356,52.4a.841.841,0,0,0-.422.113l-7.018,4.037a.864.864,0,0,0-.422.745v8.1a.842.842,0,0,0,.422.731l7.018,4.05a.84.84,0,0,0,.844,0l7.018-4.05a.842.842,0,0,0,.422-.731V57.3a.863.863,0,0,0-.422-.745l-7.018-4.037A.84.84,0,0,0,116.356,52.4Zm41.969,7.229a.172.172,0,0,0-.084.014l-1.35.788a.164.164,0,0,0-.084.141v1.547a.164.164,0,0,0,.084.141l1.35.773a.147.147,0,0,0,.155,0l1.35-.774a.165.165,0,0,0,.084-.141V60.574a.165.165,0,0,0-.084-.141l-1.35-.788a.117.117,0,0,0-.07-.014Z" transform="translate(-86.596 -41.851)" fill="#83cd29"/>
      </g>
      <g id="Group_318" data-name="Group 318" transform="translate(10 103)">
        <g transform="matrix(1, 0, 0, 1, 437, 2438.95)" filter="url(#Ellipse_40-2)">
          <circle id="Ellipse_40-4" data-name="Ellipse 40" cx="22" cy="22" r="22" transform="translate(482 351.05)" fill="#fff"/>
        </g>
        <path id="graphql_1_" data-name="graphql (1)" d="M18.918,4.087l7.333,4.234A3.18,3.18,0,1,1,29.3,13.6v8.472a3.18,3.18,0,1,1-3.127,5.207l-7.289,4.208a3.178,3.178,0,1,1-6.068.1L5.489,27.354a3.18,3.18,0,1,1-3.052-5.285V13.6a3.181,3.181,0,1,1,3.049-5.28l7.336-4.235a3.178,3.178,0,1,1,6.1,0Zm-.764,1.3L25.5,9.636a3.175,3.175,0,0,0,2.288,3.954v8.482l-.123.033-9.6-16.628q.044-.042.085-.085Zm-4.479.087-9.6,16.628-.125-.033V13.59A3.175,3.175,0,0,0,6.235,9.631l7.349-4.243q.044.046.091.09Zm3.084.753,9.6,16.625a3.191,3.191,0,0,0-.895,1.552H6.279a3.165,3.165,0,0,0-.894-1.548l9.6-16.628a3.211,3.211,0,0,0,1.774,0Zm1.462,24.113,7.3-4.217q-.033-.1-.059-.209H6.275q-.015.062-.033.123L13.58,30.28a3.182,3.182,0,0,1,4.641.065Z" transform="translate(925 2794)" fill="#e535ab" fill-rule="evenodd"/>
      </g>
    </g>
  </g>
</svg>
