<svg xmlns="http://www.w3.org/2000/svg" width="26" height="26" viewBox="0 0 26 26">
  <g id="acceleration" transform="translate(-2 -4)">
    <line id="Line_4" data-name="Line 4" x2="24" transform="translate(3 11.261)" fill="none" stroke="#4a4a4a" stroke-linecap="round" stroke-linejoin="round" stroke-miterlimit="10" stroke-width="2"/>
    <line id="Line_5" data-name="Line 5" transform="translate(7 8)" fill="none" stroke="#ffc632" stroke-linecap="round" stroke-linejoin="round" stroke-miterlimit="10" stroke-width="2"/>
    <line id="Line_6" data-name="Line 6" transform="translate(9.462 8)" fill="none" stroke="#ffc632" stroke-linecap="round" stroke-linejoin="round" stroke-miterlimit="10" stroke-width="2"/>
    <line id="Line_7" data-name="Line 7" transform="translate(12.231 8)" fill="none" stroke="#ffc632" stroke-linecap="round" stroke-linejoin="round" stroke-miterlimit="10" stroke-width="2"/>
    <path id="Path_103" data-name="Path 103" d="M22,25a6.827,6.827,0,0,1,5.7,3A6.829,6.829,0,0,0,29,24a7,7,0,0,0-14,0,6.829,6.829,0,0,0,1.3,4A6.827,6.827,0,0,1,22,25Z" transform="translate(-2 1)" fill="none" stroke="#4a4a4a" stroke-linecap="round" stroke-linejoin="round" stroke-miterlimit="10" stroke-width="2"/>
    <path id="Path_104" data-name="Path 104" d="M27,12.318V5H3V28H14.077" fill="none" stroke="#4a4a4a" stroke-linecap="round" stroke-linejoin="round" stroke-miterlimit="10" stroke-width="2"/>
    <line id="Line_8" data-name="Line 8" y1="4" x2="3" transform="translate(20.348 22)" fill="none" stroke="#4a4a4a" stroke-linecap="round" stroke-linejoin="round" stroke-miterlimit="10" stroke-width="2"/>
    <line id="Line_9" data-name="Line 9" y1="13" transform="translate(27 11.6)" fill="none" stroke="#4a4a4a" stroke-linecap="round" stroke-linejoin="round" stroke-miterlimit="10" stroke-width="2"/>
    <path id="Line_10" data-name="Line 10" d="M0,0H5" transform="translate(6.619 15.435)" fill="none" stroke="#ffc632" stroke-linecap="round" stroke-width="2"/>
    <path id="Line_11" data-name="Line 11" d="M0,0H2" transform="translate(6.667 18.565)" fill="none" stroke="#ffc632" stroke-linecap="round" stroke-width="2"/>
  </g>
</svg>
