<svg xmlns="http://www.w3.org/2000/svg" width="24.001" height="24.009" viewBox="0 0 24.001 24.009">
  <g id="automation" transform="translate(-71.685 -26.001)">
    <g id="Group_23" data-name="Group 23" transform="translate(71.688 26.002)">
      <g id="Group_1" data-name="Group 1">
        <path id="Path_111" data-name="Path 111" d="M84.566,29.367c-.022.009-.044.02-.066.03l-.022.011-.018.008h0l-.02.009h0c-.037.019-.072.037-.107.057h-.009L84.3,29.5l-.021.012-.013.007-.007,0-.014.009h-.006l-.016.011h0l-.018.012h0l-.02.013h0l-.019.013h0l-.054.039-.008,0-.01.008-.01.008-.008.007-.012.008-.007,0-.013.011h0l-.014.012h0L84,29.709h0l-.017.015h0l-.017.013h0l-.014.012h0l-.013.012,0,0-.011.009-.007.007L83.9,29.8l-.008.009-.007.007-.011.009v.007h0l-.013.012-.013.013h0l-.014.015h0l-.015.016h0L83.8,29.9h0l-.011.013h0l-.011.012,0,.007-.008.011-.007.007-.008.009-.007.009-.006.007L83.719,30v0l-.01.013h0l-.011.015h0l-.012.017h0l-.012.017h0l-.012.016h0l-.009.015h0l-.008.013v.007l-.008.011v.008l-.006.009-.006.011v.007l-.008.013v0l-.008.013h0l-.009.016h0l-.01.017h0l-.009.019h0l-.008.016h0l-.007.015v0l-.007.013V30.3l0,.012v.017l0,.012v.007l0,.013v.007l-.006.013v0l-.007.016h0l-.007.019-.008.02h0l-.007.019h0l0,.016h0l0,.016v.131h0v.017h0v.019h0v.019h0V30.7h0v.017h0v.227h0v.02h0v.02h0v.128a.4.4,0,0,0,.015.108h0v.02h0v.017h0c.006.028.013.057.021.086v.021l.008.027,0,.016h0l0,.017h0l.007.019h0l.008.02h0l.007.019h0l.007.017h0l.007.015v.007l.006.013v.007l0,.013v.008l0,.011v.02h0v0h0a1.753,1.753,0,0,0,.136.228l2.815,3.906a3.267,3.267,0,0,1,.641-.68,4.1,4.1,0,0,1,1.647-.779h0l.029-.007.134-.028h.034l.1-.017h.034l.033-.005h0l.035-.005h.907a4.556,4.556,0,0,1,.507.057L87.64,30.08a2.255,2.255,0,0,0-1.368-.838,2.811,2.811,0,0,0-.77-.057H85.39l-.05.007h-.022l-.046,0h-.03l-.031,0H85.1l-.068.013h-.055l-.022,0H84.8l-.021.007h-.021l-.042.015H84.7l-.021.008h-.015l-.021.008h-.006l-.02.007h0l-.035.013h-.014Zm3.343,6.34a3.181,3.181,0,0,1,3.806,0,1.869,1.869,0,0,1,0,3.05,3.182,3.182,0,0,1-3.794.009l-.012-.009a1.869,1.869,0,0,1,0-3.05Zm1.9-.305a2.594,2.594,0,0,0-1.616.535,1.587,1.587,0,0,0,0,2.589l.01.009a2.7,2.7,0,0,0,3.22-.009,1.587,1.587,0,0,0,0-2.589,2.593,2.593,0,0,0-1.611-.537Zm-5.36-5.376a1.888,1.888,0,0,1,2.257,0,1.109,1.109,0,0,1,0,1.81,1.888,1.888,0,0,1-2.257,0,1.109,1.109,0,0,1,0-1.81Zm1.129-.048a1.348,1.348,0,0,0-.841.279.827.827,0,0,0,0,1.348,1.408,1.408,0,0,0,1.683,0,.826.826,0,0,0,0-1.348,1.348,1.348,0,0,0-.84-.28Zm-7.821-3.239a1.58,1.58,0,0,1,1.885,0,.926.926,0,0,1,0,1.511,1.575,1.575,0,0,1-1.885,0,.927.927,0,0,1,0-1.511Zm.943.013a1.05,1.05,0,0,0-.654.218.642.642,0,0,0,0,1.049,1.092,1.092,0,0,0,1.309,0,.642.642,0,0,0,0-1.049,1.051,1.051,0,0,0-.655-.218ZM88.78,47.777V40.168h-.992v7.608h.992Zm2.063-7.608v7.608h.992V40.168Zm-1.656,0v7.608h1.249V40.168Zm-.462-3.807a1.815,1.815,0,0,1,2.173,0,1.066,1.066,0,0,1,0,1.741,1.817,1.817,0,0,1-2.173,0,1.067,1.067,0,0,1,0-1.742Zm1.087-.035a1.284,1.284,0,0,0-.8.264.787.787,0,0,0,0,1.281,1.342,1.342,0,0,0,1.6,0,.787.787,0,0,0,0-1.281,1.288,1.288,0,0,0-.8-.264Zm-4.8-5.85a.942.942,0,0,1,1.131,0,.555.555,0,0,1,0,.907.944.944,0,0,1-1.132,0,.555.555,0,0,1,0-.907Zm.566.138a.447.447,0,0,0-.279.092.274.274,0,0,0,0,.446.467.467,0,0,0,.558,0,.275.275,0,0,0,0-.447.45.45,0,0,0-.277-.091Zm-7.287-3.448a.686.686,0,0,1,.818,0,.4.4,0,0,1,0,.656.686.686,0,0,1-.818,0,.4.4,0,0,1,0-.656Zm.409.191a.2.2,0,0,0-.121.04.127.127,0,0,0-.05.1.123.123,0,0,0,.05.1.2.2,0,0,0,.242,0,.123.123,0,0,0,.05-.1.127.127,0,0,0-.05-.1A.2.2,0,0,0,78.7,27.358Zm1.381,8.483v-.694H75.6v.694ZM79.3,34.426H76.381v.394H79.3Zm-.492-.327V29.592l-1.322-.664-.012,0-.011-.007h0l-.01,0-.012-.007h0l-.01,0-.011-.007h-.008l-.011-.007h-.008l-.011-.007h-.008l-.011-.007h-.007l-.01-.007h-.012l-.01-.007h-.011L77.3,28.85H77.3l-.011-.007-.007,0h0l-.01-.007H77.26l-.01-.007-.008,0h0l-.01-.007-.009,0h0l-.009-.008-.01,0h0l-.01-.007-.01-.007h0l-.01-.008-.01-.007h0l-.009-.007-.009-.008h0l-.008,0-.01-.008h0l-.007,0-.009-.008h0l-.007,0-.009-.008h0l-.006,0-.009-.007h-.006l-.009-.008h0l-.009-.008h0L77,28.6h0l-.008-.008-.007,0h0l-.009-.008-.006-.007h0l-.008-.008-.007-.007h0l-.009-.008-.007-.007h0l-.008-.008-.008-.008L76.9,28.5l-.008-.008h0l-.008-.007-.007-.008V34.1h1.939Zm.513,2.5a.167.167,0,1,1,0,.325h-4.65v.422H81.01v-1.18H74.675V36.6h4.65ZM94.854,48.9a.167.167,0,1,1,0,.327h-16a.167.167,0,1,1,0-.327Zm-9.371.781a.167.167,0,1,1,0,.325H74.409a.167.167,0,1,1,0-.325Zm-12.207,0a.167.167,0,1,1,0,.325H71.891a.167.167,0,1,1,0-.325Zm22.209-.024a.167.167,0,1,1,0,.327H90.237a.167.167,0,1,1,0-.327ZM74.471,37.42a.167.167,0,1,1,0,.327h-.2v.224h.2a.167.167,0,1,1,0,.327h-.2v.226h.2a.167.167,0,1,1,0,.327h-.2v.224h.2a.167.167,0,1,1,0,.327h-.2v.226h.2a.167.167,0,1,1,0,.327h-.2v.224h.2a.167.167,0,1,1,0,.327h-.2v.226h.2a.167.167,0,1,1,0,.325h-.2V42.11H74.02l-1.215-1.9v-2.8l.784-1.24h.682v1.25Zm6.947,3.636h-.2a.167.167,0,1,1,0-.325h.2V40.5h-.2a.167.167,0,1,1,0-.327h.2v-.224h-.2a.167.167,0,1,1,0-.327h.2V39.4h-.2a.167.167,0,1,1,0-.327h.2V38.85h-.2a.167.167,0,1,1,0-.327h.2V38.3h-.2a.167.167,0,1,1,0-.327h.2v-.224h-.2a.167.167,0,1,1,0-.327h.2V36.168H82.1l.783,1.24v2.8l-1.214,1.9h-.25V41.055Zm8.394-6.55h-.554l-.041.007h-.092l-.125.07h0a3.685,3.685,0,0,0-1.589.722,2.482,2.482,0,0,0-1,1.925V47.776h.971V40a.188.188,0,0,1,.2-.163h4.454a.188.188,0,0,1,.2.163v7.772h.971V37.233a2.372,2.372,0,0,0-.649-1.6V26.165a.188.188,0,0,0-.2-.163l-13.74.007h-.081a2.076,2.076,0,0,0-.4.049,1.815,1.815,0,0,0-1.046.621l-.034.045h0a1.136,1.136,0,0,0-.164,1.042,1.357,1.357,0,0,0,.109.242h0l.025.042h0a.7.7,0,0,0,.05.072h0l.033.044h0l.007.007h0l.007.008h0l.011.013h0l0,.007.007.007.007.008.006.007h0l.007.007.006.007h0l.008.007v0h0l.007.008h0l.008.007h0l.017.019.008.007h0l.008.008h0l0,0,.016.013.007.008h0l.008.007.007.007h0l.008.007.007.007h0l.008.007.007,0h0l.008.007.007,0h0l.008.007.025.02.008.007h0l.009.007h.006l.009.007h0l.007,0,.008.007h0l.008,0,.009.007h0l.008.007.009,0h0l.009.007.008,0h0l.01.007h.007l.009,0,.007,0h0l.009,0h.007l.009,0h0l.01,0h0l.009,0h.006l.01,0h.007l.01,0h.008l.01,0h.008l.01,0h0l.01,0,.01,0,1.4.7a.32.32,0,0,1,.037.019L83,31.313V31.28h0v-.026h0v-.046h0V31.16h0l-.006-.068v-.286h0L83,30.742v-.013h0a.486.486,0,0,1,.014-.082v-.015h0l.012-.049v-.049h0l0-.016c.008-.028.016-.056.025-.084l.008-.024V30.4l.006-.016h0l.012-.029.006-.016h0l.01-.042v-.012h0l.007-.016h0l.015-.033.007-.015v-.008l.008-.016v0l.009-.019h0l.011-.02h0l.012-.021h0l.011-.02h0l.01-.017v0l.008-.016,0-.008.007-.012.006-.011.007-.011.008-.012L83.257,30l.009-.015v0l.012-.017h0l.012-.02h0l.014-.02h0l.013-.02h0l.012-.017v0l.011-.015.006-.008.01-.012.007-.009.008-.011.009-.011.02-.015.011-.013,0-.007.013-.016h0l.015-.017h0l.017-.019h0l.016-.02h0l.015-.017h0l.02-.02.012-.013.008-.008.01-.009.01-.011.008-.008.012-.012.006-.007.015-.013h0l.016-.016.066-.057.016-.015.006,0,.015-.011.008-.008.023-.019.01-.008.013-.009.008-.007.016-.012H83.8l.018-.015.047-.033h0l.076-.05.014-.011.011-.007.013-.008.014-.008L84,29.284l.1-.057h0l.085-.044.017-.009.012,0,.029-.015.012,0,.017-.008h.038l.024-.012h.008l.026-.012h.015l.015-.007H84.4l.024-.009h.009l.016-.007h0a2.861,2.861,0,0,1,.341-.109H84.8l.023-.007h.015c-1.7-.852-3.421-1.759-5.141-2.584l12.433-.007v8.932a3.8,3.8,0,0,0-1.913-.733h0l-.083-.008H89.79Zm-11.589,6.98a2.629,2.629,0,0,1,1,.333l.651-.522.51.409-.651.522a1.676,1.676,0,0,1,.416.8h.921v.578h-.921a1.676,1.676,0,0,1-.416.8l.651.522-.51.409-.651-.522a2.631,2.631,0,0,1-1,.333v.737h-.177v1.369a.209.209,0,0,1-.408,0v-1.36H77.5v-.737a2.635,2.635,0,0,1-1-.333l-.651.522-.51-.409.651-.522a1.678,1.678,0,0,1-.416-.8h-.92v-.578h.92a1.677,1.677,0,0,1,.416-.8l-.651-.522.51-.409.651.522a2.629,2.629,0,0,1,1-.333v-.737h.722Zm-.585,1.924a.209.209,0,0,1,.408,0v.83a1.021,1.021,0,0,0,.978-.919,1.191,1.191,0,0,0-2.323,0,1.012,1.012,0,0,0,.938.913Z" transform="translate(-71.688 -26.002)" fill="#4a4a4a" fill-rule="evenodd"/>
        <path id="Path_175" data-name="Path 175" d="M22.921,20.953v-.985H22.1a1.7,1.7,0,0,0-.121-.3l.584-.584-.7-.7-.573.574a1.688,1.688,0,0,0-.343-.145V18h-.983v.818a1.657,1.657,0,0,0-.321.136l-.562-.561-.695.693.561.561a1.708,1.708,0,0,0-.136.322H18v.984h.818a1.67,1.67,0,0,0,.145.343l-.573.573.7.7.585-.584a1.654,1.654,0,0,0,.3.121v.82h.985V22.1a1.652,1.652,0,0,0,.32-.136l.6.6.7-.7-.6-.6a1.73,1.73,0,0,0,.136-.32h.82ZM20.46,21.2a.738.738,0,1,1,.738-.738.738.738,0,0,1-.738.738Z" transform="translate(-14.385 -3.384)" fill="#ffc632"/>
      </g>
    </g>
  </g>
</svg>
