<svg xmlns="http://www.w3.org/2000/svg" width="24" height="24" viewBox="0 0 24 24">
  <g id="data-optimization" transform="translate(-2 -2)">
    <path id="Path_134" data-name="Path 134" d="M24.8,5.2h-.824a3.6,3.6,0,0,0-7.152,0H10.8V2.4a.4.4,0,0,0-.4-.4H4.8a.4.4,0,0,0-.4.4V5.2H3.2A1.2,1.2,0,0,0,2,6.4V20.8A1.2,1.2,0,0,0,3.2,22h8v1.6H9.6a1.2,1.2,0,0,0-1.2,1.2v.8a.4.4,0,0,0,.4.4H19.2a.4.4,0,0,0,.4-.4v-.8a1.2,1.2,0,0,0-1.2-1.2H16.8V22h8A1.2,1.2,0,0,0,26,20.8V6.4a1.2,1.2,0,0,0-1.2-1.2ZM20.4,2.8a2.8,2.8,0,1,1-2.8,2.8A2.8,2.8,0,0,1,20.4,2.8ZM10.8,6h6.024c.016.136.04.268.068.4H10.8ZM5.2,2.8H10V7.6H8.8a.4.4,0,0,0-.4.4v.492L7,7.656A.4.4,0,0,0,6.8,7.6H5.2ZM4.8,8.4H6.688L8.6,9.544a.4.4,0,0,0,.2.056A.379.379,0,0,0,9,9.548.4.4,0,0,0,9.2,9.2V8.4h1.2a.4.4,0,0,0,.4-.4V7.2h6.38a3.592,3.592,0,0,0,6.44,0H24V17.6H4V7.2h.4V8A.4.4,0,0,0,4.8,8.4Zm13.6,16a.4.4,0,0,1,.4.4v.4H9.2v-.4a.4.4,0,0,1,.4-.4ZM12,23.6V22h4v1.6Zm13.2-2.8a.4.4,0,0,1-.4.4H3.2a.4.4,0,0,1-.4-.4V19.6H25.2Zm0-2H2.8V6.4A.4.4,0,0,1,3.2,6H4.4v.4H3.6a.4.4,0,0,0-.4.4V18a.4.4,0,0,0,.4.4H24.4a.4.4,0,0,0,.4-.4V6.8a.4.4,0,0,0-.4-.4h-.492c.028-.132.052-.264.068-.4H24.8a.4.4,0,0,1,.4.4Z" fill="#4a4a4a"/>
    <path id="Path_135" data-name="Path 135" d="M30.4,47.81h.81a.405.405,0,1,0,0-.81H30.4a.405.405,0,0,0,0,.81Z" transform="translate(-16.81 -27.008)" fill="#ffc632"/>
    <path id="Path_136" data-name="Path 136" d="M24.5,23.044h.575a1.585,1.585,0,0,0,.172.413l-.407.407a.81.81,0,1,0,.573.573l.407-.407a1.586,1.586,0,0,0,.413.172v.575a.81.81,0,1,0,.81,0V24.2a1.586,1.586,0,0,0,.413-.172l.407.407a.81.81,0,1,0,.573-.573l-.407-.407a1.585,1.585,0,0,0,.172-.413h.575a.81.81,0,1,0,0-.81H28.2a1.586,1.586,0,0,0-.172-.413l.407-.407a.808.808,0,1,0-.573-.573l-.407.407a1.585,1.585,0,0,0-.413-.172V20.5a.81.81,0,1,0-.81,0v.575a1.585,1.585,0,0,0-.413.172l-.407-.407a.807.807,0,1,0-.78.6.816.816,0,0,0,.207-.03l.407.407a1.586,1.586,0,0,0-.172.413H24.5a.81.81,0,1,0,0,.81Zm2.137-1.215a.81.81,0,1,1-.572.237.81.81,0,0,1,.572-.237Z" transform="translate(-12.639 -10.23)" fill="#ffc632"/>
    <path id="Path_137" data-name="Path 137" d="M24.86,25.719A4.86,4.86,0,1,0,20,20.859a4.86,4.86,0,0,0,4.86,4.86Zm0-8.909a4.05,4.05,0,1,1-4.05,4.05,4.05,4.05,0,0,1,4.05-4.05Z" transform="translate(-10.86 -8.446)" fill="#4a4a4a"/>
    <path id="Path_138" data-name="Path 138" d="M11.4,6.81h.4a.4.4,0,0,0,0-.81h-.4a.4.4,0,1,0,0,.81Z" transform="translate(-5.355 -2.38)" fill="#ffc632"/>
    <path id="Path_139" data-name="Path 139" d="M15.4,6.81h1.62a.4.4,0,1,0,0-.81H15.4a.4.4,0,1,0,0,.81Z" transform="translate(-7.807 -2.38)" fill="#ffc632"/>
    <path id="Path_140" data-name="Path 140" d="M11.4,9.81h.4a.405.405,0,1,0,0-.81h-.4a.405.405,0,0,0,0,.81Z" transform="translate(-5.355 -4.165)" fill="#ffc632"/>
    <path id="Path_141" data-name="Path 141" d="M15.4,9.81h1.62a.405.405,0,1,0,0-.81H15.4a.405.405,0,0,0,0,.81Z" transform="translate(-7.807 -4.165)" fill="#ffc632"/>
    <path id="Path_142" data-name="Path 142" d="M11.81,12h-.4a.405.405,0,0,0,0,.81h.4a.405.405,0,0,0,0-.81Z" transform="translate(-5.355 -5.95)" fill="#ffc632"/>
    <path id="Path_143" data-name="Path 143" d="M15.4,12.81h1.62a.405.405,0,1,0,0-.81H15.4a.405.405,0,0,0,0,.81Z" transform="translate(-7.807 -5.95)" fill="#ffc632"/>
    <path id="Path_144" data-name="Path 144" d="M9.4,31.81h.4a.4.4,0,1,0,0-.81H9.4a.4.4,0,1,0,0,.81Z" transform="translate(-4.165 -17.405)" fill="#4a4a4a"/>
    <path id="Path_145" data-name="Path 145" d="M15.025,31H13.4a.4.4,0,1,0,0,.81h1.62a.4.4,0,1,0,0-.81Z" transform="translate(-6.606 -17.405)" fill="#4a4a4a"/>
    <path id="Path_146" data-name="Path 146" d="M9.4,34.81h.4a.405.405,0,1,0,0-.81H9.4a.405.405,0,0,0,0,.81Z" transform="translate(-4.165 -19.205)" fill="#4a4a4a"/>
    <path id="Path_147" data-name="Path 147" d="M15.025,34H13.4a.405.405,0,0,0,0,.81h1.62a.405.405,0,1,0,0-.81Z" transform="translate(-6.606 -19.205)" fill="#4a4a4a"/>
    <path id="Path_148" data-name="Path 148" d="M45.4,30.81h.4a.4.4,0,0,0,0-.81h-.4a.4.4,0,1,0,0,.81Z" transform="translate(-25.811 -16.805)" fill="#4a4a4a"/>
    <path id="Path_149" data-name="Path 149" d="M51.025,30H49.4a.4.4,0,1,0,0,.81h1.62a.4.4,0,0,0,0-.81Z" transform="translate(-28.264 -16.805)" fill="#4a4a4a"/>
    <path id="Path_150" data-name="Path 150" d="M45.4,33.81h.4a.405.405,0,1,0,0-.81h-.4a.405.405,0,0,0,0,.81Z" transform="translate(-25.811 -18.605)" fill="#4a4a4a"/>
    <path id="Path_151" data-name="Path 151" d="M51.025,33H49.4a.405.405,0,0,0,0,.81h1.62a.405.405,0,1,0,0-.81Z" transform="translate(-28.264 -18.605)" fill="#4a4a4a"/>
    <path id="Path_152" data-name="Path 152" d="M9.4,37.81h.4a.405.405,0,1,0,0-.81H9.4a.405.405,0,0,0,0,.81Z" transform="translate(-4.165 -21.006)" fill="#4a4a4a"/>
    <path id="Path_153" data-name="Path 153" d="M15.025,37H13.4a.405.405,0,0,0,0,.81h1.62a.405.405,0,1,0,0-.81Z" transform="translate(-6.606 -21.006)" fill="#4a4a4a"/>
    <path id="Path_154" data-name="Path 154" d="M44.308,10.858a.4.4,0,0,0,.286-.119l2.291-2.291a.405.405,0,1,0-.573-.573l-2,2-.859-.859a.405.405,0,0,0-.573.573l1.146,1.145A.4.4,0,0,0,44.308,10.858Z" transform="translate(-24.55 -3.426)" fill="#ffc632"/>
    <path id="Path_155" data-name="Path 155" d="M47.455,37H43.4a.405.405,0,0,0,0,.81h4.05a.405.405,0,1,0,0-.81Z" transform="translate(-24.694 -21.006)" fill="#4a4a4a"/>
    <path id="Path_156" data-name="Path 156" d="M9.4,26.43h3.24a.4.4,0,0,0,.4-.4V24.4a.4.4,0,0,0-.4-.4H9.4a.4.4,0,0,0-.4.4v1.62a.4.4,0,0,0,.4.41Zm.4-1.62h2.43v.81H9.81Z" transform="translate(-4.165 -13.212)" fill="#4a4a4a"/>
    <path id="Path_157" data-name="Path 157" d="M47.4,24.43h2.43a.4.4,0,0,0,.4-.4V22.4a.4.4,0,0,0-.4-.4H47.4a.4.4,0,0,0-.4.4v1.62a.4.4,0,0,0,.4.41Zm.4-1.62h1.62v.81H47.81Z" transform="translate(-27.074 -12.011)" fill="#4a4a4a"/>
  </g>
</svg>
