<svg xmlns="http://www.w3.org/2000/svg" width="24" height="24" viewBox="0 0 24 24">
  <g id="effectiveness" transform="translate(0.394 0.394)">
    <g id="background">
      <rect id="Rectangle_37" data-name="Rectangle 37" width="24" height="24" transform="translate(-0.394 -0.394)" fill="none"/>
    </g>
    <g id="browser_x5F_settings">
      <path id="Path_174" data-name="Path 174" d="M20.31,7.253H13.056V8.7H20.31Zm-10.155,0H2.9v7.253h7.253ZM23.211,0H0V20.31H11.256a6.518,6.518,0,0,0,11.9-4.4l.05.05ZM7.253,1.451h8.7V2.9h-8.7Zm-2.9,0H5.8V2.9H4.352Zm-2.9,0H2.9V2.9H1.451Zm15.23,20.225a4.993,4.993,0,1,1,4.993-4.993,4.993,4.993,0,0,1-4.993,4.993Zm5.077-9.092a6.539,6.539,0,0,0-1.45-1.327v-1.1H13.056v1.1a6.5,6.5,0,0,0-2.522,7.6H1.451V4.352H21.76Zm0-9.682h-2.9V1.451h2.9Z" fill="#4a4a4a"/>
      <path id="Path_175" data-name="Path 175" d="M25.253,22.352V20.9H24.047a2.5,2.5,0,0,0-.178-.44l.861-.861L23.7,18.574l-.845.846a2.488,2.488,0,0,0-.506-.213V18H20.9v1.206a2.442,2.442,0,0,0-.473.2l-.828-.827L18.575,19.6l.827.827a2.517,2.517,0,0,0-.2.474H18v1.451h1.206a2.462,2.462,0,0,0,.214.506l-.845.844L19.6,24.729l.862-.861a2.438,2.438,0,0,0,.439.178v1.208h1.452V24.046a2.435,2.435,0,0,0,.472-.2l.879.879L24.729,23.7l-.879-.878a2.55,2.55,0,0,0,.2-.472h1.208Zm-3.627.362a1.088,1.088,0,1,1,1.088-1.088,1.088,1.088,0,0,1-1.088,1.088Z" transform="translate(-4.944 -4.944)" fill="#ffc632"/>
    </g>
  </g>
</svg>
