<svg xmlns="http://www.w3.org/2000/svg" width="24" height="24" viewBox="0 0 24 24">
  <g id="live-data" transform="translate(0)">
    <path id="Path_112" data-name="Path 112" d="M22.652,7.159H1.348A1.377,1.377,0,0,1,0,5.762V1.4A1.377,1.377,0,0,1,1.348,0h21.3A1.377,1.377,0,0,1,24,1.4V5.8a1.369,1.369,0,0,1-1.348,1.359ZM1.348.524A.85.85,0,0,0,.506,1.4V5.8a.842.842,0,0,0,.843.838h21.3a.85.85,0,0,0,.843-.873V1.4a.85.85,0,0,0-.843-.873Z" fill="#4a4a4a"/>
    <path id="Path_113" data-name="Path 113" d="M8.038,9.576a.838.838,0,1,1,.838-.838.85.85,0,0,1-.838.838Zm0-1.187a.314.314,0,1,0,.314.314A.338.338,0,0,0,8.038,8.389Z" transform="translate(-4.686 -5.141)" fill="#ffc632"/>
    <path id="Path_114" data-name="Path 114" d="M61.4,8.084H60.279c-.14,0-.244-.1-.279-.279V3.579c0-.14.1-.244.279-.279H61.4a.249.249,0,0,1,.244.279V7.84a.239.239,0,0,1-.244.244Zm-.873-.524h.594V3.86h-.594Z" transform="translate(-39.911 -2.148)" fill="#ffc632"/>
    <path id="Path_115" data-name="Path 115" d="M55.5,8.084H54.379c-.14,0-.244-.1-.279-.279V3.579c0-.14.1-.244.279-.279H55.5c.14,0,.244.1.279.279V7.84A.27.27,0,0,1,55.5,8.084Zm-.873-.524h.594V3.86h-.594Z" transform="translate(-35.912 -2.148)" fill="#ffc632"/>
    <path id="Path_116" data-name="Path 116" d="M49.632,8.084H48.479c-.14,0-.244-.1-.279-.279V3.579c0-.14.1-.244.279-.279H49.6c.14,0,.244.1.279.279V7.84a.239.239,0,0,1-.247.244Zm-.873-.524h.594V3.86h-.594Z" transform="translate(-31.995 -2.148)" fill="#ffc632"/>
    <path id="Path_117" data-name="Path 117" d="M22.652,29.059H1.348A1.377,1.377,0,0,1,0,27.662V23.3a1.377,1.377,0,0,1,1.348-1.4h21.3A1.377,1.377,0,0,1,24,23.3v4.4a1.347,1.347,0,0,1-1.348,1.359Zm-21.3-6.635a.85.85,0,0,0-.843.873v4.4a.85.85,0,0,0,.843.873h21.3A.85.85,0,0,0,23.5,27.7V23.3a.85.85,0,0,0-.843-.873Z" transform="translate(0 -13.499)" fill="#4a4a4a"/>
    <path id="Path_118" data-name="Path 118" d="M8.038,31.476a.838.838,0,1,1,.838-.838.85.85,0,0,1-.838.838Zm0-1.152a.314.314,0,1,0,.314.314h0a.313.313,0,0,0-.314-.314Z" transform="translate(-4.686 -18.638)" fill="#4a4a4a"/>
    <path id="Path_119" data-name="Path 119" d="M61.4,30.084H60.279c-.14,0-.244-.1-.279-.279V25.579c0-.14.1-.244.279-.279H61.4a.249.249,0,0,1,.244.279V29.84A.262.262,0,0,1,61.4,30.084Zm-.873-.524h.594V25.824h-.594Z" transform="translate(-39.911 -15.711)" fill="#4a4a4a"/>
    <path id="Path_120" data-name="Path 120" d="M55.5,30.084H54.379c-.14,0-.244-.1-.279-.279V25.579c0-.14.1-.244.279-.279H55.5c.14,0,.244.1.279.279V29.84a.3.3,0,0,1-.279.244Zm-.873-.524h.594V25.824h-.594Z" transform="translate(-35.912 -15.711)" fill="#4a4a4a"/>
    <path id="Path_121" data-name="Path 121" d="M49.632,30.084H48.479c-.14,0-.244-.1-.279-.279V25.579c0-.14.1-.244.279-.279H49.6c.14,0,.244.1.279.279V29.84a.262.262,0,0,1-.247.244Zm-.873-.524h.594V25.824h-.594Z" transform="translate(-31.995 -15.711)" fill="#4a4a4a"/>
    <path id="Path_122" data-name="Path 122" d="M22.652,50.994H1.348A1.377,1.377,0,0,1,0,49.6V45.2a1.377,1.377,0,0,1,1.348-1.4h21.3A1.377,1.377,0,0,1,24,45.2v4.4a1.377,1.377,0,0,1-1.348,1.394Zm-21.3-6.635a.85.85,0,0,0-.843.873v4.4a.85.85,0,0,0,.843.873h21.3a.85.85,0,0,0,.843-.873V45.2a.85.85,0,0,0-.843-.873Z" transform="translate(0 -26.994)" fill="#4a4a4a"/>
    <path id="Path_123" data-name="Path 123" d="M8.038,53.376a.838.838,0,1,1,.838-.838h0a.85.85,0,0,1-.838.838Zm0-1.152a.313.313,0,1,0,.222.092.314.314,0,0,0-.222-.092Z" transform="translate(-4.686 -32.135)" fill="#ffc632"/>
    <path id="Path_124" data-name="Path 124" d="M61.4,51.984H60.279c-.14,0-.244-.1-.279-.279V47.479c0-.14.1-.244.279-.279H61.4a.249.249,0,0,1,.244.279V51.74a.239.239,0,0,1-.244.244Zm-.873-.524h.594V47.724h-.594Z" transform="translate(-39.911 -29.207)" fill="#ffc632"/>
    <path id="Path_125" data-name="Path 125" d="M55.5,51.984H54.379c-.14,0-.244-.1-.279-.279V47.479c0-.14.1-.244.279-.279H55.5c.14,0,.244.1.279.279V51.74a.27.27,0,0,1-.279.244Zm-.873-.524h.594V47.724h-.594Z" transform="translate(-35.912 -29.207)" fill="#ffc632"/>
    <path id="Path_126" data-name="Path 126" d="M49.632,51.984H48.479c-.14,0-.244-.1-.279-.279V47.479c0-.14.1-.244.279-.279H49.6c.14,0,.244.1.279.279V51.74a.239.239,0,0,1-.247.244Zm-.873-.524h.594V47.724h-.594Z" transform="translate(-31.995 -29.207)" fill="#ffc632"/>
  </g>
</svg>
