<svg xmlns="http://www.w3.org/2000/svg" width="24" height="24" viewBox="0 0 24 24">
  <g id="performance" transform="translate(-4.292 -9.738)">
    <g id="window" transform="translate(4.292 9.738)">
      <path id="window1" d="M4.292,31.232V12.244c0-1.384.8-2.506,1.785-2.506h20.43c.983,0,1.785,1.12,1.785,2.506V31.232c0,1.383-.8,2.506-1.785,2.506H6.077C5.092,33.738,4.292,32.615,4.292,31.232Zm22.871,0V29.226H5.421v2.007c0,.507.294.919.656.919h20.43C26.867,32.151,27.163,31.739,27.163,31.232ZM6.393,28.345V15.254c0-.242.14-.441.314-.441H25.876c.172,0,.313.2.313.441V28.345h.974v-16.1c0-.506-.293-.92-.656-.92H6.077c-.361,0-.656.412-.656.92v16.1Zm19.169-.088V15.694H7.021V28.257Z" transform="translate(-4.292 -9.738)" fill="#4a4a4a" fill-rule="evenodd"/>
      <path id="window-actions" d="M7.8,13.178a.521.521,0,1,1,.521.52.521.521,0,0,1-.521-.52Zm1.474,0a.514.514,0,1,1,.15.369.52.52,0,0,1-.15-.369Zm1.472,0a.514.514,0,1,1,.15.369.52.52,0,0,1-.15-.369Z" transform="translate(-5.811 -11.003)" fill="#ffc632" fill-rule="evenodd"/>
    </g>
    <g id="gauge" transform="translate(9.679 18.729)">
      <g id="inner-gauge" transform="translate(2.545 2.369)">
        <path id="pointer" d="M24.246,28.125v-2.03a.3.3,0,1,1,.6,0v2.03a.3.3,0,0,1-.6,0Z" transform="translate(-20.396 -23.939)" fill="#ffc632" fill-rule="evenodd"/>
        <path id="center" d="M24.127,28.47a.855.855,0,1,0,.854.855.855.855,0,0,0-.854-.855Z" transform="translate(-19.974 -25.099)" fill="#ffc632" fill-rule="evenodd"/>
        <path id="dots" d="M24.5,27.009l-.033-.6,1.253-.067.032.6Zm-5.8,0-1.253-.059.028-.6,1.253.059Zm5.557-1.5-.313-.515,1.073-.652.312.515Zm-5.32,0-1.071-.656.315-.514,1.07.655Zm4.349-1.174-.516-.312.653-1.073.514.313Zm-3.373,0-.652-1.072.515-.313.652,1.073Zm1.42-.523-.067-1.253.6-.033.067,1.253Z" transform="translate(-17.45 -22.52)" fill="#ffc632" fill-rule="evenodd"/>
      </g>
      <path id="outter" d="M19.658,18.339a6.7,6.7,0,0,1,6.7,6.7h-.6a6.1,6.1,0,0,0-12.194,0h-.6a6.7,6.7,0,0,1,6.694-6.7Zm0,1.2a5.5,5.5,0,0,1,5.5,5.5h-.6a4.893,4.893,0,1,0-9.786,0h-.6a5.5,5.5,0,0,1,5.491-5.491Z" transform="translate(-12.958 -18.339)" fill="#ffc632" fill-rule="evenodd"/>
    </g>
    <path id="grid" d="M10.344,25.064v-.657h.694v.657Zm16.607,0v-.657h.7v.657ZM10.344,24.015V23.36h.693v.655Zm16.608,0V23.36h.694v.655ZM10.344,22.966v-.655h.693v.655Zm16.608,0v-.655h.694v.655ZM10.344,21.918v-.657h.693v.657Zm16.608,0v-.657h.694v.657ZM10.343,20.87v-.657h.694v.657Zm1.189,0v-.657h.694v.657Zm14.233,0v-.657h.693v.657Zm1.187,0v-.657h.7v.657Zm-16.608-1.1v-.66h.694v.658Zm1.189,0v-.66h.694v.658Zm1.188,0v-.66h.694v.658Zm11.854,0v-.66h.694v.658Zm1.189,0v-.66h.693v.658Zm1.187,0v-.66h.7v.658ZM10.344,18.718v-.656h.694v.656Zm1.189,0v-.656h.694v.656Zm1.188,0v-.656h.694v.656Zm1.187,0v-.656H14.6v.656Zm9.48,0v-.656h.695v.656Zm1.187,0v-.656h.694v.656Zm1.189,0v-.656h.693v.656Zm1.187,0v-.656h.7v.656Z" transform="translate(-2.623 0.188)" fill="#4a4a4a" fill-rule="evenodd"/>
  </g>
</svg>
