<svg xmlns="http://www.w3.org/2000/svg" xmlns:xlink="http://www.w3.org/1999/xlink" width="666.665" height="496.811" viewBox="0 0 666.665 496.811">
  <defs>
    <clipPath id="clip-path">
      <path id="path216" d="M472.511-309.4a79.891,79.891,0,0,0-79.882-79.22,79.645,79.645,0,0,0-29.907,5.808,96.543,96.543,0,0,0-86.781-54.209A96.567,96.567,0,0,0,181.7-361.451a83.089,83.089,0,0,0-77.689,82.905,83.1,83.1,0,0,0,83.1,83.1H451.535a58.906,58.906,0,0,0,58.907-58.907A58.919,58.919,0,0,0,472.511-309.4"/>
    </clipPath>
  </defs>
  <g id="storage-img" transform="translate(0 496.811)">
    <g id="g12">
      <path id="path14" d="M666.665-59.884H0v-.333H666.665v.333" fill="#e7e8e5"/>
      <path id="path16" d="M526.221-38.756h73.645v.333H526.221v-.333" fill="#e7e8e5"/>
      <path id="path18" d="M429.075-45.749h11.591v.333H429.075v-.333" fill="#e7e8e5"/>
      <path id="path20" d="M496.631-51.137h25.591v.333H496.631v-.333" fill="#e7e8e5"/>
      <path id="path22" d="M69.945-48.9h57.591v.333H69.945V-48.9" fill="#e7e8e5"/>
      <path id="path24" d="M348.073-39.953H287.11v-.333h60.963v.333" fill="#e7e8e5"/>
      <path id="path26" d="M312.186-45.583h-124.9v-.333h124.9v.333" fill="#e7e8e5"/>
      <path id="path28" d="M323.294-489.2a7.285,7.285,0,0,0-7.276-7.276H58.553a7.285,7.285,0,0,0-7.278,7.276v361.909a7.285,7.285,0,0,0,7.278,7.277H316.018a7.285,7.285,0,0,0,7.276-7.277V-489.2m.333,361.908a7.619,7.619,0,0,1-7.609,7.61H58.553a7.619,7.619,0,0,1-7.611-7.61V-489.2a7.619,7.619,0,0,1,7.611-7.609H316.018a7.619,7.619,0,0,1,7.609,7.609v361.909" fill="#e7e8e5"/>
      <path id="path30" d="M346.948-496.477a7.284,7.284,0,0,0-7.276,7.276v361.909a7.285,7.285,0,0,0,7.276,7.277H604.413a7.286,7.286,0,0,0,7.277-7.277V-489.2a7.285,7.285,0,0,0-7.277-7.276H346.948M604.413-119.683H346.948a7.618,7.618,0,0,1-7.609-7.61V-489.2a7.619,7.619,0,0,1,7.609-7.609H604.413a7.62,7.62,0,0,1,7.611,7.609v361.909a7.619,7.619,0,0,1-7.611,7.61" fill="#e7e8e5"/>
      <path id="path32" d="M257.535-373.33a37.9,37.9,0,0,0-37.892-37.579,37.791,37.791,0,0,0-14.187,2.756,45.794,45.794,0,0,0-41.164-25.715,45.807,45.807,0,0,0-44.7,35.847,39.414,39.414,0,0,0-36.851,39.327,39.417,39.417,0,0,0,39.417,39.417H247.585a27.942,27.942,0,0,0,27.943-27.943,27.946,27.946,0,0,0-17.992-26.111" fill="#dadbd8"/>
      <path id="path34" d="M578.72-191.4a37.9,37.9,0,0,0-37.892-37.577,37.79,37.79,0,0,0-14.187,2.755,45.8,45.8,0,0,0-41.164-25.713,45.805,45.805,0,0,0-44.7,35.847,39.412,39.412,0,0,0-36.851,39.325,39.418,39.418,0,0,0,39.417,39.417H568.769a27.943,27.943,0,0,0,27.943-27.943A27.947,27.947,0,0,0,578.72-191.4" fill="#f3f2f1"/>
      <path id="path36" d="M458.612-314.269a19.654,19.654,0,0,0-19.653-19.491,19.588,19.588,0,0,0-7.357,1.429,23.752,23.752,0,0,0-21.351-13.337,23.758,23.758,0,0,0-23.185,18.593,20.441,20.441,0,0,0-19.115,20.4A20.446,20.446,0,0,0,388.4-286.233h65.056a14.494,14.494,0,0,0,14.493-14.493,14.5,14.5,0,0,0-9.333-13.543" fill="#dadbd8"/>
      <path id="path38" d="M550.353-431.646a25.967,25.967,0,0,0-25.965-25.748,25.892,25.892,0,0,0-9.72,1.887,31.379,31.379,0,0,0-28.207-17.62,31.386,31.386,0,0,0-30.629,24.564,27.006,27.006,0,0,0-25.252,26.947,27.009,27.009,0,0,0,27.009,27.009h85.945a19.146,19.146,0,0,0,19.147-19.147,19.15,19.15,0,0,0-12.328-17.892" fill="#e7e8e5"/>
      <path id="path40" d="M274.782-203.12a25.966,25.966,0,0,0-25.964-25.749,25.894,25.894,0,0,0-9.721,1.888A31.379,31.379,0,0,0,210.89-244.6a31.387,31.387,0,0,0-30.629,24.564,27.006,27.006,0,0,0-25.252,26.947,27.011,27.011,0,0,0,27.011,27.009h85.945a19.147,19.147,0,0,0,19.145-19.147,19.15,19.15,0,0,0-12.328-17.892" fill="#f3f2f1"/>
      <path id="path42" d="M174.666-336.668a.682.682,0,0,1-.468-.2l-.145-.213-.053-.253.053-.267.145-.213a.7.7,0,0,1,.72-.147l.215.147a.655.655,0,0,1,.2.48l-.053.253-.147.213a.679.679,0,0,1-.467.2" fill="#dadbd8"/>
      <path id="path44" d="M174-329.988a.668.668,0,0,1,.667-.667.661.661,0,0,1,.667.667.669.669,0,0,1-.667.667.677.677,0,0,1-.667-.667m0,7.347a.668.668,0,0,1,.667-.667.661.661,0,0,1,.667.667.669.669,0,0,1-.667.667.677.677,0,0,1-.667-.667m0,7.347a.668.668,0,0,1,.667-.667.661.661,0,0,1,.667.667.669.669,0,0,1-.667.667A.677.677,0,0,1,174-315.3m0,7.347a.668.668,0,0,1,.667-.667.661.661,0,0,1,.667.667.661.661,0,0,1-.667.667.668.668,0,0,1-.667-.667" fill="#dadbd8"/>
      <path id="path46" d="M174.666-299.935l-.253-.053-.215-.147-.145-.213L174-300.6l.053-.253.145-.213.215-.147a.663.663,0,0,1,.505,0l.215.147.147.213.053.253a.625.625,0,0,1-.2.467l-.215.147-.252.053" fill="#dadbd8"/>
      <path id="path48" d="M182.145-300.6a.678.678,0,0,1,.667-.667.668.668,0,0,1,.667.667.659.659,0,0,1-.667.667.669.669,0,0,1-.667-.667m8.148,0a.677.677,0,0,1,.667-.667.669.669,0,0,1,.667.667.66.66,0,0,1-.667.667.669.669,0,0,1-.667-.667m8.147,0a.677.677,0,0,1,.667-.667.67.67,0,0,1,.667.667.661.661,0,0,1-.667.667.669.669,0,0,1-.667-.667m8.16,0a.669.669,0,0,1,.667-.667.665.665,0,0,1,.652.667.656.656,0,0,1-.652.667.66.66,0,0,1-.667-.667m8.133,0a.677.677,0,0,1,.667-.667.68.68,0,0,1,.68.667.672.672,0,0,1-.68.667.668.668,0,0,1-.667-.667m8.16,0a.669.669,0,0,1,.667-.667.678.678,0,0,1,.667.667.669.669,0,0,1-.667.667.66.66,0,0,1-.667-.667m8.145,0a.669.669,0,0,1,.667-.667.677.677,0,0,1,.667.667.668.668,0,0,1-.667.667.661.661,0,0,1-.667-.667m8.148,0a.668.668,0,0,1,.667-.667.677.677,0,0,1,.667.667.669.669,0,0,1-.667.667.659.659,0,0,1-.667-.667m8.147,0a.669.669,0,0,1,.667-.667.67.67,0,0,1,.667.667.661.661,0,0,1-.667.667.66.66,0,0,1-.667-.667m8.145,0a.669.669,0,0,1,.667-.667.668.668,0,0,1,.667.667.659.659,0,0,1-.667.667.661.661,0,0,1-.667-.667m8.148,0a.677.677,0,0,1,.667-.667.669.669,0,0,1,.667.667.66.66,0,0,1-.667.667.669.669,0,0,1-.667-.667m8.147,0a.677.677,0,0,1,.667-.667.67.67,0,0,1,.667.667.661.661,0,0,1-.667.667.669.669,0,0,1-.667-.667m8.16,0a.669.669,0,0,1,.667-.667.677.677,0,0,1,.667.667.669.669,0,0,1-.667.667.66.66,0,0,1-.667-.667m8.147,0a.668.668,0,0,1,.667-.667.666.666,0,0,1,.653.667.657.657,0,0,1-.653.667.659.659,0,0,1-.667-.667m8.147,0a.666.666,0,0,1,.653-.667.681.681,0,0,1,.68.667.672.672,0,0,1-.68.667.657.657,0,0,1-.653-.667" fill="#dadbd8"/>
      <path id="path50" d="M305.038-299.935l-.252-.053-.227-.147-.135-.213-.053-.253.053-.253.135-.213.227-.147a.667.667,0,0,1,.507,0l.213.147.145.213.053.253a.678.678,0,0,1-.2.467l-.213.147-.255.053" fill="#dadbd8"/>
      <path id="path52" d="M304.371-372.068a.661.661,0,0,1,.667-.667.668.668,0,0,1,.667.667.667.667,0,0,1-.667.667.66.66,0,0,1-.667-.667m0,7.947a.661.661,0,0,1,.667-.667.668.668,0,0,1,.667.667.677.677,0,0,1-.667.667.669.669,0,0,1-.667-.667m0,7.933a.669.669,0,0,1,.667-.667.677.677,0,0,1,.667.667.668.668,0,0,1-.667.667.661.661,0,0,1-.667-.667m0,7.947a.661.661,0,0,1,.667-.667.668.668,0,0,1,.667.667.677.677,0,0,1-.667.667.669.669,0,0,1-.667-.667m0,7.933a.669.669,0,0,1,.667-.667.677.677,0,0,1,.667.667.668.668,0,0,1-.667.667.661.661,0,0,1-.667-.667m0,7.947a.661.661,0,0,1,.667-.667.668.668,0,0,1,.667.667.668.668,0,0,1-.667.667.661.661,0,0,1-.667-.667m0,7.933a.669.669,0,0,1,.667-.667.677.677,0,0,1,.667.667.668.668,0,0,1-.667.667.661.661,0,0,1-.667-.667m0,7.947a.661.661,0,0,1,.667-.667.668.668,0,0,1,.667.667.668.668,0,0,1-.667.667.661.661,0,0,1-.667-.667m0,7.947a.661.661,0,0,1,.667-.667.668.668,0,0,1,.667.667.677.677,0,0,1-.667.667.669.669,0,0,1-.667-.667" fill="#dadbd8"/>
      <path id="path54" d="M305.038-379.335l-.252-.053-.227-.147-.135-.213-.053-.253.053-.267.135-.213.227-.147a.679.679,0,0,1,.507,0l.213.147a.739.739,0,0,1,.2.48.675.675,0,0,1-.2.467.68.68,0,0,1-.468.2" fill="#dadbd8"/>
      <path id="path56" d="M312.358-380a.671.671,0,0,1,.668-.679.678.678,0,0,1,.665.679.676.676,0,0,1-.665.667.669.669,0,0,1-.668-.667m7.975,0a.679.679,0,0,1,.667-.679.671.671,0,0,1,.667.679.669.669,0,0,1-.667.667.677.677,0,0,1-.667-.667m7.985,0a.671.671,0,0,1,.667-.679.67.67,0,0,1,.667.679.668.668,0,0,1-.667.667.669.669,0,0,1-.667-.667m7.987,0a.672.672,0,0,1,.668-.679.678.678,0,0,1,.665.679.676.676,0,0,1-.665.667A.67.67,0,0,1,336.3-380m7.988,0a.67.67,0,0,1,.667-.679.669.669,0,0,1,.653.679.667.667,0,0,1-.653.667.668.668,0,0,1-.667-.667m7.973,0a.679.679,0,0,1,.667-.679.67.67,0,0,1,.667.679.669.669,0,0,1-.667.667.677.677,0,0,1-.667-.667m7.985,0a.671.671,0,0,1,.667-.679.678.678,0,0,1,.667.679.677.677,0,0,1-.667.667.669.669,0,0,1-.667-.667m7.988,0a.67.67,0,0,1,.667-.679.679.679,0,0,1,.667.679.677.677,0,0,1-.667.667.668.668,0,0,1-.667-.667m7.973,0a.679.679,0,0,1,.667-.679.683.683,0,0,1,.68.679.681.681,0,0,1-.68.667.677.677,0,0,1-.667-.667m7.985,0a.68.68,0,0,1,.667-.679.67.67,0,0,1,.667.679.668.668,0,0,1-.667.667A.678.678,0,0,1,384.2-380m7.988,0a.67.67,0,0,1,.667-.679.67.67,0,0,1,.667.679.669.669,0,0,1-.667.667.668.668,0,0,1-.667-.667m7.987,0a.67.67,0,0,1,.667-.679.68.68,0,0,1,.667.679.678.678,0,0,1-.667.667.669.669,0,0,1-.667-.667m7.972,0a.683.683,0,0,1,.681-.679.667.667,0,0,1,.652.679.665.665,0,0,1-.652.667.681.681,0,0,1-.681-.667m7.988,0a.679.679,0,0,1,.667-.679.67.67,0,0,1,.667.679.669.669,0,0,1-.667.667.677.677,0,0,1-.667-.667m7.987,0a.67.67,0,0,1,.667-.679.68.68,0,0,1,.667.679.678.678,0,0,1-.667.667.669.669,0,0,1-.667-.667m7.987,0a.67.67,0,0,1,.667-.679.679.679,0,0,1,.667.679.677.677,0,0,1-.667.667.669.669,0,0,1-.667-.667m7.973,0a.679.679,0,0,1,.667-.679.67.67,0,0,1,.667.679.669.669,0,0,1-.667.667.677.677,0,0,1-.667-.667m7.987,0a.67.67,0,0,1,.667-.679.67.67,0,0,1,.667.679.669.669,0,0,1-.667.667.669.669,0,0,1-.667-.667m7.987,0a.67.67,0,0,1,.667-.679.679.679,0,0,1,.667.679.677.677,0,0,1-.667.667.669.669,0,0,1-.667-.667m7.985,0a.671.671,0,0,1,.667-.679.668.668,0,0,1,.655.679.666.666,0,0,1-.655.667.669.669,0,0,1-.667-.667m7.975,0a.678.678,0,0,1,.667-.679.67.67,0,0,1,.667.679.669.669,0,0,1-.667.667.677.677,0,0,1-.667-.667M480-380a.67.67,0,0,1,.667-.679.671.671,0,0,1,.667.679.669.669,0,0,1-.667.667A.669.669,0,0,1,480-380m7.985,0a.671.671,0,0,1,.667-.679.678.678,0,0,1,.667.679.677.677,0,0,1-.667.667.669.669,0,0,1-.667-.667" fill="#dadbd8"/>
      <path id="path58" d="M496.637-379.335a.686.686,0,0,1-.479-.2.682.682,0,0,1-.187-.467.72.72,0,0,1,.187-.48l.212-.147a.7.7,0,0,1,.735.147l.145.227.041.253a.664.664,0,0,1-.187.467.685.685,0,0,1-.468.2" fill="#dadbd8"/>
      <path id="path60" d="M495.959-426.175a.677.677,0,0,1,.667-.667.679.679,0,0,1,.679.667.67.67,0,0,1-.679.667A.669.669,0,0,1,495.959-426.175Zm0,7.693a.677.677,0,0,1,.667-.667.679.679,0,0,1,.679.667.67.67,0,0,1-.679.667A.669.669,0,0,1,495.959-418.482Zm0,7.693a.677.677,0,0,1,.667-.667.679.679,0,0,1,.679.667.67.67,0,0,1-.679.667A.669.669,0,0,1,495.959-410.788Zm0,7.695a.677.677,0,0,1,.667-.667.678.678,0,0,1,.679.667.671.671,0,0,1-.679.667A.669.669,0,0,1,495.959-403.094Zm0,7.692a.678.678,0,0,1,.667-.667.68.68,0,0,1,.679.667.681.681,0,0,1-.679.68A.679.679,0,0,1,495.959-395.4Zm0,7.693a.665.665,0,0,1,.667-.652.667.667,0,0,1,.679.652.67.67,0,0,1-.679.667.669.669,0,0,1-.667-.667" fill="#dadbd8"/>
      <path id="path62" d="M496.637-433.2a.654.654,0,0,1-.479-.2.66.66,0,0,1-.188-.467l.041-.253.147-.213a.685.685,0,0,1,.947,0,.666.666,0,0,1,.187.467l-.041.253-.145.213-.213.147-.255.053" fill="#dadbd8"/>
      <path id="path64" d="M221.066-182.309a.678.678,0,0,1-.481-.187l-.145-.227-.053-.253a.684.684,0,0,1,.2-.467.7.7,0,0,1,.733-.147l.213.147a.668.668,0,0,1,.188.467l-.04.253-.148.227-.213.133-.252.053" fill="#dadbd8"/>
      <path id="path66" d="M220.4-174.789a.659.659,0,0,1,.667-.667.658.658,0,0,1,.653.667.667.667,0,0,1-.653.667.668.668,0,0,1-.667-.667m0,8.173a.668.668,0,0,1,.667-.667.667.667,0,0,1,.653.667.667.667,0,0,1-.653.667.668.668,0,0,1-.667-.667m0,8.173a.668.668,0,0,1,.667-.667.667.667,0,0,1,.653.667.658.658,0,0,1-.653.667.659.659,0,0,1-.667-.667m0,8.187a.659.659,0,0,1,.667-.667.658.658,0,0,1,.653.667.667.667,0,0,1-.653.667.668.668,0,0,1-.667-.667" fill="#dadbd8"/>
      <path id="path68" d="M221.066-141.416a.632.632,0,0,1-.48-.2l-.147-.213-.053-.253.053-.253.147-.213a.675.675,0,0,1,.732-.147l.213.147.148.213.04.253-.04.253-.148.213-.213.147-.252.053" fill="#dadbd8"/>
      <path id="path70" d="M228.026-142.082a.669.669,0,0,1,.667-.667.66.66,0,0,1,.667.667.66.66,0,0,1-.667.667.669.669,0,0,1-.667-.667m7.64,0a.66.66,0,0,1,.667-.667.669.669,0,0,1,.667.667.669.669,0,0,1-.667.667.66.66,0,0,1-.667-.667m7.627,0a.669.669,0,0,1,.667-.667.66.66,0,0,1,.667.667.66.66,0,0,1-.667.667.669.669,0,0,1-.667-.667m7.64,0a.66.66,0,0,1,.667-.667.669.669,0,0,1,.667.667.669.669,0,0,1-.667.667.66.66,0,0,1-.667-.667m7.627,0a.671.671,0,0,1,.68-.667.657.657,0,0,1,.653.667.657.657,0,0,1-.653.667.671.671,0,0,1-.68-.667m7.639,0a.661.661,0,0,1,.667-.667.668.668,0,0,1,.667.667.668.668,0,0,1-.667.667.661.661,0,0,1-.667-.667m7.641,0a.66.66,0,0,1,.667-.667.669.669,0,0,1,.667.667.669.669,0,0,1-.667.667.66.66,0,0,1-.667-.667m7.627,0a.669.669,0,0,1,.667-.667.66.66,0,0,1,.667.667.66.66,0,0,1-.667.667.669.669,0,0,1-.667-.667m7.64,0a.66.66,0,0,1,.667-.667.669.669,0,0,1,.667.667.669.669,0,0,1-.667.667.66.66,0,0,1-.667-.667m7.627,0a.668.668,0,0,1,.667-.667.66.66,0,0,1,.667.667.66.66,0,0,1-.667.667.668.668,0,0,1-.667-.667" fill="#dadbd8"/>
      <path id="path72" d="M305.038-141.416l-.252-.053-.227-.147-.135-.213-.053-.253a.667.667,0,0,1,.188-.467l.227-.147a.667.667,0,0,1,.507,0l.213.147a.678.678,0,0,1,.2.467l-.053.253-.145.213-.213.147-.255.053" fill="#dadbd8"/>
      <path id="path74" d="M304.371-250.762a.661.661,0,0,1,.667-.667.668.668,0,0,1,.667.667.668.668,0,0,1-.667.667.661.661,0,0,1-.667-.667m0,7.76a.661.661,0,0,1,.667-.667.668.668,0,0,1,.667.667.668.668,0,0,1-.667.667.661.661,0,0,1-.667-.667m0,7.76a.669.669,0,0,1,.667-.667.677.677,0,0,1,.667.667.668.668,0,0,1-.667.667.661.661,0,0,1-.667-.667m0,7.773a.661.661,0,0,1,.667-.667.668.668,0,0,1,.667.667.677.677,0,0,1-.667.667.669.669,0,0,1-.667-.667m0,7.76a.661.661,0,0,1,.667-.667.668.668,0,0,1,.667.667.677.677,0,0,1-.667.667.669.669,0,0,1-.667-.667m0,7.76a.661.661,0,0,1,.667-.667.668.668,0,0,1,.667.667.668.668,0,0,1-.667.667.661.661,0,0,1-.667-.667m0,7.76a.669.669,0,0,1,.667-.667.677.677,0,0,1,.667.667.668.668,0,0,1-.667.667.661.661,0,0,1-.667-.667m0,7.773a.661.661,0,0,1,.667-.667.668.668,0,0,1,.667.667.677.677,0,0,1-.667.667.669.669,0,0,1-.667-.667m0,7.76a.661.661,0,0,1,.667-.667.668.668,0,0,1,.667.667.677.677,0,0,1-.667.667.669.669,0,0,1-.667-.667m0,7.76a.661.661,0,0,1,.667-.667.668.668,0,0,1,.667.667.677.677,0,0,1-.667.667.669.669,0,0,1-.667-.667m0,7.76a.669.669,0,0,1,.667-.667.677.677,0,0,1,.667.667.668.668,0,0,1-.667.667.661.661,0,0,1-.667-.667m0,7.76a.669.669,0,0,1,.667-.667.677.677,0,0,1,.667.667.668.668,0,0,1-.667.667.661.661,0,0,1-.667-.667m0,7.773a.672.672,0,0,1,.667-.68.679.679,0,0,1,.667.68.677.677,0,0,1-.667.667.669.669,0,0,1-.667-.667m0,7.76a.661.661,0,0,1,.667-.667.668.668,0,0,1,.667.667.677.677,0,0,1-.667.667.669.669,0,0,1-.667-.667" fill="#dadbd8"/>
      <path id="path76" d="M305.038-257.855l-.252-.053-.227-.147-.135-.213-.053-.253a.7.7,0,0,1,.188-.48l.227-.133a.667.667,0,0,1,.507,0l.213.133a.736.736,0,0,1,.2.48l-.053.253-.145.213-.213.147-.255.053" fill="#dadbd8"/>
      <path id="path78" d="M312.439-258.522a.66.66,0,0,1,.667-.667.669.669,0,0,1,.667.667.677.677,0,0,1-.667.667.669.669,0,0,1-.667-.667m8.067,0a.66.66,0,0,1,.667-.667.669.669,0,0,1,.667.667.678.678,0,0,1-.667.667.669.669,0,0,1-.667-.667m8.053,0a.668.668,0,0,1,.667-.667.66.66,0,0,1,.667.667.669.669,0,0,1-.667.667.677.677,0,0,1-.667-.667m8.067,0a.669.669,0,0,1,.667-.667.66.66,0,0,1,.667.667.669.669,0,0,1-.667.667.677.677,0,0,1-.667-.667m8.067,0a.659.659,0,0,1,.667-.667.659.659,0,0,1,.665.667.667.667,0,0,1-.665.667.668.668,0,0,1-.667-.667m8.065,0a.67.67,0,0,1,.667-.667.659.659,0,0,1,.667.667.668.668,0,0,1-.667.667.678.678,0,0,1-.667-.667m8.068,0a.66.66,0,0,1,.667-.667.669.669,0,0,1,.667.667.677.677,0,0,1-.667.667.669.669,0,0,1-.667-.667m8.067,0a.66.66,0,0,1,.667-.667.669.669,0,0,1,.667.667.678.678,0,0,1-.667.667.669.669,0,0,1-.667-.667m8.067,0a.659.659,0,0,1,.667-.667.669.669,0,0,1,.667.667.678.678,0,0,1-.667.667.668.668,0,0,1-.667-.667m8.067,0a.657.657,0,0,1,.653-.667.66.66,0,0,1,.667.667.669.669,0,0,1-.667.667.665.665,0,0,1-.653-.667m8.053,0a.669.669,0,0,1,.667-.667.66.66,0,0,1,.667.667.669.669,0,0,1-.667.667.677.677,0,0,1-.667-.667m8.065,0a.669.669,0,0,1,.667-.667.672.672,0,0,1,.681.667.681.681,0,0,1-.681.667.678.678,0,0,1-.667-.667m8.068,0a.669.669,0,0,1,.667-.667.661.661,0,0,1,.667.667.669.669,0,0,1-.667.667.677.677,0,0,1-.667-.667" fill="#dadbd8"/>
      <path id="path80" d="M417.946-257.855a.685.685,0,0,1-.468-.2l-.145-.213-.053-.253.053-.253.145-.227.215-.133a.562.562,0,0,1,.505,0l.227.133.135.227.053.253a.662.662,0,0,1-.188.467.732.732,0,0,1-.479.2" fill="#dadbd8"/>
      <path id="path82" d="M417.279-292.189a.677.677,0,0,1,.667-.667.67.67,0,0,1,.667.667.661.661,0,0,1-.667.667.668.668,0,0,1-.667-.667m0,8.413a.677.677,0,0,1,.667-.667.67.67,0,0,1,.667.667.661.661,0,0,1-.667.667.668.668,0,0,1-.667-.667m0,8.427a.668.668,0,0,1,.667-.667.661.661,0,0,1,.667.667.658.658,0,0,1-.667.653.665.665,0,0,1-.667-.653m0,8.413a.668.668,0,0,1,.667-.667.661.661,0,0,1,.667.667.669.669,0,0,1-.667.667.677.677,0,0,1-.667-.667" fill="#dadbd8"/>
      <path id="path84" d="M417.946-299.935a.672.672,0,0,1-.468-.187l-.145-.227-.053-.253.053-.253.145-.213.215-.147a.663.663,0,0,1,.505,0l.227.147.135.213.053.253a.719.719,0,0,1-.188.48.718.718,0,0,1-.479.187" fill="#dadbd8"/>
      <path id="path86" d="M496.637-152.522a.685.685,0,0,1-.479-.2.662.662,0,0,1-.188-.467.719.719,0,0,1,.188-.48.7.7,0,0,1,.733-.133l.213.133.145.227.041.253a.666.666,0,0,1-.187.467.685.685,0,0,1-.468.2" fill="#dadbd8"/>
      <path id="path88" d="M495.959-145.509a.669.669,0,0,1,.667-.667.67.67,0,0,1,.679.667.679.679,0,0,1-.679.667.677.677,0,0,1-.667-.667m0,7.68a.669.669,0,0,1,.667-.667.67.67,0,0,1,.679.667.67.67,0,0,1-.679.667.669.669,0,0,1-.667-.667m0,7.68a.678.678,0,0,1,.667-.667.679.679,0,0,1,.679.667.67.67,0,0,1-.679.667.669.669,0,0,1-.667-.667m0,7.68a.678.678,0,0,1,.667-.667.679.679,0,0,1,.679.667.681.681,0,0,1-.679.68.68.68,0,0,1-.667-.68m0,7.693a.669.669,0,0,1,.667-.667.67.67,0,0,1,.679.667.679.679,0,0,1-.679.667.678.678,0,0,1-.667-.667m0,7.68a.669.669,0,0,1,.667-.667.67.67,0,0,1,.679.667.671.671,0,0,1-.679.667.669.669,0,0,1-.667-.667" fill="#dadbd8"/>
      <path id="path90" d="M496.637-98.749a.654.654,0,0,1-.479-.2.66.66,0,0,1-.187-.467l.04-.253.147-.213a.685.685,0,0,1,.947,0,.667.667,0,0,1,.187.467l-.041.254-.145.213-.213.147-.255.053" fill="#dadbd8"/>
      <path id="path92" d="M312.346-99.416a.668.668,0,0,1,.667-.667.67.67,0,0,1,.679.667.67.67,0,0,1-.679.667.668.668,0,0,1-.667-.667m7.987,0a.669.669,0,0,1,.667-.667.661.661,0,0,1,.667.667.661.661,0,0,1-.667.667.669.669,0,0,1-.667-.667m7.985,0a.661.661,0,0,1,.667-.667.668.668,0,0,1,.667.667.668.668,0,0,1-.667.667.661.661,0,0,1-.667-.667m7.987,0a.661.661,0,0,1,.668-.667.667.667,0,0,1,.665.667.667.667,0,0,1-.665.667.661.661,0,0,1-.668-.667m7.988,0a.656.656,0,0,1,.653-.667.661.661,0,0,1,.667.667.661.661,0,0,1-.667.667.656.656,0,0,1-.653-.667m7.973,0a.66.66,0,0,1,.667-.667.66.66,0,0,1,.667.667.66.66,0,0,1-.667.667.66.66,0,0,1-.667-.667m7.985,0a.661.661,0,0,1,.667-.667.668.668,0,0,1,.667.667.668.668,0,0,1-.667.667.661.661,0,0,1-.667-.667m7.988,0a.659.659,0,0,1,.667-.667.669.669,0,0,1,.667.667.669.669,0,0,1-.667.667.659.659,0,0,1-.667-.667m7.973,0a.669.669,0,0,1,.667-.667.661.661,0,0,1,.667.667.661.661,0,0,1-.667.667.669.669,0,0,1-.667-.667m7.985,0a.669.669,0,0,1,.667-.667.668.668,0,0,1,.667.667.668.668,0,0,1-.667.667.669.669,0,0,1-.667-.667m7.988,0a.659.659,0,0,1,.667-.667.669.669,0,0,1,.667.667.669.669,0,0,1-.667.667.659.659,0,0,1-.667-.667m7.973,0a.668.668,0,0,1,.667-.667.672.672,0,0,1,.68.667.672.672,0,0,1-.68.667.669.669,0,0,1-.667-.667m7.985,0a.669.669,0,0,1,.667-.667.659.659,0,0,1,.667.667.659.659,0,0,1-.667.667.669.669,0,0,1-.667-.667m7.988,0a.659.659,0,0,1,.667-.667.66.66,0,0,1,.667.667.66.66,0,0,1-.667.667.659.659,0,0,1-.667-.667m7.987,0a.66.66,0,0,1,.667-.667.669.669,0,0,1,.667.667.669.669,0,0,1-.667.667.66.66,0,0,1-.667-.667m7.972,0a.673.673,0,0,1,.681-.667.669.669,0,0,1,.667.667.669.669,0,0,1-.667.667.673.673,0,0,1-.681-.667m7.988,0a.669.669,0,0,1,.667-.667.66.66,0,0,1,.667.667.66.66,0,0,1-.667.667.669.669,0,0,1-.667-.667m7.987,0a.66.66,0,0,1,.667-.667.669.669,0,0,1,.667.667.669.669,0,0,1-.667.667.66.66,0,0,1-.667-.667m7.987,0a.66.66,0,0,1,.667-.667.668.668,0,0,1,.667.667.669.669,0,0,1-.667.667.66.66,0,0,1-.667-.667m7.973,0a.669.669,0,0,1,.667-.667.66.66,0,0,1,.667.667.66.66,0,0,1-.667.667.669.669,0,0,1-.667-.667m7.987,0a.659.659,0,0,1,.667-.667.66.66,0,0,1,.667.667.66.66,0,0,1-.667.667.659.659,0,0,1-.667-.667m7.987,0a.66.66,0,0,1,.667-.667.669.669,0,0,1,.667.667.669.669,0,0,1-.667.667.66.66,0,0,1-.667-.667m7.985,0a.661.661,0,0,1,.667-.667.668.668,0,0,1,.667.667.668.668,0,0,1-.667.667.661.661,0,0,1-.667-.667" fill="#dadbd8"/>
      <path id="path94" d="M305.038-98.749l-.252-.053-.227-.147-.135-.213-.053-.254.053-.253.135-.213.227-.146a.667.667,0,0,1,.507,0l.213.146.145.213.053.253-.053.254-.145.213-.213.147-.255.053" fill="#dadbd8"/>
      <path id="path96" d="M304.371-133.549a.661.661,0,0,1,.667-.667.668.668,0,0,1,.667.667.668.668,0,0,1-.667.667.661.661,0,0,1-.667-.667m0,8.533a.661.661,0,0,1,.667-.667.668.668,0,0,1,.667.667.668.668,0,0,1-.667.667.661.661,0,0,1-.667-.667m0,8.533a.661.661,0,0,1,.667-.667.668.668,0,0,1,.667.667.668.668,0,0,1-.667.667.661.661,0,0,1-.667-.667m0,8.533a.661.661,0,0,1,.667-.667.668.668,0,0,1,.667.667.668.668,0,0,1-.667.667.661.661,0,0,1-.667-.667" fill="#dadbd8"/>
      <path id="path98" d="M305.038-141.416l-.252-.053-.227-.147-.135-.213-.053-.253a.667.667,0,0,1,.188-.467l.227-.147a.667.667,0,0,1,.507,0l.213.147a.678.678,0,0,1,.2.467l-.053.253-.145.213-.213.147-.255.053" fill="#dadbd8"/>
      <path id="path100" d="M305.038-299.935l-.252-.053-.227-.147-.135-.213-.053-.253.053-.253.135-.213.227-.147a.667.667,0,0,1,.507,0l.213.147.145.213.053.253a.678.678,0,0,1-.2.467l-.213.147-.255.053" fill="#dadbd8"/>
      <path id="path102" d="M304.371-292.189a.67.67,0,0,1,.667-.667.677.677,0,0,1,.667.667.668.668,0,0,1-.667.667.661.661,0,0,1-.667-.667m0,8.413a.67.67,0,0,1,.667-.667.677.677,0,0,1,.667.667.668.668,0,0,1-.667.667.661.661,0,0,1-.667-.667m0,8.427a.661.661,0,0,1,.667-.667.668.668,0,0,1,.667.667.677.677,0,0,1-.667.667.669.669,0,0,1-.667-.667m0,8.413a.672.672,0,0,1,.667-.68.679.679,0,0,1,.667.68.677.677,0,0,1-.667.667.669.669,0,0,1-.667-.667" fill="#dadbd8"/>
      <path id="path104" d="M305.038-257.855l-.252-.053-.227-.147-.135-.213-.053-.253a.7.7,0,0,1,.188-.48l.227-.133a.667.667,0,0,1,.507,0l.213.133a.736.736,0,0,1,.2.48l-.053.253-.145.213-.213.147-.255.053" fill="#dadbd8"/>
      <path id="path106" d="M591.851-15.1C591.851-6.76,476.109,0,333.333,0S74.814-6.76,74.814-15.1,190.557-30.2,333.332-30.2,591.85-23.436,591.85-15.1" fill="#f3f2f1"/>
      <path id="path108" d="M164.4-98.772l2.615-45.656a5.179,5.179,0,0,1,5.108-4.831H246.21a4.513,4.513,0,0,1,4.555,4.831l-2.616,45.656a5.179,5.179,0,0,1-5.107,4.831H168.956a4.511,4.511,0,0,1-4.553-4.831" fill="#406fbf"/>
      <path id="path110" d="M160.658-98.772l2.615-45.656a5.179,5.179,0,0,1,5.108-4.831h77.058a4.513,4.513,0,0,1,4.555,4.831l-2.615,45.656a5.181,5.181,0,0,1-5.108,4.831h-77.06a4.511,4.511,0,0,1-4.553-4.831" fill="#fff"/>
      <path id="path112" d="M242.271-93.941h-77.06a4.506,4.506,0,0,1-4.561-4.551q0-.14.008-.28l2.615-45.656a5.179,5.179,0,0,1,5.108-4.831h77.058A4.507,4.507,0,0,1,250-144.708q0,.14-.008.28l-2.615,45.656a5.181,5.181,0,0,1-5.108,4.831h0m-18.343-2.342h19.427a2.286,2.286,0,0,0,2.252-2.131l2.656-46.373a1.991,1.991,0,0,0-2.009-2.131H167.3a2.284,2.284,0,0,0-2.252,2.131l-2.656,46.373a1.99,1.99,0,0,0,2.008,2.131h59.532" fill="#b8d2ef"/>
      <path id="path114" d="M192.286-84.126v-.6a4.832,4.832,0,0,1,4.831-4.832h27.865a4.832,4.832,0,0,1,4.831,4.832v.6a4.831,4.831,0,0,1-4.831,4.831H197.117a4.831,4.831,0,0,1-4.831-4.831" fill="#406fbf"/>
      <path id="path116" d="M224.982-79.3h-8.475a4.832,4.832,0,0,0,4.832-4.831v-.6h0a4.833,4.833,0,0,0-4.832-4.832h8.475a4.832,4.832,0,0,1,4.831,4.832v.6a4.831,4.831,0,0,1-4.831,4.831" fill="#a4c3e9"/>
      <path id="path118" d="M180.838-84.126v-.6a4.832,4.832,0,0,1,4.831-4.832h30.839a4.833,4.833,0,0,1,4.832,4.832v.6a4.832,4.832,0,0,1-4.832,4.831H185.669a4.831,4.831,0,0,1-4.831-4.831" fill="#fff"/>
      <path id="path120" d="M216.507-79.3H185.669a4.831,4.831,0,0,1-4.831-4.831v-.6a4.832,4.832,0,0,1,4.831-4.832h30.839a4.833,4.833,0,0,1,4.832,4.832v.6a4.832,4.832,0,0,1-4.832,4.831h0" fill="#b8d2ef"/>
      <path id="path122" d="M243.355-96.283H223.929l14.364-50.634H227.322L212.958-96.283H200.01l14.365-50.634H203.4L189.041-96.283h-1.888l14.364-50.634h-15.7L171.45-96.283H164.4a1.99,1.99,0,0,1-2.008-2.131l2.656-46.373a2.284,2.284,0,0,1,2.252-2.131h78.957a1.991,1.991,0,0,1,2.009,2.131l-2.656,46.373a2.286,2.286,0,0,1-2.252,2.131" fill="#f7fbfe"/>
      <path id="path124" d="M187.153-96.283h-15.7l14.364-50.634h15.7L187.153-96.283" fill="#dfebf9"/>
      <path id="path126" d="M200.01-96.283H189.041L203.4-146.917h10.971L200.01-96.283" fill="#dfebf9"/>
      <path id="path128" d="M223.929-96.283H212.958l14.364-50.634h10.971L223.929-96.283" fill="#dfebf9"/>
      <path id="path130" d="M292.023-98.772l2.615-45.656a5.181,5.181,0,0,1,5.108-4.831h74.085a4.512,4.512,0,0,1,4.555,4.831l-2.615,45.656a5.181,5.181,0,0,1-5.108,4.831H296.578a4.512,4.512,0,0,1-4.555-4.831" fill="#406fbf"/>
      <path id="path132" d="M288.279-98.772l2.615-45.656A5.181,5.181,0,0,1,296-149.258H373.06a4.512,4.512,0,0,1,4.555,4.831L375-98.772a5.18,5.18,0,0,1-5.108,4.831H292.834a4.512,4.512,0,0,1-4.555-4.831" fill="#fff"/>
      <path id="path134" d="M369.892-93.941H292.834a4.506,4.506,0,0,1-4.563-4.551q0-.14.008-.28l2.615-45.656A5.181,5.181,0,0,1,296-149.258H373.06a4.506,4.506,0,0,1,4.563,4.551q0,.14-.008.28L375-98.772a5.181,5.181,0,0,1-5.108,4.831h0M351.55-96.283h19.427a2.284,2.284,0,0,0,2.252-2.131l2.656-46.373a1.99,1.99,0,0,0-2.008-2.131H294.918a2.285,2.285,0,0,0-2.252,2.131L290.01-98.413a1.991,1.991,0,0,0,2.009,2.131H351.55" fill="#b8d2ef"/>
      <path id="path136" d="M319.907-84.126v-.6a4.833,4.833,0,0,1,4.832-4.832H352.6a4.832,4.832,0,0,1,4.832,4.832v.6A4.831,4.831,0,0,1,352.6-79.3H324.739a4.832,4.832,0,0,1-4.832-4.831" fill="#406fbf"/>
      <path id="path138" d="M352.6-79.3H344.13a4.831,4.831,0,0,0,4.831-4.831v-.6h0a4.832,4.832,0,0,0-4.831-4.832H352.6a4.832,4.832,0,0,1,4.832,4.832v.6A4.831,4.831,0,0,1,352.6-79.3" fill="#a4c3e9"/>
      <path id="path140" d="M308.461-84.126v-.6a4.832,4.832,0,0,1,4.831-4.832H344.13a4.832,4.832,0,0,1,4.831,4.832v.6A4.831,4.831,0,0,1,344.13-79.3H313.291a4.831,4.831,0,0,1-4.831-4.831" fill="#fff"/>
      <path id="path142" d="M344.13-79.3H313.291a4.831,4.831,0,0,1-4.831-4.831v-.6a4.832,4.832,0,0,1,4.831-4.832H344.13a4.832,4.832,0,0,1,4.831,4.832v.6A4.831,4.831,0,0,1,344.13-79.3h0" fill="#b8d2ef"/>
      <path id="path144" d="M370.976-96.283H351.55l14.364-50.634H354.943L340.581-96.283H327.633L342-146.917H331.026L316.662-96.283h-1.888l14.364-50.634h-15.7L299.073-96.283h-7.053a1.991,1.991,0,0,1-2.009-2.131l2.656-46.373a2.285,2.285,0,0,1,2.252-2.131h78.958a1.99,1.99,0,0,1,2.008,2.131l-2.656,46.373a2.284,2.284,0,0,1-2.252,2.131" fill="#f7fbfe"/>
      <path id="path146" d="M314.774-96.283h-15.7l14.364-50.634h15.7L314.774-96.283" fill="#dfebf9"/>
      <path id="path148" d="M327.633-96.283H316.662l14.364-50.634H342L327.633-96.283" fill="#dfebf9"/>
      <path id="path150" d="M351.55-96.283H340.58l14.363-50.634h10.971L351.55-96.283" fill="#dfebf9"/>
      <path id="path152" d="M419.644-98.772l2.616-45.656a5.18,5.18,0,0,1,5.107-4.831h74.086a4.511,4.511,0,0,1,4.553,4.831l-2.615,45.656a5.18,5.18,0,0,1-5.108,4.831H424.2a4.513,4.513,0,0,1-4.555-4.831" fill="#406fbf"/>
      <path id="path154" d="M415.9-98.772l2.616-45.656a5.179,5.179,0,0,1,5.107-4.831h77.06a4.513,4.513,0,0,1,4.555,4.831l-2.615,45.656a5.181,5.181,0,0,1-5.108,4.831h-77.06a4.513,4.513,0,0,1-4.555-4.831" fill="#fff"/>
      <path id="path156" d="M497.515-93.941h-77.06a4.508,4.508,0,0,1-4.563-4.551q0-.14.008-.28l2.616-45.656a5.179,5.179,0,0,1,5.107-4.831h77.06a4.507,4.507,0,0,1,4.563,4.551q0,.14-.008.28l-2.615,45.656a5.181,5.181,0,0,1-5.108,4.831h0m-18.344-2.342H498.6a2.286,2.286,0,0,0,2.253-2.131l2.656-46.373a1.991,1.991,0,0,0-2.008-2.131H422.54a2.286,2.286,0,0,0-2.253,2.131l-2.655,46.373a1.989,1.989,0,0,0,2.008,2.131h59.53" fill="#b8d2ef"/>
      <path id="path158" d="M447.53-84.126v-.6a4.832,4.832,0,0,1,4.831-4.832h27.865a4.832,4.832,0,0,1,4.831,4.832v.6a4.831,4.831,0,0,1-4.831,4.831H452.36a4.831,4.831,0,0,1-4.831-4.831" fill="#406fbf"/>
      <path id="path160" d="M480.225-79.3h-8.475a4.832,4.832,0,0,0,4.832-4.831v-.6h0a4.833,4.833,0,0,0-4.832-4.832h8.475a4.832,4.832,0,0,1,4.831,4.832v.6a4.831,4.831,0,0,1-4.831,4.831" fill="#a4c3e9"/>
      <path id="path162" d="M436.082-84.126v-.6a4.832,4.832,0,0,1,4.832-4.832h30.837a4.833,4.833,0,0,1,4.832,4.832v.6a4.832,4.832,0,0,1-4.832,4.831H440.914a4.831,4.831,0,0,1-4.832-4.831" fill="#fff"/>
      <path id="path164" d="M471.751-79.3H440.914a4.831,4.831,0,0,1-4.832-4.831v-.6a4.832,4.832,0,0,1,4.832-4.832h30.837a4.833,4.833,0,0,1,4.832,4.832v.6a4.832,4.832,0,0,1-4.832,4.831h0" fill="#b8d2ef"/>
      <path id="path166" d="M498.6-96.283H479.171l14.364-50.634H482.565L468.2-96.283H455.254l14.364-50.634H458.648L444.284-96.283H442.4l14.364-50.634h-15.7L426.694-96.283H419.64a1.989,1.989,0,0,1-2.008-2.131l2.655-46.373a2.286,2.286,0,0,1,2.253-2.131H501.5a1.991,1.991,0,0,1,2.008,2.131l-2.656,46.373a2.286,2.286,0,0,1-2.253,2.131" fill="#f7fbfe"/>
      <path id="path168" d="M442.4-96.283h-15.7l14.364-50.634h15.7L442.4-96.283" fill="#dfebf9"/>
      <path id="path170" d="M455.254-96.283H444.284l14.364-50.634h10.969L455.254-96.283" fill="#dfebf9"/>
      <path id="path172" d="M479.171-96.283H468.2l14.364-50.634h10.969L479.171-96.283" fill="#dfebf9"/>
      <path id="path174" d="M204.906-158.349l-.255-.053-.227-.147-.132-.213-.053-.253a.674.674,0,0,1,.185-.48.7.7,0,0,1,.735-.147l.212.147.148.213.053.267-.053.253-.148.213-.212.147-.253.053" fill="#406fbf"/>
      <path id="path176" d="M204.24-163.909a.668.668,0,0,1,.667-.667.669.669,0,0,1,.667.667.66.66,0,0,1-.667.667.659.659,0,0,1-.667-.667" fill="#406fbf"/>
      <path id="path178" d="M204.906-168.122a.682.682,0,0,1-.481-.2l-.132-.213-.053-.253a.665.665,0,0,1,.185-.467.679.679,0,0,1,.735-.147l.212.147.148.213.053.253-.053.253-.148.213-.212.147-.253.053" fill="#406fbf"/>
      <path id="path180" d="M209.585-168.789a.678.678,0,0,1,.667-.667.668.668,0,0,1,.667.667.659.659,0,0,1-.667.667A.669.669,0,0,1,209.585-168.789Zm5.361,0a.666.666,0,0,1,.653-.667.669.669,0,0,1,.667.667.661.661,0,0,1-.667.667A.657.657,0,0,1,214.946-168.789Zm5.347,0a.668.668,0,0,1,.667-.667.678.678,0,0,1,.667.667.669.669,0,0,1-.667.667A.659.659,0,0,1,220.293-168.789Zm5.345,0a.678.678,0,0,1,.667-.667.668.668,0,0,1,.667.667.659.659,0,0,1-.667.667A.669.669,0,0,1,225.638-168.789Zm5.347,0a.678.678,0,0,1,.667-.667.668.668,0,0,1,.667.667.659.659,0,0,1-.667.667A.669.669,0,0,1,230.985-168.789Zm5.361,0a.668.668,0,0,1,.667-.667.678.678,0,0,1,.667.667.669.669,0,0,1-.667.667A.659.659,0,0,1,236.346-168.789Zm5.347,0a.668.668,0,0,1,.667-.667.669.669,0,0,1,.667.667.66.66,0,0,1-.667.667A.659.659,0,0,1,241.693-168.789Zm5.345,0a.678.678,0,0,1,.667-.667.681.681,0,0,1,.681.667.672.672,0,0,1-.681.667A.669.669,0,0,1,247.038-168.789Zm5.361,0a.669.669,0,0,1,.667-.667.669.669,0,0,1,.667.667.66.66,0,0,1-.667.667A.66.66,0,0,1,252.4-168.789Zm5.347,0a.677.677,0,0,1,.667-.667.669.669,0,0,1,.667.667.66.66,0,0,1-.667.667A.669.669,0,0,1,257.746-168.789Zm5.345,0a.681.681,0,0,1,.681-.667.677.677,0,0,1,.667.667.669.669,0,0,1-.667.667A.673.673,0,0,1,263.091-168.789Zm5.361,0a.669.669,0,0,1,.667-.667.678.678,0,0,1,.667.667.669.669,0,0,1-.667.667A.66.66,0,0,1,268.453-168.789Zm5.347,0a.677.677,0,0,1,.667-.667.669.669,0,0,1,.667.667.66.66,0,0,1-.667.667A.669.669,0,0,1,273.8-168.789Zm5.36,0a.669.669,0,0,1,.667-.667.677.677,0,0,1,.667.667.669.669,0,0,1-.667.667A.66.66,0,0,1,279.159-168.789Zm5.347,0a.669.669,0,0,1,.667-.667.678.678,0,0,1,.667.667.669.669,0,0,1-.667.667A.66.66,0,0,1,284.506-168.789Zm5.347,0a.677.677,0,0,1,.667-.667.669.669,0,0,1,.667.667.66.66,0,0,1-.667.667A.669.669,0,0,1,289.853-168.789Zm5.36,0a.669.669,0,0,1,.667-.667.677.677,0,0,1,.667.667.669.669,0,0,1-.667.667A.66.66,0,0,1,295.213-168.789Zm5.347,0a.669.669,0,0,1,.667-.667.678.678,0,0,1,.667.667.669.669,0,0,1-.667.667A.66.66,0,0,1,300.559-168.789Zm5.347,0a.677.677,0,0,1,.667-.667.669.669,0,0,1,.667.667.66.66,0,0,1-.667.667A.669.669,0,0,1,305.906-168.789Zm5.36,0a.669.669,0,0,1,.667-.667.665.665,0,0,1,.652.667.656.656,0,0,1-.652.667A.66.66,0,0,1,311.266-168.789Zm5.347,0a.669.669,0,0,1,.667-.667.678.678,0,0,1,.667.667.669.669,0,0,1-.667.667A.66.66,0,0,1,316.613-168.789Zm5.347,0a.677.677,0,0,1,.667-.667.669.669,0,0,1,.667.667.66.66,0,0,1-.667.667A.669.669,0,0,1,321.959-168.789Zm5.359,0a.667.667,0,0,1,.653-.667.668.668,0,0,1,.667.667.659.659,0,0,1-.667.667.658.658,0,0,1-.653-.667" fill="#406fbf"/>
      <path id="path182" d="M333.333-168.122l-.253-.053-.215-.133-.145-.227-.053-.253.053-.253.145-.213.215-.147a.663.663,0,0,1,.505,0l.215.147a.625.625,0,0,1,.2.467l-.053.253-.147.227-.215.133-.252.053" fill="#406fbf"/>
      <path id="path184" d="M333.333-168.122l-.253-.053-.215-.133-.145-.227-.053-.253.053-.253.145-.213.215-.147a.663.663,0,0,1,.505,0l.215.147a.625.625,0,0,1,.2.467l-.053.253-.147.227-.215.133-.252.053" fill="#406fbf"/>
      <path id="path186" d="M332.666-182.669a.668.668,0,0,1,.667-.667.661.661,0,0,1,.667.667.661.661,0,0,1-.667.667A.668.668,0,0,1,332.666-182.669Zm0,4.627a.668.668,0,0,1,.667-.667.661.661,0,0,1,.667.667.661.661,0,0,1-.667.667A.668.668,0,0,1,332.666-178.042Zm0,4.627a.668.668,0,0,1,.667-.667.661.661,0,0,1,.667.667.661.661,0,0,1-.667.667.668.668,0,0,1-.667-.667" fill="#406fbf"/>
      <path id="path188" d="M333.333-186.629a.628.628,0,0,1-.468-.2l-.145-.213-.053-.253.053-.253.145-.227.215-.133a.608.608,0,0,1,.505,0l.215.133.147.227.053.253-.053.253-.147.213a.625.625,0,0,1-.467.2" fill="#406fbf"/>
      <path id="path190" d="M333.333-168.122l-.253-.053-.215-.133-.145-.227-.053-.253.053-.253.145-.213.215-.147a.663.663,0,0,1,.505,0l.215.147a.625.625,0,0,1,.2.467l-.053.253-.147.227-.215.133-.252.053" fill="#406fbf"/>
      <path id="path192" d="M332.666-163.909a.677.677,0,0,1,.667-.667.669.669,0,0,1,.667.667.661.661,0,0,1-.667.667.668.668,0,0,1-.667-.667" fill="#406fbf"/>
      <path id="path194" d="M333.333-158.349a.682.682,0,0,1-.468-.2l-.145-.213-.053-.267.053-.253.145-.213a.683.683,0,0,1,.935,0l.147.213.053.253-.053.267-.147.213a.679.679,0,0,1-.467.2" fill="#406fbf"/>
      <path id="path196" d="M461.758-158.349a.676.676,0,0,1-.465-.2.74.74,0,0,1-.2-.48.68.68,0,0,1,.2-.467.681.681,0,0,1,.933,0l.145.213.053.253a.675.675,0,0,1-.2.48.68.68,0,0,1-.468.2" fill="#406fbf"/>
      <path id="path198" d="M461.091-163.909a.678.678,0,0,1,.667-.667.668.668,0,0,1,.667.667.659.659,0,0,1-.667.667.669.669,0,0,1-.667-.667" fill="#406fbf"/>
      <path id="path200" d="M461.758-168.122a.663.663,0,0,1-.465-.187.74.74,0,0,1-.2-.48.68.68,0,0,1,.2-.467.668.668,0,0,1,.933,0,.624.624,0,0,1,.2.467.675.675,0,0,1-.2.48.667.667,0,0,1-.468.187" fill="#406fbf"/>
      <path id="path202" d="M338.013-168.789a.668.668,0,0,1,.667-.667.672.672,0,0,1,.68.667.672.672,0,0,1-.68.667A.668.668,0,0,1,338.013-168.789Zm5.359,0a.661.661,0,0,1,.667-.667.668.668,0,0,1,.667.667.668.668,0,0,1-.667.667A.661.661,0,0,1,343.371-168.789Zm5.348,0a.66.66,0,0,1,.667-.667.661.661,0,0,1,.667.667.661.661,0,0,1-.667.667A.66.66,0,0,1,348.719-168.789Zm5.347,0a.668.668,0,0,1,.667-.667.672.672,0,0,1,.68.667.672.672,0,0,1-.68.667A.668.668,0,0,1,354.066-168.789Zm5.359,0a.661.661,0,0,1,.667-.667.668.668,0,0,1,.667.667.668.668,0,0,1-.667.667A.661.661,0,0,1,359.424-168.789Zm5.348,0a.669.669,0,0,1,.667-.667.661.661,0,0,1,.667.667.661.661,0,0,1-.667.667A.669.669,0,0,1,364.772-168.789Zm5.347,0a.668.668,0,0,1,.667-.667.672.672,0,0,1,.68.667.672.672,0,0,1-.68.667A.668.668,0,0,1,370.119-168.789Zm5.359,0a.661.661,0,0,1,.667-.667.668.668,0,0,1,.667.667.668.668,0,0,1-.667.667A.661.661,0,0,1,375.478-168.789Zm5.348,0a.669.669,0,0,1,.667-.667.661.661,0,0,1,.667.667.661.661,0,0,1-.667.667A.669.669,0,0,1,380.826-168.789Zm5.347,0a.668.668,0,0,1,.667-.667.66.66,0,0,1,.667.667.66.66,0,0,1-.667.667A.668.668,0,0,1,386.172-168.789Zm5.359,0a.661.661,0,0,1,.667-.667.668.668,0,0,1,.667.667.668.668,0,0,1-.667.667A.661.661,0,0,1,391.531-168.789Zm5.348,0a.669.669,0,0,1,.667-.667.661.661,0,0,1,.667.667.661.661,0,0,1-.667.667A.669.669,0,0,1,396.879-168.789Zm5.347,0a.668.668,0,0,1,.667-.667.66.66,0,0,1,.667.667.66.66,0,0,1-.667.667A.668.668,0,0,1,402.226-168.789Zm5.359,0a.661.661,0,0,1,.667-.667.668.668,0,0,1,.667.667.668.668,0,0,1-.667.667A.661.661,0,0,1,407.584-168.789Zm5.348,0a.669.669,0,0,1,.667-.667.661.661,0,0,1,.667.667.661.661,0,0,1-.667.667A.669.669,0,0,1,412.932-168.789Zm5.347,0a.668.668,0,0,1,.667-.667.672.672,0,0,1,.68.667.672.672,0,0,1-.68.667A.668.668,0,0,1,418.279-168.789Zm5.359,0a.661.661,0,0,1,.667-.667.668.668,0,0,1,.667.667.668.668,0,0,1-.667.667A.661.661,0,0,1,423.638-168.789Zm5.347,0a.669.669,0,0,1,.667-.667.659.659,0,0,1,.667.667.659.659,0,0,1-.667.667A.669.669,0,0,1,428.984-168.789Zm5.348,0a.668.668,0,0,1,.667-.667.672.672,0,0,1,.68.667.672.672,0,0,1-.68.667A.668.668,0,0,1,434.332-168.789Zm5.36,0a.659.659,0,0,1,.667-.667.669.669,0,0,1,.667.667.669.669,0,0,1-.667.667A.659.659,0,0,1,439.692-168.789Zm5.345,0a.669.669,0,0,1,.667-.667.659.659,0,0,1,.667.667.659.659,0,0,1-.667.667A.669.669,0,0,1,445.038-168.789Zm5.348,0a.672.672,0,0,1,.68-.667.669.669,0,0,1,.667.667.669.669,0,0,1-.667.667A.672.672,0,0,1,450.386-168.789Zm5.36,0a.659.659,0,0,1,.667-.667.669.669,0,0,1,.667.667.669.669,0,0,1-.667.667.659.659,0,0,1-.667-.667" fill="#406fbf"/>
      <path id="path204" d="M333.333-168.122l-.253-.053-.215-.133-.145-.227-.053-.253.053-.253.145-.213.215-.147a.663.663,0,0,1,.505,0l.215.147a.625.625,0,0,1,.2.467l-.053.253-.147.227-.215.133-.252.053" fill="#406fbf"/>
      <path id="path206" d="M536.735-309.4a79.891,79.891,0,0,0-79.883-79.219h-33a96.5,96.5,0,0,0-83.69-48.4H275.941v24.485a96.5,96.5,0,0,0-30.015,51.088,83.091,83.091,0,0,0-77.69,82.905,83.1,83.1,0,0,0,83.1,83.1H515.759a58.907,58.907,0,0,0,58.906-58.907A58.919,58.919,0,0,0,536.735-309.4" fill="#406fbf"/>
      <path id="path208" d="M515.759-195.446H463.984a60.307,60.307,0,0,0,47.752-58.908h0a60.553,60.553,0,0,0-37.941-55.937,81.419,81.419,0,0,0-81.166-79.625,80.72,80.72,0,0,0-29.276,5.461,97.146,97.146,0,0,0-71.364-52.569h48.175a96.5,96.5,0,0,1,83.69,48.4h33A79.891,79.891,0,0,1,536.735-309.4a58.919,58.919,0,0,1,37.931,55.049,58.907,58.907,0,0,1-58.907,58.907" fill="#b8d2ef"/>
      <path id="path210" d="M472.511-309.4a79.891,79.891,0,0,0-79.882-79.22,79.645,79.645,0,0,0-29.907,5.808,96.543,96.543,0,0,0-86.781-54.209A96.567,96.567,0,0,0,181.7-361.451a83.089,83.089,0,0,0-77.689,82.905,83.1,83.1,0,0,0,83.1,83.1H451.535a58.906,58.906,0,0,0,58.907-58.907A58.919,58.919,0,0,0,472.511-309.4" fill="#406fbf"/>
      <g id="g212">
        <g id="g214" clip-path="url(#clip-path)">
          <path id="path220" d="M451.535-196.742H405.726a7.588,7.588,0,0,0,7.519-7.588V-338.38a7.59,7.59,0,0,0-7.589-7.589H365.168v-13.62a8.726,8.726,0,0,0-8.725-8.725H261a8.725,8.725,0,0,0-8.724,8.725v46.3H198.634a5.926,5.926,0,0,0-5.927,5.927v87.705a82.842,82.842,0,0,1-24.472-58.892,83.09,83.09,0,0,1,77.69-82.905A96.742,96.742,0,0,1,306.2-430.876a94.719,94.719,0,0,1,55.363,48.632,1.3,1.3,0,0,0,1.167.725,1.267,1.267,0,0,0,.48-.095,78.2,78.2,0,0,1,29.423-5.713,78.82,78.82,0,0,1,78.589,77.936,1.3,1.3,0,0,0,.833,1.2,57.939,57.939,0,0,1,37.1,53.837,57.676,57.676,0,0,1-57.612,57.612" fill="#3b69bb"/>
        </g>
      </g>
      <path id="path222" d="M275.941-435.73c-44.3,0-83.4,31.357-92.973,74.558a1.3,1.3,0,0,1-1.181,1.012,81.927,81.927,0,0,0-76.479,81.613,81.9,81.9,0,0,0,81.8,81.8H451.535a57.676,57.676,0,0,0,57.612-57.612,57.939,57.939,0,0,0-37.1-53.837,1.3,1.3,0,0,1-.833-1.2,78.82,78.82,0,0,0-78.589-77.936,78.195,78.195,0,0,0-29.423,5.713,1.3,1.3,0,0,1-1.647-.631,94.681,94.681,0,0,0-85.618-53.485M451.535-194.153H187.112a84.489,84.489,0,0,1-84.393-84.393,84.528,84.528,0,0,1,77.934-84.129A98.253,98.253,0,0,1,214.3-416.454a98,98,0,0,1,61.636-21.864,97.237,97.237,0,0,1,87.412,53.863,80.721,80.721,0,0,1,29.276-5.461,81.419,81.419,0,0,1,81.166,79.625,60.553,60.553,0,0,1,37.941,55.937,60.268,60.268,0,0,1-60.2,60.2" fill="#406fbf"/>
      <path id="path224" d="M451.535-194.153H187.112a83.97,83.97,0,0,1-31.179-5.968,84.527,84.527,0,0,1-53.214-78.425,84.528,84.528,0,0,1,77.934-84.129A98.253,98.253,0,0,1,214.3-416.454a98,98,0,0,1,61.636-21.864,97.237,97.237,0,0,1,87.412,53.863,80.721,80.721,0,0,1,29.276-5.461,81.419,81.419,0,0,1,81.166,79.625,60.553,60.553,0,0,1,37.941,55.937,60.307,60.307,0,0,1-47.752,58.908h0a60.234,60.234,0,0,1-12.449,1.293m-104.413-2.588H451.535a57.676,57.676,0,0,0,57.612-57.612h0a57.939,57.939,0,0,0-37.1-53.837,1.3,1.3,0,0,1-.833-1.2,78.82,78.82,0,0,0-78.589-77.936,78.195,78.195,0,0,0-29.423,5.713,1.266,1.266,0,0,1-.48.095,1.3,1.3,0,0,1-1.167-.725,94.681,94.681,0,0,0-85.618-53.485c-44.3,0-83.4,31.357-92.973,74.558a1.3,1.3,0,0,1-1.181,1.012,81.927,81.927,0,0,0-76.479,81.613h0a81.9,81.9,0,0,0,81.8,81.8h160.01" fill="#b8d2ef"/>
      <path id="path226" d="M242.234-313.286h21.235a5.925,5.925,0,0,1,5.925,5.927v104.692a5.925,5.925,0,0,1-5.925,5.927H242.234V-313.286" fill="#dadbd8"/>
      <path id="path228" d="M244.347-313.286H198.634a5.926,5.926,0,0,0-5.927,5.927v104.692a5.926,5.926,0,0,0,5.927,5.927h45.713a5.926,5.926,0,0,0,5.927-5.927V-307.359a5.926,5.926,0,0,0-5.927-5.927" fill="#fff"/>
      <path id="path230" d="M250.274-219.834H192.708v-1.081h57.567v1.081" fill="#dadbd8"/>
      <path id="path232" d="M250.274-242.926H192.708v-1.083h57.567v1.083" fill="#dadbd8"/>
      <path id="path234" d="M250.274-266.018H192.708V-267.1h57.567v1.083" fill="#dadbd8"/>
      <path id="path236" d="M250.274-289.111H192.708v-1.083h57.567v1.083" fill="#dadbd8"/>
      <path id="path238" d="M221.411-293.285H202.154a2.2,2.2,0,0,1-2.2-2.2,2.2,2.2,0,0,1,2.2-2.2h19.257a2.2,2.2,0,0,1,2.2,2.2,2.2,2.2,0,0,1-2.2,2.2" fill="#7da6dd"/>
      <path id="path240" d="M221.411-299H202.154a2.2,2.2,0,0,1-2.2-2.2,2.2,2.2,0,0,1,2.2-2.2h19.257a2.2,2.2,0,0,1,2.2,2.2,2.2,2.2,0,0,1-2.2,2.2" fill="#7da6dd"/>
      <path id="path242" d="M221.411-304.713H202.154a2.2,2.2,0,0,1-2.2-2.2,2.2,2.2,0,0,1,2.2-2.2h19.257a2.2,2.2,0,0,1,2.2,2.2,2.2,2.2,0,0,1-2.2,2.2" fill="#7da6dd"/>
      <path id="path244" d="M225.631-297.685h8.04v4.4h-8.04v-4.4" fill="#e7e8e5"/>
      <path id="path246" d="M225.631-303.4h8.04v4.4h-8.04v-4.4" fill="#406fbf"/>
      <path id="path248" d="M225.631-309.113h8.04v4.4h-8.04v-4.4" fill="#e7e8e5"/>
      <path id="path250" d="M234.986-297.685h8.04v4.4h-8.04v-4.4" fill="#e7e8e5"/>
      <path id="path252" d="M234.986-303.4h8.04v4.4h-8.04v-4.4" fill="#e7e8e5"/>
      <path id="path254" d="M234.986-309.113h8.04v4.4h-8.04v-4.4" fill="#406fbf"/>
      <path id="path256" d="M221.411-274.591H202.154a2.2,2.2,0,0,0-2.2,2.2,2.2,2.2,0,0,0,2.2,2.2h19.257a2.2,2.2,0,0,0,2.2-2.2,2.2,2.2,0,0,0-2.2-2.2" fill="#e7e8e5"/>
      <path id="path258" d="M221.411-275.907H202.154a2.2,2.2,0,0,1-2.2-2.2,2.2,2.2,0,0,1,2.2-2.2h19.257a2.2,2.2,0,0,1,2.2,2.2,2.2,2.2,0,0,1-2.2,2.2" fill="#7da6dd"/>
      <path id="path260" d="M221.411-281.621H202.154a2.2,2.2,0,0,1-2.2-2.2,2.2,2.2,0,0,1,2.2-2.2h19.257a2.2,2.2,0,0,1,2.2,2.2,2.2,2.2,0,0,1-2.2,2.2" fill="#7da6dd"/>
      <path id="path262" d="M225.631-274.591h8.04v4.4h-8.04v-4.4" fill="#e7e8e5"/>
      <path id="path264" d="M225.631-280.306h8.04v4.4h-8.04v-4.4" fill="#e7e8e5"/>
      <path id="path266" d="M225.631-286.019h8.04v4.4h-8.04v-4.4" fill="#406fbf"/>
      <path id="path268" d="M234.986-274.591h8.04v4.4h-8.04v-4.4" fill="#e7e8e5"/>
      <path id="path270" d="M234.986-280.306h8.04v4.4h-8.04v-4.4" fill="#e7e8e5"/>
      <path id="path272" d="M234.986-286.019h8.04v4.4h-8.04v-4.4" fill="#e7e8e5"/>
      <path id="path274" d="M221.411-247.1H202.154a2.2,2.2,0,0,1-2.2-2.2,2.2,2.2,0,0,1,2.2-2.2h19.257a2.2,2.2,0,0,1,2.2,2.2,2.2,2.2,0,0,1-2.2,2.2" fill="#7da6dd"/>
      <path id="path276" d="M221.411-252.814H202.154a2.2,2.2,0,0,1-2.2-2.2,2.2,2.2,0,0,1,2.2-2.2h19.257a2.2,2.2,0,0,1,2.2,2.2,2.2,2.2,0,0,1-2.2,2.2" fill="#7da6dd"/>
      <path id="path278" d="M221.411-258.529H202.154a2.2,2.2,0,0,1-2.2-2.2,2.2,2.2,0,0,1,2.2-2.2h19.257a2.2,2.2,0,0,1,2.2,2.2,2.2,2.2,0,0,1-2.2,2.2" fill="#7da6dd"/>
      <path id="path280" d="M225.631-251.5h8.04v4.4h-8.04v-4.4" fill="#e7e8e5"/>
      <path id="path282" d="M225.631-257.213h8.04v4.4h-8.04v-4.4" fill="#406fbf"/>
      <path id="path284" d="M225.631-262.927h8.04v4.4h-8.04v-4.4" fill="#e7e8e5"/>
      <path id="path286" d="M234.986-251.5h8.04v4.4h-8.04v-4.4" fill="#e7e8e5"/>
      <path id="path288" d="M234.986-257.213h8.04v4.4h-8.04v-4.4" fill="#e7e8e5"/>
      <path id="path290" d="M234.986-262.927h8.04v4.4h-8.04v-4.4" fill="#406fbf"/>
      <path id="path292" d="M221.411-224.007H202.154a2.2,2.2,0,0,1-2.2-2.2,2.2,2.2,0,0,1,2.2-2.2h19.257a2.2,2.2,0,0,1,2.2,2.2,2.2,2.2,0,0,1-2.2,2.2" fill="#7da6dd"/>
      <path id="path294" d="M221.411-229.722H202.154a2.2,2.2,0,0,1-2.2-2.2,2.2,2.2,0,0,1,2.2-2.2h19.257a2.2,2.2,0,0,1,2.2,2.2,2.2,2.2,0,0,1-2.2,2.2" fill="#7da6dd"/>
      <path id="path296" d="M221.411-235.435H202.154a2.2,2.2,0,0,1-2.2-2.2,2.2,2.2,0,0,1,2.2-2.2h19.257a2.2,2.2,0,0,1,2.2,2.2,2.2,2.2,0,0,1-2.2,2.2" fill="#7da6dd"/>
      <path id="path298" d="M225.631-228.407h8.04v4.4h-8.04v-4.4" fill="#e7e8e5"/>
      <path id="path300" d="M225.631-234.121h8.04v4.4h-8.04v-4.4" fill="#406fbf"/>
      <path id="path302" d="M225.631-239.834h8.04v4.4h-8.04v-4.4" fill="#e7e8e5"/>
      <path id="path304" d="M234.986-228.407h8.04v4.4h-8.04v-4.4" fill="#406fbf"/>
      <path id="path306" d="M234.986-234.121h8.04v4.4h-8.04v-4.4" fill="#e7e8e5"/>
      <path id="path308" d="M234.986-239.834h8.04v4.4h-8.04v-4.4" fill="#406fbf"/>
      <path id="path310" d="M221.411-200.915H202.154a2.2,2.2,0,0,1-2.2-2.2,2.2,2.2,0,0,1,2.2-2.2h19.257a2.2,2.2,0,0,1,2.2,2.2,2.2,2.2,0,0,1-2.2,2.2" fill="#7da6dd"/>
      <path id="path312" d="M221.411-206.629H202.154a2.2,2.2,0,0,1-2.2-2.2,2.2,2.2,0,0,1,2.2-2.2h19.257a2.2,2.2,0,0,1,2.2,2.2,2.2,2.2,0,0,1-2.2,2.2" fill="#7da6dd"/>
      <path id="path314" d="M221.411-212.343H202.154a2.2,2.2,0,0,1-2.2-2.2,2.2,2.2,0,0,1,2.2-2.2h19.257a2.2,2.2,0,0,1,2.2,2.2,2.2,2.2,0,0,1-2.2,2.2" fill="#7da6dd"/>
      <path id="path316" d="M225.631-205.314h8.04v4.4h-8.04v-4.4" fill="#406fbf"/>
      <path id="path318" d="M225.631-211.029h8.04v4.4h-8.04v-4.4" fill="#e7e8e5"/>
      <path id="path320" d="M225.631-216.742h8.04v4.4h-8.04v-4.4" fill="#e7e8e5"/>
      <path id="path322" d="M234.986-205.314h8.04v4.4h-8.04v-4.4" fill="#e7e8e5"/>
      <path id="path324" d="M234.986-211.029h8.04v4.4h-8.04v-4.4" fill="#e7e8e5"/>
      <path id="path326" d="M234.986-216.742h8.04v4.4h-8.04v-4.4" fill="#406fbf"/>
      <path id="path328" d="M325.183-368.315h31.26a8.726,8.726,0,0,1,8.725,8.725v154.124a8.726,8.726,0,0,1-8.725,8.725h-31.26V-368.315" fill="#dadbd8"/>
      <path id="path330" d="M328.294-368.315H261a8.725,8.725,0,0,0-8.724,8.725v154.124A8.725,8.725,0,0,0,261-196.741h67.3a8.726,8.726,0,0,0,8.725-8.725V-359.59a8.726,8.726,0,0,0-8.725-8.725" fill="#fff"/>
      <path id="path332" d="M337.019-230.737H252.271v-1.593h84.748v1.593" fill="#dadbd8"/>
      <path id="path334" d="M337.019-264.734H252.271v-1.592h84.748v1.592" fill="#dadbd8"/>
      <path id="path336" d="M337.019-298.73H252.271v-1.593h84.748v1.593" fill="#dadbd8"/>
      <path id="path338" d="M337.019-332.726H252.271v-1.593h84.748v1.593" fill="#dadbd8"/>
      <path id="path340" d="M294.529-338.87H266.179a3.238,3.238,0,0,1-3.237-3.239,3.238,3.238,0,0,1,3.237-3.239h28.349a3.238,3.238,0,0,1,3.237,3.239,3.238,3.238,0,0,1-3.237,3.239" fill="#7da6dd"/>
      <path id="path342" d="M294.529-347.282H266.179a3.238,3.238,0,0,1-3.237-3.239,3.238,3.238,0,0,1,3.237-3.239h28.349a3.238,3.238,0,0,1,3.237,3.239,3.238,3.238,0,0,1-3.237,3.239" fill="#7da6dd"/>
      <path id="path344" d="M294.529-355.694H266.179a3.238,3.238,0,0,1-3.237-3.239,3.238,3.238,0,0,1,3.237-3.239h28.349a3.238,3.238,0,0,1,3.237,3.239,3.238,3.238,0,0,1-3.237,3.239" fill="#7da6dd"/>
      <path id="path346" d="M300.742-345.347h11.836v6.477H300.742v-6.477" fill="#e7e8e5"/>
      <path id="path348" d="M300.742-353.759h11.836v6.477H300.742v-6.477" fill="#406fbf"/>
      <path id="path350" d="M300.742-362.17h11.836v6.476H300.742v-6.476" fill="#e7e8e5"/>
      <path id="path352" d="M314.514-345.347H326.35v6.477H314.514v-6.477" fill="#e7e8e5"/>
      <path id="path354" d="M314.514-353.759H326.35v6.477H314.514v-6.477" fill="#e7e8e5"/>
      <path id="path356" d="M314.514-362.17H326.35v6.476H314.514v-6.476" fill="#406fbf"/>
      <path id="path358" d="M294.529-304.874H266.179a3.238,3.238,0,0,1-3.237-3.239,3.237,3.237,0,0,1,3.237-3.237h28.349a3.237,3.237,0,0,1,3.237,3.237,3.238,3.238,0,0,1-3.237,3.239" fill="#7da6dd"/>
      <path id="path360" d="M294.529-313.286H266.179a3.238,3.238,0,0,1-3.237-3.239,3.237,3.237,0,0,1,3.237-3.237h28.349a3.237,3.237,0,0,1,3.237,3.237,3.238,3.238,0,0,1-3.237,3.239" fill="#7da6dd"/>
      <path id="path362" d="M294.529-321.7H266.179a3.238,3.238,0,0,1-3.237-3.239,3.237,3.237,0,0,1,3.237-3.237h28.349a3.237,3.237,0,0,1,3.237,3.237,3.238,3.238,0,0,1-3.237,3.239" fill="#7da6dd"/>
      <path id="path364" d="M300.742-311.351h11.836v6.477H300.742v-6.477" fill="#e7e8e5"/>
      <path id="path366" d="M300.742-319.762h11.836v6.476H300.742v-6.476" fill="#e7e8e5"/>
      <path id="path368" d="M300.742-328.174h11.836v6.476H300.742v-6.476" fill="#406fbf"/>
      <path id="path370" d="M314.514-311.351H326.35v6.477H314.514v-6.477" fill="#406fbf"/>
      <path id="path372" d="M314.514-319.762H326.35v6.476H314.514v-6.476" fill="#e7e8e5"/>
      <path id="path374" d="M314.514-328.174H326.35v6.476H314.514v-6.476" fill="#406fbf"/>
      <path id="path376" d="M294.529-270.878H266.179a3.238,3.238,0,0,1-3.237-3.239,3.237,3.237,0,0,1,3.237-3.237h28.349a3.237,3.237,0,0,1,3.237,3.237,3.238,3.238,0,0,1-3.237,3.239" fill="#7da6dd"/>
      <path id="path378" d="M294.529-279.29H266.179a3.238,3.238,0,0,1-3.237-3.239,3.237,3.237,0,0,1,3.237-3.237h28.349a3.237,3.237,0,0,1,3.237,3.237,3.238,3.238,0,0,1-3.237,3.239" fill="#7da6dd"/>
      <path id="path380" d="M294.529-287.7H266.179a3.238,3.238,0,0,1-3.237-3.239,3.237,3.237,0,0,1,3.237-3.237h28.349a3.237,3.237,0,0,1,3.237,3.237,3.238,3.238,0,0,1-3.237,3.239" fill="#7da6dd"/>
      <path id="path382" d="M300.742-277.354h11.836v6.476H300.742v-6.476" fill="#406fbf"/>
      <path id="path384" d="M300.742-285.766h11.836v6.476H300.742v-6.476" fill="#e7e8e5"/>
      <path id="path386" d="M300.742-294.178h11.836v6.476H300.742v-6.476" fill="#e7e8e5"/>
      <path id="path388" d="M314.514-277.354H326.35v6.476H314.514v-6.476" fill="#e7e8e5"/>
      <path id="path390" d="M314.514-285.766H326.35v6.476H314.514v-6.476" fill="#e7e8e5"/>
      <path id="path392" d="M314.514-294.178H326.35v6.476H314.514v-6.476" fill="#406fbf"/>
      <path id="path394" d="M294.529-236.882H266.179a3.238,3.238,0,0,1-3.237-3.239,3.237,3.237,0,0,1,3.237-3.237h28.349a3.237,3.237,0,0,1,3.237,3.237,3.238,3.238,0,0,1-3.237,3.239" fill="#7da6dd"/>
      <path id="path396" d="M294.529-251.77H266.179a3.238,3.238,0,0,0-3.237,3.239,3.237,3.237,0,0,0,3.237,3.237h28.349a3.237,3.237,0,0,0,3.237-3.237,3.238,3.238,0,0,0-3.237-3.239" fill="#e7e8e5"/>
      <path id="path398" d="M294.529-253.706H266.179a3.237,3.237,0,0,1-3.237-3.237,3.237,3.237,0,0,1,3.237-3.239h28.349a3.238,3.238,0,0,1,3.237,3.239,3.237,3.237,0,0,1-3.237,3.237" fill="#7da6dd"/>
      <path id="path400" d="M300.742-243.358h11.836v6.476H300.742v-6.476" fill="#e7e8e5"/>
      <path id="path402" d="M300.742-251.77h11.836v6.476H300.742v-6.476" fill="#406fbf"/>
      <path id="path404" d="M300.742-260.182h11.836v6.476H300.742v-6.476" fill="#e7e8e5"/>
      <path id="path406" d="M314.514-243.358H326.35v6.476H314.514v-6.476" fill="#406fbf"/>
      <path id="path408" d="M314.514-251.77H326.35v6.476H314.514v-6.476" fill="#406fbf"/>
      <path id="path410" d="M314.514-260.182H326.35v6.476H314.514v-6.476" fill="#e7e8e5"/>
      <path id="path412" d="M294.529-202.886H266.179a3.237,3.237,0,0,1-3.237-3.237,3.238,3.238,0,0,1,3.237-3.239h28.349a3.238,3.238,0,0,1,3.237,3.239,3.237,3.237,0,0,1-3.237,3.237" fill="#7da6dd"/>
      <path id="path414" d="M294.529-211.3H266.179a3.237,3.237,0,0,1-3.237-3.237,3.238,3.238,0,0,1,3.237-3.239h28.349a3.238,3.238,0,0,1,3.237,3.239,3.237,3.237,0,0,1-3.237,3.237" fill="#7da6dd"/>
      <path id="path416" d="M294.529-219.71H266.179a3.237,3.237,0,0,1-3.237-3.237,3.238,3.238,0,0,1,3.237-3.239h28.349a3.238,3.238,0,0,1,3.237,3.239,3.237,3.237,0,0,1-3.237,3.237" fill="#7da6dd"/>
      <path id="path418" d="M300.742-209.362h11.836v6.476H300.742v-6.476" fill="#e7e8e5"/>
      <path id="path420" d="M300.742-217.774h11.836v6.476H300.742v-6.476" fill="#e7e8e5"/>
      <path id="path422" d="M300.742-226.186h11.836v6.476H300.742v-6.476" fill="#e7e8e5"/>
      <path id="path424" d="M314.514-209.362H326.35v6.476H314.514v-6.476" fill="#e7e8e5"/>
      <path id="path426" d="M314.514-217.774H326.35v6.476H314.514v-6.476" fill="#e7e8e5"/>
      <path id="path428" d="M314.514-226.186H326.35v6.476H314.514v-6.476" fill="#406fbf"/>
      <path id="path430" d="M402.948-345.97h27.189a7.587,7.587,0,0,1,7.588,7.589v134.05a7.588,7.588,0,0,1-7.588,7.589H402.948V-345.97" fill="#dadbd8"/>
      <path id="path432" d="M405.655-345.97H347.122a7.589,7.589,0,0,0-7.589,7.589v134.05a7.589,7.589,0,0,0,7.589,7.589h58.533a7.59,7.59,0,0,0,7.589-7.589V-338.38a7.59,7.59,0,0,0-7.589-7.589" fill="#fff"/>
      <path id="path434" d="M413.244-226.31H339.533V-227.7h73.712v1.385" fill="#dadbd8"/>
      <path id="path436" d="M413.244-255.878H339.533v-1.385h73.712v1.385" fill="#dadbd8"/>
      <path id="path438" d="M413.244-285.447H339.533v-1.385h73.712v1.385" fill="#dadbd8"/>
      <path id="path440" d="M413.244-315.015H339.533V-316.4h73.712v1.385" fill="#dadbd8"/>
      <path id="path442" d="M376.286-320.359H351.63a2.817,2.817,0,0,1-2.817-2.817,2.817,2.817,0,0,1,2.817-2.816h24.656a2.817,2.817,0,0,1,2.817,2.816,2.817,2.817,0,0,1-2.817,2.817" fill="#7da6dd"/>
      <path id="path444" d="M376.286-327.675H351.63a2.817,2.817,0,0,1-2.817-2.817,2.817,2.817,0,0,1,2.817-2.816h24.656a2.817,2.817,0,0,1,2.817,2.816,2.817,2.817,0,0,1-2.817,2.817" fill="#7da6dd"/>
      <path id="path446" d="M376.286-334.992H351.63a2.817,2.817,0,0,1-2.817-2.816,2.817,2.817,0,0,1,2.817-2.816h24.656a2.817,2.817,0,0,1,2.817,2.816,2.817,2.817,0,0,1-2.817,2.816" fill="#7da6dd"/>
      <path id="path448" d="M381.691-216.718h10.295v-5.633H381.691v5.633" fill="#e7e8e5"/>
      <path id="path450" d="M381.691-209.4h10.295v-5.632H381.691v5.632" fill="#406fbf"/>
      <path id="path452" d="M381.691-202.086h10.295v-5.632H381.691v5.632" fill="#e7e8e5"/>
      <path id="path454" d="M393.668-216.718h10.295v-5.633H393.668v5.633" fill="#e7e8e5"/>
      <path id="path456" d="M393.668-209.4h10.295v-5.632H393.668v5.632" fill="#e7e8e5"/>
      <path id="path458" d="M393.668-202.086h10.295v-5.632H393.668v5.632" fill="#406fbf"/>
      <path id="path460" d="M376.286-296.423H351.63a2.816,2.816,0,0,0-2.817,2.816,2.817,2.817,0,0,0,2.817,2.816h24.656a2.817,2.817,0,0,0,2.817-2.816,2.816,2.816,0,0,0-2.817-2.816" fill="#e7e8e5"/>
      <path id="path462" d="M376.286-298.107H351.63a2.817,2.817,0,0,1-2.817-2.816,2.817,2.817,0,0,1,2.817-2.817h24.656a2.817,2.817,0,0,1,2.817,2.817,2.817,2.817,0,0,1-2.817,2.816" fill="#7da6dd"/>
      <path id="path464" d="M376.286-305.423H351.63a2.817,2.817,0,0,1-2.817-2.817,2.817,2.817,0,0,1,2.817-2.816h24.656a2.817,2.817,0,0,1,2.817,2.816,2.817,2.817,0,0,1-2.817,2.817" fill="#7da6dd"/>
      <path id="path466" d="M381.691-246.286h10.295v-5.633H381.691v5.633" fill="#e7e8e5"/>
      <path id="path468" d="M381.691-238.97h10.295V-244.6H381.691v5.633" fill="#e7e8e5"/>
      <path id="path470" d="M381.691-231.654h10.295v-5.633H381.691v5.633" fill="#406fbf"/>
      <path id="path472" d="M393.668-246.286h10.295v-5.633H393.668v5.633" fill="#406fbf"/>
      <path id="path474" d="M393.668-238.97h10.295V-244.6H393.668v5.633" fill="#e7e8e5"/>
      <path id="path476" d="M393.668-231.654h10.295v-5.633H393.668v5.633" fill="#406fbf"/>
      <path id="path478" d="M376.286-261.222H351.63a2.817,2.817,0,0,1-2.817-2.817,2.817,2.817,0,0,1,2.817-2.816h24.656a2.817,2.817,0,0,1,2.817,2.816,2.817,2.817,0,0,1-2.817,2.817" fill="#7da6dd"/>
      <path id="path480" d="M376.286-268.539H351.63a2.816,2.816,0,0,1-2.817-2.816,2.817,2.817,0,0,1,2.817-2.816h24.656a2.817,2.817,0,0,1,2.817,2.816,2.816,2.816,0,0,1-2.817,2.816" fill="#7da6dd"/>
      <path id="path482" d="M376.286-275.855H351.63a2.817,2.817,0,0,1-2.817-2.816,2.817,2.817,0,0,1,2.817-2.817h24.656a2.817,2.817,0,0,1,2.817,2.817,2.817,2.817,0,0,1-2.817,2.816" fill="#7da6dd"/>
      <path id="path484" d="M381.691-275.855h10.295v-5.633H381.691v5.633" fill="#406fbf"/>
      <path id="path486" d="M381.691-268.539h10.295v-5.632H381.691v5.632" fill="#e7e8e5"/>
      <path id="path488" d="M381.691-261.222h10.295v-5.633H381.691v5.633" fill="#e7e8e5"/>
      <path id="path490" d="M393.668-275.855h10.295v-5.633H393.668v5.633" fill="#e7e8e5"/>
      <path id="path492" d="M393.668-268.539h10.295v-5.632H393.668v5.632" fill="#e7e8e5"/>
      <path id="path494" d="M393.668-261.222h10.295v-5.633H393.668v5.633" fill="#406fbf"/>
      <path id="path496" d="M376.286-231.654H351.63a2.817,2.817,0,0,1-2.817-2.816,2.817,2.817,0,0,1,2.817-2.817h24.656a2.817,2.817,0,0,1,2.817,2.817,2.817,2.817,0,0,1-2.817,2.816" fill="#7da6dd"/>
      <path id="path498" d="M376.286-238.97H351.63a2.817,2.817,0,0,1-2.817-2.816,2.817,2.817,0,0,1,2.817-2.817h24.656a2.817,2.817,0,0,1,2.817,2.817,2.817,2.817,0,0,1-2.817,2.816" fill="#7da6dd"/>
      <path id="path500" d="M376.286-246.286H351.63a2.817,2.817,0,0,1-2.817-2.817,2.817,2.817,0,0,1,2.817-2.816h24.656A2.817,2.817,0,0,1,379.1-249.1a2.817,2.817,0,0,1-2.817,2.817" fill="#7da6dd"/>
      <path id="path502" d="M381.691-305.423h10.295v-5.633H381.691v5.633" fill="#e7e8e5"/>
      <path id="path504" d="M381.691-298.107h10.295v-5.633H381.691v5.633" fill="#406fbf"/>
      <path id="path506" d="M381.691-290.791h10.295v-5.632H381.691v5.632" fill="#e7e8e5"/>
      <path id="path508" d="M393.668-305.423h10.295v-5.633H393.668v5.633" fill="#406fbf"/>
      <path id="path510" d="M393.668-298.107h10.295v-5.633H393.668v5.633" fill="#e7e8e5"/>
      <path id="path512" d="M393.668-290.791h10.295v-5.632H393.668v5.632" fill="#e7e8e5"/>
      <path id="path514" d="M376.286-202.086H351.63a2.816,2.816,0,0,1-2.817-2.816,2.817,2.817,0,0,1,2.817-2.816h24.656A2.817,2.817,0,0,1,379.1-204.9a2.816,2.816,0,0,1-2.817,2.816" fill="#7da6dd"/>
      <path id="path516" d="M376.286-209.4H351.63a2.816,2.816,0,0,1-2.817-2.816,2.816,2.816,0,0,1,2.817-2.816h24.656a2.816,2.816,0,0,1,2.817,2.816,2.816,2.816,0,0,1-2.817,2.816" fill="#7da6dd"/>
      <path id="path518" d="M376.286-216.718H351.63a2.817,2.817,0,0,1-2.817-2.816,2.817,2.817,0,0,1,2.817-2.817h24.656a2.817,2.817,0,0,1,2.817,2.817,2.817,2.817,0,0,1-2.817,2.816" fill="#7da6dd"/>
      <path id="path520" d="M381.691-334.992h10.295v-5.632H381.691v5.632" fill="#406fbf"/>
      <path id="path522" d="M381.691-327.675h10.295v-5.633H381.691v5.633" fill="#e7e8e5"/>
      <path id="path524" d="M381.691-320.359h10.295v-5.633H381.691v5.633" fill="#e7e8e5"/>
      <path id="path526" d="M393.668-334.992h10.295v-5.632H393.668v5.632" fill="#e7e8e5"/>
      <path id="path528" d="M393.668-327.675h10.295v-5.633H393.668v5.633" fill="#e7e8e5"/>
      <path id="path530" d="M393.668-320.359h10.295v-5.633H393.668v5.633" fill="#406fbf"/>
    </g>
  </g>
</svg>
